<?xml version="1.0" encoding="utf-8"?>
<!-- Generator: Adobe Illustrator 27.9.0, SVG Export Plug-In . SVG Version: 6.00 Build 0)  -->
<svg version="1.1" id="Layer_1" xmlns="http://www.w3.org/2000/svg" xmlns:xlink="http://www.w3.org/1999/xlink" x="0px" y="0px"
	 viewBox="0 0 592 632" style="enable-background:new 0 0 592 632;" xml:space="preserve">
<style type="text/css">
	.st0{fill-rule:evenodd;clip-rule:evenodd;fill:#FEFEFE;}
	.st1{fill-rule:evenodd;clip-rule:evenodd;fill:#392921;}
	.st2{fill-rule:evenodd;clip-rule:evenodd;fill:#F5C308;}
	.st3{fill-rule:evenodd;clip-rule:evenodd;fill:#AF933B;}
	.st4{fill-rule:evenodd;clip-rule:evenodd;fill:#593718;}
	.st5{fill-rule:evenodd;clip-rule:evenodd;fill:#B44B2F;}
	.st6{fill-rule:evenodd;clip-rule:evenodd;fill:#B79631;}
	.st7{fill-rule:evenodd;clip-rule:evenodd;fill:#502717;}
	.st8{fill-rule:evenodd;clip-rule:evenodd;fill:#F3C390;}
	.st9{fill-rule:evenodd;clip-rule:evenodd;fill:#B79F39;}
	.st10{fill-rule:evenodd;clip-rule:evenodd;fill:#D05F30;}
	.st11{fill-rule:evenodd;clip-rule:evenodd;fill:#78685D;}
	.st12{fill-rule:evenodd;clip-rule:evenodd;fill:#2E241B;}
	.st13{fill-rule:evenodd;clip-rule:evenodd;fill:#331E14;}
	.st14{fill-rule:evenodd;clip-rule:evenodd;fill:#2C221B;}
	.st15{fill-rule:evenodd;clip-rule:evenodd;fill:#847162;}
	.st16{fill-rule:evenodd;clip-rule:evenodd;fill:#F4F4F4;}
	.st17{fill-rule:evenodd;clip-rule:evenodd;fill:#222124;}
	.st18{fill-rule:evenodd;clip-rule:evenodd;fill:#48301F;}
	.st19{fill-rule:evenodd;clip-rule:evenodd;fill:#2F1E12;}
	.st20{fill-rule:evenodd;clip-rule:evenodd;fill:#F3C391;}
	.st21{fill-rule:evenodd;clip-rule:evenodd;fill:#3A2B1F;}
	.st22{fill-rule:evenodd;clip-rule:evenodd;fill:#4C2C20;}
	.st23{fill-rule:evenodd;clip-rule:evenodd;fill:#B02C25;}
	.st24{fill-rule:evenodd;clip-rule:evenodd;fill:#A5920C;}
	.st25{fill-rule:evenodd;clip-rule:evenodd;fill:#4D412C;}
	.st26{fill-rule:evenodd;clip-rule:evenodd;fill:#F7D90B;}
	.st27{fill-rule:evenodd;clip-rule:evenodd;fill:#A29009;}
	.st28{fill-rule:evenodd;clip-rule:evenodd;fill:#A5920D;}
	.st29{fill-rule:evenodd;clip-rule:evenodd;fill:#F8DA0C;}
	.st30{fill-rule:evenodd;clip-rule:evenodd;fill:#5999CE;}
	.st31{fill-rule:evenodd;clip-rule:evenodd;fill:#F8DA07;}
	.st32{fill-rule:evenodd;clip-rule:evenodd;fill:#A69612;}
	.st33{fill-rule:evenodd;clip-rule:evenodd;fill:#3B2D28;}
	.st34{fill-rule:evenodd;clip-rule:evenodd;fill:#FAFAFA;}
	.st35{fill-rule:evenodd;clip-rule:evenodd;fill:#F7F6F6;}
	.st36{fill-rule:evenodd;clip-rule:evenodd;fill:#473012;}
	.st37{fill-rule:evenodd;clip-rule:evenodd;fill:#0D3770;}
	.st38{fill-rule:evenodd;clip-rule:evenodd;fill:#EFC292;}
	.st39{fill-rule:evenodd;clip-rule:evenodd;fill:#F3E368;}
	.st40{fill-rule:evenodd;clip-rule:evenodd;fill:#2D271D;}
	.st41{fill-rule:evenodd;clip-rule:evenodd;fill:#589BD1;}
	.st42{fill-rule:evenodd;clip-rule:evenodd;fill:#A79515;}
	.st43{fill-rule:evenodd;clip-rule:evenodd;fill:#F9DA08;}
	.st44{fill-rule:evenodd;clip-rule:evenodd;fill:#5D98C9;}
	.st45{fill-rule:evenodd;clip-rule:evenodd;fill:#24282E;}
	.st46{fill-rule:evenodd;clip-rule:evenodd;fill:#EEEEEE;}
	.st47{fill-rule:evenodd;clip-rule:evenodd;fill:#589ACE;}
	.st48{fill-rule:evenodd;clip-rule:evenodd;fill:#F2C391;}
	.st49{fill-rule:evenodd;clip-rule:evenodd;fill:#628DB4;}
	.st50{fill-rule:evenodd;clip-rule:evenodd;fill:#0E346B;}
	.st51{fill-rule:evenodd;clip-rule:evenodd;fill:#F5E265;}
	.st52{fill-rule:evenodd;clip-rule:evenodd;fill:#959491;}
	.st53{fill-rule:evenodd;clip-rule:evenodd;fill:#CFE3C6;}
	.st54{fill-rule:evenodd;clip-rule:evenodd;fill:#F8F8F8;}
	.st55{fill-rule:evenodd;clip-rule:evenodd;fill:#2D2921;}
	.st56{fill-rule:evenodd;clip-rule:evenodd;fill:#F2F1F0;}
	.st57{fill-rule:evenodd;clip-rule:evenodd;fill:#31342A;}
	.st58{fill-rule:evenodd;clip-rule:evenodd;fill:#31271D;}
	.st59{fill-rule:evenodd;clip-rule:evenodd;fill:#21262A;}
	.st60{fill-rule:evenodd;clip-rule:evenodd;fill:#1D2027;}
	.st61{fill-rule:evenodd;clip-rule:evenodd;fill:#ABAAA9;}
	.st62{fill-rule:evenodd;clip-rule:evenodd;fill:#699B3B;}
	.st63{fill-rule:evenodd;clip-rule:evenodd;fill:#1D212A;}
	.st64{fill-rule:evenodd;clip-rule:evenodd;fill:#D4E6CC;}
	.st65{fill-rule:evenodd;clip-rule:evenodd;fill:#EFEFEF;}
	.st66{fill-rule:evenodd;clip-rule:evenodd;fill:#ACABA7;}
	.st67{fill-rule:evenodd;clip-rule:evenodd;fill:#CFE6C7;}
	.st68{fill-rule:evenodd;clip-rule:evenodd;fill:#20291D;}
	.st69{fill-rule:evenodd;clip-rule:evenodd;fill:#888684;}
	.st70{fill-rule:evenodd;clip-rule:evenodd;fill:#6E9848;}
	.st71{fill-rule:evenodd;clip-rule:evenodd;fill:#384234;}
	.st72{fill-rule:evenodd;clip-rule:evenodd;fill:#4D4B49;}
	.st73{fill-rule:evenodd;clip-rule:evenodd;fill:#212122;}
	.st74{fill-rule:evenodd;clip-rule:evenodd;fill:#31342E;}
	.st75{fill-rule:evenodd;clip-rule:evenodd;fill:#949597;}
	.st76{fill-rule:evenodd;clip-rule:evenodd;fill:#6A993F;}
	.st77{fill-rule:evenodd;clip-rule:evenodd;fill:#221E1B;}
	.st78{fill-rule:evenodd;clip-rule:evenodd;fill:#719A49;}
	.st79{fill-rule:evenodd;clip-rule:evenodd;fill:#1C1D22;}
	.st80{fill-rule:evenodd;clip-rule:evenodd;fill:#0E366C;}
	.st81{fill-rule:evenodd;clip-rule:evenodd;fill:#1A1D20;}
	.st82{fill-rule:evenodd;clip-rule:evenodd;fill:#DEEEF3;}
	.st83{fill-rule:evenodd;clip-rule:evenodd;fill:#19232D;}
	.st84{fill-rule:evenodd;clip-rule:evenodd;fill:#212528;}
	.st85{fill-rule:evenodd;clip-rule:evenodd;fill:#2E3239;}
	.st86{fill-rule:evenodd;clip-rule:evenodd;fill:#171D37;}
	.st87{fill-rule:evenodd;clip-rule:evenodd;fill:#4D4847;}
	.st88{fill-rule:evenodd;clip-rule:evenodd;fill:#959493;}
	.st89{fill-rule:evenodd;clip-rule:evenodd;fill:#292725;}
	.st90{fill-rule:evenodd;clip-rule:evenodd;fill:#2C231C;}
	.st91{fill-rule:evenodd;clip-rule:evenodd;fill:#F2F6EF;}
	.st92{fill-rule:evenodd;clip-rule:evenodd;fill:#832827;}
	.st93{fill-rule:evenodd;clip-rule:evenodd;fill:#7E292B;}
	.st94{fill-rule:evenodd;clip-rule:evenodd;fill:#302019;}
	.st95{fill-rule:evenodd;clip-rule:evenodd;fill:#D9251E;}
	.st96{fill-rule:evenodd;clip-rule:evenodd;fill:#4E201B;}
	.st97{fill-rule:evenodd;clip-rule:evenodd;fill:#D7251D;}
	.st98{fill-rule:evenodd;clip-rule:evenodd;fill:#DA251C;}
	.st99{fill-rule:evenodd;clip-rule:evenodd;fill:#422921;}
	.st100{fill-rule:evenodd;clip-rule:evenodd;fill:#3B291D;}
	.st101{fill-rule:evenodd;clip-rule:evenodd;fill:#DA241E;}
	.st102{fill-rule:evenodd;clip-rule:evenodd;fill:#4F2922;}
	.st103{fill-rule:evenodd;clip-rule:evenodd;fill:#96AAB7;}
	.st104{fill-rule:evenodd;clip-rule:evenodd;fill:#331C1C;}
	.st105{fill-rule:evenodd;clip-rule:evenodd;fill:#D5261F;}
	.st106{fill-rule:evenodd;clip-rule:evenodd;fill:#822827;}
	.st107{fill-rule:evenodd;clip-rule:evenodd;fill:#97ABBA;}
	.st108{fill-rule:evenodd;clip-rule:evenodd;fill:#331B15;}
	.st109{fill-rule:evenodd;clip-rule:evenodd;fill:#2E3034;}
	.st110{fill-rule:evenodd;clip-rule:evenodd;fill:#95AAB9;}
	.st111{fill-rule:evenodd;clip-rule:evenodd;fill:#422C2A;}
	.st112{fill-rule:evenodd;clip-rule:evenodd;fill:#9AA9B6;}
</style>
<g>
	<path class="st0" d="M0.5,0.9c197.3,0,394.7,0,592,0c0,210.7,0,421.3,0,632c-197.3,0-394.7,0-592,0C0.5,422.2,0.5,211.5,0.5,0.9z"
		/>
</g>
<g>
	<path class="st1" d="M400.5,51.5c-4.8,1.2-9.5,1.2-14,0c3.3,0,6.7,0,10,0c-0.9-3.8-2.9-6.9-6-9.5c-6.6-5.5-13.4-10.7-20.5-15.5
		c-0.5-1.3-0.7-2.6-0.5-4c0.1-1.1,0.4-2.1,1-3c1.4-1.3,2.1-2.9,2-5c-9.3-0.2-18.7,0-28,0.5c-5.6,0.7-10.9,1.9-16,3.5
		c-5.7,1.1-11.3,2.2-17,3.5c-2.9,0.9-5.6,2-8,3.5c-19,5.3-37.2,12.6-54.5,22c-0.7,5,1.4,8.1,6.5,9.5c7.7,0.3,15.3,0.2,23-0.5
		c2.2-0.3,4.2,0,6,1c-5.7,0.9-11.4,1.9-17,3c0.6,3.6,0.9,7.3,1,11c1.3,0.2,2.3-0.1,3-1c13.2-5.4,26.9-9.4,41-12
		c14.3-3.2,28.6-5.6,43-7c5,0,10,0,15,0c0.1,0.6,0.4,1.1,1,1.5c5.2,0.2,10.2,0.7,15,1.5c-12.7-0.2-25.3,0-38,0.5
		c-2.9,0.2-5.5,0.7-8,1.5c-6.3,0.9-12.6,1.7-19,2.5c-7.3,2.5-14.6,4.3-22,5.5c-10.2,2.2-20.2,5.2-30,9c-1,3.5-1.3,7.1-1,11
		c-1.9,1.8-4.3,2.8-7,3c1.1-1.1,2.4-1.9,4-2.5c0.8-0.7,1.1-1.5,1-2.5c1.3-5.9,1.2-11.9-0.5-18c-0.4-0.9-0.9-1.7-1.5-2.5
		c-2.6-0.5-5.3-0.7-8-0.5c-4.2-1.7-7.7-4.4-10.5-8c-1.1-3.5-0.3-6.3,2.5-8.5c32.6-16.3,67-27.7,103-34c7.7-0.8,15.4-0.5,23,1
		c1,2.6,0.5,5.1-1.5,7.5c-0.7,2-0.7,4,0,6c8.6,5.9,16.6,12.6,24,20C398.4,47.4,399.6,49.4,400.5,51.5z"/>
</g>
<g>
	<path class="st2" d="M370.5,19.5c-2.1-1.1-4.5-1.3-7-0.5c1.8,1.8,2.4,3.9,2,6.5c-1.3,0-2.7,0-4,0c0-1,0-2,0-3c-1.3,0-2.7,0-4,0
		c0.4-3-0.6-4-3-3c-4.8-0.6-9.4-1.6-14-3c-3.8,1.6-7.8,2.3-12,2c5.1-1.6,10.4-2.8,16-3.5c9.3-0.5,18.7-0.7,28-0.5
		C372.6,16.6,371.9,18.2,370.5,19.5z"/>
</g>
<g>
	<path class="st2" d="M355.5,45.5c-12.8,3.8-25.8,7-39,9.5c-2,0.4-3.4,1.6-4,3.5c-14.1,2.6-27.8,6.6-41,12c-2.4-1.8-2.7-4.2-1-7
		c7.6-1.8,15.3-3.7,23-5.5c1.3-1,1.3-1.8,0-2.5c-5.2-0.3-10.2,0-15,1c-7.7,0.7-15.3,0.8-23,0.5c-5.1-1.4-7.2-4.5-6.5-9.5
		c17.3-9.4,35.5-16.7,54.5-22c7.7,0,15.1-1.5,22-4.5c7.8-1.6,15.5-1.3,23,1c1,6.3,2,12.8,3,19.5c-1.4-0.2-2.7,0-4,0.5
		c2,0.3,4,0.7,6,1C354.8,43.4,355.4,44.3,355.5,45.5z"/>
</g>
<g>
	<path class="st2" d="M370.5,19.5c-0.6,0.9-0.9,1.9-1,3c-0.8,1.5-1.5,3.2-2,5c-1.7,2.3-2.4,4.9-2,8c0.5,2,0.7,4,0.5,6
		c-3.4,1.6-6.9,2.9-10.5,4c-0.1-1.2-0.7-2.1-2-2.5c-2-0.3-4-0.7-6-1c1.3-0.5,2.6-0.7,4-0.5c-1-6.7-2-13.2-3-19.5
		c-7.5-2.3-15.2-2.6-23-1c-6.9,3-14.3,4.5-22,4.5c2.4-1.5,5.1-2.6,8-3.5c5.7-1.3,11.3-2.4,17-3.5c4.2,0.3,8.2-0.4,12-2
		c4.6,1.4,9.2,2.4,14,3c2.4-1,3.4,0,3,3c1.3,0,2.7,0,4,0c0,1,0,2,0,3c1.3,0,2.7,0,4,0c0.4-2.6-0.2-4.7-2-6.5
		C366,18.2,368.4,18.4,370.5,19.5z"/>
</g>
<g>
	<path class="st3" d="M367.5,27.5c0.8,0.3,1.5,0.8,2,1.5c-1,2.6-2.3,4.7-4,6.5C365.1,32.4,365.8,29.8,367.5,27.5z"/>
</g>
<g>
	<path class="st3" d="M369.5,22.5c-0.2,1.4,0,2.7,0.5,4c7.1,4.8,13.9,10,20.5,15.5c3.1,2.6,5.1,5.7,6,9.5c-3.3,0-6.7,0-10,0
		c-5.3,0-10.7,0-16,0c-5,0-10,0-15,0c-3.5-0.8-7.1-1.3-11-1.5c4.1-1,7.7-2.5,11-4.5c3.6-1.1,7.1-2.4,10.5-4c0.2-2,0-4-0.5-6
		c1.7-1.8,3-3.9,4-6.5c-0.5-0.7-1.2-1.2-2-1.5C368,25.7,368.7,24,369.5,22.5z"/>
</g>
<g>
	<path class="st3" d="M355.5,45.5c-3.3,2-6.9,3.5-11,4.5c3.9,0.2,7.5,0.7,11,1.5c-14.4,1.4-28.7,3.8-43,7c0.6-1.9,2-3.1,4-3.5
		C329.7,52.5,342.7,49.3,355.5,45.5z"/>
</g>
<g>
	<path class="st4" d="M278.5,56.5c4.8-1,9.8-1.3,15-1c-2.8,0.8-5.8,1.5-9,2C282.7,56.5,280.7,56.2,278.5,56.5z"/>
</g>
<g>
	<path class="st5" d="M386.5,54.5c3.4-0.2,6.7,0,10,0.5c0.8,1,1.2,2.2,1,3.5c-1,0-2,0-3,0c0-1,0-2,0-3c-18-0.2-36,0.1-54,1
		c2.5-0.8,5.1-1.3,8-1.5C361.2,54.5,373.8,54.3,386.5,54.5z"/>
</g>
<g>
	<path class="st5" d="M394.5,58.5c-28.8-0.4-57.1,3-85,10c-2.6-2.9-5.9-4.2-10-4c7.4-1.2,14.7-3,22-5.5c6.4-0.8,12.7-1.6,19-2.5
		c18-0.9,36-1.2,54-1C394.5,56.5,394.5,57.5,394.5,58.5z"/>
</g>
<g>
	<path class="st6" d="M293.5,55.5c1.3,0.7,1.3,1.5,0,2.5c-7.7,1.8-15.4,3.7-23,5.5c-1.7,2.8-1.4,5.2,1,7c-0.7,0.9-1.7,1.2-3,1
		c-0.1-3.7-0.4-7.4-1-11c5.6-1.1,11.3-2.1,17-3C287.7,57,290.7,56.3,293.5,55.5z"/>
</g>
<g>
	<path class="st7" d="M305.5,70.5c0,0.3,0,0.7,0,1c-12.3,4.2-24.6,8.5-37,13c-0.3-3.9,0-7.5,1-11c0,3,0,6,0,9
		C281.4,78.2,293.4,74.2,305.5,70.5z"/>
</g>
<g>
	<path class="st8" d="M394.5,87.5c-1.7,9.3-2.7,19-3,29c-2.1-1.5-3.1-3.5-3-6c-7.1-1.8-14.5-2.3-22-1.5c-0.5,0.6-0.9,1.2-1,2
		c1.2,3.3,2.6,6.4,4,9.5c-1,0-2,0-3,0c-10.6-4.9-15.1-1.6-13.5,10c3.6,7,5.2,14.3,5,22c-12.3,8.7-25.8,14.4-40.5,17
		c-3.7,0.3-7.4,0-11-1c-1.8-5-5.1-8.5-10-10.5c3.5-1.9,7.2-3.6,11-5c1.2-0.7,1.2-1.2,0-1.5c-24.1,9.5-49.1,14.4-75,14.5
		c-7.4-0.9-10.2-5.1-8.5-12.5c3.2-7.5,8.7-12.7,16.5-15.5c19-7.8,38.7-12.3,59-13.5c3-0.8,6-1.6,9-2.5c-0.5-0.6-0.9-1.2-1-2
		c1.9-5.6,2.5-11.5,2-17.5c-0.5-8.3-3.8-15.7-10-22c6.8-2.2,13.8-3.5,21-4c7.4-0.3,14.7,0.1,22,1c1.1-0.3,2-1,2.5-2
		c0.7,0.9,1.5,1.5,2.5,2c2.7-0.6,5.3-1.2,8-2c1.1-0.9,1.1-1.8,0-2.5c10.3-0.5,20.7-0.7,31-0.5c-0.2,1.7,0,3.4,0.5,5
		c0.3-0.3,0.7-0.7,1-1c1,1.6,2.5,2.3,4.5,2c0.1,1.4-0.3,2.8-1,4c0.8,0.9,1.8,1.2,3,1C394.5,84.8,394.5,86.2,394.5,87.5z"/>
</g>
<g>
	<path class="st9" d="M365.5,62.5c2.2-0.3,4.2,0,6,1c-37.9,3.3-74.6,12.1-110,26.5c-8.1,4.6-16.1,9.4-24,14.5c-0.8-0.5-1.1-1.1-1-2
		c7.9-5.8,16.2-10.8,25-15c2.7-0.2,5.1-1.2,7-3c12.4-4.5,24.7-8.8,37-13c11-1.9,22-4.1,33-6.5C347.4,63.5,356.4,62.7,365.5,62.5z"/>
</g>
<g>
	<path class="st10" d="M299.5,64.5c4.1-0.2,7.4,1.1,10,4c-1,1.2-2.3,1.8-4,2c-12.1,3.7-24.1,7.7-36,12c0-3,0-6,0-9
		C279.3,69.7,289.3,66.7,299.5,64.5z"/>
</g>
<g>
	<path class="st11" d="M415.6,107.7c-1.5,0.2-1-1.1-2.1,0c-1.1-1.5-1.7-4.4-2-6.2c3.1-1.7,6.1-3.7,9-6c1.5-0.8,2.3-2.2,2.5-4
		c3.3-15.7-2.9-22.9-18.5-21.5c-2.7,0.9-5,2.4-7,4.5c-2.1-1.2-3.5-3.1-4-5.5c-13.3-0.3-26.7-0.7-40-1c21.4-3.7,42.7-3.3,64,1
		c6.5,1.5,12,4.7,16.5,9.5c1,4.6,0.3,8.9-2,13C427.6,96.4,420.9,104,415.6,107.7z"/>
</g>
<g>
	<path class="st8" d="M309.5,102.5c0.5,6-0.1,11.9-2,17.5c0.1,0.8,0.5,1.4,1,2c-3,0.9-6,1.7-9,2.5c9.3-7.1,11.5-16.1,6.5-27
		c-5.5-7.8-12.7-10-21.5-6.5c-2.6,2.1-4.6,4.6-6,7.5c-3.8-0.4-7.3,0.2-10.5,2c-1.7-5.4-0.2-9.6,4.5-12.5c6.4-2.1,12.9-3.9,19.5-5.5
		c3.2,0.8,6.2,2.1,9,4C304.6,91.4,307.5,96.7,309.5,102.5z"/>
</g>
<g>
	<path class="st8" d="M391.5,116.5c0.3-10,1.3-19.7,3-29c0-1.3,0-2.7,0-4c-1.2,0.2-2.2-0.1-3-1c0.7-1.2,1.1-2.6,1-4
		c-2,0.3-3.5-0.4-4.5-2c-0.3,0.3-0.7,0.7-1,1c-0.5-1.6-0.7-3.3-0.5-5c-10.3-0.2-20.7,0-31,0.5c1.1,0.7,1.1,1.6,0,2.5
		c-2.7,0.8-5.3,1.4-8,2c-1-0.5-1.8-1.1-2.5-2c-0.5,1-1.4,1.7-2.5,2c-7.3-0.9-14.6-1.3-22-1c8.1-2.3,16.4-3.8,25-4.5
		c15.7-1.5,31.3-1.7,47-0.5c-0.1,1.4,0.3,2.8,1,4c-5.2,1.3-5.2,1.9,0,2c-0.1,1.1,0,0.8,0.5,1.7c5-7.3,11.8-8.9,20.5-7.2
		c3.2,1.6,5.4,4.1,6.5,7.5c0.7,5.4,0.5,10.7-0.5,16c-2.9,2.3-5.9,4.3-9,6c-1,0-1.7,0.5-2,1.5c4.7,9.4,2,15.3-8,17.5
		c-2.2-0.3-4-1.3-5.5-3c-0.5,1.5,0,2.7,1.5,3.5c2.3,0.5,4.6,0.7,7,0.5c-0.5,16.1-5.1,30.8-14,44c1.3-4.6,3.1-8.9,5.5-13
		c0.5-4.3,1-8.7,1.5-13c-2.4,0.2-4.6-0.5-6.5-2c0.2-2.7,0.7-5.3,1.5-8c3,0.5,6,0.8,9,1c0.3-1.7,0.5-3.4,0.5-5c-1.2-0.6-2.6-0.9-4-1
		c-3.7,2.3-7.6,4.3-11.5,6c-0.4,4.3,0.9,8,4,11c-2,5.1-3.7,5.1-5,0c-1,2.6-1.3,5.3-1,8c-1.8,0.3-3.5,0-5-1c-0.8-2.3-1.1-4.5-1-6.5
		c1.6-7.6,2.6-15.4,3-23.5c0.7,5,1.3,10,2,15c0.4-5.4,1.4-10.6,3-15.5c-2.4-1.4-5.1-1.9-8-1.5c0.7,4.7,0.8,9.3,0.5,14
		c-0.4,2.1-1.6,3.4-3.5,4c2.5-6.1,2.5-12.1,0-18c-0.7-1.3-1.3-1.3-2,0c2,4.5,2.5,9.1,1.5,14c-0.4,0.5-0.9,0.8-1.5,1
		c-0.7-0.7-1.3-1.4-2-2c-0.6-2.8-1.9-5.2-4-7c-0.3-0.7-0.7-1.3-1-2c1,0,2,0,3,0c-1.4-3.1-2.8-6.2-4-9.5c0.1-0.8,0.5-1.4,1-2
		c7.5-0.8,14.9-0.3,22,1.5"/>
</g>
<g>
	<path class="st12" d="M398.5,99.5c0.2,3,0,6-0.5,9c-1.9-1.9-2.7-4.3-2.5-7c0.8,0.8,1.3,1.8,1.5,3C397.2,102.6,397.7,101,398.5,99.5
		z"/>
</g>
<g>
	<path class="st13" d="M369.5,111.5c4.9-0.7,9.2,0.5,13,3.5c-2.8,0-5.7-1.4-8.5-2.3c-1.9,0.1-3.6,1.6-5,2.8
		C368.4,114.1,368.6,112.7,369.5,111.5z"/>
</g>
<g>
	<path class="st14" d="M370.5,51.5h15.9c0.1,0,0.1,0,0.2,0c4.2,1.1,8.6,1.1,13.1,0.2c0.5-0.1,0.9,0.1,1.1,0.6c0.7,1.9,0.9,4,0.8,6.2
		c0,0.5,0.4,1,0.9,1c11.6,0.2,22.6,3.1,32.9,8.4c0.1,0,0.1,0.1,0.2,0.1c8.3,6.6,9.1,14,2.4,22.4c0,0,0,0.1-0.1,0.1
		c-2.9,3.1-6,5.9-9.3,8.4c-1.1-1.3-0.7-0.8-1.8-2.1c1.8-1.7,3.4-3.4,5.1-5.2c0.1-0.1,0.1-0.1,0.1-0.2c2.2-3.9,2.9-8.2,2-12.6
		c0-0.2-0.1-0.4-0.3-0.5c-4.5-4.7-9.9-7.8-16.3-9.3c-17.4-3.6-34.9-4.4-52.5-2.6c-1.2,0.1-1.1,1.9,0.1,1.9
		c9.2,0.2,18.5,0.5,27.7,0.7c0.4,0,1.1-0.9,1.2-0.5c0.5,1.8,1.3,4.5,2.9,5.6c0.4,0.3,0.9,0.2,1.2-0.1c1.8-1.8,3.9-3.1,6.3-3.9
		c0.1,0,0.2,0,0.3-0.1c15.5-1.3,21.6,5.8,18.4,21.5c-0.2,1.8-1,3.2-2.5,4c1-5.3,1.2-10.6,0.5-15.9c0-0.1,0-0.1,0-0.2
		c-1.1-3.3-3.2-5.8-6.3-7.3c-0.1,0-0.2-0.1-0.3-0.1c-8-1.5-14.4,0.8-19.2,7c-0.5,0.7-1.6,0.3-1.7-0.5c0,0,0,0,0,0
		c0-0.5-0.4-0.9-0.9-0.9c-3.9-0.1-3.9-0.7-0.2-1.7c0.5-0.1,0.8-0.7,0.6-1.3c-0.3-0.7-0.5-1.5-0.5-2.2c0-0.5-0.4-0.8-0.9-0.9
		c-15.4-1.1-30.8-0.9-46.1,0.6c-8.6,0.7-16.9,2.2-24.9,4.5c-0.1,0-0.1,0-0.2,0c-6.6,0.5-13.1,1.6-19.5,3.5c-0.7,0.2-0.9,1-0.4,1.6
		c3.5,3.9,6,8.1,7.4,12.6c0.3,1.1-1.2,1.7-1.7,0.7c-1.5-2.9-3.2-5.7-5.1-8.3c-0.1-0.1-0.2-0.2-0.3-0.2c-2.7-1.8-5.6-3.1-8.6-3.8
		c-0.2,0-0.3,0-0.5,0c-6.4,1.6-12.8,3.4-19.1,5.4c-0.1,0-0.2,0.1-0.2,0.1c-4.2,2.7-5.8,6.4-4.7,11.3c0.1,0.6,0.8,0.9,1.3,0.7
		c2.8-1.3,5.7-1.8,8.9-1.6c0.4,0,0.7-0.2,0.9-0.5c1.3-2.6,3.2-4.9,5.6-6.8c0.1-0.1,0.2-0.1,0.3-0.2c8.7-3.4,15.8-1.2,21.3,6.5
		c0,0.1,0.1,0.1,0.1,0.2c4.9,10.7,2.8,19.7-6.3,26.7c-0.2,0.1-0.3,0.2-0.5,0.2c-20.2,1.3-39.8,5.8-58.7,13.5
		c-7.8,2.8-13.2,7.9-16.5,15.4c0,0.1,0,0.1-0.1,0.2c-1.7,7.3,1.1,11.4,8.4,12.4c0.1,0,0.1,0,0.2,0c25.8-0.1,50.8-5,74.9-14.5
		c1.2,0.3,1.2,0.8,0,1.5c-3.2,1.2-6.3,2.6-9.3,4.1c-0.7,0.3-0.7,1.3,0,1.7c3.8,2,6.5,5.1,8.2,9.3c0.1,0.3,0.3,0.5,0.6,0.6
		c3.5,0.9,7,1.2,10.5,0.9c1.3-0.2,2.3,0.1,3,1c-6.8,1.2-13.7,1.9-20.7,2c-0.6,0-1.1,0.7-0.9,1.3c5.4,14.1,15.6,22.6,30.5,25.7
		c-0.4,0-0.7,0.1-0.9,0.4c-0.2,0.3-0.6,0.5-1,0.4c-15.8-3.8-27.3-12.9-34.4-27.3c-0.3-0.6,0.2-1.4,0.9-1.4
		c13.3,0.8,14.4-2.8,3.5-10.5c-0.1,0-0.1-0.1-0.2-0.1c-1.8-0.8-3.7-1.2-5.7-1.4c-0.1,0-0.3,0-0.4,0.1c-16.5,6.1-33.6,9.4-51.3,9.9
		c0,0,0,0-0.1,0c-7.8,1-14.4-1.3-19.8-6.8c-0.1-0.1-0.2-0.3-0.3-0.5c-0.9-4.5-0.2-8.7,2-12.6c0-0.1,0.1-0.1,0.1-0.2
		c3.8-4.4,8-8.1,12.7-11.3c0.7-0.4,0.5-1.4-0.2-1.7c-8.4-2.7-12.5-8.6-12.5-17.7c0-0.2,0.1-0.4,0.2-0.5c3.6-5.6,8-10.5,13.1-14.8
		c0.5-0.4,1.1-0.2,1.4,0.3c0,0,0.1,0.1,0.1,0.1c0.3,0.4,0.8,0.5,1.3,0.2c7.7-5,15.4-9.7,23.4-14.1c0,0,0.1,0,0.1-0.1
		c35.4-14.4,72.1-23.2,109.9-26.5c0,0,0,0,0.1,0c13.3-0.3,26.6,0.2,39.9,1.5c0,0,0.1,0,0.1,0c6.1,1.4,12,2.7,17.9,4
		c-5.6-2.9-11.6-4.9-18-6c0,0-0.1,0-0.1,0c-15.5-1.7-30.8-1.8-46-0.5c-9.1,0.2-18.1,1-27,2.5c-11,2.4-22,4.6-33,6.5c0-0.3,0-0.7,0-1
		c1.6-0.2,2.8-0.7,3.8-1.8c0.1-0.1,0.3-0.2,0.4-0.3c28.2-7.1,56.9-10.4,86.1-9.9c0.6-0.8,0.9-1.1,1.5-2c-0.1-0.4-0.3-0.9-0.6-1.2
		c-0.1-0.2-0.4-0.3-0.6-0.4c-3.2-0.4-6.3-0.6-9.5-0.4c-0.1,0-0.1,0-0.2,0c-4.7-0.8-9.6-1.3-14.6-1.5c-0.2,0-0.4-0.1-0.5-0.2
		C370.8,52.5,370.6,52,370.5,51.5z"/>
</g>
<g>
	<path class="st15" d="M241.5,105.5c1.9,1.2,2.4,2.8,1.5,5c-2.1-1.4-2.6-1-1.5,1c-3.7,1-4,2.7-1,5c0.6-2.2,2-3.9,4-5
		c1-1.3,2-1.3,3,0c-0.9,0.8-1.6,1.8-2,3c1.3,1.8,1.9,3.8,2,6c-1.7,0-3.3,0-5,0c0,1.3,0,2.7,0,4c3,1.3,6,1.3,9,0c0,1.7,0,3.3,0,5
		c-1.3,0-2.7,0-4,0c0,1,0,2,0,3c-7.7,2-13.2-0.6-16.5-8C230.4,115.9,233.9,109.6,241.5,105.5z"/>
</g>
<g>
	<path class="st15" d="M251.5,99.5c2.1,1.6,4.1,3.4,6,5.5c-0.3,0.3-0.7,0.7-1,1c0.8,2.7,1.3,5.6,1.5,8.5c0.3-0.7,0.7-1.3,1-2
		c1.6,3.2,1.8,6.6,0.5,10c1.3,0,2.7,0,4,0c0,1.3,0,2.7,0,4c-2.7,0-5.3,0-8,0c0,1.7-0.7,3-2,4c-2.1,0.5-4.1,1.1-6,2c0-1,0-2,0-3
		c1.3,0,2.7,0,4,0c0-1.7,0-3.3,0-5c-3,1.3-6,1.3-9,0c0-1.3,0-2.7,0-4c1.7,0,3.3,0,5,0c-0.1-2.2-0.7-4.2-2-6c0.4-1.2,1.1-2.2,2-3
		c-1-1.3-2-1.3-3,0c-2,1.1-3.4,2.8-4,5c-3-2.3-2.7-4,1-5c-1.1-2-0.6-2.4,1.5-1c0.9-2.2,0.4-3.8-1.5-5c2-1.7,4-3.3,6-5
		C248.7,99.6,250,99.2,251.5,99.5z"/>
</g>
<g>
	<path class="st15" d="M253.5,130.5c1.3-1,2-2.3,2-4c2.7,0,5.3,0,8,0c0-1.3,0-2.7,0-4c-1.3,0-2.7,0-4,0c1.3-3.4,1.1-6.8-0.5-10
		c-0.3,0.7-0.7,1.3-1,2c-0.2-2.9-0.7-5.8-1.5-8.5c0.3-0.3,0.7-0.7,1-1c-1.9-2.1-3.9-3.9-6-5.5c4.2-4.1,9.2-6.6,15-7.5
		c-1.3,4.8-2.5,9.7-3.5,14.5c-1.6,8.1,0.9,14.6,7.5,19.5C264.9,127.7,259.2,129.2,253.5,130.5z"/>
</g>
<g>
	<path class="st12" d="M398.5,99.5c-0.8,1.5-1.3,3.1-1.5,5c-0.2-1.2-0.7-2.2-1.5-3c-0.8-4.6-1.1-9.3-1-14c1.8-4.1,4.5-7.6,8-10.5
		c4.2-1.2,7.9-0.4,11,2.5c-3.6,0.8-7.3,1.3-11,1.5c-2,3.2-2.5,6.7-1.5,10.5c1.7-1.1,3.6-1.2,5.5-0.5c0.3,4.2-0.6,8.4-2.5,12.5
		c-0.5-2-0.7-4-0.5-6C401.2,97.1,399.6,97.7,398.5,99.5z"/>
</g>
<g>
	<path class="st16" d="M278.5,98.5c7-6.9,14.6-7.8,23-2.5c6.7,8.2,6.4,16.2-1,24c-5.6,4.2-11.3,4.4-17,0.5c-0.3,3.1-2.3,4.2-6,3.5
		c2.9-2.8,2.6-5-1-6.5c-0.5,2-1.8,3.2-4,3.5c2.9,3.6,2.2,4.3-2,2c-8-7.3-8-14.7,0-22C273.7,101.1,276.3,100.2,278.5,98.5z"/>
</g>
<g>
	<path class="st17" d="M287.5,114.5c4.6,0.2,6.7,1.2,5.1,4.8c-0.1,0.2-0.8,1.2-1,1.3c-3.4,1.6-5.3,1-5.7-1.7
		c-0.1-0.5,0.3-0.9,0.8-0.7c0.7,0.3,1.3-0.1,1.8-1.2l-1.6-1.4C286.6,115.2,286.9,114.5,287.5,114.5z"/>
</g>
<g>
	<path class="st9" d="M365.5,62.5c15.2-1.3,30.5-1.2,46,0.5c6.4,1.1,12.4,3.1,18,6c-5.9-1.3-11.9-2.6-18-4
		c-13.3-1.3-26.6-1.8-40-1.5C369.7,62.5,367.7,62.2,365.5,62.5z"/>
</g>
<g>
	<path class="st18" d="M326.5,130.5c2.4,1.9,4.5,5.5,6.2,10.8c-1.3-1.6-2.7-3.7-4-6.2c0,2.3-0.1,5-0.2,7.9c-0.2,1.8-0.6,3.3-1.1,4.5
		c0.1-2.8,0.3-5.6,0.6-8.5C327.8,135.5,327.3,132.7,326.5,130.5z"/>
</g>
<g>
	<path class="st19" d="M310.5,143.5c3.1-1.1,6.5-1.3,10-0.5c0.5,0.4,0.8,0.9,1,1.5c-3.2,5-5.6,4.9-7-0.5
		C313.2,143.5,311.9,143.3,310.5,143.5z"/>
</g>
<g>
	<path class="st20" d="M390.5,165.5c-2.2,4.4-5,8.4-8.5,12c-5.4,5.3-11.3,10-17.5,14c-11,5.5-22.7,8.1-35,8
		c-15.4-3.2-25.7-12.2-31-27c7.4,0,14.7-0.7,22-2c5.4-1.2,10.7-2.7,16-4.5c9.3-4.8,19-8.8,29-12c2.6-2.7,5.1-5.6,7.5-8.5
		c1-3.7,1.8-7.4,2.5-11c1.9-0.6,3.1-1.9,3.5-4c0.3-4.7,0.2-9.3-0.5-14c2.9-0.4,5.6,0.1,8,1.5c-1.6,4.9-2.6,10.1-3,15.5
		c-0.7-5-1.3-10-2-15c-0.4,8.1-1.4,15.9-3,23.5c-0.1,2,0.2,4.2,1,6.5c1.5,1,3.2,1.3,5,1c-0.3-2.7,0-5.4,1-8c1.3,5.1,3,5.1,5,0
		c-3.1-3-4.4-6.7-4-11c3.9-1.7,7.8-3.7,11.5-6c1.4,0.1,2.8,0.4,4,1c0,1.6-0.2,3.3-0.5,5c-3-0.2-6-0.5-9-1c-0.8,2.7-1.3,5.3-1.5,8
		c1.9,1.5,4.1,2.2,6.5,2c-0.5,4.3-1,8.7-1.5,13C393.6,156.6,391.8,160.9,390.5,165.5z"/>
</g>
<g>
	<path class="st21" d="M415,107.5c0.3,6.1-2.4,10.4-8,13c-1.2,20-7.7,38-19.5,54c10.9,4.1,21.2,9.3,31,15.5c5.8,4,11.2,8.5,16,13.5
		c-0.7,0-1.3,0-2,0c-5-3.3-10-6.7-15-10c-9.8-7-20.7-12.3-32.5-16c-5,4.2-9.8,8.5-14.5,13c0.3,0.3,0.7,0.7,1,1
		c4.6-2.7,9.6-3.5,15-2.5c3.1,2.1,6.4,3.8,10,5c1.7,1.5,2.7,3.3,3,5.5c-3.7-1.9-7.1-4.4-10-7.5c-8.7-3.3-16-1.5-22,5.5c0-2,0-4,0-6
		c-1,0-2,0-3,0c6.2-4,12.1-8.7,17.5-14c3.5-3.6,6.3-7.6,8.5-12c8.9-13.2,13.5-27.9,14-44c-2.4,0.2-4.7,0-7-0.5c-1.5-0.8-2-2-1.5-3.5
		c1.5,1.7,3.3,2.7,5.5,3c10-2.2,12.2-8.8,7.5-18.2c0.3-1,10.5-6.8,11.5-6.8c0.3,1.8-8.1,9.5-7,11"/>
</g>
<g>
	<path class="st22" d="M375.5,134.5c-0.7,3.6-1.5,7.3-2.5,11c-2.4,2.9-4.9,5.8-7.5,8.5c-10,3.2-19.7,7.2-29,12
		c-5.3,1.8-10.6,3.3-16,4.5c-0.7-0.9-1.7-1.2-3-1c14.7-2.6,28.2-8.3,40.5-17c0.2-7.7-1.4-15-5-22c-1.6-11.6,2.9-14.9,13.5-10
		c0.3,0.7,1.2,1.6,1.6,2.3c-0.7,0-1.9-0.3-2.6-0.3c-3.1-1.6-5.3-1.3-8.9-1c0,1-1.1,1-1.1,2c-1.3,2-1.3,4,0,6c2.3,5.2,4,10.6,5,16
		c-0.2,2,0,4,0.5,6c1.8-1.8,3.9-2.4,6.5-2v-5.7c-2.1-0.8,1.1-2.8,1.2-2.8l2.8,0.5c0-4,1.7-15.9-4.7-19c5.2,2.9,6,8.3,6.7,9
		c0.6-0.2,1.1-0.5,1.5-1c1-4.9,0.5-9.5-1.5-14c0.7-1.3,1.3-1.3,2,0C378,122.4,378,128.4,375.5,134.5z"/>
</g>
<g>
	<g>
		<path class="st23" d="M365.5,122.5c0.7,0,1.3,0,2,0c2.1,1.8,3.4,4.2,4,7c0,1.7,1,4.6,1,6.4c0,2.3-1,3.4-1,5.6c0,0-1.4,0.4-1.4,0.4
			c-0.4,0.2-0.8,0.4-1.4,0.4c0,2.7-1.2,4.5-1.2,7.2c-2.6-0.4-4.7,0.2-6.5,2c-0.5-2-0.7-4-0.5-6c1-2.9,2-5.9,3-9c-3-5-2-6,3-3
			c0.9,1.2,1.3,2.5,1,4c1,0,2,0,3,0c0.2-2.7,0-5.4-0.5-8C368.5,127.1,367,124.8,365.5,122.5z"/>
	</g>
	<g>
		<path class="st23" d="M365.5,122.5c1.5,2.3,3,4.6,4.5,7c0.5,2.6,0.7,5.3,0.5,8c-1,0-2,0-3,0c0.3-1.5-0.1-2.8-1-4c-5-3-6-2-3,3
			c-1,3.1-2,6.1-3,9c-1-5.4-2.7-10.8-5-16c0.5-2.2,0.5-4.2,0-6c1.6-3.7,2.4-1.1,2.4-2.1C361.4,121.1,362.4,120.9,365.5,122.5z"/>
	</g>
</g>
<g>
	<path class="st23" d="M355.5,123.5c0.5,1.8,0.5,3.8,0,6C354.2,127.5,354.2,125.5,355.5,123.5z"/>
</g>
<g>
	<path class="st24" d="M417.5,193.5c-0.4-0.1-0.8,0.1-1,0.5c32.9,24.9,60.3,54.9,82,90c-13.4,7.4-27.8,10.9-43,10.5
		c9.7-1.3,19-4,28-8c1.1-1.6,1.3-3.2,0.5-5c-16.2-36.1-41.4-64.1-75.5-84c-1.8,1.8-3.8,3.1-6,4c-0.7-1.1-1.7-1.7-3-2
		c-0.3-2.2-1.3-4-3-5.5c-3.6-1.2-6.9-2.9-10-5c-5.4-1-10.4-0.2-15,2.5c-0.3-0.3-0.7-0.7-1-1c4.7-4.5,9.5-8.8,14.5-13
		C396.8,181.2,407.7,186.5,417.5,193.5z"/>
</g>
<g>
	<path class="st25" d="M432.5,203.5c0.7,0,1.3,0,2,0c19.2,16.1,36.2,34.2,51,54.5c0.7,0.7,1.3,0.7,2,0c0.6-1.3,1.3-2.5,2-3.5
		c0,2.7-0.6,5.2-2,7.5c0.8,0.7,1.1,1.5,1,2.5C472,242.3,453.3,222,432.5,203.5z"/>
</g>
<g>
	<path class="st26" d="M399.5,199.5c3.9,5.8,8.1,11.4,12.5,17c1.5,2.6,2.6,5.3,3.5,8c-1.6-0.6-2.9-1.6-4-3
		c-3.6-6.1-7.5-12.1-11.5-18c-1.3-2.1-3.1-3.1-5.5-3c0,1.8-0.5,3.5-1.5,5c-1.7,1.5-3.2,3.2-4.5,5c-2.7,1.7-5.3,3.3-8,5
		c1.7,1.5,3.7,2.1,6,2c5.8-2.1,11-1.1,15.5,3c13.7,19.1,24.6,39.8,32.5,62c-4.7-0.2-9.3,0-14,0.5c4.3,2.7,9,3.9,14,3.5
		c-0.5,3.5-2.5,5.9-6,7c-4.1-2.9-8.5-5.6-13-8c-0.7,0.4-1.4,0.7-2,1c-2.2-2.1-4.9-3.1-8-3c0.1-2.1,1.1-3.6,3-4.5
		c-0.6-1.4-1.6-2.2-3-2.5c-0.3,0-0.7,0-1,0c-1.7-2.7-4.1-4.7-7-6c-13.7-14.4-25.7-30.1-36-47c2.4-1.2,2.5-2.5,0.5-4
		c-0.7-8,1.1-15.3,5.5-22c6-7,13.3-8.8,22-5.5C392.4,195.1,395.8,197.6,399.5,199.5z"/>
</g>
<g>
	<path class="st27" d="M374.4,195.2c6.1-0.5,11.3,0.2,15.6,2c-6.3,0.5-11.9,1.7-16.8,3.5c-0.7-0.1-1.2-0.3-1.7-0.5
		c-0.7-1.3-0.7-2.7,0-4C372.7,195.9,373.6,195.6,374.4,195.2z"/>
</g>
<g>
	<path class="st26" d="M417.5,193.5c5,3.3,10,6.7,15,10c20.8,18.5,39.5,38.8,56,61c1.8,3.7,4.2,7,7,10c1.3,2.8,2.8,5.4,4.5,8
		c0.7,2.1,0.5,4.1-0.5,6c-0.7-0.4-1.2-1.1-1.5-2c-17.1,8.2-34.9,11.2-53.5,9c3.7-0.1,7.4-0.4,11-1c15.2,0.4,29.6-3.1,43-10.5
		c-21.7-35.1-49.1-65.1-82-90C416.7,193.6,417.1,193.4,417.5,193.5z"/>
</g>
<g>
	<path class="st28" d="M415.5,224.5c-0.2,1.4,0,2.7,0.5,4c7.2,13.5,14.1,26.5,20.5,39c4.3,4.6,9,9,14,13c0.2,4.3-1.3,8-4.5,11
		c-0.3-0.7-0.7-1.3-1-2c-10.2,8.5-21.4,15.7-33.5,21.5c-1.3,0.5-2.6,0.7-4,0.5c-8.7,2.9-17.4,6-26,9.5c-2.6,0.8-5.3,1.3-8,1.5
		c0-1,0-2,0-3c-0.3-2-0.7-4-1-6c18.2-0.2,34.3-5.9,48.5-17c0.4-2.9-0.6-5.2-3-7c1,4.7,0.1,5.1-2.5,1c0.4,0.1,0.8-0.1,1-0.5
		c-1.2-1-2.2-2.2-3-3.5c0.6-0.3,1.3-0.6,2-1c4.5,2.4,8.9,5.1,13,8c3.5-1.1,5.5-3.5,6-7c-5,0.4-9.7-0.8-14-3.5
		c4.7-0.5,9.3-0.7,14-0.5c-7.9-22.2-18.8-42.9-32.5-62c-4.5-4.1-9.7-5.1-15.5-3c-2.3,0.1-4.3-0.5-6-2c2.7-1.7,5.3-3.3,8-5
		c1.3-1.8,2.8-3.5,4.5-5c1-1.5,1.5-3.2,1.5-5c2.4-0.1,4.2,0.9,5.5,3c4,5.9,7.9,11.9,11.5,18C412.6,222.9,413.9,223.9,415.5,224.5z"
		/>
</g>
<g>
	<path class="st29" d="M336.5,218.5c0.2,3.6-0.6,3.9-2.5,1c-3.6,0.9-5.6,3.2-6,7c-2.1,9.2-1.9,18.4,0.5,27.5
		c-10.4,9.7-21.4,18.7-33,27c-3.3,2.3-6.2,1.8-8.5-1.5c0.6,1.9,1.1,3.9,1.5,6c-3.4,0.2-6.7,0-10-0.5c-1.1-0.6-2.1-1.5-3-2.5
		c-4.8,3.5-9.8,3.8-15,1c-0.7-2.5-1.3-4.8-2-7c-0.6-1.9-1-3.9-1-6c2.9-0.3,5.6,0,8,1c1.4,3.5,3.7,5.7,7,6.5c-1.8-2.5-2.5-5.3-2-8.5
		c1,0,2,0,3,0c1.3,1,2.6,2,4,3c1.3,1.5,2.5,3.2,3.5,5c0.7,1.2,1.2,1.2,1.5,0c-1.7-4.2-2.4-8.5-2-13c6.4-8.6,13.4-16.8,21-24.5
		c7.9-7.1,16.3-13.6,25-19.5c2.9-1.2,5.7-2.6,8.5-4C336,216.8,336.5,217.5,336.5,218.5z"/>
</g>
<g>
	<path class="st30" d="M338.5,203.5c2.6,3.7,5.6,7.2,9,10.5c3.1,2,6.4,3.2,10,3.5c-0.4-4,0.3-7.7,2-11c0,1,0,2,0,3
		c-0.6,7.5,0.9,14.5,4.5,21c5.6,9.5,11.9,18.5,19,27c4.4,4.9,9.3,9.3,14.5,13c1.7,2.7,4,4.7,7,6c0.3,0,0.7,0,1,0
		c-0.7,2.9-2,5.4-4,7.5c-8.1,2.4-16.1,4.9-24,7.5c-10.2-13-18.8-27-26-42c-5.3-14.4-9.6-29.1-13-44
		C338.5,204.8,338.5,204.2,338.5,203.5z"/>
</g>
<g>
	<path class="st31" d="M455.5,294.5c-3.6,0.6-7.3,0.9-11,1c0.3-0.7,0.7-1.3,1-2c4.4-1.9,6.7-5.4,7-10.5c0-1.1-0.4-1.9-1-2.5
		c-4-4.5-8.2-8.9-12.5-13c-8.1-24.3-20.3-46.3-36.5-66c2.2-0.9,4.2-2.2,6-4c34.1,19.9,59.3,47.9,75.5,84c0.8,1.8,0.6,3.4-0.5,5
		C474.5,290.5,465.2,293.2,455.5,294.5z"/>
</g>
<g>
	<path class="st32" d="M336.5,218.5c3.7,9.6,7.5,19.3,11.5,29c0.8,1.4,0.6,2.8-0.5,4c-20.7,10.4-39.7,23.2-57,38.5
		c-5.8,1-11.7,1.8-17.5,2.5c-5.3-0.1-10.4-0.8-15.5-2c0.8-4.6,1.1-9.3,1-14c0.7,2.2,1.3,4.5,2,7c5.2,2.8,10.2,2.5,15-1
		c0.9,1,1.9,1.9,3,2.5c3.3,0.5,6.6,0.7,10,0.5c-0.4-2.1-0.9-4.1-1.5-6c2.3,3.3,5.2,3.8,8.5,1.5c11.6-8.3,22.6-17.3,33-27
		c-2.4-9.1-2.6-18.3-0.5-27.5c0.4-3.8,2.4-6.1,6-7C335.9,222.4,336.7,222.1,336.5,218.5z"/>
</g>
<g>
	<path class="st33" d="M321.5,220.5c1.7,0,3.3,0,5,0c-8.7,5.9-17.1,12.4-25,19.5c-7.6,7.7-14.6,15.9-21,24.5
		C290,246,303.7,231.3,321.5,220.5z"/>
</g>
<g>
	<path class="st34" d="M372.5,293.5c-3.5,0.8-6.9,2.1-10,4c-2.3-3.2-5.3-4.7-9-4.5c-1.4,1.7-3,3-5,4c-8.5-0.4-13.5,3.4-15,11.5
		c-10.7,3.8-21.7,6.3-33,7.5c-7.5,0.5-14.9-0.1-22-2c-7.5,5.3-15.5,9.8-24,13.5c-7.8-3.3-15.8-5.9-24-8c1.8-3.7,3.2-7.5,4-11.5
		c-1.9-4.9-4.2-9.6-7-14c0.8-1.6,1.8-3.1,3-4.5c1.3,8.8,6.1,12.2,14.5,10c2.7,0.6,5.2,1.6,7.5,3c0.7-0.3,1.3-0.7,2-1
		c0.9-2.6,1.9-5.1,3-7.5c2-0.5,4-0.7,6-0.5c8.4,1.4,16.7,1.3,25-0.5c18.6-15.4,38.9-28.2,61-38.5
		C356.9,267.7,364.6,280.7,372.5,293.5z"/>
</g>
<g>
	<path class="st26" d="M415.5,224.5c9.3,13,16.3,27.3,21,43c-6.4-12.5-13.3-25.5-20.5-39C415.5,227.2,415.3,225.9,415.5,224.5z"/>
</g>
<g>
	<path class="st35" d="M509.5,287.5c-3,0.9-4.9,2.9-5.5,6c-0.4-0.6-0.9-0.9-1.5-1c-0.3-3.1,0.3-6,2-8.5c-2.5-4-5.2-7.8-8-11.5
		c0.3-7.4,3.7-12.7,10-16c7.7,4,10.5,10.3,8.5,19C513.2,279.8,511.4,283.8,509.5,287.5z"/>
</g>
<g>
	<path class="st36" d="M399.5,199.5c1.3,0.3,2.3,0.9,3,2c16.2,19.7,28.4,41.7,36.5,66c4.3,4.1,8.5,8.5,12.5,13c-0.3,0-0.7,0-1,0
		c-5-4-9.7-8.4-14-13c-4.7-15.7-11.7-30-21-43c-0.9-2.7-2-5.4-3.5-8C407.6,210.9,403.4,205.3,399.5,199.5z"/>
</g>
<g>
	<path class="st26" d="M397.5,270.5c2.9,1.3,5.3,3.3,7,6C401.5,275.2,399.2,273.2,397.5,270.5z"/>
</g>
<g>
	<path class="st33" d="M364.5,191.5c1,0,2,0,3,0c0,2,0,4,0,6c-4.4,6.7-6.2,14-5.5,22c2,1.5,1.9,2.8-0.5,4c10.3,16.9,22.3,32.6,36,47
		c-5.2-3.7-10.1-8.1-14.5-13c-7.1-8.5-13.4-17.5-19-27c-3.6-6.5-5.1-13.5-4.5-21c0.8-5.7,2.8-11,6-16c-0.3-0.3-0.7-0.7-1-1
		c-8.6,5.3-17.9,8-28,8c-0.1,2.1,0.6,3.7,2,5c3.4,14.9,7.7,29.6,13,44c7.2,15,15.8,29,26,42c7.9-2.6,15.9-5.1,24-7.5
		c2-2.1,3.3-4.6,4-7.5c1.4,0.2,2.4,1.1,3,2.5c-1.9,0.9-2.9,2.4-3,4.5c3.1-0.1,5.8,0.9,8,3c0.8,1.3,1.8,2.5,3,3.5
		c-0.2,0.4-0.6,0.6-1,0.5c-2.9-2.4-6.2-3.8-10-4c-10.7,1.3-21,3.6-31,7c-0.7,0-1.3,0-2,0c-7.9-12.8-15.6-25.8-23-39
		c-22.1,10.3-42.4,23.1-61,38.5c-8.3,1.8-16.6,1.9-25,0.5c-2.1-1.1-4.5-1.3-7-0.5c-1.4,3.4-2,3.2-2-0.5c1.7-9.5,1-18.8-2-28
		c0.8-1.1,1.8-1.1,3,0c0,0.3,0,0.7,0,1c-0.4,2.3,0.2,3.9,2,5c0,2.1,0.4,4.1,1,6c0.1,4.7-0.2,9.4-1,14c5.1,1.2,10.2,1.9,15.5,2
		c5.8-0.7,11.7-1.5,17.5-2.5c17.3-15.3,36.3-28.1,57-38.5c1.1-1.2,1.3-2.6,0.5-4c-4-9.7-7.8-19.4-11.5-29c0-1-0.5-1.7-1.5-2
		c-2.8,1.4-5.6,2.8-8.5,4c-1.7,0-3.3,0-5,0c4.3-3.3,8.7-6.7,13-10c-0.7-3-1.5-6-2.5-9c-1-0.8-2.2-1.2-3.5-1c0-0.7,0.3-1,1-1
		C341.8,199.6,353.5,197,364.5,191.5z"/>
</g>
<g>
	<path class="st29" d="M273.5,269.5c-1,0-2,0-3,0c-0.5,3.2,0.2,6,2,8.5c-3.3-0.8-5.6-3-7-6.5c1.9,0,3.2-0.8,4-2.5
		C271.1,268.2,272.4,268.4,273.5,269.5z"/>
</g>
<g>
	<path class="st33" d="M279.5,264.5c0.3,0,0.7,0,1,0c-0.4,4.5,0.3,8.8,2,13c-0.3,1.2-0.8,1.2-1.5,0c-1-1.8-2.2-3.5-3.5-5
		c0.3-0.7,0.7-1.3,1-2c0-1.3,0-2.7,0-4C278.8,265.8,279.2,265.2,279.5,264.5z"/>
</g>
<g>
	<path class="st33" d="M255.5,265.5c0.9,1.1,1.3,2.4,1,4c5,0.6,9.5-0.4,13.5-3c1.1,0.5,2.3,0.8,3.5,1c1.3,0.7,1.3,1.3,0,2
		c-1.1-1.1-2.4-1.3-4-0.5c-0.8,1.7-2.1,2.5-4,2.5c-2.4-1-5.1-1.3-8-1C255.7,269.4,255.1,267.8,255.5,265.5z"/>
</g>
<g>
	<path class="st33" d="M278.5,266.5c0,1.3,0,2.7,0,4c-2.4-0.2-3.4-1.5-3-4C276.5,266.5,277.5,266.5,278.5,266.5z"/>
</g>
<g>
	<path class="st33" d="M279.5,264.5c-0.3,0.7-0.7,1.3-1,2c-1,0-2,0-3,0c-0.4,2.5,0.6,3.8,3,4c-0.3,0.7-0.7,1.3-1,2c-1.4-1-2.7-2-4-3
		c1.3-0.7,1.3-1.3,0-2c-0.1-1,0.2-1.8,1-2.5C276.1,264.5,277.8,264.3,279.5,264.5z"/>
</g>
<g>
	<path class="st37" d="M359.5,206.5c-1.7,3.3-2.4,7-2,11c-3.6-0.3-6.9-1.5-10-3.5c-3.4-3.3-6.4-6.8-9-10.5c7.3-1.7,14.6-4,22-7
		c0.3,0.2,0.7,0.3,1,0.5C359.8,199.9,359.1,203.1,359.5,206.5z"/>
</g>
<g>
	<path class="st30" d="M359.5,209.5c0-1,0-2,0-3c-0.4-3.4,0.3-6.6,2-9.5c-0.3-0.2-0.7-0.3-1-0.5c-7.4,3-14.7,5.3-22,7
		c0,0.7,0,1.3,0,2c-1.4-1.3-2.1-2.9-2-5c10.1,0,19.4-2.7,28-8c0.3,0.3,0.7,0.7,1,1C362.3,198.5,360.3,203.8,359.5,209.5z"/>
</g>
<g>
	<path class="st38" d="M224.5,339.5c-0.9,7.7-3.4,8-7.5,1c-0.2-8.7-0.2-17.3,0-26c-8.5-8.3-16.1-7.6-23,2c-0.2,2.7-0.7,5.4-1.5,8
		c-2.5,1.6-5.1,2.6-8,3c-0.4-4.5-0.7-9-1-13.5c-0.2-3.6,0.5-6.9,2-10c-1-0.7-2-0.7-3,0c-0.7,8.4-0.8,16.9-0.5,25.5
		c-3.6,2.6-7.1,5.2-10.5,8c-1.3,0-2-0.7-2-2c-0.8-8.3-1.3-16.6-1.5-25c-1.7,8-3.3,16-5,24c-1.3,3.7-3.5,6.9-6.5,9.5
		c-2.5,0.9-4.5,0.4-6-1.5c7.8-13.6,14-27.9,18.5-43c12.9-8.2,25.4-17.1,37.5-26.5c10.8-3.1,21.8-4.1,33-3c1.5,1.2,2.7,2.7,3.5,4.5
		c1,4,1.3,8,1,12c-4.1-1.1-8.2-1.3-12.5-0.5c-5,1.9-6.8,5.4-5.5,10.5c2.6,3.6,4.8,7.4,6.5,11.5c-2.1,7.9-5.8,14.9-11,21
		C222.4,332.6,223.4,336.1,224.5,339.5z"/>
</g>
<g>
	<path class="st39" d="M252.5,264.5c3,9.2,3.7,18.5,2,28c-0.8,1.5-1.3,3.1-1.5,5c-0.9,0.6-1.9,0.9-3,1c-4.1-0.7-8.3-1.2-12.5-1.5
		c-1.1-1.8-2.1-3.6-3-5.5c0-1,0-2,0-3c1.7-0.2,3.4,0,5,0.5c0.6,1.9,1.6,3.4,3,4.5c2.3-2,3.5-4.7,3.5-8c2.7-11.8-1.8-17.8-13.5-18
		c-0.2-1.9,0.5-3.4,2-4.5c3.7-0.8,7.2-0.3,10.5,1.5c2-0.2,3.8-0.9,5.5-2C251.2,263.2,251.8,263.9,252.5,264.5z"/>
</g>
<g>
	<path class="st40" d="M496.5,272.5c2.8,3.7,5.5,7.5,8,11.5c-1.7,2.5-2.3,5.4-2,8.5c0.1,1.2,0.7,2.1,2,2.5c-13.4,4-27.1,6.8-41,8.5
		c11.2-2.9,22.5-5.8,34-8.5c1.8-1.8,2.4-3.9,2-6.5c1-1.9,1.2-3.9,0.5-6c-1.7-2.6-3.2-5.2-4.5-8C496.3,274.2,496.7,273.5,496.5,272.5
		z"/>
</g>
<g>
	<path class="st41" d="M521.5,303.5c-3.6,1.3-7.3,1.3-11,0c-0.7-0.4-1.2-1.1-1.5-2c-0.5-3.3-0.7-6.6-0.5-10c4.5-0.1,8.8,0.6,13,2
		C521.5,296.8,521.5,300.2,521.5,303.5z"/>
</g>
<g>
	<path class="st33" d="M255.5,264.5c-1.2-1.1-2.2-1.1-3,0c-0.7-0.6-1.3-1.3-2-2c-1.7,1.1-3.5,1.8-5.5,2c-3.3-1.8-6.8-2.3-10.5-1.5
		c-1.5,1.1-2.2,2.6-2,4.5c11.7,0.2,16.2,6.2,13.5,18c0,3.3-1.2,6-3.5,8c1-2,1-4,0-6c-2.9-0.9-5.9-1.2-9-1c-0.3,1.9,0,3.6,1,5
		c0.9,1.9,1.9,3.7,3,5.5c4.2,0.3,8.4,0.8,12.5,1.5c1.1-0.1,2.1-0.4,3-1c0.2-1.9,0.7-3.5,1.5-5c0,3.7,0.6,3.9,2,0.5
		c2.5-0.8,4.9-0.6,7,0.5c-2-0.2-4,0-6,0.5c-1.1,2.4-2.1,4.9-3,7.5c-0.7,0.3-1.3,0.7-2,1c-2.3-1.4-4.8-2.4-7.5-3
		c-8.4,2.2-13.2-1.2-14.5-10c-1.2,1.4-2.2,2.9-3,4.5c2.8,4.4,5.1,9.1,7,14c-0.8,4-2.2,7.8-4,11.5c8.2,2.1,16.2,4.7,24,8
		c8.5-3.7,16.5-8.2,24-13.5c7.1,1.9,14.5,2.5,22,2c11.3-1.2,22.3-3.7,33-7.5c-1.5,1.4-1.2,2.1,1,2c-10.4,3.4-21,6.2-32,8.5
		c-8.2,0.6-16.2-0.1-24-2c-6.8,4.3-13.8,8.3-21,12c1.7,1.3,3.6,2.5,5.5,3.5c3.7-3.8,7.9-6.6,12.5-8.5c-7.5,5-13.9,11.2-19,18.5
		c0-0.7,0-1.3,0-2c0.9-2.4,2.4-4.4,4.5-6c0.7-0.8,0.5-1.5-0.5-2c-10-5.8-20.6-9-32-9.5c-3.5,2.6-4.9,6.1-4,10.5c2.9-0.3,5.6,0,8,1
		c-2.7,0-5.3,0-8,0c0,1.7,0,3.3,0,5c-1.1-3.4-2.1-6.9-3-10.5c5.2-6.1,8.9-13.1,11-21c-1.7-4.1-3.9-7.9-6.5-11.5
		c-1.3-5.1,0.5-8.6,5.5-10.5c4.3-0.8,8.4-0.6,12.5,0.5c0.3-4,0-8-1-12c-0.8-1.8-2-3.3-3.5-4.5c-11.2-1.1-22.2-0.1-33,3
		c-12.1,9.4-24.6,18.3-37.5,26.5c-4.5,15.1-10.7,29.4-18.5,43c1.5,1.9,3.5,2.4,6,1.5c3-2.6,5.2-5.8,6.5-9.5c1.7-8,3.3-16,5-24
		c0.2,8.4,0.7,16.7,1.5,25c-1.2,1.5-1.2,3.2,0,5c-0.5,0.8-1.1,1.1-2,1c0.1-3.1-0.4-6.1-1.5-9c-1.2,4.7-3.4,8.9-6.5,12.5
		c-3.9,1.6-7.9,1.8-12,0.5c2.8-7.7,6.3-15,10.5-22c3-8.7,6.4-17.4,10-26c13.1-8.8,25.9-17.9,38.5-27.5c7.3-1.1,14.6-1.7,22-2
		c3.1-8.6,8.8-10.8,17-6.5c2.8-0.1,4.8-1.4,6-4C253.6,259.4,254.9,261.7,255.5,264.5z"/>
</g>
<g>
	<path class="st39" d="M242.5,293.5c-1.4-1.1-2.4-2.6-3-4.5c-1.6-0.5-3.3-0.7-5-0.5c0,1,0,2,0,3c-1-1.4-1.3-3.1-1-5
		c3.1-0.2,6.1,0.1,9,1C243.5,289.5,243.5,291.5,242.5,293.5z"/>
</g>
<g>
	<path class="st42" d="M499.5,288.5c0.4,2.6-0.2,4.7-2,6.5c-11.5,2.7-22.8,5.6-34,8.5c-6.3,0.7-12.7,0.8-19,0.5
		c-2.4-0.7-4.8-1.7-7-3c-1.3-1-1.3-2,0-3c2.6-1.8,5.2-3.3,8-4.5c-0.3,0.7-0.7,1.3-1,2c18.6,2.2,36.4-0.8,53.5-9
		C498.3,287.4,498.8,288.1,499.5,288.5z"/>
</g>
<g>
	<path class="st43" d="M415.5,290.5c2.6,4.1,3.5,3.7,2.5-1c2.4,1.8,3.4,4.1,3,7c-14.2,11.1-30.3,16.8-48.5,17c0.3,2,0.7,4,1,6
		c-0.7,0-1.3,0-2,0c-1.9-6.8-4.3-13.5-7-20c3.6-1.7,7-3.7,10-6c10-3.4,20.3-5.7,31-7C409.3,286.7,412.6,288.1,415.5,290.5z"/>
</g>
<g>
	<path class="st44" d="M509.5,287.5c-0.1,0.6-0.4,1.1-1,1.5c5.5-0.4,10.3,1.1,14.5,4.5c2.3,3.8,1.8,7.2-1.5,10c0-3.3,0-6.7,0-10
		c-4.2-1.4-8.5-2.1-13-2c-0.2,3.4,0,6.7,0.5,10c0.3,0.9,0.8,1.6,1.5,2c-0.4,1-1.1,1.2-2,0.5c-0.5-2.1-1.6-3.6-3.5-4.5
		c-3.4,1.8-6.9,3.1-10.5,4c2.1-2.2,4.8-3.7,8-4.5c1.4-0.9,1.2-1.4-0.5-1.5c-21,6.4-42.5,9.6-64.5,9.5c-2.4-1.2-4.7-2.4-7-3.5
		c0.2-0.6,0.7-0.9,1.5-1c5,2.5,10.3,3.5,16,3c5.4,0.2,10.6-0.5,15.5-2c13.9-1.7,27.6-4.5,41-8.5c-1.3-0.4-1.9-1.2-2-2.5
		c0.6,0.1,1.1,0.4,1.5,1C504.6,290.4,506.5,288.4,509.5,287.5z"/>
</g>
<g>
	<path class="st45" d="M516.5,307.5c-1,0-2,0-3,0c0-0.7-0.3-1-1-1c-4.3-0.2-8.3-1.1-12-2.5c-13.9,6.9-26.7,15.4-38.5,25.5
		c1,5.6,2,11.3,3,17c0.8,15.2,0.7,30.2-0.5,45c0.2-2.7,0-5.4-0.5-8c-0.6,9.6-1.7,18.9-3.5,28c1.5-16.3,2.5-32.6,3-49
		c1-11.8-0.6-23.1-5-34c0.7-1.4,1.7-2.4,3-3c10.9-7.6,21.9-14.9,33-22c3.6-0.9,7.1-2.2,10.5-4c1.9,0.9,3,2.4,3.5,4.5
		c0.9,0.7,1.6,0.5,2-0.5c3.7,1.3,7.4,1.3,11,0c3.3-2.8,3.8-6.2,1.5-10c-4.2-3.4-9-4.9-14.5-4.5c0.6-0.4,0.9-0.9,1-1.5
		c1.9-3.7,3.7-7.7,5.5-12c2-8.7-0.8-15-8.5-19c-6.3,3.3-9.7,8.6-10,16c0.2,1-0.2,1.7-1,2c-2.8-3-5.2-6.3-7-10c0.1-1-0.2-1.8-1-2.5
		c1.4-2.3,2-4.8,2-7.5c7.3-15.2,17.6-17.7,31-7.5c10.7,12.6,10.6,25.1-0.5,37.5c-0.7,1.3-0.7,2.7,0,4c3.3,3.3,7.1,5.8,11.5,7.5
		c13.4,3.2,26.1,8.2,38,15c6.9,8.3,6.6,16.3-1,24c-1,0.2-2,0.3-3,0.5c-5.5-1.4-10.5-3.9-15-7.5c-9-7-18-14-27-21
		C521,306.2,518.6,306.4,516.5,307.5z"/>
</g>
<g>
	<path class="st46" d="M526.5,299.5c10.7,4.2,21.4,8.7,32,13.5c4.5,1.8,6.3,4.9,5.5,9.5c-3.7,1.4-7.2,0.9-10.5-1.5
		C544.3,313.9,535.3,306.7,526.5,299.5z"/>
</g>
<g>
	<path class="st47" d="M544.5,303.5c0,0.3,0,0.7,0,1c-6.4-1.7-12.4-4.4-18-8c0.3-0.3,0.7-0.7,1-1
		C533.1,298.5,538.8,301.2,544.5,303.5z"/>
</g>
<g>
	<path class="st44" d="M501.5,243.5c11.7-0.3,19.5,5.1,23.5,16c0.8,4.1,0.4,8.1-1,12c-3.1,4.9-5.9,9.9-8.5,15
		c-0.3-0.8-0.7-1.7-1-2.5c1.5-5,2.9-10,4-15c-0.2-5-1.8-9.3-5-13c-5.1-2.5-9.6-1.7-13.5,2.5c-2,3.5-4.1,6.8-6.5,10
		C488.6,257.9,491.2,249.5,501.5,243.5z"/>
</g>
<g>
	<path class="st48" d="M291.5,363.5c-1,0-2,0-3,0c0.3,3.2-0.4,6.2-2,9c2.3,0.8,4.6,1.3,7,1.5c1.3,1.3,1.3,2.7,0,4
		c-5.4,1-10.4,0.2-15-2.5c-0.7-1.2-1.1-2.6-1-4c-3.7,0.2-7.3,0-11-0.5c-1.4-1.2-2.2-2.7-2.5-4.5c-1.7-1-3.3-2-5-3c0-3.6-1.7-5.9-5-7
		c-0.5-4.9,0.3-9.6,2.5-14c5.1-7.3,11.5-13.5,19-18.5c-4.6,1.9-8.8,4.7-12.5,8.5c-1.9-1-3.8-2.2-5.5-3.5c7.2-3.7,14.2-7.7,21-12
		c7.8,1.9,15.8,2.6,24,2c11-2.3,21.6-5.1,32-8.5c3-0.7,6-1.2,9-1.5c6.5,5.5,10.5,12.3,12,20.5c-13.2,1.4-26.2,3.8-39,7
		c0.7,9.4-3,16.6-11,21.5C300.7,359.8,296,361.6,291.5,363.5z"/>
</g>
<g>
	<path class="st47" d="M494.5,303.5c-11.1,7.1-22.1,14.4-33,22c0-0.7-0.3-1-1-1c6.2-4.6,12.5-9.1,19-13.5
		C484.3,307.9,489.3,305.4,494.5,303.5z"/>
</g>
<g>
	<path class="st49" d="M544.5,304.5c0-0.3,0-0.7,0-1c10.5,1.7,19.3,6.3,26.5,14c2.6,9.7-0.9,13.9-10.5,12.5
		c-12.9-7.9-24.7-16.8-35.5-26.5c9.3,6.4,18.4,12.9,27.5,19.5c4.6,2.7,9.1,2.9,13.5,0.5c0.7-2,0.7-4,0-6
		C559.8,311.5,552.6,307.1,544.5,304.5z"/>
</g>
<g>
	<path class="st50" d="M494.5,303.5c-5.2,1.9-10.2,4.4-15,7.5c-6.5,4.4-12.8,8.9-19,13.5c-7,4.5-14,9-21,13.5
		c-9.1,8.4-18.8,16.1-29,23c-6,4.3-12.7,6-20,5c-3.9-3.3-6-7.4-6.5-12.5c-0.7-6-0.7-12,0-18c1.4-4.2,3.9-7.7,7.5-10.5
		c14.3-5.1,27.3-12.3,39-21.5c2.3,1.1,4.6,2.3,7,3.5c22,0.1,43.5-3.1,64.5-9.5c1.7,0.1,1.9,0.6,0.5,1.5
		C499.3,299.8,496.6,301.3,494.5,303.5z"/>
</g>
<g>
	<path class="st33" d="M450.5,280.5c0.3,0,0.7,0,1,0c0.6,0.6,1,1.4,1,2.5c-0.3,5.1-2.6,8.6-7,10.5c-2.8,1.2-5.4,2.7-8,4.5
		c-1.3,1-1.3,2,0,3c2.2,1.3,4.6,2.3,7,3c6.3,0.3,12.7,0.2,19-0.5c-4.9,1.5-10.1,2.2-15.5,2c-5.7,0.5-11-0.5-16-3
		c-0.8,0.1-1.3,0.4-1.5,1c-9.7,5.2-19.3,10.3-29,15.5c-6.7,2.1-13.1,4.6-19,7.5c-1.3,0.7-2.7,1.3-4,2c0-1.3-0.7-2-2-2s-2.7,0-4,0
		c0.2,5.4-0.2,10.7-1,16c-7.1,0.3-14.1,0.8-21,1.5c-4.7-2-8-5.3-10-10c-0.8-0.2-1.7-0.3-2.5-0.5c-6.9,1.3-13.8,2.9-20.5,5
		c1.9,10.9-2.4,18.1-13,21.5c-4.2,1.7-8.5,2.9-13,3.5c4.5-1.9,9.2-3.7,14-5.5c8-4.9,11.7-12.1,11-21.5c12.8-3.2,25.8-5.6,39-7
		c-1.5-8.2-5.5-15-12-20.5c-3,0.3-6,0.8-9,1.5c-2.2,0.1-2.5-0.6-1-2c1.5-8.1,6.5-11.9,15-11.5c2-1,3.6-2.3,5-4
		c3.7-0.2,6.7,1.3,9,4.5c3.1-1.9,6.5-3.2,10-4c0.7,0,1.3,0,2,0c-3,2.3-6.4,4.3-10,6c-0.7,0.7-1.3,1.3-2,2c-3.9-7-8.9-7.8-15-2.5
		c-4,0.5-7.5,2-10.5,4.5c-0.5,1.3-0.7,2.6-0.5,4c2.8-1.3,5.4-1.2,8,0.5c4.6,3.1,8.2,6.9,11,11.5c1.9,5.9,2.8,11.9,2.5,18
		c-1.8,1.9-4,2.4-6.5,1.5c2.9-0.1,4.3-1.6,4-4.5c0-0.3,0-0.7,0-1c-3.9-1.3-7.9-1.3-12,0c1.5,3.7,4.2,6.2,8,7.5
		c6.3,0,12.7-0.2,19-0.5c0-1,0-2,0-3c1-3.8,1.3-7.8,1-12c1.3,0.2,2.3-0.1,3-1c11.8-2.6,22.8-6.9,33-13c1.4,0.2,2.7,0,4-0.5
		c12.1-5.8,23.3-13,33.5-21.5c0.3,0.7,0.7,1.3,1,2C449.2,288.5,450.7,284.8,450.5,280.5z"/>
</g>
<g>
	<path class="st43" d="M407.5,311.5c-10.2,6.1-21.2,10.4-33,13c-1.9-1-2.9-2.7-3-5c0.7,0,1.3,0,2,0c0,1,0,2,0,3
		c2.7-0.2,5.4-0.7,8-1.5C390.1,317.5,398.8,314.4,407.5,311.5z"/>
</g>
<g>
	<path class="st33" d="M364.5,299.5c2.7,6.5,5.1,13.2,7,20c0.1,2.3,1.1,4,3,5c-0.7,0.9-1.7,1.2-3,1c0.3,4.2,0,8.2-1,12
		c0.9-9.2-0.4-17.9-4-26c-0.4-3.8-1.7-7.1-4-10C363.2,300.8,363.8,300.2,364.5,299.5z"/>
</g>
<g>
	<path class="st51" d="M362.5,301.5c2.3,2.9,3.6,6.2,4,10c-0.9,4.3-1,8.6-0.5,13c0.4-1.2,1.1-2.2,2-3c2.1,6.1,2,12.1-0.5,18
		c-4.8,0.6-6.8,0.3-6-1c-1.1-3.9-2-7.9-2.5-12c-0.6-2.8-1.8-5.1-3.5-7c-2.8-4.6-6.4-8.4-11-11.5c-2.6-1.7-5.2-1.8-8-0.5
		c-0.2-1.4,0-2.7,0.5-4c3-2.5,6.5-4,10.5-4.5C353.6,293.7,358.6,294.5,362.5,301.5z"/>
</g>
<g>
	<path class="st52" d="M512.5,306.5c-15.3,5.5-29.3,13.3-42,23.5c5.9-3.1,11.9-6.5,18-10c2.6-1,5.3-1.3,8-1c4.6,7.2,6.6,15,6,23.5
		c-0.3,10.1-1.5,20.1-3.5,30c-10.7,37.7-22.3,75-35,112c-0.5,5-0.7,10-0.5,15c-8.8-1.7-17.6-3.4-26.5-5c-1.2,0.3-2.3,0.7-3.5,1
		c0.8,1.6,1.1,3.2,1,5c13.1,1.6,20.2,8.9,21.5,22c0.5,6,0.7,12,0.5,18c-4.4,0.3-8.7,0-13-1c-2.8-4-4.8-8.3-6-13
		c-2.8-11.2-4.2-22.6-4-34c9.4,1.5,18.7,3.1,28,5c0.5-35.2,1.5-70.5,3-106c1.2-14.8,1.3-29.8,0.5-45c-1-5.7-2-11.4-3-17
		c11.8-10.1,24.6-18.6,38.5-25.5C504.2,305.4,508.2,306.3,512.5,306.5z"/>
</g>
<g>
	<path class="st53" d="M256.5,340.5c-0.6,0.3-1.3,0.6-2,1c-7-3.5-14.3-5.9-22-7c-2.4-1-5.1-1.3-8-1c-0.9-4.4,0.5-7.9,4-10.5
		c11.4,0.5,22,3.7,32,9.5c1,0.5,1.2,1.2,0.5,2C258.9,336.1,257.4,338.1,256.5,340.5z"/>
</g>
<g>
	<path class="st47" d="M430.5,303.5c-11.7,9.2-24.7,16.4-39,21.5c-3.6,2.8-6.1,6.3-7.5,10.5c-0.7,6-0.7,12,0,18
		c0.5,5.1,2.6,9.2,6.5,12.5c7.3,1,14-0.7,20-5c10.2-6.9,19.9-14.6,29-23c7-4.5,14-9,21-13.5c0.7,0,1,0.3,1,1c-1.3,0.6-2.3,1.6-3,3
		c4.4,10.9,6,22.2,5,34c-0.5,16.4-1.5,32.7-3,49c-1,5.1-1.3,10.5-1,16c-1.8,1.8-2.5,4.1-2,7c-0.8,13-1.2,26-1,39
		c-15-0.9-30-1.9-45-3c-11.4-0.2-22.6,1.1-33.5,4c-4.5-1.2-6.3-4.2-5.5-9c-0.7-2.7-1.3-5.3-2-8c0.8-29.2,1.3-58.5,1.5-88
		c1-15,4.5-29.3,10.5-43c5.9-2.9,12.3-5.4,19-7.5C411.2,313.8,420.8,308.7,430.5,303.5z"/>
</g>
<g>
	<path class="st54" d="M251.5,351.5c-2.8-1.1-5.6-2.1-8.5-3c-4,1.4-8.2,2.6-12.5,3.5c-1.8,1-3.5,2.2-5,3.5c-3.7,1.5-7,3.7-10,6.5
		c-4.2,4.4-8.5,8.5-13,12.5c-12.9,3.7-23.6,10.9-32,21.5c-6.3-18.3-1.9-34.3,13-48c2.3-0.3,4.4,0.2,6.5,1.5c1.1,0,1.9-0.4,2.5-1
		c1-0.5,1.8-1.1,2.5-2c0.5-2.1,1.4-4.1,2.5-6c5.1-2.4,10.4-3.7,16-4c0.8,7.9,5.1,11.5,13,11c-0.1-3.7-0.4-7.4-1-11
		c9.8,1,19.2,3.7,28,8C252.1,346.6,251.4,349,251.5,351.5z"/>
</g>
<g>
	<path class="st55" d="M224.5,339.5c0-1.7,0-3.3,0-5c2.7,0,5.3,0,8,0c7.7,1.1,15,3.5,22,7c0.7-0.4,1.4-0.7,2-1c0,0.7,0,1.3,0,2
		c-2.2,4.4-3,9.1-2.5,14c3.3,1.1,5,3.4,5,7c1.7,1,3.3,2,5,3c0.3,1.8,1.1,3.3,2.5,4.5c3.7,0.5,7.3,0.7,11,0.5c-0.1,1.4,0.3,2.8,1,4
		c4.6,2.7,9.6,3.5,15,2.5c1.3-1.3,1.3-2.7,0-4c-2.4-0.2-4.7-0.7-7-1.5c1.6-2.8,2.3-5.8,2-9c1,0,2,0,3,0c0.6,3.7,2.3,6.7,5,9
		c0.5,5.2,1.5,10.2,3,15c2.2,10.5,3.4,21.2,3.5,32c6.3,6.3,12.7,12.7,19,19c3.1,7,3.3,14,0.5,21c0-1.3,0-2.7,0-4c0.2-4,0-8-0.5-12
		c-1-2.2-2.5-3.8-4.5-5c-6.4-6.2-12.2-12.9-17.5-20c0.3-12.9-1.2-25.6-4.5-38c-3.9-1-7.9-1.3-12-1c1.2,5.9,2,11.9,2.5,18
		c1.8,2.8,4,5.3,6.5,7.5c-1.7,0.3-3.2-0.2-4.5-1.5c-5-7.2-10.2-14.2-15.5-21c-1.8-2.9-3.6-5.9-5.5-9c-1-0.8-2.2-1.2-3.5-1
		c0.3-1.8,0-3.5-1-5c-3.9-1.2-5.9-3.9-6-8c-1,0-2,0-3,0c-1-1.4-2-2.7-3-4c0.2-1-0.2-1.7-1-2c0.7-0.7,1.3-1.3,2-2
		c-0.1-2.5,0.6-4.9,2-7c-8.8-4.3-18.2-7-28-8c0.6,3.6,0.9,7.3,1,11c-7.9,0.5-12.2-3.1-13-11c-5.6,0.3-10.9,1.6-16,4
		c-1.1,1.9-2,3.9-2.5,6c-0.7,0.9-1.5,1.5-2.5,2c0-0.3,0-0.7,0-1s0-0.7,0-1c1-1.8,1.3-3.8,1-6c5.9-3.2,12.3-5.2,19-6
		c0-3.9,1-7.6,3-11c-15.6-0.4-29.3,4.6-41,15c-1.3,0.2-2.3-0.1-3-1c3.4-2.8,6.9-5.4,10.5-8c-0.3-8.6-0.2-17.1,0.5-25.5
		c1-0.7,2-0.7,3,0c-1.5,3.1-2.2,6.4-2,10c0.3,4.5,0.6,9,1,13.5c2.9-0.4,5.5-1.4,8-3c0.8-2.6,1.3-5.3,1.5-8c6.9-9.6,14.5-10.3,23-2
		c-0.2,8.7-0.2,17.3,0,26C221.1,347.5,223.6,347.2,224.5,339.5z"/>
</g>
<g>
	<path class="st56" d="M201.5,311.5c4.1-0.4,8.1,0.1,12,1.5c1.7,1.8,2.4,4,2,6.5c-7.2,0.6-14.2,1.9-21,4
		C194.3,318,196.7,314,201.5,311.5z"/>
</g>
<g>
	<path class="st51" d="M366.5,311.5c3.6,8.1,4.9,16.8,4,26c0,1,0,2,0,3c-6.3,0.3-12.7,0.5-19,0.5c-3.8-1.3-6.5-3.8-8-7.5
		c4.1-1.3,8.1-1.3,12,0c-2.7-0.3-5.4,0-8,1c2.8,4,5.4,4,8,0c0.3,2.9-1.1,4.4-4,4.5c2.5,0.9,4.7,0.4,6.5-1.5c0.3-6.1-0.6-12.1-2.5-18
		c1.7,1.9,2.9,4.2,3.5,7c0.5,4.1,1.4,8.1,2.5,12c-0.8,1.3,1.2,1.6,6,1c2.5-5.9,2.6-11.9,0.5-18c-0.9,0.8-1.6,1.8-2,3
		C365.5,320.1,365.6,315.8,366.5,311.5z"/>
</g>
<g>
	<path class="st51" d="M355.5,333.5c0,0.3,0,0.7,0,1c-2.6,4-5.2,4-8,0C350.1,333.5,352.8,333.2,355.5,333.5z"/>
</g>
<g>
	<path class="st57" d="M192.5,346.3c0,0.4,0,0.8,0,1.2c-1,0-2,0-3,0c0-1.6,0-3.2,0-4.7c1,0,2,0,3,0
		C192.5,344,192.5,345.1,192.5,346.3z"/>
</g>
<g>
	<path class="st58" d="M382.5,326.5c-6,13.7-9.5,28-10.5,43c-0.2,29.5-0.7,58.8-1.5,88c0.3-26.8,0-53.5-1-80c0.3-17,3.3-33.3,9-49
		C379.8,327.8,381.2,327.2,382.5,326.5z"/>
</g>
<g>
	<path class="st59" d="M225.5,355.5c0.7-0.1,1.4,0,2,0.5c-3,2.3-6,4.7-9,7c-2.1,1.9-2.4,4.1-1,6.5c0.6-0.2,1.1-0.5,1.5-1
		c2.5,1.9,5,2.6,7.5,2c-2.2,2-4.7,3.7-7.5,5c-5.5-1.2-11-1.2-16.5,0c0-0.3,0-0.7,0-1c4.5-4,8.8-8.1,13-12.5
		C218.5,359.2,221.8,357,225.5,355.5z"/>
</g>
<g>
	<path class="st60" d="M431.5,347.5c2-2.8,4.5-5.2,7.5-7c-7.1,24.4-17,47.7-29.5,70c-0.7,1.3-1.3,1.3-2,0c7.2-13.7,12.7-28,16.5-43
		c-6.9,13.2-15.7,25.1-26.5,35.5c-1.9,1.6-3.9,2.6-6,3c15.4-17.1,28.9-35.6,40.5-55.5C432.7,349.3,432.6,348.3,431.5,347.5z"/>
</g>
<g>
	<path class="st61" d="M515.5,360.5c-1.2,7.2-3.5,13.9-7,20C510.5,373.6,512.8,366.9,515.5,360.5z"/>
</g>
<g>
	<path class="st59" d="M251.5,351.5c-0.7,0.7-1.3,1.3-2,2c-2.4-2.7-5.4-3.6-9-2.5c-2.1,8.3-6.8,14.8-14,19.5c-2.5,0.6-5-0.1-7.5-2
		c-0.4,0.5-0.9,0.8-1.5,1c-1.4-2.4-1.1-4.6,1-6.5c3-2.3,6-4.7,9-7c-0.6-0.5-1.3-0.6-2-0.5c1.5-1.3,3.2-2.5,5-3.5
		c4.3-0.9,8.5-2.1,12.5-3.5C245.9,349.4,248.7,350.4,251.5,351.5z"/>
</g>
<g>
	<path class="st62" d="M250.5,355.5c1,1.3,2,2.6,3,4c1.7,3.5,3.2,7.2,4.5,11c1.6,2.2,3.8,3.5,6.5,4c1.3,1.8,1.9,3.8,2,6
		c1.3,0,2.7,0,4,0c0.2,1.7,0,3.4-0.5,5c-1.7-0.9-3.5-1.2-5.5-1c0-1.3,0-2.7,0-4c-1.7,0-3.3,0-5,0c-2-1.6-4-3.3-6-5
		c-2.4-4.2-6.1-7.1-11-8.5c-1.2-1.2-2.3-2.3-3.5-3.5c0.2-3.8,1-7.4,2.5-11C245,352.1,248,353.1,250.5,355.5z"/>
</g>
<g>
	<path class="st63" d="M431.5,347.5c-10.5,12.1-23.1,21.1-38,27c-2.6-0.1-4.8-1.1-6.5-3c-1.5-3.2-2.2-6.6-2-10
		c2.3,6.6,6.8,8.8,13.5,6.5c4.6-1.4,9-3.4,13-6C418.3,357.3,425,352.5,431.5,347.5z"/>
</g>
<g>
	<path class="st64" d="M193.5,340.5c-24,12.8-32.9,32.4-26.5,59c1.5,3,3,6,4.5,9c0,1.9,0.8,3.2,2.5,4c3.1-0.8,6.2-1.3,9.5-1.5
		c1.8-1,3.5-2.1,5-3.5c0.7,1.5,0,2.7-2,3.5c0.9,0.5,1.9,0.6,3,0.5c-6.2,6.3-13.5,10.8-22,13.5c0.9,0.5,1.9,0.6,3,0.5
		c-2.8,0.8-5.8,1.3-9,1.5c-1,2.4-0.7,4.8,1,7c2.7,0.4,5.4,0.3,8-0.5c-0.2,2.7,0.1,5.4,1,8c3.8,0.7,7.3,2.1,10.5,4
		c0.5,4,0.7,8,0.5,12c1.3-0.2,2.5,0.2,3.5,1c0.8,1.9,0.6,3.6-0.5,5c-0.9-2.4-2.5-3.2-5-2.5c-2,2.4-4.4,4.4-7,6c1.3,0.2,2.7,0,4-0.5
		c-1.5,1.9-3.5,3.1-6,3.5c-0.8,1-1.2,2.2-1,3.5c-3.2-0.4-6.2-1.4-9-3c5.3-3.6,9.9-7.9,14-13c-5.5-9.7-11.7-19.1-18.5-28
		c-0.9-3.9-0.4-7.5,1.5-11c2.4,0.3,4.7-0.2,7-1.5c-2.7,0.1-4.5-1.1-5.5-3.5c-3.3-10.1-5.1-20.4-5.5-31c0.2-11.9,3.4-22.9,9.5-33
		c3-4.2,6.5-7.9,10.5-11c11.7-10.4,25.4-15.4,41-15c-2,3.4-3,7.1-3,11C205.8,335.3,199.4,337.3,193.5,340.5z"/>
</g>
<g>
	<path class="st65" d="M270.5,373.5c1.7,0,3.3,0,5,0c0.5,3.7,2.7,6,6.5,7c0.7,3.7,0.7,7.3,0,11C277.1,386.1,273.3,380.1,270.5,373.5
		z"/>
</g>
<g>
	<path class="st66" d="M296.5,372.5c0.6,0.1,1.1,0.4,1.5,1c0.5,4.7,1,9.3,1.5,14C298,382.7,297,377.7,296.5,372.5z"/>
</g>
<g>
	<path class="st67" d="M249.5,353.5c0.8,0.3,1.2,1,1,2c-2.5-2.4-5.5-3.4-9-3c-1.5,3.6-2.3,7.2-2.5,11c1.2,1.2,2.3,2.3,3.5,3.5
		c4.9,1.4,8.6,4.3,11,8.5c2,1.7,4,3.4,6,5c3.5,4.4,7.9,7.9,13,10.5c3.2,2.9,6,6,8.5,9.5c0.3-2.1,0-4.1-1-6c-2.8-3.9-5.3-7.9-7.5-12
		c5.3,6.8,10.5,13.8,15.5,21c1.3,1.3,2.8,1.8,4.5,1.5c-2.5-2.2-4.7-4.7-6.5-7.5c-0.5-6.1-1.3-12.1-2.5-18c4.1-0.3,8.1,0,12,1
		c3.3,12.4,4.8,25.1,4.5,38c5.3,7.1,11.1,13.8,17.5,20c-0.3,0-0.7,0-1,0c-5.6-4.1-10.8-8.8-15.5-14c1.3,3.9,2.6,7.9,4,12
		c4,15.7,2.1,30.7-5.5,45c-5.1,9.6-12,18-20.5,25c-0.5,0.9-0.6,1.9-0.5,3c-6.9,6.4-14.2,12.2-22,17.5c-4.4,2.5-9.1,4.4-14,5.5
		c0.1-1.1,0-2.1-0.5-3c-4-4-8-8-12-12c-2.7-4.1-4.9-8.5-6.5-13c-2.3,0-4.7,0-7,0c-0.1,2.4,0.3,4.7,1,7c-2.7-3.2-6-5.7-10-7.5
		c-36-7.4-71-17.9-105-31.5c4.2-3.3,5.8-7.7,5-13c27.8,5.8,55.1,13.3,82,22.5c2.6,0.5,5.3,0.7,8,0.5c0.8-0.3,1.5-0.8,2-1.5
		c-3.6-2.2-7-4.8-10-8c1.3-1.6,1-2.7-1-3.5c-1-2-2-4-3-6c1.1-1.4,1.3-3.1,0.5-5c-1-0.8-2.2-1.2-3.5-1c0.2-4,0-8-0.5-12
		c-3.2-1.9-6.7-3.3-10.5-4c-0.9-2.6-1.2-5.3-1-8c-2.6,0.8-5.3,0.9-8,0.5c-1.7-2.2-2-4.6-1-7c3.2-0.2,6.2-0.7,9-1.5
		c8.6-3.7,16.3-8.8,23-15.5c-1.6-0.3-2.9,0.2-4,1.5c-1.1,0.1-2.1,0-3-0.5c2-0.8,2.7-2,2-3.5c-1.5,1.4-3.2,2.5-5,3.5
		c-3.3,0.2-6.4,0.7-9.5,1.5c-1.7-0.8-2.5-2.1-2.5-4c0.5-0.1,0.9-0.4,1-1c-1.7-3.2-2.2-6.5-1.5-10c8.5-10.4,19-17.7,31.5-22
		c5.5-1.2,11-1.2,16.5,0c2.8-1.3,5.3-3,7.5-5c7.2-4.7,11.9-11.2,14-19.5C244.1,349.9,247.1,350.8,249.5,353.5z"/>
</g>
<g>
	<path class="st68" d="M253.5,375.5c2.6,5.6,5.5,11,8.5,16c-7.3-7-13.3-14.6-18-23C247.5,370.5,250.6,372.8,253.5,375.5z"/>
</g>
<g>
	<path class="st57" d="M193.5,340.5c0.3,2.2,0,4.2-1,6c0-1,0-2,0-3c-1,0-2,0-3,0c0,1.3,0,2.7,0,4c1,0,2,0,3,0c0,0.3,0,0.7,0,1
		c-0.6,0.6-1.4,1-2.5,1c-2.1-1.3-4.2-1.8-6.5-1.5c-14.9,13.7-19.3,29.7-13,48c8.4-10.6,19.1-17.8,32-21.5c0,0.3,0,0.7,0,1
		c-12.5,4.3-23,11.6-31.5,22c-0.7,3.5-0.2,6.8,1.5,10c-0.1,0.6-0.5,0.9-1,1c-1.5-3-3-6-4.5-9C160.6,372.9,169.5,353.3,193.5,340.5z"
		/>
</g>
<g>
	<path class="st69" d="M515.5,317.5c1.3,13.5,0.2,26.8-3.5,40c-8.3,28.7-17.7,57-28,85c-10.2,31.5-15.7,63.9-16.5,97
		c-0.7,0.1-1.4,0-2-0.5c1.2-32.8,6.7-65,16.5-96.5c12.8-32.3,23.1-65.3,31-99C513.9,334.7,514.8,326,515.5,317.5z"/>
</g>
<g>
	<path class="st62" d="M253.5,359.5c1,0,2,0,3,0c0.1,4.1,2.1,6.8,6,8c1,1.5,1.3,3.2,1,5c1.3-0.2,2.5,0.2,3.5,1
		c1.9,3.1,3.7,6.1,5.5,9c2.2,4.1,4.7,8.1,7.5,12c1,1.9,1.3,3.9,1,6c-2.5-3.5-5.3-6.6-8.5-9.5c-5.1-2.6-9.5-6.1-13-10.5
		c1.7,0,3.3,0,5,0c0,1.3,0,2.7,0,4c2-0.2,3.8,0.1,5.5,1c0.5-1.6,0.7-3.3,0.5-5c-1.3,0-2.7,0-4,0c-0.1-2.2-0.7-4.2-2-6
		c-2.7-0.5-4.9-1.8-6.5-4C256.7,366.7,255.2,363,253.5,359.5z"/>
</g>
<g>
	<path class="st70" d="M292.5,380.5c3.4,7.4,5,15.4,5,24c-3.5,0.1-6.1-1.4-8-4.5c1.5-0.8,2.7-2,3.5-3.5
		C293.7,391.1,293.5,385.8,292.5,380.5z"/>
</g>
<g>
	<path class="st71" d="M170.5,425.5c-1.1,0.1-2.1,0-3-0.5c8.5-2.7,15.8-7.2,22-13.5c1.1-1.3,2.4-1.8,4-1.5
		C186.8,416.7,179.1,421.8,170.5,425.5z"/>
</g>
<g>
	<path class="st72" d="M512.5,306.5c0.7,0,1,0.3,1,1c1,3.3,1.6,6.6,2,10c-0.7,8.5-1.6,17.2-2.5,26c-7.9,33.7-18.2,66.7-31,99
		c-9.8,31.5-15.3,63.7-16.5,96.5c0.6,0.5,1.3,0.6,2,0.5c0,0.3,0,0.7,0,1c-1.3,0-2.7,0-4,0c-2.3,0-4.7,0-7,0c0.2-6,0-12-0.5-18
		c-1.3-13.1-8.4-20.4-21.5-22c0.1-1.8-0.2-3.4-1-5c1.2-0.3,2.3-0.7,3.5-1c8.9,1.6,17.7,3.3,26.5,5c-0.2-5,0-10,0.5-15
		c12.7-37,24.3-74.3,35-112c2-9.9,3.2-19.9,3.5-30c0.6-8.5-1.4-16.3-6-23.5c-2.7-0.3-5.4,0-8,1c-6.1,3.5-12.1,6.9-18,10
		C483.2,319.8,497.2,312,512.5,306.5z"/>
</g>
<g>
	<path class="st73" d="M50.5,495.5c6.1-0.9,11.3-3.5,15.5-8c0.8-1.9,1.3-3.9,1.5-6c2.7-10.6,0.6-20.3-6.5-29
		c-4.2-5.5-9.7-7.7-16.5-6.5c-1.8,0.7-3.2,1.8-4,3.5c-1.6,1.2-2.8,2.9-3.5,5c-1.1,4.6-1.8,9.2-2,14c-0.4,0.5-0.9,0.8-1.5,1
		c-1.4-6.5-0.9-12.8,1.5-19c2.2-3.2,5-5.7,8.5-7.5c6.5-0.6,12.1,1.4,17,6c10.8,13,12.6,27.2,5.5,42.5
		C61.7,497.3,56.5,498.7,50.5,495.5z"/>
</g>
<g>
	<path class="st74" d="M169.5,335.5c0,1.3,0.7,2,2,2c0.7,0.9,1.7,1.2,3,1c-4,3.1-7.5,6.8-10.5,11c-6.1,10.1-9.3,21.1-9.5,33
		c0.4,10.6,2.2,20.9,5.5,31c1,2.4,2.8,3.6,5.5,3.5c-2.3,1.3-4.6,1.8-7,1.5c-1.9,3.5-2.4,7.1-1.5,11c6.8,8.9,13,18.3,18.5,28
		c-4.1,5.1-8.7,9.4-14,13c2.8,1.6,5.8,2.6,9,3c8.9,3.5,17.9,6.5,27,9c-2.7,0.2-5.4,0-8-0.5c-26.9-9.2-54.2-16.7-82-22.5
		c0.8,5.3-0.8,9.7-5,13c34,13.6,69,24.1,105,31.5c4,1.8,7.3,4.3,10,7.5c5.2,6.8,10.2,13.8,15,21c3.4,1.3,6.7,1.3,10,0
		c4.9-1.1,9.6-3,14-5.5c7.8-5.3,15.1-11.1,22-17.5c14-13,26.8-27,38.5-42c2.1-4,4-8,5.5-12c0,1.3,0,2.7,0,4c-0.9,2.8-2,5.4-3.5,8
		c-16.1,22.1-34.9,41.6-56.5,58.5c-9.7,6.7-20.4,9.6-32,8.5c-4.7-8-9.8-15.7-15.5-23c-1.9-2.6-4.4-4.4-7.5-5.5
		c-39.7-9-78.7-20.5-117-34.5C82,481.5,73,491,63.5,500c-5.9,3.1-11.9,3.3-18,0.5c0-0.3,0-0.7,0-1c0.3-0.8,1-1.2,2-1
		c4.9,2.7,9.9,2.5,15-0.5c5.6-4.5,8.8-10.3,9.5-17.5c0.4,3.8,0.1,7.5-1,11c4.9-6.9,10.6-13.3,17-19c0.2-1.4,0.7-2.8,1.5-4
		c12.3,5.9,17.1,2.2,14.5-11C89.5,451.8,75,446,60.5,440c-5.2-2-10.5-2.6-16-2c4.9,0.4,9.2,2.1,13,5c-11.3-5.6-19.8-2.8-25.5,8.5
		c-0.7,7-1.8,13.7-3.5,20c-2.7-14.8,2-26.6,14-35.5c8.3-0.7,16.3,0.6,24,4c13.2,5.1,26.2,10.4,39,16c16.9,4.1,33.8,8.6,50.5,13.5
		c5.8-2.9,11.2-6.6,16-11c0.7-1,0.7-2,0-3c-5.3-8.3-10.9-16.3-17-24c-1.2-6.1-0.1-11.6,3.5-16.5c-10.4-23.2-9.2-45.7,3.5-67.5
		c2.1-1.9,3.9-3.9,5.5-6c0.9,0.1,1.5-0.2,2-1C168.3,338.7,168.3,337,169.5,335.5z"/>
</g>
<g>
	<path class="st75" d="M47.5,498.5c1.2-0.8,2.2-1.8,3-3c6,3.2,11.2,1.8,15.5-4c7.1-15.3,5.3-29.5-5.5-42.5c-4.9-4.6-10.5-6.6-17-6
		c-3.5,1.8-6.3,4.3-8.5,7.5c-2.4,6.2-2.9,12.5-1.5,19c0.6-0.2,1.1-0.5,1.5-1c0.2-4.8,0.9-9.4,2-14c0.7-2.1,1.9-3.8,3.5-5
		c0.3,3.1,0.8,6.1,1.5,9c0.3-0.8,0.8-1.5,1.5-2c1.1,0.9,1.1,1.9,0,3c1.3,0.7,2.7,1.3,4,2c-1.3,1.1-2.1,2.5-2.5,4
		c-1.3-1.2-2.8-1.9-4.5-2c0-5.1-0.8-5.1-2.5,0c-0.3-1-0.7-2-1-3c-0.6,4.4-0.5,8.7,0.5,13c-1-1.3-2.3-2-4-2c-0.3,2.3,0.4,4.3,2,6
		c1.4-0.5,2.1-1.5,2-3c0.8,1.2,1.5,2.5,2,4c-1.6,0.1-2.9,0.8-4,2c0.7,2.4,2,4,4,5c-1.4,0.8-2.8,1.8-4,3c-3.7-5-6-10.7-7-17
		c1.7-6.3,2.8-13,3.5-20c5.7-11.3,14.2-14.1,25.5-8.5c-3.8-2.9-8.1-4.6-13-5c5.5-0.6,10.8,0,16,2c14.5,6,29,11.8,43.5,17.5
		c2.6,13.2-2.2,16.9-14.5,11c-0.8,1.2-1.3,2.6-1.5,4c-6.4,5.7-12.1,12.1-17,19c1.1-3.5,1.4-7.2,1-11c-0.7,7.2-3.9,13-9.5,17.5
		C57.4,501,52.4,501.2,47.5,498.5z"/>
</g>
<g>
	<path class="st76" d="M316.5,438.5c1.8,1.6,2.9,3.6,3.5,6c0.7,4.3,0.7,8.7,0,13c-3.8,9.2-9.3,17.2-16.5,24c-1.5,1.3-2.8,1.3-4,0
		c7.6-14.3,9.5-29.3,5.5-45c-1.4-4.1-2.7-8.1-4-12C305.7,429.7,310.9,434.4,316.5,438.5z"/>
</g>
<g>
	<path class="st77" d="M464.5,391.5c-1.5,35.5-2.5,70.8-3,106c-0.9-28.7-1.3-57.3-1-86c1.8-9.1,2.9-18.4,3.5-28
		C464.5,386.1,464.7,388.8,464.5,391.5z"/>
</g>
<g>
	<path class="st78" d="M185.5,463.5c1,2,2,4,3,6c-2.1-1.3-3.8-3.1-5-5.5c-2.8-1-4.8-0.1-6,2.5c-1.3,0.5-2.7,0.7-4,0.5
		c2.6-1.6,5-3.6,7-6C183,460.3,184.6,461.1,185.5,463.5z"/>
</g>
<g>
	<path class="st75" d="M67.5,481.5c-0.9-2.1-2.1-4.1-3.5-6c-1.4,1.9-2.9,3.8-4.5,5.5c-3,0.5-5.3,2-7,4.5c-1.5,1-3.2,1.3-5,1
		c-0.1-1.1,0-2.1,0.5-3c3.1-2.1,5.9-4.4,8.5-7c3.4-1.1,6.7-2.1,10-3c0-1.9-0.8-3.2-2.5-4c-5.3,3.2-10.6,6.5-16,10
		c-0.3-0.3-0.7-0.7-1-1c-1.6,1.8-2.9,3.8-4,6c-0.3-0.9-0.8-1.6-1.5-2c-1.2-1-1.8-2.3-2-4c-0.5-1.5-1.2-2.8-2-4c0-0.3,0-0.7,0-1
		c-1-4.3-1.1-8.6-0.5-13c0.3,1,0.7,2,1,3c1.7-5.1,2.5-5.1,2.5,0c1.7,0.1,3.2,0.8,4.5,2c0.4-1.5,1.2-2.9,2.5-4c-1.3-0.7-2.7-1.3-4-2
		c1.1-1.1,1.1-2.1,0-3c-0.7,0.5-1.2,1.2-1.5,2c-0.7-2.9-1.2-5.9-1.5-9c0.8-1.7,2.2-2.8,4-3.5c6.8-1.2,12.3,1,16.5,6.5
		C68.1,461.2,70.2,470.9,67.5,481.5z"/>
</g>
<g>
	<path class="st78" d="M188.5,469.5c2,0.8,2.3,1.9,1,3.5c3,3.2,6.4,5.8,10,8c-0.5,0.7-1.2,1.2-2,1.5c-9.1-2.5-18.1-5.5-27-9
		c-0.2-1.3,0.2-2.5,1-3.5c2.5-0.4,4.5-1.6,6-3.5c1.2-2.6,3.2-3.5,6-2.5C184.7,466.4,186.4,468.2,188.5,469.5z"/>
</g>
<g>
	<path class="st79" d="M37.5,473.5c0,0.3,0,0.7,0,1c0.1,1.5-0.6,2.5-2,3c-1.6-1.7-2.3-3.7-2-6C35.2,471.5,36.5,472.2,37.5,473.5z"/>
</g>
<g>
	<path class="st80" d="M457.5,434.5c1,19.2,1.3,38.5,1,58c-29.9-7.1-59.9-7.7-90-2c0.7-8.7,2.1-17,4-25c-0.8,4.8,1,7.8,5.5,9
		c10.9-2.9,22.1-4.2,33.5-4c15,1.1,30,2.1,45,3C456.3,460.5,456.7,447.5,457.5,434.5z"/>
</g>
<g>
	<path class="st81" d="M39.5,478.5c0.2,1.7,0.8,3,2,4c0.1,1.5-0.6,2.5-2,3c-2-1-3.3-2.6-4-5C36.6,479.3,37.9,478.6,39.5,478.5z"/>
</g>
<g>
	<path class="st47" d="M459.5,427.5c0,22.3,0,44.7,0,67c-11.3-2-22.6-3.8-34-5.5c-15.8-1-31.4-0.5-47,1.5c-4,0.5-8,1.2-12,2
		c1.5-11.8,2.8-23.5,4-35c0.7,2.7,1.3,5.3,2,8c-1.9,8-3.3,16.3-4,25c30.1-5.7,60.1-5.1,90,2c0.3-19.5,0-38.8-1-58
		C457,431.6,457.7,429.3,459.5,427.5z"/>
</g>
<g>
	<path class="st82" d="M67.5,481.5c-0.2,2.1-0.7,4.1-1.5,6c-4.2,4.5-9.4,7.1-15.5,8c-0.8,1.2-1.8,2.2-3,3c-1-0.2-1.7,0.2-2,1
		c-2.6-1.1-4.6-2.7-6-5c-2.1-1.5-3.4-3.5-4-6c1.2-1.2,2.6-2.2,4-3c1.4-0.5,2.1-1.5,2-3c0.7,0.4,1.2,1.1,1.5,2c1.1-2.2,2.4-4.2,4-6
		c0.3,0.3,0.7,0.7,1,1c5.4-3.5,10.7-6.8,16-10c1.7,0.8,2.5,2.1,2.5,4c-3.3,0.9-6.6,1.9-10,3c-2.6,2.6-5.4,4.9-8.5,7
		c-0.5,0.9-0.6,1.9-0.5,3c1.8,0.3,3.5,0,5-1c1.7-2.5,4-4,7-4.5c1.6-1.7,3.1-3.6,4.5-5.5C65.4,477.4,66.6,479.4,67.5,481.5z"/>
</g>
<g>
	<path class="st83" d="M41.5,486.5c2.4-0.3,4.1,0.7,5,3c-2.5,2.8-4.5,2.5-6-1C40.9,487.8,41.2,487.1,41.5,486.5z"/>
</g>
<g>
	<path class="st35" d="M434.5,528.5c-5.8-0.7-11.1,0.3-16,3c-0.7,0-1,0.3-1,1c-3.4-0.6-5.4,0.7-6,4c1.6,4.3,3.1,8.6,4.5,13
		c1.4,2.4,3.4,4,6,5c0.2,2.2,0.7,4.2,1.5,6c0,1.7,0,3.3,0,5c0,3.7,0,7.3,0,11c-3.4,0.3-6.7,0-10-1c-2.4-9-3.4-18.2-3-27.5
		c0.1-9.2,1.1-18,3-26.5c1.3-2.4,1.3-4.9,0-7.5c-4.4-2.4-9-3.6-14-3.5c0-4.7,0-9.3,0-14c-0.2-2,0.1-3.8,1-5.5
		c10.1-0.5,20.1,0,30,1.5C431,504.6,432.3,516.6,434.5,528.5z"/>
</g>
<g>
	<path class="st84" d="M460.5,411.5c-0.3,28.7,0.1,57.3,1,86c-9.3-1.9-18.6-3.5-28-5c-0.2,11.4,1.2,22.8,4,34c-1,0.3-1.7,1-2,2
		c-0.3,0-0.7,0-1,0c-2.2-11.9-3.5-23.9-4-36c-9.9-1.5-19.9-2-30-1.5c-0.9,1.7-1.2,3.5-1,5.5c-1.3,5.2-1.3,10.6,0,16c0,2.3,0,4.7,0,7
		c2.1-0.3,4.1,0,6,1c-2.6,1-5.3,1.3-8,1c-0.2-10.4,0.1-20.7,1-31c-6.7,0.1-13.3,0.4-20,1c0-0.3,0-0.7,0-1c15.6-2,31.2-2.5,47-1.5
		c11.4,1.7,22.7,3.5,34,5.5c0-22.3,0-44.7,0-67C459.2,422,459.5,416.6,460.5,411.5z"/>
</g>
<g>
	<path class="st85" d="M369.5,377.5c1,26.5,1.3,53.2,1,80c-1.2,11.5-2.5,23.2-4,35c4-0.8,8-1.5,12-2c0,0.3,0,0.7,0,1
		c-2.3,0.5-4.3,1.5-6,3c-0.7-0.3-1.3-0.7-2-1c-1.3-0.2-2.3,0.1-3,1c-1.6-0.2-3.1,0.1-4.5,1c2.7-10.4,4.4-21.1,5-32
		C368.2,434.8,368.7,406.2,369.5,377.5z"/>
</g>
<g>
	<path class="st86" d="M48.5,491.5c1.8,0.1,2.2,0.8,1,2c-1.4,1.1-2.7,1.1-4,0C46.6,492.8,47.6,492.2,48.5,491.5z"/>
</g>
<g>
	<path class="st87" d="M393.5,520.5c-1.7,0-3.3,0-5,0c2.4-11.6-2.3-17.6-14-18c0-3,0-6,0-9c7.3-0.4,14.7-0.8,22-1
		c-1.2,8.7-1.2,17.4,0,26C395.4,519.2,394.4,519.8,393.5,520.5z"/>
</g>
<g>
	<path class="st67" d="M316.5,438.5c0.3,0,0.7,0,1,0c2,1.2,3.5,2.8,4.5,5c0.5,4,0.7,8,0.5,12c-1.5,4-3.4,8-5.5,12
		c-11.7,15-24.5,29-38.5,42c-0.1-1.1,0-2.1,0.5-3c8.5-7,15.4-15.4,20.5-25c1.2,1.3,2.5,1.3,4,0c7.2-6.8,12.7-14.8,16.5-24
		c0.7-4.3,0.7-8.7,0-13C319.4,442.1,318.3,440.1,316.5,438.5z"/>
</g>
<g>
	<path class="st88" d="M397.5,521.5c-1,0-2,0-3,0c0-0.7-0.3-1-1-1c0.9-0.7,1.9-1.3,3-2c-1.2-8.6-1.2-17.3,0-26
		c-7.3,0.2-14.7,0.6-22,1c0,3,0,6,0,9c-0.9,1.1-1.3,2.4-1,4c-1-3.8-1.3-7.8-1-12c1.7-1.5,3.7-2.5,6-3c6.7-0.6,13.3-0.9,20-1
		C397.6,500.8,397.3,511.1,397.5,521.5z"/>
</g>
<g>
	<path class="st89" d="M513.5,307.5c1,0,2,0,3,0c2.8,7,4.2,14.4,4,22c-0.7,10.5-2.4,20.8-5,31c-2.7,6.4-5,13.1-7,20
		c-8.8,23.9-17.3,47.9-25.5,72c-2.3,12.8-5.2,25.4-8.5,38c-1.7,12.3-3.1,24.6-4,37c-1,3.8-1.3,7.8-1,12c1.6-0.3,2.9,0.1,4,1
		c-2,0-4,0-6,0c0-0.3,0-0.7,0-1c0.8-33.1,6.3-65.5,16.5-97c10.3-28,19.7-56.3,28-85c3.7-13.2,4.8-26.5,3.5-40
		C515.1,314.1,514.5,310.8,513.5,307.5z"/>
</g>
<g>
	<path class="st90" d="M370.5,493.5c0.7,0.3,1.3,0.7,2,1c-0.3,4.2,0,8.2,1,12c0.3,5,0.6,10,1,15c6.7,0,13.3,0,20,0
		c-4.2,1.9-8.9,2.6-14,2c-8.4,0.2-16.7-0.4-25-2c-2,0.3-4,0.7-6,1c1.3,2.2,2.1,4.5,2.5,7c1.1,1.1,2.3,2.1,3.5,3
		c1.1,0.8,2.4,1.3,4,1.5c-1.3,0.5-2.6,0.7-4,0.5c0,2.7,0,5.3,0,8c-1-2.8-1.8-5.8-2.5-9c-1.5-0.7-2.7-1.7-3.5-3
		c-1.5-5.3-2.9-10.6-4-16c1.7,1.7,3.7,3,6,4c6.4,1.6,13.1,2.6,20,3c0.6-4.5-0.1-8.5-2-12c0-0.3,0-0.7,0-1
		C370.5,503.7,370.8,498.7,370.5,493.5z"/>
</g>
<g>
	<path class="st91" d="M242.5,532.5c-3.3,1.3-6.6,1.3-10,0c-4.8-7.2-9.8-14.2-15-21c-0.7-2.3-1.1-4.6-1-7c2.3,0,4.7,0,7,0
		c1.6,4.5,3.8,8.9,6.5,13c4,4,8,8,12,12C242.5,530.4,242.6,531.4,242.5,532.5z"/>
</g>
<g>
	<path class="st88" d="M374.5,502.5c11.7,0.4,16.4,6.4,14,18c1.7,0,3.3,0,5,0c0.7,0,1,0.3,1,1c-6.7,0-13.3,0-20,0
		c-0.4-5-0.7-10-1-15C373.2,504.9,373.6,503.6,374.5,502.5z"/>
</g>
<g>
	<path class="st92" d="M369.5,508.5c0,0.3,0,0.7,0,1c-6.2,1-12.2,2.4-18,4c0,1.7,0,3.3,0,5c-2.3-1-4.3-2.3-6-4
		c2.5-2.3,5.5-3.8,9-4.5C359.5,509.4,364.5,508.9,369.5,508.5z"/>
</g>
<g>
	<path class="st92" d="M399.5,496.5c0,4.7,0,9.3,0,14c5-0.1,9.6,1.1,14,3.5c1.3,2.6,1.3,5.1,0,7.5c-1.4-1.7-3.4-2.5-6-2.5
		c1.7-1.4,2.4-3.2,2-5.5c-2.7-0.3-5.3-0.7-8-1c0.1,1.1,0,2.1-0.5,3c-0.2-1.2-0.7-2.2-1.5-3C398.2,507.1,398.2,501.7,399.5,496.5z"/>
</g>
<g>
	<path class="st92" d="M369.5,509.5c1.9,3.5,2.6,7.5,2,12c-6.9-0.4-13.6-1.4-20-3c0-1.7,0-3.3,0-5
		C357.3,511.9,363.3,510.5,369.5,509.5z"/>
</g>
<g>
	<path class="st82" d="M40.5,492.9c1.4,2.3,3.4,3.9,6,5c0,0.3,0,0.7,0,1c-1.4-0.2-2.7,0-4,0.5c-5.7,6.4-11.4,12.7-17,19
		c-0.9,2.6-2.3,4.9-4,7c0.3,0.3-2,0.7-1.6,1c-2.1-0.7-1.4-1-3.4-1c0.5-3.7,1.8-7.1,4-10c-0.3-0.5-0.7-1-1-1.5
		c-1.3,0.8-2.5,1.8-3.5,3c-0.3-2.5,0.4-4.8,2-7C25,503.4,32.5,497.7,40.5,492.9z"/>
</g>
<g>
	<path class="st93" d="M434.5,528.5c0.3,0,0.7,0,1,0c0.5,4.3,2.2,8.2,5,11.5c-1.3,0.5-2.6,0.7-4,0.5c-0.9-2.9-1.6-5.9-2-9
		c-5.3,0-10.7,0-16,0C423.4,528.8,428.7,527.8,434.5,528.5z"/>
</g>
<g>
	<path class="st94" d="M437.5,526.5c1.2,4.7,3.2,9,6,13c4.3,1,8.6,1.3,13,1c2.3,0,4.7,0,7,0c-6.6,2-13.6,2.6-21,2
		c-8.4,0.1-16.7-0.5-25-2c-0.8,8.2,2.8,12.2,11,12c0.1,0.6,0.4,1.1,1,1.5c8.7,0.5,17.3,0.7,26,0.5c4-0.2,8,0,12,0.5
		c-14.7,2.1-29.4,2-44-0.5c0,2,0,4,0,6c-0.8-1.8-1.3-3.8-1.5-6c-2.6-1-4.6-2.6-6-5c-1.4-4.4-2.9-8.7-4.5-13c0.6-3.3,2.6-4.6,6-4
		c-2.6,1.7-2.6,3.6,0,5.5c6.2,1.5,12.6,2.4,19,2.5c1.4,0.2,2.7,0,4-0.5c-2.8-3.3-4.5-7.2-5-11.5
		C435.8,527.5,436.5,526.8,437.5,526.5z"/>
</g>
<g>
	<path class="st95" d="M380.5,523.5c0.9,2.8,2.9,4.1,6,4c0,2.3,0,4.7,0,7c-10.4,0.2-20.7-0.4-31-2c-1.2-0.9-2.4-1.9-3.5-3
		c-0.4-2.5-1.2-4.8-2.5-7c2-0.3,4-0.7,6-1C363.8,523.1,372.1,523.7,380.5,523.5z"/>
</g>
<g>
	<path class="st93" d="M418.5,531.5c5.3,0,10.7,0,16,0c0.4,3.1,1.1,6.1,2,9c-6.4-0.1-12.8-1-19-2.5c-2.6-1.9-2.6-3.8,0-5.5
		C417.5,531.8,417.8,531.5,418.5,531.5z"/>
</g>
<g>
	<path class="st93" d="M470.5,528.5c4.8-0.1,9.5,0.7,14,2.5c1.4,0.4,2.4,1.2,3,2.5c-5.1,3.4-10.8,5-17,5
		C470.5,535.2,470.5,531.8,470.5,528.5z"/>
</g>
<g>
	<path class="st96" d="M470.5,527.5c0,0.3,0,0.7,0,1c0,3.3,0,6.7,0,10c6.2,0,11.9-1.6,17-5c0.3,5.5,0,10.9-1,16c-1-3.8-1.3-7.8-1-12
		c-4,1-8,2-12,3c-1.1-0.9-2.4-1.3-4-1C469.2,535.3,469.5,531.3,470.5,527.5z"/>
</g>
<g>
	<path class="st92" d="M399.5,512.5c0.8,0.8,1.3,1.8,1.5,3c0.5-0.9,0.6-1.9,0.5-3c2.7,0.3,5.3,0.7,8,1c0.4,2.3-0.3,4.1-2,5.5
		c2.6,0,4.6,0.8,6,2.5c-1.6,2.9-2.6,6.2-3,10c-2.5,1.4-5.1,2.2-8,2.5c2.3,0.5,4.6,0.7,7,0.5c0,10.3,0,20.7,0,31
		c-0.7,1.2-1.8,1.9-3.5,2c-4.3-0.6-4.4-1.2-0.5-2c-0.2-6.7,0.1-13.4,1-20c-0.6-5.3-3.6-7.6-9-7c-8.6,1.2-17.3,2.2-26,3
		c-1.5,1.3-2.2,3-2,5c-4-0.7-8-1.3-12-2c0.2,3.3,0,6.7-0.5,10c-0.3,0.9-0.8,1.6-1.5,2c0-0.7,0-1.3,0-2c0-4,0-8,0-12c0-2.7,0-5.3,0-8
		c1.4,0.2,2.7,0,4-0.5c-1.6-0.2-2.9-0.7-4-1.5c10.3,1.6,20.6,2.2,31,2c0-2.3,0-4.7,0-7c-3.1,0.1-5.1-1.2-6-4c5.1,0.6,9.8-0.1,14-2
		c1,0,2,0,3,0c2.7,0.3,5.4,0,8-1c-1.9-1-3.9-1.3-6-1C399.5,517.2,399.5,514.8,399.5,512.5z"/>
</g>
<g>
	<path class="st93" d="M486.5,549.5c-1.4,0.7-2.4,1.9-3,3.5c1.4,4.1,2.4,8.3,3,12.5c-1.9-4.6-3.4-9.6-4.5-15c-0.4,0.5-0.9,0.8-1.5,1
		c-10.8-2.1-21.5-4.4-32-7c-2,0-4,0-6,0c0-0.7,0-1.3,0-2c7.4,0.6,14.4,0,21-2c1.3,0,2.7,0,4,0c2,0,4,0,6,0c4-1,8-2,12-3
		C485.2,541.7,485.5,545.7,486.5,549.5z"/>
</g>
<g>
	<path class="st93" d="M442.5,542.5c0,0.7,0,1.3,0,2c-5-1.2-10-1.2-15,0c-2-0.7-4-1.3-6-2c-0.7,0.3-1.3,0.7-2,1c1.5,1.3,2.2,3,2,5
		c2.9,0.6,5.2,1.9,7,4c-8.2,0.2-11.8-3.8-11-12C425.8,542,434.1,542.6,442.5,542.5z"/>
</g>
<g>
	<path class="st97" d="M369.5,546.5c7.1-0.3,14.1,0.3,21,2c0.5,11.3-0.8,22.3-4,33c-10.2,3.2-20.5,5.9-31,8c-5,1.3-10,1.3-15,0
		c-5.6-1.8-11.3-3.5-17-5c-0.6,0.2-1.1,0.5-1.5,1c0.2-5.9-2-10.6-6.5-14c0-1.3,0-2.7,0-4c3,0,6,0,9,0c2.9,1.7,6.3,2.8,10,3.5
		c6.3,0.5,12.7,0.7,19,0.5c1.5-4.8,2.2-9.8,2-15c0.7-0.4,1.2-1.1,1.5-2c0.5-3.3,0.7-6.7,0.5-10C361.5,545.2,365.5,545.8,369.5,546.5
		z"/>
</g>
<g>
	<path class="st98" d="M442.5,544.5c2,0,4,0,6,0c1.9,1.6,3.9,3.3,6,5c0.8,1.6,1.1,3.2,1,5c-8.7,0.2-17.3,0-26-0.5
		c-0.6-0.4-0.9-0.9-1-1.5c-1.8-2.1-4.1-3.4-7-4c0.2-2-0.5-3.7-2-5c0.7-0.3,1.3-0.7,2-1c2,0.7,4,1.3,6,2
		C432.5,543.3,437.5,543.3,442.5,544.5z"/>
</g>
<g>
	<path class="st92" d="M390.5,548.5c1.3,3.4,2,7.3,2,11.5c-0.5,6.5-1.1,13-2,19.5c-0.7,1.7-2,2.3-4,2
		C389.7,570.8,391,559.8,390.5,548.5z"/>
</g>
<g>
	<path class="st99" d="M413.5,521.5c-1.9,8.5-2.9,17.3-3,26.5c-0.4,9.3,0.6,18.5,3,27.5c3.3,1,6.6,1.3,10,1c0-3.7,0-7.3,0-11
		c1,3.1,1.3,6.5,1,10c2.7,0,5.3,0,8,0c7.4,2.8,15.1,5.2,23,7.5c2.6,0.5,5.3,0.7,8,0.5c0,1,0,2,0,3c0.6,0.7,1.3,1.3,2,2
		c-0.3,0.3-0.7,0.7-1,1c-7.1-3.2-14.4-5.9-22-8c-5.7-0.3-11.4-0.9-17-2c-0.1-0.6-0.4-1.1-1-1.5c-4.3-0.5-8.7-0.7-13-0.5
		c0-4.2-0.7-8.2-2-12c0-10.3,0-20.7,0-31c-2.4,0.2-4.7,0-7-0.5c2.9-0.3,5.5-1.1,8-2.5C410.9,527.7,411.9,524.4,413.5,521.5z"/>
</g>
<g>
	<path class="st90" d="M315.5,565.5c3.3-0.1,6.3,0.6,9,2c-3,0-6,0-9,0c0,1.3,0,2.7,0,4c-0.9-0.8-1.6-1.8-2-3
		C313.3,566.8,314,565.8,315.5,565.5z"/>
</g>
<g>
	<path class="st92" d="M409.5,565.5c1.3,3.8,2,7.8,2,12c4.3-0.2,8.7,0,13,0.5c0.6,0.4,0.9,0.9,1,1.5c-6-0.5-12-0.8-18-1c0,1,0,2,0,3
		c-1.5-0.6-2.8-1.4-4-2.5c0.7-0.3,1.3-0.7,2-1c-1.3-0.2-2.7-0.3-4-0.5c-3.7,0.7-7.3,1.3-11,2c0.9-6.5,1.5-13,2-19.5
		c0-4.2-0.7-8.1-2-11.5c-6.9-1.7-13.9-2.3-21-2c-0.2-2,0.5-3.7,2-5c8.7-0.8,17.4-1.8,26-3c5.4-0.6,8.4,1.7,9,7
		c-0.9,6.6-1.2,13.3-1,20c-3.9,0.8-3.8,1.4,0.5,2C407.7,567.4,408.8,566.7,409.5,565.5z"/>
</g>
<g>
	<path class="st100" d="M355.5,554.5c0,0.7,0,1.3,0,2c0.2,5.2-0.5,10.2-2,15c-6.3,0.2-12.7,0-19-0.5c-3.7-0.7-7.1-1.8-10-3.5
		c5.6,0.8,11.3,1.4,17,2c3.1,0,6.1-0.5,9-1.5c1.2-0.9,2-2.1,2.5-3.5C353.5,561,354.4,557.6,355.5,554.5z"/>
</g>
<g>
	<path class="st101" d="M473.5,569.5c3,8.1,0.4,11.3-8,9.5c-1.7-1.4-2.4-3.2-2-5.5c-1.5-0.3-2.8,0.1-4,1c0.8,1.6,1.1,3.2,1,5
		c-3.5,0.3-6.8-0.2-10-1.5c3.9-0.9,3.9-2.1,0-3.5c-2.6-1-5.3-1.3-8-1c-3.3,0-6.7,0-10,0c-2.3,0-4.7,0-7,0c0-4,0-8,0-12
		c4.2,1.9,8.5,3.6,13,5C450.5,566.8,462.2,567.8,473.5,569.5z"/>
</g>
<g>
	<path class="st102" d="M488.5,573.5c2.4,5.5,4.4,11.1,6,17c0,0.7,0,1.3,0,2c-1.9-4.2-3.7-8.5-5.5-13
		C488.5,577.5,488.3,575.5,488.5,573.5z"/>
</g>
<g>
	<path class="st93" d="M473.5,569.5c0.9-0.1,1.5,0.2,2,1c1.2,2.4,2.2,4.7,3,7c0,2.7,0,5.3,0,8c-3.5-0.8-6.9-2.1-10-4
		c-0.6,2.9-2.2,4.5-5,5c0-1,0-2,0-3c-2.7,0.2-5.4,0-8-0.5c-7.9-2.2-15.6-4.8-23-7.5c3.8,0.6,7.2-0.1,10-2c2.7-0.3,5.4,0,8,1
		c3.9,1.4,3.9,2.6,0,3.5c3.2,1.3,6.5,1.8,10,1.5c0.1-1.8-0.2-3.4-1-5c1.2-0.9,2.5-1.3,4-1c-0.4,2.3,0.3,4.1,2,5.5
		C473.9,580.8,476.5,577.6,473.5,569.5z"/>
</g>
<g>
	<path class="st103" d="M313.5,568.5c0.4,1.2,1.1,2.2,2,3c2.2,4.1,3.5,8.4,4,13c0.2,7.2-0.8,14.2-3,21c-1.2,0.3-2.3,0.7-3.5,1
		c-4.5-1.1-9-2.1-13.5-3c1.3-8.1,5.3-14.6,12-19.5c-6.9,3.4-11.5,8.9-14,16.5c-4.6,1.5-6.1-0.1-4.5-5c3.6-7.7,8.8-14.2,15.5-19.5
		c-4.1,1.3-7.6,3.8-10.5,7.5c-3.9,4.4-6.7,9.4-8.5,15c-1.4-0.7-2.1-1.8-2-3.5c1.9-8.5,6.2-15.5,13-21c-7.3,4-12.1,10.1-14.5,18.5
		c-1-9.5,2.5-17,10.5-22.5c3.6-2.2,7.4-3.7,11.5-4.5C310.4,565.7,312.2,566.7,313.5,568.5z"/>
</g>
<g>
	<path class="st93" d="M478.5,577.5c1,3.1,1.3,6.5,1,10c-3.9-0.5-6.2,1.1-7,5c-0.8,0.9-1.8,1.6-3,2c-2-1.3-4-2.7-6-4
		c-1.4,0.7-2.7,1.4-4,2c-0.2-1.2-0.9-2.2-2-3c-4-2.7-8.3-4.3-13-5c-1.1-0.8-1.8-1.8-2-3c7.6,2.1,14.9,4.8,22,8c0.3-0.3,0.7-0.7,1-1
		c-0.7-0.7-1.4-1.3-2-2c2.8-0.5,4.4-2.1,5-5c3.1,1.9,6.5,3.2,10,4C478.5,582.8,478.5,580.2,478.5,577.5z"/>
</g>
<g>
	<path class="st104" d="M407.5,581.5c7.3,3.1,13.6,7.5,19,13c0,0.7,0,1.3,0,2c-8.2-6.9-17.2-12.6-27-17c-7.8,1.6-13.9,5.6-18.5,12
		c-1,1.5-1.5,3.2-1.5,5c-1.5-1.2-2.8-1.2-4,0c-1.3,0-2.7,0-4,0c1.9-1.6,4.2-2.6,7-3c2-4.6,4.6-8.6,8-12c2,0.3,3.3-0.3,4-2
		c3.7-0.7,7.3-1.3,11-2c1.3,0.2,2.7,0.3,4,0.5c-0.7,0.3-1.3,0.7-2,1C404.7,580.1,406,580.9,407.5,581.5z"/>
</g>
<g>
	<path class="st105" d="M425.5,579.5c5.6,1.1,11.3,1.7,17,2c0.2,1.2,0.9,2.2,2,3c4.7,0.7,9,2.3,13,5c1.1,0.8,1.8,1.8,2,3
		c-11.1-0.5-22.1,0.2-33,2c-5.4-5.5-11.7-9.9-19-13c0-1,0-2,0-3C413.5,578.7,419.5,579,425.5,579.5z"/>
</g>
<g>
	<path class="st106" d="M315.5,571.5c4.5,3.4,6.7,8.1,6.5,14c0.4-0.5,0.9-0.8,1.5-1c5.7,1.5,11.4,3.2,17,5c5,1.3,10,1.3,15,0
		c10.5-2.1,20.8-4.8,31-8c-3.4,3.4-6,7.4-8,12c-2.8,0.4-5.1,1.4-7,3c-11.3,3.4-22.9,4.8-35,4c-5.3,0-10.7,0-16,0
		c0.3-5.5,0-10.9-1-16C319,579.9,317.7,575.6,315.5,571.5z"/>
</g>
<g>
	<path class="st107" d="M426.5,596.5c1.4,3.4,2.7,6.7,4,10c-0.3,6.4-0.9,12.7-2,19c-10,0.2-20-0.1-30-1c-0.2-3.3,0-6.7,0.5-10
		c1.2-4.5,2.5-8.8,4-13c-5,6.5-6.8,13.8-5.5,22c-1.8,0.1-3.4-0.2-5-1c-1.2-5.3-1.3-10.6-0.5-16c1.7-4.8,3.4-9.4,5-14
		c-6.4,8.6-9.2,18.3-8.5,29c-1.2-0.5-2.4-1.2-3.5-2c-1.2-9.6,0.6-18.6,5.5-27c-0.3-1.2-0.8-1.2-1.5,0c-5.5,7.9-7.5,16.6-6,26
		c-1.8-1.7-3.2-3.7-4-6c-0.7-5.4-0.5-10.7,0.5-16c0-1.8,0.5-3.5,1.5-5c4.6-6.4,10.7-10.4,18.5-12
		C409.3,583.9,418.3,589.6,426.5,596.5z"/>
</g>
<g>
	<path class="st93" d="M448.5,544.5c10.5,2.6,21.2,4.9,32,7c0.6-0.2,1.1-0.5,1.5-1c1.1,5.4,2.6,10.4,4.5,15c0.7,2.7,1.3,5.3,2,8
		c-0.2,2,0,4,0.5,6c1.8,4.5,3.6,8.8,5.5,13c0,3,0,6,0,9c0.2,1.7-0.5,2.7-2,3c-1.8,0.9-3.2,2.2-4,4c-5.6,1.2-11.2,2.1-17,2.5
		c-7.7,2.6-15.3,4.8-23,6.5c-5.3,0-10.7,0-16,0c0.2-3,0-6-0.5-9c-0.3-0.9-0.8-1.6-1.5-2c-1.3-3.3-2.6-6.6-4-10c0-0.7,0-1.3,0-2
		c10.9-1.8,21.9-2.5,33-2c1.3-0.6,2.6-1.3,4-2c2,1.3,4,2.7,6,4c1.2-0.4,2.2-1.1,3-2c0.8-3.9,3.1-5.5,7-5c0.3-3.5,0-6.9-1-10
		c-0.8-2.3-1.8-4.6-3-7c-0.5-0.8-1.1-1.1-2-1c-11.3-1.7-23-2.7-35-3c-4.5-1.4-8.8-3.1-13-5c0,4,0,8,0,12c2.3,0,4.7,0,7,0
		c0,0.7,0,1.3,0,2c-2.7,0-5.3,0-8,0c0.3-3.5,0-6.9-1-10c0-1.7,0-3.3,0-5c0-2,0-4,0-6c14.6,2.5,29.3,2.6,44,0.5c-4-0.5-8-0.7-12-0.5
		c0.1-1.8-0.2-3.4-1-5C452.4,547.8,450.4,546.1,448.5,544.5z"/>
</g>
<g>
	<path class="st108" d="M432.5,573.5c3.3,0,6.7,0,10,0c-2.8,1.9-6.2,2.6-10,2C432.5,574.8,432.5,574.2,432.5,573.5z"/>
</g>
<g>
	<path class="st109" d="M315.5,565.5c-1.5,0.3-2.2,1.3-2,3c-1.3-1.8-3.1-2.8-5.5-3c-4.1,0.8-7.9,2.3-11.5,4.5
		c-8,5.5-11.5,13-10.5,22.5c2.4-8.4,7.2-14.5,14.5-18.5c-6.8,5.5-11.1,12.5-13,21c-0.1,1.7,0.6,2.8,2,3.5c1.8-5.6,4.6-10.6,8.5-15
		c2.9-3.7,6.4-6.2,10.5-7.5c-6.7,5.3-11.9,11.8-15.5,19.5c-1.6,4.9-0.1,6.5,4.5,5c2.5-7.6,7.1-13.1,14-16.5
		c-6.7,4.9-10.7,11.4-12,19.5c4.5,0.9,9,1.9,13.5,3c1.2-0.3,2.3-0.7,3.5-1c2.2-6.8,3.2-13.8,3-21c1,5.1,1.3,10.5,1,16
		c5.3,0,10.7,0,16,0c-5.5,1-11.1,1.3-17,1c-0.3,2-0.7,4-1,6c19.7,2.3,39,0.6,58-5c-0.1-1.8,0.2-3.4,1-5c-0.5-0.8-1.1-1.1-2-1
		c1.2-1.2,2.5-1.2,4,0c-1,5.3-1.2,10.6-0.5,16c0.8,2.3,2.2,4.3,4,6c-1.5-9.4,0.5-18.1,6-26c0.7-1.2,1.2-1.2,1.5,0
		c-4.9,8.4-6.7,17.4-5.5,27c1.1,0.8,2.3,1.5,3.5,2c-0.7-10.7,2.1-20.4,8.5-29c-1.6,4.6-3.3,9.2-5,14c-0.8,5.4-0.7,10.7,0.5,16
		c1.6,0.8,3.2,1.1,5,1c-1.3-8.2,0.5-15.5,5.5-22c-1.5,4.2-2.8,8.5-4,13c-0.5,3.3-0.7,6.7-0.5,10c10,0.9,20,1.2,30,1
		c1.1-6.3,1.7-12.6,2-19c0.7,0.4,1.2,1.1,1.5,2c0.5,3,0.7,6,0.5,9c5.3,0,10.7,0,16,0c-5.5,1-11.1,1.3-17,1c0,2,0,4,0,6
		c20.8-3.1,41.4-6.6,62-10.5c4.1-4.6,5-9.8,2.5-15.5c-0.2,1.2-0.7,2.2-1.5,3c0-3,0-6,0-9c0-0.7,0-1.3,0-2c4.3,6,5.8,12.6,4.5,20
		c-1.8,4.8-5.3,7.7-10.5,8.5c-20.3,2.5-40.7,5.2-61,8c-13.5,1.2-26.8,0.2-40-3c-8.5-3.8-12.1-10.3-11-19.5c-29.7,8.8-59,8-88-2.5
		c-5.9-5.4-7.4-11.9-4.5-19.5c3.4-8.4,9.3-14.6,17.5-18.5c3.7-0.7,7.3-0.7,11,0C313.7,564.2,314.7,564.7,315.5,565.5z"/>
</g>
<g>
	<path class="st93" d="M492.5,604.5c-0.3,2.3-1.7,3.7-4,4C489.3,606.7,490.7,605.4,492.5,604.5z"/>
</g>
<g>
	<path class="st110" d="M371.5,596.5c1.3,0,2.7,0,4,0c0.9-0.1,1.5,0.2,2,1c-0.8,1.6-1.1,3.2-1,5c-19,5.6-38.3,7.3-58,5
		c0.3-2,0.7-4,1-6c5.9,0.3,11.5,0,17-1C348.6,601.3,360.2,599.9,371.5,596.5z"/>
</g>
<g>
	<path class="st111" d="M488.5,608.5c-10.4,2.2-20.7,5-31,8.5c-3,0.5-6,0.7-9,0.5c7.7-1.7,15.3-3.9,23-6.5
		C477.3,610.6,482.9,609.7,488.5,608.5z"/>
</g>
<g>
	<path class="st112" d="M448.5,617.5c3,0.2,6,0,9-0.5c10.3-3.5,20.6-6.3,31-8.5c2.3-0.3,3.7-1.7,4-4c1.5-0.3,2.2-1.3,2-3
		c0.8-0.8,1.3-1.8,1.5-3c2.5,5.7,1.6,10.9-2.5,15.5c-20.6,3.9-41.2,7.4-62,10.5c0-2,0-4,0-6C437.4,618.8,443,618.5,448.5,617.5z"/>
</g>
<path class="st22" d="M371.6,132.9"/>
</svg>
