<?xml version="1.0" encoding="utf-8"?>
<!-- Generator: Adobe Illustrator 27.9.0, SVG Export Plug-In . SVG Version: 6.00 Build 0)  -->
<svg version="1.1" id="Layer_1" xmlns="http://www.w3.org/2000/svg" xmlns:xlink="http://www.w3.org/1999/xlink" x="0px" y="0px"
	 viewBox="0 0 502 618" style="enable-background:new 0 0 502 618;" xml:space="preserve">
<style type="text/css">
	.st0{fill-rule:evenodd;clip-rule:evenodd;fill:#FEFEFE;}
	.st1{fill-rule:evenodd;clip-rule:evenodd;fill:#1F6C47;}
	.st2{fill-rule:evenodd;clip-rule:evenodd;fill:#45433B;}
	.st3{fill-rule:evenodd;clip-rule:evenodd;fill:#25422D;}
	.st4{fill-rule:evenodd;clip-rule:evenodd;fill:#16583A;}
	.st5{fill-rule:evenodd;clip-rule:evenodd;fill:#2A4732;}
	.st6{fill-rule:evenodd;clip-rule:evenodd;fill:#233529;}
	.st7{fill-rule:evenodd;clip-rule:evenodd;fill:#F6F6F5;}
	.st8{fill-rule:evenodd;clip-rule:evenodd;fill:#0B7C46;}
	.st9{fill-rule:evenodd;clip-rule:evenodd;fill:#174332;}
	.st10{fill-rule:evenodd;clip-rule:evenodd;fill:#2F543A;}
	.st11{fill-rule:evenodd;clip-rule:evenodd;fill:#283625;}
	.st12{fill-rule:evenodd;clip-rule:evenodd;fill:#243622;}
	.st13{fill-rule:evenodd;clip-rule:evenodd;fill:#176F47;}
	.st14{fill-rule:evenodd;clip-rule:evenodd;fill:#3E5140;}
	.st15{fill-rule:evenodd;clip-rule:evenodd;fill:#2C6040;}
	.st16{fill-rule:evenodd;clip-rule:evenodd;fill:#30513B;}
	.st17{fill-rule:evenodd;clip-rule:evenodd;fill:#254930;}
	.st18{fill-rule:evenodd;clip-rule:evenodd;fill:#0C7B45;}
	.st19{fill-rule:evenodd;clip-rule:evenodd;fill:#11563B;}
	.st20{fill-rule:evenodd;clip-rule:evenodd;fill:#385840;}
	.st21{fill-rule:evenodd;clip-rule:evenodd;fill:#2E5840;}
	.st22{fill-rule:evenodd;clip-rule:evenodd;fill:#0B9851;}
	.st23{fill-rule:evenodd;clip-rule:evenodd;fill:#039542;}
	.st24{fill-rule:evenodd;clip-rule:evenodd;fill:#193727;}
	.st25{fill-rule:evenodd;clip-rule:evenodd;fill:#144520;}
	.st26{fill-rule:evenodd;clip-rule:evenodd;fill:#01583F;}
	.st27{fill-rule:evenodd;clip-rule:evenodd;fill:#104625;}
	.st28{fill-rule:evenodd;clip-rule:evenodd;fill:#124A37;}
	.st29{fill-rule:evenodd;clip-rule:evenodd;fill:#146A47;}
	.st30{fill-rule:evenodd;clip-rule:evenodd;fill:#08351B;}
	.st31{fill-rule:evenodd;clip-rule:evenodd;fill:#221F18;}
	.st32{fill-rule:evenodd;clip-rule:evenodd;fill:#495A4B;}
	.st33{fill-rule:evenodd;clip-rule:evenodd;fill:#2A573F;}
	.st34{fill-rule:evenodd;clip-rule:evenodd;fill:#097543;}
	.st35{fill-rule:evenodd;clip-rule:evenodd;fill:#265139;}
	.st36{fill-rule:evenodd;clip-rule:evenodd;fill:#1A3021;}
	.st37{fill-rule:evenodd;clip-rule:evenodd;fill:#2E5E3E;}
	.st38{fill-rule:evenodd;clip-rule:evenodd;fill:#214131;}
	.st39{fill-rule:evenodd;clip-rule:evenodd;fill:#1F7145;}
	.st40{fill-rule:evenodd;clip-rule:evenodd;fill:#4B4940;}
	.st41{fill-rule:evenodd;clip-rule:evenodd;fill:#F4F4F4;}
	.st42{fill-rule:evenodd;clip-rule:evenodd;fill:#224E33;}
	.st43{fill-rule:evenodd;clip-rule:evenodd;fill:#06593D;}
	.st44{fill-rule:evenodd;clip-rule:evenodd;fill:#143516;}
	.st45{fill-rule:evenodd;clip-rule:evenodd;fill:#19341B;}
	.st46{fill-rule:evenodd;clip-rule:evenodd;fill:#3A533C;}
	.st47{fill-rule:evenodd;clip-rule:evenodd;fill:#2D2926;}
	.st48{fill-rule:evenodd;clip-rule:evenodd;fill:#33543E;}
	.st49{fill-rule:evenodd;clip-rule:evenodd;fill:#1F3326;}
	.st50{fill-rule:evenodd;clip-rule:evenodd;fill:#47AF7A;}
	.st51{fill-rule:evenodd;clip-rule:evenodd;fill:#496051;}
	.st52{fill-rule:evenodd;clip-rule:evenodd;fill:#23573B;}
	.st53{fill-rule:evenodd;clip-rule:evenodd;fill:#67AE8E;}
	.st54{fill-rule:evenodd;clip-rule:evenodd;fill:#304232;}
	.st55{fill-rule:evenodd;clip-rule:evenodd;fill:#193423;}
	.st56{fill-rule:evenodd;clip-rule:evenodd;fill:#DEE9E3;}
	.st57{fill-rule:evenodd;clip-rule:evenodd;fill:#9DD3B6;}
	.st58{fill-rule:evenodd;clip-rule:evenodd;fill:#215E33;}
	.st59{fill-rule:evenodd;clip-rule:evenodd;fill:#1B3222;}
	.st60{fill-rule:evenodd;clip-rule:evenodd;fill:#43AE7E;}
	.st61{fill-rule:evenodd;clip-rule:evenodd;fill:#197C51;}
	.st62{fill-rule:evenodd;clip-rule:evenodd;fill:#18402C;}
	.st63{fill-rule:evenodd;clip-rule:evenodd;fill:#26A861;}
	.st64{fill-rule:evenodd;clip-rule:evenodd;fill:#12884C;}
	.st65{fill-rule:evenodd;clip-rule:evenodd;fill:#0C4D38;}
	.st66{fill-rule:evenodd;clip-rule:evenodd;fill:#1E6E3B;}
	.st67{fill-rule:evenodd;clip-rule:evenodd;fill:#70B89C;}
	.st68{fill-rule:evenodd;clip-rule:evenodd;fill:#164030;}
	.st69{fill-rule:evenodd;clip-rule:evenodd;fill:#1E362C;}
	.st70{fill-rule:evenodd;clip-rule:evenodd;fill:#18834C;}
	.st71{fill-rule:evenodd;clip-rule:evenodd;fill:#0A9244;}
	.st72{fill-rule:evenodd;clip-rule:evenodd;fill:#42382D;}
	.st73{fill-rule:evenodd;clip-rule:evenodd;fill:#086C3C;}
	.st74{fill-rule:evenodd;clip-rule:evenodd;fill:#182216;}
	.st75{fill-rule:evenodd;clip-rule:evenodd;fill:#029542;}
	.st76{fill-rule:evenodd;clip-rule:evenodd;fill:#145E32;}
	.st77{fill-rule:evenodd;clip-rule:evenodd;fill:#123D1B;}
	.st78{fill-rule:evenodd;clip-rule:evenodd;fill:#1A3C2E;}
	.st79{fill-rule:evenodd;clip-rule:evenodd;fill:#173522;}
	.st80{fill-rule:evenodd;clip-rule:evenodd;fill:#107F47;}
	.st81{fill-rule:evenodd;clip-rule:evenodd;fill:#133E2D;}
	.st82{fill-rule:evenodd;clip-rule:evenodd;fill:#1C6549;}
	.st83{fill-rule:evenodd;clip-rule:evenodd;fill:#6EC693;}
	.st84{fill-rule:evenodd;clip-rule:evenodd;fill:#364F37;}
	.st85{fill-rule:evenodd;clip-rule:evenodd;fill:#103715;}
	.st86{fill-rule:evenodd;clip-rule:evenodd;fill:#1D5C2D;}
	.st87{fill-rule:evenodd;clip-rule:evenodd;fill:#183623;}
	.st88{fill-rule:evenodd;clip-rule:evenodd;fill:#06603A;}
	.st89{fill-rule:evenodd;clip-rule:evenodd;fill:#035D3F;}
	.st90{fill-rule:evenodd;clip-rule:evenodd;fill:#146C43;}
	.st91{fill-rule:evenodd;clip-rule:evenodd;fill:#127D3E;}
	.st92{fill-rule:evenodd;clip-rule:evenodd;fill:#1B251A;}
	.st93{fill-rule:evenodd;clip-rule:evenodd;fill:#18523B;}
	.st94{fill-rule:evenodd;clip-rule:evenodd;fill:#0B4A34;}
	.st95{fill-rule:evenodd;clip-rule:evenodd;fill:#0C6943;}
	.st96{fill-rule:evenodd;clip-rule:evenodd;fill:#192215;}
	.st97{fill-rule:evenodd;clip-rule:evenodd;fill:#80C396;}
	.st98{fill-rule:evenodd;clip-rule:evenodd;fill:#143A1F;}
	.st99{fill-rule:evenodd;clip-rule:evenodd;fill:#434C3D;}
	.st100{fill-rule:evenodd;clip-rule:evenodd;fill:#096944;}
	.st101{fill-rule:evenodd;clip-rule:evenodd;fill:#0A5038;}
	.st102{fill-rule:evenodd;clip-rule:evenodd;fill:#19271F;}
	.st103{fill-rule:evenodd;clip-rule:evenodd;fill:#045637;}
	.st104{fill-rule:evenodd;clip-rule:evenodd;fill:#D8ECDC;}
	.st105{fill-rule:evenodd;clip-rule:evenodd;fill:#747A6E;}
	.st106{fill-rule:evenodd;clip-rule:evenodd;fill:#0F4130;}
	.st107{fill-rule:evenodd;clip-rule:evenodd;fill:#0E3521;}
	.st108{fill-rule:evenodd;clip-rule:evenodd;fill:#CBE9E1;}
	.st109{fill-rule:evenodd;clip-rule:evenodd;fill:#094F3A;}
	.st110{fill-rule:evenodd;clip-rule:evenodd;fill:#132C21;}
	.st111{fill-rule:evenodd;clip-rule:evenodd;fill:#016742;}
	.st112{fill-rule:evenodd;clip-rule:evenodd;fill:#2A4F31;}
	.st113{fill-rule:evenodd;clip-rule:evenodd;fill:#9B999A;}
	.st114{fill-rule:evenodd;clip-rule:evenodd;fill:#02553D;}
	.st115{fill-rule:evenodd;clip-rule:evenodd;fill:#1A7D40;}
	.st116{fill-rule:evenodd;clip-rule:evenodd;fill:#006040;}
	.st117{fill-rule:evenodd;clip-rule:evenodd;fill:#095834;}
	.st118{fill-rule:evenodd;clip-rule:evenodd;fill:#1D1A15;}
	.st119{fill-rule:evenodd;clip-rule:evenodd;fill:#118043;}
	.st120{fill-rule:evenodd;clip-rule:evenodd;fill:#1C2922;}
	.st121{fill-rule:evenodd;clip-rule:evenodd;fill:#08572F;}
	.st122{fill-rule:evenodd;clip-rule:evenodd;fill:#0D9E5F;}
	.st123{fill-rule:evenodd;clip-rule:evenodd;fill:#8EC0AC;}
	.st124{fill-rule:evenodd;clip-rule:evenodd;fill:#2F3631;}
	.st125{fill-rule:evenodd;clip-rule:evenodd;fill:#8EC2B2;}
	.st126{fill-rule:evenodd;clip-rule:evenodd;fill:#6DBB9E;}
	.st127{fill-rule:evenodd;clip-rule:evenodd;fill:#43B087;}
	.st128{fill-rule:evenodd;clip-rule:evenodd;fill:#76CDA8;}
	.st129{fill-rule:evenodd;clip-rule:evenodd;fill:#252B28;}
	.st130{fill-rule:evenodd;clip-rule:evenodd;fill:#8EC6B5;}
	.st131{fill-rule:evenodd;clip-rule:evenodd;fill:#9EC3BA;}
	.st132{fill-rule:evenodd;clip-rule:evenodd;fill:#F6FAFA;}
	.st133{fill-rule:evenodd;clip-rule:evenodd;fill:#8E8D8C;}
	.st134{fill-rule:evenodd;clip-rule:evenodd;fill:#72CBA4;}
	.st135{fill-rule:evenodd;clip-rule:evenodd;fill:#144937;}
	.st136{fill-rule:evenodd;clip-rule:evenodd;fill:#F5F9F8;}
	.st137{fill-rule:evenodd;clip-rule:evenodd;fill:#ECF9F8;}
	.st138{fill-rule:evenodd;clip-rule:evenodd;fill:#B4D1CA;}
	.st139{fill-rule:evenodd;clip-rule:evenodd;fill:#B5D6CF;}
	.st140{fill-rule:evenodd;clip-rule:evenodd;fill:#164937;}
	.st141{fill-rule:evenodd;clip-rule:evenodd;fill:#154A38;}
	.st142{fill-rule:evenodd;clip-rule:evenodd;fill:#D1E3DE;}
	.st143{fill-rule:evenodd;clip-rule:evenodd;fill:#F6F9F9;}
	.st144{fill-rule:evenodd;clip-rule:evenodd;fill:#748981;}
	.st145{fill-rule:evenodd;clip-rule:evenodd;fill:#124B38;}
	.st146{fill-rule:evenodd;clip-rule:evenodd;fill:#232A25;}
	.st147{fill-rule:evenodd;clip-rule:evenodd;fill:#92888F;}
	.st148{fill-rule:evenodd;clip-rule:evenodd;fill:#134A36;}
	.st149{fill-rule:evenodd;clip-rule:evenodd;fill:#7AA295;}
	.st150{fill-rule:evenodd;clip-rule:evenodd;fill:#02583E;}
	.st151{fill-rule:evenodd;clip-rule:evenodd;fill:#0E8D48;}
	.st152{fill-rule:evenodd;clip-rule:evenodd;fill:#19593E;}
	.st153{fill-rule:evenodd;clip-rule:evenodd;fill:#C7DFD9;}
	.st154{fill-rule:evenodd;clip-rule:evenodd;fill:#A8C0B5;}
	.st155{fill-rule:evenodd;clip-rule:evenodd;fill:#5DAC7E;}
	.st156{fill-rule:evenodd;clip-rule:evenodd;fill:#427F61;}
	.st157{fill-rule:evenodd;clip-rule:evenodd;fill:#85A799;}
	.st158{fill-rule:evenodd;clip-rule:evenodd;fill:#5A9C79;}
	.st159{fill-rule:evenodd;clip-rule:evenodd;fill:#154935;}
	.st160{fill-rule:evenodd;clip-rule:evenodd;fill:#08503A;}
	.st161{fill-rule:evenodd;clip-rule:evenodd;fill:#26634B;}
	.st162{fill-rule:evenodd;clip-rule:evenodd;fill:#1A503D;}
	.st163{fill-rule:evenodd;clip-rule:evenodd;fill:#A2D6B7;}
	.st164{fill-rule:evenodd;clip-rule:evenodd;fill:#6A8679;}
	.st165{fill-rule:evenodd;clip-rule:evenodd;fill:#117846;}
	.st166{fill-rule:evenodd;clip-rule:evenodd;fill:#E5F2EB;}
	.st167{fill-rule:evenodd;clip-rule:evenodd;fill:#6E9F88;}
	.st168{fill-rule:evenodd;clip-rule:evenodd;fill:#203830;}
	.st169{fill-rule:evenodd;clip-rule:evenodd;fill:#152A1F;}
	.st170{fill-rule:evenodd;clip-rule:evenodd;fill:#34342E;}
	.st171{fill-rule:evenodd;clip-rule:evenodd;fill:#1E573E;}
	.st172{fill-rule:evenodd;clip-rule:evenodd;fill:#6CB190;}
	.st173{fill-rule:evenodd;clip-rule:evenodd;fill:#1C372A;}
	.st174{fill-rule:evenodd;clip-rule:evenodd;fill:#184637;}
	.st175{fill-rule:evenodd;clip-rule:evenodd;fill:#4B8F74;}
	.st176{fill-rule:evenodd;clip-rule:evenodd;fill:#39735C;}
	.st177{fill-rule:evenodd;clip-rule:evenodd;fill:#2D3831;}
</style>
<g>
	<path class="st0" d="M-0.5-0.5c167.3,0,334.7,0,502,0c0,206,0,412,0,618c-167.3,0-334.7,0-502,0C-0.5,411.5-0.5,205.5-0.5-0.5z"/>
</g>
<g>
	<path class="st1" d="M181.5,54.5c-0.6-4.9-2.9-8.6-7-11c-0.7-1.5-2.1-2.4-4-2.5c1-0.2,2-0.3,3-0.5c5.5,2.5,8.8,6.8,10,13
		C183,54.3,182.4,54.6,181.5,54.5z"/>
</g>
<g>
	<path class="st2" d="M248.5,52.5c-9.7,0-19.3,0-29,0C229.2,49.9,238.8,49.9,248.5,52.5z"/>
</g>
<g>
	<path class="st3" d="M248.5,52.5c3.6-0.2,7,0.5,10,2C254.8,54.8,251.5,54.2,248.5,52.5z"/>
</g>
<g>
	<path class="st4" d="M174.5,43.5c1.6,3.3,3.3,6.6,5,10c-0.2,0.3-0.3,0.7-0.5,1c-1.6-1.4-2.8-3-3.5-5c-0.8,1.9-1.3,3.9-1.5,6
		c-2.4,0.6-4.6,1.6-6.5,3c-2.9,1.3-5.9,2.3-9,3c0,1.3,0,2.7,0,4c-3.5,1.9-7.1,3.6-11,5c-3.4,0.6-5.4-0.7-6-4c2.6-0.6,5.3-1.2,8-2
		c-1-0.7-2-1.3-3-2c0.5-0.3,1-0.7,1.5-1c4.4-0.5,8.9-1.4,13.5-2.5c3.6-2.1,7.2-3.9,11-5.5c1.5-3.4,0.5-5.7-3-7
		c-3.9,2.8-8.3,4.8-13,6c4.3-2.3,7.9-5.3,11-9C169.8,42.5,172.1,42.5,174.5,43.5z"/>
</g>
<g>
	<path class="st5" d="M258.5,54.5c4.6,1.1,9,2.8,13,5C266.5,59.2,262.2,57.5,258.5,54.5z"/>
</g>
<g>
	<path class="st6" d="M219.5,52.5c-8,3.1-16,6.6-24,10.5c-15.7,10-31.7,19.2-48,27.5c-1.5-1.4-2.3-3.1-2.5-5c1.6,1.5,3.4,2,5.5,1.5
		c-0.3-0.3-0.7-0.7-1-1c2.5-0.3,4.8-1,7-2c-1.3-0.4-1.9-1.3-2-2.5c1.9,1,3.9,1.2,6,0.5c5.1-3.3,10.2-6.5,15.5-9.5
		c-1.8-4.2-3.6-8.5-5.5-13c-8.1,5.1-16.2,10.1-24.5,15c-0.7,1-0.7,2,0,3c1.8,1.5,3.6,2.8,5.5,4c-5.8-0.1-8.2-3.1-7-9
		c1.7,0.2,2.7-0.5,3-2c3.9-1.4,7.5-3.1,11-5c0-1.3,0-2.7,0-4c3.1-0.7,6.1-1.7,9-3c1.4,0.1,2.8-0.3,4-1c2.2,3.1,3.9,6.4,5,10
		c3.9,1.4,7.6,0.9,11-1.5c-1.6-1.1-2.9-2.4-4-4c0.8-0.3,1.5-0.8,2-1.5c-1.9-1.7-3.2-3.7-4-6c0.9,0.1,1.5-0.2,2-1
		c-1.2-6.2-4.5-10.5-10-13c-1,0.2-2,0.3-3,0.5c1.9,0.1,3.3,1,4,2.5c-2.4-1-4.7-1-7,0c2.1-4.7,5.8-6.9,11-6.5c5,7,10,14,15,21
		c2.7,0.7,5.3,0.7,8,0C207.1,54.9,213.1,53.1,219.5,52.5z"/>
</g>
<g>
	<path class="st7" d="M154.5,81.5c-1,0-2,0-3,0c-1.9-1.2-3.7-2.5-5.5-4c-0.7-1-0.7-2,0-3c8.2-4.9,16.4-9.9,24.5-15
		c1.9,4.5,3.7,8.8,5.5,13c-5.2,3-10.4,6.2-15.5,9.5C158.4,82.7,156.4,82.5,154.5,81.5z"/>
</g>
<g>
	<path class="st8" d="M141.5,66.5c-1.3-1.7-1-3.2,1-4.5c5.3-2.5,10-5.6,14-9.5c4.7-1.2,9.1-3.2,13-6c3.5,1.3,4.5,3.6,3,7
		c-3.8,1.6-7.4,3.4-11,5.5c-4.6,1.1-9.1,2-13.5,2.5c-0.5,0.3-1,0.7-1.5,1c1,0.7,2,1.3,3,2C146.8,65.3,144.1,65.9,141.5,66.5z"/>
</g>
<g>
	<path class="st9" d="M174.5,43.5c4.1,2.4,6.4,6.1,7,11c0.8,2.3,2.1,4.3,4,6c-0.5,0.7-1.2,1.2-2,1.5c1.1,1.6,2.4,2.9,4,4
		c-3.4,2.4-7.1,2.9-11,1.5c-1.1-3.6-2.8-6.9-5-10c-1.2,0.7-2.6,1.1-4,1c1.9-1.4,4.1-2.4,6.5-3c0.2-2.1,0.7-4.1,1.5-6
		c0.7,2,1.9,3.6,3.5,5c0.2-0.3,0.3-0.7,0.5-1C177.8,50.1,176.1,46.8,174.5,43.5z"/>
</g>
<g>
	<path class="st10" d="M271.5,59.5c1.7-0.2,3.4,0,5,0.5c9.1,3.9,18.5,7.2,28,10c3.1,1.4,6.1,2.9,9,4.5
		C299.1,70.4,285.1,65.4,271.5,59.5z"/>
</g>
<g>
	<path class="st11" d="M136.5,63.5c-1.8-0.3-3.5,0-5,1c4.2,1.2,6.5,3.8,7,8c-1.7-1.6-3.6-3.3-5.5-5c-2.2,0.6-4.4,1.3-6.5,2
		C127.8,63.5,131.1,61.5,136.5,63.5z"/>
</g>
<g>
	<path class="st12" d="M123.5,72.5c-0.5,1.4-1.5,2.1-3,2C121,73.1,122,72.4,123.5,72.5z"/>
</g>
<g>
	<path class="st13" d="M136.5,63.5c3.1,3.8,5.4,8.2,7,13c-0.2,0.7-0.3,1.3-0.5,2c-1.2-2.4-2.7-4.4-4.5-6c-0.5-4.2-2.8-6.8-7-8
		C133,63.5,134.7,63.2,136.5,63.5z"/>
</g>
<g>
	<path class="st14" d="M120.5,74.5c-1.2,1.7-2.9,3-5,4c-1.2,0.9-2.5,1.3-4,1C114,77.1,117,75.4,120.5,74.5z"/>
</g>
<g>
	<path class="st15" d="M313.5,74.5c4.9,1.3,9.5,3,14,5c-2,0.2-4,0-6-0.5C318.4,78.1,315.8,76.6,313.5,74.5z"/>
</g>
<g>
	<path class="st16" d="M327.5,79.5c2.1-0.1,3.7,0.6,5,2C330.2,81.9,328.6,81.3,327.5,79.5z"/>
</g>
<g>
	<path class="st17" d="M332.5,81.5c2.7,0.2,5.1,1.2,7,3C336.8,84.3,334.4,83.3,332.5,81.5z"/>
</g>
<g>
	<path class="st18" d="M99.5,94.5c-1.1-1.3-2.5-2.5-4-3.5c4.4-3.2,8.7-6.4,13-9.5c0.5-1.4,1.5-2.1,3-2c1.5,0.3,2.8-0.1,4-1
		c2.1-1,3.8-2.3,5-4c1.5,0.1,2.5-0.6,3-2c2.5-0.5,4.8-1.5,7-3c1.5,0.9,2.5,2.3,3,4c-4,3.1-8.3,5.1-13,6c0,1.3,0,2.7,0,4
		c-1.7,0-3.3,0-5,0c0,1,0,2,0,3c-1.3,0-2.7,0-4,0c0,1.3,0,2.7,0,4c-1.3,0-2.7,0-4,0c0.2,1.3-0.2,2.5-1,3.5
		C104.2,94.5,101.9,94.7,99.5,94.5z"/>
</g>
<g>
	<path class="st19" d="M138.5,72.5c3.1,7.9,2.3,8.6-2.5,2c-2,2.8-3.5,5.8-4.5,9c-5.9,2.6-11.6,5.6-17,9c-4.7,1.2-9,3.2-13,6
		c-1.6-0.8-2.3-2.2-2-4c2.4,0.2,4.7,0,7-0.5c0.8-1,1.2-2.2,1-3.5c1.3,0,2.7,0,4,0c0-1.3,0-2.7,0-4c1.3,0,2.7,0,4,0c0-1,0-2,0-3
		c1.7,0,3.3,0,5,0c0-1.3,0-2.7,0-4c4.7-0.9,9-2.9,13-6c-0.5-1.7-1.5-3.1-3-4c-2.2,1.5-4.5,2.5-7,3c0.7-1.3,1.7-2.3,3-3
		c2.1-0.7,4.3-1.4,6.5-2C134.9,69.2,136.8,70.9,138.5,72.5z"/>
</g>
<g>
	<path class="st20" d="M339.5,84.5c6,1.2,11.7,3.2,17,6c-4.3-1.1-8.7-2.2-13-3.5C341.9,86.4,340.6,85.6,339.5,84.5z"/>
</g>
<g>
	<path class="st21" d="M356.5,90.5c4.3,1.2,8.3,2.8,12,5C363.7,95.6,359.7,93.9,356.5,90.5z"/>
</g>
<g>
	<path class="st22" d="M219.5,52.5c9.7,0,19.3,0,29,0c3,1.7,6.3,2.3,10,2c3.7,3,8,4.7,13,5c13.6,5.9,27.6,10.9,42,15
		c2.3,2.1,4.9,3.6,8,4.5c2,0.5,4,0.7,6,0.5c1.1,1.8,2.7,2.4,5,2c1.9,1.8,4.3,2.8,7,3c1.1,1.1,2.4,1.9,4,2.5c4.3,1.3,8.7,2.4,13,3.5
		c3.2,3.4,7.2,5.1,12,5c1.6,1.6,3.6,2.2,6,2c1.1,1.8,2.7,2.4,5,2c1.2,1.6,2.9,2.8,5,3.5c1.3,0.5,2.6,0.7,4,0.5c2.5,2.4,5.5,3.4,9,3
		c1.1,1.8,2.7,2.4,5,2c0.1,1.1,0.8,1.8,2,2c2.3,1,4.6,1.6,7,2c0.7,0,1.3,0,2,0c4.5,3.8,9.8,6.2,16,7c8.6,4.5,17.6,8.2,27,11
		c1.3,0.3,2.7,0.7,4,1c0.3,2-0.3,3.3-2,4c-16.2,9.6-31.8,19.9-47,31c-32.3,20.6-63.9,42-95,64c-10.3,6-19.9,12.6-29,20c-3,0-6,0-9,0
		c-67.3-28.5-134.6-56.6-202-84.5c-8.2-3.7-12.5-9.8-13-18.5c0.3-1.3,0.7-2.7,1-4c3.8-4.1,8.1-7.4,13-10c8.9-4.6,17.3-10,25-16
		c5.5-2.2,10.5-5.2,15-9c6.1-2.9,12.1-6.1,18-9.5c4.3-2.6,8.3-5.5,12-8.5c16.3-8.3,32.3-17.5,48-27.5
		C203.5,59.1,211.5,55.6,219.5,52.5z"/>
</g>
<g>
	<path class="st23" d="M287.5,81.5c5.6,1.4,10.9,3.4,16,6c-4,0.9-8,0.9-12,0c-1.6,0.1-2.9,0.8-4,2c2.3,0.7,4.7,1.3,7,2
		c-2.4,0.6-4.6,1.6-6.5,3c-0.2,19.5-0.3,39-0.5,58.5c0,19.9,0.7,39.6,2,59c-2.5,1.7-4.5,3.9-6,6.5c-3.6-1-4-2.6-1-5
		c-1.5-1-2.8-2.1-4-3.5c1.3-39,2.7-78,4-117c-3.4-3.4-4.7-7.6-4-12.5C281.5,81,284.5,81.3,287.5,81.5z"/>
</g>
<g>
	<path class="st23" d="M303.5,87.5c2.6,0.8,5.3,1.1,8,1c1.1,1.7,2.8,2.4,5,2c28.7,11.9,57.4,24,86,36.5c5.5,2.4,8.5,6.5,9,12.5
		c-16.9,14.6-34.2,28.2-52,41c-10.8,6.6-21.4,13.4-32,20.5c-11.9,6.1-23.9,12-36,17.5c-2.7,0-5.3,0-8,0c1.5-2.6,3.5-4.8,6-6.5
		c-1.3-19.4-2-39.1-2-59c0.2-19.5,0.3-39,0.5-58.5c1.9-1.4,4.1-2.4,6.5-3c-2.3-0.7-4.7-1.3-7-2c1.1-1.2,2.4-1.9,4-2
		C295.5,88.4,299.5,88.4,303.5,87.5z"/>
</g>
<g>
	<path class="st24" d="M217.5,63.5c6.5,1.5,13.2,2.5,20,3c-7,0.8-14,1.3-21,1.5c-9.9,5.1-19.9,9.9-30,14.5c-0.9,0.8-1.2,1.8-1,3
		c-1.5-0.3-2.8,0.1-4,1c0.5,0.7,1.2,1.2,2,1.5c-4.3-1.1-8.3-0.3-12,2.5c-4.4,3.1-9.1,5.7-14,8c-0.8,1.2-1.3,2.6-1.5,4
		c-0.7-0.6-1.6-0.9-2.5-1c-3.1,1.5-6.1,3.1-9,5c-2.3,2.2-3.6,4.9-4,8c-6.9,1.9-13.5,4.2-20,7c0-1.3,0-2.7,0-4
		c28-19.2,57.4-36.4,88-51.5C211.4,64.6,214.4,63.8,217.5,63.5z"/>
</g>
<g>
	<path class="st23" d="M273.5,71.5c1-0.2,1.7,0.2,2,1c5.1,2.7,10.4,4.9,16,6.5c10.6,3.5,21.3,6.6,32,9.5c27.8,11.7,55.8,23.7,84,36
		c5,2,7.7,5.7,8,11c-0.7,0-1.3,0-2,0c0.1-1.1,0-2.1-0.5-3c-2.6-2.7-5.4-5-8.5-7c-15.8-6.7-31.5-13.5-47-20.5
		c-13.5-5.4-27.1-10.2-41-14.5c-2.2,0.4-3.9-0.3-5-2c-7.1-3.1-14.5-5.9-22-8.5c-1.3-0.7-2.7-0.7-4,0c0.9,0.3,1.6,0.8,2,1.5
		c-3-0.2-6-0.5-9-1c-0.7,4.9,0.6,9.1,4,12.5c-1.3,39-2.7,78-4,117c1.2,1.4,2.5,2.5,4,3.5c-3,2.4-2.6,4,1,5c2.7,0,5.3,0,8,0
		c-3.9,2.6-8.2,4.3-13,5c-1.7,0-3.3,0-5,0c-0.5-4.6,0.2-8.9,2-13c-0.3-0.8-0.8-1.5-1.5-2c-0.2-19-0.3-38-0.5-57
		c0.1-20.9,0.7-41.7,2-62.5c0.1-3-0.5-5.9-2-8.5c2.2-1,4.6-1.3,7-1c1.4,0.2,2.7,0,4-0.5c-5-1.8-10-3.6-15-5.5
		C270.9,72.8,272.3,72.2,273.5,71.5z"/>
</g>
<g>
	<path class="st25" d="M311.5,88.5c-2.7,0.1-5.4-0.2-8-1c-5.1-2.6-10.4-4.6-16-6c-0.4-0.7-1.1-1.2-2-1.5c1.3-0.7,2.7-0.7,4,0
		C297,82.6,304.4,85.4,311.5,88.5z"/>
</g>
<g>
	<path class="st23" d="M269.5,76.5c3.9,0.4,7.6,1.4,11,3c-2.4-0.3-4.8,0-7,1c1.5,2.6,2.1,5.5,2,8.5c-1.3,20.8-1.9,41.6-2,62.5
		c0.2,19,0.3,38,0.5,57c0.7,0.5,1.2,1.2,1.5,2c-1.8,4.1-2.5,8.4-2,13c-2.3,0-4.7,0-7,0c0.1-2.4-0.9-4.2-3-5.5c1.3-2.7,2.7-5.3,4-8
		c-1.2-44.1-1.3-88.3-0.5-132.5C267.7,76.7,268.5,76.4,269.5,76.5z"/>
</g>
<g>
	<path class="st26" d="M252.5,71.5c-3.9,2.2-3.6,4,1,5.5c-1.3,22-2,44.1-2,66.5c0,22.4,0.7,44.5,2,66.5c-0.8,0.3-1.5,0.8-2,1.5
		c2.7,1.5,5,3.1,7,5c-2.7,0.5-5.4,1.4-8,2.5c1.2,0.2,2.2,0.7,3,1.5c-4.9-1.1-9.6-2.8-14-5c2-1.7,4.3-2.8,7-3.5
		c-1.2-0.5-2-1.3-2.5-2.5c-1.2,1.9-2.7,2.3-4.5,1c0.7-46.3,1.4-92.6,2-139c-1.1,0.1-2.1,0-3-0.5c1-1.5,2.5-2.4,4.5-2.5
		C246.4,69.1,249.6,70.1,252.5,71.5z"/>
</g>
<g>
	<path class="st27" d="M275.5,72.5c16.5,4,32.5,9.3,48,16c-10.7-2.9-21.4-6-32-9.5C285.9,77.4,280.6,75.2,275.5,72.5z"/>
</g>
<g>
	<path class="st23" d="M262.5,74.5c2.7-0.1,5,0.6,7,2c-1-0.1-1.8,0.2-2.5,1c-0.8,44.2-0.7,88.4,0.5,132.5c-1.3,2.7-2.7,5.3-4,8
		c2.1,1.3,3.1,3.1,3,5.5c2.3,0,4.7,0,7,0c1.7,0,3.3,0,5,0c-6.6,1.4-13.3,1.1-20-1c-1.4-1-3.1-1.7-5-2c-0.8-0.8-1.8-1.3-3-1.5
		c2.6-1.1,5.3-2,8-2.5c1.4-2.1,3.1-4.1,5-6c-0.3-0.8-0.8-1.5-1.5-2c-0.8-43-0.7-86,0.5-129c-2.5-1-2.5-1.9,0-2.5
		c-2.8,1.1-5.8,1.8-9,2C256.1,76.6,259.1,75.1,262.5,74.5z"/>
</g>
<g>
	<path class="st23" d="M252.5,71.5c3.7,0.3,7,1.3,10,3c-3.4,0.6-6.4,2.1-9,4.5c3.2-0.2,6.2-0.9,9-2c-2.5,0.6-2.5,1.5,0,2.5
		c-1.2,43-1.3,86-0.5,129c0.7,0.5,1.2,1.2,1.5,2c-1.9,1.9-3.6,3.9-5,6c-2-1.9-4.3-3.5-7-5c0.5-0.7,1.2-1.2,2-1.5
		c-1.3-22-2-44.1-2-66.5c0-22.4,0.7-44.5,2-66.5C248.9,75.5,248.6,73.7,252.5,71.5z"/>
</g>
<g>
	<path class="st28" d="M223.5,61.5c-0.4,0.7-1.1,1.2-2,1.5c0.2,0.4,0.6,0.6,1,0.5c6.3,0.8,12.8,1.4,19.5,2c1.4-0.2,2.2-0.9,2.5-2
		c9.9,2.2,19.6,4.9,29,8c-1.2,0.7-2.6,1.3-4,2c5,1.9,10,3.7,15,5.5c-1.3,0.5-2.6,0.7-4,0.5c-3.4-1.6-7.1-2.6-11-3
		c-2-1.4-4.3-2.1-7-2c-3-1.7-6.3-2.7-10-3c-2.9-1.4-6.1-2.4-9.5-3c-2,0.1-3.5,1-4.5,2.5c0.9,0.5,1.9,0.6,3,0.5
		c-0.6,46.4-1.3,92.7-2,139c1.8,1.3,3.3,0.9,4.5-1c0.5,1.2,1.3,2,2.5,2.5c-2.7,0.7-5,1.8-7,3.5c-1.8-0.3-3.5-0.9-5-2
		c1.1-1.6,1.6-3.2,1.5-5c-3.1-0.1-6.2,0.3-9.5,1c1.2,0.8,2.6,1.3,4,1.5c-1,0.2-2,0.3-3,0.5c-5-1.5-10-2.8-15-4
		c-7.3-3.7-15-6.8-23-9.5c-11.1-4.6-22.4-9.3-34-14c-7.8-3-15.1-6.9-22-11.5c-1.9-1-3.9-1.3-6-1c0-1.3,0-2.7,0-4
		c-2.7,0.2-5.4,0-8-0.5c-7-3.5-13.3-6.6-19-9.5c0.2-1.4,0-2.7-0.5-4c-0.4,0.9-1.1,1.6-2,2c-1.4-0.9-2.9-1.6-4.5-2
		c-0.3-4.3,0.5-8.3,2.5-12c7.6-6.5,15.4-12.7,23.5-18.5c-1.2-0.8-2.6-1.3-4-1.5c1.4-1.7,3-3,5-4c0,1.3,0,2.7,0,4
		c6.5-2.8,13.1-5.1,20-7c0.4-3.1,1.7-5.8,4-8c2.9-1.9,5.9-3.5,9-5c0.9,0.1,1.8,0.4,2.5,1c0.2-1.4,0.7-2.8,1.5-4
		c4.9-2.3,9.6-4.9,14-8c3.7-2.8,7.7-3.6,12-2.5c-0.8-0.3-1.5-0.8-2-1.5c1.2-0.9,2.5-1.3,4-1c-0.2-1.2,0.1-2.2,1-3
		c10.1-4.6,20.1-9.4,30-14.5c7-0.2,14-0.7,21-1.5c-6.8-0.5-13.5-1.5-20-3C219.1,61.9,221.1,61.3,223.5,61.5z"/>
</g>
<g>
	<path class="st29" d="M239.5,61.5c2.3-0.4,3.9,0.2,5,2c-0.3,1.1-1.1,1.8-2.5,2c-6.7-0.6-13.2-1.2-19.5-2c2.7,0,5.3,0,8,0
		c4,0.2,8,0,12-0.5C241.3,62.8,240.3,62.3,239.5,61.5z"/>
</g>
<g>
	<path class="st30" d="M230.5,61.5c3,0,6,0,9,0c0.8,0.8,1.8,1.3,3,1.5c-4,0.5-8,0.7-12,0.5C230.5,62.8,230.5,62.2,230.5,61.5z"/>
</g>
<g>
	<path class="st31" d="M223.5,61.5c2.3,0,4.7,0,7,0c0,0.7,0,1.3,0,2c-2.7,0-5.3,0-8,0c-0.4,0.1-0.8-0.1-1-0.5
		C222.4,62.7,223.1,62.2,223.5,61.5z"/>
</g>
<g>
	<path class="st32" d="M368.5,95.5c2.4-0.2,4.4,0.4,6,2C372.1,97.7,370.1,97.1,368.5,95.5z"/>
</g>
<g>
	<path class="st33" d="M374.5,97.5c2.1-0.1,3.7,0.6,5,2C377.2,99.9,375.6,99.3,374.5,97.5z"/>
</g>
<g>
	<path class="st34" d="M81.5,108.5c-3.1-0.3-6.1,0-9,1c-3.6,4-7.9,6.6-13,8c-0.4-1.3-1.1-2.4-2-3.5c3.5-4.1,7.9-7.1,13-9
		c1.2-1,2.2-2.2,3-3.5c4.1-1,7.7-2.8,11-5.5c3.5-0.6,5.5,0.9,6,4.5c-0.3,0.7-0.7,1.3-1,2C86.3,104,83.6,106,81.5,108.5z"/>
</g>
<g>
	<path class="st35" d="M379.5,99.5c3.4,0.6,6.4,1.9,9,4c-1.4,0.2-2.7,0-4-0.5C382.4,102.3,380.7,101.1,379.5,99.5z"/>
</g>
<g>
	<path class="st36" d="M97.5,97.5c-0.4,4.6,1.6,7.6,6,9c4.5,1.8,9.1,2.5,14,2c-4.5,3.8-9.5,6.8-15,9c0.2-1.2,0.9-2.2,2-3
		c-3-1.3-5.3-3.3-7-6c0.2-0.7,0.3-1.3,0.5-2c0.7,1.2,1.2,1.2,1.5,0c-1.3-1.4-2.7-2.7-4-4c-0.4-3.7-2-6.7-5-9c0.5-0.3,1-0.7,1.5-1
		C93.7,94.4,95.6,96.1,97.5,97.5z"/>
</g>
<g>
	<path class="st37" d="M388.5,103.5c3.3,0.4,6.3,1.4,9,3C394,106.9,391,105.9,388.5,103.5z"/>
</g>
<g>
	<path class="st38" d="M156.5,52.5c-4,3.9-8.7,7-14,9.5c-2,1.3-2.3,2.8-1,4.5c0.6,3.3,2.6,4.6,6,4c-0.3,1.5-1.3,2.2-3,2
		c-1.2,5.9,1.2,8.9,7,9c1,0,2,0,3,0c0.1,1.2,0.7,2.1,2,2.5c-2.2,1-4.5,1.7-7,2c0.3,0.3,0.7,0.7,1,1c-2.1,0.5-3.9,0-5.5-1.5
		c0.2,1.9,1,3.6,2.5,5c-3.7,3-7.7,5.9-12,8.5c-5.9,3.4-11.9,6.6-18,9.5c-4.9,0.5-9.5-0.2-14-2c-4.4-1.4-6.4-4.4-6-9
		c-0.8-5.3-3.8-7.8-9-7.5c1.1,1.7,0.4,2.7-2,3c3.1,3.1,6.1,6.2,9,9.5c1.3,1.3,2.7,2.6,4,4c-0.3,1.2-0.8,1.2-1.5,0
		c-0.2,0.7-0.3,1.3-0.5,2c1.7,2.7,4,4.7,7,6c-1.1,0.8-1.8,1.8-2,3c-7.7,6-16.1,11.4-25,16c0-0.7,0-1.3,0-2c5.6-2.9,10.9-6.2,16-10
		c-2.2-3.4-3.9-7-5-11c-0.9-1.1-1.9-1.2-3-0.5c-5.7,3.2-11.4,6.4-17,9.5c0.2-1.2,0.9-2.2,2-3c2.7-1.3,5.3-2.7,8-4
		c1.4-1.1,2.4-2.4,3-4c2.1-2.5,4.8-4.5,8-6c0.3-0.7,0.7-1.3,1-2c-0.5-3.6-2.5-5.1-6-4.5c-3.3,2.7-6.9,4.5-11,5.5
		c2.4-2.1,5.1-3.9,8-5.5c1.8-2.8,3.8-5.5,6-8c2.4-0.7,4.6-0.2,6.5,1.5c4.6-3.1,9.5-5.7,14.5-8c-4.3,3.1-8.6,6.3-13,9.5
		c1.5,1,2.9,2.2,4,3.5c-0.3,1.8,0.4,3.2,2,4c4-2.8,8.3-4.8,13-6c-3.9,2.3-7.9,4.6-12,7c-1.1,0.9-1.2,1.9-0.5,3
		c5.9,5.6,12.4,6.4,19.5,2.5c5.3-3,10.3-6.3,15-10c-1.8-3.8-3.5-7.6-5-11.5c1-3.2,2.5-6.2,4.5-9c4.8,6.6,5.6,5.9,2.5-2
		c1.8,1.6,3.3,3.6,4.5,6c0.2-0.7,0.3-1.3,0.5-2c-1.6-4.8-3.9-9.2-7-13C143.2,59.8,149.9,56.1,156.5,52.5z"/>
</g>
<g>
	<path class="st39" d="M97.5,97.5c-1.9-1.4-3.8-3.1-5.5-5c-0.5,0.3-1,0.7-1.5,1c3,2.3,4.6,5.3,5,9c-2.9-3.3-5.9-6.4-9-9.5
		c2.4-0.3,3.1-1.3,2-3C93.7,89.7,96.7,92.2,97.5,97.5z"/>
</g>
<g>
	<path class="st7" d="M131.5,83.5c1.5,3.9,3.2,7.7,5,11.5c-4.7,3.7-9.7,7-15,10c-7.1,3.9-13.6,3.1-19.5-2.5c-0.7-1.1-0.6-2.1,0.5-3
		c4.1-2.4,8.1-4.7,12-7C119.9,89.1,125.6,86.1,131.5,83.5z"/>
</g>
<g>
	<path class="st40" d="M397.5,106.5c2.1-0.1,3.7,0.6,5,2C400.2,108.9,398.6,108.3,397.5,106.5z"/>
</g>
<g>
	<path class="st41" d="M77.5,131.5c-5.8,1-10.6-0.7-14.5-5c-0.7-1-0.7-2,0-3c2.2-1,4-2.3,5.5-4c5.6-3.1,11.3-6.3,17-9.5
		c1.1-0.7,2.1-0.6,3,0.5c1.1,4,2.8,7.6,5,11C88.4,125.3,83.1,128.6,77.5,131.5z"/>
</g>
<g>
	<path class="st42" d="M402.5,108.5c3.4,0.6,6.4,1.9,9,4c-2.4-0.4-4.7-1-7-2C403.3,110.3,402.6,109.6,402.5,108.5z"/>
</g>
<g>
	<path class="st43" d="M81.5,108.5c-0.6,1.6-1.6,2.9-3,4c-2.7,1.3-5.3,2.7-8,4c-1.1,0.8-1.8,1.8-2,3c-2.6,1.1-5.3,1.1-8,0
		c-0.3-0.7-0.7-1.3-1-2c5.1-1.4,9.4-4,13-8C75.4,108.5,78.4,108.2,81.5,108.5z"/>
</g>
<g>
	<path class="st17" d="M73.5,101.5c-0.8,1.3-1.8,2.5-3,3.5c-5.1,1.9-9.5,4.9-13,9c0.9,1.1,1.6,2.2,2,3.5c0.3,0.7,0.7,1.3,1,2
		c-0.7,2.4-0.7,4.8,0,7c-1.9-3.7-4.3-7.2-7-10.5c-1.7-0.7-2.7-0.2-3,1.5c-1.3,0-2.3-0.5-3-1.5c1.3-1,1.3-1.8,0-2.5
		c0.1-0.6,0.4-1.1,1-1.5c2.7-0.3,5.3-0.7,8-1C61.9,107.3,67.6,104.1,73.5,101.5z"/>
</g>
<g>
	<path class="st44" d="M316.5,90.5c13.9,4.3,27.5,9.1,41,14.5c15.5,7,31.2,13.8,47,20.5c3.1,2,5.9,4.3,8.5,7c0.5,0.9,0.6,1.9,0.5,3
		c0.3,1.9-0.4,3.2-2,4c-0.5-6-3.5-10.1-9-12.5C373.9,114.5,345.2,102.4,316.5,90.5z"/>
</g>
<g>
	<path class="st45" d="M323.5,88.5c15.2,4.9,30.2,10.4,45,16.5c13.5,6.2,27.1,12.2,41,18c5.3,2.5,8,6.7,8,12.5c-0.7,0-1.3,0-2,0
		c-0.3-5.3-3-9-8-11C379.3,112.2,351.3,100.2,323.5,88.5z"/>
</g>
<g>
	<path class="st46" d="M413.5,112.5c5.6,1.8,11,4.2,16,7C423.3,118.7,418,116.3,413.5,112.5z"/>
</g>
<g>
	<path class="st47" d="M47.5,113.5c1.3,0.7,1.3,1.5,0,2.5c0.7,1,1.7,1.5,3,1.5c0.1,0.9-0.2,1.5-1,2c-1.8-1.2-3.5-1.2-5,0
		c-0.7,0-1,0.3-1,1c-0.7,1.7-1.3,3.3-2,5C39.4,119.6,41.4,115.6,47.5,113.5z"/>
</g>
<g>
	<path class="st48" d="M429.5,119.5c9.5,2.7,18.5,6.4,27,11C447.1,127.7,438.1,124,429.5,119.5z"/>
</g>
<g>
	<path class="st49" d="M60.5,119.5c2.7,1.1,5.4,1.1,8,0c-1.5,1.7-3.3,3-5.5,4c-0.7,1-0.7,2,0,3c3.9,4.3,8.7,6,14.5,5
		c0,0.7,0,1.3,0,2c-4.9,2.6-9.2,5.9-13,10c0.4-4.1-0.9-7.4-4-10c-0.3,0.3-0.7,0.7-1,1c1.8,2.8,2.3,5.8,1.5,9c-4.1,5.8-6.7,12.1-8,19
		c-0.6-3.1-0.5-6.1,0.5-9c0-1.7,0-3.3,0-5c0.7-0.7,1.3-1.3,2-2c1-0.3,1.7-1,2-2c1.4-1.3,2.1-2.9,2-5c-1.5-3.9-2.3-7.9-2.5-12
		c0.7,2.4,2.2,3.6,4.5,3.5c-2.9-3.6-5.4-7.4-7.5-11.5c-0.8-1.3-2-2-3.5-2c0.3-1.7,1.3-2.2,3-1.5c2.7,3.3,5.1,6.8,7,10.5
		C59.8,124.3,59.8,121.9,60.5,119.5z"/>
</g>
<g>
	<path class="st50" d="M44.5,119.5c2.6,1,4.7,2.7,6.5,5c2.2,4.5,4.3,9,6.5,13.5c-1.4,0.6-2.8,0.4-4-0.5c-3.2-0.1-5.5-1.4-7-4
		c-2.4-4-3.4-8.3-3-13C43.5,119.8,43.8,119.5,44.5,119.5z"/>
</g>
<g>
	<path class="st51" d="M43.5,120.5c-0.4,4.7,0.6,9,3,13c-0.3,0-0.7,0-1,0c-1.8-2.4-3.2-5-4-8C42.2,123.8,42.8,122.2,43.5,120.5z"/>
</g>
<g>
	<path class="st52" d="M50.5,117.5c1.5,0,2.7,0.7,3.5,2c2.1,4.1,4.6,7.9,7.5,11.5c-2.3,0.1-3.8-1.1-4.5-3.5c0.2,4.1,1,8.1,2.5,12
		c0.1,2.1-0.6,3.7-2,5c0.1-3.4-1.6-4.7-5-4c-2.8-0.7-5.4-0.7-8,0c0-1,0-2,0-3c2.5-0.1,4.9,0.6,7,2c1-0.4,1.7-1,2-2
		c1.2,0.9,2.6,1.1,4,0.5c-2.2-4.5-4.3-9-6.5-13.5c-1.8-2.3-3.9-4-6.5-5c1.5-1.2,3.2-1.2,5,0C50.3,119,50.6,118.4,50.5,117.5z"/>
</g>
<g>
	<path class="st53" d="M52.5,140.5c3.4-0.7,5.1,0.6,5,4c-0.3,1-1,1.7-2,2c0-1.1,0.4-2.1,1-3C55.1,142.5,53.8,141.5,52.5,140.5z"/>
</g>
<g>
	<path class="st54" d="M45.5,133.5c0.3,0,0.7,0,1,0c1.5,2.6,3.8,3.9,7,4c-0.3,1-1,1.6-2,2c-2.1-1.4-4.5-2.1-7-2c0,1,0,2,0,3
		c-1,1.8-1.6,3.8-2,6c-1,1.4-1.7,3.1-2,5c-2.5,3.2-3.8,6.8-4,11c-1.2,3.7-2.6,7.4-4,11C33.8,159.1,38.2,145.8,45.5,133.5z"/>
</g>
<g>
	<path class="st55" d="M115.5,121.5c1.4,0.2,2.8,0.7,4,1.5c-8.1,5.8-15.9,12-23.5,18.5c-2,3.7-2.8,7.7-2.5,12c-0.7,0-1.3,0-2,0
		c-1.2-2.2-2.2-4.6-3-7c0.3-3.6,1.9-6.5,5-8.5C100.4,131.9,107.8,126.4,115.5,121.5z"/>
</g>
<g>
	<path class="st56" d="M52.5,140.5c1.3,1,2.6,2,4,3c-0.6,0.9-1,1.9-1,3c-0.7,0.7-1.3,1.3-2,2c-1.6,0.8-3.1,1.8-4.5,3
		c-1.5-1.2-3-1.2-4.5,0c0.6-1.9-0.1-3.6-2-5c0.4-2.2,1-4.2,2-6C47.1,139.8,49.7,139.8,52.5,140.5z"/>
</g>
<g>
	<path class="st57" d="M42.5,146.5c1.9,1.4,2.6,3.1,2,5c1.5-1.2,3-1.2,4.5,0c1.4-1.2,2.9-2.2,4.5-3c0,1.7,0,3.3,0,5
		c-1.3,0-2,0.7-2,2c-3.2,0.3-6.5,0.3-10,0c0.3-1.6-0.1-2.9-1-4C40.8,149.6,41.5,147.9,42.5,146.5z"/>
</g>
<g>
	<path class="st58" d="M88.5,146.5c0.8,2.4,1.8,4.8,3,7c-1,0.4-1.2,1.1-0.5,2c1.8,1.6,3.3,3.2,4.5,5
		C88.8,157.9,86.5,153.2,88.5,146.5z"/>
</g>
<g>
	<path class="st59" d="M413.5,135.5c0.7,0,1.3,0,2,0s1.3,0,2,0c0,0.7,0,1.3,0,2c-1.2,4.7-3.9,8.6-8,11.5c-8.9,7.7-17.9,15.2-27,22.5
		c0-1-0.5-1.7-1.5-2c-4.1,4-8.6,7.5-13.5,10.5c-2.8-0.2-5.4-0.1-8,0.5c17.8-12.8,35.1-26.4,52-41
		C413.1,138.7,413.8,137.4,413.5,135.5z"/>
</g>
<g>
	<path class="st60" d="M40.5,151.5c0.9,1.1,1.3,2.4,1,4c3.5,0.3,6.8,0.3,10,0c0.1,2.4-0.3,4.7-1,7c-3.5,0.3-6.9-0.4-10-2
		c-1.4,0.7-2.7,1.4-4,2C36.7,158.3,38,154.7,40.5,151.5z"/>
</g>
<g>
	<path class="st61" d="M460.5,151.5c-0.6,1.8-1.8,3.1-3.5,4c-8.2,4.5-16,9.5-23.5,15c-1.2,0.9-2.5,1.3-4,1c1.5-2.1,3.5-3.8,6-5
		c1-0.3,1.7-1,2-2c5.4-3.2,10.8-6.7,16-10.5C455.7,152.6,458,151.8,460.5,151.5z"/>
</g>
<g>
	<path class="st62" d="M64.5,143.5c-0.3,1.3-0.7,2.7-1,4c0,0.3,0,0.7,0,1c-0.8,3.8-1.3,7.8-1.5,12c-0.7,0.5-1.2,1.2-1.5,2
		c-0.7,0-1,0.3-1,1c-2.3,1.7-4.3,3.7-6,6c-1.3,1.5-2.5,3.2-3.5,5c0-4,0.2-8,0.5-12c0.7-2.3,1.1-4.6,1-7c0-1.3,0.7-2,2-2
		c-1,2.9-1.1,5.9-0.5,9c1.3-6.9,3.9-13.2,8-19c0.8-3.2,0.3-6.2-1.5-9c0.3-0.3,0.7-0.7,1-1C63.6,136.1,64.9,139.4,64.5,143.5z"/>
</g>
<g>
	<path class="st63" d="M60.5,162.5c1.7,0.7,2.3,2,2,4c-1,0-2,0-3,0c0-1,0-2,0-3C59.5,162.8,59.8,162.5,60.5,162.5z"/>
</g>
<g>
	<path class="st64" d="M91.5,153.5c0.7,0,1.3,0,2,0c0.2,1.2,0.9,2.2,2,3c23.9,13.3,48.5,24.9,74,35c-1.1,0.9-2.4,1.3-4,1
		c-23.8-9.6-47.1-20.2-70-32c-1.2-1.8-2.7-3.4-4.5-5C90.3,154.6,90.5,153.9,91.5,153.5z"/>
</g>
<g>
	<path class="st65" d="M458.5,135.5c0.3,1.5,1.3,2.2,3,2c0.2,1.7,0,3.4-0.5,5c-0.8-3.8-1.9-3.9-3.5-0.5c-1.3,0.5-2.6,0.7-4,0.5
		c0,1.3,0,2.7,0,4c-1.3,0-2.7,0-4,0c0.1,1.1,0,2.1-0.5,3c-0.3-0.3-0.7-0.7-1-1c-3.1,2.6-6.5,4.9-10,7c-0.2,0.3-0.3,0.7-0.5,1
		c1.2,0.8,2.6,1.3,4,1.5c-0.5,0.4-0.8,0.9-1,1.5c-2.3-0.3-4.6-0.3-7,0c2.1,1.7,3.5,3.4,4,5c-0.3,1-1,1.7-2,2c-1.4-3.1-3.7-5.1-7-6
		c0,1.3,0,2.7,0,4c-4-0.4-7.7,0.4-11,2.5c0.5,0.4,0.8,0.9,1,1.5c-3.6,2.5-7.2,4.8-11,7c-1,1.5-1.3,3.2-1,5c-1.4-0.2-2.7,0-4,0.5
		c2.2,0.8,2.2,1.9,0,3.5c-1-1.4-2.4-2-4-2c0.7-1.2,1.1-2.5,1-4c1.3,0,2.7,0,4,0c0.9-3.9,3.2-6.5,7-8c0.7-1.2,1.1-2.6,1-4
		C426.7,155.4,442.3,145.1,458.5,135.5z"/>
</g>
<g>
	<path class="st66" d="M63.5,148.5c-0.7,5.1,0.3,9.8,3,14c-1.2,3.5-1.2,7.2,0,11c-0.7,0-1.3,0-2,0c0.2-3.7,0-7.3-0.5-11
		c-0.2,3.5-0.7,6.9-1.5,10c0-2,0-4,0-6c0.3-2-0.3-3.3-2-4c0.3-0.8,0.8-1.5,1.5-2C62.2,156.3,62.7,152.3,63.5,148.5z"/>
</g>
<g>
	<path class="st67" d="M59.5,163.5c0,1,0,2,0,3c1,0,2,0,3,0c0,2,0,4,0,6c-0.9,0.6-1.9,0.9-3,1c-1.6-1.8-3.6-3.1-6-4
		C55.2,167.2,57.2,165.2,59.5,163.5z"/>
</g>
<g>
	<path class="st68" d="M460.5,151.5c1.7,0,3.3,0,5,0c-0.7,0.9-1.7,1.2-3,1c0.3,4.4,0,8.7-1,13c-6.2,4.5-12.5,8.5-19,12c0-1,0-2,0-3
		c-4.2-0.5-7.2,1.2-9,5c2.9-0.2,5.9-0.2,9,0c-2.6,0.8-4.6,2.3-6,4.5c-1.6,0.5-3.3,0.7-5,0.5c0.2,1.3-0.2,2.5-1,3.5
		c-3.3,1.6-6.3,3.6-9,6c-1.7,0.7-3.4,0.5-5-0.5c0,1.3,0,2.7,0,4c-10.4,6.7-20.7,13.4-31,20c0-1,0-2,0-3c2.6,0,4.8-1,6.5-3
		c-0.9-1.8-1.2-3.8-1-6c0.9-3.1,2.7-5.4,5.5-7c0.9-1.2,1.3-2.5,1-4c9.5-6.6,19.2-13.1,29-19.5c1.6-0.8,2.6-1.9,3-3.5
		c1.5,0.3,2.8-0.1,4-1c7.5-5.5,15.3-10.5,23.5-15C458.7,154.6,459.9,153.3,460.5,151.5z"/>
</g>
<g>
	<path class="st69" d="M460.5,131.5c1-0.1,1.8,0.2,2.5,1c-0.4,4,1.1,7,4.5,9c0.5,0.9,0.8,1.9,1,3c-0.8,7-1.3,14-1.5,21
		c-16.7,11.6-33.6,22.9-50.5,34c-1.2,0.4-2.2,1.1-3,2c-11.5,7.2-22.8,14.7-34,22.5c-7.2,7.9-15.9,13.9-26,18
		c-8.3,6.6-16.9,12.4-26,17.5c8.2-6.6,16.5-12.9,25-19c11.6-7,22.6-14.6,33-23c10.3-6.6,20.6-13.3,31-20c0-1.3,0-2.7,0-4
		c1.6,1,3.3,1.2,5,0.5c2.7-2.4,5.7-4.4,9-6c0.8-1,1.2-2.2,1-3.5c1.7,0.2,3.4,0,5-0.5c1.4-2.2,3.4-3.7,6-4.5c-3.1-0.2-6.1-0.2-9,0
		c1.8-3.8,4.8-5.5,9-5c0,1,0,2,0,3c6.5-3.5,12.8-7.5,19-12c1-4.3,1.3-8.6,1-13c1.3,0.2,2.3-0.1,3-1c0.2-1.7,0-3.4-0.5-5
		c-2.2,1.2-3.7,2.8-4.5,5c-2.5,0.3-4.8,1.1-7,2.5c-5.2,3.8-10.6,7.3-16,10.5c-0.5-1.6-1.9-3.3-4-5c2.4-0.3,4.7-0.3,7,0
		c0.2-0.6,0.5-1.1,1-1.5c-1.4-0.2-2.8-0.7-4-1.5c0.2-0.3,0.3-0.7,0.5-1c3.5-2.1,6.9-4.4,10-7c0.3,0.3,0.7,0.7,1,1
		c0.5-0.9,0.6-1.9,0.5-3c1.3,0,2.7,0,4,0c0-1.3,0-2.7,0-4c1.4,0.2,2.7,0,4-0.5c1.6-3.4,2.7-3.3,3.5,0.5c0.5-1.6,0.7-3.3,0.5-5
		c-1.7,0.2-2.7-0.5-3-2C460.2,134.8,460.8,133.5,460.5,131.5z"/>
</g>
<g>
	<path class="st70" d="M465.5,151.5c-1.7,0-3.3,0-5,0c0.8-2.2,2.3-3.8,4.5-5C465.5,148.1,465.7,149.8,465.5,151.5z"/>
</g>
<g>
	<path class="st71" d="M66.5,162.5c3.4,2.4,6.7,4.7,10,7c-1.8,0.1-3.4-0.2-5-1c-0.2,3.3,1.5,5.6,5,7c0.9,0.8,1.2,1.8,1,3
		c1,0,2,0,3,0c0.1,0.6,0.4,1.1,1,1.5c-1.3,0.5-2.6,0.7-4,0.5c-0.7,0-1.3,0-2,0c-2.3-1.1-4.6-2.3-7-3.5c-1.3-0.8-2-2-2-3.5
		C65.3,169.7,65.3,166,66.5,162.5z"/>
</g>
<g>
	<path class="st23" d="M50.5,162.5c-0.3,4-0.5,8-0.5,12c1-1.8,2.2-3.5,3.5-5c2.4,0.9,4.4,2.2,6,4c0,2.3,0,4.7,0,7
		c-1.8,1.8-2.5,4.1-2,7c0,2.7,0,5.3,0,8c-1.6,4.4-2.3,9.1-2,14c-2,9.3-2.6,18.9-2,29c-0.7,9.3-1,18.7-1,28c-1.9,4.6-2.6,9.6-2,15
		c-2,9.3-2.6,18.9-2,29c-1,16.6-1.7,33.3-2,50c-5.8-1.5-11.8-2.4-18-2.5c-3.1-1-6.1-2.2-9-3.5c-1-10-1.3-20-1-30c0-9.7,0-19.3,0-29
		c0.3-14.4,1.3-28.7,3-43c0-4.7,0-9.3,0-14c1.9-3.9,2.6-8.2,2-13c0-0.7,0-1.3,0-2c3.7-13.8,6-28.2,7-43c1.8-1.8,2.5-4.1,2-7
		c1.4-3.6,2.8-7.3,4-11c1.3-0.6,2.6-1.3,4-2C43.6,162.1,47,162.8,50.5,162.5z"/>
</g>
<g>
	<path class="st72" d="M32.5,173.5c0.5,2.9-0.2,5.2-2,7C30.7,177.9,31.4,175.6,32.5,173.5z"/>
</g>
<g>
	<path class="st73" d="M76.5,169.5c23,8.8,46,17.6,69,26.5c18.8,8.3,37.4,16.5,56,24.5c-2,0.2-4,0-6-0.5c-6.9-3.5-13.9-6.8-21-10
		c-2.3-0.7-4.7-0.7-7,0c2.3,1.4,2.3,2.2,0,2.5c-3.6-1.4-7-3-10-5c-1,0.3-2,0.7-3,1c4.3,3,8.6,5.6,13,8c-7.4-2.2-14.7-4.7-22-7.5
		c-6.4-2.9-12.9-5.8-19.5-8.5c-1-0.3-1.5-1-1.5-2c-3-3.2-6.6-5.3-11-6.5c-8.9-3-17.9-5.8-27-8.5c0-1,0-2,0-3c-2.2-0.1-4.2-0.8-6-2
		c-1,0-2,0-3,0c0.2-1.2-0.1-2.2-1-3c-3.5-1.4-5.2-3.7-5-7C73.1,169.3,74.7,169.6,76.5,169.5z"/>
</g>
<g>
	<path class="st74" d="M64.5,173.5c-1,0.5-1.8,1.1-2.5,2c-0.4,10.3-1.9,20.3-4.5,30c0-3.3,0-6.7,0-10c0-2.7,0-5.3,0-8
		c1.4-2,2.1-4.3,2-7c0-2.3,0-4.7,0-7c1.1-0.1,2.1-0.4,3-1c0.8-3.1,1.3-6.5,1.5-10C64.5,166.2,64.7,169.8,64.5,173.5z"/>
	<path class="st75" d="M275.5,603.9l-138-59.4c0-100.3-36.5-256-36.5-349.9c0-9.1,14.5,1,29.1,6.9c56.2,16.4,99.4,35.6,131.4,69.1
		L275.5,603.9z"/>
</g>
<g>
	<path class="st76" d="M59.5,180.5c0.1,2.7-0.6,5-2,7C57,184.6,57.7,182.3,59.5,180.5z"/>
</g>
<g>
	<path class="st77" d="M95.5,160.5c22.9,11.8,46.2,22.4,70,32c13.2,6.9,26.8,12.7,41,17.5c-1.6,0.5-3.3,0.7-5,0.5
		c-35.7-14.3-70.7-30.3-105-48C95.7,162,95.4,161.4,95.5,160.5z"/>
</g>
<g>
	<path class="st78" d="M64.5,173.5c0.7,0,1.3,0,2,0c0,1.5,0.7,2.7,2,3.5c2.4,1.2,4.7,2.4,7,3.5c-0.8,1.4-2.2,2.4-4,3
		c1.2,0.9,2.5,1.3,4,1c1.7,22.6,2.7,45.3,3,68c-0.3,0-0.7,0-1,0c-1.7-19-2.7-38.3-3-58c-1-3.9-2.2-3.9-3.5,0c-0.2-2.4-0.7-4.7-1.5-7
		c-1.6,2.2-2.9,4.5-4,7c-0.8-4.6-1.3-9.3-1.5-14c-1.6,12.3-3.8,24.3-6.5,36c0.3-2.6,0-4.9-1-7c-0.3-1.6,0.1-2.9,1-4
		c2.6-9.7,4.1-19.7,4.5-30C62.7,174.6,63.5,174,64.5,173.5z"/>
</g>
<g>
	<path class="st79" d="M93.5,153.5c1.6,0.4,3.1,1.1,4.5,2c0.9-0.4,1.6-1.1,2-2c0.5,1.3,0.7,2.6,0.5,4c5.7,2.9,12,6,19,9.5
		c2.6,0.5,5.3,0.7,8,0.5c0,1.3,0,2.7,0,4c2.1-0.3,4.1,0,6,1c6.9,4.6,14.2,8.5,22,11.5c11.6,4.7,22.9,9.4,34,14
		c8,2.7,15.7,5.8,23,9.5c-14.9-3.8-29.2-9.2-43-16c-25.5-10.1-50.1-21.7-74-35C94.4,155.7,93.7,154.7,93.5,153.5z"/>
</g>
<g>
	<path class="st78" d="M77.5,252.5c0.2,34,0,68-0.5,102c-5.8,2.1-11.6,4.1-17.5,6c0,1,0,2,0,3c-0.7,1.3-1.3,2.7-2,4
		c-2.9,2.6-5.9,2.6-9,0c0.2-4.7,0-9.3-0.5-14c-0.2,3.9-0.7,7.5-1.5,11c0-1.3,0-2.7,0-4c0.3-16.7,1-33.4,2-50c0.7-5,1.3-10,2-15
		c-0.2,4.7,0,9.3,0.5,14c0.5-7,1-14,1.5-21c0-2.8-0.7-5.1-2-7c-0.6-5.4,0.1-10.4,2-15c1.3-1.9,2-4.2,2-7c0.6-14.4,1.6-28.7,3-43
		c2.7-11.7,4.9-23.7,6.5-36c0.2,4.7,0.7,9.4,1.5,14c1.1-2.5,2.4-4.8,4-7c0.8,2.3,1.3,4.6,1.5,7c1.3-3.9,2.5-3.9,3.5,0
		C74.8,214.2,75.8,233.5,77.5,252.5z"/>
</g>
<g>
	<path class="st80" d="M80.5,178.5c1.8,1.2,3.8,1.9,6,2c0,1,0,2,0,3c9.1,2.7,18.1,5.5,27,8.5c4.4,1.2,8,3.3,11,6.5
		c-8-2.4-16-4.7-24-7c0-1-0.5-1.7-1.5-2c-5.3-2.3-10.8-4.1-16.5-5.5c-2.1-0.7-3.8-1.9-5-3.5c1.4,0.2,2.7,0,4-0.5
		C80.9,179.6,80.6,179.1,80.5,178.5z"/>
</g>
<g>
	<path class="st81" d="M435.5,166.5c-2.5,1.2-4.5,2.9-6,5c-17.8,9.9-34.4,21.2-50,34c-5,2.1-9.7,5-14,8.5c-1,0.7-2,0.7-3,0
		c3.9-3.2,8-6,12.5-8.5c0-1.6-0.2-3.3-0.5-5c3.3-0.9,5.6-2.9,7-6c5.9-3.6,11.6-7.6,17-12c1.6,0,3,0.6,4,2c2.2-1.6,2.2-2.7,0-3.5
		c1.3-0.5,2.6-0.7,4-0.5c-0.3-1.8,0-3.5,1-5c3.8-2.2,7.4-4.5,11-7c-0.2-0.6-0.5-1.1-1-1.5c3.3-2.1,7-2.9,11-2.5c0-1.3,0-2.7,0-4
		C431.8,161.4,434.1,163.4,435.5,166.5z"/>
</g>
<g>
	<path class="st78" d="M75.5,180.5c0.7,0,1.3,0,2,0c1.2,1.6,2.9,2.8,5,3.5c5.7,1.4,11.2,3.2,16.5,5.5c1,0.3,1.5,1,1.5,2
		c-1,0-2,0-3,0c0.5,9,0.9,18,1,27c-1.8-8.4-3-17.1-3.5-26c-1.3-1.4-2.2-1.1-2.5,1c4.8,29.2,8.1,58.5,10,88c1.3,0,2.7,0,4,0
		c0.5,17.8,2.5,35.5,6,53c-3.4,2.7-6.7,5.4-10,8c-2.3-0.2-4.4-0.9-6.5-2c-0.8,0.3-1.7,0.7-2.5,1c1.3,0.7,2.7,1.3,4,2
		c-3.2,2.9-6.8,4.1-11,3.5c0.8-0.3,1.5-0.8,2-1.5c-1-1-2-2-3-3c-0.1-51.7-1.8-103.4-5-155c0.9,55.3,0.9,110.6,0,166
		c-0.7-33.8-1.3-67.5-2-101c-0.3-22.7-1.3-45.4-3-68c-1.5,0.3-2.8-0.1-4-1C73.3,182.9,74.7,181.9,75.5,180.5z"/>
</g>
<g>
	<path class="st82" d="M429.5,171.5c-0.4,1.6-1.4,2.7-3,3.5c-9.8,6.4-19.5,12.9-29,19.5c-6,3.7-12,7.3-18,11
		C395.1,192.7,411.7,181.4,429.5,171.5z"/>
</g>
<g>
	<path class="st83" d="M63.5,147.5c0.5,8.7,4.8,14.8,13,18.5c67.4,27.9,134.7,56,202,84.5c-1.9-0.3-3.6,0-5,1
		c-15.8-6.4-31.5-13.1-47-20c-8.2-3.9-16.5-7.6-25-11c-18.6-8-37.2-16.2-56-24.5c-23-8.9-46-17.7-69-26.5c-3.3-2.3-6.6-4.6-10-7
		c-2.7-4.2-3.7-8.9-3-14C63.5,148.2,63.5,147.8,63.5,147.5z"/>
</g>
<g>
	<path class="st84" d="M30.5,180.5c-1,14.8-3.3,29.2-7,43C24.9,208.9,27.3,194.5,30.5,180.5z"/>
</g>
<g>
	<path class="st85" d="M100.5,191.5c8,2.3,16,4.6,24,7c0,1,0.5,1.7,1.5,2c6.6,2.7,13.1,5.6,19.5,8.5c7.3,2.8,14.6,5.3,22,7.5
		c0,0.7,0,1.3,0,2c-21.6-8.5-43.2-16.8-65-25C101.8,192.8,101.2,192.2,100.5,191.5z"/>
</g>
<g>
	<path class="st86" d="M57.5,195.5c0,3.3,0,6.7,0,10c-0.9,1.1-1.3,2.4-1,4c-0.3,0-0.7,0-1,0C55.2,204.6,55.9,199.9,57.5,195.5z"/>
</g>
<g>
	<path class="st87" d="M212.5,207.5c5,1.2,10,2.5,15,4c1-0.2,2-0.3,3-0.5c-1.4-0.2-2.8-0.7-4-1.5c3.3-0.7,6.4-1.1,9.5-1
		c0.1,1.8-0.4,3.4-1.5,5c1.5,1.1,3.2,1.7,5,2c4.4,2.2,9.1,3.9,14,5c1.9,0.3,3.6,1,5,2c-1.3-0.2-2.3,0.1-3,1c-4.3-1.8-8.8-3.2-13.5-4
		c-0.8,0.3-1.7,0.7-2.5,1c8,3.7,16.4,6.3,25,8c4.1,1,8.5,1.3,13,1c1.4,1,3.1,1.3,5,1c-8.3,1.4-16.6,1.1-25-1
		c-16.3-5.4-32.6-11.1-49-17c1.1-1.1,2.4-1.3,4-0.5c6.8,1.9,13.5,4.3,20,7c1.8,0.8,3.4,0.6,5-0.5c-7.3-4-14.9-7-23-9
		C213.3,209.3,212.6,208.6,212.5,207.5z"/>
</g>
<g>
	<path class="st88" d="M201.5,220.5c8.5,3.4,16.8,7.1,25,11c-5.3-1.7-10.6-2-16-1c0.2,1.3-0.2,2.5-1,3.5c1.6,0.2,2.6,1.1,3,2.5
		c-12.1-4.9-24.1-10.1-36-15.5c-2.9-1.1-5.9-2-9-2.5c0-0.7,0-1.3,0-2c-4.4-2.4-8.7-5-13-8c1-0.3,2-0.7,3-1c3,2,6.4,3.6,10,5
		c2.3-0.3,2.3-1.1,0-2.5c2.3-0.7,4.7-0.7,7,0c7.1,3.2,14.1,6.5,21,10C197.5,220.5,199.5,220.7,201.5,220.5z"/>
</g>
<g>
	<path class="st89" d="M411.5,166.5c0.1,1.4-0.3,2.8-1,4c-3.8,1.5-6.1,4.1-7,8c-1.3,0-2.7,0-4,0c0.1,1.5-0.3,2.8-1,4
		c-5.4,4.4-11.1,8.4-17,12c-8.4,4.7-16.4,10-24,16c-1.5,1-3.2,1.3-5,1c0,1,0,2,0,3c-1.5-0.3-2.8,0.1-4,1c-3.6,2.7-6.9,5.7-10,9
		c-3.5,1.6-6.8,3.5-10,5.5c-3.6,2.4-6,5.2-7,8.5c-1.4-0.2-2.7,0-4,0.5c-1.6,2.1-3.6,3.6-6,4.5c0.2-1.5,0.9-2.9,2-4
		c-1.5-1.4-2.1-3-2-5c1.7,0,3.3,0,5,0c0-1.3,0-2.7,0-4C347.6,208.5,379.2,187.1,411.5,166.5z"/>
</g>
<g>
	<path class="st90" d="M169.5,191.5c13.8,6.8,28.1,12.2,43,16c0.1,1.1,0.8,1.8,2,2c8.1,2,15.7,5,23,9c-1.6,1.1-3.2,1.3-5,0.5
		c-6.5-2.7-13.2-5.1-20-7c-1.6-0.8-2.9-0.6-4,0.5c-2.5-0.4-4.8-1.1-7-2c1.7,0.2,3.4,0,5-0.5c-14.2-4.8-27.8-10.6-41-17.5
		C167.1,192.8,168.4,192.4,169.5,191.5z"/>
</g>
<g>
	<path class="st91" d="M55.5,209.5c-0.1,9.9-0.7,19.5-2,29C52.9,228.4,53.5,218.8,55.5,209.5z"/>
</g>
<g>
	<path class="st92" d="M382.5,171.5c-30.3,24.6-63.6,44.3-100,59c-1.9,0.3-3.6,0-5-1c30.1-11.4,58.1-26.7,84-46
		c-0.2-0.3-0.3-0.7-0.5-1c-26.3,18.1-54.1,33.1-83.5,45c-7.7,0.4-15-1-22-4c0.7-0.9,1.7-1.2,3-1c6.7,2.1,13.4,2.4,20,1
		c4.8-0.7,9.1-2.4,13-5c12.1-5.5,24.1-11.4,36-17.5c10.6-7.1,21.2-13.9,32-20.5c2.6-0.6,5.2-0.7,8-0.5c4.9-3,9.4-6.5,13.5-10.5
		C382,169.8,382.5,170.5,382.5,171.5z"/>
</g>
<g>
	<path class="st93" d="M277.5,229.5c-4.5,0.3-8.9,0-13-1c5.1,0.3,9.4,0,13-1c29.4-11.9,57.2-26.9,83.5-45c0.2,0.3,0.3,0.7,0.5,1
		C335.6,202.8,307.6,218.1,277.5,229.5z"/>
</g>
<g>
	<path class="st94" d="M381.5,194.5c-1.4,3.1-3.7,5.1-7,6c0.3,1.7,0.5,3.4,0.5,5c-4.5,2.5-8.6,5.3-12.5,8.5c1,0.7,2,0.7,3,0
		c4.3-3.5,9-6.4,14-8.5c6-3.7,12-7.3,18-11c0.3,1.5-0.1,2.8-1,4c-2.8,1.6-4.6,3.9-5.5,7c-0.2,2.2,0.1,4.2,1,6c-1.7,2-3.9,3-6.5,3
		c0,1,0,2,0,3c-10.4,8.4-21.4,16-33,23c-3-1.9-6.2-2.2-9.5-1c-3.4-1.5-3.2-2.8,0.5-4c2.2-1,4.6-1.3,7-1c-0.2-2.7,0-5.4,0.5-8
		c4-2.1,7.5-4.7,10.5-8c0-1.3,0-2.7,0-4c-1.3,0-2.7,0-4,0c0.1,1.1,0,2.1-0.5,3c-6.5,4.9-13.2,9.6-20,14c-1.8-0.9-3.6-1.1-5.5-0.5
		c-2.2,4-5.6,6.5-10,7.5c1-3.3,3.4-6.1,7-8.5c3.2-2,6.5-3.9,10-5.5c3.1-3.3,6.4-6.3,10-9c1.2-0.9,2.5-1.3,4-1c0-1,0-2,0-3
		c1.8,0.3,3.5,0,5-1C365.1,204.5,373.1,199.2,381.5,194.5z"/>
</g>
<g>
	<path class="st95" d="M255.5,223.5c7,3,14.3,4.4,22,4c-3.6,1-7.9,1.3-13,1c-8.6-1.7-17-4.3-25-8c0.8-0.3,1.7-0.7,2.5-1
		C246.7,220.3,251.2,221.7,255.5,223.5z"/>
</g>
<g>
	<path class="st96" d="M55.5,209.5c0.3,0,0.7,0,1,0c1,2.1,1.3,4.4,1,7c-1.4,14.3-2.4,28.6-3,43c0,2.8-0.7,5.1-2,7
		c0-9.3,0.3-18.7,1-28C54.8,229,55.4,219.4,55.5,209.5z"/>
</g>
<g>
	<path class="st97" d="M257.5,229.5c8.4,2.1,16.7,2.4,25,1c36.4-14.7,69.7-34.4,100-59c9.1-7.3,18.1-14.8,27-22.5
		c4.1-2.9,6.8-6.8,8-11.5c9.9-1,19.9-1.5,30-1.5c-11.8,5.2-23.1,11.2-34,18c-28.5,20.4-56.8,41.1-85,62c-12.9,9-26.9,15.6-42,20
		c-6,0.7-12,0.7-18,0C264,234.1,260.3,231.9,257.5,229.5z"/>
</g>
<g>
	<path class="st98" d="M167.5,218.5c3.1,0.5,6.1,1.4,9,2.5c11.9,5.4,23.9,10.6,36,15.5c0.2,1-0.2,1.7-1,2c-0.3,0-0.7,0-1,0
		c-1.6-0.2-2.9-0.9-4-2c-1.3-1.4-3-2.1-5-2c-8-4.2-16.3-7.9-25-11c-0.7,0-1.3,0-2,0C172.2,222,169.8,220.3,167.5,218.5z"/>
</g>
<g>
	<path class="st99" d="M23.5,225.5c0.6,4.8-0.1,9.1-2,13C21.4,233.9,22.1,229.6,23.5,225.5z"/>
</g>
<g>
	<path class="st100" d="M316.5,230.5c0,1.3,0,2.7,0,4c-1.7,0-3.3,0-5,0c-0.1,2,0.5,3.6,2,5c-1.1,1.1-1.8,2.5-2,4
		c-5.3,4.1-10.9,7.6-17,10.5c-5.3,1.4-10.6,1.8-16,1c0.3-0.3,0.7-0.7,1-1c-0.9-0.3-1.6-0.8-2-1.5c4.3,0.2,8.7,0,13-0.5
		c0.3-0.3,0.7-0.7,1-1c-1.3-0.5-2.6-0.7-4-0.5C296.6,243.1,306.2,236.5,316.5,230.5z"/>
</g>
<g>
	<path class="st101" d="M361.5,218.5c-3,3.3-6.5,5.9-10.5,8c-0.5,2.6-0.7,5.3-0.5,8c-2.4-0.3-4.8,0-7,1c-3.7,1.2-3.9,2.5-0.5,4
		c3.3-1.2,6.5-0.9,9.5,1c-8.5,6.1-16.8,12.4-25,19c-5.1,3.3-10.1,6.8-15,10.5c-0.9,0.5-1.9,0.6-3,0.5c-4.6,3.4-9.6,6.2-15,8.5
		c-3.4,0.8-6.7,0.7-10-0.5c1.9-0.8,3.2-2.1,4-4c1.9-0.8,3.9-1.3,6-1.5c-4.1-4.5-9.1-7.7-15-9.5c-0.9-1.2-1.3-2.5-1-4
		c1.7,0,3.3,0,5,0c-0.4,0.7-1.1,1.2-2,1.5c0.6,0.4,0.9,0.9,1,1.5c-0.4-0.1-0.8,0.1-1,0.5c4.6,2.8,9.2,3.1,14,1
		c-3.9-0.2-7.5-0.7-11-1.5c5.1-0.3,10.1,0.1,15,1c1.7-1.6,3.7-2.3,6-2c0-2,0-4,0-6c1.3-0.2,2.5,0.2,3.5,1c1.9-2.5,4.4-3.8,7.5-4
		c-0.2-2,0.1-3.8,1-5.5c13.3-9.3,26.7-18.7,40-28C358.8,218.5,360.1,218.3,361.5,218.5z"/>
</g>
<g>
	<path class="st102" d="M98.5,218.5c2.4,21.1,5.1,42.1,8,63c-1.3,0-2.7,0-4,0c-1.9-29.5-5.2-58.8-10-88c0.3-2.1,1.2-2.4,2.5-1
		C95.5,201.4,96.7,210.1,98.5,218.5z"/>
</g>
<g>
	<path class="st103" d="M226.5,231.5c15.5,6.9,31.2,13.6,47,20c1.1,0.9,2.4,1.3,4,1c0.4,0.7,1.1,1.2,2,1.5c-0.3,0.3-0.7,0.7-1,1
		c5.4,0.8,10.7,0.4,16-1c6.1-2.9,11.7-6.4,17-10.5c2.4-0.9,4.4-2.4,6-4.5c1.3-0.5,2.6-0.7,4-0.5c-1.3,1-2.6,2-4,3
		c-0.9,1.2-1.3,2.5-1,4c-1.4-0.2-2.7,0-4,0.5c-3.5,2.1-6.9,4.2-10,6.5c0.3,3-1.1,4.8-4,5.5c-4.9,2.3-9.9,2.8-15,1.5
		c-1.7,0-3.3,0-5,0c-0.3,1.5,0.1,2.8,1,4c5.9,1.8,10.9,5,15,9.5c-2.1,0.2-4.1,0.7-6,1.5c-0.8,1.9-2.1,3.2-4,4
		c3.3,1.2,6.6,1.3,10,0.5c5.4-2.3,10.4-5.1,15-8.5c-4.6,7.3-11.2,10.9-20,11c-10.2-1.5-19.6-5.1-28-11c-12.1-9.1-24.8-17.4-38-25
		c-4.5-1.5-8.5-3.9-12-7c0.8-0.3,1.2-1,1-2c-0.4-1.4-1.4-2.3-3-2.5c0.8-1,1.2-2.2,1-3.5C215.9,229.5,221.2,229.8,226.5,231.5z"/>
</g>
<g>
	<path class="st104" d="M278.5,250.5c3,0,6,0,9,0c1.4-0.2,2.7,0,4,0.5c-0.3,0.3-0.7,0.7-1,1c-4.3,0.5-8.7,0.7-13,0.5
		c-1.6,0.3-2.9-0.1-4-1C274.9,250.5,276.6,250.2,278.5,250.5z"/>
</g>
<g>
	<path class="st105" d="M21.5,238.5c0,4.7,0,9.3,0,14c-0.7,0.7-1.3,1.3-2,2C19.5,248.9,20.2,243.6,21.5,238.5z"/>
</g>
<g>
	<path class="st106" d="M361.5,218.5c-1.4-0.2-2.7,0-4,0.5c-13.3,9.3-26.7,18.7-40,28c-0.9,1.7-1.2,3.5-1,5.5
		c-3.1,0.2-5.6,1.5-7.5,4c-1-0.8-2.2-1.2-3.5-1c0,2,0,4,0,6c-2.3-0.3-4.3,0.4-6,2c-4.9-0.9-9.9-1.3-15-1c-0.7,0-1.3,0-2,0
		c-0.1-0.6-0.4-1.1-1-1.5c0.9-0.3,1.6-0.8,2-1.5c5.1,1.3,10.1,0.8,15-1.5c2.9-0.7,4.3-2.5,4-5.5c3.1-2.3,6.5-4.4,10-6.5
		c1.3-0.5,2.6-0.7,4-0.5c-0.3-1.5,0.1-2.8,1-4c1.4-1,2.7-2,4-3c4.4-1,7.8-3.5,10-7.5c1.9-0.6,3.7-0.4,5.5,0.5
		c6.8-4.4,13.5-9.1,20-14c0.5-0.9,0.6-1.9,0.5-3c1.3,0,2.7,0,4,0C361.5,215.8,361.5,217.2,361.5,218.5z"/>
</g>
<g>
	<path class="st107" d="M223.5,245.5c13.2,7.6,25.9,15.9,38,25c-0.3,0-0.7,0-1,0s-0.7,0-1,0c-4.2-2.6-8.6-5-13-7
		c0-1.5-0.7-2.7-2-3.5c-2.9-1.8-5.9-3.3-9-4.5C231.5,252.2,227.5,248.8,223.5,245.5z"/>
</g>
<g>
	<path class="st108" d="M282.5,262.5c0.7,0,1.3,0,2,0c3.5,0.8,7.1,1.3,11,1.5c-4.8,2.1-9.4,1.8-14-1
		C281.7,262.6,282.1,262.4,282.5,262.5z"/>
</g>
<g>
	<path class="st109" d="M321.5,265.5c1.4,2,2.4,4.1,3,6.5c-0.7,0.7-1.3,1.3-2,2c0.6,2.6,1.4,5.1,2.5,7.5c0.5,33.3,0.7,66.7,0.5,100
		c1.5-0.3,2.8,0.1,4,1c-1.5,3.8-3.5,7.1-6,10c-0.3-2.3,0.4-4.3,2-6c-0.9-0.8-1.7-0.5-2.5,1c-3.3,3.7-5.3,8-6,13
		c-1-5.9-0.5-11.6,1.5-17c-1.3-34.4-2.7-68.7-4-103c0.7-0.7,1.3-1.3,2-2c-1.4-1-2-2.4-2-4c-1.3,0-2.7,0-4,0
		C313.9,271.2,317.5,268.2,321.5,265.5z"/>
</g>
<g>
	<path class="st110" d="M327.5,259.5c-1.3,2.7-3.3,4.7-6,6c-4,2.7-7.6,5.7-11,9c-3.4,2.4-6.7,4.7-10,7c-6.6,2.1-13.3,2.4-20,1
		c-0.3-0.8-1-1.2-2-1c-7-2.2-13-5.9-18-11c0.3,0,0.7,0,1,0c8.4,5.9,17.8,9.5,28,11c8.8-0.1,15.4-3.7,20-11c1.1,0.1,2.1,0,3-0.5
		C317.4,266.3,322.4,262.8,327.5,259.5z"/>
</g>
<g>
	<path class="st111" d="M259.5,270.5c0.3,0,0.7,0,1,0c5,5.1,11,8.8,18,11c-1.4,1.6-3.1,3.1-5,4.5c3,1.6,4.3,4.1,4,7.5
		c-5.3,0.7-5.3,1.3,0,2c-0.2,100.7,0,201.3,0.5,302c3.1,1,6.2,1.3,9.5,1c-2.1,0.7-4.5,1-7,1c-4.7-0.7-9.4-1.3-14-2
		c-3.8-1.5-7.4-3.1-11-5c0.7-1.7,2-2.3,4-2c0.7-103.8,0-207.4-2-311c0.2-0.7,0.3-1.3,0.5-2c1.7,1.1,3.2,0.8,4.5-1
		C260,275.3,259,273.3,259.5,270.5z"/>
</g>
<g>
	<path class="st112" d="M21.5,252.5c-1.7,14.3-2.7,28.6-3,43c-0.8,5.9-1.5,11.9-2,18c-0.3,0-0.7,0-1,0c1.2-19.7,2.5-39.3,4-59
		C20.2,253.8,20.8,253.2,21.5,252.5z"/>
</g>
<g>
	<path class="st113" d="M412.5,263.5c-0.4,16.5-1.4,32.9-3,49C409.6,296,410.6,279.6,412.5,263.5z"/>
</g>
<g>
	<path class="st114" d="M310.5,274.5c1.3,0,2.7,0,4,0c0,1.6,0.6,3,2,4c-0.7,0.7-1.3,1.3-2,2c1.3,34.3,2.7,68.6,4,103
		c-2,5.4-2.5,11.1-1.5,17c0.7-5,2.7-9.3,6-13c0.8-1.5,1.6-1.8,2.5-1c-1.6,1.7-2.3,3.7-2,6c-1.1,3.5-2.6,6.9-4.5,10
		c-0.4,8.1-1.4,16.1-3,24c-0.9-1.2-1.7-1-2.5,0.5c0.3,0.3,0.7,0.7,1,1c-2.4,1.4-4,3.4-5,6c0.3,0.2,0.7,0.3,1,0.5
		c0.8-0.9,1.3-1.9,1.5-3c0.3,2.7,1.5,3.4,3.5,2c-0.2,1,0.2,1.7,1,2c2.8,0.8,5.8,1.3,9,1.5c-3.5,0.9-5.9,3.1-7,6.5
		c-4.3,4-8.6,8-13,12c0.8-2.8,2.5-5.2,5-7c1-1.5,1.3-3.2,1-5c-4-0.6-6.1,1.1-6.5,5c-0.7,1.3-1.3,1.3-2,0c-0.7-7.4-1.2-14.9-1.5-22.5
		c0.9-0.5,1.9-0.6,3-0.5c0-48,0-96,0-144c-1.3,0-2.7,0-4,0C303.8,279.2,307.1,276.9,310.5,274.5z"/>
</g>
<g>
	<path class="st115" d="M50.5,281.5c0,4.7,0,9.3,0,14c-0.7,5-1.3,10-2,15C47.9,300.4,48.5,290.8,50.5,281.5z"/>
</g>
<g>
	<path class="st116" d="M278.5,281.5c1-0.2,1.7,0.2,2,1c0.1,1.2,0.7,2.1,2,2.5c6.7,1.2,13,0.4,19-2.5c0.9,1.2,1.3,2.5,1,4
		c-5-0.6-9.7,0.4-14,3c4.4,1.3,8.7,1.3,13,0c0.9,1.2,1.3,2.5,1,4c-3.7-0.3-7.4,0.1-11,1c-0.7,53.6-1.3,107.1-2,160.5
		c1.3,1.6,2.9,2.8,5,3.5c0.8,1.9,1.2,3.9,1,6c-1.7,0.5-3.2,0.5-4.5,0c-0.5,1-1,2-1.5,3c1.3,5.6,1.3,11.3,0,17c0.6,4,1.3,8,2,12
		c-0.7,31.3-1.3,62.6-2,94c-0.8,2.7-1.4,5.4-2,8c-3.3,0.3-6.4,0-9.5-1c-0.5-100.7-0.7-201.3-0.5-302c-5.3-0.7-5.3-1.3,0-2
		c0.3-3.4-1-5.9-4-7.5C275.4,284.6,277.1,283.1,278.5,281.5z"/>
</g>
<g>
	<path class="st117" d="M111.5,277.5c3.3,15.3,4.9,31,5,47c-1.2-7.9-2.5-15.9-4-24C111.5,292.9,111.2,285.2,111.5,277.5z"/>
</g>
<g>
	<path class="st118" d="M50.5,281.5c1.3,1.9,2,4.2,2,7c-0.5,7-1,14-1.5,21c-0.5-4.7-0.7-9.3-0.5-14
		C50.5,290.8,50.5,286.2,50.5,281.5z"/>
</g>
<g>
	<path class="st78" d="M100.5,191.5c0.7,0.7,1.3,1.3,2,2c-1.3,1-1.9,2.5-2,4.5c4.9,26.3,8.5,52.8,11,79.5c-0.3,7.7,0,15.4,1,23
		c1.5,8.1,2.8,16.1,4,24c-0.2,7.7,0.1,15.4,1,23c-1.3-2.1-2.1-4.4-2.5-7c-2.8-19.8-5.7-39.5-8.5-59c-2.9-20.9-5.6-41.9-8-63
		c-0.1-9-0.5-18-1-27C98.5,191.5,99.5,191.5,100.5,191.5z"/>
</g>
<g>
	<path class="st119" d="M18.5,295.5c0,9.7,0,19.3,0,29c-1,11.2-1.3,22.5-1,34c0,0.7,0,1.3,0,2c-1-15.5-1.3-31.2-1-47
		C17,307.4,17.7,301.4,18.5,295.5z"/>
</g>
<g>
	<path class="st78" d="M100.5,348.5c-2.3,0.1-4,1.1-5,3c-2.6-0.1-4.9,0.6-7,2c-0.7-0.3-1.3-0.7-2-1c5.1-2.4,10.1-5,15-8
		c0.8-0.5,1.1-1.1,1-2c3.3-0.6,6.3-1.9,9-4c0.7,0.3,1.3,0.7,2,1C109.2,342.7,104.9,345.7,100.5,348.5z"/>
</g>
<g>
	<path class="st120" d="M102.5,342.5c0.1,0.9-0.2,1.5-1,2c-4.9,3-9.9,5.6-15,8c0.7,0.3,1.3,0.7,2,1c2.1-1.4,4.4-2.1,7-2
		c-5.6,4.5-11.9,7.9-19,10c-0.9,1.2-1.3,2.5-1,4c-1.6,0.1-2.8-0.5-3.5-2c-6.1,3.2-12.4,5.9-19,8c-1.8,0-3.3-0.7-4.5-2
		c0-0.7,0-1.3,0-2c3.1,2.6,6.1,2.6,9,0c8.3-2,15.9-5.3,23-10c-0.3-1-1-1.7-2-2c-6.1,3.5-12.4,6.2-19,8c0-1,0-2,0-3
		c5.9-1.9,11.7-3.9,17.5-6c0.5-34,0.7-68,0.5-102c0.3,0,0.7,0,1,0c0.7,33.5,1.3,67.2,2,101c0.9-55.4,0.9-110.7,0-166
		c3.2,51.6,4.9,103.3,5,155c1,1,2,2,3,3c-0.5,0.7-1.2,1.2-2,1.5c4.2,0.6,7.8-0.6,11-3.5c-1.3-0.7-2.7-1.3-4-2c0.8-0.3,1.7-0.7,2.5-1
		C98.1,341.6,100.2,342.3,102.5,342.5z"/>
</g>
<g>
	<path class="st78" d="M88.5,378.5c0,0.7-0.3,1-1,1c-1.5-1.3-3.2-1.3-5,0c-2.2,2-4.9,3.2-8,3.5c-2.3,3.4-5.7,4.9-10,4.5
		c-4.1-0.5-8.1-1.2-12-2c-0.2-2.3-1.3-4-3.5-5c-0.5-3.7-0.7-7.3-0.5-11c1.2,1.3,2.7,2,4.5,2c6.6-2.1,12.9-4.8,19-8
		c0.7,1.5,1.9,2.1,3.5,2c-0.3-1.5,0.1-2.8,1-4c7.1-2.1,13.4-5.5,19-10c1-1.9,2.7-2.9,5-3c0.1,0.5,0.4,0.9,1,1c3.9-1.9,7.6-4.3,11-7
		c1.3,1.8,1,3.3-1,4.5c0.9,0.5,1.9,0.6,3,0.5c0.2,3.7,0.6,7.3,1,11c-3.5,1.5-6.9,3.5-10,6c-0.9,0.8-1.2,1.8-1,3
		c-2.2-0.1-4.2,0.4-6,1.5c-3,2.8-6.3,5.2-10,7C87.4,376.8,87.4,377.6,88.5,378.5z"/>
</g>
<g>
	<path class="st121" d="M116.5,324.5c2.1,14.5,3.5,29.1,4,44c-0.7,0-1.3,0-2,0c0.1-7-0.3-14-1-21
		C116.6,339.9,116.3,332.2,116.5,324.5z"/>
</g>
<g>
	<path class="st122" d="M18.5,324.5c-0.3,10,0,20,1,30c2.9,1.3,5.9,2.5,9,3.5c6.2,0.1,12.2,1,18,2.5c0,1.3,0,2.7,0,4
		c0.2,1.3-0.1,2.3-1,3c0.1-0.7,0-1.4-0.5-2c-5.8,1.5-11.3,0.7-16.5-2.5c-3.3-0.5-6.7-0.7-10-0.5c0.3-1.6-0.1-2.9-1-4
		C17.2,347,17.5,335.7,18.5,324.5z"/>
</g>
<g>
	<path class="st78" d="M57.5,367.5c0.7-1.3,1.3-2.7,2-4c6.6-1.8,12.9-4.5,19-8c1,0.3,1.7,1,2,2C73.4,362.2,65.8,365.5,57.5,367.5z"
		/>
</g>
<g>
	<path class="st123" d="M118.5,368.5c0.7,0,1.3,0,2,0c1.7,4.5,2.4,9.1,2,14c0,6,0,12,0,18C120.7,390,119.4,379.4,118.5,368.5z"/>
</g>
<g>
	<path class="st124" d="M15.5,313.5c0.3,0,0.7,0,1,0c-0.3,15.8,0,31.5,1,47c-0.3,2.7,0.3,5.1,2,7c0.9,6.4,4.5,9.2,11,8.5
		c3.8,1.6,7.6,3.1,11.5,4.5c1.1-0.1,2.1-0.4,3-1c0.5-2.6,0.7-5.3,0.5-8c0-1.3,0-2.7,0-4c0.9-0.7,1.2-1.7,1-3c0.8-3.5,1.3-7.1,1.5-11
		c0.5,4.7,0.7,9.3,0.5,14c0,0.7,0,1.3,0,2c-0.2,3.7,0,7.3,0.5,11c2.2,1,3.3,2.7,3.5,5c3.9,0.8,7.9,1.5,12,2c4.3,0.4,7.7-1.1,10-4.5
		c3.1-0.3,5.8-1.5,8-3.5c1.8-1.3,3.5-1.3,5,0c-7,3.8-14,7.7-21,11.5c-8,1.4-14.4-1.2-19-8c-3.3-0.3-6.7-0.7-10-1
		c-2.2-1.6-4.5-2.9-7-4c-8.7-0.8-13.9-5.6-15.5-14.5C14.3,346.8,14.4,330.2,15.5,313.5z"/>
</g>
<g>
	<path class="st125" d="M19.5,367.5c0.3,0,0.7,0,1,0c0.1,2.8,1.6,4.1,4.5,4c4.7,1.2,9.3,1.2,14,0c2,0.1,3.6,0.8,5,2
		c0.3-0.9,0.8-1.6,1.5-2c0.2,2.7,0,5.4-0.5,8c-0.9,0.6-1.9,0.9-3,1c-3.9-1.4-7.7-2.9-11.5-4.5C24,376.7,20.4,373.9,19.5,367.5z"/>
</g>
<g>
	<path class="st126" d="M45.5,367.5c0,1.3,0,2.7,0,4c-0.7,0.4-1.2,1.1-1.5,2c-1.4-1.2-3-1.9-5-2c-4.7,1.2-9.3,1.2-14,0
		c-2.9,0.1-4.4-1.2-4.5-4c0.6-0.3,1.3-0.6,2-1c5.8,0.6,11.5,1.6,17,3C41.7,369.1,43.7,368.5,45.5,367.5z"/>
</g>
<g>
	<path class="st127" d="M17.5,358.5c0.9,1.1,1.3,2.4,1,4c3.3-0.2,6.7,0,10,0.5c5.2,3.2,10.7,4,16.5,2.5c0.5,0.6,0.6,1.3,0.5,2
		c-1.8,1-3.8,1.6-6,2c-5.5-1.4-11.2-2.4-17-3c-0.7,0.4-1.4,0.7-2,1c-0.3,0-0.7,0-1,0c-1.7-1.9-2.3-4.3-2-7
		C17.5,359.8,17.5,359.2,17.5,358.5z"/>
</g>
<g>
	<path class="st128" d="M122.5,382.5c3,14.7,5,29.7,6,45c-1.5-2-2.3-4.3-2.5-7c-0.3-5-0.7-10-1-15c-0.2-1.8-1-3.2-2.5-4
		c0-0.3,0-0.7,0-1C122.5,394.5,122.5,388.5,122.5,382.5z"/>
</g>
<g>
	<path class="st129" d="M416.5,199.5c-1.4,21.3-2.8,42.7-4,64c-1.9,16.1-2.9,32.5-3,49c-1.9,34.7-3.6,69.3-5,104
		c-1.5,9.8-2.1,19.8-2,30c-0.7,26.7-1.5,53.3-2.5,80c-0.8,3.5-2.1,6.9-4,10c-4,4.7-8,9.3-12,14c-2.7,3.3-5.9,5.9-9.5,8
		c0-1.3,0-2.7,0-4c1.9-0.2,3.6-1.1,5-2.5c4.8-5.5,9.7-11,14.5-16.5c1.8-5.3,3-10.8,3.5-16.5c1.4-50.5,3.2-101,5.5-151.5
		c3.6-53.4,7.4-106.7,11.5-160c-0.7-2-1-4-1-6C414.3,200.6,415.3,199.9,416.5,199.5z"/>
</g>
<g>
	<path class="st130" d="M122.5,401.5c1.5,0.8,2.3,2.2,2.5,4c0.3,5,0.7,10,1,15c0.2,2.7,1,5,2.5,7c0.8,4,1.1,8,1,12
		c-0.2,4.3,0,8.7,0.5,13c1.7,4.8,2.8,9.8,3.5,15c-1.1,3.2-0.9,6.5,0.5,10c1.7,6.4,4.2,12.4,7.5,18c-6.6-4.1-10.4-10.1-11.5-18
		C127.8,452.1,125.3,426.8,122.5,401.5z"/>
</g>
<g>
	<path class="st131" d="M316.5,430.5c0,1.3,0,2.7,0,4c7,0,14,0,21,0c-6.8,1-13.8,1.3-21,1c-0.8-0.3-1.2-1-1-2
		C315.3,432.2,315.6,431.2,316.5,430.5z"/>
</g>
<g>
	<path class="st132" d="M322.5,480.5c-2.4,3.6-3.8,7.6-4,12c-0.4,3.4-1,6.7-2,10c-1.4,1.7-3,3-5,4c-6.8-6.6-10-14.6-9.5-24
		c0.9-6.2,2.4-12.2,4.5-18c-2.9-0.8-5.9-1.3-9-1.5c2.6-2.7,5.2-5.2,8-7.5c4.4-4,8.7-8,13-12c2.1-0.8,3.7-2.1,5-4
		c5,7.3,10,14.7,15,22c-3.7,0.7-7.3,1.3-11,2C325.2,469,323.6,474.7,322.5,480.5z"/>
</g>
<g>
	<path class="st133" d="M404.5,416.5c0.1,10.2-0.6,20.2-2,30C402.4,436.3,403,426.3,404.5,416.5z"/>
</g>
<g>
	<path class="st134" d="M129.5,439.5c2.3,8.8,4.3,17.8,6,27c-0.1,0.6-0.5,0.9-1,1c-0.3,0-0.7,0-1,0c-0.7-5.2-1.8-10.2-3.5-15
		C129.5,448.2,129.3,443.8,129.5,439.5z"/>
</g>
<g>
	<path class="st135" d="M413.5,201.5c0,2,0.3,4,1,6c-4.1,53.3-7.9,106.6-11.5,160c-2.3,50.5-4.1,101-5.5,151.5
		c-0.5,5.7-1.7,11.2-3.5,16.5c-4.8,5.5-9.7,11-14.5,16.5c-1.4,1.4-3.1,2.3-5,2.5c0,1.3,0,2.7,0,4c-1.3,0-2.7,0-4,0
		c-3,5.8-7.7,9.8-14,12c-0.7-4,1-5.7,5-5c-0.1-1.1,0-2.1,0.5-3c2.4-2.8,5.2-5.2,8.5-7c-0.7-0.3-1.3-0.7-2-1c-3.1,1.4-5.8,3.4-8,6
		c-1-1.4-2.4-2-4-2c0.2,2,0,4-0.5,6c-3,2.8-6.5,4.5-10.5,5c0,1,0,2,0,3c-1.3,0-2.7,0-4,0c0.1,1.1,0,2.1-0.5,3c-2,0.4-3.5,1.4-4.5,3
		c-1.8,1.2-3.8,1.9-6,2c0,1,0,2,0,3c-1.8,0.3-3.5,1-5,2c-1-1.7-1-3.4,0-5c-2.2-0.8-2.4-1.8-0.5-3c0.5-17,0.7-34,0.5-51
		c-3-0.5-6-0.8-9-1c2.6-0.6,5-1.9,7-4c-2.2-1-4.6-1.3-7-1c0.1-1.1,0-2.1-0.5-3c-1.5,0.4-2.7-0.2-3.5-2c-1-2.2-1.3-4.6-1-7
		c1.7,2.9,3.7,5.8,6,8.5c1.7,0.7,3.3,0.7,5,0c7.5-6,14.9-12.2,22-18.5c1.3-11.5,1.3-23.2,0-35c-0.6,0.1-0.9,0.5-1,1
		c-6.9,5.8-13.8,11.8-20.5,18c-0.5-0.6-0.6-1.3-0.5-2c1.1-5.8,2.7-11.5,5-17c3.7-0.7,7.3-1.3,11-2c-5-7.3-10-14.7-15-22
		c-1.3,1.9-2.9,3.2-5,4c1.1-3.4,3.5-5.6,7-6.5c-3.2-0.2-6.2-0.7-9-1.5c7.2,0.3,14.2,0,21-1c0-0.7,0-1.3,0-2
		c3.6-12.4,7.2-24.9,11-37.5c0.2-1.4,0.9-2.2,2-2.5c1.4,3.8,3.1,7.5,5,11c-3.7,6.2-6.9,12.5-9.5,19c9-8.3,18-16.7,27-25
		c4.6-16,8.9-32,13-48c-2.7,5.2-5.7,10.2-9,15c-2.2-3.7-4.3-7.3-6.5-11c-1.2-1.1-2.6-1.3-4-0.5c-10.3,8.3-20.3,16.8-30,25.5
		c-5.6,4.8-9.4,10.8-11.5,18c-2.8,11.4-5.6,22.7-8.5,34c-0.9,0.7-1.2,1.7-1,3c-2,1.4-3.2,0.7-3.5-2c-0.2,1.1-0.7,2.1-1.5,3
		c-0.3-0.2-0.7-0.3-1-0.5c1-2.6,2.6-4.6,5-6c-0.3-0.3-0.7-0.7-1-1c0.8-1.5,1.6-1.7,2.5-0.5c1.6-7.9,2.6-15.9,3-24
		c1.9-3.1,3.4-6.5,4.5-10c2.5-2.9,4.5-6.2,6-10c-1.2-0.9-2.5-1.3-4-1c0.2-33.3,0-66.7-0.5-100c-1.1-2.4-1.9-4.9-2.5-7.5
		c0.7-0.7,1.3-1.3,2-2c-0.6-2.4-1.6-4.5-3-6.5c2.7-1.3,4.7-3.3,6-6c9.1-5.1,17.7-10.9,26-17.5c10.1-4.1,18.8-10.1,26-18
		C390.7,216.2,402,208.7,413.5,201.5z"/>
</g>
<g>
	<path class="st136" d="M385.5,429.5c1,0.3,1.7,1,2,2c-3.6,13.2-7.8,26.2-12.5,39c-4.4,5.5-9.2,10.5-14.5,15c-0.7,4.7-1.3,9.3-2,14
		c-2.8-6.4-6.3-12.4-10.5-18c-0.7-1.7-0.7-3.3,0-5c4.4-13.9,8.4-27.9,12-42c0.3,5.7,0.7,11.3,1,17c2.7-3.3,5.9-5.9,9.5-8
		c1.1,0.1,2.1,0,3-0.5c0.7-1.8,1.7-3.3,3-4.5C379.2,435.2,382.2,432.2,385.5,429.5z"/>
</g>
<g>
	<path class="st137" d="M316.5,430.5c0.7,0.3,1.3,0.7,2,1c6,0,12,0,18,0c0.7,0,1,0.3,1,1s0,1.3,0,2c-7,0-14,0-21,0
		C316.5,433.2,316.5,431.8,316.5,430.5z"/>
</g>
<g>
	<path class="st138" d="M347.5,388.5c0.8,1.4,1.8,2.8,3,4c-1.1,0.3-1.8,1.1-2,2.5c-3.8,12.6-7.4,25.1-11,37.5c0-0.7-0.3-1-1-1
		C340.3,417.2,344,402.9,347.5,388.5z"/>
</g>
<g>
	<path class="st139" d="M336.5,378.5c0,1,0,2,0,3c-3.1,2.9-5.6,6.2-7.5,10c-4.4,13.1-7.9,26.4-10.5,40c-0.7-0.3-1.3-0.7-2-1
		c2.9-11.3,5.7-22.6,8.5-34C327.1,389.3,330.9,383.3,336.5,378.5z"/>
</g>
<g>
	<path class="st140" d="M385.5,429.5c-3.3,2.7-6.3,5.7-9,9c-0.9,0.1-1.5-0.2-2-1c-3.5-6.1-6.5-12.5-9-19c5.1-9.6,10.3-19.3,15.5-29
		c1-1.8,2.1-2.1,3.5-1c1.5,5,3.7,9.7,6.5,14C392.8,412.3,390.9,421.3,385.5,429.5z"/>
</g>
<g>
	<path class="st141" d="M347.5,388.5c-3.5,14.4-7.2,28.7-11,43c-6,0-12,0-18,0c2.6-13.6,6.1-26.9,10.5-40c1.9-3.8,4.4-7.1,7.5-10
		c1.9-1,3.9-1.2,6-0.5C344.4,383.4,346.1,385.9,347.5,388.5z"/>
</g>
<g>
	<path class="st142" d="M387.5,431.5c-0.3-1-1-1.7-2-2c5.4-8.2,7.3-17.2,5.5-27c-2.8-4.3-5-9-6.5-14c-1.4-1.1-2.5-0.8-3.5,1
		c-5.2,9.7-10.4,19.4-15.5,29c2.5,6.5,5.5,12.9,9,19c0.5,0.8,1.1,1.1,2,1c-1.3,1.2-2.3,2.7-3,4.5c-0.9,0.5-1.9,0.6-3,0.5
		c0.6-1,1.3-2,2-3c-3.6-6.9-6.9-13.9-10-21c6.2-12.8,13.2-25.1,21-37C395.4,397.9,396.7,414.3,387.5,431.5z"/>
</g>
<g>
	<path class="st143" d="M350.5,392.5c-1.2-1.2-2.2-2.6-3-4c-1.4-2.6-3.1-5.1-5-7.5c-2.1-0.7-4.1-0.5-6,0.5c0-1,0-2,0-3
		c9.7-8.7,19.7-17.2,30-25.5c1.4-0.8,2.8-0.6,4,0.5c2.2,3.7,4.3,7.3,6.5,11c3.3-4.8,6.3-9.8,9-15c-4.1,16-8.4,32-13,48
		c-9,8.3-18,16.7-27,25c2.6-6.5,5.8-12.8,9.5-19C353.6,400,351.9,396.3,350.5,392.5z"/>
</g>
<g>
	<path class="st144" d="M343.5,464.5c0.1-0.5,0.4-0.9,1-1c1.3,11.8,1.3,23.5,0,35C344.8,487,344.5,475.7,343.5,464.5z"/>
</g>
<g>
	<path class="st145" d="M316.5,502.5c1-3.3,1.6-6.6,2-10c1.1-3.3,3.1-6.2,6-8.5c5.7-5,11.6-9.8,17.5-14.5c0.7,9.7,0.7,19.3,0,29
		c-6.7,5.6-13.5,10.9-20.5,16c-1.9-0.4-3.4-1.4-4.5-3C316.5,508.5,316.3,505.5,316.5,502.5z"/>
</g>
<g>
	<path class="st146" d="M106.5,281.5c2.8,19.5,5.7,39.2,8.5,59c0.4,2.6,1.2,4.9,2.5,7c0.7,7,1.1,14,1,21c0.9,10.9,2.2,21.5,4,32
		c0,0.3,0,0.7,0,1c2.8,25.3,5.3,50.6,7.5,76c1.1,7.9,4.9,13.9,11.5,18c1.7,3.2,4.4,4.8,8,5c0,1.3,0,2.7,0,4c3-0.3,4.7,1,5,4
		c1,6,2.5,12,4.5,18c1-1.1,1.7-2.5,2-4c2.4,9.3,1.9,18.3-1.5,27c-1.9,2.2-3.6,4.5-5,7c-1,0.7-2,1.3-3,2c0-0.7,0-1.3,0-2
		c2.2-1.8,3.7-4.2,4.5-7c0.7-9,0.7-18,0-27c-2.9-4.4-5.2-9.1-7-14c-0.7-1.8-1.9-3.2-3.5-4c-3-3.7-6.3-7.2-10-10.5
		c-1.7-1.6-3.7-2.4-6-2.5c0-1,0-2,0-3c-5.9-1.2-11.9-2.2-18-3c-2.5,0-4.8,0.5-7,1.5c5.4,0.3,10.7,1,16,2c2.7,1,5.1,2.5,7,4.5
		c-2.9-1.2-5.9-2.2-9-3c-5.1-2.6-10.1-2.6-15,0c-6.5,2.4-10.4,7-11.5,14c-0.5,7.1,0.2,14.1,2,21c1.3,2,2.4,4,3.5,6
		c4.1,9.1,10.1,16.8,18,23c0.3,0.7,0.7,1.3,1,2c-20.9-12.9-29.8-31.5-26.5-56c8.9-19.5,22.6-23.5,41-12c-1-3.9-2-7.9-3-12
		c-3-36.4-6.8-72.8-11.5-109c0.3-2.4,0-4.8-1-7c-0.6,0.1-0.9,0.5-1,1c-8.1,6.5-16.8,12.1-26,17c-1.1-0.9-1.1-1.7,0-2.5
		c3.7-1.8,7-4.2,10-7c1.8-1.1,3.8-1.6,6-1.5c-0.2-1.2,0.1-2.2,1-3c3.1-2.5,6.5-4.5,10-6c-0.4-3.7-0.8-7.3-1-11c-1.1,0.1-2.1,0-3-0.5
		c2-1.2,2.3-2.7,1-4.5c-3.4,2.7-7.1,5.1-11,7c-0.6-0.1-0.9-0.5-1-1c4.4-2.8,8.7-5.8,13-9c-0.7-0.3-1.3-0.7-2-1c-2.7,2.1-5.7,3.4-9,4
		c3.3-2.6,6.6-5.3,10-8C109,317,107,299.3,106.5,281.5z"/>
</g>
<g>
	<path class="st147" d="M114.5,361.5c0.1-0.5,0.4-0.9,1-1c1,2.2,1.3,4.6,1,7C115.8,365.5,115.2,363.5,114.5,361.5z"/>
</g>
<g>
	<path class="st148" d="M133.5,467.5c0.3,0,0.7,0,1,0c9.6,6.1,17.4,14.1,23.5,24c0.5,2,0.7,4,0.5,6c1.2-0.2,2.2,0.1,3,1
		c2.2,6,4.8,11.7,8,17c0,3.9,0.8,7.6,2.5,11c0.7,7.7,0.7,15.3,0,23c-0.8,1.3-2,2-3.5,2c-1.3-0.2-2.3,0.1-3,1c-1.2-1-2.5-1.8-4-2.5
		c0.5-0.7,1.2-1.2,2-1.5c4.2,2.1,6.9,0.9,8-3.5c-0.9-1.4-1.2-2.9-1-4.5c-1.7,0-3.3,0-5,0c0.5-7.2-0.5-14.2-3-21
		c-2.9-1.8-4.6-4.4-5-8c-0.8-1.3-1.8-2.3-3-3c-0.3-3-2-4.3-5-4c0-1.3,0-2.7,0-4c-3.6-0.2-6.3-1.8-8-5c-3.3-5.6-5.8-11.6-7.5-18
		C132.6,474,132.4,470.7,133.5,467.5z"/>
</g>
<g>
	<path class="st149" d="M360.5,485.5c0.3,5,0,10-1,15c-0.6-0.1-0.9-0.5-1-1C359.2,494.8,359.8,490.2,360.5,485.5z"/>
</g>
<g>
	<path class="st150" d="M300.5,281.5c1.3,0,2.7,0,4,0c0,48,0,96,0,144c-1.1-0.1-2.1,0-3,0.5c0.3,7.6,0.8,15.1,1.5,22.5
		c0.7,1.3,1.3,1.3,2,0c0.4-3.9,2.5-5.6,6.5-5c0.3,1.8,0,3.5-1,5c-2.5,1.8-4.2,4.2-5,7c-2.8,2.3-5.4,4.8-8,7.5c3.1,0.2,6.1,0.7,9,1.5
		c-2.1,5.8-3.6,11.8-4.5,18c-0.5,9.4,2.7,17.4,9.5,24c0,0.7,0,1.3,0,2c-0.3,2.4,0,4.8,1,7c0.8,1.8,2,2.4,3.5,2
		c0.5,0.9,0.6,1.9,0.5,3c2.4-0.3,4.8,0,7,1c-2,2.1-4.4,3.4-7,4c-0.3,20.4,0,40.7,1,61c-1.3,1.6-2.9,2.8-5,3.5
		c-0.8,0.7-1.1,1.5-1,2.5c-2.9,1.9-5.9,3.6-9,5c-5,0.6-10,0.9-15,1c0.6-2.6,1.2-5.3,2-8c0.7-31.4,1.3-62.7,2-94c-0.7-4-1.4-8-2-12
		c1.3-5.7,1.3-11.4,0-17c0.5-1,1-2,1.5-3c1.3,0.5,2.8,0.5,4.5,0c0.2-2.1-0.2-4.1-1-6c-2.1-0.7-3.7-1.9-5-3.5
		c0.7-53.4,1.3-106.9,2-160.5c3.6-0.9,7.3-1.3,11-1c0.3-1.5-0.1-2.8-1-4c-4.3,1.3-8.6,1.3-13,0c4.3-2.6,9-3.6,14-3
		c0.3-1.5-0.1-2.8-1-4c-6,2.9-12.3,3.7-19,2.5c-1.3-0.4-1.9-1.2-2-2.5C287.2,283.9,293.9,283.6,300.5,281.5z"/>
</g>
<g>
	<path class="st151" d="M103.5,490.5c2,0,4,0,6,0c0.4,3.1,1.1,6.1,2,9c-2.6,1.1-4.7,2.7-6.5,5c-1.4,5.6-1.9,11.2-1.5,17
		c-1.3,0.2-2.5-0.2-3.5-1c-0.6,2.7-0.4,5.4,0.5,8c0.2,1.7,0,3.4-0.5,5c-0.4-1.3-1.3-1.9-2.5-2c-1.1-2-2.2-4-3.5-6
		c-1.8-6.9-2.5-13.9-2-21C93.1,497.5,97,492.9,103.5,490.5z"/>
</g>
<g>
	<path class="st152" d="M145.5,504.5c-0.2,1.6,0.1,3.1,1,4.5c-1.3-0.1-2.3,0.1-3,0.5c-5-5.7-10.3-11-16-16c-1.9-2-4.3-3.5-7-4.5
		c-5.3-1-10.6-1.7-16-2c2.2-1,4.5-1.5,7-1.5c6.1,0.8,12.1,1.8,18,3c0,1,0,2,0,3c2.3,0.1,4.3,0.9,6,2.5
		C139.2,497.3,142.5,500.8,145.5,504.5z"/>
</g>
<g>
	<path class="st153" d="M343.5,464.5c1,11.2,1.3,22.5,1,34c-7.1,6.3-14.5,12.5-22,18.5c-1.7,0.7-3.3,0.7-5,0c-2.3-2.7-4.3-5.6-6-8.5
		c0-0.7,0-1.3,0-2c2-1,3.6-2.3,5-4c-0.2,3,0,6,0.5,9c1.1,1.6,2.6,2.6,4.5,3c7-5.1,13.8-10.4,20.5-16c0.7-9.7,0.7-19.3,0-29
		c-5.9,4.7-11.8,9.5-17.5,14.5c-2.9,2.3-4.9,5.2-6,8.5c0.2-4.4,1.6-8.4,4-12c-0.1,0.7,0,1.4,0.5,2
		C329.7,476.3,336.6,470.3,343.5,464.5z"/>
</g>
<g>
	<path class="st154" d="M118.5,490.5c3.1,0.8,6.1,1.8,9,3c5.7,5,11,10.3,16,16c1.3,2.7,2.7,5.3,4,8c0.1,0.7,0,1.4-0.5,2
		c-1.5-1.9-3.4-3.4-5.5-4.5c-0.8-1-1.2-2.2-1-3.5c-1,0-2,0-3,0c-2.3-3-5-5.7-8-8c0-1,0-2,0-3c-3.2,0.2-5.2-1.3-6-4.5
		c-1.8-0.2-3.4-0.7-5-1.5c0.5-0.7,1.2-1.2,2-1.5C119.2,492.6,118.6,491.8,118.5,490.5z"/>
</g>
<g>
	<path class="st155" d="M111.5,499.5c0.1,1.6-0.5,2.8-2,3.5c0.7,0.3,1.3,0.7,2,1c-2.4,2.6-2.6,5.4-0.5,8.5c0.7,4.3,0.7,8.7,0,13
		c-1.7,1.7-2.5,3.7-2.5,6c-1-2.5-2.8-4.2-5.5-5c-1,0.3-1.5,1-1.5,2c-0.3,0-0.7,0-1,0c-0.9-2.6-1.1-5.3-0.5-8c1,0.8,2.2,1.2,3.5,1
		c-0.4-5.8,0.1-11.4,1.5-17C106.8,502.2,108.9,500.6,111.5,499.5z"/>
</g>
<g>
	<path class="st156" d="M128.5,503.5c-0.7-0.1-1.4,0-2,0.5c-0.3,12.3,0.1,24.6,1,37c-1.6,0.8-2.6,1.9-3,3.5c-4.6-1.4-8.2-4.1-11-8
		c1,0,1.7-0.5,2-1.5c-2.5-2.5-2.5-5,0-7.5c-2.6-7-2.6-14,0-21c0.1-2.4-0.9-4.2-3-5.5c0.8-1,1.2-2.2,1-3.5
		C119.1,498.1,124.1,500.1,128.5,503.5z"/>
</g>
<g>
	<path class="st157" d="M137.5,511.5c1,0,2,0,3,0c-0.2,1.3,0.2,2.5,1,3.5c2.1,1.1,4,2.6,5.5,4.5c0.5-0.6,0.6-1.3,0.5-2
		c0.3,0,0.7,0,1,0c0.1,1.7,0.5,3.4,1,5c0.3,1.5-0.1,2.8-1,4c-1.7-1.8-3.7-3.2-6-4c-1.1-3.1-2.4-6.1-4-9
		C138.2,512.8,137.8,512.2,137.5,511.5z"/>
</g>
<g>
	<path class="st158" d="M118.5,490.5c0.1,1.2,0.7,2.1,2,2.5c-0.8,0.3-1.5,0.8-2,1.5c1.6,0.8,3.2,1.3,5,1.5c0.8,3.2,2.8,4.7,6,4.5
		c0,1,0,2,0,3c-0.3,0-0.7,0-1,0c-4.4-3.4-9.4-5.4-15-6c0.2,1.3-0.2,2.5-1,3.5c2.1,1.3,3.1,3.1,3,5.5c-2.6,7-2.6,14,0,21
		c-2.5,2.5-2.5,5,0,7.5c-0.3,1-1,1.5-2,1.5c-1.3-1-2.7-2-4-3c0.2-1-0.2-1.7-1-2c0-2.3,0.8-4.3,2.5-6c0.7-4.3,0.7-8.7,0-13
		c-2.1-3.1-1.9-5.9,0.5-8.5c-0.7-0.3-1.3-0.7-2-1c1.5-0.7,2.1-1.9,2-3.5c-0.9-2.9-1.6-5.9-2-9c-2,0-4,0-6,0
		C108.4,487.9,113.4,487.9,118.5,490.5z"/>
</g>
<g>
	<path class="st159" d="M145.5,504.5c1.6,0.8,2.8,2.2,3.5,4c1.8,4.9,4.1,9.6,7,14c0.7,9,0.7,18,0,27c-0.8,2.8-2.3,5.2-4.5,7
		c-1,0.6-2,1.3-3,2c-0.3-0.5-0.7-1-1-1.5c8.8-12.9,9.2-26,1-39.5c-0.3,0-0.7,0-1,0c-1.3-2.7-2.7-5.3-4-8c0.7-0.4,1.7-0.6,3-0.5
		C145.6,507.6,145.3,506.1,145.5,504.5z"/>
</g>
<g>
	<path class="st160" d="M316.5,525.5c3,0.2,6,0.5,9,1c0.2,17,0,34-0.5,51c-1.9,1.2-1.7,2.2,0.5,3c-1,1.6-1,3.3,0,5
		c-1.4-0.2-2.7,0-4,0.5c-3,2.8-6.3,5-10,6.5c-0.1-1,0.2-1.8,1-2.5c2.1-0.7,3.7-1.9,5-3.5C316.5,566.2,316.2,545.9,316.5,525.5z"/>
</g>
<g>
	<path class="st161" d="M128.5,503.5c0.3,0,0.7,0,1,0c3,2.3,5.7,5,8,8c0.3,0.7,0.7,1.3,1,2c-1,0-1.7,0.5-2,1.5
		c0.3,8.1,1,16.6,2,25.5c1.7,0,3.3,0,5,0c0-5,0-10,0-15c1.8,1.5,2.4,3.5,2,6c1.3,0,2.7,0,4,0c-0.4,3.4,0.2,6.4,2,9
		c-2.6,15.2-11.6,21-27,17.5c-0.9-0.3-1.6-0.8-2-1.5c4.7,0.2,9.3,0,14-0.5c-1.3-0.7-1.3-1.3,0-2c-3.3-0.3-6.7-0.7-10-1
		c-2.5-0.6-4.5-1.8-6-3.5c5.2,2.1,10.6,2.4,16,1c3.9-1.3,3.9-2.8,0-4.5c-4-0.5-8-1-12-1.5c0.4-1.6,1.4-2.7,3-3.5
		c-0.9-12.4-1.3-24.7-1-37C127.1,503.5,127.8,503.4,128.5,503.5z"/>
</g>
<g>
	<path class="st162" d="M138.5,513.5c1.6,2.9,2.9,5.9,4,9c0.1,1.1,0.4,2.1,1,3c0,5,0,10,0,15c-1.7,0-3.3,0-5,0
		c-1-8.9-1.7-17.4-2-25.5C136.8,514,137.5,513.5,138.5,513.5z"/>
</g>
<g>
	<path class="st163" d="M108.5,531.5c0.8,0.3,1.2,1,1,2c-1.6,0-3-0.6-4-2c-0.8,0.5-1.1,1.1-1,2c-1.8-1.2-2.8-2.8-3-5
		c0-1,0.5-1.7,1.5-2C105.7,527.3,107.5,529,108.5,531.5z"/>
</g>
<g>
	<path class="st164" d="M142.5,522.5c2.3,0.8,4.3,2.2,6,4c0.9-1.2,1.3-2.5,1-4c2.9,5.8,3.6,11.8,2,18c-1.8-2.6-2.4-5.6-2-9
		c-1.3,0-2.7,0-4,0c0.4-2.5-0.2-4.5-2-6C142.9,524.6,142.6,523.6,142.5,522.5z"/>
</g>
<g>
	<path class="st165" d="M100.5,528.5c0.3,0,0.7,0,1,0c0.2,2.2,1.2,3.8,3,5c3.7,7,9,12.4,16,16c1.5,1.7,3.5,2.9,6,3.5
		c3.3,0.3,6.7,0.7,10,1c-1.3,0.7-1.3,1.3,0,2c-4.7,0.5-9.3,0.7-14,0.5c-2.2-1-4.6-1.6-7-2c-7.9-6.2-13.9-13.9-18-23
		c1.2,0.1,2.1,0.7,2.5,2C100.5,531.9,100.7,530.2,100.5,528.5z"/>
</g>
<g>
	<path class="st166" d="M109.5,533.5c1.3,1,2.7,2,4,3c2.8,3.9,6.4,6.6,11,8c4.4,1.1,8.4,3.1,12,6c-5.4,1.4-10.8,1.1-16-1
		c-7-3.6-12.3-9-16-16c-0.1-0.9,0.2-1.5,1-2C106.5,532.9,107.9,533.5,109.5,533.5z"/>
</g>
<g>
	<path class="st167" d="M124.5,544.5c4,0.5,8,1,12,1.5c3.9,1.7,3.9,3.2,0,4.5C132.9,547.6,128.9,545.6,124.5,544.5z"/>
</g>
<g>
	<path class="st168" d="M374.5,558.5c-6,6.8-12.7,13-20,18.5c-10.6,7.8-21.6,15-33,21.5c0.2-1.2,0.9-2.2,2-3c5.6-2.9,10.6-6.6,15-11
		c5.1-2.1,9.8-4.9,14-8.5c1.5-1.1,2.2-2.6,2-4.5c-1.7-0.2-3.4,0-5,0.5c-3.8,3-7.6,5.8-11.5,8.5c-1-0.3-1.5-1-1.5-2
		c1-1.6,2.5-2.6,4.5-3c0.5-0.9,0.6-1.9,0.5-3c1.3,0,2.7,0,4,0c0-1,0-2,0-3c4-0.5,7.5-2.2,10.5-5c0.5-2,0.7-4,0.5-6c1.6,0,3,0.6,4,2
		c2.2-2.6,4.9-4.6,8-6c0.7,0.3,1.3,0.7,2,1c-3.2,1.8-6.1,4.2-8.5,7c-0.5,0.9-0.6,1.9-0.5,3c-4-0.7-5.7,1-5,5c6.3-2.2,11-6.2,14-12
		C371.8,558.5,373.2,558.5,374.5,558.5z"/>
</g>
<g>
	<path class="st169" d="M148.5,517.5c8.2,13.5,7.8,26.6-1,39.5c0.3,0.5,0.7,1,1,1.5c1-0.7,2-1.4,3-2c0,0.7,0,1.3,0,2
		c-1.2,1.8-2.8,2.8-5,3c-0.7-0.9-1.3-1.9-2-3c-3.5,1.5-7.1,2.2-11,2c-4-0.2-8-0.5-12-1c-1.9-0.6-3.6-1.6-5-3c-0.3-0.7-0.7-1.3-1-2
		c2.4,0.4,4.8,1,7,2c0.4,0.7,1.1,1.2,2,1.5c15.4,3.5,24.4-2.3,27-17.5c1.6-6.2,0.9-12.2-2-18C149,520.9,148.6,519.2,148.5,517.5z"/>
</g>
<g>
	<path class="st170" d="M146.5,561.5c-8.6,3.1-16.9,2.4-25-2c4,0.5,8,0.8,12,1c3.9,0.2,7.5-0.5,11-2
		C145.2,559.6,145.8,560.6,146.5,561.5z"/>
</g>
<g>
	<path class="st171" d="M159.5,549.5c3.2,3.3,6.9,6.1,11,8.5c32.4,19.4,66.8,34.4,103,45c6.7,0.5,13.3,0.7,20,0.5
		c4.4-1.8,9.1-2.5,14-2c0-1,0-2,0-3c1.8-0.3,3.5,0,5,1c-0.2,0.3-0.3,0.7-0.5,1c-2.9,3-6.1,5.3-9.5,7c-7.9,2.2-15.9,3-24,2.5
		c-11.2-2.4-22.2-5.6-33-9.5c-0.9-1.2-1.3-2.5-1-4c-3.7,1.3-7.4,1.2-11-0.5c-15-6.5-29.6-13.5-44-21c-1.2-0.7-2.2-0.6-3,0.5
		c-10.7-6.3-21.4-12.7-32-19C155.9,554,157.6,551.7,159.5,549.5z"/>
</g>
<g>
	<path class="st172" d="M168.5,551.5c3.5,3.1,7.5,5.5,12,7c7,5.1,14.7,9.1,23,12c7,4.2,14.3,7.8,22,11c0.8,0.5,1.1,1.1,1,2
		c-21.3-8.5-41.6-18.8-61-31C166.2,551.6,167.2,551.3,168.5,551.5z"/>
</g>
<g>
	<path class="st173" d="M154.5,508.5c1.2,0.7,2.2,1.7,3,3c0.4,3.6,2.1,6.2,5,8c2.5,6.8,3.5,13.8,3,21c1.7,0,3.3,0,5,0
		c-0.2,1.6,0.1,3.1,1,4.5c-1.1,4.4-3.8,5.6-8,3.5c-0.8,0.3-1.5,0.8-2,1.5c1.5,0.7,2.8,1.5,4,2.5c19.4,12.2,39.7,22.5,61,31
		c3.8,1.4,7.5,3.2,11,5.5c8.3,3.2,16.6,6,25,8.5c9.3,3,19,4.3,29,4c1.3,0,2,0.7,2,2c-6.7,0.2-13.3,0-20-0.5
		c-36.2-10.6-70.6-25.6-103-45c-4.1-2.4-7.8-5.2-11-8.5c3.4-8.7,3.9-17.7,1.5-27c-0.3,1.5-1,2.9-2,4
		C157,520.5,155.5,514.5,154.5,508.5z"/>
</g>
<g>
	<path class="st174" d="M321.5,598.5c-5.1,4.1-10.8,7.4-17,10c-0.3-0.8-1-1.2-2-1c3.4-1.7,6.6-4,9.5-7c0.2-0.3,0.3-0.7,0.5-1
		c-1.5-1-3.2-1.3-5-1c0,1,0,2,0,3c-4.9-0.5-9.6,0.2-14,2c0-1.3-0.7-2-2-2c4-0.8,7.6-2.1,11-4c3.1-1.4,6.1-3.1,9-5
		c3.7-1.5,7-3.7,10-6.5c1.3-0.5,2.6-0.7,4-0.5c1.5-1,3.2-1.7,5-2c0-1,0-2,0-3c2.2-0.1,4.2-0.8,6-2c0,1,0.5,1.7,1.5,2
		c3.9-2.7,7.7-5.5,11.5-8.5c1.6-0.5,3.3-0.7,5-0.5c0.2,1.9-0.5,3.4-2,4.5c-4.2,3.6-8.9,6.4-14,8.5c-4.4,4.4-9.4,8.1-15,11
		C322.4,596.3,321.7,597.3,321.5,598.5z"/>
</g>
<g>
	<path class="st175" d="M226.5,583.5c2.4-0.1,4.7,0.3,7,1c4.1,2.2,8.4,3.9,13,5c2.8,1.4,5.8,2.4,9,3c3.6,1.9,7.2,3.5,11,5
		c-1.3,0-2.7,0-4,0c-8.4-2.5-16.7-5.3-25-8.5C234,586.7,230.3,584.9,226.5,583.5z"/>
</g>
<g>
	<path class="st176" d="M262.5,597.5c1.3,0,2.7,0,4,0c4.6,0.7,9.3,1.3,14,2c2.5,0,4.9-0.3,7-1c5-0.1,10-0.4,15-1
		c-3.4,1.9-7,3.2-11,4C281.5,601.8,271.8,600.5,262.5,597.5z"/>
</g>
<g>
	<path class="st177" d="M186.5,575.5c0.8-1.1,1.8-1.2,3-0.5c14.4,7.5,29,14.5,44,21c3.6,1.7,7.3,1.8,11,0.5c-0.3,1.5,0.1,2.8,1,4
		c10.8,3.9,21.8,7.1,33,9.5c8.1,0.5,16.1-0.3,24-2.5c1-0.2,1.7,0.2,2,1c-13.3,5-26.6,5.2-40,0.5
		C237.4,600.3,211.4,589.1,186.5,575.5z"/>
</g>
</svg>
