<?xml version="1.0" encoding="UTF-8"?>
<!DOCTYPE svg PUBLIC "-//W3C//DTD SVG 1.1//EN" "http://www.w3.org/Graphics/SVG/1.1/DTD/svg11.dtd">
<svg xmlns="http://www.w3.org/2000/svg" version="1.1" width="575px" height="678px" style="shape-rendering:geometricPrecision; text-rendering:geometricPrecision; image-rendering:optimizeQuality; fill-rule:evenodd; clip-rule:evenodd" xmlns:xlink="http://www.w3.org/1999/xlink">
<g><path style="opacity:1" fill="#fefefe" d="M -0.5,-0.5 C 191.167,-0.5 382.833,-0.5 574.5,-0.5C 574.5,225.5 574.5,451.5 574.5,677.5C 382.833,677.5 191.167,677.5 -0.5,677.5C -0.5,451.5 -0.5,225.5 -0.5,-0.5 Z"/></g>
<g><path style="opacity:1" fill="#27231f" d="M 379.5,49.5 C 377.396,51.0987 375.396,52.932 373.5,55C 372.833,55.6667 372.167,55.6667 371.5,55C 379.188,39.3092 389.854,25.9759 403.5,15C 384.199,14.9935 365.699,18.8268 348,26.5C 340.283,39.2725 333.117,52.2725 326.5,65.5C 330.478,50.2118 337.144,36.2118 346.5,23.5C 366.652,14.9694 387.652,11.136 409.5,12C 396.772,21.7209 386.605,33.5542 379,47.5C 378.308,48.4368 378.475,49.1034 379.5,49.5 Z"/></g>
<g><path style="opacity:1" fill="#6ebb3e" d="M 379.5,49.5 C 382.779,46.8876 385.779,43.8876 388.5,40.5C 390.404,40.2624 391.738,39.2624 392.5,37.5C 401.59,29.7762 411.59,23.2762 422.5,18C 443.135,20.3174 461.802,27.6507 478.5,40C 466.608,42.4453 456.274,47.7786 447.5,56C 450.264,55.4757 452.93,54.6424 455.5,53.5C 455.833,53.5 456.167,53.5 456.5,53.5C 469.981,49.56 483.647,48.7266 497.5,51C 515.274,58.4404 528.107,70.9404 536,88.5C 536.977,90.74 537.477,93.0733 537.5,95.5C 503.619,72.9854 466.286,61.3187 425.5,60.5C 421.833,60.5 418.167,60.5 414.5,60.5C 361.516,51.9087 322.35,71.242 297,118.5C 287.67,136.493 280.003,155.16 274,174.5C 271.849,163.744 269.682,152.91 267.5,142C 268.479,124.619 271.979,107.785 278,91.5C 278.231,98.9427 279.231,106.276 281,113.5C 281.956,116.377 283.289,119.044 285,121.5C 286.286,108.5 287.619,95.5003 289,82.5C 289.823,76.3835 291.157,70.3835 293,64.5C 302.589,53.9563 314.089,46.2897 327.5,41.5C 327.833,42 328.167,42.5 328.5,43C 324.108,55.5358 321.274,68.3691 320,81.5C 322.13,76.9133 323.963,72.2467 325.5,67.5C 326.338,67.1583 326.672,66.4916 326.5,65.5C 333.117,52.2725 340.283,39.2725 348,26.5C 365.699,18.8268 384.199,14.9935 403.5,15C 389.854,25.9759 379.188,39.3092 371.5,55C 372.167,55.6667 372.833,55.6667 373.5,55C 375.396,52.932 377.396,51.0987 379.5,49.5 Z"/></g>
<g><path style="opacity:1" fill="#28251f" d="M 455.5,53.5 C 452.93,54.6424 450.264,55.4757 447.5,56C 456.274,47.7786 466.608,42.4453 478.5,40C 461.802,27.6507 443.135,20.3174 422.5,18C 411.59,23.2762 401.59,29.7762 392.5,37.5C 400.856,28.6548 410.523,21.4881 421.5,16C 445.252,18.2517 466.918,26.2517 486.5,40C 474.652,41.5961 463.985,45.9294 454.5,53C 454.728,53.3988 455.062,53.5654 455.5,53.5 Z"/></g>
<g><path style="opacity:1" fill="#58624a" d="M 392.5,37.5 C 391.738,39.2624 390.404,40.2624 388.5,40.5C 389.262,38.7376 390.596,37.7376 392.5,37.5 Z"/></g>
<g><path style="opacity:1" fill="#555e44" d="M 417.5,61.5 C 411.66,62.3512 405.66,63.0179 399.5,63.5C 399.5,63.1667 399.5,62.8333 399.5,62.5C 405.409,61.5447 411.409,61.2114 417.5,61.5 Z"/></g>
<g><path style="opacity:1" fill="#5d8b2f" d="M 425.5,60.5 C 466.286,61.3187 503.619,72.9854 537.5,95.5C 538.738,95.81 538.738,96.31 537.5,97C 526.547,104.127 514.88,105.794 502.5,102C 484.213,91.047 467.046,78.547 451,64.5C 456.411,81.6037 466.244,95.7703 480.5,107C 476.875,112.228 471.875,113.894 465.5,112C 456.28,109.26 447.28,105.927 438.5,102C 424.29,95.0627 410.29,87.896 396.5,80.5C 393.738,78.2753 390.738,76.2753 387.5,74.5C 387.851,76.8632 389.517,78.5298 392.5,79.5C 401.319,86.7416 410.319,93.7416 419.5,100.5C 427.662,107.825 435.995,114.992 444.5,122C 443.498,125.671 441.498,128.671 438.5,131C 432.894,134.636 426.894,137.47 420.5,139.5C 395.749,128.624 371.416,116.957 347.5,104.5C 346.508,104.672 345.842,104.338 345.5,103.5C 343.162,101.496 340.495,100.329 337.5,100C 355.043,117.747 373.71,134.081 393.5,149C 383.373,154.486 372.706,158.153 361.5,160C 364.867,156.297 368.534,152.964 372.5,150C 360.474,148.631 349.307,151.131 339,157.5C 328.698,151.936 318.532,146.269 308.5,140.5C 306.973,140.573 305.973,139.906 305.5,138.5C 303.469,136.478 301.135,134.811 298.5,133.5C 312.283,93.4178 340.283,70.5845 382.5,65C 388.135,64.096 393.802,63.596 399.5,63.5C 405.66,63.0179 411.66,62.3512 417.5,61.5C 420.385,61.8064 423.052,61.4731 425.5,60.5 Z"/></g>
<g><path style="opacity:1" fill="#25211d" d="M 396.5,80.5 C 410.29,87.896 424.29,95.0627 438.5,102C 447.28,105.927 456.28,109.26 465.5,112C 471.875,113.894 476.875,112.228 480.5,107C 466.244,95.7703 456.411,81.6037 451,64.5C 467.046,78.547 484.213,91.047 502.5,102C 514.88,105.794 526.547,104.127 537.5,97C 538.738,96.31 538.738,95.81 537.5,95.5C 537.477,93.0733 536.977,90.74 536,88.5C 528.107,70.9404 515.274,58.4404 497.5,51C 483.647,48.7266 469.981,49.56 456.5,53.5C 467.272,48.2676 478.772,45.6009 491,45.5C 494.29,45.4276 497.456,45.9276 500.5,47C 514.166,54.5893 526,64.4226 536,76.5C 540.108,82.8827 543.274,89.716 545.5,97C 544.48,99.0257 542.813,100.359 540.5,101C 528.062,107.337 515.062,109.004 501.5,106C 484.628,96.8069 469.461,85.3069 456,71.5C 455.333,72.1667 455.333,72.8333 456,73.5C 466.285,85.2402 476.452,97.0735 486.5,109C 481.628,113.628 475.795,116.128 469,116.5C 442.794,108.313 418.627,96.3133 396.5,80.5 Z"/></g>
<g><path style="opacity:1" fill="#34352a" d="M 396.5,80.5 C 395.167,80.1667 393.833,79.8333 392.5,79.5C 389.517,78.5298 387.851,76.8632 387.5,74.5C 390.738,76.2753 393.738,78.2753 396.5,80.5 Z"/></g>
<g><path style="opacity:1" fill="#bdd8a1" d="M 414.5,60.5 C 418.167,60.5 421.833,60.5 425.5,60.5C 423.052,61.4731 420.385,61.8064 417.5,61.5C 411.409,61.2114 405.409,61.5447 399.5,62.5C 357.706,60.8663 326.206,77.8663 305,113.5C 293.913,134.092 285.58,155.758 280,178.5C 278.513,177.845 277.347,176.845 276.5,175.5C 283.235,152.79 292.402,131.124 304,110.5C 321.653,80.7441 347.819,64.2441 382.5,61C 393.161,60.5002 403.828,60.3335 414.5,60.5 Z"/></g>
<g><path style="opacity:1" fill="#26231e" d="M 189.5,111.5 C 181.923,103.421 173.59,96.2541 164.5,90C 146.216,86.7249 128.883,89.3916 112.5,98C 120.67,100.085 128.004,103.752 134.5,109C 140.532,114.698 146.199,120.698 151.5,127C 150.563,127.692 149.897,127.525 149.5,126.5C 137.101,113.62 122.435,104.12 105.5,98C 117.068,92.9218 129.068,89.2551 141.5,87C 149.215,86.2381 156.881,86.5714 164.5,88C 174.311,94.3125 182.644,102.146 189.5,111.5 Z"/></g>
<g><path style="opacity:1" fill="#6ebb3e" d="M 189.5,111.5 C 192.156,115.043 195.156,118.377 198.5,121.5C 198.833,121.5 199.167,121.5 199.5,121.5C 195.896,109.589 189.229,99.9222 179.5,92.5C 184.044,91.344 188.711,91.5107 193.5,93C 203.464,95.4829 213.131,98.8162 222.5,103C 224.788,105.743 226.955,108.577 229,111.5C 232.941,119.719 237.108,127.719 241.5,135.5C 241.402,137.553 242.069,139.22 243.5,140.5C 244.03,142.924 244.864,145.257 246,147.5C 246.256,142.311 245.756,137.311 244.5,132.5C 244.379,125.729 243.046,119.229 240.5,113C 245.094,114.88 249.261,117.713 253,121.5C 263.959,136.709 269.959,153.709 271,172.5C 248.673,153.917 223.506,140.417 195.5,132C 166.703,124.769 138.703,127.103 111.5,139C 99.2884,144.263 87.955,150.763 77.5,158.5C 75.9731,158.427 74.9731,159.094 74.5,160.5C 68.5591,163.78 62.8924,167.447 57.5,171.5C 43.5004,182.67 31.3337,195.67 21,210.5C 20.5034,208.19 20.3367,205.857 20.5,203.5C 23.1652,186.837 29.6652,171.837 40,158.5C 43.2023,156.428 46.7023,154.928 50.5,154C 57.5695,152.155 64.5695,150.655 71.5,149.5C 73.5,149.5 75.5,149.5 77.5,149.5C 79.5273,149.662 81.5273,149.495 83.5,149C 74.5538,145.23 65.2205,143.064 55.5,142.5C 65.4825,129.019 77.8159,118.186 92.5,110C 100.669,109.472 108.669,110.472 116.5,113C 124.986,115.882 133.319,119.049 141.5,122.5C 143.849,124.341 146.515,125.674 149.5,126.5C 149.897,127.525 150.563,127.692 151.5,127C 146.199,120.698 140.532,114.698 134.5,109C 128.004,103.752 120.67,100.085 112.5,98C 128.883,89.3916 146.216,86.7249 164.5,90C 173.59,96.2541 181.923,103.421 189.5,111.5 Z"/></g>
<g><path style="opacity:1" fill="#27241e" d="M 241.5,135.5 C 237.108,127.719 232.941,119.719 229,111.5C 226.955,108.577 224.788,105.743 222.5,103C 213.131,98.8162 203.464,95.4829 193.5,93C 188.711,91.5107 184.044,91.344 179.5,92.5C 173.724,89.1378 174.224,87.8045 181,88.5C 196.429,89.9761 210.929,94.4761 224.5,102C 232.417,112 238.083,123.167 241.5,135.5 Z"/></g>
<g><path style="opacity:1" fill="#302f26" d="M 179.5,92.5 C 189.229,99.9222 195.896,109.589 199.5,121.5C 199.167,121.5 198.833,121.5 198.5,121.5C 193.918,110.665 187.585,100.998 179.5,92.5 Z"/></g>
<g><path style="opacity:1" fill="#25221d" d="M 419.5,100.5 C 426.268,104.753 432.934,109.253 439.5,114C 443.195,116.7 446.528,119.7 449.5,123C 447.27,127.236 444.27,130.903 440.5,134C 434.275,138.28 427.609,141.78 420.5,144.5C 395.303,132.408 370.97,119.075 347.5,104.5C 371.416,116.957 395.749,128.624 420.5,139.5C 426.894,137.47 432.894,134.636 438.5,131C 441.498,128.671 443.498,125.671 444.5,122C 435.995,114.992 427.662,107.825 419.5,100.5 Z"/></g>
<g><path style="opacity:1" fill="#3a3f30" d="M 199.5,121.5 C 200.848,122.527 201.348,123.86 201,125.5C 199.812,124.437 199.312,123.103 199.5,121.5 Z"/></g>
<g><path style="opacity:1" fill="#282620" d="M 141.5,122.5 C 133.319,119.049 124.986,115.882 116.5,113C 108.669,110.472 100.669,109.472 92.5,110C 77.8159,118.186 65.4825,129.019 55.5,142.5C 65.2205,143.064 74.5538,145.23 83.5,149C 81.5273,149.495 79.5273,149.662 77.5,149.5C 75.4375,148.224 73.1042,147.39 70.5,147C 63.841,146.12 57.1744,145.286 50.5,144.5C 61.4914,128.678 75.4914,116.178 92.5,107C 110.239,107.858 126.572,113.025 141.5,122.5 Z"/></g>
<g><path style="opacity:1" fill="#5d8b2f" d="M 136.5,156.5 C 139.11,151.891 142.11,147.558 145.5,143.5C 146.29,142.206 147.29,141.039 148.5,140C 125.194,155.976 105.86,175.976 90.5,200C 84.2151,201.355 77.8818,201.689 71.5,201C 71.0426,200.586 70.7093,200.086 70.5,199.5C 73.7078,191.208 76.7078,182.874 79.5,174.5C 81.1769,170.828 82.8435,167.161 84.5,163.5C 86.1667,160.833 87.8333,158.167 89.5,155.5C 91.1815,153.992 93.1815,152.992 95.5,152.5C 110.629,145.846 126.296,140.679 142.5,137C 169.65,132.537 195.317,136.871 219.5,150C 233.895,158.198 247.228,167.865 259.5,179C 243.697,178.106 227.863,177.273 212,176.5C 201.91,176.595 191.91,177.595 182,179.5C 181.167,179.167 180.333,178.833 179.5,178.5C 185.347,167.144 190.847,155.811 196,144.5C 182.226,158.736 169.893,174.07 159,190.5C 149.703,197.299 140.869,204.633 132.5,212.5C 124.077,211.528 116.411,208.695 109.5,204C 118.144,187.868 127.144,172.035 136.5,156.5 Z"/></g>
<g><path style="opacity:1" fill="#bfdba3" d="M 388.5,380.5 C 388.663,382.857 388.497,385.19 388,387.5C 387.831,375.993 387.331,364.659 386.5,353.5C 387.813,269.361 349.146,212.861 270.5,184C 249.518,163.67 225.185,148.67 197.5,139C 161.538,129.078 127.538,133.578 95.5,152.5C 93.1815,152.992 91.1815,153.992 89.5,155.5C 87.1815,155.992 85.1815,156.992 83.5,158.5C 80.5152,159.326 77.8485,160.659 75.5,162.5C 73.3023,162.591 72.9689,161.925 74.5,160.5C 76.0269,160.573 77.0269,159.906 77.5,158.5C 95.5286,148.154 114.529,139.988 134.5,134C 169.656,126.804 202.656,132.471 233.5,151C 247.533,159.348 260.866,168.682 273.5,179C 305.201,192.712 332.368,212.546 355,238.5C 374.04,263.938 384.707,292.605 387,324.5C 388.354,343.138 388.854,361.804 388.5,380.5 Z"/></g>
<g><path style="opacity:1" fill="#6ebb3e" d="M 352.5,168.5 C 350.413,169.585 349.08,171.251 348.5,173.5C 346.45,175.237 344.617,177.237 343,179.5C 342.333,180.167 342.333,180.833 343,181.5C 345.996,179.267 348.829,176.934 351.5,174.5C 353.404,174.262 354.738,173.262 355.5,171.5C 365.546,165.488 375.879,159.822 386.5,154.5C 398.689,156.032 410.689,158.532 422.5,162C 426.112,163.139 429.446,164.806 432.5,167C 420.515,169.258 409.848,174.092 400.5,181.5C 398.391,182.391 396.391,183.558 394.5,185C 396.391,185.203 398.057,184.703 399.5,183.5C 404.158,182.911 408.491,181.578 412.5,179.5C 424.207,175.658 436.207,173.825 448.5,174C 456.442,176.969 463.775,180.969 470.5,186C 477.532,192.697 484.198,199.697 490.5,207C 481.568,205.872 472.568,205.539 463.5,206C 454.461,207.629 445.794,210.129 437.5,213.5C 423.535,204.783 408.535,198.283 392.5,194C 366.59,188.687 340.59,184.021 314.5,180C 324.688,168.412 337.022,160.079 351.5,155C 356.095,153.607 360.761,153.274 365.5,154C 360.566,158.426 356.233,163.26 352.5,168.5 Z"/></g>
<g><path style="opacity:1" fill="#34392c" d="M 77.5,158.5 C 77.0269,159.906 76.0269,160.573 74.5,160.5C 74.9731,159.094 75.9731,158.427 77.5,158.5 Z"/></g>
<g><path style="opacity:1" fill="#26231e" d="M 71.5,149.5 C 64.5695,150.655 57.5695,152.155 50.5,154C 46.7023,154.928 43.2023,156.428 40,158.5C 29.6652,171.837 23.1652,186.837 20.5,203.5C 19.5233,206.287 19.19,209.287 19.5,212.5C 32.169,211.366 44.5023,208.7 56.5,204.5C 63.1991,189.737 71.8657,176.404 82.5,164.5C 73.1019,178.279 64.4352,192.612 56.5,207.5C 43.1373,211.706 29.4706,214.373 15.5,215.5C 17.3568,192.624 25.6902,172.458 40.5,155C 50.542,151.371 60.8754,149.537 71.5,149.5 Z"/></g>
<g><path style="opacity:1" fill="#5d8b2f" d="M 83.5,158.5 C 84.3764,158.369 85.0431,158.702 85.5,159.5C 84.0476,160.94 83.0476,162.606 82.5,164.5C 71.8657,176.404 63.1991,189.737 56.5,204.5C 44.5023,208.7 32.169,211.366 19.5,212.5C 19.19,209.287 19.5233,206.287 20.5,203.5C 20.3367,205.857 20.5034,208.19 21,210.5C 31.3337,195.67 43.5004,182.67 57.5,171.5C 63.5388,168.481 69.5388,165.481 75.5,162.5C 77.8485,160.659 80.5152,159.326 83.5,158.5 Z"/></g>
<g><path style="opacity:1" fill="#3a3f2b" d="M 89.5,155.5 C 87.8333,158.167 86.1667,160.833 84.5,163.5C 83.8333,163.833 83.1667,164.167 82.5,164.5C 83.0476,162.606 84.0476,160.94 85.5,159.5C 85.0431,158.702 84.3764,158.369 83.5,158.5C 85.1815,156.992 87.1815,155.992 89.5,155.5 Z"/></g>
<g><path style="opacity:1" fill="#869a6e" d="M 74.5,160.5 C 72.9689,161.925 73.3023,162.591 75.5,162.5C 69.5388,165.481 63.5388,168.481 57.5,171.5C 62.8924,167.447 68.5591,163.78 74.5,160.5 Z"/></g>
<g><path style="opacity:1" fill="#26221d" d="M 145.5,143.5 C 136.568,150.929 128.068,158.929 120,167.5C 110.41,177.753 101.576,188.586 93.5,200C 85.1262,203.068 76.4595,204.234 67.5,203.5C 69.5915,192.991 73.5915,183.324 79.5,174.5C 76.7078,182.874 73.7078,191.208 70.5,199.5C 70.7093,200.086 71.0426,200.586 71.5,201C 77.8818,201.689 84.2151,201.355 90.5,200C 105.86,175.976 125.194,155.976 148.5,140C 147.29,141.039 146.29,142.206 145.5,143.5 Z"/></g>
<g><path style="opacity:1" fill="#221f1a" d="M 386.5,353.5 C 384.98,338.777 382.813,322.777 380,305.5C 371.241,260.761 347.074,227.261 307.5,205C 296.744,199.116 285.744,194.116 274.5,190C 281.228,202.959 282.728,216.459 279,230.5C 276.578,235.343 274.245,240.01 272,244.5C 273,245.5 274,246.5 275,247.5C 284.667,233.833 296.333,222.167 310,212.5C 310.315,213.908 309.982,215.241 309,216.5C 307.723,218.747 306.223,220.747 304.5,222.5C 304.414,221.504 304.748,220.671 305.5,220C 304.833,219.333 304.167,219.333 303.5,220C 296.625,227.371 289.959,234.871 283.5,242.5C 282.167,243.167 281.167,244.167 280.5,245.5C 278.5,247.671 276.666,250.004 275,252.5C 272.372,250.874 270.039,248.874 268,246.5C 265.272,248.892 262.272,250.892 259,252.5C 257.277,250.283 255.777,247.95 254.5,245.5C 253.833,244.5 253.167,243.5 252.5,242.5C 246.749,232.672 240.249,223.339 233,214.5C 232.617,215.056 232.117,215.389 231.5,215.5C 230.65,213.506 230.15,211.506 230,209.5C 242.318,220.308 252.151,232.975 259.5,247.5C 280.966,230.927 284.299,211.261 269.5,188.5C 241.043,195.233 215.043,207.067 191.5,224C 167.391,244.688 151.224,270.522 143,301.5C 139.165,315.21 135.665,328.876 132.5,342.5C 136.112,303.804 149.612,269.137 173,238.5C 191.026,218.899 212.526,204.399 237.5,195C 247.147,191.452 256.814,188.118 266.5,185C 265.275,183.437 263.775,182.27 262,181.5C 235.604,189.946 211.437,202.446 189.5,219C 167.697,237.09 152.197,259.59 143,286.5C 135.838,307.642 131.505,329.309 130,351.5C 130.232,350.263 130.732,349.263 131.5,348.5C 131.196,351.522 130.696,354.522 130,357.5C 129.667,356.167 129.333,354.833 129,353.5C 128.809,355.708 128.309,357.708 127.5,359.5C 128.882,272.484 169.882,213.317 250.5,182C 230.836,179.033 211.169,178.866 191.5,181.5C 187.347,184.09 183.18,184.09 179,181.5C 177.581,183.336 176.414,185.336 175.5,187.5C 186.988,189.346 198.321,191.346 209.5,193.5C 193.875,191.787 178.209,191.287 162.5,192C 150.261,199.739 140.594,209.905 133.5,222.5C 133.667,222.833 133.833,223.167 134,223.5C 138.713,222.232 143.546,221.565 148.5,221.5C 156.684,221.174 164.684,221.508 172.5,222.5C 168.14,223.007 163.807,223.673 159.5,224.5C 157.022,223.836 154.355,223.503 151.5,223.5C 142.089,224.142 132.756,224.975 123.5,226C 126.358,222.642 129.025,219.142 131.5,215.5C 123.791,214.097 116.457,211.597 109.5,208C 108.313,206.981 107.313,205.814 106.5,204.5C 114.582,187.13 124.582,171.13 136.5,156.5C 127.144,172.035 118.144,187.868 109.5,204C 116.411,208.695 124.077,211.528 132.5,212.5C 140.869,204.633 149.703,197.299 159,190.5C 169.893,174.07 182.226,158.736 196,144.5C 190.847,155.811 185.347,167.144 179.5,178.5C 180.333,178.833 181.167,179.167 182,179.5C 191.91,177.595 201.91,176.595 212,176.5C 227.863,177.273 243.697,178.106 259.5,179C 247.228,167.865 233.895,158.198 219.5,150C 195.317,136.871 169.65,132.537 142.5,137C 126.296,140.679 110.629,145.846 95.5,152.5C 127.538,133.578 161.538,129.078 197.5,139C 225.185,148.67 249.518,163.67 270.5,184C 349.146,212.861 387.813,269.361 386.5,353.5 Z"/></g>
<g><path style="opacity:1" fill="#5b852f" d="M 191.5,181.5 C 191.833,182.167 192.167,182.833 192.5,183.5C 191.127,183.343 189.793,183.51 188.5,184C 197.856,186.057 206.523,189.557 214.5,194.5C 212.708,194.634 211.042,194.301 209.5,193.5C 198.321,191.346 186.988,189.346 175.5,187.5C 176.414,185.336 177.581,183.336 179,181.5C 183.18,184.09 187.347,184.09 191.5,181.5 Z"/></g>
<g><path style="opacity:1" fill="#f3f2f2" d="M 187.5,156.5 C 188.043,156.56 188.376,156.893 188.5,157.5C 181.501,166.495 176.335,176.495 173,187.5C 169.927,188.617 166.76,188.784 163.5,188C 170.175,176.481 178.175,165.981 187.5,156.5 Z"/></g>
<g><path style="opacity:1" fill="#4b4944" d="M 400.5,181.5 C 400.167,182.167 399.833,182.833 399.5,183.5C 398.057,184.703 396.391,185.203 394.5,185C 396.391,183.558 398.391,182.391 400.5,181.5 Z"/></g>
<g><path style="opacity:1" fill="#211f19" d="M 192.5,183.5 C 202.893,183.573 211.893,187.073 219.5,194C 217.866,194.494 216.199,194.66 214.5,194.5C 206.523,189.557 197.856,186.057 188.5,184C 189.793,183.51 191.127,183.343 192.5,183.5 Z"/></g>
<g><path style="opacity:1" fill="#5d8b2f" d="M 231.5,215.5 C 232.263,217.368 233.263,219.035 234.5,220.5C 240.603,235.977 245.603,251.811 249.5,268C 243.965,281.511 236.798,294.011 228,305.5C 217.494,285.203 205.66,265.87 192.5,247.5C 191.928,245.745 191.094,244.078 190,242.5C 189.346,241.304 188.846,241.304 188.5,242.5C 190.184,246.171 191.518,249.837 192.5,253.5C 193.404,254.209 193.737,255.209 193.5,256.5C 198.996,275.814 204.496,295.147 210,314.5C 211.815,320.078 212.815,325.745 213,331.5C 208.968,340.981 202.301,347.647 193,351.5C 186.6,341.276 180.434,330.942 174.5,320.5C 169.834,311.877 165.168,303.211 160.5,294.5C 159.872,291.91 158.705,289.577 157,287.5C 161.229,302.191 165.895,316.857 171,331.5C 175.801,346.498 178.135,361.831 178,377.5C 176.5,381.241 174,382.907 170.5,382.5C 163.403,369.263 153.403,358.93 140.5,351.5C 140.167,350.5 139.5,349.833 138.5,349.5C 137.206,348.71 136.039,347.71 135,346.5C 134.833,346.833 134.667,347.167 134.5,347.5C 145.523,365.213 154.69,383.88 162,403.5C 164.333,416.831 160.833,428.331 151.5,438C 150.251,438.74 149.251,438.573 148.5,437.5C 128.863,415.012 121.863,389.012 127.5,359.5C 128.309,357.708 128.809,355.708 129,353.5C 129.333,354.833 129.667,356.167 130,357.5C 130.696,354.522 131.196,351.522 131.5,348.5C 131.205,346.265 131.539,344.265 132.5,342.5C 135.665,328.876 139.165,315.21 143,301.5C 151.224,270.522 167.391,244.688 191.5,224C 215.043,207.067 241.043,195.233 269.5,188.5C 284.299,211.261 280.966,230.927 259.5,247.5C 252.151,232.975 242.318,220.308 230,209.5C 230.15,211.506 230.65,213.506 231.5,215.5 Z"/></g>
<g><path style="opacity:1" fill="#5d8b2f" d="M 386.5,353.5 C 387.331,364.659 387.831,375.993 388,387.5C 388.497,385.19 388.663,382.857 388.5,380.5C 388.833,380.5 389.167,380.5 389.5,380.5C 389.234,384.571 389.567,388.571 390.5,392.5C 390.154,393.696 389.654,393.696 389,392.5C 388.281,417.632 377.114,436.299 355.5,448.5C 354.365,450.088 353.031,450.421 351.5,449.5C 344.508,438.701 342.674,427.035 346,414.5C 356.654,395.354 369.154,377.521 383.5,361C 381.86,360.652 380.527,361.152 379.5,362.5C 377.847,362.66 376.514,363.326 375.5,364.5C 361.696,370.457 350.363,379.623 341.5,392C 337.937,392.123 335.77,390.29 335,386.5C 335.322,377.515 337.322,368.849 341,360.5C 350.273,338.961 360.273,317.961 371,297.5C 368.406,299.704 366.572,302.37 365.5,305.5C 359.077,314.678 352.411,323.678 345.5,332.5C 338.523,341.148 331.523,349.814 324.5,358.5C 315.069,353.501 309.402,345.667 307.5,335C 317.485,310.53 328.152,286.364 339.5,262.5C 341.071,260.365 342.404,258.032 343.5,255.5C 344.946,253.296 345.78,250.963 346,248.5C 328.532,267.629 312.198,287.629 297,308.5C 290.193,296.08 285.359,282.914 282.5,269C 283.953,262.923 286.119,257.09 289,251.5C 294.192,241.779 299.358,232.113 304.5,222.5C 306.223,220.747 307.723,218.747 309,216.5C 309.982,215.241 310.315,213.908 310,212.5C 296.333,222.167 284.667,233.833 275,247.5C 274,246.5 273,245.5 272,244.5C 274.245,240.01 276.578,235.343 279,230.5C 282.728,216.459 281.228,202.959 274.5,190C 285.744,194.116 296.744,199.116 307.5,205C 347.074,227.261 371.241,260.761 380,305.5C 382.813,322.777 384.98,338.777 386.5,353.5 Z"/></g>
<g><path style="opacity:1" fill="#6ebb3e" d="M 127.5,359.5 C 121.863,389.012 128.863,415.012 148.5,437.5C 139.249,433.779 131.749,427.779 126,419.5C 120.589,410.678 116.256,401.344 113,391.5C 113.331,377.51 116.497,364.177 122.5,351.5C 122.5,351.167 122.5,350.833 122.5,350.5C 124.237,348.36 125.404,346.027 126,343.5C 117.124,350.544 110.291,359.211 105.5,369.5C 96.2185,350.925 92.3852,331.258 94,310.5C 100.661,301.673 108.161,293.673 116.5,286.5C 118.749,285.92 120.415,284.587 121.5,282.5C 125.524,279.469 129.524,276.469 133.5,273.5C 135.094,272.017 136.76,270.517 138.5,269C 122.33,272.418 107.996,279.585 95.5,290.5C 95.5357,283.336 97.0357,276.336 100,269.5C 103.119,261.261 106.786,253.261 111,245.5C 112.261,242.789 114.094,240.622 116.5,239C 130.579,233.072 144.913,228.239 159.5,224.5C 163.807,223.673 168.14,223.007 172.5,222.5C 173.473,222.013 174.473,221.513 175.5,221C 166.324,220.176 157.324,220.343 148.5,221.5C 143.546,221.565 138.713,222.232 134,223.5C 133.833,223.167 133.667,222.833 133.5,222.5C 140.594,209.905 150.261,199.739 162.5,192C 178.209,191.287 193.875,191.787 209.5,193.5C 211.042,194.301 212.708,194.634 214.5,194.5C 216.199,194.66 217.866,194.494 219.5,194C 211.893,187.073 202.893,183.573 192.5,183.5C 192.167,182.833 191.833,182.167 191.5,181.5C 211.169,178.866 230.836,179.033 250.5,182C 169.882,213.317 128.882,272.484 127.5,359.5 Z"/></g>
<g><path style="opacity:1" fill="#282520" d="M 441.5,213.5 C 440.167,213.5 438.833,213.5 437.5,213.5C 445.794,210.129 454.461,207.629 463.5,206C 472.568,205.539 481.568,205.872 490.5,207C 484.198,199.697 477.532,192.697 470.5,186C 463.775,180.969 456.442,176.969 448.5,174C 436.207,173.825 424.207,175.658 412.5,179.5C 423.837,174.265 435.837,171.765 448.5,172C 463.454,177.276 475.954,186.109 486,198.5C 489,202.167 492,205.833 495,209.5C 495.432,210.6 494.932,211.267 493.5,211.5C 481.234,209.583 468.901,209.083 456.5,210C 451.242,210.614 446.242,211.781 441.5,213.5 Z"/></g>
<g><path style="opacity:1" fill="#6ebb3e" d="M 437.5,213.5 C 438.833,213.5 440.167,213.5 441.5,213.5C 441.833,213.5 442.167,213.5 442.5,213.5C 458.322,214.694 473.989,217.527 489.5,222C 493.531,223.432 497.364,225.266 501,227.5C 509.385,241.822 514.885,257.156 517.5,273.5C 517.167,274.833 516.833,276.167 516.5,277.5C 508.416,271.804 499.416,268.471 489.5,267.5C 488.304,267.846 488.304,268.346 489.5,269C 490.745,269.791 492.078,270.291 493.5,270.5C 493.973,271.906 494.973,272.573 496.5,272.5C 505.366,278.856 513.533,286.19 521,294.5C 521.667,295.833 522.333,297.167 523,298.5C 525.463,318.218 522.296,336.885 513.5,354.5C 512.883,354.389 512.383,354.056 512,353.5C 509.299,344.554 506.132,335.887 502.5,327.5C 495.858,301.743 486.358,277.077 474,253.5C 464.777,237.445 452.61,224.112 437.5,213.5 Z"/></g>
<g><path style="opacity:1" fill="#23201b" d="M 325.5,67.5 C 323.963,72.2467 322.13,76.9133 320,81.5C 321.274,68.3691 324.108,55.5358 328.5,43C 328.167,42.5 327.833,42 327.5,41.5C 314.089,46.2897 302.589,53.9563 293,64.5C 291.157,70.3835 289.823,76.3835 289,82.5C 287.619,95.5003 286.286,108.5 285,121.5C 283.289,119.044 281.956,116.377 281,113.5C 279.231,106.276 278.231,98.9427 278,91.5C 271.979,107.785 268.479,124.619 267.5,142C 269.682,152.91 271.849,163.744 274,174.5C 280.003,155.16 287.67,136.493 297,118.5C 322.35,71.242 361.516,51.9087 414.5,60.5C 403.828,60.3335 393.161,60.5002 382.5,61C 347.819,64.2441 321.653,80.7441 304,110.5C 292.402,131.124 283.235,152.79 276.5,175.5C 277.347,176.845 278.513,177.845 280,178.5C 285.58,155.758 293.913,134.092 305,113.5C 326.206,77.8663 357.706,60.8663 399.5,62.5C 399.5,62.8333 399.5,63.1667 399.5,63.5C 393.802,63.596 388.135,64.096 382.5,65C 340.283,70.5845 312.283,93.4178 298.5,133.5C 301.135,134.811 303.469,136.478 305.5,138.5C 304.761,138.369 304.094,138.536 303.5,139C 312,147.5 320.5,156 329,164.5C 331.445,163.023 333.612,161.19 335.5,159C 326.047,153.361 317.047,147.194 308.5,140.5C 318.532,146.269 328.698,151.936 339,157.5C 349.307,151.131 360.474,148.631 372.5,150C 368.534,152.964 364.867,156.297 361.5,160C 372.706,158.153 383.373,154.486 393.5,149C 373.71,134.081 355.043,117.747 337.5,100C 340.495,100.329 343.162,101.496 345.5,103.5C 343.158,103.775 343.158,104.608 345.5,106C 363.67,120.674 381.67,135.508 399.5,150.5C 398.335,151.584 397.002,152.417 395.5,153C 411.044,154.848 425.711,159.514 439.5,167C 425.625,169.609 412.625,174.443 400.5,181.5C 409.848,174.092 420.515,169.258 432.5,167C 429.446,164.806 426.112,163.139 422.5,162C 410.689,158.532 398.689,156.032 386.5,154.5C 375.879,159.822 365.546,165.488 355.5,171.5C 358.366,168.479 361.7,165.979 365.5,164C 360.567,163.811 356.234,165.311 352.5,168.5C 356.233,163.26 360.566,158.426 365.5,154C 360.761,153.274 356.095,153.607 351.5,155C 337.022,160.079 324.688,168.412 314.5,180C 340.59,184.021 366.59,188.687 392.5,194C 408.535,198.283 423.535,204.783 437.5,213.5C 452.61,224.112 464.777,237.445 474,253.5C 486.358,277.077 495.858,301.743 502.5,327.5C 496.325,312.806 489.825,298.139 483,283.5C 484.52,299.46 484.853,315.46 484,331.5C 492.44,340.946 501.773,349.279 512,356.5C 512.717,355.956 513.217,355.289 513.5,354.5C 522.296,336.885 525.463,318.218 523,298.5C 522.333,297.167 521.667,295.833 521,294.5C 513.533,286.19 505.366,278.856 496.5,272.5C 507.311,278.35 516.811,286.017 525,295.5C 527.205,314.988 525.205,333.988 519,352.5C 517.822,355.533 516.156,358.199 514,360.5C 502.054,353.168 491.387,344.168 482,333.5C 481.667,317.5 481.333,301.5 481,285.5C 480.817,282.635 480.317,279.969 479.5,277.5C 469.415,256.91 455.415,239.41 437.5,225C 436.668,224.312 436.002,224.479 435.5,225.5C 436.246,226.736 436.579,228.07 436.5,229.5C 436.167,229.5 435.833,229.5 435.5,229.5C 434.94,227.199 434.44,224.866 434,222.5C 417.344,211.395 399.177,204.228 379.5,201C 394.201,211.7 405.201,225.367 412.5,242C 401.376,239.055 390.042,237.055 378.5,236C 393.814,239.993 408.147,246.16 421.5,254.5C 428.329,269.816 432.662,285.816 434.5,302.5C 435.96,292.058 436.627,281.558 436.5,271C 436.209,258.83 435.876,246.663 435.5,234.5C 439.739,257.939 440.406,281.606 437.5,305.5C 436.5,305.5 435.5,305.5 434.5,305.5C 434.665,309.182 434.499,312.848 434,316.5C 430.167,312.667 426.333,308.833 422.5,305C 418.387,303.972 414.387,302.972 410.5,302C 418.158,309.99 424.658,318.823 430,328.5C 429.077,352.602 421.744,374.602 408,394.5C 405.762,383.027 401.095,372.693 394,363.5C 393.601,363.728 393.435,364.062 393.5,364.5C 392.59,362.981 391.757,361.315 391,359.5C 390.667,359.833 390.333,360.167 390,360.5C 389.5,367.158 389.334,373.825 389.5,380.5C 389.167,380.5 388.833,380.5 388.5,380.5C 388.854,361.804 388.354,343.138 387,324.5C 384.707,292.605 374.04,263.938 355,238.5C 332.368,212.546 305.201,192.712 273.5,179C 260.866,168.682 247.533,159.348 233.5,151C 202.656,132.471 169.656,126.804 134.5,134C 114.529,139.988 95.5286,148.154 77.5,158.5C 87.955,150.763 99.2884,144.263 111.5,139C 138.703,127.103 166.703,124.769 195.5,132C 223.506,140.417 248.673,153.917 271,172.5C 269.959,153.709 263.959,136.709 253,121.5C 249.261,117.713 245.094,114.88 240.5,113C 243.046,119.229 244.379,125.729 244.5,132.5C 242.812,124.1 240.478,115.766 237.5,107.5C 243.711,109.445 249.211,113.112 254,118.5C 258.696,124.556 262.363,131.223 265,138.5C 266.95,116.747 271.95,95.747 280,75.5C 279.613,88.4422 281.28,101.109 285,113.5C 284.837,97.3004 286.504,81.3004 290,65.5C 296.212,56.2879 304.045,48.7879 313.5,43C 319.952,39.3582 326.452,35.8582 333,32.5C 330.034,43.3602 327.201,54.3602 324.5,65.5C 324.543,66.4164 324.876,67.0831 325.5,67.5 Z"/></g>
<g><path style="opacity:1" fill="#bdd8a1" d="M 353.5,193.5 C 383.983,192.626 411.983,200.793 437.5,218C 443.009,222.677 448.342,227.51 453.5,232.5C 453.333,232.833 453.167,233.167 453,233.5C 424.71,208.558 391.543,195.225 353.5,193.5 Z"/></g>
<g><path style="opacity:1" fill="#5d8b2f" d="M 435.5,229.5 C 435.5,231.167 435.5,232.833 435.5,234.5C 435.876,246.663 436.209,258.83 436.5,271C 436.627,281.558 435.96,292.058 434.5,302.5C 432.662,285.816 428.329,269.816 421.5,254.5C 408.147,246.16 393.814,239.993 378.5,236C 390.042,237.055 401.376,239.055 412.5,242C 405.201,225.367 394.201,211.7 379.5,201C 399.177,204.228 417.344,211.395 434,222.5C 434.44,224.866 434.94,227.199 435.5,229.5 Z"/></g>
<g><path style="opacity:1" fill="#6ebb3e" d="M 394.5,287.5 C 398.167,290.5 401.5,293.833 404.5,297.5C 413.628,307.141 421.462,317.808 428,329.5C 426.707,350.378 420.04,369.378 408,386.5C 404.63,375.418 398.963,365.751 391,357.5C 393.517,277.788 359.684,219.622 289.5,183C 311.956,182.013 333.956,184.68 355.5,191C 343.49,189.753 332.49,192.42 322.5,199C 336.848,199.358 351.182,200.024 365.5,201C 370.572,201.678 375.572,202.678 380.5,204C 391.385,213.502 398.885,225.002 403,238.5C 390.499,234.381 377.666,232.214 364.5,232C 383.394,238.282 401.394,246.448 418.5,256.5C 426.756,273.526 430.923,291.526 431,310.5C 419.566,297.381 405.732,287.881 389.5,282C 391.373,283.704 393.04,285.537 394.5,287.5 Z"/></g>
<g><path style="opacity:1" fill="#608f31" d="M 334.5,196.5 C 344.208,196.256 353.874,196.756 363.5,198C 352.833,198.667 342.167,198.667 331.5,198C 332.737,197.768 333.737,197.268 334.5,196.5 Z"/></g>
<g><path style="opacity:1" fill="#74766c" d="M 348.5,173.5 C 348.369,174.239 348.536,174.906 349,175.5C 349.671,174.748 350.504,174.414 351.5,174.5C 348.829,176.934 345.996,179.267 343,181.5C 342.333,180.833 342.333,180.167 343,179.5C 344.617,177.237 346.45,175.237 348.5,173.5 Z"/></g>
<g><path style="opacity:1" fill="#333229" d="M 355.5,171.5 C 354.738,173.262 353.404,174.262 351.5,174.5C 352.262,172.738 353.596,171.738 355.5,171.5 Z"/></g>
<g><path style="opacity:1" fill="#53534b" d="M 352.5,168.5 C 351.92,170.749 350.587,172.415 348.5,173.5C 349.08,171.251 350.413,169.585 352.5,168.5 Z"/></g>
<g><path style="opacity:1" fill="#ebebea" d="M 355.5,171.5 C 353.596,171.738 352.262,172.738 351.5,174.5C 350.504,174.414 349.671,174.748 349,175.5C 348.536,174.906 348.369,174.239 348.5,173.5C 350.587,172.415 351.92,170.749 352.5,168.5C 356.234,165.311 360.567,163.811 365.5,164C 361.7,165.979 358.366,168.479 355.5,171.5 Z"/></g>
<g><path style="opacity:1" fill="#4f5443" d="M 244.5,132.5 C 245.756,137.311 246.256,142.311 246,147.5C 244.864,145.257 244.03,142.924 243.5,140.5C 244.473,138.052 244.806,135.385 244.5,132.5 Z"/></g>
<g><path style="opacity:1" fill="#f5f5f5" d="M 305.5,138.5 C 305.973,139.906 306.973,140.573 308.5,140.5C 317.047,147.194 326.047,153.361 335.5,159C 333.612,161.19 331.445,163.023 329,164.5C 320.5,156 312,147.5 303.5,139C 304.094,138.536 304.761,138.369 305.5,138.5 Z"/></g>
<g><path style="opacity:1" fill="#5d8b2f" d="M 298.5,133.5 C 305.474,146.311 314.807,157.145 326.5,166C 321.833,170.667 317.167,175.333 312.5,180C 303.833,180.667 295.167,180.667 286.5,180C 284.82,179.653 283.82,178.653 283.5,177C 286.278,166.053 289.445,155.22 293,144.5C 294.352,140.462 296.186,136.795 298.5,133.5 Z"/></g>
<g><path style="opacity:1" fill="#4e7032" d="M 148.5,221.5 C 157.324,220.343 166.324,220.176 175.5,221C 174.473,221.513 173.473,222.013 172.5,222.5C 164.684,221.508 156.684,221.174 148.5,221.5 Z"/></g>
<g><path style="opacity:1" fill="#5e4631" d="M 252.5,242.5 C 249.768,245.886 248.768,249.886 249.5,254.5C 245.277,242.834 240.277,231.501 234.5,220.5C 233.263,219.035 232.263,217.368 231.5,215.5C 232.117,215.389 232.617,215.056 233,214.5C 240.249,223.339 246.749,232.672 252.5,242.5 Z"/></g>
<g><path style="opacity:1" fill="#5f4731" d="M 304.5,222.5 C 298.252,231.328 292.252,240.328 286.5,249.5C 286.075,246.881 285.075,244.547 283.5,242.5C 289.959,234.871 296.625,227.371 303.5,220C 304.167,219.333 304.833,219.333 305.5,220C 304.748,220.671 304.414,221.504 304.5,222.5 Z"/></g>
<g><path style="opacity:1" fill="#5d8b2f" d="M 479.5,277.5 C 479.5,279.5 479.5,281.5 479.5,283.5C 477.4,295.356 475.4,307.356 473.5,319.5C 470.689,319.174 468.022,318.341 465.5,317C 461.325,314.311 457.325,311.477 453.5,308.5C 453.976,280.749 448.309,254.416 436.5,229.5C 436.579,228.07 436.246,226.736 435.5,225.5C 436.002,224.479 436.668,224.312 437.5,225C 455.415,239.41 469.415,256.91 479.5,277.5 Z"/></g>
<g><path style="opacity:1" fill="#859172" d="M 455.5,235.5 C 457.757,236.562 458.923,238.228 459,240.5C 457.198,239.211 456.031,237.544 455.5,235.5 Z"/></g>
<g><path style="opacity:1" fill="#bed9a2" d="M 132.5,342.5 C 131.539,344.265 131.205,346.265 131.5,348.5C 130.732,349.263 130.232,350.263 130,351.5C 131.505,329.309 135.838,307.642 143,286.5C 152.197,259.59 167.697,237.09 189.5,219C 211.437,202.446 235.604,189.946 262,181.5C 263.775,182.27 265.275,183.437 266.5,185C 256.814,188.118 247.147,191.452 237.5,195C 212.526,204.399 191.026,218.899 173,238.5C 149.612,269.137 136.112,303.804 132.5,342.5 Z"/></g>
<g><path style="opacity:1" fill="#787472" d="M 192.5,247.5 C 192.557,248.609 192.89,249.609 193.5,250.5C 192.596,251.209 192.263,252.209 192.5,253.5C 191.518,249.837 190.184,246.171 188.5,242.5C 188.846,241.304 189.346,241.304 190,242.5C 191.094,244.078 191.928,245.745 192.5,247.5 Z"/></g>
<g><path style="opacity:1" fill="#26231e" d="M 159.5,224.5 C 144.913,228.239 130.579,233.072 116.5,239C 114.094,240.622 112.261,242.789 111,245.5C 106.786,253.261 103.119,261.261 100,269.5C 97.0357,276.336 95.5357,283.336 95.5,290.5C 107.996,279.585 122.33,272.418 138.5,269C 136.76,270.517 135.094,272.017 133.5,273.5C 117.192,277.584 102.692,285.584 90,297.5C 93.0968,276.297 100.43,256.63 112,238.5C 126.744,230.353 142.577,225.686 159.5,224.5 Z"/></g>
<g><path style="opacity:1" fill="#684d36" d="M 343.5,255.5 C 342.404,258.032 341.071,260.365 339.5,262.5C 335.833,268.5 332.167,274.5 328.5,280.5C 326.847,280.34 325.514,279.674 324.5,278.5C 329.814,269.865 336.147,262.199 343.5,255.5 Z"/></g>
<g><path style="opacity:1" fill="#2a2621" d="M 442.5,213.5 C 460.73,213.032 478.397,215.866 495.5,222C 498.759,223.211 501.592,225.044 504,227.5C 509.767,237.698 514.433,248.365 518,259.5C 520.219,266.696 521.219,274.03 521,281.5C 512.324,276.577 503.157,272.911 493.5,270.5C 492.078,270.291 490.745,269.791 489.5,269C 488.304,268.346 488.304,267.846 489.5,267.5C 499.416,268.471 508.416,271.804 516.5,277.5C 516.833,276.167 517.167,274.833 517.5,273.5C 514.885,257.156 509.385,241.822 501,227.5C 497.364,225.266 493.531,223.432 489.5,222C 473.989,217.527 458.322,214.694 442.5,213.5 Z"/></g>
<g><path style="opacity:1" fill="#231f1a" d="M 436.5,229.5 C 448.309,254.416 453.976,280.749 453.5,308.5C 449.293,281.986 443.626,255.653 436.5,229.5 Z"/></g>
<g><path style="opacity:1" fill="#4e6437" d="M 121.5,282.5 C 120.415,284.587 118.749,285.92 116.5,286.5C 117.585,284.413 119.251,283.08 121.5,282.5 Z"/></g>
<g><path style="opacity:1" fill="#5d8a2f" d="M 502.5,327.5 C 506.132,335.887 509.299,344.554 512,353.5C 512.383,354.056 512.883,354.389 513.5,354.5C 513.217,355.289 512.717,355.956 512,356.5C 501.773,349.279 492.44,340.946 484,331.5C 484.853,315.46 484.52,299.46 483,283.5C 489.825,298.139 496.325,312.806 502.5,327.5 Z"/></g>
<g><path style="opacity:1" fill="#5c8730" d="M 394.5,287.5 C 402.087,290.293 409.087,294.126 415.5,299C 412.056,298.914 408.723,298.08 405.5,296.5C 404.893,296.624 404.56,296.957 404.5,297.5C 401.5,293.833 398.167,290.5 394.5,287.5 Z"/></g>
<g><path style="opacity:1" fill="#25211d" d="M 193.5,256.5 C 196.462,262.197 198.962,268.197 201,274.5C 207.638,293.08 213.471,311.913 218.5,331C 212.599,342.401 203.933,350.901 192.5,356.5C 185.446,345.059 179.446,333.059 174.5,320.5C 180.434,330.942 186.6,341.276 193,351.5C 202.301,347.647 208.968,340.981 213,331.5C 212.815,325.745 211.815,320.078 210,314.5C 204.496,295.147 198.996,275.814 193.5,256.5 Z"/></g>
<g><path style="opacity:1" fill="#2c2924" d="M 479.5,283.5 C 479.443,296.911 477.777,310.078 474.5,323C 465.575,321.186 458.575,316.352 453.5,308.5C 457.325,311.477 461.325,314.311 465.5,317C 468.022,318.341 470.689,319.174 473.5,319.5C 475.4,307.356 477.4,295.356 479.5,283.5 Z"/></g>
<g><path style="opacity:1" fill="#27241e" d="M 116.5,286.5 C 108.161,293.673 100.661,301.673 94,310.5C 92.3852,331.258 96.2185,350.925 105.5,369.5C 110.291,359.211 117.124,350.544 126,343.5C 125.404,346.027 124.237,348.36 122.5,350.5C 122.103,349.475 121.437,349.308 120.5,350C 113.1,357.956 107.6,367.122 104,377.5C 93.5001,355.504 89.8334,332.504 93,308.5C 99.7668,299.896 107.6,292.562 116.5,286.5 Z"/></g>
<g><path style="opacity:1" fill="#24201c" d="M 160.5,294.5 C 167.753,312.76 173.92,331.427 179,350.5C 180.486,357.112 181.653,363.779 182.5,370.5C 182.458,378.135 179.458,384.301 173.5,389C 172.833,389.667 172.167,389.667 171.5,389C 160.955,376.627 150.621,364.127 140.5,351.5C 153.403,358.93 163.403,369.263 170.5,382.5C 174,382.907 176.5,381.241 178,377.5C 178.135,361.831 175.801,346.498 171,331.5C 165.895,316.857 161.229,302.191 157,287.5C 158.705,289.577 159.872,291.91 160.5,294.5 Z"/></g>
<g><path style="opacity:1" fill="#6eb93d" d="M 393.5,364.5 C 393.5,364.833 393.5,365.167 393.5,365.5C 397.248,379.231 398.415,393.231 397,407.5C 389.704,423.79 378.537,436.623 363.5,446C 360.904,447.136 358.237,447.969 355.5,448.5C 377.114,436.299 388.281,417.632 389,392.5C 389.654,393.696 390.154,393.696 390.5,392.5C 389.567,388.571 389.234,384.571 389.5,380.5C 389.334,373.825 389.5,367.158 390,360.5C 390.333,360.167 390.667,359.833 391,359.5C 391.757,361.315 392.59,362.981 393.5,364.5 Z"/></g>
<g><path style="opacity:1" fill="#24201c" d="M 138.5,349.5 C 144.311,359.111 150.144,368.778 156,378.5C 171.416,402.529 169.749,425.196 151,446.5C 137.108,439.941 126.441,429.941 119,416.5C 115.083,409.081 111.75,401.414 109,393.5C 108.61,377.84 113.11,363.84 122.5,351.5C 116.497,364.177 113.331,377.51 113,391.5C 116.256,401.344 120.589,410.678 126,419.5C 131.749,427.779 139.249,433.779 148.5,437.5C 149.251,438.573 150.251,438.74 151.5,438C 160.833,428.331 164.333,416.831 162,403.5C 154.69,383.88 145.523,365.213 134.5,347.5C 134.667,347.167 134.833,346.833 135,346.5C 136.039,347.71 137.206,348.71 138.5,349.5 Z"/></g>
<g><path style="opacity:1" fill="#24201c" d="M 375.5,364.5 C 363.813,376.52 351.48,387.853 338.5,398.5C 333.547,394.004 330.88,388.338 330.5,381.5C 333.309,371.572 336.809,361.905 341,352.5C 348.682,336.465 356.849,320.798 365.5,305.5C 366.572,302.37 368.406,299.704 371,297.5C 360.273,317.961 350.273,338.961 341,360.5C 337.322,368.849 335.322,377.515 335,386.5C 335.77,390.29 337.937,392.123 341.5,392C 350.363,379.623 361.696,370.457 375.5,364.5 Z"/></g>
<g><path style="opacity:1" fill="#24211c" d="M 355.5,448.5 C 358.237,447.969 360.904,447.136 363.5,446C 378.537,436.623 389.704,423.79 397,407.5C 398.415,393.231 397.248,379.231 393.5,365.5C 400.547,379.253 403.047,393.92 401,409.5C 393.11,425.722 381.943,439.222 367.5,450C 361.812,453.347 355.812,455.847 349.5,457.5C 345.858,449.863 343.024,441.863 341,433.5C 339.204,423.52 340.871,414.187 346,405.5C 355.726,390.05 366.893,375.717 379.5,362.5C 380.527,361.152 381.86,360.652 383.5,361C 369.154,377.521 356.654,395.354 346,414.5C 342.674,427.035 344.508,438.701 351.5,449.5C 353.031,450.421 354.365,450.088 355.5,448.5 Z"/></g>
<g><path style="opacity:1" fill="#25201c" d="M 234.5,220.5 C 240.277,231.501 245.277,242.834 249.5,254.5C 250.392,258.345 251.392,262.179 252.5,266C 252.05,267.55 251.883,269.05 252,270.5C 259.714,279.946 269.547,284.28 281.5,283.5C 281.833,283 282.167,282.5 282.5,282C 280.926,276.537 279.592,271.037 278.5,265.5C 279.674,264.486 280.34,263.153 280.5,261.5C 282.358,259.117 283.692,256.45 284.5,253.5C 285.674,252.486 286.34,251.153 286.5,249.5C 292.252,240.328 298.252,231.328 304.5,222.5C 299.358,232.113 294.192,241.779 289,251.5C 286.119,257.09 283.953,262.923 282.5,269C 285.359,282.914 290.193,296.08 297,308.5C 312.198,287.629 328.532,267.629 346,248.5C 345.78,250.963 344.946,253.296 343.5,255.5C 336.147,262.199 329.814,269.865 324.5,278.5C 317.79,286.544 311.457,294.877 305.5,303.5C 304.833,303.5 304.5,303.833 304.5,304.5C 301.687,308.098 298.853,311.765 296,315.5C 290.84,306.693 286.84,297.36 284,287.5C 282.644,286.62 281.144,286.286 279.5,286.5C 281.33,294.53 280.33,302.197 276.5,309.5C 279.372,324.367 288.039,333.701 302.5,337.5C 302.343,336.127 302.51,334.793 303,333.5C 306.512,325.812 310.012,318.145 313.5,310.5C 314.11,309.609 314.443,308.609 314.5,307.5C 319.418,298.665 324.085,289.665 328.5,280.5C 332.167,274.5 335.833,268.5 339.5,262.5C 328.152,286.364 317.485,310.53 307.5,335C 309.402,345.667 315.069,353.501 324.5,358.5C 331.523,349.814 338.523,341.148 345.5,332.5C 339.249,342.6 332.749,352.6 326,362.5C 321.275,362.551 317.275,360.551 314,356.5C 311.333,352.5 308.667,348.5 306,344.5C 304.637,348.761 304.304,353.095 305,357.5C 308.779,358.447 310.945,360.78 311.5,364.5C 309.028,370.252 307.362,376.252 306.5,382.5C 306.833,383.5 307.167,384.5 307.5,385.5C 311.214,385.881 313.214,387.881 313.5,391.5C 311.897,396.266 310.063,400.932 308,405.5C 307.501,409.486 307.334,413.486 307.5,417.5C 312.196,416.869 314.863,418.869 315.5,423.5C 315.213,426.865 314.046,429.865 312,432.5C 310.838,438.445 310.338,444.445 310.5,450.5C 322.584,452.668 325.417,459.001 319,469.5C 316.734,476.074 315.901,482.74 316.5,489.5C 322.259,491.188 325.925,494.855 327.5,500.5C 324.153,508.39 321.82,516.556 320.5,525C 320.667,526.5 320.833,528 321,529.5C 326.617,529.951 329.784,532.951 330.5,538.5C 329.557,543.829 327.724,548.829 325,553.5C 322.711,559.382 322.211,565.382 323.5,571.5C 330.794,573.958 335.461,578.791 337.5,586C 336.022,592.117 333.855,597.95 331,603.5C 329.695,610.126 329.362,616.792 330,623.5C 331.572,621.437 333.405,620.771 335.5,621.5C 334.39,626.111 334.223,630.778 335,635.5C 338.171,628.662 342.505,622.662 348,617.5C 345.174,625.317 343.34,633.484 342.5,642C 342.667,643.833 342.833,645.667 343,647.5C 343.671,646.748 344.504,646.414 345.5,646.5C 344.167,647.933 342.667,649.267 341,650.5C 340.333,645.833 340.333,641.167 341,636.5C 342.011,633.143 342.677,629.809 343,626.5C 338.12,633.794 334.787,641.794 333,650.5C 332.753,641.977 332.92,633.477 333.5,625C 330.506,625.358 328.673,627.192 328,630.5C 326.894,635.769 326.227,641.103 326,646.5C 322.258,641.683 319.591,636.349 318,630.5C 310.807,642.785 312.14,653.785 322,663.5C 328.529,659.212 335.696,656.712 343.5,656C 348.928,650.569 354.928,645.902 361.5,642C 358.628,640.549 355.628,640.382 352.5,641.5C 353.263,640.732 354.263,640.232 355.5,640C 359.833,639.333 364.167,639.333 368.5,640C 360.985,643.846 354.318,648.846 348.5,655C 355.167,655.333 361.833,655.667 368.5,656C 352.029,656.076 336.362,659.576 321.5,666.5C 319.338,663.506 316.672,661.006 313.5,659C 307.18,657.831 300.847,657.164 294.5,657C 293.692,657.308 293.025,657.808 292.5,658.5C 297.34,661.419 302.006,664.586 306.5,668C 300.856,665.683 295.19,663.016 289.5,660C 278.563,655.869 267.563,655.869 256.5,660C 251.261,662.304 245.928,663.97 240.5,665C 241.91,664.632 242.91,663.799 243.5,662.5C 235.443,661.402 227.443,661.235 219.5,662C 221.839,658.814 224.839,656.648 228.5,655.5C 227.71,656.794 226.71,657.961 225.5,659C 233.026,658.168 240.526,658.668 248,660.5C 257.438,657.224 267.105,654.89 277,653.5C 280.527,654.398 284.027,655.398 287.5,656.5C 290.463,654.357 293.796,653.357 297.5,653.5C 297.149,647.738 297.649,642.072 299,636.5C 301.087,632.698 304.254,630.198 308.5,629C 298.239,628.598 291.073,633.098 287,642.5C 288.043,631.378 292.21,621.545 299.5,613C 293.7,614.274 288.7,617.107 284.5,621.5C 289.314,613.756 296.314,609.59 305.5,609C 298.448,615.95 293.615,624.117 291,633.5C 295.685,629.325 301.185,626.991 307.5,626.5C 309.482,626.995 311.482,627.495 313.5,628C 302.674,633.162 297.674,641.662 298.5,653.5C 302.853,652.941 307.186,652.275 311.5,651.5C 310.506,642.32 312.673,633.987 318,626.5C 318.667,625.167 319.333,625.167 320,626.5C 320.72,630.716 322.053,634.716 324,638.5C 326.907,626.727 328.573,614.727 329,602.5C 330.867,597.665 332.034,592.665 332.5,587.5C 332.429,581.015 329.262,577.015 323,575.5C 322.83,581.196 322.33,586.862 321.5,592.5C 317.272,595.354 312.605,597.021 307.5,597.5C 301.077,597.791 294.744,597.458 288.5,596.5C 282.631,595.783 276.964,594.283 271.5,592C 270.403,587.926 269.57,583.76 269,579.5C 265.108,578.794 262.441,580.461 261,584.5C 261.515,590.38 263.348,595.88 266.5,601C 268.783,612.395 272.616,623.228 278,633.5C 278.278,632.584 278.778,631.918 279.5,631.5C 279.461,634.321 278.795,636.988 277.5,639.5C 275.222,630.833 272.055,622.499 268,614.5C 265.954,612.624 264.121,610.624 262.5,608.5C 262.167,608.667 261.833,608.833 261.5,609C 263.488,614.649 263.988,620.482 263,626.5C 261.905,625.307 261.072,623.973 260.5,622.5C 261.156,621.378 261.489,620.045 261.5,618.5C 260.554,613.504 260.054,608.504 260,603.5C 261.512,604.257 262.846,605.257 264,606.5C 264.167,605.833 264.333,605.167 264.5,604.5C 262.971,599.766 261.138,595.1 259,590.5C 257.469,583.23 259.969,577.896 266.5,574.5C 266.833,573.333 267.167,572.167 267.5,571C 265.397,560.529 262.397,550.362 258.5,540.5C 259.211,533.962 262.877,530.295 269.5,529.5C 269.423,525.123 268.923,520.79 268,516.5C 264.937,510.376 262.437,504.042 260.5,497.5C 261.45,492.552 264.45,490.218 269.5,490.5C 269.428,484.399 268.594,478.399 267,472.5C 264.154,467.639 261.988,462.472 260.5,457C 261.654,452.428 264.654,450.261 269.5,450.5C 269.153,440.771 266.486,431.771 261.5,423.5C 262.47,420.53 264.47,418.53 267.5,417.5C 268.503,409.683 267.003,402.35 263,395.5C 261.83,389.495 264.33,386.162 270.5,385.5C 270.436,381.78 269.936,378.114 269,374.5C 266.907,370.645 265.073,366.645 263.5,362.5C 264.469,359.013 266.802,357.68 270.5,358.5C 270.494,353.785 269.994,349.118 269,344.5C 267.287,340.244 265.454,336.078 263.5,332C 264.221,328.805 266.221,327.305 269.5,327.5C 269.664,324.813 269.497,322.146 269,319.5C 268.692,318.692 268.192,318.025 267.5,317.5C 256.901,325.496 245.568,326.996 233.5,322C 230.227,319.681 228.56,316.514 228.5,312.5C 216.849,291.868 205.182,271.202 193.5,250.5C 192.89,249.609 192.557,248.609 192.5,247.5C 205.66,265.87 217.494,285.203 228,305.5C 236.798,294.011 243.965,281.511 249.5,268C 245.603,251.811 240.603,235.977 234.5,220.5 Z"/></g>
<g><path style="opacity:1" fill="#734d3b" d="M 280.5,557.5 C 285.727,558.988 291.06,559.988 296.5,560.5C 295.889,572.087 296.556,583.42 298.5,594.5C 291.343,595.039 284.677,593.706 278.5,590.5C 279.167,579.5 279.833,568.5 280.5,557.5 Z"/></g>
<g><path style="opacity:1" fill="#634131" d="M 308.5,549.5 C 310.912,549.694 311.912,551.027 311.5,553.5C 312.873,553.343 314.207,553.51 315.5,554C 312.383,555.973 309.216,557.807 306,559.5C 305.5,570.828 305.333,582.162 305.5,593.5C 306.791,593.263 307.791,593.596 308.5,594.5C 305.167,594.5 301.833,594.5 298.5,594.5C 296.556,583.42 295.889,572.087 296.5,560.5C 291.06,559.988 285.727,558.988 280.5,557.5C 278.821,557.108 277.154,556.608 275.5,556C 276.167,555.833 276.833,555.667 277.5,555.5C 280.783,556.327 284.116,556.66 287.5,556.5C 287.366,554.708 287.699,553.042 288.5,551.5C 295.224,551.326 301.891,550.659 308.5,549.5 Z"/></g>
<g><path style="opacity:1" fill="#553427" d="M 308.5,594.5 C 307.791,593.596 306.791,593.263 305.5,593.5C 305.333,582.162 305.5,570.828 306,559.5C 309.216,557.807 312.383,555.973 315.5,554C 314.207,553.51 312.873,553.343 311.5,553.5C 311.912,551.027 310.912,549.694 308.5,549.5C 311.694,548.483 314.861,547.15 318,545.5C 318.238,541.778 318.738,538.111 319.5,534.5C 321.841,533.288 324.007,533.622 326,535.5C 326.667,538.5 326.667,541.5 326,544.5C 323.467,549.227 321.801,554.227 321,559.5C 319.882,570.473 319.382,581.473 319.5,592.5C 315.833,593.167 312.167,593.833 308.5,594.5 Z"/></g>
<g><path style="opacity:1" fill="#89604d" d="M 288.5,551.5 C 287.699,553.042 287.366,554.708 287.5,556.5C 284.116,556.66 280.783,556.327 277.5,555.5C 276.833,555.667 276.167,555.833 275.5,556C 277.154,556.608 278.821,557.108 280.5,557.5C 279.833,568.5 279.167,579.5 278.5,590.5C 276.883,589.962 275.216,589.629 273.5,589.5C 271.59,574.117 268.09,559.117 263,544.5C 261.271,538.286 263.438,534.286 269.5,532.5C 270.328,537.132 270.828,541.798 271,546.5C 276.341,549.891 282.174,551.558 288.5,551.5 Z"/></g>
<g><path style="opacity:1" fill="#734e3c" d="M 277.5,509.5 C 283.647,511.312 289.98,511.979 296.5,511.5C 296.5,523.5 296.5,535.5 296.5,547.5C 297.791,547.263 298.791,547.596 299.5,548.5C 292.11,548.764 284.777,548.43 277.5,547.5C 277.5,534.833 277.5,522.167 277.5,509.5 Z"/></g>
<g><path style="opacity:1" fill="#634131" d="M 305.5,501.5 C 305.5,503.167 305.5,504.833 305.5,506.5C 307.527,506.338 309.527,506.505 311.5,507C 310.5,507.5 309.5,508 308.5,508.5C 307.188,521.229 307.188,533.896 308.5,546.5C 305.461,547.01 302.461,547.677 299.5,548.5C 298.791,547.596 297.791,547.263 296.5,547.5C 296.5,535.5 296.5,523.5 296.5,511.5C 289.98,511.979 283.647,511.312 277.5,509.5C 276.527,509.013 275.527,508.513 274.5,508C 277.146,507.503 279.813,507.336 282.5,507.5C 282.5,505.833 282.5,504.167 282.5,502.5C 290.132,503.261 297.799,502.928 305.5,501.5 Z"/></g>
<g><path style="opacity:1" fill="#8d634f" d="M 277.5,460.5 C 277.5,461.833 277.5,463.167 277.5,464.5C 276.448,464.351 275.448,464.517 274.5,465C 275.167,476.333 275.833,487.667 276.5,499C 276.272,499.399 275.938,499.565 275.5,499.5C 272.402,499.413 272.068,499.913 274.5,501C 277.063,502.079 279.729,502.579 282.5,502.5C 282.5,504.167 282.5,505.833 282.5,507.5C 279.813,507.336 277.146,507.503 274.5,508C 275.527,508.513 276.527,509.013 277.5,509.5C 277.5,522.167 277.5,534.833 277.5,547.5C 276.07,547.579 274.736,547.246 273.5,546.5C 272.526,534.764 271.026,523.097 269,511.5C 266.63,507.423 264.797,503.09 263.5,498.5C 264.136,495.206 266.136,493.873 269.5,494.5C 269.231,496.429 269.731,498.095 271,499.5C 271.537,492.137 271.203,484.804 270,477.5C 268.379,470.856 266.213,464.356 263.5,458C 263.585,456.893 263.919,455.893 264.5,455C 266.473,454.505 268.473,454.338 270.5,454.5C 270.5,456.167 270.5,457.833 270.5,459.5C 272.861,459.674 275.194,460.007 277.5,460.5 Z"/></g>
<g><path style="opacity:1" fill="#543427" d="M 308.5,546.5 C 307.188,533.896 307.188,521.229 308.5,508.5C 309.5,508 310.5,507.5 311.5,507C 309.527,506.505 307.527,506.338 305.5,506.5C 305.5,504.833 305.5,503.167 305.5,501.5C 307.954,500.379 310.621,499.546 313.5,499C 313.962,491.408 316.795,490.575 322,496.5C 322.875,497.873 323.375,499.373 323.5,501C 319.326,514.874 316.492,529.041 315,543.5C 312.779,544.406 310.612,545.406 308.5,546.5 Z"/></g>
<g><path style="opacity:1" fill="#613f2f" d="M 292.5,500.5 C 291.856,490.56 291.19,480.56 290.5,470.5C 285.733,469.308 281.066,467.808 276.5,466C 281.499,466.588 286.499,466.421 291.5,465.5C 291.709,464.914 292.043,464.414 292.5,464C 291.584,463.722 290.918,463.222 290.5,462.5C 294.514,462.666 298.514,462.499 302.5,462C 305.191,461.844 307.524,461.011 309.5,459.5C 311.308,458.082 311.975,456.082 311.5,453.5C 316.203,453.536 318.536,455.87 318.5,460.5C 315.501,471.663 313.334,482.996 312,494.5C 310.28,497.095 307.78,498.595 304.5,499C 300.56,500.015 296.56,500.515 292.5,500.5 Z"/></g>
<g><path style="opacity:1" fill="#7e5744" d="M 277.5,460.5 C 281.683,461.907 286.016,462.574 290.5,462.5C 290.918,463.222 291.584,463.722 292.5,464C 292.043,464.414 291.709,464.914 291.5,465.5C 286.499,466.421 281.499,466.588 276.5,466C 281.066,467.808 285.733,469.308 290.5,470.5C 291.19,480.56 291.856,490.56 292.5,500.5C 286.642,500.822 280.975,500.489 275.5,499.5C 275.938,499.565 276.272,499.399 276.5,499C 275.833,487.667 275.167,476.333 274.5,465C 275.448,464.517 276.448,464.351 277.5,464.5C 277.5,463.167 277.5,461.833 277.5,460.5 Z"/></g>
<g><path style="opacity:1" fill="#845c48" d="M 297.5,427.5 C 298.684,428.688 298.684,429.855 297.5,431C 290.47,431.455 283.47,431.455 276.5,431C 278.459,431.931 280.459,432.764 282.5,433.5C 283.821,442.325 283.821,450.991 282.5,459.5C 279.044,459.404 275.877,458.404 273,456.5C 271.81,446.211 269.476,436.211 266,426.5C 264.974,423.407 265.807,421.073 268.5,419.5C 269.244,420.991 269.91,422.491 270.5,424C 279.252,426.951 288.252,428.118 297.5,427.5 Z"/></g>
<g><path style="opacity:1" fill="#634131" d="M 309.5,459.5 C 304.188,460.259 298.855,460.925 293.5,461.5C 289.604,461.353 285.938,460.686 282.5,459.5C 283.821,450.991 283.821,442.325 282.5,433.5C 280.459,432.764 278.459,431.931 276.5,431C 283.47,431.455 290.47,431.455 297.5,431C 298.684,429.855 298.684,428.688 297.5,427.5C 299.888,426.651 302.221,425.651 304.5,424.5C 306.256,423.448 306.923,421.781 306.5,419.5C 310.513,418.832 312.513,420.499 312.5,424.5C 312.534,427.433 311.701,430.1 310,432.5C 309.5,441.494 309.334,450.494 309.5,459.5 Z"/></g>
<g><path style="opacity:1" fill="#6d4938" d="M 304.5,424.5 C 296.685,425.709 289.018,425.709 281.5,424.5C 282.117,424.389 282.617,424.056 283,423.5C 283.831,416.808 283.664,410.142 282.5,403.5C 278.923,402.477 275.589,400.977 272.5,399C 277.484,399.66 282.484,399.494 287.5,398.5C 286.051,397.828 284.718,397.161 283.5,396.5C 290.287,396.647 296.954,395.813 303.5,394C 305.192,392.599 305.859,390.766 305.5,388.5C 307.5,388.5 309.5,388.5 311.5,388.5C 312.021,392.719 310.854,396.386 308,399.5C 306.148,407.744 304.982,416.078 304.5,424.5 Z"/></g>
<g><path style="opacity:1" fill="#694635" d="M 281.5,394.5 C 282.117,394.389 282.617,394.056 283,393.5C 283.187,386.919 283.687,380.419 284.5,374C 279.69,373.509 275.356,371.842 271.5,369C 274.119,369.083 276.786,369.25 279.5,369.5C 279.5,368.167 279.5,366.833 279.5,365.5C 287.324,365.968 294.991,365.135 302.5,363C 303.326,358.849 305.159,358.349 308,361.5C 308.167,362.667 308.333,363.833 308.5,365C 306.284,373.745 304.451,382.578 303,391.5C 295.937,394.438 288.77,395.438 281.5,394.5 Z"/></g>
<g><path style="opacity:1" fill="#875f4b" d="M 272.5,333.5 C 278.301,335.067 284.301,336.067 290.5,336.5C 288.085,337.814 285.252,338.481 282,338.5C 278.424,338.25 274.924,338.083 271.5,338C 275.03,340.717 279.03,342.217 283.5,342.5C 283.5,349.5 283.5,356.5 283.5,363.5C 285.099,363.232 286.432,363.566 287.5,364.5C 282.773,364.476 278.107,364.31 273.5,364C 275.345,365.128 277.345,365.628 279.5,365.5C 279.5,366.833 279.5,368.167 279.5,369.5C 276.786,369.25 274.119,369.083 271.5,369C 275.356,371.842 279.69,373.509 284.5,374C 283.687,380.419 283.187,386.919 283,393.5C 282.617,394.056 282.117,394.389 281.5,394.5C 279.143,394.337 276.81,394.503 274.5,395C 277.393,396.149 280.393,396.649 283.5,396.5C 284.718,397.161 286.051,397.828 287.5,398.5C 282.484,399.494 277.484,399.66 272.5,399C 275.589,400.977 278.923,402.477 282.5,403.5C 283.664,410.142 283.831,416.808 283,423.5C 282.617,424.056 282.117,424.389 281.5,424.5C 278.123,424.041 274.789,423.374 271.5,422.5C 270.574,412.273 268.574,402.273 265.5,392.5C 265.328,389.669 266.661,388.002 269.5,387.5C 270.167,389.5 270.833,391.5 271.5,393.5C 272.858,384.035 271.358,375.035 267,366.5C 266.505,364.527 266.338,362.527 266.5,360.5C 268.981,360.323 270.814,361.323 272,363.5C 272.569,352.404 270.402,341.904 265.5,332C 266.032,329.98 267.365,329.147 269.5,329.5C 269.088,331.973 270.088,333.306 272.5,333.5 Z"/></g>
<g><path style="opacity:1" fill="#6c4937" d="M 290.5,336.5 C 294.753,339.292 299.42,340.958 304.5,341.5C 303.628,348.274 302.295,354.941 300.5,361.5C 296.25,362.883 291.917,363.883 287.5,364.5C 286.432,363.566 285.099,363.232 283.5,363.5C 283.5,356.5 283.5,349.5 283.5,342.5C 279.03,342.217 275.03,340.717 271.5,338C 274.924,338.083 278.424,338.25 282,338.5C 285.252,338.481 288.085,337.814 290.5,336.5 Z"/></g>
<g><path style="opacity:1" fill="#845d4a" d="M 272.5,333.5 C 271.421,327.876 270.421,322.209 269.5,316.5C 270.833,314.5 272.5,312.833 274.5,311.5C 276.534,320.359 280.868,327.859 287.5,334C 282.481,334.498 277.481,334.332 272.5,333.5 Z"/></g>
<g><path style="opacity:1" fill="#b88059" d="M 245.5,284.5 C 259.952,287.069 264.119,295.069 258,308.5C 253.487,315.675 246.987,319.675 238.5,320.5C 233.674,319.672 230.341,317.005 228.5,312.5C 228.833,311.5 229.5,310.833 230.5,310.5C 234.782,318.008 240.782,319.508 248.5,315C 254.123,311.084 257.457,305.751 258.5,299C 256.858,290.864 251.858,287.031 243.5,287.5C 243.932,286.29 244.599,285.29 245.5,284.5 Z"/></g>
<g><path style="opacity:1" fill="#bc835a" d="M 305.5,303.5 C 306.962,304.458 308.295,305.624 309.5,307C 311.134,307.494 312.801,307.66 314.5,307.5C 314.443,308.609 314.11,309.609 313.5,310.5C 310.575,310.54 307.909,309.707 305.5,308C 304.663,306.989 304.33,305.822 304.5,304.5C 304.5,303.833 304.833,303.5 305.5,303.5 Z"/></g>
<g><path style="opacity:1" fill="#f6c103" d="M 243.5,287.5 C 251.858,287.031 256.858,290.864 258.5,299C 257.457,305.751 254.123,311.084 248.5,315C 240.782,319.508 234.782,318.008 230.5,310.5C 235.075,303.023 239.408,295.356 243.5,287.5 Z"/></g>
<g><path style="opacity:1" fill="#604731" d="M 304.5,304.5 C 304.33,305.822 304.663,306.989 305.5,308C 307.909,309.707 310.575,310.54 313.5,310.5C 310.012,318.145 306.512,325.812 303,333.5C 302.51,334.793 302.343,336.127 302.5,337.5C 288.039,333.701 279.372,324.367 276.5,309.5C 280.33,302.197 281.33,294.53 279.5,286.5C 281.144,286.286 282.644,286.62 284,287.5C 286.84,297.36 290.84,306.693 296,315.5C 298.853,311.765 301.687,308.098 304.5,304.5 Z"/></g>
<g><path style="opacity:1" fill="#f2bf04" d="M 324.5,278.5 C 325.514,279.674 326.847,280.34 328.5,280.5C 324.085,289.665 319.418,298.665 314.5,307.5C 312.801,307.66 311.134,307.494 309.5,307C 308.295,305.624 306.962,304.458 305.5,303.5C 311.457,294.877 317.79,286.544 324.5,278.5 Z"/></g>
<g><path style="opacity:1" fill="#604732" d="M 238.5,320.5 C 246.987,319.675 253.487,315.675 258,308.5C 264.119,295.069 259.952,287.069 245.5,284.5C 246.84,279.987 248.673,275.653 251,271.5C 256.639,279.978 264.472,284.978 274.5,286.5C 277.624,311.215 266.624,323.048 241.5,322C 240.263,321.768 239.263,321.268 238.5,320.5 Z"/></g>
<g><path style="opacity:1" fill="#604731" d="M 249.5,254.5 C 256.594,264.646 266.26,268.313 278.5,265.5C 279.592,271.037 280.926,276.537 282.5,282C 282.167,282.5 281.833,283 281.5,283.5C 269.547,284.28 259.714,279.946 252,270.5C 251.883,269.05 252.05,267.55 252.5,266C 251.392,262.179 250.392,258.345 249.5,254.5 Z"/></g>
<g><path style="opacity:1" fill="#b98159" d="M 252.5,242.5 C 253.167,243.5 253.833,244.5 254.5,245.5C 253.883,245.611 253.383,245.944 253,246.5C 251.892,253.397 254.392,258.564 260.5,262C 267.325,265.437 273.992,265.271 280.5,261.5C 280.34,263.153 279.674,264.486 278.5,265.5C 266.26,268.313 256.594,264.646 249.5,254.5C 248.768,249.886 249.768,245.886 252.5,242.5 Z"/></g>
<g><path style="opacity:1" fill="#f4c007" d="M 254.5,245.5 C 255.777,247.95 257.277,250.283 259,252.5C 262.272,250.892 265.272,248.892 268,246.5C 270.039,248.874 272.372,250.874 275,252.5C 276.666,250.004 278.5,247.671 280.5,245.5C 283.135,247.339 284.468,250.006 284.5,253.5C 283.692,256.45 282.358,259.117 280.5,261.5C 273.992,265.271 267.325,265.437 260.5,262C 254.392,258.564 251.892,253.397 253,246.5C 253.383,245.944 253.883,245.611 254.5,245.5 Z"/></g>
<g><path style="opacity:1" fill="#b88156" d="M 283.5,242.5 C 285.075,244.547 286.075,246.881 286.5,249.5C 286.34,251.153 285.674,252.486 284.5,253.5C 284.468,250.006 283.135,247.339 280.5,245.5C 281.167,244.167 282.167,243.167 283.5,242.5 Z"/></g>
<g><path style="opacity:1" fill="#4e2f23" d="M 307.5,626.5 C 307.5,619.167 307.5,611.833 307.5,604.5C 312.986,603.949 317.986,602.116 322.5,599C 316.325,600.396 309.991,601.229 303.5,601.5C 303.5,600.5 303.5,599.5 303.5,598.5C 305.099,598.768 306.432,598.434 307.5,597.5C 312.605,597.021 317.272,595.354 321.5,592.5C 322.33,586.862 322.83,581.196 323,575.5C 329.262,577.015 332.429,581.015 332.5,587.5C 332.034,592.665 330.867,597.665 329,602.5C 328.573,614.727 326.907,626.727 324,638.5C 322.053,634.716 320.72,630.716 320,626.5C 319.333,625.167 318.667,625.167 318,626.5C 312.673,633.987 310.506,642.32 311.5,651.5C 307.186,652.275 302.853,652.941 298.5,653.5C 297.674,641.662 302.674,633.162 313.5,628C 311.482,627.495 309.482,626.995 307.5,626.5 Z"/></g>
<g><path style="opacity:1" fill="#8a614d" d="M 288.5,596.5 C 287.699,598.042 287.366,599.708 287.5,601.5C 284.833,601.5 282.167,601.5 279.5,601.5C 279.642,611.608 279.642,621.608 279.5,631.5C 278.778,631.918 278.278,632.584 278,633.5C 272.616,623.228 268.783,612.395 266.5,601C 263.348,595.88 261.515,590.38 261,584.5C 262.441,580.461 265.108,578.794 269,579.5C 269.57,583.76 270.403,587.926 271.5,592C 276.964,594.283 282.631,595.783 288.5,596.5 Z"/></g>
<g><path style="opacity:1" fill="#684634" d="M 288.5,596.5 C 294.744,597.458 301.077,597.791 307.5,597.5C 306.432,598.434 305.099,598.768 303.5,598.5C 303.5,599.5 303.5,600.5 303.5,601.5C 309.991,601.229 316.325,600.396 322.5,599C 317.986,602.116 312.986,603.949 307.5,604.5C 307.5,611.833 307.5,619.167 307.5,626.5C 301.185,626.991 295.685,629.325 291,633.5C 293.615,624.117 298.448,615.95 305.5,609C 296.314,609.59 289.314,613.756 284.5,621.5C 282.825,624.877 281.158,628.211 279.5,631.5C 279.642,621.608 279.642,611.608 279.5,601.5C 282.167,601.5 284.833,601.5 287.5,601.5C 287.366,599.708 287.699,598.042 288.5,596.5 Z"/></g>
<g><path style="opacity:1" fill="#1d973d" d="M 279.5,631.5 C 281.158,628.211 282.825,624.877 284.5,621.5C 288.7,617.107 293.7,614.274 299.5,613C 292.21,621.545 288.043,631.378 287,642.5C 291.073,633.098 298.239,628.598 308.5,629C 304.254,630.198 301.087,632.698 299,636.5C 297.649,642.072 297.149,647.738 297.5,653.5C 293.796,653.357 290.463,654.357 287.5,656.5C 284.027,655.398 280.527,654.398 277,653.5C 267.105,654.89 257.438,657.224 248,660.5C 240.526,658.668 233.026,658.168 225.5,659C 226.71,657.961 227.71,656.794 228.5,655.5C 232.79,654.575 237.124,653.909 241.5,653.5C 242.5,653.5 243.5,653.5 244.5,653.5C 245.552,653.649 246.552,653.483 247.5,653C 242.791,646.624 237.125,641.291 230.5,637C 233.244,637.019 235.911,637.686 238.5,639C 242.027,641.591 245.694,643.591 249.5,645C 248,643.5 246.5,642 245,640.5C 243.934,631.058 241.1,622.224 236.5,614C 238.197,613.616 239.863,613.782 241.5,614.5C 241.973,615.906 242.973,616.573 244.5,616.5C 247.471,619.808 250.471,623.141 253.5,626.5C 254.391,628.609 255.558,630.609 257,632.5C 257.896,627.184 256.729,622.35 253.5,618C 254.167,617.333 254.833,617.333 255.5,618C 257.037,619.707 258.704,621.207 260.5,622.5C 261.072,623.973 261.905,625.307 263,626.5C 263.988,620.482 263.488,614.649 261.5,609C 261.833,608.833 262.167,608.667 262.5,608.5C 264.121,610.624 265.954,612.624 268,614.5C 272.055,622.499 275.222,630.833 277.5,639.5C 278.795,636.988 279.461,634.321 279.5,631.5 Z"/></g>
<g><path style="opacity:1" fill="#52504c" d="M 241.5,614.5 C 243.027,614.427 244.027,615.094 244.5,616.5C 242.973,616.573 241.973,615.906 241.5,614.5 Z"/></g>
<g><path style="opacity:1" fill="#2e2c26" d="M 260.5,622.5 C 258.704,621.207 257.037,619.707 255.5,618C 254.833,617.333 254.167,617.333 253.5,618C 256.729,622.35 257.896,627.184 257,632.5C 255.558,630.609 254.391,628.609 253.5,626.5C 254.424,622.248 253.424,618.248 250.5,614.5C 255.12,615.077 258.454,617.744 260.5,622.5 Z"/></g>
<g><path style="opacity:1" fill="#1d973c" d="M 345.5,646.5 C 347.749,645.92 349.415,644.587 350.5,642.5C 350.842,641.662 351.508,641.328 352.5,641.5C 355.628,640.382 358.628,640.549 361.5,642C 354.928,645.902 348.928,650.569 343.5,656C 335.696,656.712 328.529,659.212 322,663.5C 312.14,653.785 310.807,642.785 318,630.5C 319.591,636.349 322.258,641.683 326,646.5C 326.227,641.103 326.894,635.769 328,630.5C 328.673,627.192 330.506,625.358 333.5,625C 332.92,633.477 332.753,641.977 333,650.5C 334.787,641.794 338.12,633.794 343,626.5C 342.677,629.809 342.011,633.143 341,636.5C 340.333,641.167 340.333,645.833 341,650.5C 342.667,649.267 344.167,647.933 345.5,646.5 Z"/></g>
<g><path style="opacity:1" fill="#282721" d="M 241.5,614.5 C 239.863,613.782 238.197,613.616 236.5,614C 241.1,622.224 243.934,631.058 245,640.5C 246.5,642 248,643.5 249.5,645C 245.694,643.591 242.027,641.591 238.5,639C 235.911,637.686 233.244,637.019 230.5,637C 237.125,641.291 242.791,646.624 247.5,653C 246.552,653.483 245.552,653.649 244.5,653.5C 238.587,644.757 230.921,637.924 221.5,633C 228.523,632.881 235.023,634.715 241,638.5C 240.808,628.254 237.975,618.754 232.5,610C 236.003,610.418 239.003,611.918 241.5,614.5 Z"/></g>
<g><path style="opacity:1" fill="#355332" d="M 350.5,642.5 C 349.415,644.587 347.749,645.92 345.5,646.5C 346.585,644.413 348.251,643.08 350.5,642.5 Z"/></g>
<g><path style="opacity:1" fill="#404a3c" d="M 241.5,653.5 C 237.124,653.909 232.79,654.575 228.5,655.5C 232.58,652.775 236.914,652.108 241.5,653.5 Z"/></g>
<g><path style="opacity:1" fill="#eae9e9" d="M 310.5,653.5 C 311.376,653.369 312.043,653.702 312.5,654.5C 310.579,655.641 308.579,655.808 306.5,655C 308.058,654.79 309.391,654.29 310.5,653.5 Z"/></g>
</svg>
