<?xml version="1.0" encoding="utf-8"?>
<!-- Generator: Adobe Illustrator 27.9.0, SVG Export Plug-In . SVG Version: 6.00 Build 0)  -->
<svg version="1.1" id="Layer_1" xmlns="http://www.w3.org/2000/svg" xmlns:xlink="http://www.w3.org/1999/xlink" x="0px" y="0px"
	 viewBox="0 0 548 403" style="enable-background:new 0 0 548 403;" xml:space="preserve">
<style type="text/css">
	.st0{fill-rule:evenodd;clip-rule:evenodd;fill:#FEFEFE;}
	.st1{fill-rule:evenodd;clip-rule:evenodd;fill:#E1DFAC;}
	.st2{fill-rule:evenodd;clip-rule:evenodd;fill:#4A4642;}
	.st3{fill-rule:evenodd;clip-rule:evenodd;fill:#DFDFDF;}
	.st4{fill-rule:evenodd;clip-rule:evenodd;fill:#606050;}
	.st5{fill-rule:evenodd;clip-rule:evenodd;fill:#717070;}
	.st6{fill-rule:evenodd;clip-rule:evenodd;fill:#E8F67A;}
	.st7{fill-rule:evenodd;clip-rule:evenodd;fill:#D9EA60;}
	.st8{fill-rule:evenodd;clip-rule:evenodd;fill:#A9BF03;}
	.st9{fill-rule:evenodd;clip-rule:evenodd;fill:#EBEBEA;}
	.st10{fill-rule:evenodd;clip-rule:evenodd;fill:#3C392D;}
	.st11{fill-rule:evenodd;clip-rule:evenodd;fill:#C1D52F;}
	.st12{fill-rule:evenodd;clip-rule:evenodd;fill:#AFAD95;}
	.st13{fill-rule:evenodd;clip-rule:evenodd;fill:#EDF3BB;}
	.st14{fill-rule:evenodd;clip-rule:evenodd;fill:#FDFDF8;}
	.st15{fill-rule:evenodd;clip-rule:evenodd;fill:#B3B1B1;}
	.st16{fill-rule:evenodd;clip-rule:evenodd;fill:#7B9401;}
	.st17{fill-rule:evenodd;clip-rule:evenodd;fill:#37342E;}
	.st18{fill-rule:evenodd;clip-rule:evenodd;fill:#302D28;}
	.st19{fill-rule:evenodd;clip-rule:evenodd;fill:#EEEDED;}
	.st20{fill-rule:evenodd;clip-rule:evenodd;fill:#D5CCBA;}
	.st21{fill-rule:evenodd;clip-rule:evenodd;fill:#737270;}
	.st22{fill-rule:evenodd;clip-rule:evenodd;fill:#C9B68E;}
	.st23{fill-rule:evenodd;clip-rule:evenodd;fill:#D3D2D0;}
	.st24{fill-rule:evenodd;clip-rule:evenodd;fill:#F5F5F5;}
	.st25{fill-rule:evenodd;clip-rule:evenodd;fill:#576B0C;}
	.st26{fill-rule:evenodd;clip-rule:evenodd;fill:#C6A86B;}
	.st27{fill-rule:evenodd;clip-rule:evenodd;fill:#4C5229;}
	.st28{fill-rule:evenodd;clip-rule:evenodd;fill:#C2D734;}
	.st29{fill-rule:evenodd;clip-rule:evenodd;fill:#54640C;}
	.st30{fill-rule:evenodd;clip-rule:evenodd;fill:#C5D07E;}
	.st31{fill-rule:evenodd;clip-rule:evenodd;fill:#B1C801;}
	.st32{fill-rule:evenodd;clip-rule:evenodd;fill:#77782F;}
	.st33{fill-rule:evenodd;clip-rule:evenodd;fill:#4A423B;}
	.st34{fill-rule:evenodd;clip-rule:evenodd;fill:#645435;}
	.st35{fill-rule:evenodd;clip-rule:evenodd;fill:#796038;}
	.st36{fill-rule:evenodd;clip-rule:evenodd;fill:#574A38;}
	.st37{fill-rule:evenodd;clip-rule:evenodd;fill:#9FB801;}
	.st38{fill-rule:evenodd;clip-rule:evenodd;fill:#A8893A;}
	.st39{fill-rule:evenodd;clip-rule:evenodd;fill:#3E4022;}
	.st40{fill-rule:evenodd;clip-rule:evenodd;fill:#7C6D59;}
	.st41{fill-rule:evenodd;clip-rule:evenodd;fill:#FBECA9;}
	.st42{fill-rule:evenodd;clip-rule:evenodd;fill:#F7CC0E;}
	.st43{fill-rule:evenodd;clip-rule:evenodd;fill:#CEE049;}
	.st44{fill-rule:evenodd;clip-rule:evenodd;fill:#B77007;}
	.st45{fill-rule:evenodd;clip-rule:evenodd;fill:#463F2E;}
	.st46{fill-rule:evenodd;clip-rule:evenodd;fill:#FADD54;}
	.st47{fill-rule:evenodd;clip-rule:evenodd;fill:#B0C803;}
	.st48{fill-rule:evenodd;clip-rule:evenodd;fill:#33380D;}
	.st49{fill-rule:evenodd;clip-rule:evenodd;fill:#AE933E;}
	.st50{fill-rule:evenodd;clip-rule:evenodd;fill:#434D0C;}
	.st51{fill-rule:evenodd;clip-rule:evenodd;fill:#B77E1E;}
	.st52{fill-rule:evenodd;clip-rule:evenodd;fill:#FCEB9C;}
	.st53{fill-rule:evenodd;clip-rule:evenodd;fill:#C48007;}
	.st54{fill-rule:evenodd;clip-rule:evenodd;fill:#505530;}
	.st55{fill-rule:evenodd;clip-rule:evenodd;fill:#F9F9E3;}
	.st56{fill-rule:evenodd;clip-rule:evenodd;fill:#91A801;}
	.st57{fill-rule:evenodd;clip-rule:evenodd;fill:#FDDF57;}
	.st58{fill-rule:evenodd;clip-rule:evenodd;fill:#FCE783;}
	.st59{fill-rule:evenodd;clip-rule:evenodd;fill:#EBB013;}
	.st60{fill-rule:evenodd;clip-rule:evenodd;fill:#F9E27C;}
	.st61{fill-rule:evenodd;clip-rule:evenodd;fill:#FBF7DE;}
	.st62{fill-rule:evenodd;clip-rule:evenodd;fill:#FCEA96;}
	.st63{fill-rule:evenodd;clip-rule:evenodd;fill:#FDE05C;}
	.st64{fill-rule:evenodd;clip-rule:evenodd;fill:#FAE58E;}
	.st65{fill-rule:evenodd;clip-rule:evenodd;fill:#FCDB46;}
	.st66{fill-rule:evenodd;clip-rule:evenodd;fill:#FDF2CC;}
	.st67{fill-rule:evenodd;clip-rule:evenodd;fill:#FAE481;}
	.st68{fill-rule:evenodd;clip-rule:evenodd;fill:#FCE67F;}
	.st69{fill-rule:evenodd;clip-rule:evenodd;fill:#FBF1C5;}
	.st70{fill-rule:evenodd;clip-rule:evenodd;fill:#FCE98F;}
	.st71{fill-rule:evenodd;clip-rule:evenodd;fill:#F2E8BE;}
	.st72{fill-rule:evenodd;clip-rule:evenodd;fill:#656357;}
	.st73{fill-rule:evenodd;clip-rule:evenodd;fill:#FDF6D6;}
	.st74{fill-rule:evenodd;clip-rule:evenodd;fill:#CFAA26;}
	.st75{fill-rule:evenodd;clip-rule:evenodd;fill:#E3C766;}
	.st76{fill-rule:evenodd;clip-rule:evenodd;fill:#F9E07D;}
	.st77{fill-rule:evenodd;clip-rule:evenodd;fill:#837640;}
	.st78{fill-rule:evenodd;clip-rule:evenodd;fill:#FDF8E5;}
	.st79{fill-rule:evenodd;clip-rule:evenodd;fill:#CCB50E;}
	.st80{fill-rule:evenodd;clip-rule:evenodd;fill:#5E720B;}
	.st81{fill-rule:evenodd;clip-rule:evenodd;fill:#FCEDA6;}
	.st82{fill-rule:evenodd;clip-rule:evenodd;fill:#53472E;}
	.st83{fill-rule:evenodd;clip-rule:evenodd;fill:#A7BD2C;}
	.st84{fill-rule:evenodd;clip-rule:evenodd;fill:#7E751E;}
	.st85{fill-rule:evenodd;clip-rule:evenodd;fill:#869F02;}
	.st86{fill-rule:evenodd;clip-rule:evenodd;fill:#FDE98F;}
	.st87{fill-rule:evenodd;clip-rule:evenodd;fill:#FEFBF0;}
	.st88{fill-rule:evenodd;clip-rule:evenodd;fill:#BE9B33;}
	.st89{fill-rule:evenodd;clip-rule:evenodd;fill:#4B401B;}
	.st90{fill-rule:evenodd;clip-rule:evenodd;fill:#573E26;}
	.st91{fill-rule:evenodd;clip-rule:evenodd;fill:#CA960C;}
	.st92{fill-rule:evenodd;clip-rule:evenodd;fill:#C9AF11;}
	.st93{fill-rule:evenodd;clip-rule:evenodd;fill:#413D35;}
	.st94{fill-rule:evenodd;clip-rule:evenodd;fill:#DBB912;}
	.st95{fill-rule:evenodd;clip-rule:evenodd;fill:#AF6A0A;}
	.st96{fill-rule:evenodd;clip-rule:evenodd;fill:#E7AC0A;}
	.st97{fill-rule:evenodd;clip-rule:evenodd;fill:#0F4F45;}
	.st98{fill-rule:evenodd;clip-rule:evenodd;fill:#67553D;}
	.st99{fill-rule:evenodd;clip-rule:evenodd;fill:#4C472D;}
	.st100{fill-rule:evenodd;clip-rule:evenodd;fill:#B99830;}
	.st101{fill-rule:evenodd;clip-rule:evenodd;fill:#4B4C34;}
	.st102{fill-rule:evenodd;clip-rule:evenodd;fill:#667C03;}
	.st103{fill-rule:evenodd;clip-rule:evenodd;fill:#E8F480;}
	.st104{fill-rule:evenodd;clip-rule:evenodd;fill:#FAF1CE;}
	.st105{fill-rule:evenodd;clip-rule:evenodd;fill:#8EA703;}
	.st106{fill-rule:evenodd;clip-rule:evenodd;fill:#AFC618;}
	.st107{fill-rule:evenodd;clip-rule:evenodd;fill:#FBE686;}
	.st108{fill-rule:evenodd;clip-rule:evenodd;fill:#EAAD0A;}
	.st109{fill-rule:evenodd;clip-rule:evenodd;fill:#FBEBA7;}
	.st110{fill-rule:evenodd;clip-rule:evenodd;fill:#D1AD22;}
	.st111{fill-rule:evenodd;clip-rule:evenodd;fill:#F9DF6D;}
	.st112{fill-rule:evenodd;clip-rule:evenodd;fill:#FCEDA9;}
	.st113{fill-rule:evenodd;clip-rule:evenodd;fill:#FCDF5B;}
	.st114{fill-rule:evenodd;clip-rule:evenodd;fill:#FDF6D5;}
	.st115{fill-rule:evenodd;clip-rule:evenodd;fill:#FCE479;}
	.st116{fill-rule:evenodd;clip-rule:evenodd;fill:#3F4C07;}
	.st117{fill-rule:evenodd;clip-rule:evenodd;fill:#A88331;}
	.st118{fill-rule:evenodd;clip-rule:evenodd;fill:#3A4708;}
	.st119{fill-rule:evenodd;clip-rule:evenodd;fill:#2A2921;}
	.st120{fill-rule:evenodd;clip-rule:evenodd;fill:#FBE685;}
	.st121{fill-rule:evenodd;clip-rule:evenodd;fill:#FCF7DD;}
	.st122{fill-rule:evenodd;clip-rule:evenodd;fill:#D0AA26;}
	.st123{fill-rule:evenodd;clip-rule:evenodd;fill:#BB963C;}
	.st124{fill-rule:evenodd;clip-rule:evenodd;fill:#1AA9B0;}
	.st125{fill-rule:evenodd;clip-rule:evenodd;fill:#6E7F07;}
	.st126{fill-rule:evenodd;clip-rule:evenodd;fill:#3B3B2B;}
	.st127{fill-rule:evenodd;clip-rule:evenodd;fill:#9E7E2C;}
	.st128{fill-rule:evenodd;clip-rule:evenodd;fill:#5C6B0C;}
	.st129{fill-rule:evenodd;clip-rule:evenodd;fill:#B3C821;}
	.st130{fill-rule:evenodd;clip-rule:evenodd;fill:#CEA13B;}
	.st131{fill-rule:evenodd;clip-rule:evenodd;fill:#FCE786;}
	.st132{fill-rule:evenodd;clip-rule:evenodd;fill:#ABA38E;}
	.st133{fill-rule:evenodd;clip-rule:evenodd;fill:#383B1D;}
	.st134{fill-rule:evenodd;clip-rule:evenodd;fill:#8C8778;}
	.st135{fill-rule:evenodd;clip-rule:evenodd;fill:#2B2B1D;}
	.st136{fill-rule:evenodd;clip-rule:evenodd;fill:#FDF2BE;}
	.st137{fill-rule:evenodd;clip-rule:evenodd;fill:#FBE579;}
	.st138{fill-rule:evenodd;clip-rule:evenodd;fill:#BB9524;}
	.st139{fill-rule:evenodd;clip-rule:evenodd;fill:#10817E;}
	.st140{fill-rule:evenodd;clip-rule:evenodd;fill:#E7D37C;}
	.st141{fill-rule:evenodd;clip-rule:evenodd;fill:#0A351E;}
	.st142{fill-rule:evenodd;clip-rule:evenodd;fill:#F7EBB3;}
	.st143{fill-rule:evenodd;clip-rule:evenodd;fill:#282519;}
	.st144{fill-rule:evenodd;clip-rule:evenodd;fill:#EBB922;}
	.st145{fill-rule:evenodd;clip-rule:evenodd;fill:#0D351C;}
	.st146{fill-rule:evenodd;clip-rule:evenodd;fill:#665549;}
	.st147{fill-rule:evenodd;clip-rule:evenodd;fill:#E2B134;}
	.st148{fill-rule:evenodd;clip-rule:evenodd;fill:#665F51;}
	.st149{fill-rule:evenodd;clip-rule:evenodd;fill:#354009;}
	.st150{fill-rule:evenodd;clip-rule:evenodd;fill:#897D67;}
	.st151{fill-rule:evenodd;clip-rule:evenodd;fill:#EDD358;}
	.st152{fill-rule:evenodd;clip-rule:evenodd;fill:#084735;}
	.st153{fill-rule:evenodd;clip-rule:evenodd;fill:#927321;}
	.st154{fill-rule:evenodd;clip-rule:evenodd;fill:#384607;}
	.st155{fill-rule:evenodd;clip-rule:evenodd;fill:#CBCF93;}
	.st156{fill-rule:evenodd;clip-rule:evenodd;fill:#334008;}
	.st157{fill-rule:evenodd;clip-rule:evenodd;fill:#788F05;}
	.st158{fill-rule:evenodd;clip-rule:evenodd;fill:#3D4B06;}
	.st159{fill-rule:evenodd;clip-rule:evenodd;fill:#817867;}
	.st160{fill-rule:evenodd;clip-rule:evenodd;fill:#E0D185;}
	.st161{fill-rule:evenodd;clip-rule:evenodd;fill:#69624B;}
	.st162{fill-rule:evenodd;clip-rule:evenodd;fill:#3B4909;}
	.st163{fill-rule:evenodd;clip-rule:evenodd;fill:#738904;}
	.st164{fill-rule:evenodd;clip-rule:evenodd;fill:#93AA04;}
	.st165{fill-rule:evenodd;clip-rule:evenodd;fill:#1A9EA3;}
	.st166{fill-rule:evenodd;clip-rule:evenodd;fill:#576909;}
	.st167{fill-rule:evenodd;clip-rule:evenodd;fill:#313E3A;}
	.st168{fill-rule:evenodd;clip-rule:evenodd;fill:#074936;}
	.st169{fill-rule:evenodd;clip-rule:evenodd;fill:#6C6B68;}
	.st170{fill-rule:evenodd;clip-rule:evenodd;fill:#107873;}
	.st171{fill-rule:evenodd;clip-rule:evenodd;fill:#D4F0F2;}
	.st172{fill-rule:evenodd;clip-rule:evenodd;fill:#0E6962;}
	.st173{fill-rule:evenodd;clip-rule:evenodd;fill:#DCF5F7;}
	.st174{fill-rule:evenodd;clip-rule:evenodd;fill:#198785;}
	.st175{fill-rule:evenodd;clip-rule:evenodd;fill:#60DADF;}
	.st176{fill-rule:evenodd;clip-rule:evenodd;fill:#1E9596;}
	.st177{fill-rule:evenodd;clip-rule:evenodd;fill:#4BB4B5;}
	.st178{fill-rule:evenodd;clip-rule:evenodd;fill:#6DD2D5;}
	.st179{fill-rule:evenodd;clip-rule:evenodd;fill:#8AEBF0;}
	.st180{fill-rule:evenodd;clip-rule:evenodd;fill:#383C3C;}
	.st181{fill-rule:evenodd;clip-rule:evenodd;fill:#6FD8DD;}
	.st182{fill-rule:evenodd;clip-rule:evenodd;fill:#41494A;}
	.st183{fill-rule:evenodd;clip-rule:evenodd;fill:#2D2E2E;}
	.st184{fill-rule:evenodd;clip-rule:evenodd;fill:#53BCBD;}
	.st185{fill-rule:evenodd;clip-rule:evenodd;fill:#86E9ED;}
</style>
<g>
	<path class="st0" d="M-0.5-0.5c182.7,0,365.3,0,548,0c0,134.3,0,268.7,0,403c-182.7,0-365.3,0-548,0C-0.5,268.2-0.5,133.8-0.5-0.5z
		"/>
</g>
<g>
	<path class="st1" d="M218.5,62.5c-0.6,3.5,0.7,5.5,4,6c-0.7,2-1.3,4-2,6c-8.1-9.5-14.1-20.2-18-32c2.5-11.9,9.5-15.4,21-10.5
		c5.6,2.1,10.9,4.8,16,8c-2,0.7-4,0.7-6,0c-6.1-4.1-12.7-5.7-20-5c-0.8,0.8-1.7,1.7-2.5,2.5C209.6,47.1,212.1,55.4,218.5,62.5z"/>
</g>
<g>
	<path class="st2" d="M257.5,48.5c-13.8-7.2-28.1-8.5-43-4c0.1,6.3,1.4,12.3,4,18c-6.4-7.1-8.9-15.4-7.5-25c0.8-0.8,1.7-1.7,2.5-2.5
		c7.3-0.7,13.9,0.9,20,5c2,0.7,4,0.7,6,0c-5.1-3.2-10.4-5.9-16-8c-11.5-4.9-18.5-1.4-21,10.5c-1,5.7-3.3,10.7-7,15c0-0.7,0-1.3,0-2
		c-0.8-2.2-2.5-3.2-5-3c-8-0.8-16-1.1-24-1c10.2-1,20.5-1.2,31-0.5c2.6-5.7,4.7-11.5,6.5-17.5c2.4-3.5,5.7-5.2,10-5
		c4.2,0.4,8.4,1.3,12.5,2.5C237,36.7,247.4,42.6,257.5,48.5z"/>
</g>
<g>
	<path class="st3" d="M257.5,48.5c4.3,3.8,8.4,7.8,12.5,12c3.1,5.3,6,10.6,8.5,16c0.7,6,1,12,1,18c-1.3,2.4-1.9,5.1-2,8
		c-0.3,4.3-2.3,5.6-6,4c0.9-5.1,2.4-10.1,4.5-15c1.1-6.6,0.4-12.9-2-19c-5.7,12.5-15.6,18.2-29.5,17c-10.1-7.7-18.7-16.7-26-27
		c-2.6-5.7-3.9-11.7-4-18C229.4,40,243.7,41.3,257.5,48.5z"/>
</g>
<g>
	<path class="st4" d="M164.5,51.5c-4.5,0.9-8.8,2.2-13,4c-1.7,0-3.3,0-5,0C152.1,52.9,158.1,51.6,164.5,51.5z"/>
</g>
<g>
	<path class="st5" d="M257.5,48.5c5.2,2.7,9.7,6.3,13.5,11c2.8,5,5.7,10,8.5,15c-0.8,0.3-1.2,1-1,2c-2.5-5.4-5.4-10.7-8.5-16
		C265.9,56.3,261.8,52.3,257.5,48.5z"/>
</g>
<g>
	<path class="st6" d="M164.5,51.5c0.7,0,1.3,0,2,0c8-0.1,16,0.2,24,1c2.1,0.8,2.3,1.8,0.5,3c-1.1,7.1,0.1,13.7,3.5,20
		c-1.1,1.2-1.9,0.9-2.5-1c-0.6,0.5-1.2,0.9-2,1c-2.8-2.1-5.9-3.3-9.5-3.5c-9.5-5.8-19.2-11.3-29-16.5
		C155.7,53.7,160,52.4,164.5,51.5z"/>
</g>
<g>
	<path class="st7" d="M146.5,55.5c1.7,0,3.3,0,5,0c9.8,5.2,19.5,10.7,29,16.5c3.6,0.2,6.7,1.4,9.5,3.5c0.8-0.1,1.4-0.5,2-1
		c0.6,1.9,1.4,2.2,2.5,1c4.1,7.1,8.4,14.1,13,21c-2.1-1.2-4.5-2.1-7-2.5c-1-2.8-3.3-4.6-7-5.5c-1.4-1.4-3.1-2.4-5-3
		c-0.7-0.7-1.3-1.3-2-2c1.1,0.1,2.1,0,3-0.5c-8-5.9-16.6-7.1-26-3.5c-0.9,0.8-1.2,1.8-1,3c2.3,0,4.7,0,7,0c-0.7,0.9-1.7,1.2-3,1
		c-2,0-4,0-6,0c0.2-2.4,0.5-4.7,1-7c2.4,0.3,4.8,0,7-1c-7.7-3.9-15-8.4-22-13.5c-2.1-1.4-4.5-2.2-7-2.5
		C141.7,57.9,144,56.6,146.5,55.5z"/>
</g>
<g>
	<path class="st8" d="M126.5,66.5c-1.8,3.2-1.2,5.7,2,7.5c6.7,4,13.3,8,20,12c2.3,0.7,4.6,1.2,7,1.5c-4.9,2.4-9.4,5.4-13.5,9
		c-2.9,6.4-5.8,12.9-8.5,19.5c-1.3,4.2-2.6,8.4-4,12.5c0.3,6.2,2,11.9,5,17c1.8,8.9,6.3,16.3,13.5,22c0.2,1.9,0.7,3.5,1.5,5
		c-0.1,1.2-0.7,2.1-2,2.5c-5.3,0.7-10.7,0.7-16,0c-4.7-2.3-9-5.2-13-8.5c-13.4-19.2-18.3-40.6-14.5-64C107.7,88,115.2,76,126.5,66.5
		z"/>
</g>
<g>
	<path class="st9" d="M202.5,42.5c3.9,11.8,9.9,22.5,18,32c3,4.3,6.3,8.3,10,12c-0.6,3.5-1.8,6.9-3.5,10c-2.3,2.5-5.2,3.8-8.5,4
		c-9.6-8.6-16.8-18.9-21.5-31c-1.2-3.9-1.7-7.9-1.5-12C199.2,53.2,201.5,48.2,202.5,42.5z"/>
</g>
<g>
	<path class="st10" d="M146.5,55.5c-2.5,1.1-4.8,2.4-7,4c-4.8,1.6-9.1,3.9-13,7c-11.3,9.5-18.8,21.5-22.5,36
		c-3.8,23.4,1.1,44.8,14.5,64c-5.9-5.5-10.1-12.1-12.5-20c-5.5-17.6-5.8-35.2-1-53C112.7,74,126.5,61.3,146.5,55.5z"/>
</g>
<g>
	<path class="st11" d="M139.5,59.5c2.5,0.3,4.9,1.1,7,2.5c7,5.1,14.3,9.6,22,13.5c-2.2,1-4.6,1.3-7,1c-0.5,2.3-0.8,4.6-1,7
		c2,0,4,0,6,0c-1.8,0.8-3.4,1.8-5,3c-2,0.3-4,0.7-6,1c-2.4-0.3-4.7-0.8-7-1.5c-6.7-4-13.3-8-20-12c-3.2-1.8-3.8-4.3-2-7.5
		C130.4,63.4,134.7,61.1,139.5,59.5z"/>
</g>
<g>
	<path class="st12" d="M218.5,62.5c7.3,10.3,15.9,19.3,26,27c1.9,2.6,4.2,4.8,7,6.5c-1.5,0.3-2.9-0.2-4-1.5c-0.7,0.5-1.2,1.2-1.5,2
		c-1.8-1.8-3.9-2.4-6.5-2c-3-2.7-6-5.3-9-8c-3.7-3.7-7-7.7-10-12c0.7-2,1.3-4,2-6C219.2,68,217.9,66,218.5,62.5z"/>
</g>
<g>
	<path class="st13" d="M186.5,83.5c-1.1-0.1-2.1-0.4-3-1c-2.1-3.3-5.3-4.6-9.5-4c-2.8-0.2-5.3,0.5-7.5,2c4.8,0.7,9.5,1.3,14,2
		c-3.7,0-7.3,0-11,0c-2.3,0-4.7,0-7,0c-0.2-1.2,0.1-2.2,1-3c9.4-3.6,18-2.4,26,3.5C188.6,83.5,187.6,83.6,186.5,83.5z"/>
</g>
<g>
	<path class="st14" d="M183.5,82.5c-1,0-2,0-3,0c-4.5-0.7-9.2-1.3-14-2c2.2-1.5,4.7-2.2,7.5-2C178.2,77.9,181.4,79.2,183.5,82.5z"/>
</g>
<g>
	<path class="st15" d="M271.5,106.5c-1.6-0.5-3.3-0.9-5-1c-3.6-1.6-7.2-3-11-4c0,1.3,0,2.7,0,4c-4.3-1.8-8.3-4.2-12-7
		c-1.3-1.3-2.7-2.7-4-4c2.6-0.4,4.7,0.2,6.5,2c0.3-0.8,0.8-1.5,1.5-2c1.1,1.3,2.5,1.8,4,1.5c-2.8-1.7-5.1-3.9-7-6.5
		c13.9,1.2,23.8-4.5,29.5-17c2.4,6.1,3.1,12.4,2,19C273.9,96.4,272.4,101.4,271.5,106.5z"/>
</g>
<g>
	<path class="st16" d="M188.5,85.5c1.9,0.6,3.6,1.6,5,3c6.4,7.8,12.6,15.8,18.5,24c8.6,8.4,17.5,16.4,26.5,24
		c-0.8,1.5-2.2,2.3-4,2.5c-0.5,2.5-1.9,4.3-4,5.5c-5.4,3-9.4,7.4-12,13c-2.3,1.3-3.7,3.3-4,6c-1.6,1-3,2.3-4,4c-3.9,1.7-7.2,1-10-2
		c-1.6-2.1-3.4-4.1-5.5-6c-5.7,1.2-11.4,2.5-17,4c-7,0.6-11.3,4.6-13,12c-1,0.8-2.2,1.2-3.5,1c2.9-7.4,7.6-13.6,14-18.5
		c3.3-0.3,6.7-0.7,10-1c2.3-0.2,4.3-1.1,6-2.5c-5-6.9-11.4-12-19-15.5c-3.7-0.6-7.4-0.4-11,0.5c-0.9-0.7-1.9-1.3-3-2
		c1.1-0.9,1.1-1.8,0-2.5c1.3-0.5,2.6-0.7,4-0.5c0.1-3.2,0.7-6.2,2-9c0.7,0.3,1.3,0.7,2,1c3,6.5,8,8.6,15,6.5c5.1-1.3,8.5-4.5,10-9.5
		c4.5-12.3,2.2-23-7-32c-2.8-1.6-5.8-2.3-9-2c1.8-0.8,3.8-1.3,6-1.5c1.3-0.7,1.3-1.3,0-2c0.5-0.2,1-0.3,1.5-0.5
		C184.8,86.7,186.7,86.7,188.5,85.5z"/>
</g>
<g>
	<path class="st17" d="M195.5,55.5c0,0.7,0,1.3,0,2c-0.2,4.1,0.3,8.1,1.5,12c4.7,12.1,11.9,22.4,21.5,31c3.4,4.8,7.8,8.5,13,11
		c5.6,4.9,11.9,8.6,19,11c4.1,1.8,8.5,2.3,13,1.5c5.3-3.5,10.6-6.6,16-9.5c6.9-0.7,10.3-4.5,10-11.5c-0.8-8.8-4-16.6-9.5-23.5
		c1.4,5.4,3.4,10.8,6,16c2.3,12.8-2.9,17-15.5,12.5c-1.6-0.6-2.9-1.4-4-2.5c1.7,0.1,3.4,0.5,5,1c3.7,1.6,5.7,0.3,6-4
		c1.2,1.2,1.2,2.5,0,4c3.6,1.8,6.1,0.8,7.5-3c0.6-5.8-0.8-11.1-4-16c0,3.8-0.5,6.2-1.5,7c0-6-0.3-12-1-18c-0.2-1,0.2-1.7,1-2
		c4.8,6.4,8.7,13.4,11.5,21c2.3,5.8,1.8,11.3-1.5,16.5c-7.8,3.1-15.1,6.9-22,11.5c-0.5,7.2-2,14.2-4.5,21c-1.6,4.4-4.1,8.1-7.5,11
		c1.3-2.7,2.6-5.3,4-8c3.2-5.1,4.9-10.7,5-17c0-1.5-0.3-2.9-1-4c-3.4,0.2-6.7,0-10-0.5c-25.6-10.9-44.7-28.7-57.5-53.5
		c-1.1-3.8-1.9-7.6-2.5-11.5C193.4,58.8,194.1,56.9,195.5,55.5z"/>
</g>
<g>
	<path class="st8" d="M161.5,86.5c1,1.3,0.8,2.6-0.5,4c-2.8,1.5-5.4,3.1-8,5c-1.9,6.3-3.8,12.6-5.5,19c-1,0-2,0-3,0
		c-1.7,6.7-3.3,13.3-5,20c-1,0-2,0-3,0c-0.8,3.6-1.5,7.3-2,11c-3-5.1-4.7-10.8-5-17c1.4-4.1,2.7-8.3,4-12.5
		c2.7-6.6,5.6-13.1,8.5-19.5c4.1-3.6,8.6-6.6,13.5-9C157.5,87.2,159.5,86.8,161.5,86.5z"/>
</g>
<g>
	<path class="st8" d="M169.5,82.5c3.7,0,7.3,0,11,0c1,0,2,0,3,0c0.9,0.6,1.9,0.9,3,1c0.7,0.7,1.3,1.3,2,2c-1.8,1.2-3.7,1.2-5.5,0
		c-0.5,0.2-1,0.3-1.5,0.5c1.3,0.7,1.3,1.3,0,2c-2.2,0.2-4.2,0.7-6,1.5c-5.3,2-9,5.7-11,11c-2.4,2.8-3.4,6.1-3,10c0,5.2,1,10.2,3,15
		c-1.3,2.8-1.9,5.8-2,9c-1.4-0.2-2.7,0-4,0.5c1.1,0.7,1.1,1.6,0,2.5c1.1,0.7,2.1,1.3,3,2c-0.7,0.7-1.3,1.3-2,2
		c-10.4,6.4-13.4,15.4-9,27c-0.9,1.1-1.3,2.4-1,4c-0.8-1.5-1.3-3.1-1.5-5c-7.2-5.7-11.7-13.1-13.5-22c0.5-3.7,1.2-7.4,2-11
		c1,0,2,0,3,0c1.7-6.7,3.3-13.3,5-20c1,0,2,0,3,0c1.7-6.4,3.6-12.7,5.5-19c2.6-1.9,5.2-3.5,8-5c1.3-1.4,1.5-2.7,0.5-4
		c1.6-1.2,3.2-2.2,5-3C167.8,83.7,168.8,83.4,169.5,82.5z"/>
</g>
<g>
	<path class="st18" d="M175.5,89.5c3.2-0.3,6.2,0.4,9,2c9.2,9,11.5,19.7,7,32c-3.3,5-8,8-14,9c-2.1-0.2-4.1-0.7-6-1.5
		c-1.5-1.7-3.2-3.2-5-4.5c0-0.7,0-1.3,0-2c5.3,6.5,11.6,7.6,19,3.5c5.4-6.6,7.4-14.1,6-22.5c-5.3,10.8-12.9,12.8-23,6
		c-1.8-2-2.8-4.3-3-7c0.1-1.5-0.3-2.8-1-4C166.5,95.2,170.2,91.5,175.5,89.5z"/>
</g>
<g>
	<path class="st19" d="M172.5,96.5c4.8-0.1,6.2,2.1,4,6.5C170.7,103.4,169.4,101.3,172.5,96.5z"/>
</g>
<g>
	<path class="st20" d="M230.5,86.5c3,2.7,6,5.3,9,8c1.3,1.3,2.7,2.7,4,4c-2.2,2.7-4.7,5.4-7.5,8c-1,1.9-1.6,3.9-2,6
		c-0.7-0.8-1.5-1.1-2.5-1c-5.2-2.5-9.6-6.2-13-11c3.3-0.2,6.2-1.5,8.5-4C228.7,93.4,229.9,90,230.5,86.5z"/>
</g>
<g>
	<path class="st21" d="M277.5,102.5c0.1-2.9,0.7-5.6,2-8c1-0.8,1.5-3.2,1.5-7c3.2,4.9,4.6,10.2,4,16c-1.4,3.8-3.9,4.8-7.5,3
		C278.7,105,278.7,103.7,277.5,102.5z"/>
</g>
<g>
	<path class="st22" d="M243.5,98.5c3.7,2.8,7.7,5.2,12,7c2,2.1,4.4,3.8,7,5c-2.1-0.7-4.1-0.7-6,0c-1.6,2.9-3.4,5.6-5.5,8
		c0.4,1.5,0.2,2.8-0.5,4c-7.1-2.4-13.4-6.1-19-11c1-0.1,1.8,0.2,2.5,1c0.4-2.1,1-4.1,2-6C238.8,103.9,241.3,101.2,243.5,98.5z"/>
</g>
<g>
	<path class="st23" d="M279.5,114.5c-6.1,0.2-11.8-1.2-17-4c-2.6-1.2-5-2.9-7-5c0-1.3,0-2.7,0-4c3.8,1,7.4,2.4,11,4
		c1.1,1.1,2.4,1.9,4,2.5c12.6,4.5,17.8,0.3,15.5-12.5c-2.6-5.2-4.6-10.6-6-16c5.5,6.9,8.7,14.7,9.5,23.5
		C289.8,110,286.4,113.8,279.5,114.5z"/>
</g>
<g>
	<path class="st24" d="M165.5,104.5c0.2,2.7,1.2,5,3,7c10.1,6.8,17.7,4.8,23-6c1.4,8.4-0.6,15.9-6,22.5c-7.4,4.1-13.7,3-19-3.5
		c-2.8-6.7-3.6-13.7-2.5-21C164.4,104.1,164.9,104.4,165.5,104.5z"/>
</g>
<g>
	<path class="st25" d="M190.5,52.5c2.5-0.2,4.2,0.8,5,3c-1.4,1.4-2.1,3.3-2,5.5c0.6,3.9,1.4,7.7,2.5,11.5
		c12.8,24.8,31.9,42.6,57.5,53.5c3.3,0.5,6.6,0.7,10,0.5c-0.8,1.6-2.1,2.3-4,2c-3.4,0.2-6.7-0.2-10-1c-16.8-6.5-30.8-16.8-42-31
		c-4.6-6.9-8.9-13.9-13-21c-3.4-6.3-4.6-12.9-3.5-20C192.8,54.3,192.6,53.3,190.5,52.5z"/>
</g>
<g>
	<path class="st26" d="M262.5,110.5c5.2,2.8,10.9,4.2,17,4c-5.4,2.9-10.7,6-16,9.5c-4.5,0.8-8.9,0.3-13-1.5c0.7-1.2,0.9-2.5,0.5-4
		c2.1-2.4,3.9-5.1,5.5-8C258.4,109.8,260.4,109.8,262.5,110.5z"/>
</g>
<g>
	<path class="st27" d="M164.5,100.5c0.7,1.2,1.1,2.5,1,4c-0.6-0.1-1.1-0.4-1.5-1c-1.1,7.3-0.3,14.3,2.5,21c0,0.7,0,1.3,0,2
		c-0.7-0.3-1.3-0.7-2-1c-2-4.8-3-9.8-3-15C161.1,106.6,162.1,103.3,164.5,100.5z"/>
</g>
<g>
	<path class="st28" d="M193.5,88.5c3.7,0.9,6,2.7,7,5.5c2.5,0.4,4.9,1.3,7,2.5c11.2,14.2,25.2,24.5,42,31c1.2,2.7,1.2,5.3,0,8
		c-3.6,1-7.3,1.3-11,1c-9-7.6-17.9-15.6-26.5-24C206.1,104.3,199.9,96.3,193.5,88.5z"/>
</g>
<g>
	<path class="st29" d="M191.5,123.5c-1.5,5-4.9,8.2-10,9.5c-7,2.1-12,0-15-6.5c1.8,1.3,3.5,2.8,5,4.5c1.9,0.8,3.9,1.3,6,1.5
		C183.5,131.5,188.2,128.5,191.5,123.5z"/>
</g>
<g>
	<path class="st30" d="M263.5,126.5c0.7,1.1,1,2.5,1,4c-0.1,6.3-1.8,11.9-5,17c0.4-2.4,1-4.7,2-7c-0.3-2.2-1.3-3.9-3-5
		c-0.1-2.4,0.3-4.7,1-7C261.4,128.8,262.7,128.1,263.5,126.5z"/>
</g>
<g>
	<path class="st16" d="M249.5,127.5c3.3,0.8,6.6,1.2,10,1c-0.7,2.3-1.1,4.6-1,7c-0.1,3.1-0.2,6.4-0.5,10c-5.1,7.9-9.9,15.9-14.5,24
		c-0.7,0-1,0.3-1,1c-1.5,0.9-2.5,2.3-3,4c-0.3,3.7-2,6.7-5,9c-1,0-1.7-0.5-2-1.5c1.1-6.8,1.3-13.6,0.5-20.5c-1.2-5.6-2-11.3-2.5-17
		c2.1-1.2,3.5-3,4-5.5c1.8-0.2,3.2-1,4-2.5c3.7,0.3,7.4,0,11-1C250.7,132.8,250.7,130.2,249.5,127.5z"/>
</g>
<g>
	<path class="st31" d="M159.5,141.5c5.3-0.3,9.3,1.7,12,6c-3.8,5.6-7.7,11.3-11.5,17c-1.3,2.9-1.8,5.9-1.5,9c-2.1,0-4.1-0.4-6-1
		c-0.7-1.3-1.3-2.7-2-4C146.1,156.9,149.1,147.9,159.5,141.5z"/>
</g>
<g>
	<path class="st32" d="M258.5,135.5c1.7,1.1,2.7,2.8,3,5c-1,2.3-1.6,4.6-2,7c-1.4,2.7-2.7,5.3-4,8c-3.6,5-7.6,9.6-12,14
		c4.6-8.1,9.4-16.1,14.5-24C258.3,141.9,258.4,138.6,258.5,135.5z"/>
</g>
<g>
	<path class="st33" d="M346.5,145.5c-6.5-0.3-12.9,0-19,1c-6.1-0.1-11.8,1.3-17,4c-3.8,0.8-7.1,2.4-10,5c-3.2-1.1-6.5-1.1-10,0
		c9.2-3.2,18.5-6.4,28-9.5C328,144.4,337.3,144.2,346.5,145.5z"/>
</g>
<g>
	<path class="st34" d="M327.5,146.5c6.1-1,12.5-1.3,19-1c12,0.1,23,3.5,33,10c-1.6-0.1-2.8,0.5-3.5,2c-6.4-5.8-13.9-9.3-22.5-10.5
		C344.8,146.5,336.2,146.3,327.5,146.5z"/>
</g>
<g>
	<path class="st16" d="M230.5,144.5c0.5,5.7,1.3,11.4,2.5,17c0.8,6.9,0.6,13.7-0.5,20.5c0.3,1,1,1.5,2,1.5c0.6,13.1,1.3,26.1,2,39
		c0,0.3,0,0.7,0,1c-1,1.3-2,2.7-3,4c0-0.3,0-0.7,0-1c1.6-3.3,1.3-6.3-1-9c0-9.7,0-19.3,0-29c0.7-1.2,1.1-2.5,1-4
		c-2.7-0.2-5.4,0-8,0.5c-1.5,1.7-3.2,3.2-5,4.5c1.6-5.6,2.6-11.2,3-17c0-5.1-0.6-10.1-2-15c-1,0-2,0-3,0
		C221.1,151.9,225.1,147.5,230.5,144.5z"/>
</g>
<g>
	<path class="st35" d="M300.5,155.5c-1.1,0.3-2.4,0.4-4,0.5c-1.3,1.8-3,3-5,3.5c-2.5-1.1-5.1-1.3-8-0.5c-3.5,1.8-7.2,3.3-11,4.5
		c5.3-4,11.3-6.7,18-8C294,154.4,297.3,154.4,300.5,155.5z"/>
</g>
<g>
	<path class="st36" d="M272.5,163.5c-3.6,3.2-7.6,5.8-12,8C263.8,167.8,267.8,165.2,272.5,163.5z"/>
</g>
<g>
	<path class="st37" d="M161.5,176.5c-0.7,0-1.3,0-2,0c-2.8-0.6-5.2-1.9-7-4c1.9,0.6,3.9,1,6,1c-0.3-3.1,0.2-6.1,1.5-9
		c3.8-5.7,7.7-11.4,11.5-17c-2.7-4.3-6.7-6.3-12-6c0.7-0.7,1.3-1.3,2-2c3.6-0.9,7.3-1.1,11-0.5c7.6,3.5,14,8.6,19,15.5
		c-1.7,1.4-3.7,2.3-6,2.5c-3.3,0.3-6.7,0.7-10,1C169.1,162.9,164.4,169.1,161.5,176.5z"/>
</g>
<g>
	<path class="st16" d="M218.5,157.5c1,0,2,0,3,0c1.4,4.9,2,9.9,2,15c-0.4,5.8-1.4,11.4-3,17c-4,3.5-8.7,5.3-14,5.5
		c-7.3,0-14.7-0.2-22-0.5c-1.3-1.8-2.5-3.8-3.5-6c-0.9-4.1-2-8.1-3.5-12c-1.5-0.7-2.8-1.1-4-1c1-3.3,3-5.8,6-7.5
		c4.6-1.8,9.3-3.3,14-4.5c1.5,0.1,2.5,0.8,3,2c-13.7,3.3-16.4,10.8-8,22.5c1,0.7,2,0.7,3,0c2.5-3.4,4.5-3.1,6,1
		c13.4,3.8,20.1-1.2,20-15c-0.2-2.2-0.3-4.3-0.5-6.5c-0.2-1.8-1-3.2-2.5-4C214.8,160.8,216.2,158.8,218.5,157.5z"/>
</g>
<g>
	<path class="st16" d="M214.5,163.5c1.5,0.8,2.3,2.2,2.5,4c0.2,2.2,0.3,4.3,0.5,6.5c0.1,13.8-6.6,18.8-20,15c-1.5-4.1-3.5-4.4-6-1
		c-1,0.7-2,0.7-3,0c-8.4-11.7-5.7-19.2,8-22.5c1.3,0,2.7,0,4,0c2.8,3,6.1,3.7,10,2C211.5,165.8,212.9,164.5,214.5,163.5z"/>
</g>
<g>
	<path class="st38" d="M291.5,159.5c-8.1,1.7-15.4,5-22,10c-5.6,3.6-10.9,7.6-16,12c0-1.8,0.5-3.5,1.5-5c2.2-1.3,4-3,5.5-5
		c4.4-2.2,8.4-4.8,12-8c3.8-1.2,7.5-2.7,11-4.5C286.4,158.2,289,158.4,291.5,159.5z"/>
</g>
<g>
	<path class="st39" d="M118.5,166.5c4,3.3,8.3,6.2,13,8.5c5.3,0.7,10.7,0.7,16,0c1.3-0.4,1.9-1.2,2-2.5c-0.3-1.6,0.1-2.9,1-4
		c0.7,1.3,1.3,2.7,2,4c1.8,2.1,4.2,3.4,7,4c0.3,0.7,0.7,1.3,1,2c-0.7,0-1.3,0-2,0c-3.6-3.2-7.6-3.7-12-1.5c-7.8,1.2-15.1,0.1-22-3.5
		c-0.6,3.1,0.7,5.4,4,7c1,1.3,2,2.7,3,4c-2.9-1.4-5.4-3.4-7.5-6C121.9,174.6,120,170.6,118.5,166.5z"/>
</g>
<g>
	<path class="st40" d="M406.5,171.5c0-0.3,0-0.7,0-1c2.6,0.9,4.6,2.6,6,5C410.2,174.6,408.2,173.3,406.5,171.5z"/>
</g>
<g>
	<path class="st16" d="M200.5,165.5c-1.3,0-2.7,0-4,0c-0.5-1.2-1.5-1.9-3-2c-4.7,1.2-9.4,2.7-14,4.5c-3,1.7-5,4.2-6,7.5
		c1.2-0.1,2.5,0.3,4,1c1.5,3.9,2.6,7.9,3.5,12c1,2.2,2.2,4.2,3.5,6c-4.7-0.2-9.3,0-14,0.5c-1.4,0.4-2.4,1.2-3,2.5
		c5.7,5.1,9.1,11.4,10,19c-0.3,0-0.7,0-1,0c-1.7-3.7-4.3-6.3-8-8c-10.2-7-20.9-13.5-32-19.5c-2.1-1-3.8-2.5-5-4.5c-1-1.3-2-2.7-3-4
		c8,3.4,16.4,3.9,25,1.5c3.7-1.2,7.4-2.5,11-4c-1.4-0.6-2.8-0.4-4,0.5c-0.3-0.7-0.7-1.3-1-2c0.7,0,1.3,0,2,0c1.3,0.2,2.5-0.2,3.5-1
		c1.7-7.4,6-11.4,13-12c5.6-1.5,11.3-2.8,17-4C197.1,161.4,198.9,163.4,200.5,165.5z"/>
</g>
<g>
	<path class="st39" d="M124.5,173.5c6.9,3.6,14.2,4.7,22,3.5c4.4-2.2,8.4-1.7,12,1.5c-2.5,0.4-4.7-0.3-6.5-2
		c-1.6,1.2-3.5,2.1-5.5,2.5C138,181.1,130.7,179.2,124.5,173.5z"/>
</g>
<g>
	<path class="st41" d="M255.5,185.5c-1.3,1-2.6,2-4,3c-0.6-0.1-0.9-0.5-1-1c0.7-1.8,1.7-3.5,3-5c0-0.3,0-0.7,0-1
		c5.1-4.4,10.4-8.4,16-12c3.1-0.9,6.1-1.7,9-2.5c-7.8,5-15.3,10.5-22.5,16.5C255.5,184.1,255.4,184.8,255.5,185.5z"/>
</g>
<g>
	<path class="st42" d="M291.5,161.5c0,1.1,0.4,2.1,1,3c-1.3,1.5-2.3,3.2-3,5c-3,3.8-6.3,7.3-10,10.5c0.3,0.3,0.7,0.7,1,1
		c-4.9-0.6-4.9,0.6,0,3.5c3.3-2.1,6.5-4.5,9.5-7c0.7,1,0.7,2,0,3c-3.7,3.2-5.5,7.1-5.5,11.5c5,4.7,9.7,9.7,14,15
		c1.6,0.5,3.3,0.7,5,0.5c0,4-1.6,7-5,9c-2.4,0.2-4.7,0-7-0.5c-4.1-5.3-9.1-10.5-15-15.5c1.6-1.7,1.3-2.7-1-3c2-3.3,4-6.7,6-10
		c0.5-0.1,0.9-0.4,1-1c-0.5-1-1.2-1.2-2-0.5c-4.9,4.4-9.2,9.3-13,14.5c-2,1.3-3.7,3-5,5c-4.3-1.5-8.1-3.8-11.5-7
		c-1-3.9,0.1-6.9,3.5-9c-0.1,0.7,0,1.4,0.5,2c1.2-1.1,1.7-2.4,1.5-4c2.4-0.3,4.7-0.8,7-1.5c2.9-3.4,5.5-6.9,8-10.5
		c1.4-0.5,2.8-1.1,4-2c3.8-4.3,7.8-8.5,12-12.5C289.1,160.2,290.4,160.4,291.5,161.5z"/>
</g>
<g>
	<path class="st43" d="M124.5,173.5c6.2,5.7,13.5,7.6,22,5.5c2-0.4,3.9-1.3,5.5-2.5c1.8,1.7,4,2.4,6.5,2c0.7,0,1.3,0,2,0
		c1.2-0.9,2.6-1.1,4-0.5c-3.6,1.5-7.3,2.8-11,4c-8.6,2.4-17,1.9-25-1.5C125.2,178.9,123.9,176.6,124.5,173.5z"/>
</g>
<g>
	<path class="st42" d="M327.5,146.5c8.7-0.2,17.3,0,26,0.5c8.6,1.2,16.1,4.7,22.5,10.5c0.7-1.5,1.9-2.1,3.5-2
		c9.4,4.2,18.4,9.2,27,15c0,0.3,0,0.7,0,1c0.5,3,1.1,6,2,9c1.2-0.8,2.2-1.8,3-3c1.1,0.9,1.1,1.9,0,3c0.6,3.1,1.6,6.1,3,9
		c-0.2,0.7-0.3,1.3-0.5,2c-1.5-1.2-3-1.2-4.5,0c-2.3-0.9-4.3-2.3-6-4c-1.2,1.5-0.9,2.7,1,3.5c-0.5,3.4-0.5,6.9,0,10.5
		c-0.2,2.7-0.3,5.3-0.5,8c-1.8-1.1-2.6-0.4-2.5,2c-5.9-7.8-12.1-15.4-18.5-23c-2.7-1.8-5.2-3.8-7.5-6c2.4,5.3,5.9,10.3,10.5,15
		c2.5,4.4,5,8.7,7.5,13c-1.6-0.4-2.7-1.4-3.5-3c0.5,2.7,1.3,5.3,2.5,8c-0.2,1.7-0.8,3-2,4c-3.9-1.3-7.9-1.3-12,0
		c-3.4,1.7-7.1,2.7-11,3c-1.4-3-2.7-6-4-9c-1.9,0.2-3.4-0.5-4.5-2c-1.4-3.9-3.8-7.3-7-10c-1.4-5.9-3.2-11.6-5.5-17
		c-2.4,0.1-4.2-0.9-5.5-3c0,1.8,0.7,3.4,2,5c0.3,4,0.7,8,1,12c1.1,1.6,1.9,3.2,2.5,5c-11.5-0.1-23.2-0.1-35,0c0.3,1.6-0.1,2.9-1,4
		c-0.8-2.3-1.7-4.6-2.5-7c-0.2,1.6-1.1,2.6-2.5,3c-1.2,1-1.8,2.3-2,4c-1.7,0.2-3.4,0-5-0.5c-4.3-5.3-9-10.3-14-15
		c0-4.4,1.8-8.3,5.5-11.5c0.7-1,0.7-2,0-3c-3,2.5-6.2,4.9-9.5,7c-4.9-2.9-4.9-4.1,0-3.5c-0.3-0.3-0.7-0.7-1-1c3.7-3.2,7-6.7,10-10.5
		c0.7-1.8,1.7-3.5,3-5c-0.6-0.9-1-1.9-1-3c2.6-1,4.7-2.7,6.5-5c-0.9,6.9,1.9,11.2,8.5,13c0-5.4,0.5-10.7,1.5-16
		c0.9,1.2,1.7,1.2,2.5,0c1.3-1,1.3-2,0-3C315.7,147.8,321.4,146.4,327.5,146.5z"/>
</g>
<g>
	<path class="st44" d="M377.5,159.5c2.1,4.8,0.7,8.7-4,11.5c-14,7.9-29,10.6-45,8c-7.4-0.3-14.4-2.1-21-5.5c0.7-0.3,1.3-0.7,2-1
		c8.9,3,18.1,4.3,27.5,4c12.6,0.8,24.4-1.7,35.5-7.5C375.9,166.7,377.6,163.5,377.5,159.5z"/>
</g>
<g>
	<path class="st45" d="M243.5,169.5c-0.2,3.4,0,6.7,0.5,10c0.2,2.6,1,5,2.5,7c2.7-3.5,5.2-7.2,7.5-11c2-1.7,4.1-3.1,6.5-4
		c-1.5,2-3.3,3.7-5.5,5c-1,1.5-1.5,3.2-1.5,5c0,0.3,0,0.7,0,1c-0.7-0.1-1.4,0-2,0.5c-1.9,2.7-3.9,5.2-6,7.5c-2.7-6.3-3.7-13-3-20
		C242.5,169.8,242.8,169.5,243.5,169.5z"/>
</g>
<g>
	<path class="st46" d="M310.5,150.5c1.3,1,1.3,2,0,3c-0.8,1.2-1.6,1.2-2.5,0c-1,5.3-1.5,10.6-1.5,16c-6.6-1.8-9.4-6.1-8.5-13
		c-1.8,2.3-3.9,4-6.5,5c-1.1-1.1-2.4-1.3-4-0.5c-4.2,4-8.2,8.2-12,12.5c-1.2,0.9-2.6,1.5-4,2c-2.5,3.6-5.1,7.1-8,10.5
		c-2.3,0.7-4.6,1.2-7,1.5c0.2,1.6-0.3,2.9-1.5,4c-0.5-0.6-0.6-1.3-0.5-2c0.3-1.3,0.7-2.7,1-4c-0.1-0.7,0-1.4,0.5-2
		c7.2-6,14.7-11.5,22.5-16.5c-2.9,0.8-5.9,1.6-9,2.5c6.6-5,13.9-8.3,22-10c2-0.5,3.7-1.7,5-3.5c1.6-0.1,2.9-0.2,4-0.5
		C303.4,152.9,306.7,151.3,310.5,150.5z"/>
</g>
<g>
	<path class="st47" d="M232.5,188.5c-3.5,2.1-5.8,5.1-7,9c0.8,6.7,1.4,13.3,2,20c1.7,0,3.3,0,5,0c2.3,2.7,2.6,5.7,1,9
		c-1,0.3-1.7,1-2,2c-1.3-0.8-2.3-2-3-3.5c-1.8-0.7-3.6-1.2-5.5-1.5c-7.8,0.6-15.7,1.3-23.5,2c-0.9-0.1-1.8-0.4-2.5-1
		c-6.2,5.8-10.4,12.8-12.5,21c-2.8,16-2.4,32,1,48c-0.8,1.2-1.8,2.2-3,3c-2-2.2-3.2-4.8-3.5-8c-3.8-17.2-5-34.5-3.5-52
		c2.6-6.4,3.3-13.1,2-20c-0.9-7.6-4.3-13.9-10-19c0.6-1.3,1.6-2.1,3-2.5c4.7-0.5,9.3-0.7,14-0.5c7.3,0.3,14.7,0.5,22,0.5
		c5.3-0.2,10-2,14-5.5c1.8-1.3,3.5-2.8,5-4.5c2.6-0.5,5.3-0.7,8-0.5C233.6,186,233.2,187.3,232.5,188.5z"/>
</g>
<g>
	<path class="st48" d="M242.5,170.5c-0.7,7,0.3,13.7,3,20c-0.3,1.3-0.7,2.7-1,4c-2.2,3.4-3.9,7-5,11c-0.1-10.1-0.1-20.4,0-31
		C240,172.8,241,171.4,242.5,170.5z"/>
</g>
<g>
	<path class="st49" d="M253.5,182.5c-1.3,1.5-2.3,3.2-3,5c-1.6,1.4-2.9,3.1-4,5c-0.3,1-1,1.7-2,2c0.3-1.3,0.7-2.7,1-4
		c2.1-2.3,4.1-4.8,6-7.5C252.1,182.5,252.8,182.4,253.5,182.5z"/>
</g>
<g>
	<path class="st50" d="M239.5,174.5c-0.1,10.6-0.1,20.9,0,31c-1.9,4.8-2.2,9.6-1,14.5c-0.9,0.7-1.5,1.5-2,2.5
		c-0.7-12.9-1.4-25.9-2-39C237.5,181.2,239.2,178.2,239.5,174.5z"/>
</g>
<g>
	<path class="st51" d="M426.5,191.5c1.4,1.9,3.1,3.6,5,5c-1,2.5-2.7,4.7-5,6.5c-1.1,0.7-2.1,0.6-3-0.5
		C425.9,199.2,426.9,195.6,426.5,191.5z"/>
</g>
<g>
	<path class="st52" d="M401.5,211.5c1.4,1.3,2.1,3,2,5c-2,0.2-4,0-6-0.5c-1.2-2-2.5-3.8-4-5.5c-2.5-4.3-5-8.6-7.5-13
		c-4.6-4.7-8.1-9.7-10.5-15c2.3,2.2,4.8,4.2,7.5,6C389.4,196.1,395.6,203.7,401.5,211.5z"/>
</g>
<g>
	<path class="st42" d="M406.5,171.5c1.7,1.8,3.7,3.1,6,4c5.1,5.1,9.7,10.4,14,16c0.4,4.1-0.6,7.7-3,11c0.9,1.1,1.9,1.2,3,0.5
		c2.3-1.8,4-4,5-6.5c3.3,3.2,6.1,6.9,8.5,11c3.1,7.2,6.9,13.9,11.5,20c-0.2,2.4,0.4,4.4,2,6c0.3,3.6,2.3,4.9,6,4c0-1.3,0-2.7,0-4
		c1.8,2.3,3.6,4.6,5.5,7c0.3,3.5,1.1,6.9,2.5,10c-1,0-2,0-3,0c0,1,0,2,0,3c-1.3-0.2-2.5,0.2-3.5,1c-0.9,3.1-2.1,6.1-3.5,9
		c-2.2-0.2-3.8,0.6-5,2.5c1.6,1,2.3,2.5,2,4.5c-1,0-2,0-3,0c-0.7,2.4-1.7,4.7-3,7c-2.4,2.1-4.4,4.6-6,7.5c0.4,0.9,1.1,1.6,2,2
		c-2.5,1.4-2.2,2.4,1,3c-2,0.5-4,0.7-6,0.5c0,1,0,2,0,3c-3.5,1.3-6.9,3-10,5c-3.4,0.5-6.7,1.1-10,2c0-1,0-2,0-3c2.1,0.3,4.1,0,6-1
		c-2.7-1.9-2.4-2.9,1-3c0-1,0-2,0-3c1,0,2,0,3,0c1.3-4.6,2.6-9.3,4-14c1,0,2,0,3,0c0-1,0-2,0-3c1,0,2,0,3,0c-0.7-2.2-1.1-4.2-1-6
		c4.2-2,7.2-5.2,9-9.5c2.2-1.2,4.5-1.7,7-1.5c1.4-2.8,2.1-5.8,2-9c0.2-2.7-0.5-5-2-7c-1.3-1.5-2.9-2.1-5-2c0.2-3,0-6-0.5-9
		c-2.3-4.2-4.8-8.2-7.5-12c-0.8,2.5-1.3,5.1-1.5,8c-3.5,3.2-6.4,7.1-8.5,11.5c0.6,2.7,1.2,5.4,2,8c-0.6,4.2,0.4,8,3,11.5
		c0,0.3,0,0.7,0,1c0,3,0,6,0,9c-1.5,0.1-2.8-0.3-4-1c-1.1-7.5-2.9-14.8-5.5-22c-4.5-6.9-5.4-6.6-2.5,1c-1.8,6.5-3.5,13.2-5,20
		c-1.5,1.8-3.5,2.4-6,2c0-0.7,0-1.3,0-2c-1.3-5.4-2.7-10.8-4-16c-1.5-2.9-3.9-4.5-7-5c-0.3-3.1-1-6.1-2-9c-1.6,6.7-0.9,13,2,19
		c0.6,5.3,1.9,10.3,4,15c-4.6,0.9-8.6,3.1-12,6.5c-2.1,0.3-4.1,0.3-6,0c1.3,2.2,0.7,3.7-2,4.5c-0.3-0.5-0.7-1-1-1.5
		c0.7-1.3,1.3-2.7,2-4c-0.1-1.3-0.8-2.1-2-2.5c-1.3,3.2-3.4,5.6-6.5,7c-5.1-1-10.3-1.7-15.5-2c-0.6-1.3-1.6-2.1-3-2.5
		c2.2-0.2,4-1,5.5-2.5c0.1-4.4,1.9-7.7,5.5-10c0.9-3.2,2.5-5.9,5-8c-0.2-7.8,0.3-15.4,1.5-23c-0.3,1.7-0.7,3.3-1,5
		c-0.3-1.8-1-2.1-2-1c-0.4-1.3-1.2-1.9-2.5-2c1-1.3,2.2-1.3,3.5,0c0.6-1.7-0.1-2.7-2-3c-10.3,2.8-20.8,4-31.5,3.5
		c-1.6-1.1-2.6-2.6-3-4.5c9-0.2,17.8-1.6,26.5-4c4.3,1.4,8.4,1.1,12.5-1c5.4,1.3,10.7,1.1,16-0.5c0.6-1.1,0.9-2.2,1-3.5
		c-0.7-3-1.3-6-2-9c1.5,1.7,2.8,3.5,4,5.5c2,0.5,4,0.7,6,0.5c0.1-2-0.6-3.7-2-5c-0.1-2.4,0.7-3.1,2.5-2c0.2-2.7,0.3-5.3,0.5-8
		c-0.5-3.6-0.5-7.1,0-10.5c-1.9-0.8-2.2-2-1-3.5c1.7,1.7,3.7,3.1,6,4c1.5-1.2,3-1.2,4.5,0c0.2-0.7,0.3-1.3,0.5-2
		c-1.4-2.9-2.4-5.9-3-9c1.1-1.1,1.1-2.1,0-3c-0.8,1.2-1.8,2.2-3,3C407.6,177.5,407,174.5,406.5,171.5z"/>
</g>
<g>
	<path class="st53" d="M412.5,197.5c0.4-1,1.1-1.2,2-0.5c2.5,2.5,5,5,7.5,7.5c-0.3,2.6-1.2,5.1-2.5,7.5c-2.1,0.3-4.1,0-6-1
		c2.6-1.1,4.2-2.9,5-5.5C417.5,202.1,415.5,199.4,412.5,197.5z"/>
</g>
<g>
	<path class="st54" d="M168.5,208.5c3.7,1.7,6.3,4.3,8,8C173.5,214.2,170.8,211.5,168.5,208.5z"/>
</g>
<g>
	<path class="st55" d="M213.5,207.5c2.4-0.2,4.7,0,7,0.5c2.7,2.6,2.4,5-1,7C213.2,216,211.2,213.5,213.5,207.5z"/>
</g>
<g>
	<path class="st56" d="M232.5,188.5c0,9.7,0,19.3,0,29c-1.7,0-3.3,0-5,0c-0.6-6.7-1.2-13.3-2-20C226.7,193.6,229,190.6,232.5,188.5z
		"/>
</g>
<g>
	<path class="st57" d="M346.5,184.5c2.3,5.4,4.1,11.1,5.5,17c3.2,2.7,5.6,6.1,7,10c1.1,1.5,2.6,2.2,4.5,2c1.3,3,2.6,6,4,9
		c-4.3-0.5-8.3,0.2-12,2c-0.8-4.3-1.3-8.6-1.5-13C349,203.2,346.5,194.2,346.5,184.5z"/>
</g>
<g>
	<path class="st42" d="M246.5,192.5c0.9-0.1,1.5,0.2,2,1c-1.5,3.6-0.7,6.6,2.5,9c10.6,8.3,22.4,14.1,35.5,17.5
		c3.7,0.5,7.3,0.7,11,0.5c-1.5,0.8-3.1,1.3-5,1.5c1.3,0.3,2.7,0.7,4,1c-1.3,0.7-1.3,1.3,0,2c4.5,1.8,9.2,3.2,14,4
		c0.7,1.3,1.7,2.3,3,3c6.4-0.2,12.7-0.5,19-1c1.5,1.5,3,3,4.5,4.5c0.4,7.1,1.3,14.1,2.5,21c1.3-0.6,2.1-1.6,2.5-3
		c0.3-4.7,0.7-9.3,1-14c1.7,3.4,2.7,7.1,3,11c0.4-5.1-0.1-10.1-1.5-15c9.6,0.7,18.9-0.3,28-3c1.2,0.1,2.1,0.7,2.5,2
		c1-1.1,1.7-0.8,2,1c0.3-1.7,0.7-3.3,1-5c-1.2,7.6-1.7,15.2-1.5,23c-2.5,2.1-4.1,4.8-5,8c-3.6,2.3-5.4,5.6-5.5,10
		c-1.5,1.5-3.3,2.3-5.5,2.5c1.4,0.4,2.4,1.2,3,2.5c-3.4-0.2-6.7,0-10,0.5c-2,1.9-4.4,3-7,3.5c-1.3-0.1-2.4-0.4-3.5-1
		c-0.9-2.9-2.5-5.2-5-7c0.8-7.7,0.5-15.3-1-23c0.2,5.2-1.1,9.8-4,14c-1,4.1-0.5,7.9,1.5,11.5c-1.4,2.9-3.7,4.5-7,5
		c-5.3,1.1-10.6,1.5-16,1c-3.9-4.9-8.9-7.8-15-8.5c2.1-1,4.4-1.3,7-1c-1.1-2.3-1.3-4.7-0.5-7c-1.8-1.7-3.7-3.3-5.5-5
		c0.2-0.3,0.3-0.7,0.5-1c4.5,2.1,9,2.4,13.5,1c1-0.4,1.2-1.1,0.5-2c-4.6-2.2-4.5-3.6,0.5-4c4.6,0.6,9.1,1.6,13.5,3
		c0.5-0.3,1-0.7,1.5-1c-2.9-4.2-6.1-8.2-9.5-12c-1.6-1.7-2.4-3.7-2.5-6c2.4-0.2,4.8,0.1,7,1c0.8,3.4,1.8,6.7,3,10
		c2.2,2.4,4.9,3.2,8,2.5c0.6-0.7,0.9-1.6,1-2.5c-1.2-2.8-2.7-5.5-4.5-8c-0.5-2.3-0.7-4.6-0.5-7c-5.2,1.3-10.5,1.8-16,1.5
		c-2.4-0.6-3.4-2.1-3-4.5c-3.1,0.2-6.1,1.1-9,2.5c2,0.6,2.3,1.6,1,3c-4,1.7-7.7,3.8-11,6.5c-0.7,2.8-0.9,5.8-0.5,9
		c-3.4-3.4-6.5-6.5-9.5-9.5c-3.3,3.3-4,7.1-2,11.5c0,3.7-1.7,6.3-5,8c-2.1,0.9-3.3,2.5-3.5,5c-1-4-1.3-8-1-12c2.4-2,4.4-4.4,6-7
		c0.2-2,0-4-0.5-6c0.3-1.6,1-2.9,2-4c7.9-3.8,8.9-8.8,3-15c-0.3,5.6-2.5,10.2-6.5,14c-0.6,3.4-1,6.7-1,10c0.4-0.6,0.9-0.9,1.5-1
		c-1.6,2-3.3,4-5,6c-1.7,0-3.3,0-5,0c0.2,5.8-0.5,6.2-2,1c-9.2-7.7-16.4-17-21.5-28c-1.7-1.4-3-1.1-4,1c-0.5-0.6-0.6-1.3-0.5-2
		c0-0.3,0-0.7,0-1c0.5-1,1.1-1.8,2-2.5c-1.2-4.9-0.9-9.7,1-14.5c1.1-4,2.8-7.6,5-11C245.5,194.2,246.2,193.5,246.5,192.5z"/>
</g>
<g>
	<path class="st58" d="M429.5,207.5c0.9-0.1,1.5,0.2,2,1c-0.5,3.3-1.9,6.1-4,8.5c-1.7,0.3-3.3,0.7-5,1c-0.5,0.6-0.9,1.2-1,2
		c2.2,3.5,4.3,7,6.5,10.5c0.5,1.6,0.7,3.3,0.5,5c-1.9,0.2-3.4-0.5-4.5-2c-1.7-5.9-3.8-11.5-6.5-17c2.4-1.6,5-2.4,8-2.5
		C427.7,212.4,429.1,210.2,429.5,207.5z"/>
</g>
<g>
	<path class="st59" d="M346.5,184.5c0,9.7,2.5,18.7,7.5,27c0.2,4.4,0.7,8.7,1.5,13c3.7-1.8,7.7-2.5,12-2c3.9-0.3,7.6-1.3,11-3
		c1.6,1.5,3.6,2.1,6,2c2.4,0.1,4.4-0.5,6-2c1.2-1,1.8-2.3,2-4c-1.2-2.7-2-5.3-2.5-8c0.8,1.6,1.9,2.6,3.5,3c0.7,3,1.3,6,2,9
		c-0.1,1.3-0.4,2.4-1,3.5c-5.3,1.6-10.6,1.8-16,0.5c-4.1,2.1-8.2,2.4-12.5,1c-8.7,2.4-17.5,3.8-26.5,4c-5.7-0.6-11.4-1.2-17-2
		c-4-0.9-8-1.5-12-2c-3.2-1.2-6.2-2.8-9-5c-1.2,0.7-2.6,1.1-4,1c-3.7,0.2-7.3,0-11-0.5c-13.1-3.4-24.9-9.2-35.5-17.5
		c-3.2-2.4-4-5.4-2.5-9c-0.5-0.8-1.1-1.1-2-1c1.1-1.9,2.4-3.6,4-5c0.1,0.5,0.4,0.9,1,1c1.4-1,2.7-2,4-3c-0.3,1.3-0.7,2.7-1,4
		c-3.4,2.1-4.5,5.1-3.5,9c3.4,3.2,7.2,5.5,11.5,7c2.8,0.5,4.8-0.5,6-3c4-5.3,8.3-10.3,13-15c-2,3.3-4,6.7-6,10c-2.4,2.9-4.4,6-6,9.5
		c0.3,1.3,0.9,2.3,2,3c7.9,6.3,16.9,9.1,27,8.5c2.9-0.4,4.7-2.1,5.5-5c0.6-3.3,1.1-6.7,1.5-10c1.4-0.4,2.3-1.4,2.5-3
		c0.8,2.4,1.7,4.7,2.5,7c-1.3,3.2-2,6.5-2,10c-0.2,1.7,0.5,2.7,2,3c0.3,0.8,1,1.2,2,1c4.1,0.7,8.3,1.7,12.5,3
		c7.8-0.5,15.6-0.5,23.5,0c0-3,0-6,0-9c0.3-4.2-0.4-8.2-2-12c-0.6-1.8-1.4-3.4-2.5-5c-0.3-4-0.7-8-1-12c-1.3-1.6-2-3.2-2-5
		C342.3,183.6,344.1,184.6,346.5,184.5z"/>
</g>
<g>
	<path class="st60" d="M390.5,219.5c-1.6,1.5-3.6,2.1-6,2c-2.4,0.1-4.4-0.5-6-2C382.6,218.2,386.6,218.2,390.5,219.5z"/>
</g>
<g>
	<path class="st61" d="M316.5,218.5c1.4,0.6,2.4,1.6,3,3c-2.3,0-4.7,0-7,0c-1,0.2-1.7-0.2-2-1C311.9,218.7,313.9,218,316.5,218.5z"
		/>
</g>
<g>
	<path class="st62" d="M316.5,218.5c4.1,0.6,8.1,1.6,12,3c2.8-1.5,5.5-1.3,8,0.5c-5.7,0.6-11.4,0.5-17-0.5
		C318.9,220.1,317.9,219.1,316.5,218.5z"/>
</g>
<g>
	<path class="st63" d="M348.5,215.5c0,3,0,6,0,9c-7.9-0.5-15.7-0.5-23.5,0c-4.2-1.3-8.4-2.3-12.5-3c2.3,0,4.7,0,7,0
		c5.6,1,11.3,1.1,17,0.5c-2.5-1.8-5.2-2-8-0.5c-3.9-1.4-7.9-2.4-12-3c-2.6-0.5-4.6,0.2-6,2c-1.5-0.3-2.2-1.3-2-3
		c5.3-2.8,10.8-3.2,16.5-1c3.9-0.6,7.9-0.6,12,0c2.6-0.1,5-0.7,7-2c0.7,2.4,1.7,2.4,3,0C347.4,215.1,347.9,215.4,348.5,215.5z"/>
</g>
<g>
	<path class="st64" d="M305.5,203.5c-0.4,3.3-0.9,6.7-1.5,10c-0.8,2.9-2.6,4.6-5.5,5c0-0.7,0-1.3,0-2c3.4-2,5-5,5-9
		C303.7,205.8,304.3,204.5,305.5,203.5z"/>
</g>
<g>
	<path class="st65" d="M346.5,203.5c1.6,3.8,2.3,7.8,2,12c-0.6-0.1-1.1-0.4-1.5-1c-1.3,2.4-2.3,2.4-3,0c-2,1.3-4.4,1.9-7,2
		c-4.1-0.6-8.1-0.6-12,0c-5.7-2.2-11.2-1.8-16.5,1c0-3.5,0.7-6.8,2-10c0.9-1.1,1.3-2.4,1-4C323.3,203.4,335,203.4,346.5,203.5z"/>
</g>
<g>
	<path class="st57" d="M275.5,197.5c2.3,0.3,2.6,1.3,1,3c5.9,5,10.9,10.2,15,15.5c2.3,0.5,4.6,0.7,7,0.5c0,0.7,0,1.3,0,2
		c-10.1,0.6-19.1-2.2-27-8.5c-1.1-0.7-1.7-1.7-2-3C271.1,203.5,273.1,200.4,275.5,197.5z"/>
</g>
<g>
	<path class="st66" d="M267.5,200.5c0.8,0.3,1.2,1,1,2c-1.2,2.5-3.2,3.5-6,3C263.8,203.5,265.5,201.8,267.5,200.5z"/>
</g>
<g>
	<path class="st67" d="M281.5,187.5c-4.7,4.7-9,9.7-13,15c0.2-1-0.2-1.7-1-2c3.8-5.2,8.1-10.1,13-14.5c0.8-0.7,1.5-0.5,2,0.5
		C282.4,187.1,282,187.4,281.5,187.5z"/>
</g>
<g>
	<path class="st68" d="M382.5,238.5c0.7-1.3,1-2.8,1-4.5c-0.1-2-0.7-3.5-2-4.5c9.5-1.7,18.5-4.9,27-9.5c1.8-0.8,3.2-0.3,4,1.5
		c-8.7,5-18,8.4-28,10c0.7,7.4,1.6,14.7,2.5,22C385.2,248.6,383.7,243.6,382.5,238.5z"/>
</g>
<g>
	<path class="st69" d="M310.5,224.5c4,0.5,8,1.1,12,2c-2.5,5.5-6,6.2-10.5,2C311.6,227.1,311.1,225.8,310.5,224.5z"/>
</g>
<g>
	<path class="st37" d="M231.5,228.5c-0.7,1-1.3,2-2,3c-0.6-0.1-1.1-0.4-1.5-1c-2.8,3.5-6,6.7-9.5,9.5c-11.2,2.9-22.5,4.7-34,5.5
		c2.1-8.2,6.3-15.2,12.5-21c0.7,0.6,1.6,0.9,2.5,1c7.8-0.7,15.7-1.4,23.5-2c1.9,0.3,3.7,0.8,5.5,1.5
		C229.2,226.5,230.2,227.7,231.5,228.5z"/>
</g>
<g>
	<path class="st70" d="M310.5,224.5c0.6,1.3,1.1,2.6,1.5,4c4.5,4.2,8,3.5,10.5-2c5.6,0.8,11.3,1.4,17,2c0.4,1.9,1.4,3.4,3,4.5
		c10.7,0.5,21.2-0.7,31.5-3.5c1.9,0.3,2.6,1.3,2,3c-1.3-1.3-2.5-1.3-3.5,0c-9.1,2.7-18.4,3.7-28,3c1.4,4.9,1.9,9.9,1.5,15
		c-0.3-3.9-1.3-7.6-3-11c-0.3,4.7-0.7,9.3-1,14c-0.4,1.4-1.2,2.4-2.5,3c-1.2-6.9-2.1-13.9-2.5-21c-1.5-1.5-3-3-4.5-4.5
		c-6.3,0.5-12.6,0.8-19,1c-1.3-0.7-2.3-1.7-3-3c-4.8-0.8-9.5-2.2-14-4c-1.3-0.7-1.3-1.3,0-2c-1.3-0.3-2.7-0.7-4-1
		c1.9-0.2,3.5-0.7,5-1.5c1.4,0.1,2.8-0.3,4-1C304.3,221.7,307.3,223.3,310.5,224.5z"/>
</g>
<g>
	<path class="st71" d="M456.5,229.5c0,2.1-1,3.5-3,4c-1.6-1.6-2.2-3.6-2-6c-0.1-0.7,0-1.4,0.5-2
		C453.4,227.1,454.9,228.4,456.5,229.5z"/>
</g>
<g>
	<path class="st72" d="M176.5,216.5c0.3,0,0.7,0,1,0c1.3,6.9,0.6,13.6-2,20C176.1,229.9,176.5,223.2,176.5,216.5z"/>
</g>
<g>
	<path class="st73" d="M381.5,229.5c1.3,1,1.9,2.5,2,4.5c0,1.7-0.3,3.2-1,4.5c-1.4-1.4-2.1-3.3-2-5.5
		C380.5,231.6,380.8,230.4,381.5,229.5z"/>
</g>
<g>
	<path class="st74" d="M441.5,217.5c2.4,5.6,4,11.4,5,17.5c-1.5,3.2-3,6.3-4.5,9.5c-2,2.4-4.2,3.7-6.5,4c0.9,2.6,1.2,5.3,1,8
		c-2.6-3.5-3.6-7.3-3-11.5c-0.8-2.6-1.4-5.3-2-8c2.1-4.4,5-8.3,8.5-11.5C440.2,222.6,440.7,220,441.5,217.5z"/>
</g>
<g>
	<path class="st75" d="M277.5,237.5c-0.3-2.3-1.1-2.3-2.5,0c-0.5,2.6-0.7,5.3-0.5,8c-0.6,0.1-1.1,0.4-1.5,1c0-3.3,0.4-6.6,1-10
		c4-3.8,6.2-8.4,6.5-14C286.4,228.7,285.4,233.7,277.5,237.5z"/>
</g>
<g>
	<path class="st76" d="M456.5,229.5c1,0.7,2,1.3,3,2c0,0.7,0,1.3,0,2c0,1.3,0,2.7,0,4c-3.7,0.9-5.7-0.4-6-4
		C455.5,233,456.5,231.6,456.5,229.5z"/>
</g>
<g>
	<path class="st77" d="M161.5,241.5c-0.9-0.7-1.2-1.7-1-3c-1.7,0-3.3,0-5,0c0,1.3,0,2.7,0,4c-1-1.4-1.3-3.1-1-5c2.3,0,4.7,0,7,0
		C161.5,238.8,161.5,240.2,161.5,241.5z"/>
</g>
<g>
	<path class="st42" d="M236.5,223.5c-0.1,0.7,0,1.4,0.5,2c1-2.1,2.3-2.4,4-1c5.1,11,12.3,20.3,21.5,28c1.5,5.2,2.2,4.8,2-1
		c1.7,0,3.3,0,5,0c-0.3,5.4-1.3,10.4-3,15c1.1-4.2,1.3-8.6,0.5-13c-0.4,4-0.9,8-1.5,12c-1.4,1.1-2.7,1.1-4,0
		c-6.6-9.8-13.4-19.4-20.5-29c-1.4-3.4-2.7-6.7-4-10c-0.3,1.3-0.7,2.7-1,4c-0.3-1.8-1-2.1-2-1c-1.5,2.6-2.6,5.3-3.5,8
		c-0.3,0-0.7,0-1,0s-0.7,0-1,0c1.6-3.3,3.3-6.6,5-10C234.5,226.2,235.5,224.8,236.5,223.5z"/>
</g>
<g>
	<path class="st78" d="M338.5,237.5c2,0,3,1,3,3c0,1.5-0.6,2.5-2,3C338.5,241.6,338.2,239.6,338.5,237.5z"/>
</g>
<g>
	<path class="st79" d="M161.5,241.5c0,0.3,0,0.7,0,1c0,0.7,0,1.3,0,2c0.1,4.3-1.2,5.3-4,3c0.1-2.1-0.6-3.7-2-5c0-1.3,0-2.7,0-4
		c1.7,0,3.3,0,5,0C160.3,239.8,160.6,240.8,161.5,241.5z"/>
</g>
<g>
	<path class="st80" d="M225.5,238.5c-1.9,5.7-5.5,9.7-11,12c0.2-1.4,0.7-2.8,1.5-4C219.7,244.3,222.9,241.6,225.5,238.5z"/>
</g>
<g>
	<path class="st81" d="M409.5,248.5c-2.1,0.7-4.1,0.7-6,0c-1,1.5-1.3,3.2-1,5c-2.9-6-3.6-12.3-2-19c1,2.9,1.7,5.9,2,9
		C405.6,244,408,245.6,409.5,248.5z"/>
</g>
<g>
	<path class="st82" d="M155.5,242.5c1.4,1.3,2.1,2.9,2,5c-0.2,1.3,0.2,2.5,1,3.5c-1.3,0.5-2.6,0.7-4,0.5c0.9-0.8,1.6-1.8,2-3
		C155.8,246.5,155.5,244.5,155.5,242.5z"/>
</g>
<g>
	<path class="st83" d="M164.5,249.5c-1,0.5-1.8,1.1-2.5,2c-0.2-0.3-0.3-0.7-0.5-1c0.8-1.9,1.2-3.9,1-6c3.3-1.8,7-2.5,11-2
		c-0.6,5.6-1.1,11.3-1.5,17c-1.2-0.6-2.4-1.2-3.5-2C171.9,252.4,170.6,249.7,164.5,249.5z"/>
</g>
<g>
	<path class="st84" d="M161.5,244.5c0.3,0,0.7,0,1,0c0.2,2.1-0.2,4.1-1,6c0.2,0.3,0.3,0.7,0.5,1c0.7-0.9,1.5-1.5,2.5-2
		c0.3,0.7,0.7,1.3,1,2c-1.9,0.3-3.3,1.3-4,3c0-1.3-0.7-2-2-2c-2.1-0.2-4.1,0.2-6,1c0-0.3,0-0.7,0-1c0-0.7,0.3-1,1-1
		c1.4,0.2,2.7,0,4-0.5c-0.8-1-1.2-2.2-1-3.5C160.3,249.8,161.6,248.8,161.5,244.5z"/>
</g>
<g>
	<path class="st42" d="M265.5,265.5c0,0.7,0.3,1,1,1c-0.4,0.7-1.1,1.2-2,1.5c-4.9,0.8-9.5,0.6-14-0.5c2.7,0.1,3.4-0.9,2-3
		c-5.8-5-10.3-11-13.5-18c-3.4-2.6-6.2-5.6-8.5-9c0.9-2.7,2-5.4,3.5-8c1-1.1,1.7-0.8,2,1c0.3-1.3,0.7-2.7,1-4c1.3,3.3,2.6,6.6,4,10
		c7.1,9.6,13.9,19.2,20.5,29C262.8,266.6,264.1,266.6,265.5,265.5z"/>
</g>
<g>
	<path class="st85" d="M229.5,231.5c-1.1,2.5-2.4,4.8-4,7c-2.6,3.1-5.8,5.8-9.5,8c-0.8,1.2-1.3,2.6-1.5,4c-6.3,1.4-12.3,3.4-18,6
		c-2-0.1-3.7,0.6-5,2c-0.9,10.9-1.9,21.9-3,33c-1,0.7-2,1.3-3,2c-3.4-16-3.8-32-1-48c11.5-0.8,22.8-2.6,34-5.5
		c3.5-2.8,6.7-6,9.5-9.5C228.4,231.1,228.9,231.4,229.5,231.5z"/>
</g>
<g>
	<path class="st86" d="M311.5,259.5c-9.2,1.3-15.4-2.3-18.5-11c-0.8-1.9-1.3-3.9-1.5-6c3.3-2.7,7-4.8,11-6.5c1.3-1.4,1-2.4-1-3
		c2.9-1.4,5.9-2.3,9-2.5c-0.4,2.4,0.6,3.9,3,4.5c5.5,0.3,10.8-0.2,16-1.5c-0.2,2.4,0,4.7,0.5,7c1.8,2.5,3.3,5.2,4.5,8
		c-0.1,0.9-0.4,1.8-1,2.5c-3.1,0.7-5.8-0.1-8-2.5c-1.2-3.3-2.2-6.6-3-10c-2.2-0.9-4.6-1.2-7-1c0.1,2.3,0.9,4.3,2.5,6
		c3.4,3.8,6.6,7.8,9.5,12c-0.5,0.3-1,0.7-1.5,1c-4.4-1.4-8.9-2.4-13.5-3c-5,0.4-5.1,1.8-0.5,4C312.7,258.4,312.5,259.1,311.5,259.5z
		"/>
</g>
<g>
	<path class="st87" d="M303.5,236.5c3.7-0.3,7.4,0,11,1c-1.7,0.8-3,2-4,3.5c2,2.2,3.4,4.7,4,7.5c-3.7-0.2-7.2,0.5-10.5,2
		c-1.1-0.1-2.1-0.4-3-1c-1.1-2.2-2-4.6-2.5-7C299.8,240.2,301.4,238.2,303.5,236.5z"/>
</g>
<g>
	<path class="st88" d="M441.5,217.5c2.7,3.8,5.2,7.8,7.5,12c0.5,3,0.7,6,0.5,9c2.1-0.1,3.7,0.5,5,2c0.3,3.7,0,7.4-1,11
		c-2.8-2.9-4.3-2.2-4.5,2c-3.7,2.2-6.5,5.2-8.5,9c-0.8,0.9-1.8,1.2-3,1c0.3-2.2,0-4.2-1-6c0-0.3,0-0.7,0-1c0.2-2.7-0.1-5.4-1-8
		c2.3-0.3,4.5-1.6,6.5-4c1.5-3.2,3-6.3,4.5-9.5C445.5,228.9,443.9,223.1,441.5,217.5z"/>
</g>
<g>
	<path class="st42" d="M223.5,245.5c1.2,2.8,1.8,5.8,2,9c4.9,1,9.2,3.2,13,6.5c2.7,3.3,5.3,6.7,8,10c5.9,1.5,11.9,1.8,18,1
		c1.5-1.7,3.2-3.2,5-4.5c1.4,1.7,2.3,3.7,2.5,6c2.8,4.8,6.8,6.2,12,4c2.1,0.9,4.3,1.6,6.5,2c2,2.2,4.7,3.2,8,3c2.6,0.9,5.3,1.5,8,2
		c4.8,1,9.8,1.3,15,1c3.2,0.5,5.9-0.1,8-2c1.7,0.2,3.4,0,5-0.5c1-2.1,1.9-4.2,2.5-6.5c2.4,2.6,4.1,5.6,5,9c0.7,0.6,1.6,0.9,2.5,1
		c3.8-1.1,7.1-2.9,10-5.5c8.5-0.7,17-0.6,25.5,0.5c3.6-0.4,7.1-1.1,10.5-2c0.8,0.4,1.6,0.8,2.5,1c3.5-1.8,7-3.5,10.5-5
		c1.8,1.1,3.8,1.3,6,0.5c2.2-0.1,3.8-0.9,5-2.5c4.2-0.9,8.5-1.7,13-2.5c3.2-0.6,4.9-2.4,5-5.5c1.2,0.7,2.5,1.1,4,1
		c0.7,0.3,1.3,0.7,2,1c-0.1,1.8,0.3,3.8,1,6c-1,0-2,0-3,0c0,1,0,2,0,3c-1,0-2,0-3,0c-1.4,4.7-2.7,9.4-4,14c-1,0-2,0-3,0c0,1,0,2,0,3
		c-3.4,0.1-3.7,1.1-1,3c-1.9,1-3.9,1.3-6,1c0,1,0,2,0,3c-0.7,0-1,0.3-1,1c-29,6.2-58.3,8.8-88,8c-8.2,0.2-16.2-0.5-24-2
		c14.3,0.4,28.7,0.5,43,0.5c-14.7-1.5-29.3-3-44-4.5c-1.7,0-3.3,0-5,0c-19.5-3.2-39-7.2-58.5-12c-1.8,0.4-1.6,0.9,0.5,1.5
		c9.5,2.9,18.8,5.7,28,8.5c-6.9-0.5-13.5-1.8-20-4c-16.5-5.1-31.5-13.1-45-24c-3.4-3.4-6.4-7-9-11c-0.8-0.9-1.8-1.2-3-1
		c-0.4-2.5,0.6-3.8,3-4c6.7-2.1,13.3-4.2,20-6.5C219.6,250.1,221.9,248.2,223.5,245.5z"/>
</g>
<g>
	<path class="st42" d="M459.5,231.5c5.8,4.4,10.4,9.8,14,16c3.7,10.5,2.4,20.2-4,29c-4.2,4.2-8.8,7.5-14,10c-5.4,2.4-10.7,4.7-16,7
		c0-1,0-2,0-3c2,0.2,4,0,6-0.5c-3.2-0.6-3.5-1.6-1-3c-0.9-0.4-1.6-1.1-2-2c1.6-2.9,3.6-5.4,6-7.5c1.3-2.3,2.3-4.6,3-7c1,0,2,0,3,0
		c0.3-2-0.4-3.5-2-4.5c1.2-1.9,2.8-2.7,5-2.5c1.4-2.9,2.6-5.9,3.5-9c1-0.8,2.2-1.2,3.5-1c0-1,0-2,0-3c1,0,2,0,3,0
		c-1.4-3.1-2.2-6.5-2.5-10c-1.9-2.4-3.7-4.7-5.5-7C459.5,232.8,459.5,232.2,459.5,231.5z"/>
</g>
<g>
	<path class="st89" d="M233.5,226.5c0,0.3,0,0.7,0,1c-1.7,3.4-3.4,6.7-5,10c-1.7,2.6-3.3,5.3-5,8c-1.6,2.7-3.9,4.6-7,5.5
		c-6.7,2.3-13.3,4.4-20,6.5c0-0.3,0-0.7,0-1c5.7-2.6,11.7-4.6,18-6c5.5-2.3,9.1-6.3,11-12c1.6-2.2,2.9-4.5,4-7c0.7-1,1.3-2,2-3
		C231.8,227.5,232.5,226.8,233.5,226.5z"/>
</g>
<g>
	<path class="st90" d="M153.5,252.5c0,0.3,0,0.7,0,1c0,1,0,2,0,3c2.3,0,4.7,0,7,0c0.1-1.5-0.3-2.8-1-4c1.3,0,2,0.7,2,2
		c-0.1,1.8,0.2,3.5,1,5c-1.8-1-3.5-1-5,0c-1.6-1.6-3.6-2.2-6-2C151.1,255.3,151.8,253.6,153.5,252.5z"/>
</g>
<g>
	<path class="st91" d="M159.5,252.5c0.7,1.2,1.1,2.5,1,4c-2.3,0-4.7,0-7,0c0-1,0-2,0-3C155.4,252.7,157.4,252.3,159.5,252.5z"/>
</g>
<g>
	<path class="st92" d="M165.5,251.5c1.1,0.3,1.8,1.1,2,2.5c-0.1,3.3-1.8,5.1-5,5.5c-0.8-1.5-1.1-3.2-1-5
		C162.2,252.8,163.6,251.8,165.5,251.5z"/>
</g>
<g>
	<path class="st93" d="M412.5,175.5c15.6,11.7,27.4,26.7,35.5,45c9.6,6.6,18.2,14.2,26,23c2.7,6,6.3,11.4,11,16
		c1.7,3.5,2.8,7.2,3.5,11c12.4-1.2,24.1-4.7,35-10.5c2.2-0.8,4.2-0.6,6,0.5c-2.7-0.3-5.1,0.3-7,2c-8.1,3.6-16.4,6.6-25,9
		c-5,0-10,0.3-15,1c0-0.3,0-0.7,0-1c1.3,0,2.7,0,4,0c-0.1-5.2-1.7-9.9-5-14c-0.7,3.5-1.3,6.8-2,10c0.6-7.6-1.4-14.2-6-20
		c-3.6-6.2-8.2-11.6-14-16c-1-0.7-2-1.3-3-2c-1.6-1.1-3.1-2.4-4.5-4c-0.5,0.6-0.6,1.3-0.5,2c-4.6-6.1-8.4-12.8-11.5-20
		c-2.4-4.1-5.2-7.8-8.5-11c-1.9-1.4-3.6-3.1-5-5C422.2,185.9,417.6,180.6,412.5,175.5z"/>
</g>
<g>
	<path class="st94" d="M157.5,259.5c1.5-1,3.2-1,5,0c0,0.7,0.3,1,1,1c-0.6,0.9-0.9,1.9-1,3c-0.9-0.6-1.9-0.9-3-1
		C159.1,261.3,158.4,260.3,157.5,259.5z"/>
</g>
<g>
	<path class="st95" d="M162.5,263.5c0.1-1.1,0.4-2.1,1-3c3.4-1.3,4.6,0,3.5,4C165.1,265.9,163.6,265.6,162.5,263.5z"/>
</g>
<g>
	<path class="st96" d="M454.5,240.5c1.5,2,2.2,4.3,2,7c0.1,3.2-0.6,6.2-2,9c-2.5-0.2-4.8,0.3-7,1.5c-1.8,4.3-4.8,7.5-9,9.5
		c-0.7-0.3-1.3-0.7-2-1c0-3,0-6,0-9c1,1.8,1.3,3.8,1,6c1.2,0.2,2.2-0.1,3-1c2-3.8,4.8-6.8,8.5-9c0.2-4.2,1.7-4.9,4.5-2
		C454.5,247.9,454.8,244.2,454.5,240.5z"/>
</g>
<g>
	<path class="st97" d="M482.5,271.5c-1,0-2,0-3,0c0-1.3,0-2.7,0-4c0.7-3.2,1.3-6.5,2-10c3.3,4.1,4.9,8.8,5,14
		C485.2,271.5,483.8,271.5,482.5,271.5z"/>
</g>
<g>
	<path class="st98" d="M157.5,259.5c0.9,0.8,1.6,1.8,2,3c-0.9,5.8-1.8,11.8-2.5,18c-1.2,4.7-3,9.1-5.5,13
		C155.7,282.6,157.7,271.3,157.5,259.5z"/>
</g>
<g>
	<path class="st99" d="M175.5,236.5c-1.5,17.5-0.3,34.8,3.5,52c0.3,3.2,1.5,5.8,3.5,8c-1,1-2,2-3,3c-3-12.8-5-25.8-6-39
		c-1.4,0.1-2.8-0.3-4-1c-0.8,1.9-1.3,3.9-1.5,6c-1.4,0.9-2.9,1.2-4.5,1c0.1,6.8-0.7,13.5-2.5,20c-0.7,2.7-1.8,5-3.5,7
		c3.3-9,4.8-18.4,4.5-28c-1-0.9-1.9-1.9-2.5-3c1.1,0.1,2.1,0.4,3,1c1.1,2.1,2.6,2.4,4.5,1c1.1-4-0.1-5.3-3.5-4c-0.7,0-1-0.3-1-1
		c3.2-0.4,4.9-2.2,5-5.5c-0.2-1.4-0.9-2.2-2-2.5c-0.3-0.7-0.7-1.3-1-2c6.1,0.2,7.4,2.9,4,8c1.1,0.8,2.3,1.4,3.5,2
		c0.4-5.7,0.9-11.4,1.5-17c-4-0.5-7.7,0.2-11,2c-0.3,0-0.7,0-1,0c0-0.7,0-1.3,0-2c4.3-0.9,8.6-1.2,13-1
		C174.2,239.6,174.5,237.9,175.5,236.5z"/>
</g>
<g>
	<path class="st100" d="M473.5,247.5c4.6,5.8,6.6,12.4,6,20c-2.7,8-7.3,14.7-14,20c-0.3-2,0.4-3.5,2-4.5c-0.3-0.3-0.7-0.7-1-1
		c1.3-1.3,2.7-1.8,4-1.5c-0.7-1.2-1.1-2.6-1-4C475.9,267.7,477.2,258,473.5,247.5z"/>
</g>
<g>
	<path class="st101" d="M529.5,260.5c4.6,1.4,6.4,4.4,5.5,9c-4.4,9.8-10.9,17.8-19.5,24c2-2.3,4-4.7,6-7c4.5-4.7,8.4-10.1,11.5-16
		c0.7-2,0.7-4,0-6C531.6,263.3,530.5,262,529.5,260.5z"/>
</g>
<g>
	<path class="st102" d="M191.5,258.5c-0.6,5.1,0.4,9.8,3,14c0.2,4,0,8-0.5,12c-0.8,1.7-1.6,3.4-2.5,5c-1,0.7-2,1.3-3,2
		C189.6,280.4,190.6,269.4,191.5,258.5z"/>
</g>
<g>
	<path class="st103" d="M497.5,271.5c1.5,0.8,3.1,1.3,5,1.5c-6.3,3.1-13,5.3-20,6.5c0-2.3,0-4.7,0-7
		C487.5,271.8,492.5,271.5,497.5,271.5z"/>
</g>
<g>
	<path class="st104" d="M414.5,273.5c-1.2,1.6-2.8,2.4-5,2.5c-2.2,0.8-4.2,0.6-6-0.5C407.1,274.4,410.7,273.7,414.5,273.5z"/>
</g>
<g>
	<path class="st105" d="M529.5,260.5c1,1.5,2.1,2.8,3.5,4c0.7,2,0.7,4,0,6c-3.1,5.9-7,11.3-11.5,16c-4.8,2.6-9.4,5.4-14,8.5
		c-5.1,1.4-10.1,2.9-15,4.5c-7.8,1.2-9.3-0.8-4.5-6c1.4-2.3,1.6-4.7,0.5-7c1.2-1.9,2.5-3.7,4-5.5c9.1-1.9,18.1-4.2,27-7
		c-1.4-0.2-2.8-0.7-4-1.5c0.2-0.3,0.3-0.7,0.5-1c2.9-1.9,6.1-3.4,9.5-4.5c0.9-1.4,1.2-2.9,1-4.5c-1.3,0-2.7,0-4,0
		C524.4,260.8,526.8,260.2,529.5,260.5z"/>
</g>
<g>
	<path class="st106" d="M522.5,262.5c1.3,0,2.7,0,4,0c0.2,1.6-0.1,3.1-1,4.5c-3.4,1.1-6.6,2.6-9.5,4.5c-0.2,0.3-0.3,0.7-0.5,1
		c1.2,0.8,2.6,1.3,4,1.5c-8.9,2.8-17.9,5.1-27,7c-1.5,1.8-2.8,3.6-4,5.5c-1.3-3-3.3-5.3-6-7c7-1.2,13.7-3.4,20-6.5
		c-1.9-0.2-3.5-0.7-5-1.5C506.1,269.1,514.4,266.1,522.5,262.5z"/>
</g>
<g>
	<path class="st107" d="M290.5,279.5c2.7,0,5.3,0,8,0c-1.3,1-1.3,2,0,3C295.2,282.7,292.5,281.7,290.5,279.5z"/>
</g>
<g>
	<path class="st78" d="M298.5,279.5c3.7-0.5,7,0.2,10,2c0.2,1.7-0.5,2.7-2,3c-2.7-0.5-5.4-1.1-8-2
		C297.2,281.5,297.2,280.5,298.5,279.5z"/>
</g>
<g>
	<path class="st108" d="M277.5,237.5c-1,1.1-1.7,2.4-2,4c0.5,2,0.7,4,0.5,6c-1.6,2.6-3.6,5-6,7c-0.3,4,0,8,1,12
		c0.2-2.5,1.4-4.1,3.5-5c-1.6,3.4-1.2,6.6,1,9.5c3.7,0.5,7.3,0.7,11,0.5c0,1.7,0,3.3,0,5c3-0.8,5.7-2.1,8-4c0.7,0,1.3,0,2,0
		c6.1,0.7,11.1,3.6,15,8.5c5.4,0.5,10.7,0.1,16-1c3.3-0.5,5.6-2.1,7-5c-2-3.6-2.5-7.4-1.5-11.5c2.9-4.2,4.2-8.8,4-14
		c1.5,7.7,1.8,15.3,1,23c2.5,1.8,4.1,4.1,5,7c1.1,0.6,2.2,0.9,3.5,1c2.6-0.5,5-1.6,7-3.5c3.3-0.5,6.6-0.7,10-0.5
		c5.2,0.3,10.4,1,15.5,2c3.1-1.4,5.2-3.8,6.5-7c1.2,0.4,1.9,1.2,2,2.5c-0.7,1.3-1.3,2.7-2,4c0.3,0.5,0.7,1,1,1.5
		c2.7-0.8,3.3-2.3,2-4.5c1.9,0.3,3.9,0.3,6,0c3.4-3.4,7.4-5.6,12-6.5c2.6-0.2,4.9-0.9,7-2c2.5,0.4,4.5-0.2,6-2
		c3.6,1.1,7.1,1.1,10.5,0c-0.1-7.2-2-13.9-5.5-20c-2.9-7.6-2-7.9,2.5-1c2.6,7.2,4.4,14.5,5.5,22c-0.1,3.1-1.8,4.9-5,5.5
		c-4.5,0.8-8.8,1.6-13,2.5c-3.8,0.2-7.4,0.9-11,2c-3.5,1.5-7,3.2-10.5,5c-0.9-0.2-1.7-0.6-2.5-1c-3.4,0.9-6.9,1.6-10.5,2
		c-8.5-1.1-17-1.2-25.5-0.5c-2.9,2.6-6.2,4.4-10,5.5c-0.9-0.1-1.8-0.4-2.5-1c-0.9-3.4-2.6-6.4-5-9c-0.6,2.3-1.5,4.4-2.5,6.5
		c-1.6,0.5-3.3,0.7-5,0.5c-3,0-6,0-9,0c-4.2,0.3-8.2-0.3-12-2c-3-1.8-6.3-2.5-10-2c-2.7,0-5.3,0-8,0c-2.2-0.4-4.4-1.1-6.5-2
		c-5.2,2.2-9.2,0.8-12-4c-0.2-2.3-1.1-4.3-2.5-6c-1.8,1.3-3.5,2.8-5,4.5c-6.1,0.8-12.1,0.5-18-1c-2.7-3.3-5.3-6.7-8-10
		c-3.8-3.3-8.1-5.5-13-6.5c-0.2-3.2-0.8-6.2-2-9c1.7-2.7,3.3-5.4,5-8c0.3,0,0.7,0,1,0c-0.7,3.1-1.7,6.1-3,9c0.8,1.9,1.2,3.9,1,6
		c3.1-0.2,6.1,0.1,9,1c5.1,4.4,9.7,9.1,14,14c4.5,1.1,9.1,1.3,14,0.5c0.9-0.3,1.6-0.8,2-1.5c1.7-4.6,2.7-9.6,3-15c1.7-2,3.4-4,5-6
		c-0.2-2.7,0-5.4,0.5-8C276.4,235.2,277.2,235.2,277.5,237.5z"/>
</g>
<g>
	<path class="st109" d="M266.5,266.5c-0.7,0-1-0.3-1-1c0.6-4,1.1-8,1.5-12C267.8,257.9,267.6,262.3,266.5,266.5z"/>
</g>
<g>
	<path class="st110" d="M424.5,244.5c3.5,6.1,5.4,12.8,5.5,20c-3.4,1.1-6.9,1.1-10.5,0C421,257.7,422.7,251,424.5,244.5z"/>
</g>
<g>
	<path class="st42" d="M291.5,242.5c0.2,2.1,0.7,4.1,1.5,6c3.1,8.7,9.3,12.3,18.5,11c-4.5,1.4-9,1.1-13.5-1c-0.2,0.3-0.3,0.7-0.5,1
		c1.8,1.7,3.7,3.3,5.5,5c-0.8,2.3-0.6,4.7,0.5,7c-2.6-0.3-4.9,0-7,1c-0.7,0-1.3,0-2,0c-0.7-1.4-1-3.1-1-5c-4.6-1.6-7.9-4.6-10-9
		c-0.8-0.9-1.8-1.2-3-1c0.3-1.6-0.1-2.9-1-4c-2-4.4-1.3-8.2,2-11.5c3,3,6.1,6.1,9.5,9.5C290.6,248.3,290.8,245.3,291.5,242.5z"/>
</g>
<g>
	<path class="st111" d="M409.5,248.5c1.3,5.2,2.7,10.6,4,16c-6.5,1.1-8.2-0.9-5-6c2.4-2.2,2.4-4.4,0-6.5
		C409.3,251,409.7,249.8,409.5,248.5z"/>
</g>
<g>
	<path class="st112" d="M402.5,253.5c1.4,2.5,3.4,4.1,6,5c-3.2,5.1-1.5,7.1,5,6c0,0.7,0,1.3,0,2c-2.1,1.1-4.4,1.8-7,2
		C404.4,263.8,403.1,258.8,402.5,253.5z"/>
</g>
<g>
	<path class="st113" d="M279.5,253.5c0.9,1.1,1.3,2.4,1,4c1.2-0.2,2.2,0.1,3,1c2.1,4.4,5.4,7.4,10,9c0,1.9,0.3,3.6,1,5
		c-2.3,1.9-5,3.2-8,4c0-1.7,0-3.3,0-5c-3.7,0.2-7.3,0-11-0.5c-2.2-2.9-2.6-6.1-1-9.5C277.8,259.8,279.5,257.2,279.5,253.5z"/>
</g>
<g>
	<path class="st114" d="M409.5,248.5c0.2,1.3-0.2,2.5-1,3.5c2.4,2.1,2.4,4.3,0,6.5c-2.6-0.9-4.6-2.5-6-5c-0.3-1.8,0-3.5,1-5
		C405.4,249.2,407.4,249.2,409.5,248.5z"/>
</g>
<g>
	<path class="st78" d="M326.5,241.5c1.5,1.6,3,3.3,4.5,5c0.7,1.1,0.6,2.1-0.5,3C327.8,247.5,326.5,244.8,326.5,241.5z"/>
</g>
<g>
	<path class="st115" d="M229.5,237.5c0.3,0,0.7,0,1,0c2.3,3.4,5.1,6.4,8.5,9c3.2,7,7.7,13,13.5,18c1.4,2.1,0.7,3.1-2,3
		c-4.3-4.9-8.9-9.6-14-14c-2.9-0.9-5.9-1.2-9-1c0.2-2.1-0.2-4.1-1-6C227.8,243.6,228.8,240.6,229.5,237.5z"/>
</g>
<g>
	<path class="st116" d="M482.5,272.5c0,2.3,0,4.7,0,7c2.7,1.7,4.7,4,6,7c1.1,2.3,0.9,4.7-0.5,7c-4.8,5.2-3.3,7.2,4.5,6
		c0.3,1.5,1.3,2.2,3,2c-6.8,1.9-13.8,2.4-21,1.5c-1.6-2.6-4-4.1-7-4.5c-1.3-1-1.3-2,0-3c1.4-3.1,2.2-6.4,2.5-10c4-3.3,7-7.3,9-12
		C480,272.7,481.2,272.3,482.5,272.5z"/>
</g>
<g>
	<path class="st117" d="M159.5,262.5c0.6,1.1,1.5,2.1,2.5,3c0.3,9.6-1.2,19-4.5,28c-0.6,2.7-1.9,5.1-4,7c-0.1-1,0.2-1.8,1-2.5
		c-1-0.5-2-1-3-1.5c-2.1,1.7-4.1,3.4-6,5c1.6-3,3.6-5.6,6-8c2.5-3.9,4.3-8.3,5.5-13C157.8,274.3,158.6,268.3,159.5,262.5z"/>
</g>
<g>
	<path class="st118" d="M194.5,272.5c2.9,3.5,5.6,7.2,8,11c-1.4-0.1-2.8,0.3-4,1c-1.8,2.4-4.1,4.1-7,5c0.9-1.6,1.7-3.3,2.5-5
		C194.5,280.5,194.7,276.5,194.5,272.5z"/>
</g>
<g>
	<path class="st119" d="M196.5,256.5c0,0.3,0,0.7,0,1c-2.4,0.2-3.4,1.5-3,4c0.4,4.7,1.9,9.1,4.5,13c8.1,8.3,17.3,15,27.5,20
		c-2.1-0.2-4.1-0.7-6-1.5c-4.3-3.5-9-6.3-14-8.5c-2.2,0.5-4.2,1.2-6,2c-18.8,11.3-31.1,26.3-37,45c2.2-12.5,7.9-23.2,17-32
		c1-1,2-2,3-3c1.2-0.8,2.2-1.8,3-3c1-0.7,2-1.3,3-2s2-1.3,3-2c2.9-0.9,5.2-2.6,7-5c1.2-0.7,2.6-1.1,4-1c-2.4-3.8-5.1-7.5-8-11
		c-2.6-4.2-3.6-8.9-3-14C192.8,257.1,194.5,256.4,196.5,256.5z"/>
</g>
<g>
	<path class="st120" d="M308.5,281.5c3.8,1.7,7.8,2.3,12,2c0.3,0.7,0.7,1.3,1,2c-5.2,0.3-10.2,0-15-1
		C308,284.2,308.7,283.2,308.5,281.5z"/>
</g>
<g>
	<path class="st121" d="M320.5,283.5c3,0,6,0,9,0c-2.1,1.9-4.8,2.5-8,2C321.2,284.8,320.8,284.2,320.5,283.5z"/>
</g>
<g>
	<path class="st122" d="M469.5,276.5c-0.1,1.4,0.3,2.8,1,4c-1.3-0.3-2.7,0.2-4,1.5c0.3,0.3,0.7,0.7,1,1c-1.6,1-2.3,2.5-2,4.5
		c-4.5,3.8-9.5,6.8-15,9c1.9-3.2,3.9-6.4,6-9.5c-0.2-0.4-0.6-0.6-1-0.5C460.7,284,465.3,280.7,469.5,276.5z"/>
</g>
<g>
	<path class="st123" d="M193.5,261.5c1.2-0.2,2.2,0.1,3,1c2.6,4,5.6,7.6,9,11c13.5,10.9,28.5,18.9,45,24c-1.1-0.1-2.1,0-3,0.5
		c3,0.8,3.3,1.8,1,3c3.1,1.4,6.1,2.9,9,4.5c-4-1-8-2-12-3c-5.4-2.2-10.7-4.7-16-7.5c-1.3-0.5-2.6-0.7-4-0.5
		c-10.2-5-19.4-11.7-27.5-20C195.4,270.6,193.9,266.2,193.5,261.5z"/>
</g>
<g>
	<path class="st124" d="M199.5,286.5c2-0.2,4,0,6,0.5c6.5,4.7,13.2,9.2,20,13.5c0,1.6,0.6,3,2,4c-1.7,1.6-3.7,2.3-6,2
		c-1.4,6.4-4.5,11.7-9.5,16c-0.5,1.3-0.7,2.6-0.5,4c-3.1,0.6-4.6,2.6-4.5,6c-4.3,5-8.3,10.3-12,16c-1.4,6.2-4.7,10.8-10,14
		c-0.5,1.3-0.7,2.6-0.5,4c-1,0-2,0-3,0c0.1,1.6-0.5,2.8-2,3.5c-2.7,0.7-5.3,0.7-8,0c-1.2-3.4-2.1-3.2-2.5,0.5
		c-0.3-0.9-0.8-1.6-1.5-2c-1.8-5.1-3.5-10.1-5-15c-1.3-7.5-1.3-14.8,0-22C168.4,312.8,180.7,297.8,199.5,286.5z"/>
</g>
<g>
	<path class="st125" d="M459.5,293.5c0,3.7,0,7.3,0,11c-1-0.5-1.8-1.1-2.5-2c-0.5-2.3-0.7-4.6-0.5-7
		C457.5,294.8,458.5,294.2,459.5,293.5z"/>
</g>
<g>
	<path class="st126" d="M515.5,293.5c-2.9,3.3-6.6,5.3-11,6C508,297.2,511.7,295.2,515.5,293.5z"/>
</g>
<g>
	<path class="st127" d="M455.5,286.5c0.4-0.1,0.8,0.1,1,0.5c-2.1,3.1-4.1,6.3-6,9.5c-6.1,2.9-12.5,5.6-19,8c0.1-0.6,0.4-1.1,1-1.5
		c-1.9-0.9-2.9-2.4-3-4.5c3.1-2,6.5-3.7,10-5C444.8,291.2,450.1,288.9,455.5,286.5z"/>
</g>
<g>
	<path class="st128" d="M521.5,286.5c-2,2.3-4,4.7-6,7c-3.8,1.8-7.5,3.8-11,6c-0.3,0.8-1,1.2-2,1c-2.4,0.2-4.7,0.5-7,1
		c-1.7,0.2-2.7-0.5-3-2c4.9-1.6,9.9-3.1,15-4.5C512.1,291.9,516.7,289.1,521.5,286.5z"/>
</g>
<g>
	<path class="st129" d="M467.5,295.5c-1.3,1-1.3,2,0,3c3.2,4.4,5.9,9,8,14c-0.4,1.7-1.4,2.7-3,3c-0.8-0.9-1.8-1.6-3-2
		c-2.6-3.6-6-6.6-10-9c0-3.7,0-7.3,0-11c2.6-1.5,5.1-3.2,7.5-5C467.5,290.8,467.7,293.1,467.5,295.5z"/>
</g>
<g>
	<path class="st130" d="M250.5,297.5c6.5,2.2,13.1,3.5,20,4c10.8,2.8,21.8,5.3,33,7.5c-2,0.3-4,0.7-6,1c5.3,0.3,10.7,0.7,16,1
		c-4.6,0.2-9.3,0.9-14,2c1.6,0.2,2.9,0.7,4,1.5c-5.3-0.7-10.7-1.3-16-2c-5.4-1.5-11.1-2.5-17-3c-4.1-1.7-8.5-3-13-4
		c-2.9-1.6-5.9-3.1-9-4.5c2.3-1.2,2-2.2-1-3C248.4,297.5,249.4,297.4,250.5,297.5z"/>
</g>
<g>
	<path class="st131" d="M300.5,303.5c-6.3-0.8-12.7-1.3-19-1.5c0.9,0.3,1.6,0.8,2,1.5c-4.4-0.5-8.7-1.2-13-2
		c-9.2-2.8-18.5-5.6-28-8.5c-2.1-0.6-2.3-1.1-0.5-1.5C261.5,296.3,281,300.3,300.5,303.5z"/>
</g>
<g>
	<path class="st132" d="M145.5,301.5c-0.8,1.7-2.2,2.8-4,3.5c-9.3,0.5-18.7,0.7-28,0.5c-16.1-1.8-32.1-1.1-48,2
		c3.7-1.8,7.7-2.9,12-3.5c21.7-0.3,43.3-0.7,65-1C143.2,302,144.2,301.5,145.5,301.5z"/>
</g>
<g>
	<path class="st133" d="M467.5,298.5c3,0.4,5.4,1.9,7,4.5c7.2,0.9,14.2,0.4,21-1.5c2.3-0.5,4.6-0.8,7-1c-6.8,3.3-14.2,4.8-22,4.5
		c-0.6,0.8-1.1,1.6-1.5,2.5c-0.5,5-0.7,10-0.5,15c-1-1-2-2-3-3c1.3-2.3,1.3-4.7,0-7C473.4,307.5,470.7,302.9,467.5,298.5z"/>
</g>
<g>
	<path class="st134" d="M153.5,300.5c-2.9,5.9-7.6,9.6-14,11c0-0.7-0.3-1-1-1c4.1-0.7,7.4-2.7,10-6
		C150.2,303.2,151.8,301.8,153.5,300.5z"/>
</g>
<g>
	<path class="st135" d="M245.5,302.5c4,1,8,2,12,3c4.5,1,8.9,2.3,13,4c-7.3-1.1-8.3,0.4-3,4.5c6.1,4.4,12.8,7.7,20,10
		c1.2,0.7,1.2,1.2,0,1.5c-5.4-1.2-10.4-3.2-15-6c-5.3-3.7-10.3-7.8-15-12.5c-0.9-0.5-1.9-0.6-3-0.5c1.6,5.6,2.6,11.2,3,17
		c3.4,0.1,6.7,0.4,10,1c6.6,0.9,13.3,1.6,20,2c0.2,0.6,0.7,0.9,1.5,1c0.4-1,1.2-1.6,2.5-2c4.5,0.7,8.8,1.7,13,3c0.7,0,1.3,0,2,0
		c9.9,1.9,19.9,2.9,30,3c7.7-1,15.4-2.3,23-4c5.1-0.2,10.1-0.9,15-2c-8,3.1-16.3,5.1-25,6c-9.9,1-19.9,1.3-30,1
		c-20.5-3.5-41.2-5.8-62-7c-0.3,9.9-2.6,19.3-7,28c-0.8-0.3-1.2-1-1-2c0.3-1.3,0.7-2.7,1-4c0.8-0.3,1.2-1,1-2c0.8-0.3,1.2-1,1-2
		c1-1.4,1.3-3.1,1-5c2.9-10.7,2.3-21.4-2-32C249.5,305,247.5,303.6,245.5,302.5z"/>
</g>
<g>
	<path class="st136" d="M300.5,303.5c1.7,0,3.3,0,5,0c3.4,1.2,7.1,2.1,11,2.5c-3.3,0.5-6.6,0.7-10,0.5c-7.7-0.6-15.4-1.6-23-3
		c-0.4-0.7-1.1-1.2-2-1.5C287.8,302.2,294.2,302.7,300.5,303.5z"/>
</g>
<g>
	<path class="st137" d="M305.5,303.5c14.7,1.5,29.3,3,44,4.5c-14.3,0-28.7-0.1-43-0.5c0-0.3,0-0.7,0-1c3.4,0.2,6.7,0,10-0.5
		C312.6,305.6,308.9,304.7,305.5,303.5z"/>
</g>
<g>
	<path class="st138" d="M429.5,298.5c0.1,2.1,1.1,3.6,3,4.5c-0.6,0.4-0.9,0.9-1,1.5c-7.2,2.6-14.5,4.6-22,6c1.8-1.1,3.8-1.9,6-2.5
		c-0.7-0.3-1.3-0.7-2-1c1.1-0.7,1.1-1.6,0-2.5c1.4-1.4,3.1-2.4,5-3c0-0.7,0.3-1,1-1C422.8,299.6,426.1,299,429.5,298.5z"/>
</g>
<g>
	<path class="st139" d="M457.5,305.5c0,1.3,0,2.7,0,4c1.1-0.1,2.1,0,3,0.5c-1.1,1.1-0.8,2,1,2.5c2.5,13.7,6.4,27,11.5,40
		c0.5,2.3,0.7,4.6,0.5,7c1.3,0,2.7,0,4,0c0,1,0,2,0,3c1,0,2,0,3,0c0,1,0,2,0,3c-1.8-1.6-2.8-1.1-3,1.5c0.3,2.5,1.3,4.7,3,6.5
		c-1.3,1.5-2,3.5-2,6c0.1,2.5,0.8,4.6,2,6.5c-0.8,1.7-2.1,2.5-4,2.5c0.2,1.4,0,2.7-0.5,4c-1.9,1.1-3.7,2.1-5.5,3c-0.7,0-1.3,0-2,0
		c0.6-1.3,1.6-2.1,3-2.5c-1.5-3.4-2.8-6.9-4-10.5c0.5-1,1.1-1.8,2-2.5c-1-6.3-2.4-12.5-4-18.5c-1.3-2.9-3-5.6-5-8c0-0.3,0-0.7,0-1
		c-0.7-4.2-2.9-7.6-6.5-10c-3.9-11.4-7.3-23.1-10-35c-1.9,1.5-4.1,2.2-6.5,2C443.6,305,450.3,303.6,457.5,305.5z"/>
</g>
<g>
	<path class="st140" d="M153.5,300.5c-1.7,1.3-3.3,2.7-5,4c-12.9,1.2-25.5,3.2-38,6c-6.3,0-12.7,0-19,0c7.6-1.3,14.9-2.9,22-5
		c9.3,0.2,18.7,0,28-0.5c1.8-0.7,3.2-1.8,4-3.5c1.9-1.6,3.9-3.3,6-5c1,0.5,2,1,3,1.5C153.7,298.7,153.4,299.5,153.5,300.5z"/>
</g>
<g>
	<path class="st141" d="M225.5,294.5c1.4-0.2,2.7,0,4,0.5c5.3,2.8,10.6,5.3,16,7.5c-2.1-0.2-4.1-0.4-6-0.5c2,1,4,2,6,3
		c-3.2,0.3-3.6,1.1-1,2.5c-0.5,1-1.1,1.8-2,2.5c-2.4,0.1-4.8-0.4-7-1.5c-1-0.7-2-1.3-3-2c-2.3-2-4.6-4-7-6
		c-6.8-4.3-13.5-8.8-20-13.5c-2-0.5-4-0.7-6-0.5c1.8-0.8,3.8-1.5,6-2c5,2.2,9.7,5,14,8.5C221.4,293.8,223.4,294.3,225.5,294.5z"/>
</g>
<g>
	<path class="st142" d="M148.5,304.5c-2.6,3.3-5.9,5.3-10,6c-9.3,0-18.7,0-28,0C123,307.8,135.6,305.8,148.5,304.5z"/>
</g>
<g>
	<path class="st143" d="M479.5,267.5c0,1.3,0,2.7,0,4c1,0,2,0,3,0c0,0.3,0,0.7,0,1c-1.3-0.2-2.5,0.2-3.5,1c-2,4.7-5,8.7-9,12
		c-0.3,3.6-1.1,6.9-2.5,10c0.2-2.4,0-4.7-0.5-7c-2.4,1.8-4.9,3.5-7.5,5c-1,0.7-2,1.3-3,2c-8.2,3.4-16.2,7.4-24,12
		c-7.2,0.4-14.2,2.2-21,5.5c-0.9,0.7-1.5,1.5-2,2.5c-6.4,9.3-9.1,19.6-8,31c0,1.7,0,3.3,0,5c-1.6-4.7-2.3-9.7-2-15
		c-13.5-0.2-26.9-1.2-40-3c13.3,0.5,26.7,0.8,40,1c1.4-7.1,4.1-13.7,8-20c-0.5-0.3-1-0.7-1.5-1c-10.4,4.1-20.9,8.1-31.5,12
		c0.5-1,1.1-1.8,2-2.5c5.6-1.7,10.9-4.1,16-7c-7.1,0.7-14.1,1.5-21,2.5c-1.7,0-3.3,0-5,0c-18.4,0.5-36.7-0.1-55-2c-2.3,0-4.7,0-7,0
		c-6-1.3-12-2.3-18-3c0-0.7,0.3-1,1-1c5.3,0.7,10.7,1.3,16,2c11,1,22,1.6,33,2c14.2,1.3,28.5,0.9,43-1c4.6,0.1,8.9-0.6,13-2
		c5.7-0.9,11.4-1.9,17-3c7.5-1.4,14.8-3.4,22-6c6.5-2.4,12.9-5.1,19-8c5.5-2.2,10.5-5.2,15-9C472.2,282.2,476.8,275.5,479.5,267.5z"
		/>
</g>
<g>
	<path class="st144" d="M418.5,301.5c-1.9,0.6-3.6,1.6-5,3c1.1,0.9,1.1,1.8,0,2.5c0.7,0.3,1.3,0.7,2,1c-2.2,0.6-4.2,1.4-6,2.5
		c-5.6,1.1-11.3,2.1-17,3c-4.6-0.1-8.9,0.6-13,2c-14.5,1.9-28.8,2.3-43,1c4.2-0.7,8.5-1.3,13-2c-1.6-1.6-3.6-2.5-6-2.5
		c4.3,0.1,8.7,0.1,13,0c-8.8-1-17.5-1.8-26-2.5C360.2,310.3,389.5,307.7,418.5,301.5z"/>
</g>
<g>
	<path class="st145" d="M456.5,295.5c-0.2,2.4,0,4.7,0.5,7c0.7,0.9,1.5,1.5,2.5,2c4,2.4,7.4,5.4,10,9c-4-2.7-8-5.3-12-8
		c-7.2-1.9-13.9-0.5-20,4c-4.8,2.2-9.2,5.2-13,9c-1.7,1.3-3.3,2.7-5,4c-1.3-1.5-2.2-1.1-2.5,1c-2.3-1.4-4.8-2-7.5-2c0-2,0-4,0-6
		c0.5-1,1.1-1.8,2-2.5c6.8-3.3,13.8-5.1,21-5.5C440.3,302.9,448.3,298.9,456.5,295.5z"/>
</g>
<g>
	<path class="st146" d="M51.5,310.5c-2.3,1.5-5,2.2-8,2C45.9,311.2,48.6,310.6,51.5,310.5z"/>
</g>
<g>
	<path class="st147" d="M270.5,301.5c4.3,0.8,8.6,1.5,13,2c7.6,1.4,15.3,2.4,23,3c0,0.3,0,0.7,0,1c7.8,1.5,15.8,2.2,24,2
		c8.5,0.7,17.2,1.5,26,2.5c-4.3,0.1-8.7,0.1-13,0c2.4,0,4.4,0.9,6,2.5c-4.5,0.7-8.8,1.3-13,2c-11-0.4-22-1-33-2
		c-1.1-0.8-2.4-1.3-4-1.5c4.7-1.1,9.4-1.8,14-2c-5.3-0.3-10.7-0.7-16-1c2-0.3,4-0.7,6-1C292.3,306.8,281.3,304.3,270.5,301.5z"/>
</g>
<g>
	<path class="st148" d="M91.5,310.5c6.3,0,12.7,0,19,0c9.3,0,18.7,0,28,0c0.7,0,1,0.3,1,1c-18.3-0.2-36.7,0-55,0.5
		c-9.7,1.7-19.4,3.5-29,5.5C67,313.3,79,311,91.5,310.5z"/>
</g>
<g>
	<path class="st149" d="M270.5,309.5c5.9,0.5,11.6,1.5,17,3c-0.7,0-1,0.3-1,1c-1.2-0.2-2.2,0.1-3,1c1.5,2,3.1,3.8,5,5.5
		c5.2,3.3,10.5,6.2,16,8.5c-4.2-1.3-8.5-2.3-13-3c-1.3,0.4-2.1,1-2.5,2c-0.8-0.1-1.3-0.4-1.5-1c0-0.3,0-0.7,0-1
		c1.2-0.3,1.2-0.8,0-1.5c-7.2-2.3-13.9-5.6-20-10C262.2,309.9,263.2,308.4,270.5,309.5z"/>
</g>
<g>
	<path class="st150" d="M43.5,312.5c-9.4,2.4-19.1,4.1-29,5C23.9,315,33.6,313.3,43.5,312.5z"/>
</g>
<g>
	<path class="st151" d="M113.5,305.5c-7.1,2.1-14.4,3.7-22,5c-12.5,0.5-24.5,2.8-36,7c-4,0.2-8-0.1-12-1c-12.1,1.6-24.1,3.6-36,6
		c0-1.3,0-2.7,0-4c2.6,0.3,4.9,0,7-1c9.9-0.9,19.6-2.6,29-5c3,0.2,5.7-0.5,8-2c4.8-1,9.4-2,14-3C81.4,304.4,97.4,303.7,113.5,305.5z
		"/>
</g>
<g>
	<path class="st152" d="M245.5,302.5c2,1.1,4,2.5,6,4c4.3,10.6,4.9,21.3,2,32c0-1.7,0-3.3,0-5c-2-7.3-6-13.3-12-18c-2-2.3-4-4.7-6-7
		c2.2,1.1,4.6,1.6,7,1.5c0.9-0.7,1.5-1.5,2-2.5c-2.6-1.4-2.2-2.2,1-2.5c-2-1-4-2-6-3C241.4,302.1,243.4,302.3,245.5,302.5z"/>
</g>
<g>
	<path class="st153" d="M392.5,313.5c-4.1,1.4-8.4,2.1-13,2C383.6,314.1,387.9,313.4,392.5,313.5z"/>
</g>
<g>
	<path class="st154" d="M359.5,333.5c-1,0-2,0-3,0c-2.3-0.7-4.7-1.3-7-2c8.7-0.9,17-2.9,25-6c10.6-3.9,21.1-7.9,31.5-12
		c0.5,0.3,1,0.7,1.5,1c-3.9,6.3-6.6,12.9-8,20C386.2,334.3,372.8,334,359.5,333.5z"/>
</g>
<g>
	<path class="st155" d="M475.5,312.5c1.3,2.3,1.3,4.7,0,7c-1-1.3-2-2.7-3-4C474.1,315.2,475.1,314.2,475.5,312.5z"/>
</g>
<g>
	<path class="st156" d="M374.5,325.5c-4.9,1.1-9.9,1.8-15,2c3.8-2.1,7.8-3.9,12-5.5c2.4-1.6,2.4-2.7,0-3.5c6.9-1,13.9-1.8,21-2.5
		c-5.1,2.9-10.4,5.3-16,7C375.6,323.7,375,324.5,374.5,325.5z"/>
</g>
<g>
	<path class="st157" d="M286.5,313.5c6,0.7,12,1.7,18,3c-0.5,1-1.1,1.8-2,2.5c0.4,3.6,1.7,6.8,4,9.5c-0.7,0-1.3,0-2,0
		c-5.5-2.3-10.8-5.2-16-8.5c-1.9-1.7-3.5-3.5-5-5.5C284.3,313.6,285.3,313.3,286.5,313.5z"/>
</g>
<g>
	<path class="st158" d="M272.5,319.5c-1.9,0.2-3.6,1.1-5,2.5c-1.1,0.8-1.1,1.6,0,2.5c-3.3-0.6-6.6-0.9-10-1c-0.4-5.8-1.4-11.4-3-17
		c1.1-0.1,2.1,0,3,0.5C262.2,311.7,267.2,315.8,272.5,319.5z"/>
</g>
<g>
	<path class="st159" d="M14.5,317.5c-2.1,1-4.4,1.3-7,1c0,1.3,0,2.7,0,4c1.6,0.7,3.5,1,5.5,1c6.2-0.7,12.3-1.4,18.5-2
		c-8,2.5-16.4,3.4-25,2.5c-1.3-2-1.3-4,0-6C9.1,317.5,11.8,317.3,14.5,317.5z"/>
</g>
<g>
	<path class="st160" d="M55.5,317.5c-4.4,1.6-9.1,2.3-14,2c-3.6,0-6.9,0.7-10,2c-6.2,0.6-12.3,1.3-18.5,2c-2,0-3.9-0.3-5.5-1
		c11.9-2.4,23.9-4.4,36-6C47.5,317.4,51.5,317.7,55.5,317.5z"/>
</g>
<g>
	<path class="st161" d="M41.5,319.5c-3,1.5-6.4,2.2-10,2C34.6,320.2,37.9,319.5,41.5,319.5z"/>
</g>
<g>
	<path class="st162" d="M311.5,316.5c18.3,1.9,36.6,2.5,55,2c-8.1,1-16.5,1.3-25,1c-3.9-0.2-7.6,0.6-11,2.5c-5.4,0.8-10.8,0.5-16-1
		C312.9,319.9,311.9,318.4,311.5,316.5z"/>
</g>
<g>
	<path class="st163" d="M366.5,318.5c1.7,0,3.3,0,5,0c2.4,0.8,2.4,1.9,0,3.5c-4.2,1.6-8.2,3.4-12,5.5c-7.6,1.7-15.3,3-23,4
		c-0.1-0.6-0.4-1.1-1-1.5c4.2-2.2,6.2-5.7,6-10.5C350,319.8,358.4,319.5,366.5,318.5z"/>
</g>
<g>
	<path class="st164" d="M304.5,316.5c2.3,0,4.7,0,7,0c0.4,1.9,1.4,3.4,3,4.5c5.2,1.5,10.6,1.8,16,1c3.4-1.9,7.1-2.7,11-2.5
		c0.2,4.8-1.8,8.3-6,10.5c0.6,0.4,0.9,0.9,1,1.5c-10.1-0.1-20.1-1.1-30-3c-2.3-2.7-3.6-5.9-4-9.5C303.4,318.3,304,317.5,304.5,316.5
		z"/>
</g>
<g>
	<path class="st165" d="M460.5,352.5c-2.3-1.3-4.3-3.2-6-5.5c-0.8-0.7-1.5-0.5-2,0.5c3.9,3.6,6.6,7.9,8,13c0.6,0.9,0.9,1.9,1,3
		c-1.5-2.4-3.5-4.2-6-5.5c1.6-4.9-0.1-6.7-5-5.5c-0.9,2.2-1.2,4.6-1,7c-2.4,0.2-4.7,0-7-0.5c-2.4-3.7-4.8-7.5-7-11.5
		c-3.4-3.1-6.9-6.1-10.5-9c-0.4-4.9-2.2-9-5.5-12.5c2.3-2.1,4-4.6,5-7.5c3.8-3.8,8.2-6.8,13-9c2.4,0.2,4.6-0.5,6.5-2
		c2.7,11.9,6.1,23.6,10,35C457.6,344.9,459.8,348.3,460.5,352.5z"/>
</g>
<g>
	<path class="st166" d="M272.5,319.5c4.6,2.8,9.6,4.8,15,6c0,0.3,0,0.7,0,1c-6.7-0.4-13.4-1.1-20-2c-1.1-0.9-1.1-1.7,0-2.5
		C268.9,320.6,270.6,319.7,272.5,319.5z"/>
</g>
<g>
	<path class="st167" d="M469.5,313.5c1.2,0.4,2.2,1.1,3,2c1,1.3,2,2.7,3,4c1,1,2,2,3,3c4.8,7.4,8.3,15.4,10.5,24
		c0.8,8.8,0.7,17.5-0.5,26c2.2-15.7-0.6-30.4-8.5-44C476.5,323.4,473,318.4,469.5,313.5z"/>
</g>
<g>
	<path class="st168" d="M409.5,315.5c0,2,0,4,0,6c2.7,0,5.2,0.6,7.5,2c0.3-2.1,1.2-2.5,2.5-1c-1.4,2.5-3.1,4.8-5,7
		c-4.7,5.1-8.7,10.8-12,17c-0.3,0-0.7,0-1,0C400.4,335.1,403.1,324.8,409.5,315.5z"/>
</g>
<g>
	<path class="st124" d="M232.5,306.5c1,0.7,2,1.3,3,2c2,2.3,4,4.7,6,7c1.4,5.3-0.3,9.3-5,12c-1.5,5.1-4,9.4-7.5,13
		c-0.4,2-1.3,3.9-2.5,5.5c5.7-1.6,11.3-3.6,17-6c4-1.5,7.3-3.6,10-6.5c0,1.7,0,3.3,0,5c0.3,1.9,0,3.6-1,5c0-1.3,0-2.7,0-4
		c-9.5,3.4-18.5,7.9-27,13.5c-8.4,3.3-16.9,6.4-25.5,9.5c-0.3-2.1,0-4.1,1-6c4-4.7,7-10.1,9-16c1-0.8,2.2-1.2,3.5-1
		c0.3-4.8,2.4-8.4,6.5-11c0.7-2.2,1.5-4.4,2.5-6.5c3.2-4.2,6.3-8.3,9.5-12.5C232.5,308.6,232.6,307.6,232.5,306.5z"/>
</g>
<g>
	<path class="st169" d="M349.5,331.5c2.3,0.7,4.7,1.3,7,2c-12.5,0.3-24.8,0-37-1C329.6,332.8,339.6,332.5,349.5,331.5z"/>
</g>
<g>
	<path class="st124" d="M225.5,300.5c2.4,2,4.7,4,7,6c0.1,1.1,0,2.1-0.5,3c-3.2,4.2-6.3,8.3-9.5,12.5c-1,2.1-1.8,4.3-2.5,6.5
		c-4.1,2.6-6.2,6.2-6.5,11c-1.3-0.2-2.5,0.2-3.5,1c-2,5.9-5,11.3-9,16c-1,1.9-1.3,3.9-1,6c8.6-3.1,17.1-6.2,25.5-9.5
		c8.5-5.6,17.5-10.1,27-13.5c0,1.3,0,2.7,0,4c0.2,1-0.2,1.7-1,2c-3.2,0.3-6.4,0.9-9.5,2c-7.1,4.5-14.6,8-22.5,10.5
		c-6.1,3.4-12.4,6.4-19,9c-2.5,2-5.2,3.9-8,5.5c-0.6-0.2-1.1-0.5-1.5-1c-1.9,1.7-4,2.7-6.5,3c0,1.3,0,2.7,0,4c-2.7,0-5.3,0-8,0
		c-5.1-1.4-8.1-4.8-9-10c0.7,0.4,1.2,1.1,1.5,2c0.4-3.7,1.3-3.9,2.5-0.5c2.7,0.7,5.3,0.7,8,0c1.5-0.7,2.1-1.9,2-3.5c1,0,2,0,3,0
		c-0.2-1.4,0-2.7,0.5-4c5.3-3.2,8.6-7.8,10-14c3.7-5.7,7.7-11,12-16c-0.1-3.4,1.4-5.4,4.5-6c-0.2-1.4,0-2.7,0.5-4
		c5-4.3,8.1-9.6,9.5-16c2.3,0.3,4.3-0.4,6-2C226.1,303.5,225.5,302.1,225.5,300.5z"/>
</g>
<g>
	<path class="st170" d="M241.5,315.5c6,4.7,10,10.7,12,18c-2.7,2.9-6,5-10,6.5c-5.7,2.4-11.3,4.4-17,6c1.2-1.6,2.1-3.5,2.5-5.5
		c3.5-3.6,6-7.9,7.5-13C241.2,324.8,242.9,320.8,241.5,315.5z"/>
</g>
<g>
	<path class="st171" d="M193.5,332.5c1,0.4,1.2,1.1,0.5,2c-4.1,5.1-7.7,10.4-11,16C183.7,342.9,187.2,336.9,193.5,332.5z"/>
</g>
<g>
	<path class="st172" d="M457.5,305.5c4,2.7,8,5.3,12,8c3.5,4.9,7,9.9,10.5,15c7.9,13.6,10.7,28.3,8.5,44c-2.4,4.4-4.6,9.1-6.5,14
		c-1.3,2.2-2.8,4.2-4.5,6c-1.7,2.3-4,3.3-7,3c1.8-0.9,3.6-1.9,5.5-3c0.5-1.3,0.7-2.6,0.5-4c1.9,0,3.2-0.8,4-2.5
		c-1.2-1.9-1.9-4-2-6.5c0-2.5,0.7-4.5,2-6c1.4-0.5,2-1.5,2-3c-0.4-1.8-1.1-3.5-2-5c0-1,0-2,0-3c-1,0-2,0-3,0c0-1,0-2,0-3
		c-1.3,0-2.7,0-4,0c0.2-2.4,0-4.7-0.5-7c-5.1-13-9-26.3-11.5-40c-1.8-0.5-2.1-1.4-1-2.5c-0.9-0.5-1.9-0.6-3-0.5
		C457.5,308.2,457.5,306.8,457.5,305.5z"/>
</g>
<g>
	<path class="st173" d="M460.5,352.5c0,0.3,0,0.7,0,1c1.1,2.5,1.1,4.8,0,7c-1.4-5.1-4.1-9.4-8-13c0.5-1,1.2-1.2,2-0.5
		C456.2,349.3,458.2,351.2,460.5,352.5z"/>
</g>
<g>
	<path class="st174" d="M414.5,329.5c-0.3,1.8-1,3.4-2,5c0.9,2.4,2,2.4,3.5,0c5.1,7.2,9.9,14.6,14.5,22c1.8,2.1,4.1,3.3,7,3.5
		c1.8,1.6,2,3.1,0.5,4.5c-10.2-2.4-19.7-6.6-28.5-12.5c-1.9-0.8-3.9-1.3-6-1.5c0,1,0,2,0,3c-1-2.1-1.3-4.4-1-7
		C405.8,340.3,409.8,334.6,414.5,329.5z"/>
</g>
<g>
	<path class="st175" d="M460.5,353.5c2,2.4,3.7,5.1,5,8c0.8,10.6-0.5,11.3-4,2c-0.1-1.1-0.4-2.1-1-3
		C461.6,358.3,461.6,356,460.5,353.5z"/>
</g>
<g>
	<path class="st176" d="M424.5,318.5c-1,2.9-2.7,5.4-5,7.5c3.3,3.5,5.1,7.6,5.5,12.5c3.6,2.9,7.1,5.9,10.5,9c2.2,4,4.6,7.8,7,11.5
		c2.3,0.5,4.6,0.7,7,0.5c-0.2-2.4,0.1-4.8,1-7c4.9-1.2,6.6,0.6,5,5.5c2.5,1.3,4.5,3.1,6,5.5c3.5,9.3,4.8,8.6,4-2
		c1.6,6,3,12.2,4,18.5c-0.9,0.7-1.5,1.5-2,2.5c1.2,3.6,2.5,7.1,4,10.5c-1.4,0.4-2.4,1.2-3,2.5c-1,0-2,0-3,0c-3.6-3.6-6.9-7.6-10-12
		c-3.5-3.3-7.1-6.5-11-9.5c-5.8-2.7-11.8-4.8-18-6.5c-5.3-4.5-11.3-8-18-10.5c-1.8-3.3-3.1-3.1-4,0.5c-0.9-1.1-1.3-2.4-1-4
		c0-1,0-2,0-3c2.1,0.2,4.1,0.7,6,1.5c8.8,5.9,18.3,10.1,28.5,12.5c1.5-1.4,1.3-2.9-0.5-4.5c-2.9-0.2-5.2-1.4-7-3.5
		c-4.6-7.4-9.4-14.8-14.5-22c-1.5,2.4-2.6,2.4-3.5,0c1-1.6,1.7-3.2,2-5c1.9-2.2,3.6-4.5,5-7C421.2,321.2,422.8,319.8,424.5,318.5z"
		/>
</g>
<g>
	<path class="st177" d="M251.5,345.5c0.2,1-0.2,1.7-1,2c-10,5.7-20.4,10.9-31,15.5c-7.4,4.7-14.7,9.3-22,14c-4.8,1.9-9.8,2.9-15,3
		c0.9,0.3,1.6,0.8,2,1.5c-3.1,0.1-5.8-0.9-8-3c2.7,0,5.3,0,8,0c0-1.3,0-2.7,0-4c2.5-0.3,4.6-1.3,6.5-3c0.4,0.5,0.9,0.8,1.5,1
		c2.8-1.6,5.5-3.5,8-5.5c6.6-2.6,12.9-5.6,19-9c7.9-2.5,15.4-6,22.5-10.5C245.1,346.4,248.3,345.8,251.5,345.5z"/>
</g>
<g>
	<path class="st178" d="M250.5,347.5c-0.3,1.3-0.7,2.7-1,4c-0.7,0.7-1.3,1.3-2,2c0.1-0.7,0-1.4-0.5-2c-2.5,4.6-6.3,7.5-11.5,8.5
		c-1,1-2,2-3,3c-5.9,3.8-12.3,6.8-19,9c-2.2,3.1-5.2,4.6-9,4.5c0,1,0,2,0,3c-2.1,0-3.9,0.6-5.5,2c-1.8-0.9-3.6-1.1-5.5-0.5
		c-0.8,0.7-1.1,1.5-1,2.5c-2.9-0.1-5.6-0.7-8-2c-0.4-0.7-1.1-1.2-2-1.5c5.2-0.1,10.2-1.1,15-3c7.3-4.7,14.6-9.3,22-14
		C230.1,358.4,240.5,353.2,250.5,347.5z"/>
</g>
<g>
	<path class="st179" d="M247.5,353.5c-12.2,20.9-30.5,30.9-55,30c-0.1-1,0.2-1.8,1-2.5c1.9-0.6,3.7-0.4,5.5,0.5c1.6-1.4,3.4-2,5.5-2
		c0-1,0-2,0-3c3.8,0.1,6.8-1.4,9-4.5c6.7-2.2,13.1-5.2,19-9c1-1,2-2,3-3c5.2-1,9-3.9,11.5-8.5C247.5,352.1,247.6,352.8,247.5,353.5z
		"/>
</g>
<g>
	<path class="st180" d="M249.5,351.5c-0.2,1,0.2,1.7,1,2c-17.2,27.2-41.5,36.7-73,28.5c-7.4-2.5-11.5-7.7-12.5-15.5
		c-1.6-4.2-2.4-8.5-2.5-13c1.5,4.9,3.2,9.9,5,15c0.9,5.2,3.9,8.6,9,10c2.2,2.1,4.9,3.1,8,3c2.4,1.3,5.1,1.9,8,2
		c24.5,0.9,42.8-9.1,55-30C248.2,352.8,248.8,352.2,249.5,351.5z"/>
</g>
<g>
	<path class="st181" d="M480.5,365.5c0.9,1.5,1.6,3.2,2,5c0,1.5-0.6,2.5-2,3c-1.7-1.8-2.7-4-3-6.5
		C477.7,364.4,478.7,363.9,480.5,365.5z"/>
</g>
<g>
	<path class="st182" d="M401.5,346.5c0.3,0,0.7,0,1,0c-0.3,2.6,0,4.9,1,7c-0.3,1.6,0.1,2.9,1,4c1.2,3.7,2.8,7,5,10
		c7.8,15.4,20.1,24.8,37,28c6.2,1.2,12.5,1.2,19,0c1,0,2,0,3,0c0.7,0,1.3,0,2,0c-22.1,6.7-40.6,1.1-55.5-17c-6.6-8-11.1-17-13.5-27
		C401.5,349.8,401.5,348.2,401.5,346.5z"/>
</g>
<g>
	<path class="st183" d="M488.5,372.5c-0.7,5.7-2.6,11-5.5,16c-1.5,2-3.3,3.3-5.5,4c1.7-1.8,3.2-3.8,4.5-6
		C483.9,381.6,486.1,376.9,488.5,372.5z"/>
</g>
<g>
	<path class="st184" d="M465.5,395.5c-6.5,1.2-12.8,1.2-19,0c3,0.2,6,0,9-0.5c-3.6-3-7-6.3-10-10c-8.4-3-15.7-7.7-22-14
		c-2.1-0.2-4.1-0.7-6-1.5c-1.7-1.4-3.5-2.8-5.5-4c-1.3,0.1-2.1,0.8-2.5,2c-2.2-3-3.8-6.3-5-10c0.9-3.6,2.2-3.8,4-0.5
		c6.7,2.5,12.7,6,18,10.5c6.2,1.7,12.2,3.8,18,6.5c3.9,3,7.5,6.2,11,9.5C458.6,387.9,461.9,391.9,465.5,395.5z"/>
</g>
<g>
	<path class="st185" d="M446.5,395.5c-16.9-3.2-29.2-12.6-37-28c0.4-1.2,1.2-1.9,2.5-2c2,1.2,3.8,2.6,5.5,4c1.9,0.8,3.9,1.3,6,1.5
		c6.3,6.3,13.6,11,22,14c3,3.7,6.4,7,10,10C452.5,395.5,449.5,395.7,446.5,395.5z"/>
</g>
</svg>
