<?xml version="1.0" encoding="UTF-8"?>
<!DOCTYPE svg PUBLIC "-//W3C//DTD SVG 1.1//EN" "http://www.w3.org/Graphics/SVG/1.1/DTD/svg11.dtd">
<svg xmlns="http://www.w3.org/2000/svg" version="1.1" width="524px" height="522px" style="shape-rendering:geometricPrecision; text-rendering:geometricPrecision; image-rendering:optimizeQuality; fill-rule:evenodd; clip-rule:evenodd" xmlns:xlink="http://www.w3.org/1999/xlink">
<g><path style="opacity:1" fill="#bce4fa" d="M -0.5,-0.5 C 174.167,-0.5 348.833,-0.5 523.5,-0.5C 523.5,173.5 523.5,347.5 523.5,521.5C 348.833,521.5 174.167,521.5 -0.5,521.5C -0.5,417.5 -0.5,313.5 -0.5,209.5C 44.9054,209.828 90.2387,209.495 135.5,208.5C 142.485,234.747 152.651,259.747 166,283.5C 178.439,304.731 191.606,325.398 205.5,345.5C 199.378,348.796 195.211,353.796 193,360.5C 180.475,332.326 159.308,322.159 129.5,330C 114.43,336.555 105.096,347.721 101.5,363.5C 90.0633,358.086 78.7299,358.253 67.5,364C 57.6863,373.153 54.353,384.319 57.5,397.5C 112.833,397.5 168.167,397.5 223.5,397.5C 221.883,406.921 219.883,416.255 217.5,425.5C 217.5,425.833 217.5,426.167 217.5,426.5C 215.942,436.346 214.442,446.346 213,456.5C 212.173,460.541 212.34,464.541 213.5,468.5C 232.126,470.977 250.793,473.311 269.5,475.5C 271.369,475.493 273.036,475.16 274.5,474.5C 278.973,472.095 283.306,469.429 287.5,466.5C 288.307,460.661 289.307,454.994 290.5,449.5C 290.751,452.909 290.417,456.242 289.5,459.5C 365.831,460.667 442.164,460.833 518.5,460C 512.27,449.027 502.937,445.027 490.5,448C 487.267,450.079 483.933,451.912 480.5,453.5C 475.179,434.834 462.846,426.668 443.5,429C 439.884,430.314 436.384,431.814 433,433.5C 425.599,412.197 410.766,399.364 388.5,395C 358.046,392.474 337.879,405.64 328,434.5C 316.371,422.919 304.538,422.586 292.5,433.5C 292.5,430.167 292.5,426.833 292.5,423.5C 292.5,405.167 292.5,386.833 292.5,368.5C 297.179,368.666 301.845,368.499 306.5,368C 307.416,367.722 308.082,367.222 308.5,366.5C 351.587,330.932 386.754,288.932 414,240.5C 428.881,209.306 433.214,176.639 427,142.5C 424.98,136.734 422.814,131.068 420.5,125.5C 450.167,125.5 479.833,125.5 509.5,125.5C 506.911,115.706 501.244,113.372 492.5,118.5C 489.353,112.684 484.686,111.018 478.5,113.5C 474.199,95.9064 463.532,90.073 446.5,96C 441.079,99.0298 437.746,103.53 436.5,109.5C 432.181,108.751 427.848,108.585 423.5,109C 420.283,110.715 417.95,113.215 416.5,116.5C 409.425,103.71 400.425,92.3767 389.5,82.5C 372.662,67.0748 353.328,55.7415 331.5,48.5C 319.527,44.3049 307.194,41.6383 294.5,40.5C 283.682,39.2789 273.015,39.2789 262.5,40.5C 248.316,40.6963 234.65,43.363 221.5,48.5C 178.125,63.0416 149.292,92.0416 135,135.5C 134.322,140.54 133.489,145.54 132.5,150.5C 131.18,151.942 129.514,152.608 127.5,152.5C 121.192,106.356 95.5258,77.1892 50.5,65C 43.3969,63.6043 36.2302,62.7709 29,62.5C 18.941,62.9749 9.10764,64.6416 -0.5,67.5C -0.5,44.8333 -0.5,22.1667 -0.5,-0.5 Z"/></g>
<g><path style="opacity:1" fill="#911917" d="M 294.5,40.5 C 295.371,43.1123 296.037,45.779 296.5,48.5C 298.735,73.1202 299.069,97.7869 297.5,122.5C 289.523,201.754 278.856,280.754 265.5,359.5C 255.847,358.852 246.18,358.518 236.5,358.5C 236.768,360.099 236.434,361.432 235.5,362.5C 235.5,360.833 235.5,359.167 235.5,357.5C 237.833,357.5 240.167,357.5 242.5,357.5C 232.408,318.103 224.908,278.103 220,237.5C 216.741,205.91 215.741,174.244 217,142.5C 217.796,129.723 219.463,117.056 222,104.5C 225.296,95.9721 227.962,87.3055 230,78.5C 233.515,71.3148 237.849,64.6482 243,58.5C 246.218,56.1783 248.718,53.345 250.5,50C 255.025,47.2879 259.025,44.1212 262.5,40.5C 273.015,39.2789 283.682,39.2789 294.5,40.5 Z"/></g>
<g><path style="opacity:1" fill="#e85119" d="M 294.5,40.5 C 307.194,41.6383 319.527,44.3049 331.5,48.5C 336.689,53.1317 342.023,57.7984 347.5,62.5C 362.834,83.0122 369.834,106.179 368.5,132C 367.737,159.479 363.237,186.313 355,212.5C 337.457,264.551 314.957,314.051 287.5,361C 285.527,361.495 283.527,361.662 281.5,361.5C 281.205,363.735 281.539,365.735 282.5,367.5C 282.5,367.833 282.5,368.167 282.5,368.5C 282.844,386.864 283.511,405.198 284.5,423.5C 285.12,427.302 284.286,430.635 282,433.5C 281.825,428.981 281.325,424.647 280.5,420.5C 280.233,402.66 279.567,384.993 278.5,367.5C 278.5,365.167 278.5,362.833 278.5,360.5C 274.176,360.073 269.842,359.739 265.5,359.5C 278.856,280.754 289.523,201.754 297.5,122.5C 299.004,109.534 299.671,96.3669 299.5,83C 299.333,74.1667 299.167,65.3333 299,56.5C 298.721,53.5432 297.887,50.8766 296.5,48.5C 296.037,45.779 295.371,43.1123 294.5,40.5 Z"/></g>
<g><path style="opacity:1" fill="#d23218" d="M 262.5,40.5 C 259.025,44.1212 255.025,47.2879 250.5,50C 248.718,53.345 246.218,56.1783 243,58.5C 237.849,64.6482 233.515,71.3148 230,78.5C 227.962,87.3055 225.296,95.9721 222,104.5C 219.463,117.056 217.796,129.723 217,142.5C 215.741,174.244 216.741,205.91 220,237.5C 224.908,278.103 232.408,318.103 242.5,357.5C 240.167,357.5 237.833,357.5 235.5,357.5C 235.5,359.167 235.5,360.833 235.5,362.5C 235.5,362.833 235.5,363.167 235.5,363.5C 234.343,366.273 233.676,369.273 233.5,372.5C 231.53,381.055 229.53,389.722 227.5,398.5C 225.687,406.756 223.687,415.09 221.5,423.5C 220.167,424.167 218.833,424.833 217.5,425.5C 219.883,416.255 221.883,406.921 223.5,397.5C 226.92,386.143 229.586,374.477 231.5,362.5C 232.451,361.081 232.784,359.415 232.5,357.5C 229.833,357.5 227.167,357.5 224.5,357.5C 199.338,315.489 179.838,270.823 166,223.5C 158.111,194.611 155.778,165.277 159,135.5C 165.634,97.6414 184.8,69.9747 216.5,52.5C 218.772,51.8658 220.439,50.5324 221.5,48.5C 234.65,43.363 248.316,40.6963 262.5,40.5 Z"/></g>
<g><path style="opacity:1" fill="#d23218" d="M 331.5,48.5 C 353.328,55.7415 372.662,67.0748 389.5,82.5C 392.459,88.4012 395.959,94.0679 400,99.5C 414.313,127.565 418.313,157.232 412,188.5C 410.214,196.549 408.214,204.549 406,212.5C 397.856,234.953 387.523,256.286 375,276.5C 353.531,308.458 329.365,338.125 302.5,365.5C 295.785,364.714 289.118,363.714 282.5,362.5C 282.5,364.167 282.5,365.833 282.5,367.5C 281.539,365.735 281.205,363.735 281.5,361.5C 283.527,361.662 285.527,361.495 287.5,361C 314.957,314.051 337.457,264.551 355,212.5C 363.237,186.313 367.737,159.479 368.5,132C 369.834,106.179 362.834,83.0122 347.5,62.5C 342.023,57.7984 336.689,53.1317 331.5,48.5 Z"/></g>
<g><path style="opacity:1" fill="#fefefe" d="M 132.5,150.5 C 130.395,170.021 131.395,189.354 135.5,208.5C 90.2387,209.495 44.9054,209.828 -0.5,209.5C -0.5,162.167 -0.5,114.833 -0.5,67.5C 9.10764,64.6416 18.941,62.9749 29,62.5C 36.2302,62.7709 43.3969,63.6043 50.5,65C 95.5258,77.1892 121.192,106.356 127.5,152.5C 129.514,152.608 131.18,151.942 132.5,150.5 Z"/></g>
<g><path style="opacity:1" fill="#b42f17" d="M 296.5,48.5 C 297.887,50.8766 298.721,53.5432 299,56.5C 299.167,65.3333 299.333,74.1667 299.5,83C 299.671,96.3669 299.004,109.534 297.5,122.5C 299.069,97.7869 298.735,73.1202 296.5,48.5 Z"/></g>
<g><path style="opacity:1" fill="#e8521a" d="M 221.5,48.5 C 220.439,50.5324 218.772,51.8658 216.5,52.5C 184.8,69.9747 165.634,97.6414 159,135.5C 155.778,165.277 158.111,194.611 166,223.5C 179.838,270.823 199.338,315.489 224.5,357.5C 221.5,357.5 218.5,357.5 215.5,357.5C 212.543,353.208 209.21,349.208 205.5,345.5C 191.606,325.398 178.439,304.731 166,283.5C 152.651,259.747 142.485,234.747 135.5,208.5C 131.395,189.354 130.395,170.021 132.5,150.5C 133.489,145.54 134.322,140.54 135,135.5C 149.292,92.0416 178.125,63.0416 221.5,48.5 Z"/></g>
<g><path style="opacity:1" fill="#fdfefe" d="M 420.5,125.5 C 419.439,122.378 418.105,119.378 416.5,116.5C 417.95,113.215 420.283,110.715 423.5,109C 427.848,108.585 432.181,108.751 436.5,109.5C 437.746,103.53 441.079,99.0298 446.5,96C 463.532,90.073 474.199,95.9064 478.5,113.5C 484.686,111.018 489.353,112.684 492.5,118.5C 501.244,113.372 506.911,115.706 509.5,125.5C 479.833,125.5 450.167,125.5 420.5,125.5 Z"/></g>
<g><path style="opacity:1" fill="#921b19" d="M 389.5,82.5 C 400.425,92.3767 409.425,103.71 416.5,116.5C 418.105,119.378 419.439,122.378 420.5,125.5C 422.814,131.068 424.98,136.734 427,142.5C 433.214,176.639 428.881,209.306 414,240.5C 386.754,288.932 351.587,330.932 308.5,366.5C 306.265,366.795 304.265,366.461 302.5,365.5C 329.365,338.125 353.531,308.458 375,276.5C 387.523,256.286 397.856,234.953 406,212.5C 408.214,204.549 410.214,196.549 412,188.5C 418.313,157.232 414.313,127.565 400,99.5C 395.959,94.0679 392.459,88.4012 389.5,82.5 Z"/></g>
<g><path style="opacity:1" fill="#fefefe" d="M 205.5,345.5 C 209.21,349.208 212.543,353.208 215.5,357.5C 216.058,358.79 217.058,359.623 218.5,360C 222.853,360.836 227.187,361.669 231.5,362.5C 229.586,374.477 226.92,386.143 223.5,397.5C 168.167,397.5 112.833,397.5 57.5,397.5C 54.353,384.319 57.6863,373.153 67.5,364C 78.7299,358.253 90.0633,358.086 101.5,363.5C 105.096,347.721 114.43,336.555 129.5,330C 159.308,322.159 180.475,332.326 193,360.5C 195.211,353.796 199.378,348.796 205.5,345.5 Z"/></g>
<g><path style="opacity:1" fill="#4d1e19" d="M 215.5,357.5 C 218.5,357.5 221.5,357.5 224.5,357.5C 227.167,357.5 229.833,357.5 232.5,357.5C 232.784,359.415 232.451,361.081 231.5,362.5C 227.187,361.669 222.853,360.836 218.5,360C 217.058,359.623 216.058,358.79 215.5,357.5 Z"/></g>
<g><path style="opacity:1" fill="#bbe2f6" d="M 278.5,367.5 C 279.567,384.993 280.233,402.66 280.5,420.5C 280.5,421.167 280.5,421.833 280.5,422.5C 264.175,420.76 247.842,419.094 231.5,417.5C 231.5,417.167 231.5,416.833 231.5,416.5C 233.214,407.654 235.214,398.987 237.5,390.5C 237.141,392.766 237.808,394.599 239.5,396C 238.5,396.333 237.5,396.667 236.5,397C 245.827,397.5 255.161,397.666 264.5,397.5C 263.085,385.08 256.085,377.747 243.5,375.5C 242.261,375.942 241.261,376.609 240.5,377.5C 241.167,373.167 241.833,368.833 242.5,364.5C 254.468,365.861 266.468,366.861 278.5,367.5 Z"/></g>
<g><path style="opacity:1" fill="#c5ddea" d="M 235.5,363.5 C 236.833,363.5 238.167,363.5 239.5,363.5C 238.943,368.052 237.943,372.385 236.5,376.5C 235.504,376.414 234.671,376.748 234,377.5C 233.506,375.866 233.34,374.199 233.5,372.5C 233.676,369.273 234.343,366.273 235.5,363.5 Z"/></g>
<g><path style="opacity:1" fill="#fbfcfc" d="M 237.5,390.5 C 238.302,386.1 239.302,381.767 240.5,377.5C 241.261,376.609 242.261,375.942 243.5,375.5C 256.085,377.747 263.085,385.08 264.5,397.5C 255.161,397.666 245.827,397.5 236.5,397C 237.5,396.667 238.5,396.333 239.5,396C 237.808,394.599 237.141,392.766 237.5,390.5 Z"/></g>
<g><path style="opacity:1" fill="#f2edeb" d="M 233.5,372.5 C 233.34,374.199 233.506,375.866 234,377.5C 234.671,376.748 235.504,376.414 236.5,376.5C 235.592,383.793 233.926,390.793 231.5,397.5C 230.041,397.433 228.708,397.766 227.5,398.5C 229.53,389.722 231.53,381.055 233.5,372.5 Z"/></g>
<g><path style="opacity:1" fill="#fefefe" d="M 290.5,449.5 C 290.701,444.093 291.368,438.76 292.5,433.5C 304.538,422.586 316.371,422.919 328,434.5C 337.879,405.64 358.046,392.474 388.5,395C 410.766,399.364 425.599,412.197 433,433.5C 436.384,431.814 439.884,430.314 443.5,429C 462.846,426.668 475.179,434.834 480.5,453.5C 483.933,451.912 487.267,450.079 490.5,448C 502.937,445.027 512.27,449.027 518.5,460C 442.164,460.833 365.831,460.667 289.5,459.5C 290.417,456.242 290.751,452.909 290.5,449.5 Z"/></g>
<g><path style="opacity:1" fill="#431a18" d="M 265.5,359.5 C 269.842,359.739 274.176,360.073 278.5,360.5C 278.5,362.833 278.5,365.167 278.5,367.5C 266.468,366.861 254.468,365.861 242.5,364.5C 241.833,368.833 241.167,373.167 240.5,377.5C 239.302,381.767 238.302,386.1 237.5,390.5C 235.214,398.987 233.214,407.654 231.5,416.5C 230.542,416.953 229.708,417.619 229,418.5C 228.517,417.552 228.351,416.552 228.5,415.5C 229.757,409.546 230.757,403.546 231.5,397.5C 233.926,390.793 235.592,383.793 236.5,376.5C 237.943,372.385 238.943,368.052 239.5,363.5C 238.167,363.5 236.833,363.5 235.5,363.5C 235.5,363.167 235.5,362.833 235.5,362.5C 236.434,361.432 236.768,360.099 236.5,358.5C 246.18,358.518 255.847,358.852 265.5,359.5 Z"/></g>
<g><path style="opacity:1" fill="#bcdae9" d="M 282.5,368.5 C 284.833,368.5 287.167,368.5 289.5,368.5C 289.44,386.842 289.774,405.176 290.5,423.5C 288.5,423.5 286.5,423.5 284.5,423.5C 283.511,405.198 282.844,386.864 282.5,368.5 Z"/></g>
<g><path style="opacity:1" fill="#461f1e" d="M 302.5,365.5 C 304.265,366.461 306.265,366.795 308.5,366.5C 308.082,367.222 307.416,367.722 306.5,368C 301.845,368.499 297.179,368.666 292.5,368.5C 292.5,386.833 292.5,405.167 292.5,423.5C 291.833,423.5 291.167,423.5 290.5,423.5C 289.774,405.176 289.44,386.842 289.5,368.5C 287.167,368.5 284.833,368.5 282.5,368.5C 282.5,368.167 282.5,367.833 282.5,367.5C 282.5,365.833 282.5,364.167 282.5,362.5C 289.118,363.714 295.785,364.714 302.5,365.5 Z"/></g>
<g><path style="opacity:1" fill="#bbd8e6" d="M 231.5,397.5 C 230.757,403.546 229.757,409.546 228.5,415.5C 227.977,419.627 225.644,422.294 221.5,423.5C 223.687,415.09 225.687,406.756 227.5,398.5C 228.708,397.766 230.041,397.433 231.5,397.5 Z"/></g>
<g><path style="opacity:1" fill="#1d6b85" d="M 231.5,417.5 C 247.842,419.094 264.175,420.76 280.5,422.5C 280.665,425.85 280.498,429.183 280,432.5C 279.292,433.381 278.458,434.047 277.5,434.5C 277.663,432.143 277.497,429.81 277,427.5C 276.506,429.134 276.34,430.801 276.5,432.5C 258.639,431.274 240.972,429.608 223.5,427.5C 225.833,427.5 228.167,427.5 230.5,427.5C 230.833,424.167 231.167,420.833 231.5,417.5 Z"/></g>
<g><path style="opacity:1" fill="#214555" d="M 228.5,415.5 C 228.351,416.552 228.517,417.552 229,418.5C 229.708,417.619 230.542,416.953 231.5,416.5C 231.5,416.833 231.5,417.167 231.5,417.5C 231.167,420.833 230.833,424.167 230.5,427.5C 228.167,427.5 225.833,427.5 223.5,427.5C 221.265,427.795 219.265,427.461 217.5,426.5C 217.5,426.167 217.5,425.833 217.5,425.5C 218.833,424.833 220.167,424.167 221.5,423.5C 225.644,422.294 227.977,419.627 228.5,415.5 Z"/></g>
<g><path style="opacity:1" fill="#1a4655" d="M 280.5,420.5 C 281.325,424.647 281.825,428.981 282,433.5C 284.286,430.635 285.12,427.302 284.5,423.5C 286.5,423.5 288.5,423.5 290.5,423.5C 291.167,423.5 291.833,423.5 292.5,423.5C 292.5,426.833 292.5,430.167 292.5,433.5C 291.368,438.76 290.701,444.093 290.5,449.5C 289.307,454.994 288.307,460.661 287.5,466.5C 283.306,469.429 278.973,472.095 274.5,474.5C 273.876,474.083 273.543,473.416 273.5,472.5C 274.669,459.816 276.002,447.15 277.5,434.5C 278.458,434.047 279.292,433.381 280,432.5C 280.498,429.183 280.665,425.85 280.5,422.5C 280.5,421.833 280.5,421.167 280.5,420.5 Z"/></g>
<g><path style="opacity:1" fill="#2a8fb3" d="M 217.5,426.5 C 219.265,427.461 221.265,427.795 223.5,427.5C 240.972,429.608 258.639,431.274 276.5,432.5C 276.34,430.801 276.506,429.134 277,427.5C 277.497,429.81 277.663,432.143 277.5,434.5C 276.002,447.15 274.669,459.816 273.5,472.5C 273.543,473.416 273.876,474.083 274.5,474.5C 273.036,475.16 271.369,475.493 269.5,475.5C 250.793,473.311 232.126,470.977 213.5,468.5C 212.34,464.541 212.173,460.541 213,456.5C 214.442,446.346 215.942,436.346 217.5,426.5 Z"/></g>
<g><path style="opacity:1" fill="#17556b" d="M 241.5,440.5 C 240.294,439.12 240.627,437.953 242.5,437C 257.213,433.383 263.046,438.883 260,453.5C 258.667,455.5 257,457.167 255,458.5C 254.882,461.371 254.216,464.038 253,466.5C 253.207,464.249 253.373,461.915 253.5,459.5C 250.351,459.789 247.351,459.289 244.5,458C 255.979,458.859 260.812,453.692 259,442.5C 253.617,436.847 247.783,436.18 241.5,440.5 Z"/></g>
<g><path style="opacity:1" fill="#1c5e78" d="M 241.5,440.5 C 241.577,441.75 242.244,442.583 243.5,443C 241.981,444.351 240.648,445.851 239.5,447.5C 240.326,448.451 240.492,449.451 240,450.5C 238.612,449.446 237.112,449.28 235.5,450C 236.167,450.667 236.833,451.333 237.5,452C 239.657,452.078 241.657,452.245 243.5,452.5C 240.146,453.099 237.146,454.432 234.5,456.5C 237.099,457.031 239.765,457.198 242.5,457C 240.649,457.837 238.816,458.671 237,459.5C 236.759,462.289 236.092,464.956 235,467.5C 234.581,465.32 234.748,463.154 235.5,461C 234.669,457.892 233.836,458.059 233,461.5C 231.925,457.933 232.758,454.933 235.5,452.5C 234.833,451.167 233.833,450.167 232.5,449.5C 231.692,451.423 231.192,453.423 231,455.5C 228.968,449.475 229.302,443.475 232,437.5C 234.718,439.794 237.885,440.794 241.5,440.5 Z"/></g>
<g><path style="opacity:1" fill="#1b5d77" d="M 249.5,444.5 C 252.167,444.5 254.833,444.5 257.5,444.5C 257.5,446.167 257.5,447.833 257.5,449.5C 255.213,449.276 253.047,448.609 251,447.5C 250.5,447.833 250,448.167 249.5,448.5C 254.977,451.723 254.644,454.223 248.5,456C 247.167,456.667 245.833,456.667 244.5,456C 252.82,453.812 253.154,451.478 245.5,449C 248.072,448.568 249.406,447.068 249.5,444.5 Z"/></g>
</svg>
