<?xml version="1.0" encoding="utf-8"?>
<!-- Generator: Adobe Illustrator 27.9.0, SVG Export Plug-In . SVG Version: 6.00 Build 0)  -->
<svg version="1.1"
	 id="svg65" xmlns:svg="http://www.w3.org/2000/svg" xmlns:sodipodi="http://sodipodi.sourceforge.net/DTD/sodipodi-0.dtd" xmlns:inkscape="http://www.inkscape.org/namespaces/inkscape"
	 xmlns="http://www.w3.org/2000/svg" xmlns:xlink="http://www.w3.org/1999/xlink" x="0px" y="0px" viewBox="0 0 403 571"
	 style="enable-background:new 0 0 403 571;" xml:space="preserve">
<style type="text/css">
	.st0{fill-rule:evenodd;clip-rule:evenodd;fill:#FDF100;}
	.st1{fill-rule:evenodd;clip-rule:evenodd;fill:#231F1F;}
	.st2{fill-rule:evenodd;clip-rule:evenodd;fill:#363112;}
	.st3{fill-rule:evenodd;clip-rule:evenodd;fill:#231F1E;}
	.st4{fill-rule:evenodd;clip-rule:evenodd;fill:#F8F01C;}
	.st5{fill-rule:evenodd;clip-rule:evenodd;fill:#282412;}
	.st6{fill-rule:evenodd;clip-rule:evenodd;fill:#221D23;}
	.st7{fill-rule:evenodd;clip-rule:evenodd;fill:#251C21;}
	.st8{fill-rule:evenodd;clip-rule:evenodd;fill:#231E1F;}
	.st9{fill-rule:evenodd;clip-rule:evenodd;fill:#211E28;}
	.st10{fill-rule:evenodd;clip-rule:evenodd;fill:#231E20;}
	.st11{fill-rule:evenodd;clip-rule:evenodd;fill:#221E21;}
</style>
<sodipodi:namedview  bordercolor="#999999" borderopacity="1" id="namedview65" inkscape:current-layer="svg65" inkscape:cx="201.68013" inkscape:cy="285.5" inkscape:deskcolor="#d1d1d1" inkscape:pagecheckerboard="0" inkscape:pageopacity="0" inkscape:showpageshadow="2" inkscape:window-height="1004" inkscape:window-maximized="1" inkscape:window-width="1920" inkscape:window-x="0" inkscape:window-y="0" inkscape:zoom="1.3660245" pagecolor="#ffffff">
	</sodipodi:namedview>
<g id="g1">
	<path id="path1" class="st0" d="M-0.5-0.5c134.3,0,268.7,0,403,0c0,190.3,0,380.7,0,571c-134.3,0-268.7,0-403,0
		C-0.5,380.2-0.5,189.8-0.5-0.5z"/>
</g>
<g id="g2">
	<path id="path2" class="st1" d="M170.5,98.5c-2,0.2-3.7-0.5-5-2c-0.7,0.8-1.6,1.5-2.5,2c-1.1-0.9-2.2-1.6-3.5-2
		c-3.8,0.1-5.4,2.1-5,6c-3.1-0.3-6.1-0.9-9-2c-1.1-2-0.8-3.8,1-5.5c3.2-2.1,6.2-4.4,9-7c1.3-0.5,2.6-0.7,4-0.5c0-1.3,0-2.7,0-4
		c2.8-0.4,5,0.6,6.5,3c0.3,2.7,0.3,5.4,0,8C167.4,96.1,168.9,97.4,170.5,98.5z"/>
</g>
<g id="g3">
	<path id="path3" class="st0" d="M159.5,96.5c-1.7,0-3.3,0-5,0c-0.3-1.5,0.1-2.8,1-4c1.2-0.8,2.2-1.8,3-3
		C160.6,91.6,160.9,93.9,159.5,96.5z"/>
</g>
<g id="g4">
	<path id="path4" class="st2" d="M155.5,105.5c2,5.8,2.3,11.8,1,18c-0.3,0-0.7,0-1,0C155.3,117.7,155.3,111.7,155.5,105.5z"/>
</g>
<g id="g5">
	<path id="path5" class="st3" d="M159.5,96.5c1.3,0.4,2.4,1.1,3.5,2c0.9-0.5,1.8-1.2,2.5-2c1.3,1.5,3,2.2,5,2c-0.1,1.4,0.3,2.8,1,4
		c-1.7,0.7-3.3,1.3-5,2c-1.8,3.8-2.8,7.8-3,12c2.3,1.2,4.7,2.5,7,4c0.2,3,0,6-0.5,9c-1.3-2.5-2.5-2.5-3.5,0c-0.7-0.4-1.4-0.7-2-1
		c-0.7-1.3-1.3-1.3-2,0c-0.7-0.6-1.3-1.3-2-2c-0.7,3.7-1.3,7.3-2,11c-0.7-3.1-1.3-6.1-2-9c0-1.7,0-3.3,0-5c1.3-6.2,1-12.2-1-18
		c0.2-1.3-0.1-2.3-1-3C154.1,98.6,155.7,96.6,159.5,96.5z"/>
</g>
<g id="g6">
	<path id="path6" class="st0" d="M145.5,100.5c2.9,1.1,5.9,1.7,9,2c0.9,0.7,1.2,1.7,1,3c-0.2,6.2-0.2,12.2,0,18
		c-0.5,9.7-0.8,19.3-1,29c-0.7,1.2-1.1,2.5-1,4c-3.2-0.3-6.2,0-9,1c-0.3,0-0.7,0-1,0c2.5-1.9,5.5-2.6,9-2c0.4-11,0.4-22,0-33
		c1.5-3.3,2.1-6.8,2-10.5c0.7-6.8-2.3-9.6-9-8.5C145.5,102.5,145.5,101.5,145.5,100.5z"/>
</g>
<g id="g7">
	<path id="path7" class="st1" d="M170.5,98.5c2,1.1,3.5,2.8,4.5,5c0.8,6.7,0.7,13.4-0.5,20c-2,0.8-3,2.3-3,4.5c0.8,4.5,1.1,9,1,13.5
		c-0.3,3.7,0.1,7.4,1,11c3.3,1,6.6,1.3,10,1c0,2.7,0,5.3,0,8c0.3,2-0.3,3.3-2,4c-8.9,0.4-17.5,1.4-26,3c-2.3,0-4.7,0-7,0
		c-1.3,0-2.7,0-4,0c0-1.3,0-2.7,0-4c1-2.1,1.3-4.4,1-7c1,0,2,0,3,0c0,2,0,4,0,6c1.3,0,2.7,0,4,0c0-1.3,0-2.7,0-4
		c1.4-0.2,2.7,0,4,0.5c-0.8,1-1.2,2.2-1,3.5c5,0.7,10,0.9,15,0.5c-2.5-0.1-4.9-0.8-7-2c6-0.5,12-0.7,18-0.5c0.3-2.1,0-4.1-1-6
		c-0.9,1.2-1.3,2.5-1,4c-1.3,0-2.7,0-4,0c-1.2-2.6-2.9-4.9-5-7c-1.7-8.1-3.7-16.1-6-24c0.6,0.3,1.3,0.6,2,1c1-2.5,2.2-2.5,3.5,0
		c0.5-3,0.7-6,0.5-9c-2.3-1.5-4.7-2.8-7-4c0.2-4.2,1.2-8.2,3-12c1.7-0.7,3.3-1.3,5-2C170.8,101.3,170.4,99.9,170.5,98.5z"/>
</g>
<g id="g8">
	<path id="path8" class="st0" d="M171.5,109.5c1.1,3.1,1.3,6.5,0.5,10c-0.4,0.6-0.9,0.9-1.5,1c0-2,0-4,0-6
		C170.2,112.6,170.5,110.9,171.5,109.5z"/>
</g>
<g id="g9">
	<path id="path9" class="st0" d="M171.5,109.5c-1,1.4-1.3,3.1-1,5c-1.3-2.9-1.3-5.9,0-9C171.4,106.7,171.8,108,171.5,109.5z"/>
</g>
<g id="g10">
	<path id="path10" class="st1" d="M162.5,128.5c-0.6,1.9-1,3.9-1,6c-0.7,3.3-1.3,6.7-2,10c-1,3.5-1.3,7.1-1,11c4-0.8,8-1.1,12-1
		c0,1,0,2,0,3c-3.7,0.2-7.3,0-11-0.5c-1.3-0.8-2.2-1.9-2.5-3.5c-1.7,0.8-2.5,2.1-2.5,4c-2,0-4,0-6,0c-1,0-2,0-3,0c0.3,2.6,0,4.9-1,7
		c0-2.3,0-4.7,0-7c2.8-1,5.8-1.3,9-1c-0.1-1.5,0.3-2.8,1-4c1.1-7.8,1.8-15.8,2-24c0.7,2.9,1.3,5.9,2,9c0.7-3.7,1.3-7.3,2-11
		C161.2,127.2,161.8,127.9,162.5,128.5z"/>
</g>
<g id="g11">
	<path id="path11" class="st0" d="M246.5,155.5c0.3-1.9,0-3.6-1-5c-5.2-1.4-10.5-2.8-16-4c-0.7,0-1.3,0-2,0c-1.4-1-3.1-1.3-5-1
		c0,8.3,0,16.7,0,25c-0.3,15.4,0,30.7,1,46c-1.3,0.3-2.3,0.9-3,2c-1-23.3-1.6-46.7-2-70c0-1.7,0-3.3,0-5c-6.6,0-12.9,0.6-19,2
		c-4,0-8,0-12,0c-0.5,5.3-0.8,10.7-1,16c-0.9,1.1-1.3,2.4-1,4c5.1-0.6,9.8,0.1,14,2c-1.6-0.3-2.9,0.1-4,1c-1.3,0-2.7,0-4,0
		c-1.7,0-3.3,0-5,0c-3.7,0.3-7.4,0-11-1c2.1-0.7,4.1-1.3,6-2c1.7-0.7,2.3-2,2-4c1-2.8,1.3-5.8,1-9c1.6-2.5,1.9-5.1,1-8
		c9.5-0.6,18.8-1.6,28-3c3-0.2,5.6,0.5,8,2c0.7-0.7,1.3-1.3,2-2c7.7,3.5,15.7,5.8,24,7C247.8,151.1,247.5,153.4,246.5,155.5z"/>
</g>
<g id="g12">
	<path id="path12" class="st0" d="M172.5,141.5c0.7,3.2,1.4,6.5,2,10c3.3,1,6.6,1.3,10,1c0.3,3.2,0,6.2-1,9c0-2.7,0-5.3,0-8
		c-3.4,0.3-6.7,0-10-1C172.6,148.9,172.2,145.2,172.5,141.5z"/>
</g>
<g id="g13">
	<path id="path13" class="st0" d="M218.5,148.5c-0.9-1.1-1.3-2.4-1-4c-6,0.5-12,0.8-18,1c6.1-1.4,12.4-2,19-2
		C218.5,145.2,218.5,146.8,218.5,148.5z"/>
</g>
<g id="g14">
	<path id="path14" class="st0" d="M155.5,123.5c0.3,0,0.7,0,1,0c0,1.7,0,3.3,0,5c-0.2,8.2-0.9,16.2-2,24
		C154.7,142.8,155,133.2,155.5,123.5z"/>
</g>
<g id="g15">
	<path id="path15" class="st4" d="M159.5,144.5c0.7-3.3,1.3-6.7,2-10c0.7-0.6,1.3-1.3,2-2c1.1,6.2,2.7,12.2,5,18c-0.3,1.1-1,2-2,2.5
		c-2.3,0.5-4.6,0.7-7,0.5C159.5,150.5,159.5,147.5,159.5,144.5z"/>
</g>
<g id="g16">
	<path id="path16" class="st5" d="M229.5,146.5c5.5,1.2,10.8,2.6,16,4c-0.2,6.7-0.5,13.3-1,20c0.3,2.6,0,4.9-1,7
		c-1.2-8.5-1.2-16.8,0-25c-3.5,2.8-6.5,2.3-9-1.5c-1.6-0.5-3.3-0.7-5-0.5C229.5,149.2,229.5,147.8,229.5,146.5z"/>
</g>
<g id="g17">
	<path id="path17" class="st1" d="M218.5,148.5c0.4,23.3,1,46.7,2,70c-1.7,0-3.3,0-5,0c0-1,0-2,0-3c-9.3-0.7-9.3-1.3,0-2
		c-0.2-5,0-10,0.5-15c0.9,1.4,1.4,1.2,1.5-0.5c-0.7-4-1.3-8-2-12c1-1.5,1.7-3.2,2-5c-0.8-5.8-1.7-11.7-2.5-17.5
		c-1-0.8-2.2-1.2-3.5-1c0.8-2.7,2.2-5.2,4-7.5c-0.8-0.3-1.5-0.8-2-1.5c1.7-2,2.3-4.4,2-7c-7.4,1-14.7,1-22,0c0.9,2.9,1.6,5.9,2,9
		c-1.3,0-2.7,0-4,0c0.2-2,0-4-0.5-6c-1.7,1.7-2.5,3.9-2.5,6.5c0.3,1.8,0.7,3.7,1,5.5c0.9-1.2,1.3-2.5,1-4c5.7,2.3,11.7,3.6,18,4
		c-0.1,4.8-0.8,9.4-2,14c-1-1.4-1.3-3.1-1-5c0-1,0-2,0-3c0.9-1.1,1.3-2.4,1-4c-6.6,0.6-13.3,1-20,1c0-1,0-2,0-3
		c0.2-5.3,0.5-10.7,1-16c4,0,8,0,12,0c6-0.2,12-0.5,18-1C217.2,146.1,217.6,147.4,218.5,148.5z"/>
</g>
<g id="g18">
	<path id="path18" class="st0" d="M164.5,128.5c2.3,7.9,4.3,15.9,6,24c0,0.7,0,1.3,0,2c-4-0.1-8,0.2-12,1c-0.3-3.9,0-7.5,1-11
		c0,3,0,6,0,9c2.4,0.2,4.7,0,7-0.5c1-0.5,1.7-1.4,2-2.5c-2.3-5.8-3.9-11.8-5-18c-0.7,0.7-1.3,1.4-2,2c0-2.1,0.4-4.1,1-6
		C163.2,127.2,163.8,127.2,164.5,128.5z"/>
</g>
<g id="g19">
	<path id="path19" class="st1" d="M227.5,146.5c0.7,0,1.3,0,2,0c0,1.3,0,2.7,0,4c1.7-0.2,3.4,0,5,0.5c2.5,3.8,5.5,4.3,9,1.5
		c-1.2,8.2-1.2,16.5,0,25c-0.1,12-0.5,24-1,36c0,0.3,0,0.7,0,1c-4.7,0.3-9.3,0.7-14,1c-1.3-4.8-2-10-2-15.5c0-5.7,0.4-11.4,1-17
		c-3-12-4-24.1-3-36.5C225.5,146.5,226.5,146.5,227.5,146.5z"/>
</g>
<g id="g20">
	<path id="path20" class="st6" d="M170.5,152.5c2.1,2.1,3.8,4.4,5,7c1.3,0,2.7,0,4,0c-0.3-1.5,0.1-2.8,1-4c1,1.9,1.3,3.9,1,6
		c-6-0.2-12,0-18,0.5c2.1,1.2,4.5,1.9,7,2c-5,0.4-10,0.2-15-0.5c-0.2-1.3,0.2-2.5,1-3.5c-1.3-0.5-2.6-0.7-4-0.5c0,1.3,0,2.7,0,4
		c-1.3,0-2.7,0-4,0c0-2,0-4,0-6c2,0,4,0,6,0c0-1.9,0.8-3.2,2.5-4c0.3,1.6,1.2,2.7,2.5,3.5c3.7,0.5,7.3,0.7,11,0.5c0-1,0-2,0-3
		C170.5,153.8,170.5,153.2,170.5,152.5z"/>
</g>
<g id="g21">
	<path id="path21" class="st0" d="M143.5,157.5c0.3,0,0.7,0,1,0c0,2.3,0,4.7,0,7c0,1.3,0,2.7,0,4c1.3,0,2.7,0,4,0
		c-1.4,1-3.1,1.3-5,1C143.5,165.5,143.5,161.5,143.5,157.5z"/>
</g>
<g id="g22">
	<path id="path22" class="st0" d="M245.5,150.5c1,1.4,1.3,3.1,1,5c0,3.7,0,7.3,0,11c-0.7,1.3-1.3,2.7-2,4
		C245,163.8,245.3,157.2,245.5,150.5z"/>
</g>
<g id="g23">
	<path id="path23" class="st0" d="M186.5,161.5c0,1,0,2,0,3c6.7,0,13.4-0.4,20-1c0.3,1.6-0.1,2.9-1,4c0-1,0-2,0-3
		c-1.9-0.3-3.6,0.2-5,1.5c0.9,0.3,1.6,0.8,2,1.5c-1,0-2,0-3,0c-4.2-1.9-8.9-2.6-14-2C185.2,163.9,185.6,162.6,186.5,161.5z"/>
</g>
<g id="g24">
	<path id="path24" class="st0" d="M181.5,165.5c-1.9,0.7-3.9,1.3-6,2c3.6,1,7.3,1.3,11,1c-4.1,1.2-8.5,1.9-13,2
		c-0.1-0.6-0.4-1.1-1-1.5c-5.7-0.5-11.3-0.7-17-0.5C164,166.9,172.6,165.9,181.5,165.5z"/>
</g>
<g id="g25">
	<path id="path25" class="st1" d="M195.5,168.5c1.1-0.9,2.4-1.3,4-1c1,0,2,0,3,0c-0.1,2.3-0.8,4.3-2,6
		C200.8,169.8,199.2,168.2,195.5,168.5z"/>
</g>
<g id="g26">
	<path id="path26" class="st0" d="M148.5,168.5c2.3,0,4.7,0,7,0c5.7-0.2,11.3,0,17,0.5c0.6,0.4,0.9,0.9,1,1.5c-1,0-2,0-3,0
		c-11.7,0.9-23.3,1.9-35,3c0,1.3,0,2.7,0,4c-1.1,3-2.1,6-3,9c-0.5-5.3,0.5-10.3,3-15c2.6-0.8,5.3-1.5,8-2
		C145.4,169.8,147.1,169.5,148.5,168.5z"/>
</g>
<g id="g27">
	<path id="path27" class="st7" d="M191.5,168.5c1.3,0,2.7,0,4,0c3.7-0.3,5.3,1.3,5,5c0,0.7,0,1.3,0,2c-1,0-2,0-3,0
		c-1.5,4.9-2.2,9.9-2,15c-1.4-2.6-2.9-5.2-4.5-8c-0.8-4.3-0.3-8.5,1.5-12.5C191.9,169.6,191.6,169.1,191.5,168.5z"/>
</g>
<g id="g28">
	<path id="path28" class="st1" d="M170.5,170.5c-7.7,2.3-15.7,3.4-24,3.5c0.3,0.3,0.7,0.7,1,1c-4.3,0-8.3,0.8-12,2.5
		c0-1.3,0-2.7,0-4C147.2,172.4,158.8,171.4,170.5,170.5z"/>
</g>
<g id="g29">
	<path id="path29" class="st1" d="M205.5,170.5c-0.3,1.9,0,3.6,1,5c-1.7,6.2-3,12.6-4,19c1.1-0.1,2.1,0,3,0.5
		c-1.7,0.8-3.4,1.6-5,2.5C201.9,188.3,203.5,179.3,205.5,170.5z"/>
</g>
<g id="g30">
	<path id="path30" class="st1" d="M186.5,168.5c1.7,0,3.3,0,5,0c0.1,0.6,0.4,1.1,1,1.5c-1.8,4-2.3,8.2-1.5,12.5
		c1.6,2.8,3.1,5.4,4.5,8c-5.2,1.3-10.5,2.3-16,3c-5-0.4-9.6,0.6-14,3c-1.4,5.4-2.7,10.7-4,16c0.2,2.4,1.4,4,3.5,5
		c3.4,1.5,6.9,2.5,10.5,3c5.6,2.3,10.9,4.9,16,8c0.4,1.9,1.4,3.4,3,4.5c6.7,0.2,8.7,3.3,6,9.5c3,0.1,3.7-1.1,2-3.5
		c2.8-3.6,4.2-2.9,4,2c-0.8,3.3-1.4,6.6-2,10c1.2,5.5,2,11,2.5,16.5c0.3-0.8,0.8-1.5,1.5-2c0.7,2.8,1.1,5.4,1,8
		c-13,1.2-26,1.3-39,0.5c-3.8-0.7-5.8-2.9-6-6.5c-2.1-0.2-3.8-1.2-5-3c2.2-2.3,4.9-3.6,8-4c0,1,0,2,0,3c1,0,2,0,3,0
		c-2.3-8.3-6.3-9.1-12-2.5c-1.7,0.4-3.4,0.2-5-0.5c-6.4-5.4-12-11.4-17-18c0.6-1.4,1.4-2.8,2.5-4c0.9-2.1,0.2-3.4-2-4
		c-1.2,1-2.3,2-3.5,3c-0.9-1.2-1.3-2.5-1-4c1.9,0.2,2.7-0.4,2.5-2c-2.6-2-5.5-3.6-8.5-5c-0.4-0.8-0.8-1.6-1-2.5
		c1.6-4,2.4-8.1,2.5-12.5c1.2,2,2.7,2.3,4.5,1c-1.9-4.8-2.5-9.8-2-15c0.5-3.7,1.2-7.4,2-11c0.9-3,1.9-6,3-9c3.7-1.7,7.7-2.5,12-2.5
		c-0.3-0.3-0.7-0.7-1-1c8.3-0.1,16.3-1.2,24-3.5c1,0,2,0,3,0C178,170.4,182.4,169.7,186.5,168.5z"/>
</g>
<g id="g31">
	<path id="path31" class="st1" d="M227.5,146.5c-1,0-2,0-3,0c-1,12.4,0,24.5,3,36.5c-0.6,5.6-1,11.3-1,17c0,5.5,0.7,10.7,2,15.5
		c0,0.7-0.3,1-1,1c-1,0-2,0-3,0c-0.3-15.5-0.9-30.8-2-46c0-8.3,0-16.7,0-25C224.4,145.2,226.1,145.5,227.5,146.5z"/>
</g>
<g id="g32">
	<path id="path32" class="st1" d="M200.5,175.5c-1.2,5.3-2.9,10.3-5,15c-0.2-5.1,0.5-10.1,2-15C198.5,175.5,199.5,175.5,200.5,175.5
		z"/>
</g>
<g id="g33">
	<path id="path33" class="st0" d="M267.5,175.5c0,3,0,6,0,9c-0.7,1.3-1.3,2.7-2,4C265.2,183.9,265.8,179.5,267.5,175.5z"/>
</g>
<g id="g34">
	<path id="path34" class="st1" d="M260.5,166.5c-3.8-0.1-7.5-0.8-11-2c-0.5,10.8,0.8,21.3,4,31.5c-0.2,1.9-1.2,3-3,3.5
		c-1,2.9-1.3,5.9-1,9c3.7,0.1,7.4,0.4,11,1c-0.2-2.9,0.8-5.3,3-7c-0.6,3.3-0.9,6.6-1,10c-4.5-0.3-8.9,0-13,1c-1,0-2,0-3,0
		c-0.2-17,0.5-34,2-51C252.8,163.2,256.8,164.6,260.5,166.5z"/>
</g>
<g id="g35">
	<path id="path35" class="st8" d="M260.5,166.5c0.7,0,1.3,0,2,0c1.6,0.5,3.3,0.9,5,1c0,2.7,0,5.3,0,8c-1.7,4-2.3,8.4-2,13
		c-1,4.6-1.7,9.2-2,14c-2.2,1.7-3.2,4.1-3,7c-3.6-0.6-7.3-0.9-11-1c-0.3-3.1,0-6.1,1-9c1.8-0.5,2.8-1.6,3-3.5
		c-3.2-10.2-4.5-20.7-4-31.5C253,165.7,256.7,166.4,260.5,166.5z"/>
</g>
<g id="g36">
	<path id="path36" class="st0" d="M205.5,167.5c0,1,0,2,0,3c-2,8.8-3.6,17.8-5,27c-2.9-0.3-5.6,0-8,1c-0.7,1.9-1.3,3.9-2,6
		c-0.7-0.7-1.3-1.4-2-2c0.2-1.7-0.5-2.7-2-3c-0.7,0-1.3,0-2,0c-2.3,0-4.7,0-7,0c-1.7,0-3.3,0-5,0c-0.3,3.5,0,6.9,1,10
		c5.1,4.7,10.7,8.7,17,12c2.1-1.4,3.1-0.7,3,2c1.6,0.3,2.9-0.1,4-1c0.7,0,1.3,0,2,0c1,0,2,0,3,0c-0.7,0.9-1.7,1.2-3,1
		c-0.2,1.4,0,2.7,0.5,4c2.3,2.6,4.5,5.2,6.5,8c-5.2-2.1-10.2-4.4-15-7c-5.1-3.1-10.4-5.7-16-8c-3.2-2.7-6.8-4.7-11-6
		c-0.7-5.8,0.1-11.5,2.5-17c4.2-1.4,8.4-2.7,12.5-4c5.5-0.7,10.8-1.7,16-3c2.1-4.7,3.8-9.7,5-15c0-0.7,0-1.3,0-2
		c1.2-1.7,1.9-3.7,2-6c-0.4-0.7-1.1-1.2-2-1.5c1.4-1.3,3.1-1.8,5-1.5C205.5,165.5,205.5,166.5,205.5,167.5z"/>
</g>
<g id="g37">
	<path id="path37" class="st1" d="M215.5,218.5c-1-0.2-1.7,0.2-2,1c-4.9,0.3-9.6,1.3-14,3c-0.7,0-1.3,0-2,0c-1,0-2,0-3,0
		c-1.2-8-1.8-16-2-24c2.4-1,5.1-1.3,8-1c1.6-0.9,3.3-1.7,5-2.5c-0.9-0.5-1.9-0.6-3-0.5c1-6.4,2.3-12.8,4-19c1.2-4.6,1.9-9.2,2-14
		c-6.3-0.4-12.3-1.7-18-4c0.3,1.5-0.1,2.8-1,4c-0.3-1.8-0.7-3.7-1-5.5c0-2.6,0.8-4.8,2.5-6.5c0.5,2,0.7,4,0.5,6c1.3,0,2.7,0,4,0
		c-0.4-3.1-1.1-6.1-2-9c7.3,1,14.6,1,22,0c0.3,2.6-0.3,5-2,7c0.5,0.7,1.2,1.2,2,1.5c-1.8,2.3-3.2,4.8-4,7.5c1.3-0.2,2.5,0.2,3.5,1
		c0.8,5.8,1.7,11.7,2.5,17.5c-0.3,1.8-1,3.5-2,5c0.7,4,1.3,8,2,12c-0.1,1.7-0.6,1.9-1.5,0.5c-0.5,5-0.7,10-0.5,15
		c-9.3,0.7-9.3,1.3,0,2C215.5,216.5,215.5,217.5,215.5,218.5z"/>
</g>
<g id="g38">
	<path id="path38" class="st0" d="M177.5,199.5c-1.1,0.9-2.4,1.3-4,1c0,3,0,6,0,9c-1-3.1-1.3-6.5-1-10
		C174.2,199.5,175.8,199.5,177.5,199.5z"/>
</g>
<g id="g39">
	<path id="path39" class="st1" d="M179.5,193.5c-4.1,1.3-8.3,2.6-12.5,4c-2.4,5.5-3.2,11.2-2.5,17c4.2,1.3,7.8,3.3,11,6
		c-3.6-0.5-7.1-1.5-10.5-3c-2.1-1-3.3-2.6-3.5-5c1.3-5.3,2.6-10.6,4-16C169.9,194.1,174.5,193.1,179.5,193.5z"/>
</g>
<g id="g40">
	<path id="path40" class="st0" d="M262.5,166.5c-0.7,0-1.3,0-2,0c-3.7-1.9-7.7-3.3-12-4c-1.5,17-2.2,34-2,51c-1.3,0-2.7,0-4,0
		c0.5-12,0.9-24,1-36c1-2.1,1.3-4.4,1-7c0.7-1.3,1.3-2.7,2-4c-0.2,1.4,0,2.7,0.5,4c0.5-3,0.7-6,0.5-9c4.9-0.2,9.6,0.8,14,3
		C262.3,165,262.6,165.6,262.5,166.5z"/>
</g>
<g id="g41">
	<path id="path41" class="st0" d="M222.5,170.5c1.1,15.2,1.7,30.5,2,46c1,0,2,0,3,0c0,0.3,0,0.7,0,1c-1.6,0.3-2.9-0.1-4-1
		C222.5,201.2,222.2,185.9,222.5,170.5z"/>
</g>
<g id="g42">
	<path id="path42" class="st0" d="M267.5,184.5c0.1,7.8-0.9,15.5-3,23c1.9,1.4,2.2,3.1,1,5c2.2,1.3,4.2,2.8,6,4.5
		c-0.8,1.2-1.7,2.3-2.5,3.5c-1.7-2-3.9-3-6.5-3c0.2,3.7,0,7.3-0.5,11c-0.6,2.8-1.8,5.1-3.5,7c0-0.7,0-1.3,0-2c0-1.3,0-2.7,0-4
		c1.9-3.3,2.9-7,3-11c-13.2,4.3-26.2,9.1-39,14.5c-2.7,0.6-5.3,1.1-8,1.5c0.7,5,1,10,1,15c-1.4-5.9-3-11.9-5-18
		c-5.3-0.7-5.3-1.3,0-2c0-1,0-2,0-3c1,0,2,0,3,0c0.2,2.5,1.5,4.2,4,5c6-1.9,11.7-4.5,17-8c4.6-0.8,9.3-1.3,14-1.5
		c-0.8-0.3-1.5-0.8-2-1.5c1.5-1.3,2.8-2.8,4-4.5c-0.3-0.3-0.7-0.7-1-1c10.3-0.7,10.3-1.2,0-1.5c4.1-1,8.5-1.3,13-1
		c0.1-3.4,0.4-6.7,1-10c0.3-4.8,1-9.4,2-14C266.2,187.2,266.8,185.8,267.5,184.5z"/>
</g>
<g id="g43">
	<path id="path43" class="st0" d="M192.5,198.5c0.2,8,0.8,16,2,24c1,0,2,0,3,0c-1.1,0.9-2.4,1.3-4,1c0.1-2.7-0.9-3.4-3-2
		c-0.3-6.4-1-12.7-2-19c0.7,0.6,1.3,1.3,2,2C191.2,202.4,191.8,200.4,192.5,198.5z"/>
</g>
<g id="g44">
	<path id="path44" class="st1" d="M177.5,199.5c2.3,0,4.7,0,7,0c0.1,0.7,0,1.4-0.5,2c-1.4-0.9-2.9-1.2-4.5-1c0,1.3,0,2.7,0,4
		c1.7,0,3.3,0,5,0c0,1,0,2,0,3c-2.3,0-4.7,0-7,0c0.2-1.4,0-2.7-0.5-4c-1.3,1.8-1.8,3.8-1.5,6c3.1,0.6,6.1,1.6,9,3
		c-1.5,1.8-1,2.8,1.5,3c0.8-0.3,1.7-0.7,2.5-1c-1.9-4.8-2.5-9.8-2-15c1.5,0.3,2.2,1.3,2,3c1,6.3,1.7,12.6,2,19
		c-6.3-3.3-11.9-7.3-17-12c0-3,0-6,0-9C175.1,200.8,176.4,200.4,177.5,199.5z"/>
</g>
<g id="g45">
	<path id="path45" class="st9" d="M184.5,199.5c0.7,0,1.3,0,2,0c-0.5,5.2,0.1,10.2,2,15c-0.8,0.3-1.7,0.7-2.5,1
		c-2.5-0.2-3-1.2-1.5-3c-2.9-1.4-5.9-2.4-9-3c-0.3-2.2,0.2-4.2,1.5-6c0.5,1.3,0.7,2.6,0.5,4c2.3,0,4.7,0,7,0c0-1,0-2,0-3
		c-1.7,0-3.3,0-5,0c0-1.3,0-2.7,0-4c1.6-0.2,3.1,0.1,4.5,1C184.5,200.9,184.6,200.2,184.5,199.5z"/>
</g>
<g id="g46">
	<path id="path46" class="st0" d="M242.5,214.5c-4.8,1.6-9.8,2.6-15,3c0-0.3,0-0.7,0-1c0.7,0,1-0.3,1-1
		C233.2,215.2,237.8,214.8,242.5,214.5z"/>
</g>
<g id="g47">
	<path id="path47" class="st0" d="M213.5,219.5c-3.2,2.4-6.9,3.4-11,3c-1,0-2,0-3,0C203.9,220.8,208.6,219.8,213.5,219.5z"/>
</g>
<g id="g48">
	<path id="path48" class="st0" d="M242.5,213.5c1.3,0,2.7,0,4,0c1,0,2,0,3,0c10.3,0.3,10.3,0.8,0,1.5c0.3,0.3,0.7,0.7,1,1
		c-1.2,1.7-2.5,3.2-4,4.5c0.5,0.7,1.2,1.2,2,1.5c-4.7,0.2-9.4,0.7-14,1.5c-5.3,3.5-11,6.1-17,8c-2.5-0.8-3.8-2.5-4-5c-1,0-2,0-3,0
		c0,1,0,2,0,3c-5.3,0.7-5.3,1.3,0,2c2,6.1,3.6,12.1,5,18c0,3.7,0,7.3,0,11c0.2,1.7,0,3.4-0.5,5c-0.3-0.8-0.8-1.5-1.5-2
		c-1.3-8.7-2.5-17.3-3.5-26c-0.4-0.6-0.9-0.9-1.5-1c-0.3-0.8-1-1.2-2-1c-2-2.8-4.2-5.4-6.5-8c-0.5-1.3-0.7-2.6-0.5-4
		c1.3,0.2,2.3-0.1,3-1c4.1,0.4,7.8-0.6,11-3c0.3-0.8,1-1.2,2-1c1.7,0,3.3,0,5,0c0.7-1.1,1.7-1.7,3-2c1.1,0.9,2.4,1.3,4,1
		c5.2-0.4,10.2-1.4,15-3C242.5,214.2,242.5,213.8,242.5,213.5z"/>
</g>
<g id="g49">
	<path id="path49" class="st1" d="M130.5,197.5c-0.5,5.2,0.1,10.2,2,15c-1.8,1.3-3.3,1-4.5-1c-0.1,4.4-0.9,8.5-2.5,12.5
		c0.2,0.9,0.6,1.7,1,2.5c3,1.4,5.9,3,8.5,5c0.2,1.6-0.6,2.2-2.5,2c-0.3,1.5,0.1,2.8,1,4c1.2-1,2.3-2,3.5-3c2.2,0.6,2.9,1.9,2,4
		c-1.1,1.2-1.9,2.6-2.5,4c-5.4-4.4-10.1-9.4-14-15C125,217.3,127.7,207.3,130.5,197.5z"/>
</g>
<g id="g50">
	<path id="path50" class="st10" d="M258.5,229.5c0,1.3,0,2.7,0,4c-1.4,2-2.1,4.3-2,7c-2.1,7.6-3.8,15.3-5,23c-0.8,1.5-1.5,3.2-2,5
		c-2.3,1.1-2.9,2.8-2,5c-8.6,1-17.3,1.3-26,1c-0.1-1.1,0-2.1,0.5-3c1.9,2.4,4,2.5,6.5,0.5c-1-0.5-2-1-3-1.5c-1.8-7-3.5-14-5-21
		c0.3-2.3,0.7-4.7,1-7c1.8-1.2,2.8-2.9,3-5c-1.8-0.1-3.4,0.2-5,1c-0.8,2.6-1.3,5.3-1.5,8c-0.8-3.6-0.6-7.1,0.5-10.5
		c5.6-1.5,8.6,0.6,9,6.5c2.4-1.6,5.1-2.4,8-2.5c1.2-1,2.2-2.2,3-3.5c1.2-0.9,2.5-1.3,4-1c-0.2,1.2,0.1,2.2,1,3c3.2-1.3,4.9-3.7,5-7
		c-2,0-4,0-6,0c0-1.3,0-2.7,0-4c4.3,1.1,8.6,1.6,13,1.5c-2.5-0.1-4.5-1.1-6-3c0.3-0.5,0.7-1,1-1.5c1.8,2,3.8,2.3,6,1
		c-3.6-2.2-2.9-3.2,2-3C258.5,224.8,258.5,227.2,258.5,229.5z"/>
</g>
<g id="g51">
	<path id="path51" class="st0" d="M258.5,233.5c0,0.7,0,1.3,0,2s0,1.3,0,2c-0.7,1-1.3,2-2,3C256.4,237.8,257.1,235.5,258.5,233.5z"
		/>
</g>
<g id="g52">
	<path id="path52" class="st1" d="M191.5,228.5c4.8,2.6,9.8,4.9,15,7c1-0.2,1.7,0.2,2,1c0.9,11.7,2.2,23.4,4,35c0,1.3,0,2.7,0,4
		c-15,0-30,0-45,0c-2.4-1.7-4.4-3.7-6-6c-2.7-3-5.3-6-8-9c1.6,0.7,3.3,0.9,5,0.5c5.7-6.6,9.7-5.8,12,2.5c-1,0-2,0-3,0c0-1,0-2,0-3
		c-3.1,0.4-5.8,1.7-8,4c1.2,1.8,2.9,2.8,5,3c0.2,3.6,2.2,5.8,6,6.5c13,0.8,26,0.7,39-0.5c0.1-2.6-0.3-5.2-1-8
		c-0.7,0.5-1.2,1.2-1.5,2c-0.5-5.5-1.3-11-2.5-16.5c0.6-3.4,1.2-6.7,2-10c0.2-4.9-1.2-5.6-4-2c1.7,2.4,1,3.6-2,3.5
		c2.7-6.2,0.7-9.3-6-9.5C192.9,231.9,191.9,230.4,191.5,228.5z"/>
</g>
<g id="g53">
	<path id="path53" class="st0" d="M215.5,249.5c1.4,5.8,2.4,11.8,3,18c0,1.7,0,3.3,0,5c-0.7-4.1-1.7-8.1-3-12
		C215.5,256.8,215.5,253.2,215.5,249.5z"/>
</g>
<g id="g54">
	<path id="path54" class="st0" d="M258.5,237.5c-0.7,6-1.7,12-3,18c1.9,4.2,0.5,6.8-4,8c1.2-7.7,2.9-15.4,5-23
		C257.2,239.5,257.8,238.5,258.5,237.5z"/>
</g>
<g id="g55">
	<path id="path55" class="st1" d="M258.5,229.5c0-2.3,0-4.7,0-7c-4.9-0.2-5.6,0.8-2,3c-2.2,1.3-4.2,1-6-1c-0.3,0.5-0.7,1-1,1.5
		c1.5,1.9,3.5,2.9,6,3c-4.4,0.1-8.7-0.4-13-1.5c0,1.3,0,2.7,0,4c2,0,4,0,6,0c-0.1,3.3-1.8,5.7-5,7c-0.9-0.8-1.2-1.8-1-3
		c-1.5-0.3-2.8,0.1-4,1c-0.8,1.3-1.8,2.5-3,3.5c-2.9,0.1-5.6,0.9-8,2.5c-0.4-5.9-3.4-8-9-6.5c-1.1,3.4-1.3,6.9-0.5,10.5
		c0.2-2.7,0.7-5.4,1.5-8c1.6-0.8,3.2-1.1,5-1c-0.2,2.1-1.2,3.8-3,5c-0.3,2.3-0.7,4.7-1,7c1.5,7,3.2,14,5,21c1,0.5,2,1,3,1.5
		c-2.5,2-4.6,1.9-6.5-0.5c-0.5,0.9-0.6,1.9-0.5,3c8.7,0.3,17.4,0,26-1c-0.9-2.2-0.3-3.9,2-5c-0.2,2.6-0.9,4.9-2,7c-9,0-18,0-27,0
		c-0.1-2.9-0.7-5.6-2-8c-0.6-6.2-1.6-12.2-3-18c0-5-0.3-10-1-15c2.7-0.4,5.3-0.9,8-1.5c12.8-5.4,25.8-10.2,39-14.5
		C261.4,222.5,260.4,226.2,258.5,229.5z"/>
</g>
<g id="g56">
	<path id="path56" class="st0" d="M208.5,236.5c0.6,0.1,1.1,0.4,1.5,1c1,8.7,2.2,17.3,3.5,26c0.7,0.5,1.2,1.2,1.5,2
		c0.5-1.6,0.7-3.3,0.5-5c1.3,3.9,2.3,7.9,3,12c0.9,1.1,1.3,2.4,1,4c9.5,0.3,18.8,0,28-1c1.1-2.1,1.8-4.4,2-7c0.5-1.8,1.2-3.5,2-5
		c0,4.3,0,8.7,0,13c-1.1-0.1-2.1,0-3,0.5c1,7.4,1.3,14.9,1,22.5c-0.7-1.7-1.3-3.3-2-5c0-1.7,0-3.3,0-5c0-2.7,0-5.3,0-8
		c-25.7,0-51.3,0-77,0c0-1,0-2,0-3c-5.9,0.1-8.9-2.9-9-9c1.6,2.3,3.6,4.3,6,6c15.2,1,30.5,1.3,46,1c0.3-1.9,0-3.6-1-5
		C210.7,259.9,209.4,248.2,208.5,236.5z"/>
</g>
<g id="g57">
	<path id="path57" class="st1" d="M218.5,267.5c1.3,2.4,1.9,5.1,2,8c9,0,18,0,27,0c-9.2,1-18.5,1.3-28,1c0.3-1.6-0.1-2.9-1-4
		C218.5,270.8,218.5,269.2,218.5,267.5z"/>
</g>
<g id="g58">
	<path id="path58" class="st1" d="M212.5,271.5c1,1.4,1.3,3.1,1,5c-15.5,0.3-30.8,0-46-1c15,0,30,0,45,0
		C212.5,274.2,212.5,272.8,212.5,271.5z"/>
</g>
<g id="g59">
	<path id="path59" class="st1" d="M170.5,281.5c25.7,0,51.3,0,77,0c0,2.7,0,5.3,0,8c-1-2.1-1.3-4.4-1-7c-7.3-0.2-14.7,0-22,0.5
		c-3.6,0-6.9,0.9-10,2.5c-6.7-1.3-13.5-2-20.5-2c-7.9,0.1-15.8,0.8-23.5,2C170.5,284.2,170.5,282.8,170.5,281.5z"/>
</g>
<g id="g60">
	<path id="path60" class="st11" d="M247.5,289.5c0,1.7,0,3.3,0,5c0.5,7.6-0.7,8-3.5,1c-1.3,1.8-1.8,3.8-1.5,6c1.7,0,3.3,0,5,0
		c0.2,3,0,6-0.5,9c-1.3-2.5-2.5-2.5-3.5,0c-0.9-0.8-1.2-1.8-1-3c-24.5-0.6-48.8,0-73,2c-0.9-1.2-1.3-2.5-1-4c24.7,0.3,49.3,0,74-1
		c-24-1-48-1.3-72-1c0-5.3,0-10.7,0-16c0-0.7,0-1.3,0-2c7.7-1.2,15.6-1.9,23.5-2c7,0,13.8,0.7,20.5,2c3.1-1.6,6.4-2.5,10-2.5
		c7.3-0.5,14.7-0.7,22-0.5C246.2,285.1,246.5,287.4,247.5,289.5z"/>
</g>
<g id="g61">
	<path id="path61" class="st1" d="M170.5,287.5c0,5.3,0,10.7,0,16c24-0.3,48,0,72,1c-24.7,1-49.3,1.3-74,1c-0.3,1.5,0.1,2.8,1,4
		c24.2-2,48.5-2.6,73-2c-0.2,1.2,0.1,2.2,1,3c1-2.5,2.2-2.5,3.5,0c0.5-3,0.7-6,0.5-9c-1.7,0-3.3,0-5,0c-0.3-2.2,0.2-4.2,1.5-6
		c2.8,7,4,6.6,3.5-1c0.7,1.7,1.3,3.3,2,5c0,2.7,0,5.3,0,8c0,1.3,0,2.7,0,4c-27.3,0-54.7,0-82,0c0-2,0-4,0-6
		C167.8,299.2,168.8,293.2,170.5,287.5z"/>
</g>
<g id="g62">
	<path id="path62" class="st1" d="M167.5,305.5c0,2,0,4,0,6c27.3,0,54.7,0,82,0c0-1.3,0-2.7,0-4c1,1.4,1.3,3.1,1,5c-28,0-56,0-84,0
		C166.2,309.9,166.5,307.6,167.5,305.5z"/>
</g>
<g id="g63">
	<path id="path63" class="st0" d="M177.5,411.5c29,0.5,58-0.3,87-2.5c5.8,0,8.1-2.8,7-8.5c-36.6-2-73.3-2.5-110-1.5
		c-3.8,1.3-7.8,1.9-12,2c-0.7,1.7-1.7,3.2-3,4.5c3.6,1.8,7.2,3.1,11,4c-6.6,0.2-12.9-1-19-3.5c-0.8-1-1.2-2.2-1-3.5
		c3.7-1.9,8.4-3,14-3.5c7.6-1,15.3-1.6,23-2c34-0.7,68-0.3,102,1c6.1,1.6,12.1,3.4,18,5.5c0.8,1.8,0.1,3.3-2,4.5
		c-26.2,4.1-52.5,6.2-79,6.5C201.3,414.3,189.3,413.3,177.5,411.5z"/>
</g>
<g id="g64">
	<path id="path64" class="st0" d="M177.5,411.5c-6.7-0.6-13.3-1.2-20-2c-3.8-0.9-7.4-2.2-11-4c1.3-1.3,2.3-2.8,3-4.5
		c4.2-0.1,8.2-0.7,12-2c36.7-1,73.4-0.5,110,1.5c1.1,5.7-1.2,8.5-7,8.5C235.5,411.2,206.5,412,177.5,411.5z"/>
</g>
<g id="g65">
	<path id="path65" class="st0" d="M184.5,400.5c17-0.2,34,0,51,0.5c14.7,2.4,14.7,4.7,0,7c-15.7,0.7-31.3,0.7-47,0
		c-3.7-0.2-7.2-1-10.5-2.5c-0.7-0.8-0.5-1.5,0.5-2C180.6,402.5,182.6,401.5,184.5,400.5z"/>
</g>
</svg>
