<?xml version="1.0" encoding="UTF-8"?>
<!DOCTYPE svg PUBLIC "-//W3C//DTD SVG 1.1//EN" "http://www.w3.org/Graphics/SVG/1.1/DTD/svg11.dtd">
<svg xmlns="http://www.w3.org/2000/svg" version="1.1" width="583px" height="356px" style="shape-rendering:geometricPrecision; text-rendering:geometricPrecision; image-rendering:optimizeQuality; fill-rule:evenodd; clip-rule:evenodd" xmlns:xlink="http://www.w3.org/1999/xlink">
<g><path style="opacity:1" fill="#fefefe" d="M -0.5,-0.5 C 193.833,-0.5 388.167,-0.5 582.5,-0.5C 582.5,118.167 582.5,236.833 582.5,355.5C 388.167,355.5 193.833,355.5 -0.5,355.5C -0.5,236.833 -0.5,118.167 -0.5,-0.5 Z"/></g>
<g><path style="opacity:1" fill="#e6c645" d="M 222.5,82.5 C 248.808,93.6517 275.141,104.818 301.5,116C 284.636,121.945 267.97,128.112 251.5,134.5C 250.508,134.328 249.842,134.662 249.5,135.5C 246.56,136.202 243.727,137.202 241,138.5C 234.976,159.731 229.476,181.064 224.5,202.5C 222.874,162.678 222.207,122.678 222.5,82.5 Z"/></g>
<g><path style="opacity:1" fill="#79522f" d="M 216.5,83.5 C 218.265,82.5386 220.265,82.2053 222.5,82.5C 222.207,122.678 222.874,162.678 224.5,202.5C 223.791,203.404 222.791,203.737 221.5,203.5C 215.31,182.095 208.81,160.761 202,139.5C 201.578,137.574 200.411,136.574 198.5,136.5C 178.752,129.143 159.085,121.809 139.5,114.5C 141.565,114.483 143.565,114.15 145.5,113.5C 144.537,114.363 144.537,115.03 145.5,115.5C 151.385,112.724 157.385,110.224 163.5,108C 164.738,107.31 164.738,106.81 163.5,106.5C 163.842,105.662 164.508,105.328 165.5,105.5C 165.56,106.043 165.893,106.376 166.5,106.5C 178.174,102.29 189.507,97.4564 200.5,92C 200.272,91.6012 199.938,91.4346 199.5,91.5C 203.51,89.975 207.51,88.1416 211.5,86C 210.906,85.5357 210.239,85.369 209.5,85.5C 211.287,84.1826 212.954,84.516 214.5,86.5C 216.385,85.3906 218.385,84.5573 220.5,84C 219.207,83.51 217.873,83.3433 216.5,83.5 Z"/></g>
<g><path style="opacity:1" fill="#3e3a33" d="M 216.5,83.5 C 217.873,83.3433 219.207,83.51 220.5,84C 218.385,84.5573 216.385,85.3906 214.5,86.5C 212.954,84.516 211.287,84.1826 209.5,85.5C 197.158,86.7511 184.824,88.0845 172.5,89.5C 170.833,89.5 169.167,89.5 167.5,89.5C 183.434,85.4739 199.767,83.4739 216.5,83.5 Z"/></g>
<g><path style="opacity:1" fill="#362e21" d="M 363.5,93.5 C 362.167,93.5 361.5,94.1667 361.5,95.5C 325.592,109.198 289.426,122.532 253,135.5C 252.235,135.43 251.735,135.097 251.5,134.5C 267.97,128.112 284.636,121.945 301.5,116C 275.141,104.818 248.808,93.6517 222.5,82.5C 232.893,76.7379 243.56,71.2379 254.5,66C 259.966,63.2654 265.633,61.0987 271.5,59.5C 302.452,70.2593 333.118,81.5926 363.5,93.5 Z"/></g>
<g><path style="opacity:1" fill="#af8f2a" d="M 271.5,61.5 C 301.507,71.2571 331.173,82.0904 360.5,94C 343.298,100.969 325.965,107.636 308.5,114C 306.167,114.667 303.833,114.667 301.5,114C 276.374,103.603 251.374,92.9363 226.5,82C 241.56,75.134 256.56,68.3007 271.5,61.5 Z"/></g>
<g><path style="opacity:1" fill="#edc91a" d="M 68.5,127.5 C 69.675,127.281 70.675,127.614 71.5,128.5C 72.5622,132.286 73.8955,135.953 75.5,139.5C 68.5,140.167 61.5,140.833 54.5,141.5C 47.3134,141.825 40.3134,141.491 33.5,140.5C 36.1522,140.59 38.4855,139.924 40.5,138.5C 42.6287,137.797 44.6287,136.797 46.5,135.5C 49.1522,135.59 51.4855,134.924 53.5,133.5C 58.4282,131.519 63.4282,129.519 68.5,127.5 Z"/></g>
<g><path style="opacity:1" fill="#a0904f" d="M 53.5,133.5 C 51.4855,134.924 49.1522,135.59 46.5,135.5C 48.5145,134.076 50.8478,133.41 53.5,133.5 Z"/></g>
<g><path style="opacity:1" fill="#a4924c" d="M 40.5,138.5 C 38.4855,139.924 36.1522,140.59 33.5,140.5C 35.5145,139.076 37.8478,138.41 40.5,138.5 Z"/></g>
<g><path style="opacity:1" fill="#837220" d="M 75.5,139.5 C 76.0431,139.56 76.3764,139.893 76.5,140.5C 69.1968,141.497 61.8635,141.831 54.5,141.5C 61.5,140.833 68.5,140.167 75.5,139.5 Z"/></g>
<g><path style="opacity:1" fill="#686562" d="M 30.5,141.5 C 45.8333,142.167 61.1667,142.833 76.5,143.5C 60.1633,143.667 43.8299,143.5 27.5,143C 28.2438,141.961 29.2438,141.461 30.5,141.5 Z"/></g>
<g><path style="opacity:1" fill="#c2c1c1" d="M 233.5,347.5 C 278.681,327.781 324.347,309.114 370.5,291.5C 369.361,247.837 368.361,204.17 367.5,160.5C 391.24,154.533 415.073,148.867 439,143.5C 442.523,143.837 446.023,144.337 449.5,145C 471.819,151.823 494.152,158.656 516.5,165.5C 525.069,162.953 533.736,161.12 542.5,160C 538.985,163.682 535.318,167.182 531.5,170.5C 538.875,174.466 546.542,177.966 554.5,181C 532.678,187.94 510.678,194.274 488.5,200C 459.833,235.333 431.167,270.667 402.5,306C 346.302,320.633 289.969,334.466 233.5,347.5 Z"/></g>
<g><path style="opacity:1" fill="#29241d" d="M 367.5,160.5 C 368.361,204.17 369.361,247.837 370.5,291.5C 324.347,309.114 278.681,327.781 233.5,347.5C 228.855,349.004 224.189,350.17 219.5,351C 172.446,331.061 125.28,311.228 78,291.5C 77.8328,241.998 77.3328,192.665 76.5,143.5C 61.1667,142.833 45.8333,142.167 30.5,141.5C 31.391,140.89 32.391,140.557 33.5,140.5C 40.3134,141.491 47.3134,141.825 54.5,141.5C 61.8635,141.831 69.1968,141.497 76.5,140.5C 76.3764,139.893 76.0431,139.56 75.5,139.5C 73.8955,135.953 72.5622,132.286 71.5,128.5C 70.675,127.614 69.675,127.281 68.5,127.5C 69.0906,126.849 69.7573,126.182 70.5,125.5C 65.0348,112.993 59.8681,100.326 55,87.5C 54.2506,86.365 54.4173,85.365 55.5,84.5C 68.8454,88.9426 81.8454,93.9426 94.5,99.5C 82.3067,96.0695 70.3067,92.0695 58.5,87.5C 65.2009,106.734 72.8676,125.567 81.5,144C 125.828,162.843 170.161,181.843 214.5,201C 215.635,201.749 216.635,201.583 217.5,200.5C 210.788,180.264 204.455,159.931 198.5,139.5C 198.5,138.5 198.5,137.5 198.5,136.5C 200.411,136.574 201.578,137.574 202,139.5C 208.81,160.761 215.31,182.095 221.5,203.5C 222.791,203.737 223.791,203.404 224.5,202.5C 229.476,181.064 234.976,159.731 241,138.5C 243.727,137.202 246.56,136.202 249.5,135.5C 248.521,137.02 246.687,138.353 244,139.5C 238.876,159.465 233.376,179.299 227.5,199C 273.212,180.969 318.879,162.469 364.5,143.5C 372.377,125.709 379.377,107.542 385.5,89C 385.167,88.5 384.833,88 384.5,87.5C 376.919,90.4596 369.252,93.1263 361.5,95.5C 361.5,94.1667 362.167,93.5 363.5,93.5C 372.588,90.4583 381.588,87.125 390.5,83.5C 390.833,83.8333 391.167,84.1667 391.5,84.5C 389.774,89.6177 387.774,94.6177 385.5,99.5C 385.833,100.167 386.167,100.833 386.5,101.5C 397.589,105.64 408.589,109.973 419.5,114.5C 402.038,124.133 384.705,133.967 367.5,144C 366.175,149.599 366.175,155.099 367.5,160.5 Z"/></g>
<g><path style="opacity:1" fill="#533b26" d="M 364.5,196.5 C 365.912,221.32 366.579,246.32 366.5,271.5C 364.9,246.685 364.234,221.685 364.5,196.5 Z"/></g>
<g><path style="opacity:1" fill="#ae8356" d="M 79.5,147.5 C 126.397,167.116 173.397,186.449 220.5,205.5C 220.833,253.171 220.5,300.838 219.5,348.5C 173.293,328.767 126.96,309.434 80.5,290.5C 80.1941,242.833 79.8607,195.166 79.5,147.5 Z"/></g>
<g><path style="opacity:1" fill="#79512f" d="M 364.5,196.5 C 364.234,221.685 364.9,246.685 366.5,271.5C 366.5,277.5 366.5,283.5 366.5,289.5C 320.422,307.695 274.422,326.195 228.5,345C 226.888,345.72 225.388,345.554 224,344.5C 223.167,298.496 223.333,252.496 224.5,206.5C 227.174,205.826 228.841,204.159 229.5,201.5C 273.719,182.89 318.052,164.557 362.5,146.5C 364.239,163.115 364.906,179.782 364.5,196.5 Z"/></g>
<g><path style="opacity:1" fill="#382f1d" d="M 122.5,109.5 C 128.251,110.875 133.917,112.542 139.5,114.5C 159.085,121.809 178.752,129.143 198.5,136.5C 198.5,137.5 198.5,138.5 198.5,139.5C 197.733,138.828 197.066,137.995 196.5,137C 171.428,128.618 146.761,119.451 122.5,109.5 Z"/></g>
<g><path style="opacity:1" fill="#473f2f" d="M 108.5,104.5 C 112.149,104.954 115.649,105.954 119,107.5C 121.047,106.391 123.213,105.724 125.5,105.5C 124.4,106.558 123.066,107.392 121.5,108C 122.056,108.383 122.389,108.883 122.5,109.5C 117.362,108.921 112.695,107.254 108.5,104.5 Z"/></g>
<g><path style="opacity:1" fill="#382d1e" d="M 163.5,106.5 C 164.738,106.81 164.738,107.31 163.5,108C 157.385,110.224 151.385,112.724 145.5,115.5C 144.537,115.03 144.537,114.363 145.5,113.5C 151.385,110.863 157.385,108.529 163.5,106.5 Z"/></g>
<g><path style="opacity:1" fill="#ad8e2a" d="M 384.5,103.5 C 386.854,103.838 389.187,104.338 391.5,105C 399.147,108.27 406.814,111.436 414.5,114.5C 400.992,122.088 387.326,129.421 373.5,136.5C 376.176,125.409 379.843,114.409 384.5,103.5 Z"/></g>
<g><path style="opacity:1" fill="#433c30" d="M 94.5,99.5 C 99.6202,100.068 104.287,101.734 108.5,104.5C 103.483,103.607 98.8168,101.94 94.5,99.5 Z"/></g>
<g><path style="opacity:1" fill="#493921" d="M 199.5,91.5 C 199.938,91.4346 200.272,91.6012 200.5,92C 189.507,97.4564 178.174,102.29 166.5,106.5C 165.893,106.376 165.56,106.043 165.5,105.5C 176.688,100.655 188.021,95.9881 199.5,91.5 Z"/></g>
<g><path style="opacity:1" fill="#9e8b3a" d="M 142.5,99.5 C 140.898,101.074 138.898,101.741 136.5,101.5C 138.102,99.9261 140.102,99.2594 142.5,99.5 Z"/></g>
<g><path style="opacity:1" fill="#8f7f43" d="M 151.5,95.5 C 149.815,97.8176 147.481,98.8176 144.5,98.5C 146.426,96.7073 148.759,95.7073 151.5,95.5 Z"/></g>
<g><path style="opacity:1" fill="#907e33" d="M 162.5,91.5 C 160.815,93.8176 158.481,94.8176 155.5,94.5C 157.426,92.7073 159.759,91.7073 162.5,91.5 Z"/></g>
<g><path style="opacity:1" fill="#8b7b35" d="M 167.5,89.5 C 169.167,89.5 170.833,89.5 172.5,89.5C 169.373,90.5808 166.04,91.2474 162.5,91.5C 163.78,90.0687 165.447,89.4021 167.5,89.5 Z"/></g>
<g><path style="opacity:1" fill="#79512f" d="M 249.5,135.5 C 249.842,134.662 250.508,134.328 251.5,134.5C 251.735,135.097 252.235,135.43 253,135.5C 289.426,122.532 325.592,109.198 361.5,95.5C 369.252,93.1263 376.919,90.4596 384.5,87.5C 384.833,88 385.167,88.5 385.5,89C 379.377,107.542 372.377,125.709 364.5,143.5C 318.879,162.469 273.212,180.969 227.5,199C 233.376,179.299 238.876,159.465 244,139.5C 246.687,138.353 248.521,137.02 249.5,135.5 Z"/></g>
<g><path style="opacity:1" fill="#af8f2a" d="M 94.5,99.5 C 98.8168,101.94 103.483,103.607 108.5,104.5C 112.695,107.254 117.362,108.921 122.5,109.5C 146.761,119.451 171.428,128.618 196.5,137C 197.066,137.995 197.733,138.828 198.5,139.5C 204.455,159.931 210.788,180.264 217.5,200.5C 216.635,201.583 215.635,201.749 214.5,201C 170.161,181.843 125.828,162.843 81.5,144C 72.8676,125.567 65.2009,106.734 58.5,87.5C 70.3067,92.0695 82.3067,96.0695 94.5,99.5 Z"/></g>
<g><path style="opacity:1" fill="#ecc819" d="M 209.5,85.5 C 210.239,85.369 210.906,85.5357 211.5,86C 207.51,88.1416 203.51,89.975 199.5,91.5C 188.021,95.9881 176.688,100.655 165.5,105.5C 164.508,105.328 163.842,105.662 163.5,106.5C 157.385,108.529 151.385,110.863 145.5,113.5C 143.565,114.15 141.565,114.483 139.5,114.5C 133.917,112.542 128.251,110.875 122.5,109.5C 122.389,108.883 122.056,108.383 121.5,108C 123.066,107.392 124.4,106.558 125.5,105.5C 129.073,103.879 132.739,102.546 136.5,101.5C 138.898,101.741 140.898,101.074 142.5,99.5C 142.842,98.6618 143.508,98.3284 144.5,98.5C 147.481,98.8176 149.815,97.8176 151.5,95.5C 152.568,94.5655 153.901,94.2322 155.5,94.5C 158.481,94.8176 160.815,93.8176 162.5,91.5C 166.04,91.2474 169.373,90.5808 172.5,89.5C 184.824,88.0845 197.158,86.7511 209.5,85.5 Z"/></g>
</svg>
