<?xml version="1.0" encoding="utf-8"?>
<!-- Generator: Adobe Illustrator 27.9.0, SVG Export Plug-In . SVG Version: 6.00 Build 0)  -->
<svg version="1.1"
	 id="svg70" xmlns:svg="http://www.w3.org/2000/svg" xmlns:sodipodi="http://sodipodi.sourceforge.net/DTD/sodipodi-0.dtd" xmlns:inkscape="http://www.inkscape.org/namespaces/inkscape"
	 xmlns="http://www.w3.org/2000/svg" xmlns:xlink="http://www.w3.org/1999/xlink" x="0px" y="0px" viewBox="0 0 624 692"
	 style="enable-background:new 0 0 624 692;" xml:space="preserve">
<style type="text/css">
	.st0{fill-rule:evenodd;clip-rule:evenodd;fill:#FEFEFE;}
	.st1{fill-rule:evenodd;clip-rule:evenodd;fill:#23261C;}
	.st2{fill-rule:evenodd;clip-rule:evenodd;fill:#6A993C;}
	.st3{fill-rule:evenodd;clip-rule:evenodd;fill:#22351A;}
	.st4{fill-rule:evenodd;clip-rule:evenodd;fill:#132610;}
	.st5{fill-rule:evenodd;clip-rule:evenodd;fill:#808FD1;}
	.st6{fill-rule:evenodd;clip-rule:evenodd;fill:#241D19;}
	.st7{fill-rule:evenodd;clip-rule:evenodd;fill:#6B3510;}
	.st8{fill-rule:evenodd;clip-rule:evenodd;fill:#1F3417;}
	.st9{fill-rule:evenodd;clip-rule:evenodd;fill:#1E1D1F;}
	.st10{fill-rule:evenodd;clip-rule:evenodd;fill:#211E1D;}
	.st11{fill-rule:evenodd;clip-rule:evenodd;fill:#2A1D16;}
	.st12{fill-rule:evenodd;clip-rule:evenodd;fill:#261A14;}
	.st13{fill-rule:evenodd;clip-rule:evenodd;fill:#EBB97B;}
	.st14{fill-rule:evenodd;clip-rule:evenodd;fill:#2E1A15;}
	.st15{fill-rule:evenodd;clip-rule:evenodd;fill:#8D5544;}
	.st16{fill-rule:evenodd;clip-rule:evenodd;fill:#1F1C1C;}
	.st17{fill-rule:evenodd;clip-rule:evenodd;fill:#EDB977;}
	.st18{fill-rule:evenodd;clip-rule:evenodd;fill:#1E1C1E;}
	.st19{fill-rule:evenodd;clip-rule:evenodd;fill:#1D1C1E;}
	.st20{fill-rule:evenodd;clip-rule:evenodd;fill:#F1BC7B;}
	.st21{fill-rule:evenodd;clip-rule:evenodd;fill:#8A5646;}
	.st22{fill-rule:evenodd;clip-rule:evenodd;fill:#1F1C19;}
	.st23{fill-rule:evenodd;clip-rule:evenodd;fill:#F1F1F0;}
	.st24{fill-rule:evenodd;clip-rule:evenodd;fill:#EAB675;}
	.st25{fill-rule:evenodd;clip-rule:evenodd;fill:#83A4D1;}
	.st26{fill-rule:evenodd;clip-rule:evenodd;fill:#1F232F;}
	.st27{fill-rule:evenodd;clip-rule:evenodd;fill:#7E5E56;}
	.st28{fill-rule:evenodd;clip-rule:evenodd;fill:#1E2025;}
	.st29{fill-rule:evenodd;clip-rule:evenodd;fill:#221C18;}
	.st30{fill-rule:evenodd;clip-rule:evenodd;fill:#251B15;}
	.st31{fill-rule:evenodd;clip-rule:evenodd;fill:#ECBA7A;}
	.st32{fill-rule:evenodd;clip-rule:evenodd;fill:#EBB777;}
	.st33{fill-rule:evenodd;clip-rule:evenodd;fill:#E6B479;}
	.st34{fill-rule:evenodd;clip-rule:evenodd;fill:#EAB777;}
	.st35{fill-rule:evenodd;clip-rule:evenodd;fill:#E4B280;}
	.st36{fill-rule:evenodd;clip-rule:evenodd;fill:#2C1B14;}
	.st37{fill-rule:evenodd;clip-rule:evenodd;fill:#2A3143;}
	.st38{fill-rule:evenodd;clip-rule:evenodd;fill:#1D2026;}
	.st39{fill-rule:evenodd;clip-rule:evenodd;fill:#242223;}
	.st40{fill-rule:evenodd;clip-rule:evenodd;fill:#414667;}
	.st41{fill-rule:evenodd;clip-rule:evenodd;fill:#221F1D;}
	.st42{fill-rule:evenodd;clip-rule:evenodd;fill:#1D1F21;}
	.st43{fill-rule:evenodd;clip-rule:evenodd;fill:#202229;}
	.st44{fill-rule:evenodd;clip-rule:evenodd;fill:#5C677B;}
</style>
<sodipodi:namedview  bordercolor="#999999" borderopacity="1" id="namedview70" inkscape:current-layer="svg70" inkscape:cx="70.44165" inkscape:cy="384.9133" inkscape:deskcolor="#d1d1d1" inkscape:pagecheckerboard="0" inkscape:pageopacity="0" inkscape:showpageshadow="2" inkscape:window-height="1003" inkscape:window-maximized="1" inkscape:window-width="1920" inkscape:window-x="0" inkscape:window-y="0" inkscape:zoom="0.79498421" pagecolor="#ffffff">
	</sodipodi:namedview>
<g id="g1">
	<path id="path1" class="st0" d="M-0.5-0.5c208,0,416,0,624,0c0,230.7,0,461.3,0,692c-208,0-416,0-624,0
		C-0.5,460.8-0.5,230.2-0.5-0.5z"/>
</g>
<g id="g2">
	<path id="path2" class="st1" d="M575.5,34.5c0.1-0.7,0-1.4-0.5-2c-1.6,4.5-4.1,8.2-7.5,11c4.9-8.4,9.2-17.1,13-26
		c2.1-2.7,4.1-5.5,6-8.5c-2.4,0-4.8,0.7-7,2c-7.7,0.3-15.3,0.7-23,1c-1.2,0.2-2.2,0.7-3,1.5c-2.9,0.7-4.9,2.4-6,5
		c-4,4.5-5.7,9.8-5,16c-0.3,0-0.7,0-1,0c-0.3-0.8-1-1.2-2-1c0.3-0.8,0.8-1.5,1.5-2c-1-8.3,1.8-14.8,8.5-19.5c9.9-1.9,19.9-3.2,30-4
		c5-2.1,10-3.8,15-5c-2.9,2.5-5.4,5.4-7.5,8.5C583.1,19.3,579.3,26.9,575.5,34.5z"/>
</g>
<g id="g3">
	<path id="path3" class="st2" d="M561.5,22.5c-0.3,0.8-1,1.2-2,1C560.1,16.5,560.8,16.2,561.5,22.5z"/>
</g>
<g id="g4">
	<path id="path4" class="st2" d="M580.5,17.5c-0.1-1.4,0.3-2.8,1-4c-1.7-1.3-3.3-1.3-5,0c1.1,1.4,1.1,2.7,0,4c-1.7,0.5-3.4,1.2-5,2
		c1.2,0.8,2.6,1.3,4,1.5c-2.6,0.2-5,1-7,2.5c0.5,0.7,1.2,1.2,2,1.5c-2.1,0.7-4.1,0.5-6-0.5c-2.7,0.7-4.4,2.4-5,5c-0.8-0.3-1.2-1-1-2
		c0.1-1.1,0.4-2.1,1-3c0-0.3,0-0.7,0-1c1,0.2,1.7-0.2,2-1c2.7-1.2,5.3-2.3,8-3.5c-2.3-1.3-2.3-2.8,0-4.5c1.1,1.5,2.4,2.3,4,2.5
		c0.8-1,1.2-2.2,1-3.5c-7-1.2-14-1.2-21,0c0.8-0.8,1.8-1.3,3-1.5c7.7-0.3,15.3-0.7,23-1c2.2-1.3,4.6-2,7-2
		C584.6,12,582.6,14.8,580.5,17.5z"/>
</g>
<g id="g5">
	<path id="path5" class="st2" d="M561.5,22.5c-0.7-6.3-1.4-6-2,1c0,0.3,0,0.7,0,1c-1.7-1.2-2.4-0.5-2,2c-1,0-2,0-3,0c0-3,0-6,0-9
		c-1,0-2,0-3,0c-0.6,4.7-1.4,9.4-2.5,14c-0.4-2.4-0.4-4.7,0-7c-2,1.9-3,4.2-3,7c-0.3,0.3-0.7,0.7-1,1c-0.3-4.8,0.5-9.5,2.5-14
		c1.1-2.6,3.1-4.3,6-5c7-1.2,14-1.2,21,0c0.2,1.3-0.2,2.5-1,3.5c-1.6-0.2-2.9-1-4-2.5c-2.3,1.7-2.3,3.2,0,4.5
		C566.8,20.2,564.2,21.3,561.5,22.5z"/>
</g>
<g id="g6">
	<path id="path6" class="st3" d="M558.5,27.5c-0.2,1,0.2,1.7,1,2c2.5-0.1,3.8,0.5,4,2c-2.2,0.1-4.4-0.2-6.5-1
		c-1.7,1.2-3.6,2.2-5.5,3C553.2,30.8,555.6,28.8,558.5,27.5z"/>
</g>
<g id="g7">
	<path id="path7" class="st2" d="M559.5,24.5c-0.6,0.9-0.9,1.9-1,3c-2.9,1.3-5.3,3.3-7,6c1.9-0.8,3.8-1.8,5.5-3
		c2.1,0.8,4.3,1.1,6.5,1c-2.7,0.6-5.4,1.6-8,3c1.9,1.4,3.9,2.6,6,3.5c-4,0.2-8,0.7-12,1.5c1.2,0.8,2.6,1.3,4,1.5
		c-2.3,0.8-4.3,0.3-6-1.5c-0.7,1.9-0.7,3.9,0,6c-2.1-2.6-3.4-5.3-4-8c0.2-1.3-0.1-2.3-1-3c-0.7-6.2,1-11.5,5-16
		c-2,4.5-2.8,9.2-2.5,14c0.3-0.3,0.7-0.7,1-1c0-2.8,1-5.1,3-7c-0.4,2.3-0.4,4.6,0,7c1.1-4.6,1.9-9.3,2.5-14c1,0,2,0,3,0c0,3,0,6,0,9
		c1,0,2,0,3,0C557.1,24,557.8,23.3,559.5,24.5z"/>
</g>
<g id="g8">
	<path id="path8" class="st4" d="M552.5,19.5c1.3,2.9,1.3,5.9,0,9C551.9,25.6,551.9,22.6,552.5,19.5z"/>
</g>
<g id="g9">
	<path id="path9" class="st2" d="M580.5,17.5c-3.8,8.9-8.1,17.6-13,26c-4.2,5-9.6,6.8-16,5.5c-1.8-0.7-3.2-1.8-4-3.5
		c-0.7-2.1-0.7-4.1,0-6c1.7,1.8,3.7,2.3,6,1.5c-1.4-0.2-2.8-0.7-4-1.5c4-0.8,8-1.3,12-1.5c-2.1-0.9-4.1-2.1-6-3.5
		c2.6-1.4,5.3-2.4,8-3c-0.2-1.5-1.5-2.1-4-2c0.6-2.6,2.3-4.3,5-5c1.9,1,3.9,1.2,6,0.5c-0.8-0.3-1.5-0.8-2-1.5c2-1.5,4.4-2.3,7-2.5
		c-1.4-0.2-2.8-0.7-4-1.5c1.6-0.8,3.3-1.5,5-2c1.1-1.3,1.1-2.6,0-4c1.7-1.3,3.3-1.3,5,0C580.8,14.7,580.4,16.1,580.5,17.5z"/>
</g>
<g id="g10">
	<path id="path10" class="st5" d="M412.5,90.5c8.5,10.5,10.7,22.2,6.5,35c-4.3,5.3-9.8,7-16.5,5c-1-5.3-1.5-10.6-1.5-16
		c1.8-1.9,3.9-2.4,6.5-1.5c0.7,1.7,1.2,3.6,1.5,5.5c1.9-3.4,2.4-6.9,1.5-10.5c-2.1-0.2-4.1-0.7-6-1.5c0.3-1.7,1.3-2.7,3-3
		c2.2,0.7,4.1,2.1,5.5,4c1.9-3,1.7-6-0.5-9c-5.5-3.2-9.6-1.9-12.5,4c-1.9,3.2-2.8,6.7-2.5,10.5c2.2,8,3.5,16.2,4,24.5
		c-0.4,9.9-2.4,19.4-6,28.5c-4-0.2-8-0.2-12,0c12.7,1.5,24.7,5.2,36,11c2.2,2.2,4.3,4.3,6.5,6.5c0.8,1.9,0.6,3.6-0.5,5
		c-1.1-1.1-2.4-1.9-4-2.5c-13-2.5-14.5-0.3-4.5,6.5c2.3,2.7,4.2,5.7,5.5,9c-4.1-0.1-8.4,0.1-13,0.5c-0.3,0.3-0.7,0.7-1,1
		c1.7,0.8,3.4,1.7,5,2.5c4.3,3.3,7,7.6,8,13c-0.3,0.7-0.7,1.3-1,2c-4.6-1.1-9.3-1.3-14-0.5c-2.5,0.4-4.5,1.6-6,3.5
		c-5.9,3.3-11,7.7-15.5,13c-6,8-12,16-18,24c-1.1,1.6-2.6,2.6-4.5,3c-3.4-0.1-6.7-0.4-10-1c3.8-10.3,10.1-18.8,19-25.5
		c-1.4-5.8-5.1-9.1-11-10c6.8-7,15.2-10.8,25-11.5c-5.8-8.9-13.8-14.9-24-18c3.9-5.8,9.3-10,16-12.5c-15.4-10.2-32.4-15.7-51-16.5
		c-3.1-1-6.5-1.3-10-1c0.4-3.1,0.9-6.1,1.5-9c-7.1-5.2-15.1-7.5-24-7c-9.3,0.7-18.4,2.1-27.5,4c0,2.7,0,5.3,0,8
		c-8.8-0.1-17.2,1.5-25,5c-2-0.2-4,0-6,0.5c0.6,0.4,0.9,0.9,1,1.5c-2.7,1.3-5,3.2-7,5.5c5.6,0.6,10.6,2.6,15,6
		c-0.6,0.4-0.9,0.9-1,1.5c-6.8,1.6-12.6,5-17.5,10c-1,1.5-1.5,3.2-1.5,5c6.6-0.1,12.3,2.1,17,6.5c-7,1.7-11.3,6-13,13
		c7.7,6.1,15.2,12.6,22.5,19.5c5.9,7.3,8.8,15.6,8.5,25c-0.9,14.3-3.4,28.3-7.5,42c-9.9,30.8-20,61.5-30.5,92c-5,11.6-9,23.6-12,36
		c-9.1,24.9-15.6,50.5-19.5,77c-0.9,13.4-0.5,26.7,1,40c1.5,7.4,4.4,14,8.5,20c1.1,1.6,2.5,3.1,4,4.5c-0.2,0.5-0.3,1-0.5,1.5
		c-1.3-1.3-2.5-1.3-3.5,0c-6.1-8.5-12.4-16.8-19-25c-3.7-5.9-6.5-12.2-8.5-19c-7.6-31.1-7-62.1,2-93c14.2-50.8,36.2-97.8,66-141
		c3.1-5.5,5.6-11.1,7.5-17c3.4-22-4.1-39.7-22.5-53c-0.6-0.9-0.5-1.8,0.5-2.5c-3.5-0.7-6.4,0.5-8.5,3.5c-2.6-9.1-1.4-17.8,3.5-26
		c-4.9-1.7-9.4-1.1-13.5,2c-0.8-3.6-0.2-7,2-10c2.8-2.8,5.7-5.7,8.5-8.5c-5.3-2.1-10.5-1.6-15.5,1.5c-0.4-2.3,0.2-4.3,2-6
		c2.7-1.9,5.2-3.9,7.5-6c3.4-1.6,6.8-3.4,10-5.5c-5.3-1.5-10.7-2-16-1.5c5.6-6.5,12.6-11,21-13.5c7.2-2.1,14.5-3.4,22-4
		c-2-0.5-4-0.7-6-0.5c3.3-16.5,10.3-31.4,21-44.5c-0.3-0.3-0.7-0.7-1-1c5.4-8.8,3.1-13.2-7-13c-3.8,1.6-5.8,4.5-6,8.5
		c2.1,0,3.9-0.6,5.5-2c1.1,0.1,1.9,0.6,2.5,1.5c-5.6,0.3-7.8,3.1-6.5,8.5c2.7-5.2,4.8-5.2,6.5,0c-0.2,1-0.3,2-0.5,3
		c-2.2,2.4-4.3,4.7-6.5,7c-2.6-0.8-4.5-2.5-5.5-5c-0.5-14.5,6-24.7,19.5-30.5c5.6-1.6,10.1-0.1,13.5,4.5c0.5,1.5,0,2.7-1.5,3.5
		c7.2-3.3,14.5-6.6,22-10c18.3-7.4,37-8.4,56-3c11.6,4.4,22.6,9.9,33,16.5C394.5,84.2,402.8,82.9,412.5,90.5z"/>
</g>
<g id="g11">
	<path id="path11" class="st6" d="M539.5,33.5c1-0.2,1.7,0.2,2,1c-3.6,2.6-7.6,4.6-12,6c-1.5,2.2-2.3,4.6-2.5,7
		c4.6-3.6,9.8-5.9,15.5-7c-0.2-1.3,0.1-2.3,1-3c0.6,2.7,1.9,5.4,4,8c0.8,1.7,2.2,2.8,4,3.5c6.4,1.3,11.8-0.5,16-5.5
		c3.4-2.8,5.9-6.5,7.5-11c0.5,0.6,0.6,1.3,0.5,2c-2.6,9-8.3,15.2-17,18.5c-3.6,0.2-6.9-0.8-10-3c-2.1-2.6-4.2-5.1-6.5-7.5
		c-13.5,2.3-22,10-25.5,23c0.1,3.4,1.9,4.8,5.5,4c15.8-2,31.6-3.2,47.5-3.5c7.3,2.9,12.8,7.7,16.5,14.5c12.7,25.5,15.7,52.2,9,80
		c-2.6,9-7.1,16.8-13.5,23.5c-54.7,1.9-108.3,10.3-161,25c3.6,3.6,5.6,7.9,6,13c-5.7,0.3-11.4,0.8-17,1.5c-3,0-6,0-9,0
		c1.5-1.9,3.5-3.1,6-3.5c4.7-0.8,9.4-0.6,14,0.5c0.3-0.7,0.7-1.3,1-2c-1-5.4-3.7-9.7-8-13c-1.6-0.8-3.3-1.7-5-2.5
		c0.3-0.3,0.7-0.7,1-1c4.6-0.4,8.9-0.6,13-0.5c-1.3-3.3-3.2-6.3-5.5-9c-10-6.8-8.5-9,4.5-6.5c1.6,0.6,2.9,1.4,4,2.5
		c1.1-1.4,1.3-3.1,0.5-5c-2.2-2.2-4.3-4.3-6.5-6.5c-11.3-5.8-23.3-9.5-36-11c4-0.2,8-0.2,12,0c3.6-9.1,5.6-18.6,6-28.5
		c-0.5-8.3-1.8-16.5-4-24.5c-0.3-3.8,0.6-7.3,2.5-10.5c2.9-5.9,7-7.2,12.5-4c2.2,3,2.4,6,0.5,9c-1.4-1.9-3.3-3.3-5.5-4
		c-1.7,0.3-2.7,1.3-3,3c1.9,0.8,3.9,1.3,6,1.5c0.9,3.6,0.4,7.1-1.5,10.5c-0.3-1.9-0.8-3.8-1.5-5.5c-2.6-0.9-4.7-0.4-6.5,1.5
		c0,5.4,0.5,10.7,1.5,16c6.7,2,12.2,0.3,16.5-5c4.2-12.8,2-24.5-6.5-35c-0.9-1.6-1.4-3.3-1.5-5c2.6,1.3,5.1,1.3,7.5,0
		c21.2-4.5,42.5-8.2,64-11c-2-7.1-1.2-13.7,2.5-20c8-7,15.7-14.4,23-22c3-6.4,5.5-12.9,7.5-19.5c6.7-3.4,13.2-3.3,19.5,0.5
		c0.7,4,0.7,8,0,12c-1.2,3.3-2,6.6-2.5,10C534.9,35.1,537.3,34.5,539.5,33.5z"/>
</g>
<g id="g12">
	<path id="path12" class="st7" d="M476.5,78.5c2,0,4,0,6,0c-0.2,4.8-1.9,8.9-5,12.5c-16.7,2.7-33.4,5.9-50,9.5
		c-0.9-0.1-1.8-0.4-2.5-1c-1.5-3-3-6-4.5-9c0.5-0.7,1.2-1.2,2-1.5C440.6,85.5,458.6,82,476.5,78.5z"/>
</g>
<g id="g13">
	<path id="path13" class="st7" d="M541.5,34.5c0.3,0,0.7,0,1,0c0.9,0.7,1.2,1.7,1,3c-0.9,0.7-1.2,1.7-1,3c-5.7,1.1-10.9,3.4-15.5,7
		c0.2-2.4,1-4.8,2.5-7C533.9,39.1,537.9,37.1,541.5,34.5z"/>
</g>
<g id="g14">
	<path id="path14" class="st8" d="M551.5,33.5c1.3,2,3.3,3.1,6,3.5c-3.2,0.9-6.2,0.6-9-1C549.4,35,550.4,34.1,551.5,33.5z"/>
</g>
<g id="g15">
	<path id="path15" class="st9" d="M276.5,102.5c2.5-0.4,4.7,0.3,6.5,2c0.8,3.1,0.7,6.1-0.5,9c-1.2-1.5-2.2-3.2-3-5
		c-0.9-0.5-1.9-0.8-3-1c-5.4,1.7-10.4,3.9-15,6.5C266.2,109.7,271.2,105.8,276.5,102.5z"/>
</g>
<g id="g16">
	<path id="path16" class="st10" d="M418.5,85.5c-2.4,1.3-4.9,1.3-7.5,0c0.1,1.7,0.6,3.4,1.5,5c-9.7-7.6-18-6.3-25,4
		c-10.4-6.6-21.4-12.1-33-16.5c-19-5.4-37.7-4.4-56,3c-7.5,3.4-14.8,6.7-22,10c1.5-0.8,2-2,1.5-3.5c-3.4-4.6-7.9-6.1-13.5-4.5
		c-13.5,5.8-20,16-19.5,30.5c1,2.5,2.9,4.2,5.5,5c2.2-2.3,4.3-4.6,6.5-7c0.2-1,0.3-2,0.5-3c-1.7-5.2-3.8-5.2-6.5,0
		c-1.3-5.4,0.9-8.2,6.5-8.5c-0.6-0.9-1.4-1.4-2.5-1.5c-1.6,1.4-3.4,2-5.5,2c0.2-4,2.2-6.9,6-8.5c10.1-0.2,12.4,4.2,7,13
		c0.3,0.3,0.7,0.7,1,1c-10.7,13.1-17.7,28-21,44.5c2-0.2,4,0,6,0.5c-7.5,0.6-14.8,1.9-22,4c-8.4,2.5-15.4,7-21,13.5
		c5.3-0.5,10.7,0,16,1.5c-3.2,2.1-6.6,3.9-10,5.5c0-0.3,0-0.7,0-1c0.4-0.7,1.1-1.2,2-1.5c-1.7-1-3.5-1.5-5.5-1.5
		c-4.6,0.9-9.1,1.8-13.5,2.5c4.3-7,10-12.7,17-17c-4.3-0.2-8.5-1.1-12.5-2.5c-1.7,1.1-3.2,2.4-4.5,4c-2,0-4,0-6,0
		c8.9-12.6,7.6-24.1-4-34.5c-2.7-1.8-5.7-2.8-9-3c12.8-0.9,21,5,24.5,17.5c1.7-7.6,0.2-14.5-4.5-20.5c0.7-0.7,1.3-0.7,2,0
		c8.6,9.8,9.3,20.1,2,31c6.7,6.4,12.9,5.9,18.5-1.5c5.5-10.2,5.8-20.5,1-31c-1.9-2.6-4.4-4.4-7.5-5.5c-23.5-0.7-44.8,5.6-64,19
		c-4.7,3.9-6.7,8.7-6,14.5c5.1-2.3,10.4-3.6,16-4c-0.5,1-1.1,1.8-2,2.5c-5.8,0.6-11.5,1.8-17,3.5c-0.3-0.3-0.7-0.7-1-1
		c2.5-2.9,2.5-5.6,0-8c6.9-10,16.2-16.9,28-20.5c13.9-4.9,28.3-8.1,43-9.5c9.8,0.4,15.4,5.4,17,15c6.5-0.5,12.8-1.6,19-3.5
		c-4.7-4.9-6.2-10.8-4.5-17.5c4.6-11.6,12.8-19.4,24.5-23.5c7.9-1.2,13.9,1.6,18,8.5c30.1-18.5,60.7-19.7,92-3.5
		c3.6,2.4,7.1,4.9,10.5,7.5c5.6-7.7,13.1-10.9,22.5-9.5C411.1,82.8,414.8,84.3,418.5,85.5z"/>
</g>
<g id="g17">
	<path id="path17" class="st7" d="M515.5,113.5c23-2,46-3.4,69-4c3,0.3,6,0.7,9,1c3.1,16.3,2.1,32.4-3,48c-5.5-1.2-11.2-1.3-17-0.5
		c-32.4,2.6-64.4,7.6-96,15c23.9-3.5,47.9-6.9,72-10c13.3-0.5,26.7-0.7,40-0.5c-2.3,7.4-6.6,13.2-13,17.5c-22.8-0.1-45.5,1.9-68,6
		c-26.1,5.2-52.1,10.7-78,16.5c-2.9-4.3-6.3-8.5-10-12.5c-1.6-0.9-3.3-1.5-5-2c3.4-0.5,6.7-0.4,10,0.5c1.3,1.4,2.9,2.1,5,2
		c-1.8-9.3-7.1-15.8-16-19.5c45.6-10.9,91.6-19.9,138-27c-49.2,5.5-98.1,13.7-146.5,24.5c-1.4-0.6-2.9-1-4.5-1
		c1.1-11.3,1.8-22.6,2-34c12.9,1.3,20.8-4.4,23.5-17c0.3-3.8,0.5-7.5,0.5-11c14.3-3.3,28.6-6.2,43-8.5c-4.8,2.9-9.8,5.6-15,8
		c11.7-1.6,21.5-6.7,29.5-15.5c2.6-6.6,3.1-13.5,1.5-20.5c-0.5-5.6,0.6-10.7,3.5-15.5c7.3-6.3,14.3-13,21-20c3.5-4.7,5.1-10.1,5-16
		c0.5-1.4,1.3-2.6,2.5-3.5c4.9-2.4,9.4-1.9,13.5,1.5c0.3,7.3-1,14.3-4,21c-4.4,8.5-9.1,16.8-14,25c-0.7,4.7-0.6,9.4,0.5,14
		c-1.7,6.6-3.8,13-6.5,19c5.3,1.3,10.4,0.8,15.5-1.5c-4.2-0.2-8.2-1-12-2.5c19.9-3.2,39.9-5.7,60-7.5c2.4-0.5,4.7-1.2,7-2
		c-20.9,0.4-41.8,2.2-62.5,5.5c-0.5-0.3-1-0.7-1.5-1c2.3-3.7,3.7-7.7,4-12c13-1.4,26-2.4,39-3c10.7-0.1,19.2,4.3,25.5,13
		c4.6,6.7,7.8,14,9.5,22C566.5,106.7,540.9,109.4,515.5,113.5z"/>
</g>
<g id="g18">
	<path id="path18" class="st11" d="M500.5,55.5c0.5,0.1,0.9,0.4,1,1c-2.4,4.2-2.6,8.5-0.5,13c1.7,10.3,0,19.9-5,29
		c1.6-7,2.5-14.2,2.5-21.5c-0.1-4.7-0.4-9.4-1-14C497.8,60.2,498.8,57.7,500.5,55.5z"/>
</g>
<g id="g19">
	<path id="path19" class="st12" d="M510.5,50.5c0.6,0.2,0.9,0.7,1,1.5c-1.7,3.3-2.7,6.8-3,10.5c1.8,6.9,2.3,13.9,1.5,21
		c-0.6,3.1-1.9,5.8-4,8c1.8-9.4,2-18.9,0.5-28.5C506.7,58.5,508.1,54.3,510.5,50.5z"/>
</g>
<g id="g20">
	<path id="path20" class="st13" d="M510.5,38.5c1,0.4,1.2,1.1,0.5,2c-2,2.7-4,5.3-6,8c-4.4,3.4-8.4,7-12,11c-1,3.6-1.5,7.3-1.5,11
		c0.6,6,1.1,12,1.5,18c-1.3,5.3-4.5,8.5-9.5,9.5c3.3-2.6,5.8-5.8,7.5-9.5c-0.4-9.7-0.7-19.3-1-29c6.1-5.4,12.1-11.1,18-17
		C508.7,41,509.5,39.7,510.5,38.5z"/>
</g>
<g id="g21">
	<path id="path21" class="st14" d="M529.5,18.5c1.4,2,1.1,3.8-1,5.5c-2.7,0.7-5.3,0.7-8,0c-1.8-0.2-3.1-1-4-2.5
		c1.3-0.9,2.6-0.7,4,0.5c2.7,0.7,5.3,0.7,8,0C529.3,21,529.7,19.8,529.5,18.5z"/>
</g>
<g id="g22">
	<path id="path22" class="st15" d="M529.5,18.5c-0.8,0.9-1.6,1.9-2.5,3c-0.2-0.3-0.3-0.7-0.5-1c0.8-2.4,1.1-4.8,1-7
		C529.2,14.7,529.9,16.3,529.5,18.5z"/>
</g>
<g id="g23">
	<path id="path23" class="st15" d="M515.5,113.5c-8.1,1.7-16.5,2.6-25,2.5C498.6,113.8,506.9,113,515.5,113.5z"/>
</g>
<g id="g24">
	<path id="path24" class="st16" d="M354.5,112.5c4.1-0.4,8.1,0.1,12,1.5c1.1,2.1,1.3,4.2,0.5,6.5c-1.2-3.3-3.6-4.9-7-5
		c-3.9,0.9-7.8,1.7-11.5,2.5c-1.3-1-1.3-2,0-3C350.7,114.4,352.7,113.6,354.5,112.5z"/>
</g>
<g id="g25">
	<path id="path25" class="st5" d="M371.5,94.5c8.6,4.6,13.6,11.6,15,21c-0.4,7.8-3,8.8-8,3c-3.7-10.3-8.2-19.9-13.5-29
		C367.9,90.2,370.1,91.9,371.5,94.5z"/>
</g>
<g id="g26">
	<path id="path26" class="st5" d="M371.5,94.5c2.6,4.1,5.7,7.7,9.5,11c2.9,3.5,3.7,7.4,2.5,11.5c-1.5,0.5-2.7,0-3.5-1.5
		c-2.9-7.2-6.4-14.1-10.5-20.5C370.1,94.5,370.8,94.4,371.5,94.5z"/>
</g>
<g id="g27">
	<path id="path27" class="st5" d="M188.5,158.5c-5.2,4.8-10.7,5.2-16.5,1c-2.7-4.7-5.3-9.3-8-14c-1.8-2.3-3.9-4-6.5-5
		c-5.6,0.4-10.9,1.7-16,4c-0.7-5.8,1.3-10.6,6-14.5c19.2-13.4,40.5-19.7,64-19c3.1,1.1,5.6,2.9,7.5,5.5c4.8,10.5,4.5,20.8-1,31
		c-5.6,7.4-11.8,7.9-18.5,1.5c7.3-10.9,6.6-21.2-2-31c-0.7-0.7-1.3-0.7-2,0c4.7,6,6.2,12.9,4.5,20.5c-3.5-12.5-11.7-18.4-24.5-17.5
		c3.3,0.2,6.3,1.2,9,3C196.1,134.4,197.4,145.9,188.5,158.5z"/>
</g>
<g id="g28">
	<path id="path28" class="st7" d="M237.5,142.5c-4,0.7-8,1.3-12,2c1.6-6.2,2.3-12.5,2-19c7-1.5,14-2.7,21-3.5
		C243.4,128,239.7,134.9,237.5,142.5z"/>
</g>
<g id="g29">
	<path id="path29" class="st17" d="M515.5,125.5c12.7-0.2,25.4,0.3,38,1.5c-24.4,1.6-48.7,4-73,7c-22,3.4-44,6.4-66,9
		C448.2,136.3,481.8,130.4,515.5,125.5z"/>
</g>
<g id="g30">
	<path id="path30" class="st18" d="M266.5,129.5c10-0.4,15.5,4.2,16.5,14c-9-12-18.2-12-27.5,0c-0.8,0.9-1.8,1.2-3,1
		c0.1-2.4,1.1-4.4,3-6C258.9,135.1,262.6,132.1,266.5,129.5z"/>
</g>
<g id="g31">
	<path id="path31" class="st19" d="M340.5,134.5c3.8-0.2,7.4,0.3,11,1.5c5.1,3.9,8.8,8.7,11,14.5c-3.7-2.2-7-5-10-8.5
		c-5-3.3-10-3.3-15,0c-1.5,1.7-3.2,3.2-5,4.5c-0.9-1.3-0.7-2.6,0.5-4C335,139.3,337.5,136.6,340.5,134.5z"/>
</g>
<g id="g32">
	<path id="path32" class="st20" d="M237.5,142.5c-0.6,0.9-0.9,1.9-1,3c-4.4,0.7-8.8,1.7-13,3c0.2-1.7,0.8-3,2-4
		C229.5,143.8,233.5,143.2,237.5,142.5z"/>
</g>
<g id="g33">
	<path id="path33" class="st21" d="M236.5,145.5c-0.8,1.5-1.1,3.2-1,5c-5.1,0-10.1,0.5-15,1.5c1.1-1.1,2.1-2.3,3-3.5
		C227.7,147.2,232.1,146.2,236.5,145.5z"/>
</g>
<g id="g34">
	<path id="path34" class="st22" d="M326.5,168.5c-0.7,0-1.3,0-2,0c-3.3-0.3-6.4,0-9.5,1c-2.9,8.5-7.4,16-13.5,22.5
		c-3.2,2.1-6.5,3.9-10,5.5c-2.8,8.1-3.7,16.4-2.5,25c5.4,13.3,14.9,17.4,28.5,12.5c11-9.2,16.8-21.1,17.5-35.5
		c2.3,16.5-3.2,29.7-16.5,39.5c-13.2,5.2-23.9,2-32-9.5c-9.9,10.2-20.1,10.5-30.5,1c-2.2-3-2.8-6.4-2-10
		c5.5,12.7,14.3,15.9,26.5,9.5c2.4-1.7,3.7-4.1,4-7c-0.6-9.5-1.3-19-2-28.5c-11.6-6.6-16.9-16.6-16-30c-8.5,0.6-16.8,1.9-25,4
		c7.8-3.5,16.2-5.1,25-5c0-2.7,0-5.3,0-8c9.1-1.9,18.2-3.3,27.5-4c8.9-0.5,16.9,1.8,24,7c-0.6,2.9-1.1,5.9-1.5,9
		C320,167.2,323.4,167.5,326.5,168.5z"/>
</g>
<g id="g35">
	<path id="path35" class="st23" d="M273.5,156.5c2.4-0.2,4.7,0,7,0.5c-4.5,3.3-8,7.4-10.5,12.5c-0.7-3-0.7-6,0-9
		C270.7,158.6,271.9,157.3,273.5,156.5z"/>
</g>
<g id="g36">
	<path id="path36" class="st24" d="M590.5,158.5c0.1,1.5-0.3,2.8-1,4c-13.3-0.2-26.7,0-40,0.5c-24.1,3.1-48.1,6.5-72,10
		c31.6-7.4,63.6-12.4,96-15C579.3,157.2,585,157.3,590.5,158.5z"/>
</g>
<g id="g37">
	<path id="path37" class="st25" d="M324.5,168.5c17.1,1.8,32.8,7.6,47,17.5c-6.6,0.8-10.9,4.3-13,10.5c6.2,4.1,12.6,8.3,19,12.5
		c1.3,2,2.7,4,4,6c-10.7,0.4-19.4,4.7-26,13c5.9,1.2,9.9,4.5,12,10c-8,6.2-14,14.1-18,23.5c-14.4,8.5-24.9,20.5-31.5,36
		c-15.9,47.1-25.9,95.4-30,145c-3.7,41.7,2,82,17,121c8.2,17.7,18.3,34,30.5,49c-3.7,0-7.3,0-11,0c-21.7,0.7-43-1.6-64-7
		c-23.3-5.1-43.6-15.1-61-30c1-1.3,2.2-1.3,3.5,0c0.2-0.5,0.3-1,0.5-1.5c-1.5-1.4-2.9-2.9-4-4.5c-6.8-18-9.3-36.7-7.5-56
		c1.7-12.4,3.7-24.7,6-37c3.7-14.7,7.6-29.4,11.5-44c4.6-11.7,8.6-23.7,12-36c10.8-27.6,21-55.6,30.5-84c5.6-17.2,9.1-34.9,10.5-53
		c-1.9-14-8.6-25.2-20-33.5c-3.5-2.2-7-4.3-10.5-6.5c-0.7-1.3-0.7-2.7,0-4c3.4-4.3,7.6-7.6,12.5-10c-4.2-5.5-9.9-8.3-17-8.5
		c1.7-2.3,3.3-4.7,5-7c3.7-2.2,7.4-4.4,11-6.5c3.7-0.2,4.3-1.4,2-3.5c-3.6-2.6-7.6-4.2-12-5c1.7-2,3.7-3.7,6-5
		c-1.1-0.5-2.1-0.3-3,0.5c-0.1-0.6-0.4-1.1-1-1.5c2-0.5,4-0.7,6-0.5c8.2-2.1,16.5-3.4,25-4c-0.9,13.4,4.4,23.4,16,30
		c0.7,9.5,1.4,19,2,28.5c-0.3,2.9-1.6,5.3-4,7c-12.2,6.4-21,3.2-26.5-9.5c-0.8,3.6-0.2,7,2,10c10.4,9.5,20.6,9.2,30.5-1
		c8.1,11.5,18.8,14.7,32,9.5c13.3-9.8,18.8-23,16.5-39.5c-0.7,14.4-6.5,26.3-17.5,35.5c-13.6,4.9-23.1,0.8-28.5-12.5
		c-1.2-8.6-0.3-16.9,2.5-25c3.5-1.6,6.8-3.4,10-5.5c6.1-6.5,10.6-14,13.5-22.5C318.1,168.5,321.2,168.2,324.5,168.5z"/>
</g>
<g id="g38">
	<path id="path38" class="st26" d="M243.5,183.5c0.1-0.6,0.4-1.1,1-1.5c-4.4-3.4-9.4-5.4-15-6c2-2.3,4.3-4.2,7-5.5
		c0.9-0.8,1.9-1,3-0.5c-2.3,1.3-4.3,3-6,5c4.4,0.8,8.4,2.4,12,5C247.8,182.1,247.2,183.3,243.5,183.5z"/>
</g>
<g id="g39">
	<path id="path39" class="st15" d="M466.5,174.5c5.7,0,6,0.5,1,1.5c-8.9,2.3-17.9,3.6-27,4C449.4,178.6,458.1,176.8,466.5,174.5z"/>
</g>
<g id="g41">
	<path id="path41" class="st27" d="M413.5,205.5c0.4-0.7,1.1-1.2,2-1.5c2.7-0.7,5.3-0.7,8,0C420.2,205,416.9,205.5,413.5,205.5z"/>
</g>
<g id="g42">
	<path id="path42" class="st28" d="M243.5,183.5c-3.6,2.1-7.3,4.3-11,6.5c-1.7,2.3-3.3,4.7-5,7c7.1,0.2,12.8,3,17,8.5
		c-4.9,2.4-9.1,5.7-12.5,10c-0.7,1.3-0.7,2.7,0,4c3.5,2.2,7,4.3,10.5,6.5c11.4,8.3,18.1,19.5,20,33.5c-1.4,18.1-4.9,35.8-10.5,53
		c-9.5,28.4-19.7,56.4-30.5,84c10.5-30.5,20.6-61.2,30.5-92c4.1-13.7,6.6-27.7,7.5-42c0.3-9.4-2.6-17.7-8.5-25
		c-7.3-6.9-14.8-13.4-22.5-19.5c1.7-7,6-11.3,13-13c-4.7-4.4-10.4-6.6-17-6.5c0-1.8,0.5-3.5,1.5-5
		C230.9,188.5,236.7,185.1,243.5,183.5z"/>
</g>
<g id="g43">
	<path id="path43" class="st29" d="M137.5,137.5c2.5,2.4,2.5,5.1,0,8c0.3,0.3,0.7,0.7,1,1c5.5-1.7,11.2-2.9,17-3.5
		c0.9-0.7,1.5-1.5,2-2.5c2.6,1,4.7,2.7,6.5,5c2.7,4.7,5.3,9.3,8,14c5.8,4.2,11.3,3.8,16.5-1c2,0,4,0,6,0c-7.5,12.3-15.8,13-25,2
		c0-0.7-0.3-1-1-1c-3.1-6.3-7.8-11.1-14-14.5c-1.7-0.7-3.3-0.7-5,0c-37.1,10.8-72.8,25.2-107,43c-3.4,1.8-6.6,4-9.5,6.5
		c-21.3,36.1-26.6,74.4-16,115c3,9,8.8,15.5,17.5,19.5c2.3,0.7,4.7,0.7,7,0c48.9-25,99.6-45.6,152-62c15.4-4.9,31.1-8.8,47-11.5
		c-2.4-7.9-6.7-14.8-13-20.5c-2.5-1.8-5-3.7-7.5-5.5c-3,1.7-5.3,4-7,7c-0.2-1.1-0.7-2.1-1.5-3c-26.1,5.5-51.8,12.6-77,21.5
		c-1.3,0.7-2.7,0.7-4,0c26.3-9.6,53-18.1,80-25.5c0-3.7,0-7.3,0-11c-17.8,4.6-35.5,9.4-53,14.5c18-6.8,36.1-12.9,54.5-18.5
		c1.5-2.3,3-4.7,4.5-7c-5.8-2.9-11-1.9-15.5,3c-0.4-8.7,3.1-15.6,10.5-20.5c-1.5-0.9-3.2-1.4-5-1.5c-4.2,0.9-8.2,2.1-12,3.5
		c1.5-4,3.5-7.6,6-11c-49,11.8-97,26.9-144,45.5c-0.3,0.7-0.7,1.3-1,2c2,16.9,2.5,33.9,1.5,51c-0.6,6.1-1.6,12.1-3,18
		c1.3-12.6,2.2-25.3,2.5-38c0.6-17.7-2.6-34.7-9.5-51c-2.2-4.2-5.7-6.5-10.5-7c-0.5-2.4,0.3-4.1,2.5-5c8,6,13,14,15,24
		c0.6,0.5,1.2,0.9,2,1c18.4-6.7,36.9-13.2,55.5-19.5c33.3-9.5,66.6-18.7,100-27.5c0,0.3,0,0.7,0,1c-2.3,2.1-4.8,4.1-7.5,6
		c-1.8,1.7-2.4,3.7-2,6c5-3.1,10.2-3.6,15.5-1.5c-2.8,2.8-5.7,5.7-8.5,8.5c-2.2,3-2.8,6.4-2,10c4.1-3.1,8.6-3.7,13.5-2
		c-4.9,8.2-6.1,16.9-3.5,26c2.1-3,5-4.2,8.5-3.5c-1,0.7-1.1,1.6-0.5,2.5c18.4,13.3,25.9,31,22.5,53c-3.8,3-6.1,7-7,12
		c-0.9-2.3-0.9-4.6,0-7c3.7-6.9,4.8-14.2,3.5-22c-0.2-1.1-0.7-2.1-1.5-3c-37.9,7.7-74.9,18.5-111,32.5c-1.4,1.3-2.4,2.8-3,4.5
		c-1,0-2,0-3,0c0.1-0.9-0.2-1.5-1-2C95,307.8,66,321.3,37.5,336c-2.9,0.6-5.6-0.1-8-2c-12.1-11.9-18.6-26.4-19.5-43.5
		c-3.4-27.9,0-54.9,10-81c3.4-7.4,7.5-14.2,12.5-20.5c32.4-16.9,66.1-30.9,101-42C134.7,143.8,136.1,140.6,137.5,137.5z"/>
</g>
<g id="g44">
	<path id="path44" class="st5" d="M240.5,285.5c-4.9,8.6-9.9,17.3-15,26c-20.9,6.3-42.2,9.5-64,9.5c-3-0.5-6-1.2-9-2
		c1.4-0.9,1.2-1.4-0.5-1.5c-8.4,4-13.6,1.5-15.5-7.5c-7.5-1.3-10.1-5.4-8-12.5c0.6-1.7,1.6-3.2,3-4.5c36.1-14,73.1-24.8,111-32.5
		c0.8,0.9,1.3,1.9,1.5,3C245.3,271.3,244.2,278.6,240.5,285.5z"/>
</g>
<g id="g45">
	<path id="path45" class="st5" d="M344.5,266.5c16.8-0.7,31.8,4.2,45,14.5c16.1,13.1,31.3,27.3,45.5,42.5c15.4,20.4,30.4,41.1,45,62
		c3.1,4.1,6.6,8,10.5,11.5c4.6-0.3,8.9-1.6,13-4c3.8-0.7,7.4-0.4,11,1c4,5.3,8.7,10,14,14c14,0.8,27.3,4.2,40,10
		c4,2.4,4.9,5.6,2.5,9.5c-6.4-6.8-14.2-10.8-23.5-12c9.2,3.6,17.1,9.2,23.5,17c3.9,9.1,1.1,12.2-8.5,9.5c-1.3-0.7-2.7-1.3-4-2
		c-9.8-12.1-22.4-18.4-38-19c15.8,3.3,28.3,11.5,37.5,24.5c2.9,10.8-1.3,14.6-12.5,11.5c-13.7-5-26.7-11.3-39-19
		c-4.1-1.9-8.5-3.1-13-3.5c0.4-2.4,0.5-4.7,0.5-7c-0.4,1.2-1.1,2.2-2,3c-1.6,9.5-3.7,18.8-6.5,28c-3.8,2.4-7.8,2.6-12,0.5
		c-1.5-2.1-2.1-4.4-2-7c0.8-4.5,1-9,0.5-13.5c-6.3-6.9-7-14.2-2-22c0.7-1.3,0.7-2.7,0-4c-16.2-12.6-32.7-24.7-49.5-36.5
		c-8.3-7.7-16-16-23-25c-16-0.2-30-5.6-42-16c-5.5-5.2-10.7-10.7-15.5-16.5c2.9,7.7,7.6,14.3,14,20c4.5,17.7,11.5,34.4,21,50
		c18.5,28.3,37.5,56.3,57,84c8.9,13.4,15.9,27.8,21,43c2.1,23.6-4.5,44.2-20,62c-15.2,17.5-34.1,29.4-56.5,35.5
		c14.3-2,27.1-7.5,38.5-16.5c4.5,3.5,7.8,7.8,10,13c0.4,4.8-1.1,8.9-4.5,12.5c-5.2,4.1-10.8,7.4-17,10c-17.7,6-35.1,13-52,21
		c-10.2,6.2-19.2,13.8-27,23c-8,7.4-17,9.2-27,5.5c-5.5-4.7-7.4-10.7-5.5-18c1.4-4.3,3.9-7.8,7.5-10.5c-1.8,0-3.4,0.7-5,2
		c-4.4,4.2-8.1,8.8-11,14c-5.1,1-7.8-1.1-8-6.5c2.1-13.1,9.4-21.6,22-25.5c-13.5,0-22.3,6.5-26.5,19.5c-8.7-3.7-10.7-9.7-6-18
		c11.8-11.8,26-19.3,42.5-22.5c5-0.9,10-1.4,15-1.5c4,0,8,0,12,0c2.9,0.4,5.6-0.1,8-1.5c-21.9-21.6-36.8-47.5-44.5-77.5
		c-7.1-32.3-9.5-65-7-98c4.1-42.7,12.1-84.7,24-126c4.8-13.4,11.5-25.7,20-37C337.8,271.2,340.9,268.6,344.5,266.5z"/>
</g>
<g id="g46">
	<path id="path46" class="st7" d="M168.5,159.5c-18.4,6-36.8,12.5-55,19.5c18-5.2,36-10.7,54-16.5c1.2-0.2,1.9-0.9,2-2
		c9.2,11,17.5,10.3,25-2c1.3-1.6,2.8-2.9,4.5-4c4,1.4,8.2,2.3,12.5,2.5c-7,4.3-12.7,10-17,17c4.4-0.7,8.9-1.6,13.5-2.5
		c2,0,3.8,0.5,5.5,1.5c-0.9,0.3-1.6,0.8-2,1.5c-33.4,8.8-66.7,18-100,27.5c-18.6,6.3-37.1,12.8-55.5,19.5c-0.8-0.1-1.4-0.5-2-1
		c-2-10-7-18-15-24c-2.2,0.9-3,2.6-2.5,5c4.8,0.5,8.3,2.8,10.5,7c6.9,16.3,10.1,33.3,9.5,51c-0.3,12.7-1.2,25.4-2.5,38
		c1.4-5.9,2.4-11.9,3-18c1-17.1,0.5-34.1-1.5-51c0.3-0.7,0.7-1.3,1-2c47-18.6,95-33.7,144-45.5c-2.5,3.4-4.5,7-6,11
		c3.8-1.4,7.8-2.6,12-3.5c1.8,0.1,3.5,0.6,5,1.5c-7.4,4.9-10.9,11.8-10.5,20.5c4.5-4.9,9.7-5.9,15.5-3c-1.5,2.3-3,4.7-4.5,7
		c-18.4,5.6-36.5,11.7-54.5,18.5c17.5-5.1,35.2-9.9,53-14.5c0,3.7,0,7.3,0,11c-27,7.4-53.7,15.9-80,25.5c1.3,0.7,2.7,0.7,4,0
		c25.2-8.9,50.9-16,77-21.5c0.8,0.9,1.3,1.9,1.5,3c1.7-3,4-5.3,7-7c2.5,1.8,5,3.7,7.5,5.5c6.3,5.7,10.6,12.6,13,20.5
		c-15.9,2.7-31.6,6.6-47,11.5c-52.4,16.4-103.1,37-152,62c-2.3,0.7-4.7,0.7-7,0c-8.7-4-14.5-10.5-17.5-19.5
		c-10.6-40.6-5.3-78.9,16-115c2.9-2.5,6.1-4.7,9.5-6.5c34.2-17.8,69.9-32.2,107-43c1.7-0.7,3.3-0.7,5,0
		C160.7,148.4,165.4,153.2,168.5,159.5z"/>
</g>
<g id="g47">
	<path id="path47" class="st30" d="M211.5,244.5c3.4,0.4,6.8,1.2,10,2.5c-37.9,8.5-74.6,20.9-110,37c-1,0.7-2,0.7-3,0
		C141.9,268,176.2,254.8,211.5,244.5z"/>
</g>
<g id="g49">
	<path id="path49" class="st31" d="M168.5,159.5c0.7,0,1,0.3,1,1c-0.1,1.1-0.8,1.8-2,2c-18,5.8-36,11.3-54,16.5
		C131.7,172,150.1,165.5,168.5,159.5z"/>
</g>
<g id="g50">
	<path id="path50" class="st32" d="M30.5,207.5c5.4-0.4,9.3,1.9,11.5,7c4.2,9.6,6.9,19.6,8,30c1.4,18.8,0.4,37.5-3,56
		c-1.6,6-3.9,11.7-7,17c-4,4-8,4-12,0c-5.8-9.8-9.1-20.5-10-32c-2.7-20.5-1.7-40.9,3-61C22.6,217.9,25.8,212.2,30.5,207.5z"/>
</g>
<g id="g51">
	<path id="path51" class="st7" d="M21.5,274.5c0.3,0,0.7,0,1,0c0.3,7.1,2.1,13.7,5.5,20c2.3,2.7,4.7,2.7,7,0c3-3.8,4.4-8.2,4-13
		c-0.9,3.5-2.3,6.8-4,10c-2.1,2.6-4.3,2.6-6.5,0c-2.5-4-3.9-8.3-4-13c0.8,1.2,1.9,2.9,3.5,5c2.4,0.6,4.9,0.6,7.5,0
		c1.9-11,2.6-22,2-33c-0.7-0.8-1.6-1.5-2.5-2c-0.3-1.9-0.8-3.8-1.5-5.5c0.5-0.4,0.8-0.9,1-1.5c-1-1-2-2-3-3c-2.5,1-2.5,1.8,0,2.5
		c-1.3,0.5-2.6,0.7-4,0.5c0-1,0-2,0-3c1.5-4.3,4-5,7.5-2c2.9,5.6,4.6,11.6,5,18c0.7-7.1-0.6-13.7-4-20c-3.7-5.2-7.1-4.8-10,1
		c-3.7,11.4-5.2,23-4.5,35c0,0.7-0.3,1-1,1c-0.4-11.1,0.4-22.1,2.5-33c1.1-4.2,2.8-8.2,5-12c1.7-2.1,3.9-3,6.5-2.5
		c6.1,7.3,9.3,15.8,9.5,25.5c1.6,16.3,0.3,32.3-4,48c-2.3,7.4-6.3,8.7-12,4C23.7,293,21.6,284,21.5,274.5z"/>
</g>
<g id="g52">
	<path id="path52" class="st33" d="M22.5,274.5c0.7,1.3,1.3,2.7,2,4c0.1,4.7,1.5,9,4,13c2.2,2.6,4.4,2.6,6.5,0c1.7-3.2,3.1-6.5,4-10
		c0.4,4.8-1,9.2-4,13c-2.3,2.7-4.7,2.7-7,0C24.6,288.2,22.8,281.6,22.5,274.5z"/>
</g>
<g id="g53">
	<path id="path53" class="st7" d="M27.5,238.5c0,1,0,2,0,3c1.4,0.2,2.7,0,4-0.5c-2.5-0.7-2.5-1.5,0-2.5c1,1,2,2,3,3
		c-0.2,0.6-0.5,1.1-1,1.5c0.7,1.7,1.2,3.6,1.5,5.5c0.9,0.5,1.8,1.2,2.5,2c0.6,11-0.1,22-2,33c-2.6,0.6-5.1,0.6-7.5,0
		c-1.6-2.1-2.7-3.8-3.5-5c-0.7-1.3-1.3-2.7-2-4c-0.3,0-0.7,0-1,0c-0.9-0.7-1.2-1.7-1-3c0.7,0,1-0.3,1-1c0.8-7.2,1.6-14.5,2.5-22
		C24.3,244.8,25.5,241.4,27.5,238.5z"/>
</g>
<g id="g54">
	<path id="path54" class="st7" d="M33.5,246.5c2.6,10.4,2.6,20.7,0,31c-1,1.4-2.4,2-4,2c0.4-3.2-0.1-6.2-1.5-9c-0.9,0.8-1.6,1.8-2,3
		c-0.5-7-0.7-14-0.5-21c1,0,2,0,3,0c0-2,0-4,0-6C30,245.3,31.7,245.3,33.5,246.5z"/>
</g>
<g id="g55">
	<path id="path55" class="st34" d="M27.5,238.5c-2,2.9-3.2,6.3-3.5,10c-0.9,7.5-1.7,14.8-2.5,22c-0.7-12,0.8-23.6,4.5-35
		c2.9-5.8,6.3-6.2,10-1c3.4,6.3,4.7,12.9,4,20c-0.4-6.4-2.1-12.4-5-18C31.5,233.5,29,234.2,27.5,238.5z"/>
</g>
<g id="g56">
	<path id="path56" class="st35" d="M33.5,246.5c-1.8-1.2-3.5-1.2-5,0c-1.6,2.7-2.1,2.4-1.5-1C29.7,241.4,31.9,241.8,33.5,246.5z"/>
</g>
<g id="g57">
	<path id="path57" class="st7" d="M31.5,213.5c3.8-0.7,6.6,0.7,8.5,4c7,14.7,10.1,30.2,9.5,46.5c0.3,16.1-2.5,31.6-8.5,46.5
		c-5.9,7-10.9,6.4-15-2c-4.1-8.9-6.1-18.3-6-28c0.9,8.4,3.3,16.4,7,24c2.4,4.1,5.5,4.9,9.5,2.5c3.1-4.4,5.3-9.2,6.5-14.5
		c4.6-19.3,4.6-38.7,0-58c-1.3-5.5-3.8-10.3-7.5-14.5c-3.5-1.1-6.3-0.3-8.5,2.5c-2.2,3.8-3.9,7.8-5,12
		C22.5,226.2,25.6,219.2,31.5,213.5z"/>
</g>
<g id="g58">
	<path id="path58" class="st36" d="M49.5,309.5c-0.2,8.1-3.9,14.4-11,19c-1.5-1.4-2.1-3-2-5c2.4,0.2,4.6-0.5,6.5-2
		C46,317.9,48.1,313.9,49.5,309.5z"/>
</g>
<g id="g59">
	<path id="path59" class="st37" d="M221.5,396.5c-3.4,12.3-7.4,24.3-12,36C212.5,420.1,216.5,408.1,221.5,396.5z"/>
</g>
<g id="g60">
	<path id="path60" class="st38" d="M209.5,432.5c-3.9,14.6-7.8,29.3-11.5,44c-2.3,12.3-4.3,24.6-6,37c-1.8,19.3,0.7,38,7.5,56
		c-4.1-6-7-12.6-8.5-20c-1.5-13.3-1.9-26.6-1-40C193.9,483,200.4,457.4,209.5,432.5z"/>
</g>
<g id="g61">
	<path id="path61" class="st39" d="M400.5,223.5c3,0,6,0,9,0c-10.7,3.5-19.5,9.8-26.5,19c-5,7.6-10.2,15.1-15.5,22.5
		c9.1,3.7,17.5,8.7,25,15c14.1,12.1,28,24.6,41.5,37.5c16.1,21.7,31.7,43.7,47,66c4,4.4,8.4,8.4,13,12c6.2-4.2,13.1-5.7,20.5-4.5
		c4.7,5.4,10.1,10.1,16,14c13.3,1.1,25.9,4.5,38,10c7.1,3.8,8.8,9.3,5,16.5c3.1,5.1,2.4,9.6-2,13.5c-3.1,0.6-6.1,1.5-9,2.5
		c1.9,8.8-1.8,13.1-11,13c-4.8-0.5-9.5-1.7-14-3.5c-10.7-5.7-21.3-11.3-32-17c-3.8-1.9-7.8-2.6-12-2c-0.8,6.5-1.6,13-2.5,19.5
		c-3.1,8.5-9,11-17.5,7.5c-2.2-0.8-3.7-2.3-4.5-4.5c-0.5-6.5-0.2-12.8,1-19c-2.6-4.3-4.8-8.8-6.5-13.5c1.4-4.9,2.5-9.7,3.5-14.5
		c-15.2-11.2-30.3-22.3-45.5-33.5c-9.6-7.7-17.9-16.6-25-26.5c-12.3-0.3-23.8-3.3-34.5-9c0.2,7.6,1.9,14.9,5,22
		c7.4,17.3,16.4,33.7,27,49c20.7,27.4,39.9,55.9,57.5,85.5c6.1-1.1,12.2-1.9,18.5-2.5c4.8-0.5,8.9,0.8,12.5,4
		c8.1-6.4,17.1-11.2,27-14.5c7.5-0.2,15,0.3,22.5,1.5c5.8-0.6,11.3-1.7,16.5-3.5c-4.6,3.9-8.4,8.4-11.5,13.5
		c-6.3,13.9-13.6,27.3-22,40c-5.2,5.7-11.7,8.9-19.5,9.5c6.9,2.3,12.5,6.3,17,12c2.6,1.4,5.2,2.6,8,3.5c-12.8,6.6-24.8,14.4-36,23.5
		c-6.6,3.7-13.6,5.1-21,4c-6.9-1.2-13.6-3.2-20-6c-4.9-1.3-9.9-1.7-15-1c-3.6,2.9-6.9,6.1-10,9.5c2.3,2.8,4.8,5.5,7.5,8
		c5,8.7,3.5,16.2-4.5,22.5c-4.3,3.2-9,5.8-14,8c-17.8,7.1-35.4,14.4-53,22c-10.5,5.4-19.5,12.8-27,22c-4.7,3.9-10,6.4-16,7.5
		c-4.3,0.2-8.7,0-13-0.5c-0.8-0.7-1.1-1.5-1-2.5c10,3.7,19,1.9,27-5.5c7.8-9.2,16.8-16.8,27-23c16.9-8,34.3-15,52-21
		c6.2-2.6,11.8-5.9,17-10c3.4-3.6,4.9-7.7,4.5-12.5c-2.2-5.2-5.5-9.5-10-13c-11.4,9-24.2,14.5-38.5,16.5c22.4-6.1,41.3-18,56.5-35.5
		c15.5-17.8,22.1-38.4,20-62c-5.1-15.2-12.1-29.6-21-43c-19.5-27.7-38.5-55.7-57-84c-9.5-15.6-16.5-32.3-21-50
		c-6.4-5.7-11.1-12.3-14-20c4.8,5.8,10,11.3,15.5,16.5c12,10.4,26,15.8,42,16c7,9,14.7,17.3,23,25c16.8,11.8,33.3,23.9,49.5,36.5
		c0.7,1.3,0.7,2.7,0,4c-5,7.8-4.3,15.1,2,22c0.5,4.5,0.3,9-0.5,13.5c-0.1,2.6,0.5,4.9,2,7c4.2,2.1,8.2,1.9,12-0.5
		c2.8-9.2,4.9-18.5,6.5-28c0.9-0.8,1.6-1.8,2-3c0,2.3-0.1,4.6-0.5,7c4.5,0.4,8.9,1.6,13,3.5c12.3,7.7,25.3,14,39,19
		c11.2,3.1,15.4-0.7,12.5-11.5c-9.2-13-21.7-21.2-37.5-24.5c15.6,0.6,28.2,6.9,38,19c1.3,0.7,2.7,1.3,4,2c9.6,2.7,12.4-0.4,8.5-9.5
		c-6.4-7.8-14.3-13.4-23.5-17c9.3,1.2,17.1,5.2,23.5,12c2.4-3.9,1.5-7.1-2.5-9.5c-12.7-5.8-26-9.2-40-10c-5.3-4-10-8.7-14-14
		c-3.6-1.4-7.2-1.7-11-1c-4.1,2.4-8.4,3.7-13,4c-3.9-3.5-7.4-7.4-10.5-11.5c-14.6-20.9-29.6-41.6-45-62
		c-14.2-15.2-29.4-29.4-45.5-42.5c-13.2-10.3-28.2-15.2-45-14.5c2-1.4,4.2-2.7,6.5-4c1.8,1.5,4,2.2,6.5,2c1.9,0,3.5-0.3,5-1
		c1.9-0.4,3.4-1.4,4.5-3c6-8,12-16,18-24C389.5,231.2,394.6,226.8,400.5,223.5z"/>
</g>
<g id="g62">
	<path id="path62" class="st5" d="M508.5,490.5c6.9-0.1,13.7,0.6,20.5,2c4.2-0.5,8.4-1,12.5-1.5c-4.2,4.5-8,9.4-11.5,14.5
		c-5.5,12.6-12.7,24.1-21.5,34.5c-6.3,4.4-13.3,7.1-21,8c5.8,2.8,10.8,6.8,15,12c3.8,2.2,7.8,3.9,12,5c-11.4,3.1-21.1,9.1-29,18
		c-7.6,6.1-16.3,8.1-26,6c-9-2.8-18-5.7-27-8.5c10.2-11.7,17.7-25.1,22.5-40c1.6-5.4,2.4-10.9,2.5-16.5c-0.4-6.4-1.5-12.6-3.5-18.5
		c6.8-3.5,13.9-4.7,21.5-3.5c2.3,1.5,3.3,3.4,3,5.5C487.7,500.3,497.7,494.6,508.5,490.5z"/>
</g>
<g id="g63">
	<path id="path63" class="st40" d="M547.5,415.5c-2.7-0.2-5.4-0.7-8-1.5C542.5,413.3,545.1,413.8,547.5,415.5z"/>
</g>
<g id="g64">
	<path id="path64" class="st41" d="M247.5,280.5c-1.9,5.9-4.4,11.5-7.5,17c-29.8,43.2-51.8,90.2-66,141c-9,30.9-9.6,61.9-2,93
		c2,6.8,4.8,13.1,8.5,19c0,0.7-0.3,1-1,1c-9.7-13.5-22.3-23-38-28.5c-8.5-2.2-15.7,0-21.5,6.5c-4.3,9.3-1.5,15.4,8.5,18.5
		c5.8,1,11.3,0.2,16.5-2.5c0.7,0.7,0.7,1.3,0,2c-13.5,9.3-24.1,6.6-32-8c-8.6,7.1-8.5,14.3,0.5,21.5c7.9,5.1,15.4,4.6,22.5-1.5
		c-3.4,8.3-9.6,11.1-18.5,8.5c-3.5-2.2-7-4.3-10.5-6.5c-4.8,1.6-7.6,5-8.5,10c2.5,10.3,8.7,17.3,18.5,21c8.8-2.2,13.2-7.8,13-17
		c2.5,1.7,4,4,4.5,7c15.4,7.1,27.8,17.8,37,32c5.1,7.9,9.4,16.2,13,25c5.7,22.8,16.2,25.1,31.5,7c5.2-9.9,11.2-19.2,18-28
		c3.1-3.6,6.6-6.6,10.5-9c5.6-1,10.9-2.3,16-4c21,5.4,42.3,7.7,64,7c-0.7,0.7-1.3,1.3-2,2c-5,0.1-10,0.6-15,1.5
		c-16.5,3.2-30.7,10.7-42.5,22.5c-4.7,8.3-2.7,14.3,6,18c4.2-13,13-19.5,26.5-19.5c-12.6,3.9-19.9,12.4-22,25.5
		c0.2,5.4,2.9,7.5,8,6.5c2.9-5.2,6.6-9.8,11-14c1.6-1.3,3.2-2,5-2c-3.6,2.7-6.1,6.2-7.5,10.5c-1.9,7.3,0,13.3,5.5,18
		c-0.1,1,0.2,1.8,1,2.5c4.3,0.5,8.7,0.7,13,0.5c-11.6,4.5-20.3,1.2-26-10c-4-0.5-7.8-1.5-11.5-3c-2-3.1-3.2-6.4-3.5-10
		c-4.4-0.6-7.6-2.9-9.5-7c-1.7-13.8,3.5-24.3,15.5-31.5c6.2-3.8,12.8-6.5,20-8c-13.5-1.7-26.9-4.1-40-7
		c-17.2,10.8-29.7,25.7-37.5,44.5c-6.1,8.4-14.3,11.9-24.5,10.5c-3.1-1.1-5.6-2.9-7.5-5.5c-6-27.5-20.1-49.6-42.5-66.5
		c-3.6-2.2-7.4-3.7-11.5-4.5c-14.5,12.6-26.2,10.2-35-7c-3.2-5.7-3.2-11.4,0-17c2.2-2.2,4.4-4.4,6.5-6.5c-4.3-8.9-2-15.4,7-19.5
		c1.5-12,8.3-18.3,20.5-19c14.9,1.9,27.2,8.6,37,20c-7.7-23.7-10-48.1-7-73c9.5-53.9,29.7-103.4,60.5-148.5c-12.3,2.1-24.6,4.1-37,6
		c-15.4,0.6-30.8,0.3-46-1c-1.6-1.8-2.9-3.8-4-6c-9.3-2.8-12.6-8.6-10-17.5c1,0,2,0,3,0c-2.1,7.1,0.5,11.2,8,12.5
		c1.9,9,7.1,11.5,15.5,7.5c1.7,0.1,1.9,0.6,0.5,1.5c3,0.8,6,1.5,9,2c21.8,0,43.1-3.2,64-9.5c5.1-8.7,10.1-17.4,15-26
		c-0.9,2.4-0.9,4.7,0,7C241.4,287.5,243.7,283.5,247.5,280.5z"/>
</g>
<g id="g65">
	<path id="path65" class="st5" d="M179.5,551.5c18.6,23.1,30.1,49.5,34.5,79c0.7-7.1,0.1-14.1-2-21c-3.2-10.3-6.8-20.3-11-30
		c14.5,11.7,30.6,20.3,48.5,26c-1.9,1.1-3.6,2.4-5,4c-3.9,2.4-7.4,5.4-10.5,9c-6.8,8.8-12.8,18.1-18,28c-15.3,18.1-25.8,15.8-31.5-7
		c4.3,1.3,8.7,1.3,13,0c0.3-2.6,1.8-4.3,4.5-5c0.9-2.8,2.1-5.4,3.5-8c-0.8-5-3.5-8.3-8-10c-8.7-0.9-17.3-1.6-26-2
		c-9.2-14.2-21.6-24.9-37-32c-0.5-3-2-5.3-4.5-7c0.2,9.2-4.2,14.8-13,17c-9.8-3.7-16-10.7-18.5-21c0.9-5,3.7-8.4,8.5-10
		c3.5,2.2,7,4.3,10.5,6.5c8.9,2.6,15.1-0.2,18.5-8.5c-7.1,6.1-14.6,6.6-22.5,1.5c-9-7.2-9.1-14.4-0.5-21.5c7.9,14.6,18.5,17.3,32,8
		c0.7-0.7,0.7-1.3,0-2c-5.2,2.7-10.7,3.5-16.5,2.5c-10-3.1-12.8-9.2-8.5-18.5c5.8-6.5,13-8.7,21.5-6.5
		C157.2,528.5,169.8,538,179.5,551.5z"/>
</g>
<g id="g66">
	<path id="path66" class="st42" d="M324.5,168.5c0.7,0,1.3,0,2,0c18.6,0.8,35.6,6.3,51,16.5c-6.7,2.5-12.1,6.7-16,12.5
		c10.2,3.1,18.2,9.1,24,18c-9.8,0.7-18.2,4.5-25,11.5c5.9,0.9,9.6,4.2,11,10c-8.9,6.7-15.2,15.2-19,25.5c3.3,0.6,6.6,0.9,10,1
		c-1.5,0.7-3.1,1-5,1c-2.5,0.2-4.7-0.5-6.5-2c-2.3,1.3-4.5,2.6-6.5,4c-3.6,2.1-6.7,4.7-9.5,8c-8.5,11.3-15.2,23.6-20,37
		c-11.9,41.3-19.9,83.3-24,126c-2.5,33-0.1,65.7,7,98c7.7,30,22.6,55.9,44.5,77.5c-2.4,1.4-5.1,1.9-8,1.5c0.4-0.7,1.1-1.2,2-1.5
		c-0.2-0.4-0.6-0.6-1-0.5c-12.2-15-22.3-31.3-30.5-49c-15-39-20.7-79.3-17-121c4.1-49.6,14.1-97.9,30-145
		c6.6-15.5,17.1-27.5,31.5-36c4-9.4,10-17.3,18-23.5c-2.1-5.5-6.1-8.8-12-10c6.6-8.3,15.3-12.6,26-13c-1.3-2-2.7-4-4-6
		c-6.4-4.2-12.8-8.4-19-12.5c2.1-6.2,6.4-9.7,13-10.5C357.3,176.1,341.6,170.3,324.5,168.5z"/>
</g>
<g id="g67">
	<path id="path67" class="st16" d="M258.5,568.5c6.5-0.4,11.7,1.9,15.5,7c0.8,7.7-2.7,12-10.5,13c-0.2-2.4,0-4.7,0.5-7
		c7.5-3.6,7.1-6.6-1-9c-2.5,0.7-4.7,2-6.5,4c-3.4-0.7-3.9-2.4-1.5-5C256.1,570.4,257.3,569.4,258.5,568.5z"/>
</g>
<g id="g68">
	<path id="path68" class="st43" d="M180.5,550.5c6.6,8.2,12.9,16.5,19,25c17.4,14.9,37.7,24.9,61,30c-5.1,1.7-10.4,3-16,4
		c1.4-1.6,3.1-2.9,5-4c-17.9-5.7-34-14.3-48.5-26c4.2,9.7,7.8,19.7,11,30c2.1,6.9,2.7,13.9,2,21c-4.4-29.5-15.9-55.9-34.5-79
		C180.2,551.5,180.5,551.2,180.5,550.5z"/>
</g>
<g id="g69">
	<path id="path69" class="st44" d="M324.5,612.5c3.7,0,7.3,0,11,0c0.4-0.1,0.8,0.1,1,0.5c-0.9,0.3-1.6,0.8-2,1.5c-4,0-8,0-12,0
		C323.2,613.8,323.8,613.2,324.5,612.5z"/>
</g>
<g id="g70">
	<path id="path70" class="st5" d="M171.5,614.5c8.7,0.4,17.3,1.1,26,2c4.5,1.7,7.2,5,8,10c-1.4,2.6-2.6,5.2-3.5,8
		c-2.7,0.7-4.2,2.4-4.5,5c-4.3,1.3-8.7,1.3-13,0C180.9,630.7,176.6,622.4,171.5,614.5z"/>
</g>
<g id="g8_00000165912626082748352460000012302492932530843321_">
	<path id="path8_00000090257141650962420250000014457770268547304077_" class="st4" d="M557.3,15.1c2.6,2.4,3.2,5.4,1.6,8.9
		C557.5,21.3,557,18.3,557.3,15.1z"/>
</g>
<g id="g6_00000147210784465773599320000010759371604983457173_">
	<path id="path6_00000158017330149307115870000006027420338574745509_" class="st3" d="M566.5,21.5c-0.2,1,0.2,1.7,1,2
		c2.5-0.1,3.8,0.5,4,2c-2.2,0.1-4.4-0.2-6.5-1c-1.7,1.2-3.6,2.2-5.5,3C561.2,24.8,563.6,22.8,566.5,21.5z"/>
</g>
</svg>
