<?xml version="1.0" encoding="utf-8"?>
<!-- Generator: Adobe Illustrator 27.9.0, SVG Export Plug-In . SVG Version: 6.00 Build 0)  -->
<svg version="1.1"
	 id="svg23" xmlns:sodipodi="http://sodipodi.sourceforge.net/DTD/sodipodi-0.dtd" xmlns:svg="http://www.w3.org/2000/svg" xmlns:inkscape="http://www.inkscape.org/namespaces/inkscape" sodipodi:docname="bird.svg"
	 xmlns="http://www.w3.org/2000/svg" xmlns:xlink="http://www.w3.org/1999/xlink" x="0px" y="0px" viewBox="0 0 491 614"
	 style="enable-background:new 0 0 491 614;" xml:space="preserve">
<style type="text/css">
	.st0{fill-rule:evenodd;clip-rule:evenodd;fill:#FEFEFE;}
	.st1{fill-rule:evenodd;clip-rule:evenodd;fill:#F4B9A6;}
	.st2{fill-rule:evenodd;clip-rule:evenodd;fill:#2C241F;}
	.st3{fill-rule:evenodd;clip-rule:evenodd;fill:#EA6853;}
	.st4{fill-rule:evenodd;clip-rule:evenodd;fill:#E5886E;}
	.st5{fill-rule:evenodd;clip-rule:evenodd;fill:#2A251F;}
	.st6{fill-rule:evenodd;clip-rule:evenodd;fill:#ECECEB;}
	.st7{fill-rule:evenodd;clip-rule:evenodd;fill:#EAC20F;}
	.st8{fill-rule:evenodd;clip-rule:evenodd;fill:#2A231D;}
	.st9{fill-rule:evenodd;clip-rule:evenodd;fill:#8B5244;}
	.st10{fill-rule:evenodd;clip-rule:evenodd;fill:#4F4139;}
	.st11{fill-rule:evenodd;clip-rule:evenodd;fill:#D7755E;}
	.st12{fill-rule:evenodd;clip-rule:evenodd;fill:#754738;}
	.st13{fill-rule:evenodd;clip-rule:evenodd;fill:#B8B8B6;}
</style>
<sodipodi:namedview  bordercolor="#999999" borderopacity="1" id="namedview23" inkscape:current-layer="svg23" inkscape:cx="245.44216" inkscape:cy="307" inkscape:deskcolor="#d1d1d1" inkscape:pagecheckerboard="0" inkscape:pageopacity="0" inkscape:showpageshadow="2" inkscape:window-height="1003" inkscape:window-maximized="1" inkscape:window-width="1920" inkscape:window-x="0" inkscape:window-y="0" inkscape:zoom="1.267101" pagecolor="#ffffff">
	</sodipodi:namedview>
<g id="g1">
	<path id="path1" class="st0" d="M-0.5-0.5c60,0,120,0,180,0c-4.9,3.4-9.4,7.4-13.5,12c-31.6,42.7-57,89-76,139
		c-4.9,11.6-6.9,23.6-6,36c7.3,13,13.8,26.3,19.5,40c0.6,4.7,1.9,9,4,13c-0.3,1.6,0.1,2.9,1,4c0.2,8.7-0.1,17.4-1,26
		c0,0.3,0,0.7,0,1c-1.3,1.3-2.1,3-2.5,5c-0.7,0.8-1.5,1.1-2.5,1c-5.8-7.6-12.5-14.5-20-20.5c-18-5.6-33.8-1.8-47.5,11.5
		c-4.3,5.2-6.8,11.2-7.5,18c-0.7,0.7-1.3,1.3-2,2c-7.1,3.6-13.3,8.6-18.5,15c-1.6,1.7-2.4,3.7-2.5,6c18-1.6,35,1.5,51,9.5
		c5.8,4.1,9.6,9.6,11.5,16.5c1.2,21.7,2.6,43.3,4,65c3.2,36.1,19.3,64.6,48.5,85.5c15.6,8.3,31.9,14.6,49,19c24.7,4.9,49,11.3,73,19
		c9.6,7.6,18.6,15.9,27,25c7.1,1.5,14.1,3.5,21,6c3.4,3.7,6.4,7.7,9,12c5.9,0.1,9.6-2.9,11-9c2.8-0.6,4.8-2.3,6-5
		c0.9-0.7,1.6-0.5,2,0.5c0.8,2.5,1.8,4.9,3,7c3.5,10.8,7.4,21.4,11.5,32c2.2,4,5.1,7.5,8.5,10.5c3.9,2,7.7,1.8,11.5-0.5
		c1.7,0.6,2.9,1.7,3.5,3.5c1.4,0.9,2.9,1.4,4.5,1.5c3.7-1,7.3-2,11-3c8.6,3.9,17.4,4.7,26.5,2.5c2.4-0.6,3.4-2.1,3-4.5
		c7.9,1,15.9,1,24,0c7.6-3.6,15.6-6.4,24-8.5c5.8-2.3,9.1-6.4,10-12.5c4.9-2.1,8.8-5.4,11.5-10c0.6-1.9,0.4-3.7-0.5-5.5
		c4.5-6.6,5-13.4,1.5-20.5c-8.5-8.8-18.7-15-30.5-18.5c-27.1-7.4-54.4-13.9-82-19.5c-3.2-9.4-7.7-18-13.5-26
		c-12.4-18.1-26.2-35.1-41.5-51c8.7,2.5,16.7,0.7,24-5.5c9.6,1.3,15.7-2.5,18.5-11.5c6.9-1.8,11.4-6.1,13.5-13
		c7.9-3.7,11.6-10,11-19c2.3-0.8,4.1-2.1,5.5-4c2.7-4.3,4.3-9,5-14c6.4-5,9.7-11.7,10-20c4-6,6-12.7,6-20c6-4.6,8-10.6,6-18
		c-1.4-3.6-2.9-7.1-4.5-10.5c2.2-2.2,4-4.7,5.5-7.5c0.7-2,0.7-4,0-6c-3-4.1-6.5-7.8-10.5-11c6.2-6.8,8.4-14.8,6.5-24
		c-0.7-2.9-1.5-5.7-2.5-8.5c1.8-3.8,3.6-7.6,5.5-11.5c1.2-6.6,0.3-13-2.5-19c4.7-10.2,3.8-19.9-2.5-29c0.3-5,0.3-10,0-15
		c-1.8-3.5-4-6.6-6.5-9.5c1.4-3.2,2.9-6.4,4.5-9.5c3.7-9.5,1.1-16.5-8-21c1.3-10.7-3.2-15.2-13.5-13.5
		c-10.2,4.2-18.7,10.7-25.5,19.5c-14.1,17.8-27.4,36.1-40,55c-6.4,8.5-13.1,16.8-20,25c-8.6,7.7-17.4,15-26.5,22
		c-1.8-1.8-3.1-3.8-4-6c3.2-5.1,3.7-10.4,1.5-16c-0.7-0.7-1.3-1.3-2-2c-2-13.2-3-26.6-3-40c-1.2-1.8-2.3-3.7-3.5-5.5
		c1.7-3.7,2.2-7.5,1.5-11.5c-2-3.2-4.5-5.9-7.5-8c6.5-13.5,3.4-23.8-9.5-31c1.4-5.5,1.7-11.2,1-17c-1.6-2.8-3.8-5.1-6.5-7
		c-0.2-5.3-0.4-10.6-0.5-16c-1.6-3.9-4.2-6.9-8-9c-0.1-5.1-0.8-10.1-2-15c-4.7-4.4-10.2-7.4-16.5-9c4.1-8.1,4.9-16.4,2.5-25
		c-4.1-3.5-8.9-5-14.5-4.5c-2.2-3-4.5-5.8-7-8.5c102,0,204,0,306,0c0,204.7,0,409.3,0,614c-163.7,0-327.3,0-491,0
		C-0.5,408.8-0.5,204.2-0.5-0.5z"/>
</g>
<g id="g2">
	<path id="path2" class="st1" d="M336.5,204.5c-6,1.3-10.7,4.6-14,10c-16.2,12.6-32.5,25.1-49,37.5c-12.6,8.2-25.4,16.1-38.5,23.5
		c-0.4,2.3,0.2,4.3,2,6c0.7,3,0.7,6,0,9c-6.4,12.2-10.6,25.2-12.5,39c-1.5,5.5-2.6,11.1-3.5,17c-0.8,11.2-0.7,22.2,0.5,33
		c3.1,20.8,15.1,31.8,36,33c3.5,0.8,7.1,1.3,11,1.5c0.6,0.4,0.9,0.9,1,1.5c-1.6,2.5-4,4-7,4.5c-4,0.3-8,0.7-12,1
		c-4,2.5-8.4,4.2-13,5c-1,0.7-1.1,1.6-0.5,2.5c5.9,5.8,12.9,9.4,21,11c4.4-0.6,8.6-2,12.5-4c3,1,6,1.1,9,0.5c2.5-1.8,5-3.7,7.5-5.5
		c3.8,0.7,7.6,1.2,11.5,1.5c22.1,20.8,39.6,45,52.5,72.5c2.4,12.6-0.3,23.9-8,34c-7.1,6.9-15.6,10.5-25.5,11c-0.2-1.3,0.2-2.5,1-3.5
		c7.4,0.4,11.1-3.1,11-10.5c-1.1-8.1-5.8-11.6-14-10.5c-4.8,1.9-6.8,5.4-6,10.5c-2.5,0.2-4.8-0.3-7-1.5c-3-3.8-5.7-7.8-8-12
		c-7.9-3.8-16.2-5.4-25-5c-1-2.5-2.2-5-3.5-7.5c-0.5,1.3-0.7,2.6-0.5,4c0.3,4.5,0,8.9-1,13c-29.2-9.5-58.8-17.4-89-23.5
		c-23.9-6.7-46.2-16.7-67-30c-21-19.5-32.2-43.7-33.5-72.5c-1.1-22.3-2.4-44.7-4-67c-1.4-4.8-3.9-9-7.5-12.5
		c-6-4.9-12.7-8.7-20-11.5c-0.8-4.6-1.3-9.3-1.5-14c-1.6-3.7-4.1-5-7.5-4c-0.5-0.1-0.9-0.4-1-1c1.3-0.8,1.8-1.8,1.5-3
		c-1.6-0.9-3.1-1.9-4.5-3c0.6-9.4,5-16.6,13-21.5c10.4-5.3,21.4-7.7,33-7c2.6,1.3,5.3,2.7,8,4c5.5,5.2,10.7,10.7,15.5,16.5
		c13.4,19.7,27.9,38.5,43.5,56.5c3,2.3,6,4.7,9,7c-1.3,0.7-2.7,1.3-4,2c29.4-5.9,50.4-22.4,63-49.5c-2.6-5.8-5.4-11.4-8.5-17
		c-0.7-1.3-0.7-2.7,0-4c13.9-8.2,28.1-16.1,42.5-23.5c24.9-15.3,46.4-34.4,64.5-57.5c14.2-20.2,28.2-40.5,42-61
		c5.1-6.4,11.4-10.7,19-13c10.7,1.1,14.1,6.8,10,17c-3.5,7.6-7.5,15-12,22C357.2,171.2,346.3,187.5,336.5,204.5z"/>
</g>
<g id="g4">
	<path id="path4" class="st2" d="M108.5,243.5c1.2,7.5,1.3,15.2,0.5,23c-0.2,1.2-0.7,2.2-1.5,3C108.4,260.9,108.7,252.2,108.5,243.5
		z"/>
</g>
<g id="g5">
	<path id="path5" class="st2" d="M179.5-0.5c1.7,0,3.3,0,5,0c2.5,2.7,4.8,5.5,7,8.5c5.6-0.5,10.4,1,14.5,4.5
		c2.4,8.6,1.6,16.9-2.5,25c6.3,1.6,11.8,4.6,16.5,9c1.2,4.9,1.9,9.9,2,15c3.8,2.1,6.4,5.1,8,9c0.1,5.4,0.3,10.7,0.5,16
		c2.7,1.9,4.9,4.2,6.5,7c0.7,5.8,0.4,11.5-1,17c12.9,7.2,16,17.5,9.5,31c3,2.1,5.5,4.8,7.5,8c0.7,4,0.2,7.8-1.5,11.5
		c1.2,1.8,2.3,3.7,3.5,5.5c0,13.4,1,26.8,3,40c0.7,0.7,1.3,1.3,2,2c2.2,5.6,1.7,10.9-1.5,16c0.9,2.2,2.2,4.2,4,6
		c9.1-7,17.9-14.3,26.5-22c6.9-8.2,13.6-16.5,20-25c12.6-18.9,25.9-37.2,40-55c6.8-8.8,15.3-15.3,25.5-19.5
		c10.3-1.7,14.8,2.8,13.5,13.5c9.1,4.5,11.7,11.5,8,21c-1.6,3.1-3.1,6.3-4.5,9.5c2.5,2.9,4.7,6,6.5,9.5c0.3,5,0.3,10,0,15
		c6.3,9.1,7.2,18.8,2.5,29c2.8,6,3.7,12.4,2.5,19c-1.9,3.9-3.7,7.7-5.5,11.5c1,2.8,1.8,5.6,2.5,8.5c1.9,9.2-0.3,17.2-6.5,24
		c4,3.2,7.5,6.9,10.5,11c0.7,2,0.7,4,0,6c-1.5,2.8-3.3,5.3-5.5,7.5c1.6,3.4,3.1,6.9,4.5,10.5c2,7.4,0,13.4-6,18c0,7.3-2,14-6,20
		c-0.3,8.3-3.6,15-10,20c-0.7,5-2.3,9.7-5,14c-1.4,1.9-3.2,3.2-5.5,4c0.6,9-3.1,15.3-11,19c-2.1,6.9-6.6,11.2-13.5,13
		c-2.8,9-8.9,12.8-18.5,11.5c-7.3,6.2-15.3,8-24,5.5c15.3,15.9,29.1,32.9,41.5,51c5.8,8,10.3,16.6,13.5,26
		c27.6,5.6,54.9,12.1,82,19.5c11.8,3.5,22,9.7,30.5,18.5c3.5,7.1,3,13.9-1.5,20.5c0.9,1.8,1.1,3.6,0.5,5.5c-2.7,4.6-6.6,7.9-11.5,10
		c-0.9,6.1-4.2,10.2-10,12.5c-8.4,2.1-16.4,4.9-24,8.5c-7.6,0.2-15.1-0.5-22.5-2c-0.8,0.3-1.7,0.7-2.5,1c0.1,0.6,0.5,0.9,1,1
		c0.4,2.4-0.6,3.9-3,4.5c-9.1,2.2-17.9,1.4-26.5-2.5c-3.7,1-7.3,2-11,3c-1.6-0.1-3.1-0.6-4.5-1.5c-0.6-1.8-1.8-2.9-3.5-3.5
		c-3.8,2.3-7.6,2.5-11.5,0.5c-3.4-3-6.3-6.5-8.5-10.5c-4.1-10.6-8-21.2-11.5-32c6.1,11.2,11.9,22.5,17.5,34c2.1,2.9,4.6,5.2,7.5,7
		c3.8-1.4,4.9-4,3.5-8c-3.6-9.5-7.6-18.8-12-28c-0.7-1-0.7-2,0-3c8.3,12,14.5,25,18.5,39c10,0.2,12.5-4.1,7.5-13
		c-3.2-7.5-7.2-14.5-12-21c-0.7-1-0.7-2,0-3c9,10.6,15.9,22.4,20.5,35.5c6.8,2.3,13.8,3.8,21,4.5c-1.6-8.2-5.1-15.5-10.5-22
		c-5.7-5.2-10.5-10.5-14.5-16c11.2,7.7,20.5,17.2,28,28.5c10.1,3.1,20.4,4.6,31,4.5c0.2-1.7,0-3.4-0.5-5
		c-17.1-16.5-36.6-29.3-58.5-38.5c4.8,0.7,9.4,2,14,4c12.6,6,24.6,13,36,21c5,3.7,9.3,8,13,13c7.8,0.8,14.6-1.3,20.5-6.5
		c0.9-3.3,0.1-6.2-2.5-8.5c-7.3-6-15.3-11-24-15c-12.4-5.1-24.8-10.4-37-16c1-0.7,2-0.7,3,0c13.3,5.3,26.7,10.7,40,16
		c8.6,4.2,16.7,9,24.5,14.5c8.4-2.1,11.1-7.1,8-15c-11.5-8.5-24-15.1-37.5-20c0.3-0.8,1-1.2,2-1c12.8,4,24.8,9.7,36,17
		c6.1-7.8,5.1-14.6-3-20.5c-11.3-7.3-23.6-12.3-37-15c-21.9-4.5-43.9-8.4-66-11.5c-2,24.7-15.3,38.3-40,41c-0.4-1-1.1-1.2-2-0.5
		c-1.2,2.7-3.2,4.4-6,5c-1.4,6.1-5.1,9.1-11,9c-2.6-4.3-5.6-8.3-9-12c-6.9-2.5-13.9-4.5-21-6c-8.4-9.1-17.4-17.4-27-25
		c-24-7.7-48.3-14.1-73-19c-17.1-4.4-33.4-10.7-49-19c-29.2-20.9-45.3-49.4-48.5-85.5c-1.4-21.7-2.8-43.3-4-65
		c-1.9-6.9-5.7-12.4-11.5-16.5c-16-8-33-11.1-51-9.5c0.1-2.3,0.9-4.3,2.5-6c5.2-6.4,11.4-11.4,18.5-15c-7,5-13,11-18,18
		c0.3,0.3,0.7,0.7,1,1c6.2-2.6,12.6-4.4,19-5.5c-2.7,1.3-5.3,2.7-8,4c6.3-0.4,12.6-0.3,19,0.5c0.8-5.4-0.6-10-4-14
		c3.4-1,5.9,0.3,7.5,4c0.2,4.7,0.7,9.4,1.5,14c7.3,2.8,14,6.6,20,11.5c3.6,3.5,6.1,7.7,7.5,12.5c1.6,22.3,2.9,44.7,4,67
		c1.3,28.8,12.5,53,33.5,72.5c20.8,13.3,43.1,23.3,67,30c30.2,6.1,59.8,14,89,23.5c0.1,0.5,0.4,0.9,1,1c1.3-4.8,1.3-9.5,0-14
		c-0.2-1.4,0-2.7,0.5-4c1.3,2.5,2.5,5,3.5,7.5c8.8-0.4,17.1,1.2,25,5c2.3,4.2,5,8.2,8,12c2.2,1.2,4.5,1.7,7,1.5
		c-0.8-5.1,1.2-8.6,6-10.5c8.2-1.1,12.9,2.4,14,10.5c0.1,7.4-3.6,10.9-11,10.5c-0.8,1-1.2,2.2-1,3.5c9.9-0.5,18.4-4.1,25.5-11
		c7.7-10.1,10.4-21.4,8-34c-12.9-27.5-30.4-51.7-52.5-72.5c-3.9-0.3-7.7-0.8-11.5-1.5c-2.5,1.8-5,3.7-7.5,5.5c-3,0.6-6,0.5-9-0.5
		c-3.9,2-8.1,3.4-12.5,4c-8.1-1.6-15.1-5.2-21-11c-0.6-0.9-0.5-1.8,0.5-2.5c4.6-0.8,9-2.5,13-5c4-0.3,8-0.7,12-1c3-0.5,5.4-2,7-4.5
		c5.5-1.4,10.8-3.4,16-6c0.9-0.8,1.6-1.8,2-3c3.7-1,7.4-2.2,11-3.5c3.2-4.4,7.6-7.4,13-9c1.4-1.6,2.4-3.4,3-5.5
		c6.9-2.9,11.2-7.9,13-15c5.3-3.9,7.5-9.3,6.5-16c5.6-7.2,6.7-15,3.5-23.5c5.2-9.6,3.7-17.7-4.5-24.5c0.5-4.3,0.5-8.6,0-13
		c-1.3-2.1-2.8-4.1-4.5-6c4.2-6,4.9-12.4,2-19c7.3-6.8,8.6-14.5,4-23c7.4-9.5,8.8-19.6,4-30.5c1.8-3.3,2.3-6.8,1.5-10.5
		c-0.4-1.9-1.6-2.9-3.5-3c9.8-17,20.7-33.3,32.5-49c4.5-7,8.5-14.4,12-22c4.1-10.2,0.7-15.9-10-17c-7.6,2.3-13.9,6.6-19,13
		c-13.8,20.5-27.8,40.8-42,61c-18.1,23.1-39.6,42.2-64.5,57.5c-14.4,7.4-28.6,15.3-42.5,23.5c-0.7,1.3-0.7,2.7,0,4
		c3.1,5.6,5.9,11.2,8.5,17c-12.6,27.1-33.6,43.6-63,49.5c1.3-0.7,2.7-1.3,4-2c-3-2.3-6-4.7-9-7c-15.6-18-30.1-36.8-43.5-56.5
		c-4.8-5.8-10-11.3-15.5-16.5c-2.7-1.3-5.4-2.7-8-4c-11.6-0.7-22.6,1.7-33,7c-8,4.9-12.4,12.1-13,21.5c-0.9,0.6-1.9,0.9-3,1
		c0.7-6.8,3.2-12.8,7.5-18c13.7-13.3,29.5-17.1,47.5-11.5c7.5,6,14.2,12.9,20,20.5c0.7,1.3,1.7,2.3,3,3c13.1,19,27.8,36.8,44,53.5
		c2.5,1.1,4.8,2.4,7,4c21.5-5.8,37.3-18.6,47.5-38.5c1.4-3.6,1.7-7.2,1-11c-2.6-3.5-4.9-7.2-7-11c-0.7-2-0.7-4,0-6
		c9.1-6.3,18.2-12.1,27.5-17.5c-0.4-1.4-1.3-2.6-2.5-3.5c-0.2-5.1-0.8-10.1-2-15c-1-2-2.3-3.6-4-5c0.3-5.6,0.3-11.3,0-17
		c-1-2-2.3-3.6-4-5c1.4-9.7-1.3-18.1-8-25c0.6-6.7-1.2-12.5-5.5-17.5c-2.1-1.4-4.5-2.2-7-2.5c0.7-6.7-0.4-13.1-3.5-19
		c-2-2.2-4.3-3.8-7-5c1.2-9-2.3-15.4-10.5-19c-0.7-6.9-2.8-13.2-6.5-19c-1.6-0.9-3.1-1.9-4.5-3c-0.7-3.3-1.4-6.7-2-10
		c0.5-0.8,1.1-1.1,2-1c0.6,0.1,1.1,0.4,1.5,1c0.3,2.3,0.7,4.7,1,7c7.3,6.3,11.1,14.3,11.5,24c2.3,1.1,4.5,2.5,6.5,4
		c2.5,4.4,4.2,9,5,14c4.1,2.2,6.8,5.5,8,10c1.4,4.6,2.2,9.3,2.5,14c3.3-0.2,5.8,1.1,7.5,4c2.4,5.4,4.1,11.1,5,17
		c3.3,2.9,5.3,6.6,6,11c0.3,4.7,0.7,9.3,1,14c1.3,1.3,2.7,2.7,4,4c0.5,5.7,0.5,11.4,0,17c7.6,4.9,9.4,11.4,5.5,19.5
		c0.8,2,2.1,3.5,4,4.5c9.7-5.6,19.2-11.6,28.5-18c0.7-2.8-0.5-4.5-3.5-5c2.8-4.3,3.6-9,2.5-14c-0.7-1-1.6-1.1-2.5-0.5
		c-1.9,3.4-4.5,5.9-8,7.5c-0.3-0.3-0.7-0.7-1-1c7.3-5.3,9.6-12.3,7-21c-2.5,3.3-5.5,6.1-9,8.5c-2.1,1.9-4.4,2.9-7,3
		c7-4.7,12.2-10.8,15.5-18.5c0.5-2.6,0.7-5.3,0.5-8c-1.1-0.1-2.1,0-3,0.5c-4.5,4.9-9.9,8.3-16,10c7.1-4.8,13.3-10.6,18.5-17.5
		c0.7-2.7,0.7-5.3,0-8c-1.1-1.4-2.4-2.4-4-3c-4.6,5.2-9.7,9.7-15.5,13.5c-1.3,1-2.6,1.3-4,1c7.5-5.1,14-11.3,19.5-18.5
		c4.6-8.6,2.1-13.1-7.5-13.5c-3,3-6,6-9,9c-2.7,2.2-5.7,3.5-9,4c9.1-6.7,15.9-15.2,20.5-25.5c2.2-8,0-14.5-6.5-19.5
		c-1.5-1.2-3.2-1.5-5-1c-7,7.7-15,13.7-24,18c11.2-7.5,19.7-17.4,25.5-29.5c2.3-7,0.1-11.5-6.5-13.5c-5.8,10.5-13.1,19.8-22,28
		c-0.8,0.7-1.5,0.5-2-0.5c10.8-11.7,19-25,24.5-40c1.8-8-1.4-12-9.5-12c-1.7,5.7-4.2,11-7.5,16c-23.1,29.7-24.1,29.1-3-2
		c4.8-7.7,8-16.1,9.5-25c-0.3-2.4-0.8-4.7-1.5-7c-4.4-3.7-9.6-5-15.5-4c0.2,1.7,0,3.4-0.5,5c-6.9,10.9-14.6,21.2-23,31
		c-0.2-0.3-0.3-0.7-0.5-1c11.5-15.4,20.7-32,27.5-50c1.5-6.2,0.4-11.7-3.5-16.5c-2.3-0.7-4.7-0.7-7,0c-0.5,6.4-2,12.5-4.5,18.5
		c-6.1,14.6-13.6,28.2-22.5,41c9.8-19.1,17.1-39.1,22-60c-0.1-1.6-0.4-3.1-1-4.5c-3.4-0.5-6.7-0.2-10,1
		c-6.2,4.8-11.7,10.3-16.5,16.5c-21.3,30.7-39.3,63.4-54,98c-5.6,14.8-10.9,29.8-16,45c-1.5,6.6-1.8,13.3-1,20
		c11.3,18.4,19.2,38,23.5,59c0.7,8.3-0.4,16.3-3.5,24c-1.1,1.2-1.6,0.9-1.5-1c0-0.3,0-0.7,0-1c0.8-0.8,1.3-1.8,1.5-3
		c0.8-7.8,0.7-15.5-0.5-23c-0.9-1.1-1.3-2.4-1-4c-0.6-4.7-1.9-9-4-13c-5.7-13.7-12.2-27-19.5-40c-0.9-12.4,1.1-24.4,6-36
		c19-50,44.4-96.3,76-139C170.1,6.9,174.6,2.9,179.5-0.5z"/>
</g>
<g id="g6">
	<path id="path6" class="st3" d="M375.5,329.5c-5.5,0.7-10.8,2-16,4c0.5,0.3,1,0.7,1.5,1c5.7-0.9,11.2-2.2,16.5-4
		c4.4-1.2,8.7-2.5,13-4c1.1,2.3,1.3,4.6,0.5,7c-3.1,6.5-8,11.3-14.5,14.5c-5.7,1-11.3,2-17,3c9,0.7,17.7-0.4,26-3.5
		c0.7,4.8-1,8.7-5,11.5c-4.5,2.6-9.1,4.6-14,6c3,0.3,6,0.1,9-0.5c0.2,10.7-5.2,16.5-16,17.5c-4.3,0.3-8.7,0.7-13,1
		c6,0.5,12,0.7,18,0.5c0.4,4.7-1.3,8.6-5,11.5c-5.9,1.1-11.9,1.8-18,2c4.2,1.6,8.5,2.5,13,2.5c-0.4,4.2-2.4,7.4-6,9.5
		c-3.9,1.2-7.9,1.9-12,2c1.6,0.5,3.3,0.7,5,0.5c-1,8.3-5.7,11.5-14,9.5c-2.4-1.3-4.9-2.5-7.5-3.5c-1,0-1.4,0.4-1,1c1.7,1,3.3,2,5,3
		c0.6,0.9,0.5,1.8-0.5,2.5c-7.8,4-15.8,4.5-24,1.5c-0.9,0.8-1.2,1.8-1,3c-7.1,0.8-13.8-0.6-20-4c-0.3,0.3-0.7,0.7-1,1
		c1.7,1.2,3.3,2.3,5,3.5c-7,5-13.7,4.5-20-1.5c-0.3,0.2-0.7,0.3-1,0.5c4,3.5,3.3,6.1-2,8c-7,1.2-12.6-1-17-6.5
		c2.5-2.1,5.1-3.9,8-5.5c8,0.2,15.1-1.9,21.5-6.5c7.4-1.5,13.9-4.6,19.5-9.5c6.1-1.2,11.1-4.2,15-9c2.7-1.3,5.3-2.7,8-4
		c2-1.3,3.2-3.2,3.5-5.5c6.6-4,11-9.6,13-17c4.4-4.4,6.4-9.7,6-16c2.1-2.6,3.5-5.6,4-9c1.7-9.6,2.4-19.3,2-29
		c-2.1-4.8-4.6-9.3-7.5-13.5c1.9-6.1,0.9-11.6-3-16.5c2.3-5.8,3.4-11.8,3.5-18c2.2-3.1,3.9-6.4,5-10c0-7.8,1-15.5,3-23
		c0.7-10.3,0.7-20.7,0-31c-0.8-2.3-1.7-4.7-2.5-7c11.5-16.3,23-32.6,34.5-49c4.6-7.2,8.1-14.9,10.5-23c4.1,0,6.6,2,7.5,6
		c0.6,4.2-0.1,8.2-2,12c-2.1,4.5-4.4,8.8-7,13c-8.7,10.5-17.2,21.2-25.5,32c0.2,0.3,0.3,0.7,0.5,1c10.1-11.2,19.9-22.6,29.5-34
		c2.2,0.7,4.1,2.1,5.5,4c0.7,3.7,0.7,7.3,0,11c-4.4,9.9-10.6,18.6-18.5,26c0.2,0.3,0.3,0.7,0.5,1c0.8-0.6,1.6-1.1,2.5-1.5
		c4.4-5,8.7-10,13-15c1-0.7,2-0.7,3,0c4.7,5.3,6.2,11.4,4.5,18.5c-3,6-7.2,11.2-12.5,15.5c-7,5-14,10-21,15c3.9-0.8,7.6-2.5,11-5
		c7.1-4.6,13.8-9.8,20-15.5c2.4,2.4,3.4,5.4,3,9c-0.9,8-4.6,14.5-11,19.5c-8.5,6.5-17.5,12.2-27,17c11.8-3.3,22.3-9.1,31.5-17.5
		c6.1,13.4,2.9,24.2-9.5,32.5c-6.1,3.2-12.5,5.8-19,8c1.3,0.7,2.7,0.7,4,0c6.4-2.1,12.7-4.2,19-6.5c13.1,1.7,15.8,7.5,8,17.5
		c-9.1,5.4-18.7,9.4-29,12c9-0.6,17.7-2.8,26-6.5c0.9,0.1,1.8,0.4,2.5,1c6.2,10.4,4.4,18.9-5.5,25.5
		C385.7,325.7,380.7,327.9,375.5,329.5z"/>
</g>
<g id="g7">
	<path id="path7" class="st4" d="M336.5,204.5c1.9,0.1,3.1,1.1,3.5,3c0.8,3.7,0.3,7.2-1.5,10.5c4.8,10.9,3.4,21-4,30.5
		c4.6,8.5,3.3,16.2-4,23c2.9,6.6,2.2,13-2,19c1.7,1.9,3.2,3.9,4.5,6c0.5,4.4,0.5,8.7,0,13c8.2,6.8,9.7,14.9,4.5,24.5
		c3.2,8.5,2.1,16.3-3.5,23.5c1,6.7-1.2,12.1-6.5,16c-1.8,7.1-6.1,12.1-13,15c-0.6,2.1-1.6,3.9-3,5.5c-5.4,1.6-9.8,4.6-13,9
		c-3.6,1.3-7.3,2.5-11,3.5c-0.4,1.2-1.1,2.2-2,3c-5.2,2.6-10.5,4.6-16,6c-0.1-0.6-0.4-1.1-1-1.5c-3.9-0.2-7.5-0.7-11-1.5
		c-18.9-3.1-30.1-14.8-33.5-35c-1-12.1-0.3-24.1,2-36c4.3-17.9,10-35.2,17-52c1.3-5.1,0.2-9.4-3.5-13c23.5-12.6,45.5-27.4,66-44.5
		c5.9-5.7,11.5-11.5,17-17.5C325.8,209.1,330.5,205.8,336.5,204.5z"/>
</g>
<g id="g8">
	<path id="path8" class="st3" d="M160.5,86.5c0.2-5.3,1.8-10,5-14c8.9-12.8,16.4-26.4,22.5-41c2.5-6,4-12.1,4.5-18.5
		c2.3-0.7,4.7-0.7,7,0c3.9,4.8,5,10.3,3.5,16.5c-6.8,18-16,34.6-27.5,50c0.2,0.3,0.3,0.7,0.5,1c8.4-9.8,16.1-20.1,23-31
		c0.5-1.6,0.7-3.3,0.5-5c5.9-1,11.1,0.3,15.5,4c0.7,2.3,1.2,4.6,1.5,7c-1.5,8.9-4.7,17.3-9.5,25c-21.1,31.1-20.1,31.7,3,2
		c3.3-5,5.8-10.3,7.5-16c8.1,0,11.3,4,9.5,12c-5.5,15-13.7,28.3-24.5,40c0.5,1,1.2,1.2,2,0.5c8.9-8.2,16.2-17.5,22-28
		c6.6,2,8.8,6.5,6.5,13.5c-5.8,12.1-14.3,22-25.5,29.5c9-4.3,17-10.3,24-18c1.8-0.5,3.5-0.2,5,1c6.5,5,8.7,11.5,6.5,19.5
		c-4.6,10.3-11.4,18.8-20.5,25.5c3.3-0.5,6.3-1.8,9-4c3-3,6-6,9-9c9.6,0.4,12.1,4.9,7.5,13.5c-5.5,7.2-12,13.4-19.5,18.5
		c1.4,0.3,2.7,0,4-1c5.8-3.8,10.9-8.3,15.5-13.5c1.6,0.6,2.9,1.6,4,3c0.7,2.7,0.7,5.3,0,8c-5.2,6.9-11.4,12.7-18.5,17.5
		c6.1-1.7,11.5-5.1,16-10c0.9-0.5,1.9-0.6,3-0.5c0.2,2.7,0,5.4-0.5,8c-3.3,7.7-8.5,13.8-15.5,18.5c2.6-0.1,4.9-1.1,7-3
		c3.5-2.4,6.5-5.2,9-8.5c2.6,8.7,0.3,15.7-7,21c0.3,0.3,0.7,0.7,1,1c3.5-1.6,6.1-4.1,8-7.5c0.9-0.6,1.8-0.5,2.5,0.5
		c1.1,5,0.3,9.7-2.5,14c3,0.5,4.2,2.2,3.5,5c-9.3,6.4-18.8,12.4-28.5,18c-1.9-1-3.2-2.5-4-4.5c3.9-8.1,2.1-14.6-5.5-19.5
		c0.5-5.6,0.5-11.3,0-17c-1.3-1.3-2.7-2.7-4-4c-0.3-4.7-0.7-9.3-1-14c-0.7-4.4-2.7-8.1-6-11c-0.9-5.9-2.6-11.6-5-17
		c-1.7-2.9-4.2-4.2-7.5-4c-0.3-4.7-1.1-9.4-2.5-14c-1.2-4.5-3.9-7.8-8-10c-0.8-5-2.5-9.6-5-14c-2-1.5-4.2-2.9-6.5-4
		c-0.4-9.7-4.2-17.7-11.5-24c-0.3-2.3-0.7-4.7-1-7C161.6,86.9,161.1,86.6,160.5,86.5z"/>
</g>
<g id="g9">
	<path id="path9" class="st1" d="M165.5,72.5c-3.2,4-4.8,8.7-5,14c-0.9-0.1-1.5,0.2-2,1c0.6,3.3,1.3,6.7,2,10c1.4,1.1,2.9,2.1,4.5,3
		c3.7,5.8,5.8,12.1,6.5,19c8.2,3.6,11.7,10,10.5,19c2.7,1.2,5,2.8,7,5c3.1,5.9,4.2,12.3,3.5,19c2.5,0.3,4.9,1.1,7,2.5
		c4.3,5,6.1,10.8,5.5,17.5c6.7,6.9,9.4,15.3,8,25c1.7,1.4,3,3,4,5c0.3,5.7,0.3,11.4,0,17c1.7,1.4,3,3,4,5c1.2,4.9,1.8,9.9,2,15
		c1.2,0.9,2.1,2.1,2.5,3.5c-9.3,5.4-18.4,11.2-27.5,17.5c-0.7,2-0.7,4,0,6c2.1,3.8,4.4,7.5,7,11c0.7,3.8,0.4,7.4-1,11
		c-10.2,19.9-26,32.7-47.5,38.5c-2.2-1.6-4.5-2.9-7-4c-16.2-16.7-30.9-34.5-44-53.5c0.4-3.4,2.2-5.8,5.5-7c0-2.7,1.2-4.7,3.5-6
		c-1-3.8-1-7.6,0-11.5c0.1-2.8-0.6-5.3-2-7.5c-4.3-21-12.2-40.6-23.5-59c-0.8-6.7-0.5-13.4,1-20c5.1-15.2,10.4-30.2,16-45
		c14.7-34.6,32.7-67.3,54-98c4.8-6.2,10.3-11.7,16.5-16.5c3.3-1.2,6.6-1.5,10-1c0.6,1.4,0.9,2.9,1,4.5
		C182.6,33.4,175.3,53.4,165.5,72.5z"/>
</g>
<g id="g10">
	<path id="path10" class="st1" d="M112.5,247.5c1.4,2.2,2.1,4.7,2,7.5c-1,3.9-1,7.7,0,11.5c-2.3,1.3-3.5,3.3-3.5,6
		c-3.3,1.2-5.1,3.6-5.5,7c-1.3-0.7-2.3-1.7-3-3c1,0.1,1.8-0.2,2.5-1c0.4-2,1.2-3.7,2.5-5c-0.1,1.9,0.4,2.2,1.5,1
		C112.1,263.8,113.2,255.8,112.5,247.5z"/>
</g>
<g id="g11">
	<path id="path11" class="st5" d="M58.1,270.5c11.8,0.4,16.6,5.6,14.5,15.5c-4,5.6-9.8,7.4-17.3,5.4
		C45.5,283.2,46.5,276.2,58.1,270.5z"/>
</g>
<g id="g12">
	<path id="path12" class="st6" d="M53.5,273.5c5.5,0,6.8,2.1,4,6.5C51.3,280.9,50,278.7,53.5,273.5z"/>
</g>
<g id="g13">
	<path id="path13" class="st7" d="M30.5,284.5c1.4,1.1,2.9,2.1,4.5,3c0.3,1.2-0.2,2.2-1.5,3c0.1,0.6,0.5,0.9,1,1c3.4,4,4.8,8.6,4,14
		c-6.4-0.8-12.7-0.9-19-0.5c2.7-1.3,5.3-2.7,8-4c-6.4,1.1-12.8,2.9-19,5.5c-0.3-0.3-0.7-0.7-1-1c5-7,11-13,18-18
		c0.7-0.7,1.3-1.3,2-2C28.6,285.4,29.6,285.1,30.5,284.5z"/>
</g>
<g id="g14">
	<path id="path14" class="st8" d="M322.5,214.5c-5.5,6-11.1,11.8-17,17.5c-20.5,17.1-42.5,31.9-66,44.5c3.7,3.6,4.8,7.9,3.5,13
		c-7,16.8-12.7,34.1-17,52c-2.3,11.9-3,23.9-2,36c3.4,20.2,14.6,31.9,33.5,35c-20.9-1.2-32.9-12.2-36-33c-0.6-16.8,0.4-33.4,3-50
		c1.9-13.8,6.1-26.8,12.5-39c0.7-3,0.7-6,0-9c-1.8-1.7-2.4-3.7-2-6c13.1-7.4,25.9-15.3,38.5-23.5C290,239.6,306.3,227.1,322.5,214.5
		z"/>
</g>
<g id="g15">
	<path id="path15" class="st9" d="M375.5,329.5c0.3,0.8,1,1.2,2,1c-5.3,1.8-10.8,3.1-16.5,4c-0.5-0.3-1-0.7-1.5-1
		C364.7,331.5,370,330.2,375.5,329.5z"/>
</g>
<g id="g16">
	<path id="path16" class="st10" d="M224.5,329.5c-2.6,16.6-3.6,33.2-3,50c-1.2-10.8-1.3-21.8-0.5-33
		C221.9,340.6,223,335,224.5,329.5z"/>
</g>
<g id="g17">
	<path id="path17" class="st3" d="M427.5,541.5c-9.6-4.1-19.6-6.9-30-8.5c9.4,3.1,18.7,6.2,28,9.5c13.5,4.9,26,11.5,37.5,20
		c3.1,7.9,0.4,12.9-8,15c-7.8-5.5-15.9-10.3-24.5-14.5c-13.3-5.3-26.7-10.7-40-16c-1-0.7-2-0.7-3,0c12.2,5.6,24.6,10.9,37,16
		c8.7,4,16.7,9,24,15c2.6,2.3,3.4,5.2,2.5,8.5c-5.9,5.2-12.7,7.3-20.5,6.5c-3.7-5-8-9.3-13-13c-11.4-8-23.4-15-36-21
		c-4.6-2-9.2-3.3-14-4c21.9,9.2,41.4,22,58.5,38.5c0.5,1.6,0.7,3.3,0.5,5c-10.6,0.1-20.9-1.4-31-4.5c-7.5-11.3-16.8-20.8-28-28.5
		c4,5.5,8.8,10.8,14.5,16c5.4,6.5,8.9,13.8,10.5,22c-7.2-0.7-14.2-2.2-21-4.5c-4.6-13.1-11.5-24.9-20.5-35.5c-0.7,1-0.7,2,0,3
		c4.8,6.5,8.8,13.5,12,21c5,8.9,2.5,13.2-7.5,13c-4-14-10.2-27-18.5-39c-0.7,1-0.7,2,0,3c4.4,9.2,8.4,18.5,12,28
		c1.4,4,0.3,6.6-3.5,8c-2.9-1.8-5.4-4.1-7.5-7c-5.6-11.5-11.4-22.8-17.5-34c-1.2-2.1-2.2-4.5-3-7c24.7-2.7,38-16.3,40-41
		c22.1,3.1,44.1,7,66,11.5c13.4,2.7,25.7,7.7,37,15c8.1,5.9,9.1,12.7,3,20.5C452.3,551.2,440.3,545.5,427.5,541.5z"/>
</g>
<g id="g18">
	<path id="path18" class="st1" d="M265.5,513.5c1.3,4.5,1.3,9.2,0,14c-0.6-0.1-0.9-0.5-1-1C265.5,522.4,265.8,518,265.5,513.5z"/>
</g>
<g id="g19">
	<path id="path19" class="st7" d="M274.5,519.5c5.2-0.7,9.9,0.4,14,3.5c3.4,4.8,7.1,9.5,11,14c4.3,0.7,8.7,0.7,13,0
		c0.3-2.7,0.5-5.6,0.5-8.5c4.8-2.9,8.8-1.9,12,3c0.6,3.7,0.4,7.4-0.5,11c-4.3,0.6-8.6,1.1-13,1.5c0.9,0.5,1.9,0.6,3,0.5
		c-0.3,3.1-1.3,5.9-3,8.5c-4.9,0.6-9.6-0.1-14-2c2.4,2,4.9,3.8,7.5,5.5c1.5,4.5,0,6.7-4.5,6.5c-4.2-4.5-8-9.4-11.5-14.5
		c-4.4-5.3-9.6-9.6-15.5-13c-1.2-4.9-1.9-9.9-2-15C272.8,520.7,273.8,520.4,274.5,519.5z"/>
</g>
<g id="g20">
	<path id="path20" class="st11" d="M255.5,530.5c3.9,0,7.4,1.7,10.5,5c0.7,2.7,0.7,5.3,0,8C263,538.7,259.5,534.4,255.5,530.5z"/>
</g>
<g id="g21">
	<path id="path21" class="st12" d="M427.5,541.5c-1-0.2-1.7,0.2-2,1c-9.3-3.3-18.6-6.4-28-9.5C407.9,534.6,417.9,537.4,427.5,541.5z
		"/>
</g>
<g id="g22">
	<path id="path22" class="st7" d="M271.5,539.5c3.3,1.1,6.3,3,9,5.5c-3.4,0.1-6.7-0.4-10-1.5C271.2,542.3,271.6,540.9,271.5,539.5z"
		/>
</g>
<g id="g23">
	<path id="path23" class="st13" d="M424.5,601.5c-8.1,1-16.1,1-24,0c-0.5-0.1-0.9-0.4-1-1c0.8-0.3,1.7-0.7,2.5-1
		C409.4,601,416.9,601.7,424.5,601.5z"/>
</g>
</svg>
