<?xml version="1.0" encoding="utf-8"?>
<!-- Generator: Adobe Illustrator 27.9.0, SVG Export Plug-In . SVG Version: 6.00 Build 0)  -->
<svg version="1.1"
	 id="svg48" xmlns:sodipodi="http://sodipodi.sourceforge.net/DTD/sodipodi-0.dtd" xmlns:svg="http://www.w3.org/2000/svg" xmlns:inkscape="http://www.inkscape.org/namespaces/inkscape" sodipodi:docname="bottles.svg"
	 xmlns="http://www.w3.org/2000/svg" xmlns:xlink="http://www.w3.org/1999/xlink" x="0px" y="0px" viewBox="0 0 521 497"
	 style="enable-background:new 0 0 521 497;" xml:space="preserve">
<style type="text/css">
	.st0{fill-rule:evenodd;clip-rule:evenodd;fill:#FEFEFE;}
	.st1{fill-rule:evenodd;clip-rule:evenodd;fill:#211D19;}
	.st2{fill-rule:evenodd;clip-rule:evenodd;fill:#FBE977;}
	.st3{fill-rule:evenodd;clip-rule:evenodd;fill:#EDAF3B;}
	.st4{fill-rule:evenodd;clip-rule:evenodd;fill:#26231E;}
	.st5{fill-rule:evenodd;clip-rule:evenodd;fill:#51809B;}
	.st6{fill-rule:evenodd;clip-rule:evenodd;fill:#E6EDF4;}
	.st7{fill-rule:evenodd;clip-rule:evenodd;fill:#EFB20B;}
	.st8{fill-rule:evenodd;clip-rule:evenodd;fill:#FBE771;}
	.st9{fill-rule:evenodd;clip-rule:evenodd;fill:#F8EDE1;}
	.st10{fill-rule:evenodd;clip-rule:evenodd;fill:#EDB10A;}
	.st11{fill-rule:evenodd;clip-rule:evenodd;fill:#F7E269;}
	.st12{fill-rule:evenodd;clip-rule:evenodd;fill:#F0F6F1;}
	.st13{fill-rule:evenodd;clip-rule:evenodd;fill:#EAF1FA;}
	.st14{fill-rule:evenodd;clip-rule:evenodd;fill:#F3F2F2;}
	.st15{fill-rule:evenodd;clip-rule:evenodd;fill:#F3FAF5;}
	.st16{fill-rule:evenodd;clip-rule:evenodd;fill:#FBEFE2;}
	.st17{fill-rule:evenodd;clip-rule:evenodd;fill:#FCFCFA;}
	.st18{fill-rule:evenodd;clip-rule:evenodd;fill:#FDFEFE;}
	.st19{fill-rule:evenodd;clip-rule:evenodd;fill:#4D575D;}
	.st20{fill-rule:evenodd;clip-rule:evenodd;fill:#4D545C;}
	.st21{fill-rule:evenodd;clip-rule:evenodd;fill:#495159;}
	.st22{fill-rule:evenodd;clip-rule:evenodd;fill:#D0E6EB;}
	.st23{fill-rule:evenodd;clip-rule:evenodd;fill:#D0D7D5;}
	.st24{fill-rule:evenodd;clip-rule:evenodd;fill:#2E2B27;}
	.st25{fill-rule:evenodd;clip-rule:evenodd;fill:#D1DBD7;}
	.st26{fill-rule:evenodd;clip-rule:evenodd;fill:#D0D9D6;}
	.st27{fill-rule:evenodd;clip-rule:evenodd;fill:#292622;}
	.st28{fill-rule:evenodd;clip-rule:evenodd;fill:#3082BE;}
	.st29{fill-rule:evenodd;clip-rule:evenodd;fill:#D6E6F0;}
	.st30{fill-rule:evenodd;clip-rule:evenodd;fill:#4C535B;}
	.st31{fill-rule:evenodd;clip-rule:evenodd;fill:#D1DAD6;}
	.st32{fill-rule:evenodd;clip-rule:evenodd;fill:#545B62;}
	.st33{fill-rule:evenodd;clip-rule:evenodd;fill:#959D9E;}
	.st34{fill-rule:evenodd;clip-rule:evenodd;fill:#565856;}
	.st35{fill-rule:evenodd;clip-rule:evenodd;fill:#38332E;}
</style>
<sodipodi:namedview  bordercolor="#999999" borderopacity="1" id="namedview48" inkscape:current-layer="svg48" inkscape:cx="183.90711" inkscape:cy="184.32795" inkscape:deskcolor="#d1d1d1" inkscape:pagecheckerboard="0" inkscape:pageopacity="0" inkscape:showpageshadow="2" inkscape:window-height="1003" inkscape:window-maximized="1" inkscape:window-width="1920" inkscape:window-x="0" inkscape:window-y="0" inkscape:zoom="1.1880998" pagecolor="#ffffff">
	</sodipodi:namedview>
<g id="g1">
	<path id="path1" class="st0" d="M-0.5-0.5c173.7,0,347.3,0,521,0c0,165.7,0,331.3,0,497c-173.7,0-347.3,0-521,0
		C-0.5,330.8-0.5,165.2-0.5-0.5z"/>
</g>
<g id="g2">
	<path id="path2" class="st1" d="M328.5,437.5c-0.5-10.8,0.2-21.5,2-32c3.2,1.8,6.5,3.3,10,4.5c10.4,0.8,20.7,0.5,31-1
		c31.7-9.6,63.7-17.9,96-25c1.5-1.6,2.7-3.4,3.5-5.5c0.7-63.7,0.7-127.3,0-191c-1.2-5.2-4.1-9.4-8.5-12.5c-18.5-9.1-35.5-20.4-51-34
		c-5.3,0.7-10.6,1.1-16,1c11.3-5.6,14-13.9,8-25c-9.7,0.8-19.3,0.6-29-0.5c-2-1.4-4.3-2.1-7-2c-1.6-0.5-3.3-0.9-5-1
		c-0.4,7.4,0.1,14.8,1.5,22c2.9,4.6,7.1,7.1,12.5,7.5c-7.9,1.3-14.9-0.5-21-5.5c-4.8,6.3-10.1,12.1-16,17.5
		c-12.6,9.9-24.8,20.4-36.5,31.5c-0.7,1-0.7,2,0,3c10,9.1,17.9,19.8,23.5,32c-0.6-0.1-1.1-0.4-1.5-1c-0.8,1.5-2,2.7-3.5,3.5
		c0.8,1.7,0.3,1.8-1.5,0.5c-0.5,0.9-0.6,1.9-0.5,3c-0.3,0-0.7,0-1,0c-3.1-12.4-9.1-23-18-32c-2.7-2-5-4.3-7-7
		c-9.9-8.4-19.4-17.4-28.5-27c-6.4-6.4-10.4-14.1-12-23c-0.5-14.3-0.7-28.7-0.5-43c-16.1,3-32.1,2.7-48-1c-0.1-0.5-0.4-0.9-1-1
		c-1,15.2-0.7,30.2,1,45c0.1,5.5-0.7,10.8-2.5,16c-4.4,7.2-9.6,13.9-15.5,20c-2,1.3-3.7,3-5,5c-10,8.1-19.1,17.1-27.5,27
		c-2.8,3.9-5.3,7.9-7.5,12c-1.4,2.1-2.4,4.4-3,7c-0.6,1.3-1.1,2.6-1.5,4c-0.7,67-1,134-1,201c1.3,11.4,6.8,20.1,16.5,26
		c1.7,0.8,3.4,1.8,5,3c5.5,3.7,11.5,6.4,18,8c2.9,0.9,5.9,1.9,9,3c33,6.9,65.3,4.7,97-6.5c13-4.7,23-12.8,30-24.5
		c0.7-0.1,1.4,0,2,0.5c-0.8,2.6-1.4,5.3-2,8c0.4,2.3,1.4,4.1,3,5.5c-6.4,6.1-13.8,10.9-22,14.5c-36.8,12.1-73.9,13.6-111.5,4.5
		c-6.1,4.6-12.2,9.1-18.5,13.5c-11.1,3.9-22.4,4.5-34,2c-31.7-14.4-64.7-24.7-99-31c-4.8-4.1-7.6-9.2-8.5-15.5
		c-0.7-79-0.7-158,0-237c0.8-14.8,8.3-24.3,22.5-28.5c15.1-10.4,28.3-22.9,39.5-37.5c0.1-5-0.1-10-0.5-15c-0.2-4.6,0.5-9.1,2-13.5
		c-3.7-3.9-6.5-8.4-8.5-13.5c-3-12.6,0.6-22.6,11-30c-1.6-9.6,1.2-17.5,8.5-23.5c18-9.2,34.2-6.7,48.5,7.5c0.2,5.4,0.7,10.7,1.5,16
		c7.3,5.7,10.6,13.2,10,22.5c0,3.6-0.5,7.1-1.5,10.5c-3,4.2-6.5,7.9-10.5,11c1.4,6.2,2.3,12.6,2.5,19c9.1,15.1,19.8,29.1,32,42
		c8.9-7.4,13.8-16.9,14.5-28.5c-1.4-16.2-2.5-32.3-3.5-48.5c0-3.9-1.9-6.4-5.5-7.5c-1.6-1.1-2.6-2.6-3-4.5c0.9-5,2.9-9.5,6-13.5
		c-1.7-2.7-2.2-5.5-1.5-8.5c2.1-4.7,4.9-8.9,8.5-12.5c-3-8.6-4.5-17.4-4.5-26.5C205.2,10.2,218.7,5.7,234.5,8c7.2,1.5,14.2,3.5,21,6
		c1.6,5.7,2.4,11.5,2.5,17.5c11.2,6.7,18.2,16.3,21,29c1.6,12.1,0.3,23.7-4,35c-1.2,1.2-2.3,2.3-3.5,3.5c11.5,9.4,17.1,21.6,17,36.5
		c-0.2,7.2-1.4,14.2-3.5,21c-1.8,3.2-4.3,5.7-7.5,7.5c5.9,5.9,11.9,11.9,18,18c22.2-14.5,41.7-32.4,58.5-53.5
		c0.4-5.4,0.9-10.7,1.5-16c-8.1-2.1-12.1-7.4-12-16c0.3-7.7,3.7-13.7,10-18c0.7-4.3,1.3-8.7,2-13c16.2-11.9,33.2-13.1,51-3.5
		c1.9,1.5,3.4,3.4,4.5,5.5c0.2,4,0.7,8,1.5,12c15.3,10.4,16,21.8,2,34c0.5,1,1,2,1.5,3c0.5,6.4,0.5,12.7,0,19
		c14,16.6,31.1,28.5,51.5,35.5c5.9,3.9,9.4,9.4,10.5,16.5c0.7,64.3,0.7,128.7,0,193c-2.2,6.5-6.7,10.3-13.5,11.5
		c-32.2,4.2-63.5,11.8-94,23c-11.4,2.3-22.8,1.9-34-1c-2.2-0.9-4.2-2.1-6-3.5C329.8,419.7,329.2,428.7,328.5,437.5z"/>
</g>
<g id="g3">
	<path id="path3" class="st2" d="M206.5,49.5c0-0.7,0-1.3,0-2c0.2-2.7-0.6-5.1-2.5-7c-0.8-5-1.1-10-1-15c0.9,1.2,2.1,2,3.5,2.5
		c3,0.5,6,0.7,9,0.5c-1,8.9,1.3,16.7,7,23.5C217.2,51.5,211.8,50.7,206.5,49.5z"/>
</g>
<g id="g4">
	<path id="path4" class="st3" d="M220.5,24.5c-4.7-0.2-9.3,0-14,0.5c2.7,0.4,5.4,0.9,8,1.5c12.2,0.4,23.9-2,35-7
		c2.4,2.5,3.4,5.5,3,9c-3.3-0.7-6.7-1.3-10-2c-6.7,0.2-9.5,3.5-8.5,10c0.8,3.7,2.7,6.7,5.5,9c0.7,2.7,1.3,5.3,2,8
		c-8,1.1-16,1.2-24,0.5c-3.8-1.4-7.5-2.9-11-4.5c5.3,1.2,10.7,2,16,2.5c-5.7-6.8-8-14.6-7-23.5c-3,0.2-6,0-9-0.5
		c-1.4-0.5-2.6-1.3-3.5-2.5c-0.1,5,0.2,10,1,15c1.9,1.9,2.7,4.3,2.5,7c-3.2-4.7-5-10.1-5.5-16c-1-3.5-0.5-6.7,1.5-9.5
		c13.4-9,27.8-10.9,43-5.5C237.8,21.2,229.5,23.8,220.5,24.5z"/>
</g>
<g id="g5">
	<path id="path5" class="st4" d="M220.5,24.5c-2,0.7-4,1.3-6,2c-2.6-0.6-5.3-1.1-8-1.5C211.2,24.5,215.8,24.3,220.5,24.5z"/>
</g>
<g id="g6">
	<path id="path6" class="st3" d="M239.5,45.5c3.6,1.3,7.3,2.7,11,4c-2.9,1.6-5.9,3-9,4C240.8,50.8,240.2,48.2,239.5,45.5z"/>
</g>
<g id="g7">
	<path id="path7" class="st5" d="M240.5,31.5c13.9,4,24.1,12.7,30.5,26c4.6,11.1,4.1,21.9-1.5,32.5c-2.4,0.8-4.7,0.6-7-0.5
		c3.7-7.2,4.9-14.9,3.5-23c-1.1-5.5-2.8-10.9-5-16c-2.2-2.5-4.7-4.7-7.5-6.5c-4.5-1.5-8.8-3.4-13-5.5
		C239.3,36.1,239.3,33.8,240.5,31.5z"/>
</g>
<g id="g8">
	<path id="path8" class="st6" d="M255.5,55.5c2.5,0.1,4,1.4,4.5,4c0.8,3.6,0.6,7.1-0.5,10.5c-12.7,6.1-26,9.1-40,9
		c-9.6-2.3-16.9-7.6-22-16c0.1-3.7,1.9-5.9,5.5-6.5c12.2,3.9,24.7,5,37.5,3.5C245.7,58.7,250.7,57.2,255.5,55.5z"/>
</g>
<g id="g9">
	<path id="path9" class="st7" d="M99.5,66.5c-1.3-2.9-1.3-5.9,0-9c11,8.4,22.6,9.3,35,2.5c-8.6,0.5-17.3,0.5-26,0
		c-4-1.1-5.5-3.6-4.5-7.5c11.6-10.6,23.3-10.6,35,0c1.5,5.9,1.8,11.9,1,18c-12.1,8.2-25.3,10.2-39.5,6
		C99.9,73.2,99.6,69.9,99.5,66.5z"/>
</g>
<g id="g10">
	<path id="path10" class="st8" d="M99.5,64.9c-0.2-1.2,0-2.4,0.9-3.4c3.8,1.7,7.9,2.8,12.3,3.4c-2.2,2.2-2.2,4.4,0,6.5
		c-3.6,0.1-7.1-0.3-10.5-1.4C101.2,68.3,100.3,66.6,99.5,64.9z"/>
</g>
<g id="g11">
	<path id="path11" class="st9" d="M145.5,75.5c5,2.5,7.3,6.7,7,12.5c-0.1,6.4-2.7,11.4-8,15c-15.2,4.2-30.6,4.6-46,1
		c-2.4-2-4.9-3.8-7.5-5.5C87.9,92,89.4,86.8,95.5,83c13,3.6,26,3.3,39-1C138.6,80.3,142.2,78.1,145.5,75.5z"/>
</g>
<g id="g12">
	<path id="path12" class="st10" d="M373.5,86.5c1.4,0.2,2.7,0,4-0.5c-1.3-2.3-1.3-4.7,0-7c-4.4-1.5-8.7-3-13-4.5c0,2.7,0,5.3,0,8
		c-3.6-10.7,0.1-17.5,11-20.5c8.2-1.5,15.8-0.1,23,4c2.1,1.7,2.4,3.7,1,6c-8.2,2.7-16.5,3.2-25,1.5c-1.3,0.2-2.7,0.3-4,0.5
		c5.3,1.8,10.8,3,16.5,3.5c6.4-1,12.6-2.6,18.5-5c0.2,2.7,0,5.4-0.5,8c-0.1,2.5-1.1,4.5-3,6C392.4,89.2,382.9,89.2,373.5,86.5z"/>
</g>
<g id="g13">
	<path id="path13" class="st11" d="M373.5,86.5c-3.2-1.1-6.2-2.4-9-4c0-2.7,0-5.3,0-8c4.3,1.5,8.6,3,13,4.5c-1.3,2.3-1.3,4.7,0,7
		C376.2,86.5,374.9,86.7,373.5,86.5z"/>
</g>
<g id="g14">
	<path id="path14" class="st5" d="M195.5,76.5c6,2.1,12,4.2,18,6.5c15,1.6,29.5-0.2,43.5-5.5c0.8,2.3,0.6,4.4-0.5,6.5
		c-13.8,5.4-28.2,7.7-43,7c-6.6-1.5-12.6-4.2-18-8C194.2,80.8,194.2,78.7,195.5,76.5z"/>
</g>
<g id="g15">
	<path id="path15" class="st12" d="M355.5,86.5c7.5,2.8,15.2,5.3,23,7.5c9.7,1.2,19.2,0.4,28.5-2.5c7.5,2.3,9.3,6.8,5.5,13.5
		c-17.3,7.3-34.9,8.3-53,3C350.6,102.1,349.3,95,355.5,86.5z"/>
</g>
<g id="g16">
	<path id="path16" class="st13" d="M204.5,94.5c15.9,3.7,31.9,4,48,1c-0.2,14.3,0,28.7,0.5,43c1.6,8.9,5.6,16.6,12,23
		c9.1,9.6,18.6,18.6,28.5,27c-1.1,63.6-1.3,127.3-0.5,191c-0.4,5.3,1.5,9.6,5.5,13c6.5,3.1,12.8,6.4,19,10c1,9.6,1.3,19.3,1,29
		c-0.5,2.7-1.1,5.4-2,8c-7,11.7-17,19.8-30,24.5c-31.7,11.2-64,13.4-97,6.5c5-4.3,10.5-7.9,16.5-11c2.8-4.2,4.5-8.9,5-14
		c0.5-25.7,0.7-51.3,0.5-77c1.4-2.5,2.2-5.1,2.5-8c2.2-2,4.7-3.4,7.5-4c-2.3,1.6-4.3,3.6-6,6c2.1,1,4.1,2,6,3c-0.7-0.1-1.4,0-2,0.5
		c1.9,1.4,3.9,2.6,6,3.5c10.2,10.1,20.7,20.1,31.5,30c11.4,12.6,22.6,25.2,33.5,38c1.9,3.2,4.2,6.2,7,9c-0.4-1.2,0.3-2.1,2-2.5
		c-1.7-2.8-3.7-5.3-6-7.5c-1.6-3.9-3.9-7.2-7-10c-14-22.1-26-45.3-36-69.5c-5.1-2.9-10.6-4.1-16.5-3.5c-6.6-0.1-13.1,0.8-19.5,2.5
		c-0.9,1-1.9,1.9-3,2.5c0.2-50,0-100-0.5-150c-1.1-10.5-6.2-18.2-15.5-23c1.1-5.4,3.6-10,7.5-14c0.7-1,0.7-2,0-3
		c-5,3.1-9.5,6.8-13.5,11c-1.3-1.5-2.3-3.1-3-5c5.9-6.1,11.1-12.8,15.5-20c1.8-5.2,2.6-10.5,2.5-16
		C203.9,123.7,203.9,109,204.5,94.5z"/>
</g>
<g id="g17">
	<path id="path17" class="st14" d="M259.5,113.5c13.1,7.1,15.9,17.1,8.5,30c-1,1.2-2.2,2.2-3.5,3c-2-2.3-3.1-5-3.5-8
		C260.5,130.2,260,121.8,259.5,113.5z"/>
</g>
<g id="g18">
	<path id="path18" class="st15" d="M367.5,114.5c2,1.4,4.3,2.1,7,2c9.7,1.1,19.3,1.3,29,0.5c6,11.1,3.3,19.4-8,25
		c5.4,0.1,10.7-0.3,16-1c15.5,13.6,32.5,24.9,51,34c4.4,3.1,7.3,7.3,8.5,12.5c0.7,63.7,0.7,127.3,0,191c-0.8,2.1-2,3.9-3.5,5.5
		c-32.3,7.1-64.3,15.4-96,25c-10.3,1.5-20.6,1.8-31,1c-3.5-1.2-6.8-2.7-10-4.5c-0.8-58.9-1.3-117.9-1.5-177c-0.8-2.4-1.7-4.7-2.5-7
		c-5.6-12.2-13.5-22.9-23.5-32c-0.7-1-0.7-2,0-3c11.7-11.1,23.9-21.6,36.5-31.5c5.9-5.4,11.2-11.2,16-17.5c6.1,5,13.1,6.8,21,5.5
		c-5.4-0.4-9.6-2.9-12.5-7.5c-1.4-7.2-1.9-14.6-1.5-22C364.2,113.6,365.9,114,367.5,114.5z"/>
</g>
<g id="g19">
	<path id="path19" class="st4" d="M367.5,114.5c2.7-0.1,5,0.6,7,2C371.8,116.6,369.5,115.9,367.5,114.5z"/>
</g>
<g id="g20">
	<path id="path20" class="st16" d="M141.5,112.5c0.7,2.8,1,5.8,1,9c0.2,4.6-0.5,8.9-2,13C141.3,127.2,141.6,119.9,141.5,112.5z"/>
</g>
<g id="g21">
	<path id="path21" class="st13" d="M204.5,94.5c-0.6,14.5-0.6,29.2,0,44c-1.7-14.8-2-29.8-1-45C204.1,93.6,204.4,94,204.5,94.5z"/>
</g>
<g id="g22">
	<path id="path22" class="st5" d="M261.5,104.5c2.5-0.2,4.8,0.3,7,1.5c15.9,12.8,19.4,28.3,10.5,46.5c-4,6.5-7.9,6.5-11.5,0
		c3-4,5.5-8.3,7.5-13c2.7-8.3,1.7-15.9-3-23c-3.1-2.8-6.2-5.5-9.5-8C261.6,107.3,261.2,106,261.5,104.5z"/>
</g>
<g id="g23">
	<path id="path23" class="st16" d="M141.5,112.5c0.1,7.4-0.2,14.7-1,22c-1.8,6.6-6.1,10.8-13,12.5c8.4,1.4,15.4-1.1,21-7.5
		c8.3,13.5,18.3,25.6,30,36.5c-8.9,8.2-17.7,16.4-26.5,24.5c-5.1,5.9-9.6,12.2-13.5,19c-3.2-0.7-6.2-1.9-9-3.5
		c-25.8-3.4-51.2-9.1-76-17c-1.7-0.7-2.2-1.9-1.5-3.5c1-2.1,2.5-3.8,4.5-5c-1.5,2.7-1.2,5.2,1,7.5c4,0.8,8,1.7,12,2.5
		c2.2-0.5,4.2-1.5,6-3c5.3-6.6,10.1-13.6,14.5-21c1.6-7.2,3.7-14.2,6.5-21c-0.2-1.4-0.9-1.9-2-1.5c-4.9,7.7-11.2,13.9-19,18.5
		c-7.1,5.3-14.1,10.8-21,16.5c-3.9,3.4-7.2,7.2-10,11.5c27.5,8.4,55.5,14.9,84,19.5c2.8,1.7,5.8,2.9,9,3.5c-0.2,2.1-0.7,4.1-1.5,6
		c-0.7,69-0.7,138,0,207c3.5,11.5,10.7,20,21.5,25.5c-0.8,0.7-1.1,1.5-1,2.5c-3.9,2.7-8.3,3.5-13,2.5c-14.4-5.9-29-10.6-44-14
		c15.9,5.2,31.6,11.2,47,18c6.1,1.9,10.4,0.1,13-5.5c0.2-0.6,0.7-0.9,1.5-1c5.7,2.5,11.5,4.7,17.5,6.5c-4.3,5-9.6,8.3-16,10
		c-9,0.7-18,0.7-27,0c-32-11.5-64.3-21.9-97-31c-2.6-1.9-4.4-4.4-5.5-7.5c-0.7-79.7-0.7-159.3,0-239c1.2-5.6,3.5-10.6,7-15
		c19.4-12.7,36.9-27.6,52.5-44.5c5.9,1.5,11.9,2.2,18,2c-11.3-5.9-15.2-15-11.5-27.5c0.4-1.9,1.2-3.6,2.5-5c13.4,2.2,26.4,0.9,39-4
		C141.4,110.3,141.7,111.3,141.5,112.5z"/>
</g>
<g id="g24">
	<path id="path24" class="st17" d="M56.5,190.5c6.3-6,12.7-12,19-18c7.8-4.6,14.1-10.8,19-18.5c1.1-0.4,1.8,0.1,2,1.5
		c-2.8,6.8-4.9,13.8-6.5,21c-4.4,7.4-9.2,14.4-14.5,21c-1.8,1.5-3.8,2.5-6,3c-4-0.8-8-1.7-12-2.5C55.3,195.7,55,193.2,56.5,190.5z"
		/>
</g>
<g id="g26">
	<path id="path26" class="st18" d="M195.5,185.5c0,1,0,2,0,3c-1.4,10.7,0.9,20.7,7,30c-3.7,5-8.7,7.5-15,7.5c-7.6,1.4-15.3,1.8-23,1
		c-2.3-0.2-4.3-1.1-6-2.5c-1-0.3-1.7-1-2-2c-0.2-2,0-4,0.5-6c7.9-12.7,17.4-24,28.5-34c1.3-1,2.6-2,4-3c4-4.2,8.5-7.9,13.5-11
		c0.7,1,0.7,2,0,3C199.1,175.5,196.6,180.1,195.5,185.5z"/>
</g>
<g id="g27">
	<path id="path27" class="st19" d="M186.5,174.5c0.7,1.9,1.7,3.5,3,5c-1.4,1-2.7,2-4,3c-1.3-1-2.7-2-4-3
		C182.8,177.5,184.5,175.8,186.5,174.5z"/>
</g>
<g id="g28">
	<path id="path28" class="st20" d="M195.5,185.5c9.3,4.8,14.4,12.5,15.5,23c0.5,50,0.7,100,0.5,150c-2.1,4.5-4.4,8.8-7,13
		c0.2-54,0-108-0.5-162c-1.3-5.7-4-10.7-8-15c-0.5-2-0.7-4-0.5-6C195.5,187.5,195.5,186.5,195.5,185.5z"/>
</g>
<g id="g29">
	<path id="path29" class="st21" d="M293.5,188.5c2,2.7,4.3,5,7,7c-1.2,61.2-1.3,122.5-0.5,184c0.7,3.6,2.2,6.7,4.5,9.5
		c4.4,2.5,8.7,5,13,7.5c0.3,0.8,1,1.2,2,1c0.3,11.5,0,22.8-1,34c0.3-9.7,0-19.4-1-29c-6.2-3.6-12.5-6.9-19-10c-4-3.4-5.9-7.7-5.5-13
		C292.2,315.8,292.4,252.1,293.5,188.5z"/>
</g>
<g id="g30">
	<path id="path30" class="st22" d="M300.5,195.5c8.9,9,14.9,19.6,18,32c0.3,56.5,0,112.8-1,169c-4.3-2.5-8.6-5-13-7.5
		c-2.3-2.8-3.8-5.9-4.5-9.5C299.2,318,299.3,256.7,300.5,195.5z"/>
</g>
<g id="g31">
	<path id="path31" class="st23" d="M181.5,179.5c1.3,1,2.7,2,4,3c-11.1,10-20.6,21.3-28.5,34c-0.5,2-0.7,4-0.5,6
		c-3.5-1.2-6.8-2.5-10-4c2.2-4.1,4.7-8.1,7.5-12C162.4,196.6,171.5,187.6,181.5,179.5z"/>
</g>
<g id="g32">
	<path id="path32" class="st24" d="M440.5,171.5c0.3,0,0.7,0,1,0c6.7,3.7,12.7,8.4,18,14c-0.7,0.3-1.3,0.7-2,1
		c-34.5,6.8-69,13.5-103.5,20c-4.6,24.8-7.6,49.8-9,75c-0.7,36.7-0.7,73.3,0,110c2.2,5.1,6.1,7.4,11.5,7c7.3-1.7,14.6-3.3,22-5
		c0.7,0,1,0.3,1,1c-8.8,2.7-17.6,5.4-26.5,8c-2.5,0.1-4.7-0.7-6.5-2.5c-1.6-2.8-3.1-5.6-4.5-8.5c-1.1-62.1,0.7-124.1,5.5-186
		c-9.8-2.2-19.1-5.7-28-10.5c-1.9-1.1-2.1-1.9-0.5-2.5c14.5,6.5,29.6,9.4,45.5,8.5c3.4-0.9,6.7-1.9,10-3c26.2-3.3,52.2-7.8,78-13.5
		c0.1-1.1,0-2.1-0.5-3C448,178.3,444.1,175,440.5,171.5z"/>
</g>
<g id="g33">
	<path id="path33" class="st25" d="M195.5,188.5c-0.2,2,0,4,0.5,6c4,4.3,6.7,9.3,8,15c0.5,54,0.7,108,0.5,162
		c-11.5,24.1-24.9,47.1-40,69c-0.7-15-1.3-30-2-45c-0.5-54.7-2.5-109.4-6-164c0.1-2.6,0.8-4.9,2-7c1.7,1.4,3.7,2.3,6,2.5
		c7.7,0.8,15.4,0.4,23-1c6.3,0,11.3-2.5,15-7.5C196.4,209.2,194.1,199.2,195.5,188.5z"/>
</g>
<g id="g34">
	<path id="path34" class="st1" d="M326.5,221.5c0.8,2.3,1.7,4.6,2.5,7c0.2,59.1,0.7,118.1,1.5,177c-1.8,10.5-2.5,21.2-2,32
		c-1.5,6.3-4.5,11.6-9,16c-1.6-1.4-2.6-3.2-3-5.5c0.6-2.7,1.2-5.4,2-8c-0.6-0.5-1.3-0.6-2-0.5c0.9-2.6,1.5-5.3,2-8
		c1-11.2,1.3-22.5,1-34c0-56.7,0-113.3,0-170c-0.1-1.1,0-2.1,0.5-3c1.8,1.3,2.3,1.2,1.5-0.5c1.5-0.8,2.7-2,3.5-3.5
		C325.4,221.1,325.9,221.4,326.5,221.5z"/>
</g>
<g id="g35">
	<path id="path35" class="st26" d="M143.5,225.5c2.3,0,4.7,0,7,0c7.4,54.1,10.4,108.4,9,163c0,23-0.7,45.7-2,68
		c-9.7-5.9-15.2-14.6-16.5-26c0-67,0.3-134,1-201C142.4,228.1,142.9,226.8,143.5,225.5z"/>
</g>
<g id="g36">
	<path id="path36" class="st22" d="M318.5,227.5c0.3,0,0.7,0,1,0c0,56.7,0,113.3,0,170c-1,0.2-1.7-0.2-2-1
		C318.5,340.3,318.8,284,318.5,227.5z"/>
</g>
<g id="g37">
	<path id="path37" class="st27" d="M286.5,426.5c-15.8-18.7-27.8-39.7-36-63c-4.8,4.5-10.4,7.2-17,8c-2.7-0.5-5.4-1.2-8-2
		c-2.1-0.9-4.1-2.1-6-3.5c0.6-0.5,1.3-0.6,2-0.5c5.5,2.5,11.2,3.2,17,2c5.3-0.8,7-3.6,5-8.5c-1.9-1.9-4.3-2.7-7-2.5
		c-5-1.3-10-1.3-15,0c-2.8,0.6-5.3,2-7.5,4c-0.3,2.9-1.1,5.5-2.5,8c-2.6,4.6-5.3,9.3-8,14c-11.9,20.2-24.6,39.8-38,59
		c-0.3,0-0.7,0-1,0c0-0.3,0-0.7,0-1c15.1-21.9,28.5-44.9,40-69c2.6-4.2,4.9-8.5,7-13c1.1-0.6,2.1-1.5,3-2.5
		c6.4-1.7,12.9-2.6,19.5-2.5c5.9-0.6,11.4,0.6,16.5,3.5C260.5,381.2,272.5,404.4,286.5,426.5z"/>
</g>
<g id="g38">
	<path id="path38" class="st28" d="M236.5,356.5c1.3,0.7,2.6,1.6,4,2.5c-4.3,0.5-8.7,0.7-13,0.5c-0.2,1.9,0.5,3.4,2,4.5
		c3.1,0.9,6.1,2,9,3.5c-5.8,1.2-11.5,0.5-17-2c-1.9-1-3.9-2-6-3c1.7-2.4,3.7-4.4,6-6C226.5,355.2,231.5,355.2,236.5,356.5z"/>
</g>
<g id="g39">
	<path id="path39" class="st29" d="M236.5,356.5c2.7-0.2,5.1,0.6,7,2.5c2,4.9,0.3,7.7-5,8.5c-2.9-1.5-5.9-2.6-9-3.5
		c-1.5-1.1-2.2-2.6-2-4.5c4.3,0.2,8.7,0,13-0.5C239.1,358.1,237.8,357.2,236.5,356.5z"/>
</g>
<g id="g40">
	<path id="path40" class="st30" d="M211.5,368.5c0.2,25.7,0,51.3-0.5,77c-0.5,5.1-2.2,9.8-5,14c-6,3.1-11.5,6.7-16.5,11
		c-3.1-1.1-6.1-2.1-9-3c1.1,0.1,2.1,0,3-0.5c4.3-3.8,9-7.2,14-10c2.6-1.9,4.4-4.4,5.5-7.5c1.1-12.1,1.6-24.3,1.5-36.5
		c0-10.3-0.3-20.5-1-30.5C206.2,377.8,208.9,373.1,211.5,368.5z"/>
</g>
<g id="g41">
	<path id="path41" class="st13" d="M290.5,437.5c-10.9-12.8-22.1-25.4-33.5-38c-10.8-9.9-21.3-19.9-31.5-30c2.6,0.8,5.3,1.5,8,2
		c6.2,1.6,11.5-0.1,16-5c2.2,4.4,3.7,9.1,4.5,14c5,11.3,11,21.9,18,32C278.4,420.7,284.6,429.1,290.5,437.5z"/>
</g>
<g id="g42">
	<path id="path42" class="st31" d="M203.5,382.5c0.7,10,1,20.2,1,30.5c0.1,12.2-0.4,24.4-1.5,36.5c-1.1,3.1-2.9,5.6-5.5,7.5
		c-5,2.8-9.7,6.2-14,10c-0.9,0.5-1.9,0.6-3,0.5c-6.5-1.6-12.5-4.3-18-8c0.5-5.3,1-10.7,1.5-16c0.7-0.5,1.2-1.2,1.5-2
		C178.9,422.3,191.6,402.7,203.5,382.5z"/>
</g>
<g id="g44">
	<path id="path44" class="st32" d="M146.5,218.5c3.2,1.5,6.5,2.8,10,4c0.3,1,1,1.7,2,2c-1.2,2.1-1.9,4.4-2,7
		c3.5,54.6,5.5,109.3,6,164c-0.7,15.7,0,31,2,46c0.3,0,0.7,0,1,0c-0.3,0.8-0.8,1.5-1.5,2c-0.5,5.3-1,10.7-1.5,16
		c-1.6-1.2-3.3-2.2-5-3c1.3-22.3,2-45,2-68c1.4-54.6-1.6-108.9-9-163c-2.3,0-4.7,0-7,0C144.1,222.9,145.1,220.6,146.5,218.5z"/>
</g>
<g id="g45">
	<path id="path45" class="st13" d="M286.5,426.5c1.6,3.9,3.9,7.2,7,10c2.3,2.2,4.3,4.7,6,7.5c-1.7,0.4-2.4,1.3-2,2.5
		c-2.8-2.8-5.1-5.8-7-9c-5.9-8.4-12.1-16.8-18.5-25c-7-10.1-13-20.7-18-32c-0.8-4.9-2.3-9.6-4.5-14c-4.5,4.9-9.8,6.6-16,5
		c6.6-0.8,12.2-3.5,17-8C258.7,386.8,270.7,407.8,286.5,426.5z"/>
</g>
<g id="g46">
	<path id="path46" class="st33" d="M162.5,395.5c0.7,15,1.3,30,2,45c0,0.3,0,0.7,0,1C162.5,426.5,161.8,411.2,162.5,395.5z"/>
</g>
<g id="g47">
	<path id="path47" class="st34" d="M286.5,426.5c3.1,2.8,5.4,6.1,7,10C290.4,433.7,288.1,430.4,286.5,426.5z"/>
</g>
<g id="g48">
	<path id="path48" class="st35" d="M156.5,464.5c-0.1,1.1,0,2.1,0.5,3c0.4-1.3,1.2-1.9,2.5-2c-2.6,5.6-6.9,7.4-13,5.5
		c-15.4-6.8-31.1-12.8-47-18c15,3.4,29.6,8.1,44,14C148.2,468,152.6,467.2,156.5,464.5z"/>
</g>
</svg>
