<?xml version="1.0" encoding="UTF-8" standalone="no"?>
<svg
   version="1.1"
   width="500px"
   height="484px"
   style="shape-rendering:geometricPrecision; text-rendering:geometricPrecision; image-rendering:optimizeQuality; fill-rule:evenodd; clip-rule:evenodd"
   id="svg92"
   sodipodi:docname="sad.svg"
   inkscape:version="1.3.2 (091e20ef0f, 2023-11-25)"
   xmlns:inkscape="http://www.inkscape.org/namespaces/inkscape"
   xmlns:sodipodi="http://sodipodi.sourceforge.net/DTD/sodipodi-0.dtd"
   xmlns="http://www.w3.org/2000/svg"
   xmlns:svg="http://www.w3.org/2000/svg">
  <defs
     id="defs92" />
  <sodipodi:namedview
     id="namedview92"
     pagecolor="#ffffff"
     bordercolor="#999999"
     borderopacity="1"
     inkscape:showpageshadow="2"
     inkscape:pageopacity="0"
     inkscape:pagecheckerboard="0"
     inkscape:deskcolor="#d1d1d1"
     inkscape:zoom="1.607438"
     inkscape:cx="250.0874"
     inkscape:cy="242"
     inkscape:window-width="1920"
     inkscape:window-height="1003"
     inkscape:window-x="0"
     inkscape:window-y="0"
     inkscape:window-maximized="1"
     inkscape:current-layer="svg92" />
  <g
     id="g1">
    <path
       style="opacity:1"
       fill="#fefefe"
       d="M -0.5,-0.5 C 166.167,-0.5 332.833,-0.5 499.5,-0.5C 499.5,160.833 499.5,322.167 499.5,483.5C 332.833,483.5 166.167,483.5 -0.5,483.5C -0.5,322.167 -0.5,160.833 -0.5,-0.5 Z"
       id="path1" />
  </g>
  <g
     id="g2">
    <path
       style="opacity:1"
       fill="#cecdcd"
       d="M 315.5,16.5 C 313.042,15.3769 310.875,15.3769 309,16.5C 308.195,14.0989 307.362,14.2656 306.5,17C 312.465,19.329 318.465,21.6623 324.5,24C 325.38,25.3561 325.714,26.8561 325.5,28.5C 324.167,28.5 322.833,28.5 321.5,28.5C 321.5,29.8333 321.5,31.1667 321.5,32.5C 307.534,27.449 293.2,23.7823 278.5,21.5C 269.385,20.2911 260.385,19.2911 251.5,18.5C 257.732,18.9638 263.732,18.2971 269.5,16.5C 269.48,14.857 270.147,13.5237 271.5,12.5C 270.286,10.9309 268.619,10.0976 266.5,10C 250.833,9.33333 235.167,9.33333 219.5,10C 213.954,10.3693 208.62,11.2026 203.5,12.5C 175.166,16.8389 148.833,26.5056 124.5,41.5C 123.761,41.631 123.094,41.4643 122.5,41C 123.337,39.9887 123.67,38.8221 123.5,37.5C 176.703,6.36876 233.703,-2.79791 294.5,10C 301.839,11.4123 308.839,13.579 315.5,16.5 Z"
       id="path2" />
  </g>
  <g
     id="g3">
    <path
       style="opacity:1"
       fill="#ebeaea"
       d="M 251.5,18.5 C 233.999,18.1108 216.666,19.4441 199.5,22.5C 198.697,21.5768 198.53,20.5768 199,19.5C 199.718,20.4506 200.551,20.6172 201.5,20C 202.952,17.2553 204.952,14.9219 207.5,13C 206.207,12.51 204.873,12.3433 203.5,12.5C 208.62,11.2026 213.954,10.3693 219.5,10C 235.167,9.33333 250.833,9.33333 266.5,10C 268.619,10.0976 270.286,10.9309 271.5,12.5C 270.147,13.5237 269.48,14.857 269.5,16.5C 263.732,18.2971 257.732,18.9638 251.5,18.5 Z"
       id="path3" />
  </g>
  <g
     id="g4">
    <path
       style="opacity:1"
       fill="#f8f8f8"
       d="M 203.5,12.5 C 204.873,12.3433 206.207,12.51 207.5,13C 204.952,14.9219 202.952,17.2553 201.5,20C 200.551,20.6172 199.718,20.4506 199,19.5C 198.53,20.5768 198.697,21.5768 199.5,22.5C 179.174,27.0704 159.84,34.0704 141.5,43.5C 80.2705,76.2553 41.7705,126.589 26,194.5C 22.6402,212.677 21.1402,231.01 21.5,249.5C 21.1324,255.221 20.4657,260.888 19.5,266.5C 17.549,266.227 16.049,266.893 15,268.5C 14.6174,267.944 14.1174,267.611 13.5,267.5C 12.8905,261.185 12.5572,254.851 12.5,248.5C 11.9594,158.556 49.2927,89.5558 124.5,41.5C 148.833,26.5056 175.166,16.8389 203.5,12.5 Z"
       id="path4" />
  </g>
  <g
     id="g5">
    <path
       style="opacity:1"
       fill="#b8b8b8"
       d="M 315.5,16.5 C 337.091,22.9625 357.091,32.6292 375.5,45.5C 374.069,45.8807 373.236,46.8807 373,48.5C 372.517,47.552 372.351,46.552 372.5,45.5C 371.167,45.5 369.833,45.5 368.5,45.5C 367.871,47.4649 367.204,49.4649 366.5,51.5C 366.57,52.7716 366.903,53.9383 367.5,55C 367,55.1667 366.5,55.3333 366,55.5C 360.034,51.7677 353.868,48.4343 347.5,45.5C 339.143,40.655 330.477,36.3217 321.5,32.5C 321.5,31.1667 321.5,29.8333 321.5,28.5C 322.833,28.5 324.167,28.5 325.5,28.5C 325.714,26.8561 325.38,25.3561 324.5,24C 318.465,21.6623 312.465,19.329 306.5,17C 307.362,14.2656 308.195,14.0989 309,16.5C 310.875,15.3769 313.042,15.3769 315.5,16.5 Z"
       id="path5" />
  </g>
  <g
     id="g6">
    <path
       style="opacity:1"
       fill="#7a7977"
       d="M 251.5,18.5 C 260.385,19.2911 269.385,20.2911 278.5,21.5C 278.5,22.5 278.5,23.5 278.5,24.5C 276.5,24.5 274.5,24.5 272.5,24.5C 227.353,18.4681 184.686,25.8014 144.5,46.5C 144.5,45.5 144.5,44.5 144.5,43.5C 143.5,43.5 142.5,43.5 141.5,43.5C 159.84,34.0704 179.174,27.0704 199.5,22.5C 216.666,19.4441 233.999,18.1108 251.5,18.5 Z"
       id="path6" />
  </g>
  <g
     id="g7">
    <path
       style="opacity:1"
       fill="#989796"
       d="M 278.5,21.5 C 293.2,23.7823 307.534,27.449 321.5,32.5C 330.477,36.3217 339.143,40.655 347.5,45.5C 345.958,46.3007 344.292,46.634 342.5,46.5C 320.215,35.6828 296.881,28.3495 272.5,24.5C 274.5,24.5 276.5,24.5 278.5,24.5C 278.5,23.5 278.5,22.5 278.5,21.5 Z"
       id="path7" />
  </g>
  <g
     id="g8">
    <path
       style="opacity:1"
       fill="#e8f0cf"
       d="M 275.5,34.5 C 263.979,35.6015 252.313,36.7681 240.5,38C 233.218,39.4827 226.218,41.6494 219.5,44.5C 215.555,45.4909 211.555,45.8242 207.5,45.5C 207.5,49.5 207.5,53.5 207.5,57.5C 205.459,57.8541 203.626,57.8541 202,57.5C 198.341,60.7889 194.674,64.1222 191,67.5C 190.685,70.3715 190.185,73.2048 189.5,76C 189.82,77.6532 190.82,78.6532 192.5,79C 191.584,79.2784 190.918,79.7784 190.5,80.5C 183.028,83.1992 175.695,86.1992 168.5,89.5C 168.423,88.2502 167.756,87.4169 166.5,87C 168.134,86.5065 169.801,86.3398 171.5,86.5C 171.334,81.8215 171.501,77.1548 172,72.5C 172.333,73.5 172.667,74.5 173,75.5C 174.477,71.5701 175.644,67.5701 176.5,63.5C 180.697,63.8063 182.697,61.8063 182.5,57.5C 184.857,57.6633 187.19,57.4966 189.5,57C 189.962,55.2784 190.128,53.445 190,51.5C 192.317,49.684 194.484,47.684 196.5,45.5C 198.911,44.912 200.911,43.7454 202.5,42C 204.134,41.5065 205.801,41.3398 207.5,41.5C 207.5,40.5 207.5,39.5 207.5,38.5C 213.411,36.6974 219.411,35.1974 225.5,34C 223.527,33.5045 221.527,33.3379 219.5,33.5C 225.595,31.9865 231.928,31.3198 238.5,31.5C 250.883,31.9873 263.217,32.9873 275.5,34.5 Z"
       id="path8" />
  </g>
  <g
     id="g9">
    <path
       style="opacity:1"
       fill="#fcfdf9"
       d="M 168.5,45.5 C 169.467,46.8062 170.801,47.4729 172.5,47.5C 172.5,48.8333 172.5,50.1667 172.5,51.5C 171.5,51.5 170.5,51.5 169.5,51.5C 169.167,53.5 168.833,55.5 168.5,57.5C 166.833,57.5 165.167,57.5 163.5,57.5C 161.266,63.2317 160.266,69.2317 160.5,75.5C 159.5,75.5 158.5,75.5 157.5,75.5C 156.867,81.4388 156.533,87.2722 156.5,93C 157.416,93.2784 158.082,93.7784 158.5,94.5C 152.57,98.4749 146.57,102.475 140.5,106.5C 135.509,106.668 130.509,106.001 125.5,104.5C 125.5,105.5 125.5,106.5 125.5,107.5C 117.956,107.784 110.456,107.45 103,106.5C 96.5508,107.003 90.3841,108.336 84.5,110.5C 84.1667,112.5 83.8333,114.5 83.5,116.5C 81.1667,116.5 78.8333,116.5 76.5,116.5C 76.5,117.833 76.5,119.167 76.5,120.5C 75.1667,120.5 73.8333,120.5 72.5,120.5C 77.3031,111.684 83.3031,103.684 90.5,96.5C 101.81,84.681 114.144,74.181 127.5,65C 139.305,58.1708 151.305,51.8375 163.5,46C 165.134,45.5065 166.801,45.3398 168.5,45.5 Z"
       id="path9" />
  </g>
  <g
     id="g10">
    <path
       style="opacity:1"
       fill="#abaaa9"
       d="M 347.5,45.5 C 353.868,48.4343 360.034,51.7677 366,55.5C 366.5,55.3333 367,55.1667 367.5,55C 366.903,53.9383 366.57,52.7716 366.5,51.5C 367.204,49.4649 367.871,47.4649 368.5,45.5C 369.833,45.5 371.167,45.5 372.5,45.5C 372.351,46.552 372.517,47.552 373,48.5C 373.236,46.8807 374.069,45.8807 375.5,45.5C 400.5,61.8333 421.167,82.5 437.5,107.5C 437.5,112.5 437.5,117.5 437.5,122.5C 435.5,122.5 433.5,122.5 431.5,122.5C 423.985,111.303 415.651,100.637 406.5,90.5C 404.833,89.1667 403.167,87.8333 401.5,86.5C 400.818,87.2427 400.151,87.9094 399.5,88.5C 382.164,72.1526 363.164,58.1526 342.5,46.5C 344.292,46.634 345.958,46.3007 347.5,45.5 Z"
       id="path10" />
  </g>
  <g
     id="g11">
    <path
       style="opacity:1"
       fill="#c2db9a"
       d="M 375.5,95.5 C 374.07,95.5792 372.736,95.2458 371.5,94.5C 359.666,84.3934 347.5,74.7268 335,65.5C 334.586,65.9574 334.086,66.2907 333.5,66.5C 330.226,65.1291 327.226,63.2958 324.5,61C 312.255,58.0222 299.755,56.1889 287,55.5C 279.576,55.3413 272.243,56.008 265,57.5C 264.127,57.2645 263.293,56.9312 262.5,56.5C 260.142,58.2866 257.475,59.2866 254.5,59.5C 254.5,62.8333 254.5,66.1667 254.5,69.5C 253.127,69.3433 251.793,69.51 250.5,70C 253.833,70.3333 257.167,70.6667 260.5,71C 252.571,72.3633 244.571,72.8633 236.5,72.5C 237.658,71.0502 237.158,70.0502 235,69.5C 234.187,67.5643 233.687,65.5643 233.5,63.5C 234.5,63.5 235.5,63.5 236.5,63.5C 236.393,61.0968 237.393,59.2635 239.5,58C 241.774,57.5298 243.774,56.5298 245.5,55C 248.482,54.502 251.482,54.3354 254.5,54.5C 254.5,53.5 254.5,52.5 254.5,51.5C 265.383,51.6904 276.217,51.0237 287,49.5C 295.988,49.915 304.822,51.2483 313.5,53.5C 313.5,54.5 313.5,55.5 313.5,56.5C 317.5,56.8333 321.5,57.1667 325.5,57.5C 325.5,58.5 325.5,59.5 325.5,60.5C 332.239,61.1384 337.906,63.9717 342.5,69C 350.578,72.9175 358.078,77.7509 365,83.5C 366.167,85.3333 367.333,87.1667 368.5,89C 370.364,90.4055 372.197,90.9055 374,90.5C 374.608,92.1545 375.108,93.8211 375.5,95.5 Z"
       id="path11" />
  </g>
  <g
     id="g12">
    <path
       style="opacity:1"
       fill="#f2f6e2"
       d="M 219.5,33.5 C 221.527,33.3379 223.527,33.5045 225.5,34C 219.411,35.1974 213.411,36.6974 207.5,38.5C 207.5,39.5 207.5,40.5 207.5,41.5C 205.801,41.3398 204.134,41.5065 202.5,42C 200.911,43.7454 198.911,44.912 196.5,45.5C 194.484,47.684 192.317,49.684 190,51.5C 190.128,53.445 189.962,55.2784 189.5,57C 187.19,57.4966 184.857,57.6633 182.5,57.5C 182.697,61.8063 180.697,63.8063 176.5,63.5C 175.644,67.5701 174.477,71.5701 173,75.5C 172.667,74.5 172.333,73.5 172,72.5C 171.501,77.1548 171.334,81.8215 171.5,86.5C 169.801,86.3398 168.134,86.5065 166.5,87C 167.756,87.4169 168.423,88.2502 168.5,89.5C 165.211,91.1584 161.877,92.8251 158.5,94.5C 158.082,93.7784 157.416,93.2784 156.5,93C 156.533,87.2722 156.867,81.4388 157.5,75.5C 158.5,75.5 159.5,75.5 160.5,75.5C 160.266,69.2317 161.266,63.2317 163.5,57.5C 165.167,57.5 166.833,57.5 168.5,57.5C 168.833,55.5 169.167,53.5 169.5,51.5C 170.5,51.5 171.5,51.5 172.5,51.5C 172.5,50.1667 172.5,48.8333 172.5,47.5C 170.801,47.4729 169.467,46.8062 168.5,45.5C 168.611,44.8826 168.944,44.3826 169.5,44C 178.179,41.1052 186.845,38.4386 195.5,36C 203.4,34.1864 211.4,33.3531 219.5,33.5 Z"
       id="path12" />
  </g>
  <g
     id="g13">
    <path
       style="opacity:1"
       fill="#dce9bd"
       d="M 275.5,34.5 C 282.464,35.8235 289.464,36.9902 296.5,38C 294.75,39.3186 292.75,39.8186 290.5,39.5C 282.442,38.65 274.442,38.8167 266.5,40C 274.304,40.9322 281.971,41.7655 289.5,42.5C 271.796,41.5429 254.463,43.2095 237.5,47.5C 237.567,48.9587 237.234,50.2921 236.5,51.5C 232.785,51.423 229.119,51.7564 225.5,52.5C 225.5,53.5 225.5,54.5 225.5,55.5C 223.406,56.2422 221.239,56.9089 219,57.5C 216.589,56.6004 214.422,56.767 212.5,58C 213.167,63.3333 213.833,68.6667 214.5,74C 213.263,74.2321 212.263,74.7321 211.5,75.5C 204.314,76.5236 197.314,78.1903 190.5,80.5C 190.918,79.7784 191.584,79.2784 192.5,79C 190.82,78.6532 189.82,77.6532 189.5,76C 190.185,73.2048 190.685,70.3715 191,67.5C 194.674,64.1222 198.341,60.7889 202,57.5C 203.626,57.8541 205.459,57.8541 207.5,57.5C 207.5,53.5 207.5,49.5 207.5,45.5C 211.555,45.8242 215.555,45.4909 219.5,44.5C 226.218,41.6494 233.218,39.4827 240.5,38C 252.313,36.7681 263.979,35.6015 275.5,34.5 Z"
       id="path13" />
  </g>
  <g
     id="g14">
    <path
       style="opacity:1"
       fill="#dedede"
       d="M 123.5,37.5 C 123.67,38.8221 123.337,39.9887 122.5,41C 123.094,41.4643 123.761,41.631 124.5,41.5C 49.2927,89.5558 11.9594,158.556 12.5,248.5C 11.8334,240.657 11.1667,232.657 10.5,224.5C 9.41043,225.391 9.41043,226.391 10.5,227.5C 10,228.5 9.5,229.5 9,230.5C 8.50031,238.159 8.33365,245.826 8.5,253.5C 5.34152,171.479 35.6748,104.646 99.5,53C 107.358,47.5736 115.358,42.4069 123.5,37.5 Z"
       id="path14" />
  </g>
  <g
     id="g15">
    <path
       style="opacity:1"
       fill="#9ac868"
       d="M 154.5,400.5 C 154.5,399.5 154.5,398.5 154.5,397.5C 151.233,396.344 147.899,395.177 144.5,394C 140.353,389.101 135.353,385.434 129.5,383C 127.36,380.439 125.027,378.105 122.5,376C 121.552,375.517 120.552,375.351 119.5,375.5C 119.167,371.833 117.167,369.833 113.5,369.5C 113.649,368.448 113.483,367.448 113,366.5C 100.349,353.839 90.1819,339.506 82.5,323.5C 82.0431,322.702 81.3764,322.369 80.5,322.5C 80.6567,321.127 80.49,319.793 80,318.5C 76.0725,311.499 72.7392,304.165 70,296.5C 67.5794,288.677 65.5794,280.677 64,272.5C 62.9987,263.684 63.6654,255.018 66,246.5C 66.4974,249.146 66.6641,251.813 66.5,254.5C 68.5,254.5 70.5,254.5 72.5,254.5C 72.281,255.675 72.6143,256.675 73.5,257.5C 74.6236,255.631 75.4569,253.631 76,251.5C 76.4998,241.839 76.6665,232.172 76.5,222.5C 77.8042,218.64 78.4709,214.64 78.5,210.5C 78.7038,207.482 79.0371,204.482 79.5,201.5C 81.2626,194.869 83.2626,188.202 85.5,181.5C 88.46,175.715 91.1267,169.715 93.5,163.5C 96.9557,156.603 100.956,149.936 105.5,143.5C 111.456,135.542 117.789,127.875 124.5,120.5C 130.155,116.177 135.488,111.51 140.5,106.5C 146.57,102.475 152.57,98.4749 158.5,94.5C 161.877,92.8251 165.211,91.1584 168.5,89.5C 175.695,86.1992 183.028,83.1992 190.5,80.5C 197.314,78.1903 204.314,76.5236 211.5,75.5C 216.167,74.8333 220.833,74.1667 225.5,73.5C 239.189,73.2816 252.855,73.615 266.5,74.5C 275.928,77.357 285.595,79.6904 295.5,81.5C 306.508,88.8587 310.508,85.8587 307.5,72.5C 321.91,72.9089 334.244,78.0755 344.5,88C 347.746,89.8586 351.079,91.5252 354.5,93C 358.71,97.7118 363.377,101.879 368.5,105.5C 370.144,110.975 373.811,114.142 379.5,115C 386.918,125.032 394.252,135.198 401.5,145.5C 405.514,153.527 409.514,161.527 413.5,169.5C 439.803,241.878 428.136,307.044 378.5,365C 373.37,366.297 370.037,369.464 368.5,374.5C 364.046,377.452 360.046,380.952 356.5,385C 349.604,388.571 343.271,392.905 337.5,398C 294.02,422.082 247.687,428.582 198.5,417.5C 188.631,413.841 178.631,410.341 168.5,407C 164.528,403.516 159.862,401.35 154.5,400.5 Z"
       id="path15" />
  </g>
  <g
     id="g16">
    <path
       style="opacity:1"
       fill="#efeec6"
       d="M 331.5,50.5 C 327.312,50.9062 323.979,49.4062 321.5,46C 310.898,43.7999 300.565,41.6332 290.5,39.5C 292.75,39.8186 294.75,39.3186 296.5,38C 289.464,36.9902 282.464,35.8235 275.5,34.5C 263.217,32.9873 250.883,31.9873 238.5,31.5C 231.928,31.3198 225.595,31.9865 219.5,33.5C 211.4,33.3531 203.4,34.1864 195.5,36C 186.845,38.4386 178.179,41.1052 169.5,44C 168.944,44.3826 168.611,44.8826 168.5,45.5C 166.801,45.3398 165.134,45.5065 163.5,46C 151.305,51.8375 139.305,58.1708 127.5,65C 114.144,74.181 101.81,84.681 90.5,96.5C 90.5978,95.118 90.5978,93.618 90.5,92C 93.6168,89.4581 96.2834,86.4581 98.5,83C 99.448,82.5172 100.448,82.3505 101.5,82.5C 101.286,80.8561 101.62,79.3561 102.5,78C 104.556,77.6892 106.556,77.1892 108.5,76.5C 110.172,73.1376 111.839,69.8042 113.5,66.5C 116.31,63.8644 119.31,61.3644 122.5,59C 124.577,57.295 126.91,56.1283 129.5,55.5C 134.67,55.0621 139.67,53.8954 144.5,52C 145.337,50.9887 145.67,49.8221 145.5,48.5C 148.471,48.5646 151.138,47.7313 153.5,46C 152.833,45.6667 152.167,45.3333 151.5,45C 154.612,42.6765 157.946,42.1765 161.5,43.5C 167.418,41.8698 173.084,39.7031 178.5,37C 185.092,36.4927 191.092,34.4927 196.5,31C 211.972,29.5494 227.472,28.3828 243,27.5C 254.835,27.852 266.668,28.1853 278.5,28.5C 278.5,29.8333 278.5,31.1667 278.5,32.5C 286.198,32.7689 293.864,33.2689 301.5,34C 304.21,35.7468 307.21,36.7468 310.5,37C 312.607,38.2635 313.607,40.0968 313.5,42.5C 320.627,43.0839 326.627,45.7506 331.5,50.5 Z"
       id="path16" />
  </g>
  <g
     id="g17">
    <path
       style="opacity:1"
       fill="#dce4ad"
       d="M 331.5,55.5 C 341.82,60.6599 352.153,65.8266 362.5,71C 371.376,78.8782 380.543,86.3782 390,93.5C 391.64,95.579 392.806,97.9124 393.5,100.5C 395.747,101.245 397.58,102.578 399,104.5C 403.323,109.794 407.656,115.127 412,120.5C 416.628,129.812 421.295,139.145 426,148.5C 430.345,152.441 432.179,157.441 431.5,163.5C 430.5,163.5 429.5,163.5 428.5,163.5C 429.196,156.068 426.696,150.068 421,145.5C 419.855,141.206 417.688,137.539 414.5,134.5C 412.13,130.423 410.297,126.09 409,121.5C 406.532,120.896 404.532,119.562 403,117.5C 399.239,113.367 396.072,109.2 393.5,105C 393.833,104.667 394.167,104.333 394.5,104C 389.754,100.867 385.421,97.2001 381.5,93C 381.833,92.6667 382.167,92.3333 382.5,92C 379.45,89.9509 377.117,87.2843 375.5,84C 373.892,83.342 372.725,83.842 372,85.5C 368.78,82.7935 365.613,79.9602 362.5,77C 360.975,75.9914 359.308,75.4914 357.5,75.5C 357.719,74.325 357.386,73.325 356.5,72.5C 351.367,70.4334 346.7,67.6001 342.5,64C 343.833,63.3333 343.833,62.6667 342.5,62C 339.595,60.7138 336.595,59.7138 333.5,59C 332.177,58.1841 331.511,57.0174 331.5,55.5 Z"
       id="path17" />
  </g>
  <g
     id="g18">
    <path
       style="opacity:1"
       fill="#add07f"
       d="M 413.5,157.5 C 410.305,152.066 407.139,146.399 404,140.5C 401.182,138.619 399.348,135.952 398.5,132.5C 394.711,129.598 391.878,125.932 390,121.5C 387.65,119.317 385.483,116.984 383.5,114.5C 381.459,113.764 379.459,112.931 377.5,112C 373.946,108.286 370.446,104.452 367,100.5C 366.667,100.833 366.333,101.167 366,101.5C 363.966,100.257 363.133,98.7566 363.5,97C 362.24,95.887 361.073,95.7203 360,96.5C 356.47,92.6295 352.303,89.4628 347.5,87C 347.833,86.6667 348.167,86.3333 348.5,86C 346.608,85.0266 344.608,84.3599 342.5,84C 331.065,73.6442 317.399,68.8108 301.5,69.5C 301.5,73.5 301.5,77.5 301.5,81.5C 299.5,81.5 297.5,81.5 295.5,81.5C 285.595,79.6904 275.928,77.357 266.5,74.5C 268.5,74.5 270.5,74.5 272.5,74.5C 272.5,70.8333 272.5,67.1667 272.5,63.5C 271.448,63.6495 270.448,63.4828 269.5,63C 272.961,62.0064 276.461,61.1731 280,60.5C 283.73,60.9922 287.563,60.9922 291.5,60.5C 301.463,61.9813 311.463,63.148 321.5,64C 323.301,64.3173 323.634,64.984 322.5,66C 328.2,67.0361 333.533,69.0361 338.5,72C 340.833,73 342.5,74.6667 343.5,77C 345.436,77.813 347.436,78.313 349.5,78.5C 349.5,79.5 349.5,80.5 349.5,81.5C 353.961,81.8991 357.294,84.0657 359.5,88C 362.167,89.3333 364.833,90.6667 367.5,92C 366.833,92.6667 366.167,93.3333 365.5,94C 368.511,94.7431 371.178,96.0765 373.5,98C 372.376,98.2492 371.376,98.7492 370.5,99.5C 371.779,101.146 373.445,102.313 375.5,103C 376.833,103.667 376.833,104.333 375.5,105C 376.469,106.758 377.636,107.258 379,106.5C 380.333,108.5 381.667,110.5 383,112.5C 386,112.833 387.667,114.5 388,117.5C 391.279,118.278 393.445,120.278 394.5,123.5C 396.258,124.128 397.758,125.128 399,126.5C 402.336,131.206 405.669,135.872 409,140.5C 410.414,146.234 411.914,151.901 413.5,157.5 Z"
       id="path18" />
  </g>
  <g
     id="g19">
    <path
       style="opacity:1"
       fill="#696665"
       d="M 141.5,43.5 C 142.5,43.5 143.5,43.5 144.5,43.5C 144.5,44.5 144.5,45.5 144.5,46.5C 138.967,48.7601 133.967,51.7601 129.5,55.5C 126.91,56.1283 124.577,57.295 122.5,59C 119.31,61.3644 116.31,63.8644 113.5,66.5C 66.179,101.762 37.679,148.762 28,207.5C 24.9524,227.822 24.7858,248.155 27.5,268.5C 27.5,270.833 27.5,273.167 27.5,275.5C 26.5,275.5 25.5,275.5 24.5,275.5C 23.188,266.732 22.188,258.066 21.5,249.5C 21.1402,231.01 22.6402,212.677 26,194.5C 41.7705,126.589 80.2705,76.2553 141.5,43.5 Z"
       id="path19" />
  </g>
  <g
     id="g20">
    <path
       style="opacity:1"
       fill="#f4f7e4"
       d="M 140.5,106.5 C 135.488,111.51 130.155,116.177 124.5,120.5C 123.5,120.5 122.5,120.5 121.5,120.5C 121.5,119.5 121.5,118.5 121.5,117.5C 112.822,117.097 104.488,118.597 96.5,122C 92.9705,124.65 88.9705,126.483 84.5,127.5C 81.7261,130.887 78.0595,132.721 73.5,133C 72.8715,137.189 70.7048,138.355 67,136.5C 65.6296,139.05 64.4629,141.717 63.5,144.5C 62.3112,145.429 60.9778,145.762 59.5,145.5C 59.5,143.5 59.5,141.5 59.5,139.5C 60.3382,139.158 60.6716,138.492 60.5,137.5C 63.7623,131.307 67.7623,125.64 72.5,120.5C 73.8333,120.5 75.1667,120.5 76.5,120.5C 76.5,119.167 76.5,117.833 76.5,116.5C 78.8333,116.5 81.1667,116.5 83.5,116.5C 83.8333,114.5 84.1667,112.5 84.5,110.5C 90.3841,108.336 96.5508,107.003 103,106.5C 110.456,107.45 117.956,107.784 125.5,107.5C 125.5,106.5 125.5,105.5 125.5,104.5C 130.509,106.001 135.509,106.668 140.5,106.5 Z"
       id="path20" />
  </g>
  <g
     id="g21">
    <path
       style="opacity:1"
       fill="#eaf1d1"
       d="M 124.5,120.5 C 117.789,127.875 111.456,135.542 105.5,143.5C 104.508,143.672 103.842,143.338 103.5,142.5C 102.032,140.084 101.365,137.417 101.5,134.5C 93.9298,136.777 86.5965,139.943 79.5,144C 77.6724,146.497 75.6724,148.83 73.5,151C 71.1902,151.497 68.8568,151.663 66.5,151.5C 67.0289,154.604 66.0289,156.937 63.5,158.5C 62.8333,160.167 62.1667,161.833 61.5,163.5C 59.1667,165.333 56.8333,167.167 54.5,169C 54.8333,169.333 55.1667,169.667 55.5,170C 53.7888,172.589 51.9555,175.089 50,177.5C 46.9571,186.666 43.4571,195.666 39.5,204.5C 38.3452,201.554 38.1786,198.554 39,195.5C 43.9685,176.089 50.8019,157.422 59.5,139.5C 59.5,141.5 59.5,143.5 59.5,145.5C 60.9778,145.762 62.3112,145.429 63.5,144.5C 64.4629,141.717 65.6296,139.05 67,136.5C 70.7048,138.355 72.8715,137.189 73.5,133C 78.0595,132.721 81.7261,130.887 84.5,127.5C 88.9705,126.483 92.9705,124.65 96.5,122C 104.488,118.597 112.822,117.097 121.5,117.5C 121.5,118.5 121.5,119.5 121.5,120.5C 122.5,120.5 123.5,120.5 124.5,120.5 Z"
       id="path21" />
  </g>
  <g
     id="g22">
    <path
       style="opacity:1"
       fill="#bfbebd"
       d="M 431.5,122.5 C 434.516,128.531 437.516,134.531 440.5,140.5C 439.504,140.414 438.671,140.748 438,141.5C 437.138,139.913 436.471,138.246 436,136.5C 435.329,135.748 434.496,135.414 433.5,135.5C 423.881,118.596 412.547,102.929 399.5,88.5C 400.151,87.9094 400.818,87.2427 401.5,86.5C 403.167,87.8333 404.833,89.1667 406.5,90.5C 415.651,100.637 423.985,111.303 431.5,122.5 Z"
       id="path22" />
  </g>
  <g
     id="g23">
    <path
       style="opacity:1"
       fill="#dfeecb"
       d="M 313.5,138.5 C 311.5,139.167 309.5,139.833 307.5,140.5C 301.419,140.514 295.419,141.181 289.5,142.5C 289.158,141.662 288.492,141.328 287.5,141.5C 295.875,137.76 304.542,136.76 313.5,138.5 Z"
       id="path23" />
  </g>
  <g
     id="g24">
    <path
       style="opacity:1"
       fill="#e9eae9"
       d="M 199.5,138.5 C 202.263,138.744 204.429,140.077 206,142.5C 214.991,155.104 216.824,168.77 211.5,183.5C 207.223,190.443 201.89,196.443 195.5,201.5C 186.397,205.932 176.731,207.599 166.5,206.5C 153.02,202.355 143.687,193.688 138.5,180.5C 144.222,174.445 150.556,169.111 157.5,164.5C 157.5,165.833 157.5,167.167 157.5,168.5C 161.509,184.791 171.175,189.291 186.5,182C 195.634,172.212 195.634,162.545 186.5,153C 185.255,152.209 183.922,151.709 182.5,151.5C 181.791,150.596 180.791,150.263 179.5,150.5C 185.463,145.511 192.129,141.511 199.5,138.5 Z"
       id="path24" />
  </g>
  <g
     id="g25">
    <path
       style="opacity:1"
       fill="#b1d392"
       d="M 313.5,138.5 C 322.002,138.671 330.002,140.671 337.5,144.5C 337.423,145.75 336.756,146.583 335.5,147C 336.381,147.708 337.047,148.542 337.5,149.5C 333.661,147.451 329.661,145.618 325.5,144C 321.301,143.472 317.301,142.639 313.5,141.5C 311.735,140.539 309.735,140.205 307.5,140.5C 309.5,139.833 311.5,139.167 313.5,138.5 Z"
       id="path25" />
  </g>
  <g
     id="g26">
    <path
       style="opacity:1"
       fill="#f6f7f6"
       d="M 301.5,142.5 C 306.144,143.326 310.811,144.159 315.5,145C 313.624,145.918 312.624,147.418 312.5,149.5C 310.833,149.5 309.167,149.5 307.5,149.5C 306.833,149.5 306.167,149.5 305.5,149.5C 298.875,150.585 298.375,152.252 304,154.5C 304.769,157.099 304.602,159.599 303.5,162C 298.726,164.199 295.559,162.699 294,157.5C 292.88,159.03 292.046,160.697 291.5,162.5C 290.233,165.272 290.233,167.939 291.5,170.5C 291.5,171.5 291.5,172.5 291.5,173.5C 291.104,176.044 291.771,178.211 293.5,180C 291.754,181.982 290.421,181.815 289.5,179.5C 285.803,179.001 282.469,177.667 279.5,175.5C 278.335,176.491 277.168,177.491 276,178.5C 274.923,177.571 273.756,176.904 272.5,176.5C 267.515,166.574 269.515,158.074 278.5,151C 285.34,145.913 293.007,143.079 301.5,142.5 Z"
       id="path26" />
  </g>
  <g
     id="g27">
    <path
       style="opacity:1"
       fill="#e7e7e6"
       d="M 301.5,142.5 C 305.298,141.517 309.298,141.183 313.5,141.5C 317.301,142.639 321.301,143.472 325.5,144C 329.661,145.618 333.661,147.451 337.5,149.5C 341.52,152.358 344.686,156.025 347,160.5C 347.663,165.537 347.496,170.537 346.5,175.5C 340.52,184.495 332.187,189.829 321.5,191.5C 306.028,194.91 291.694,192.41 278.5,184C 275.906,181.914 273.906,179.414 272.5,176.5C 273.756,176.904 274.923,177.571 276,178.5C 277.168,177.491 278.335,176.491 279.5,175.5C 282.469,177.667 285.803,179.001 289.5,179.5C 290.421,181.815 291.754,181.982 293.5,180C 291.771,178.211 291.104,176.044 291.5,173.5C 297.408,185.11 306.408,188.276 318.5,183C 326.058,177.257 328.558,169.757 326,160.5C 323.6,156.598 320.434,153.598 316.5,151.5C 315.329,150.655 313.995,149.989 312.5,149.5C 312.624,147.418 313.624,145.918 315.5,145C 310.811,144.159 306.144,143.326 301.5,142.5 Z"
       id="path27" />
  </g>
  <g
     id="g28">
    <path
       style="opacity:1"
       fill="#aed380"
       d="M 337.5,144.5 C 340.022,146.172 342.688,147.672 345.5,149C 347.113,151.421 348.447,153.921 349.5,156.5C 345.867,156.443 345.7,157.443 349,159.5C 351.742,165.612 350.909,170.946 346.5,175.5C 347.496,170.537 347.663,165.537 347,160.5C 344.686,156.025 341.52,152.358 337.5,149.5C 337.047,148.542 336.381,147.708 335.5,147C 336.756,146.583 337.423,145.75 337.5,144.5 Z"
       id="path28" />
  </g>
  <g
     id="g29">
    <path
       style="opacity:1"
       fill="#201d19"
       d="M 316.5,151.5 C 320.434,153.598 323.6,156.598 326,160.5C 328.558,169.757 326.058,177.257 318.5,183C 306.408,188.276 297.408,185.11 291.5,173.5C 291.5,172.5 291.5,171.5 291.5,170.5C 301.701,173.761 309.201,170.761 314,161.5C 313.917,157.689 314.75,154.355 316.5,151.5 Z"
       id="path29" />
  </g>
  <g
     id="g30">
    <path
       style="opacity:1"
       fill="#211e1a"
       d="M 182.5,151.5 C 183.922,151.709 185.255,152.209 186.5,153C 195.634,162.545 195.634,172.212 186.5,182C 171.175,189.291 161.509,184.791 157.5,168.5C 167.477,174.28 174.977,171.947 180,161.5C 179.917,157.689 180.75,154.355 182.5,151.5 Z"
       id="path30" />
  </g>
  <g
     id="g31">
    <path
       style="opacity:1"
       fill="#929090"
       d="M 305.5,149.5 C 309.446,161.555 305.112,166.222 292.5,163.5C 292.5,162.833 292.167,162.5 291.5,162.5C 292.046,160.697 292.88,159.03 294,157.5C 295.559,162.699 298.726,164.199 303.5,162C 304.602,159.599 304.769,157.099 304,154.5C 298.375,152.252 298.875,150.585 305.5,149.5 Z"
       id="path31" />
  </g>
  <g
     id="g32">
    <path
       style="opacity:1"
       fill="#eeefeb"
       d="M 172.5,154.5 C 172.203,157.84 170.869,160.674 168.5,163C 166.119,163.738 164.119,163.238 162.5,161.5C 165.475,158.677 168.808,156.344 172.5,154.5 Z"
       id="path32" />
  </g>
  <g
     id="g33">
    <path
       style="opacity:1"
       fill="#f1f6eb"
       d="M 287.5,141.5 C 288.492,141.328 289.158,141.662 289.5,142.5C 279.852,145.925 272.686,152.258 268,161.5C 266.015,171.053 268.848,178.72 276.5,184.5C 276.631,185.239 276.464,185.906 276,186.5C 275.329,185.748 274.496,185.414 273.5,185.5C 260.539,173.845 260.206,161.678 272.5,149C 276.964,145.435 281.964,142.935 287.5,141.5 Z"
       id="path33" />
  </g>
  <g
     id="g34">
    <path
       style="opacity:1"
       fill="#848381"
       d="M 176.5,151.5 C 176.886,155.876 176.219,160.043 174.5,164C 171.819,164.458 169.319,165.291 167,166.5C 164.489,166.16 162.322,165.16 160.5,163.5C 160.5,162.167 161.167,161.5 162.5,161.5C 164.119,163.238 166.119,163.738 168.5,163C 170.869,160.674 172.203,157.84 172.5,154.5C 173.795,153.512 175.128,152.512 176.5,151.5 Z"
       id="path34" />
  </g>
  <g
     id="g35">
    <path
       style="opacity:1"
       fill="#524f4d"
       d="M 179.5,150.5 C 180.791,150.263 181.791,150.596 182.5,151.5C 180.75,154.355 179.917,157.689 180,161.5C 174.977,171.947 167.477,174.28 157.5,168.5C 157.5,167.167 157.5,165.833 157.5,164.5C 158.391,163.89 159.391,163.557 160.5,163.5C 162.322,165.16 164.489,166.16 167,166.5C 169.319,165.291 171.819,164.458 174.5,164C 176.219,160.043 176.886,155.876 176.5,151.5C 177.609,151.443 178.609,151.11 179.5,150.5 Z"
       id="path35" />
  </g>
  <g
     id="g36">
    <path
       style="opacity:1"
       fill="#737271"
       d="M 305.5,149.5 C 306.167,149.5 306.833,149.5 307.5,149.5C 309.994,151.009 310.994,153.342 310.5,156.5C 310.011,163.481 306.177,166.814 299,166.5C 296.04,166.959 293.874,165.959 292.5,163.5C 305.112,166.222 309.446,161.555 305.5,149.5 Z"
       id="path36" />
  </g>
  <g
     id="g37">
    <path
       style="opacity:1"
       fill="#d8e8b9"
       d="M 103.5,142.5 C 103.842,143.338 104.508,143.672 105.5,143.5C 100.956,149.936 96.9557,156.603 93.5,163.5C 88.6713,163.535 83.6713,163.701 78.5,164C 77.5473,167.953 75.0473,170.119 71,170.5C 71.266,173.901 69.766,175.567 66.5,175.5C 65.448,175.351 64.448,175.517 63.5,176C 60.4322,179.041 58.2655,182.541 57,186.5C 54.8669,187.255 53.2002,188.588 52,190.5C 51.7435,194.377 50.7435,198.043 49,201.5C 48.6667,200.833 48.3333,200.167 48,199.5C 47.9005,201.653 47.0672,203.319 45.5,204.5C 46.5692,198.465 48.7359,192.799 52,187.5C 52.4955,185.527 52.6621,183.527 52.5,181.5C 54.1439,181.714 55.6439,181.38 57,180.5C 57.7189,176.855 58.2189,173.188 58.5,169.5C 59.552,169.649 60.552,169.483 61.5,169C 62.678,165.566 64.8446,162.399 68,159.5C 69.1096,157.963 70.6096,157.297 72.5,157.5C 72.3632,152.806 74.6965,150.639 79.5,151C 81.4032,149.553 83.0699,147.886 84.5,146C 88.1777,146.037 91.3444,144.871 94,142.5C 97.5053,143.505 100.672,143.505 103.5,142.5 Z"
       id="path37" />
  </g>
  <g
     id="g38">
    <path
       style="opacity:1"
       fill="#504e4b"
       d="M 307.5,149.5 C 309.167,149.5 310.833,149.5 312.5,149.5C 313.995,149.989 315.329,150.655 316.5,151.5C 314.75,154.355 313.917,157.689 314,161.5C 309.201,170.761 301.701,173.761 291.5,170.5C 290.233,167.939 290.233,165.272 291.5,162.5C 292.167,162.5 292.5,162.833 292.5,163.5C 293.874,165.959 296.04,166.959 299,166.5C 306.177,166.814 310.011,163.481 310.5,156.5C 310.994,153.342 309.994,151.009 307.5,149.5 Z"
       id="path38" />
  </g>
  <g
     id="g39">
    <path
       style="opacity:1"
       fill="#6ca37d"
       d="M 307.5,140.5 C 309.735,140.205 311.735,140.539 313.5,141.5C 309.298,141.183 305.298,141.517 301.5,142.5C 293.007,143.079 285.34,145.913 278.5,151C 269.515,158.074 267.515,166.574 272.5,176.5C 273.906,179.414 275.906,181.914 278.5,184C 291.694,192.41 306.028,194.91 321.5,191.5C 314.19,194.13 306.524,195.13 298.5,194.5C 290.76,192.301 283.426,188.967 276.5,184.5C 268.848,178.72 266.015,171.053 268,161.5C 272.686,152.258 279.852,145.925 289.5,142.5C 295.419,141.181 301.419,140.514 307.5,140.5 Z"
       id="path39" />
  </g>
  <g
     id="g40">
    <path
       style="opacity:1"
       fill="#b1d582"
       d="M 211.5,183.5 C 216.824,168.77 214.991,155.104 206,142.5C 204.429,140.077 202.263,138.744 199.5,138.5C 202.146,136.546 205.146,135.713 208.5,136C 218.563,146.834 222.063,159.334 219,173.5C 218.667,170.167 218.333,166.833 218,163.5C 217.993,170.218 216.493,176.552 213.5,182.5C 213.043,183.298 212.376,183.631 211.5,183.5 Z"
       id="path40" />
  </g>
  <g
     id="g41">
    <path
       style="opacity:1"
       fill="#ebedc3"
       d="M 60.5,137.5 C 60.6716,138.492 60.3382,139.158 59.5,139.5C 50.8019,157.422 43.9685,176.089 39,195.5C 38.1786,198.554 38.3452,201.554 39.5,204.5C 43.4571,195.666 46.9571,186.666 50,177.5C 51.9555,175.089 53.7888,172.589 55.5,170C 55.1667,169.667 54.8333,169.333 54.5,169C 56.8333,167.167 59.1667,165.333 61.5,163.5C 62.1667,161.833 62.8333,160.167 63.5,158.5C 66.0289,156.937 67.0289,154.604 66.5,151.5C 68.8568,151.663 71.1902,151.497 73.5,151C 75.6724,148.83 77.6724,146.497 79.5,144C 86.5965,139.943 93.9298,136.777 101.5,134.5C 101.365,137.417 102.032,140.084 103.5,142.5C 100.672,143.505 97.5053,143.505 94,142.5C 91.3444,144.871 88.1777,146.037 84.5,146C 83.0699,147.886 81.4032,149.553 79.5,151C 74.6965,150.639 72.3632,152.806 72.5,157.5C 70.6096,157.297 69.1096,157.963 68,159.5C 64.8446,162.399 62.678,165.566 61.5,169C 60.552,169.483 59.552,169.649 58.5,169.5C 58.2189,173.188 57.7189,176.855 57,180.5C 55.6439,181.38 54.1439,181.714 52.5,181.5C 52.6621,183.527 52.4955,185.527 52,187.5C 48.7359,192.799 46.5692,198.465 45.5,204.5C 44.1667,204.5 42.8333,204.5 41.5,204.5C 38.865,214.313 37.5317,224.313 37.5,234.5C 36.325,234.281 35.325,234.614 34.5,235.5C 35.1078,251.752 36.7744,268.085 39.5,284.5C 42.738,295.199 45.738,305.866 48.5,316.5C 49.5,316.5 50.5,316.5 51.5,316.5C 51.3947,320.687 52.228,324.687 54,328.5C 57.9258,335.119 61.9258,341.786 66,348.5C 66.49,349.793 66.6567,351.127 66.5,352.5C 65.735,351.34 64.735,350.34 63.5,349.5C 60.1084,342.865 56.6084,336.199 53,329.5C 49.0023,328.822 46.8356,326.489 46.5,322.5C 45.325,322.719 44.325,322.386 43.5,321.5C 42.8882,318.567 41.5549,316.234 39.5,314.5C 39.5,314.167 39.5,313.833 39.5,313.5C 39.6655,309.486 39.4988,305.486 39,301.5C 38.5814,300.328 37.9147,299.328 37,298.5C 30.8337,271.556 28.8337,244.223 31,216.5C 32.5681,200.912 35.7348,185.746 40.5,171C 40.1667,170 39.8333,169 39.5,168C 40.7332,164.383 42.0665,160.883 43.5,157.5C 44.9778,157.762 46.3112,157.429 47.5,156.5C 48.3128,155.186 49.3128,154.019 50.5,153C 50.1667,152.667 49.8333,152.333 49.5,152C 52.3882,151.319 53.0548,149.819 51.5,147.5C 53.9407,143.705 56.1074,139.705 58,135.5C 61.031,132.94 61.8644,133.606 60.5,137.5 Z"
       id="path41" />
  </g>
  <g
     id="g42">
    <path
       style="opacity:1"
       fill="#c4dea7"
       d="M 136.5,182.5 C 138.037,185.9 139.87,189.233 142,192.5C 145.038,195.369 147.871,198.369 150.5,201.5C 149.504,201.414 148.671,201.748 148,202.5C 146.549,200.536 144.716,199.203 142.5,198.5C 138.142,194.962 135.142,190.462 133.5,185C 134.13,183.69 135.13,182.856 136.5,182.5 Z"
       id="path42" />
  </g>
  <g
     id="g43">
    <path
       style="opacity:1"
       fill="#c0dda5"
       d="M 276.5,184.5 C 283.426,188.967 290.76,192.301 298.5,194.5C 290.463,195.431 283.129,193.598 276.5,189C 275.29,187.961 274.29,186.794 273.5,185.5C 274.496,185.414 275.329,185.748 276,186.5C 276.464,185.906 276.631,185.239 276.5,184.5 Z"
       id="path43" />
  </g>
  <g
     id="g44">
    <path
       style="opacity:1"
       fill="#65a174"
       d="M 138.5,180.5 C 143.687,193.688 153.02,202.355 166.5,206.5C 164.143,206.663 161.81,206.497 159.5,206C 156.447,204.473 153.447,202.973 150.5,201.5C 147.871,198.369 145.038,195.369 142,192.5C 139.87,189.233 138.037,185.9 136.5,182.5C 136.833,181.5 137.5,180.833 138.5,180.5 Z"
       id="path44" />
  </g>
  <g
     id="g45">
    <path
       style="opacity:1"
       fill="#96c17d"
       d="M 142.5,198.5 C 144.716,199.203 146.549,200.536 148,202.5C 148.671,201.748 149.504,201.414 150.5,201.5C 153.447,202.973 156.447,204.473 159.5,206C 161.81,206.497 164.143,206.663 166.5,206.5C 176.731,207.599 186.397,205.932 195.5,201.5C 193.887,204.74 191.22,206.24 187.5,206C 186.167,207 184.833,208 183.5,209C 176.63,209.221 169.797,209.721 163,210.5C 154.903,209.346 148.069,205.346 142.5,198.5 Z"
       id="path45" />
  </g>
  <g
     id="g46">
    <path
       style="opacity:1"
       fill="#d4d4d3"
       d="M 433.5,135.5 C 434.496,135.414 435.329,135.748 436,136.5C 436.471,138.246 437.138,139.913 438,141.5C 438.671,140.748 439.504,140.414 440.5,140.5C 443.41,146.019 446.243,151.686 449,157.5C 451.768,165.973 454.601,174.306 457.5,182.5C 461.13,197.647 463.463,212.98 464.5,228.5C 464.826,236.684 464.492,244.684 463.5,252.5C 461.525,242.565 460.192,232.565 459.5,222.5C 457.162,191.453 448.495,162.453 433.5,135.5 Z"
       id="path46" />
  </g>
  <g
     id="g47">
    <path
       style="opacity:1"
       fill="#808385"
       d="M 473.5,228.5 C 472.527,230.948 472.194,233.615 472.5,236.5C 471.5,236.5 470.5,236.5 469.5,236.5C 469.5,237.5 469.5,238.5 469.5,239.5C 468.178,239.67 467.011,239.337 466,238.5C 465.821,234.975 465.321,231.641 464.5,228.5C 463.463,212.98 461.13,197.647 457.5,182.5C 458.209,181.596 459.209,181.263 460.5,181.5C 460.5,180.5 460.5,179.5 460.5,178.5C 462.144,178.714 463.644,178.38 465,177.5C 470.549,194.034 473.382,211.034 473.5,228.5 Z"
       id="path47" />
  </g>
  <g
     id="g48">
    <path
       style="opacity:1"
       fill="#c3d992"
       d="M 376.5,95.5 C 377.708,96.2341 379.041,96.5674 380.5,96.5C 380.5,100.5 382.5,102.5 386.5,102.5C 386.342,106.696 388.342,108.863 392.5,109C 394.554,111.544 396.887,113.877 399.5,116C 399.167,116.333 398.833,116.667 398.5,117C 406.618,126.747 414.118,136.913 421,147.5C 422.127,150.377 422.794,153.377 423,156.5C 425.215,158.79 426.881,161.457 428,164.5C 429.242,170.49 431.242,176.157 434,181.5C 433.504,189.703 434.837,197.703 438,205.5C 440,228.5 440,251.5 438,274.5C 436.012,280.311 434.512,286.311 433.5,292.5C 432.984,295.251 431.817,297.584 430,299.5C 429.226,303.147 428.559,306.814 428,310.5C 424.395,317.387 420.561,324.054 416.5,330.5C 416.925,326.393 418.425,322.726 421,319.5C 421.333,316.5 421.667,313.5 422,310.5C 441.333,263.5 441.333,216.5 422,169.5C 421.667,166.5 421.333,163.5 421,160.5C 411.55,139.93 398.883,121.597 383,105.5C 380.19,102.536 378.024,99.2022 376.5,95.5 Z"
       id="path48" />
  </g>
  <g
     id="g49">
    <path
       style="opacity:1"
       fill="#dfe7b2"
       d="M 66.5,175.5 C 67.0086,179.4 65.3419,181.733 61.5,182.5C 60.6906,184.071 60.3573,185.738 60.5,187.5C 59.5,187.5 58.5,187.5 57.5,187.5C 53.4622,197.019 50.1289,206.686 47.5,216.5C 44.799,229.944 42.4657,243.444 40.5,257C 42.0993,258.786 42.9326,260.953 43,263.5C 43.4953,280.323 47.1619,296.323 54,311.5C 54.4986,315.152 54.6653,318.818 54.5,322.5C 55.8333,322.5 57.1667,322.5 58.5,322.5C 57.5885,327.377 58.9218,331.377 62.5,334.5C 65.2578,339.684 67.7578,345.017 70,350.5C 80.7563,364.883 92.2563,378.049 104.5,390C 112.692,396.698 120.692,403.531 128.5,410.5C 114.698,403.835 102.531,394.835 92,383.5C 91.7265,381.671 90.8932,380.171 89.5,379C 87.7604,377.306 85.7604,376.139 83.5,375.5C 81.7627,373.206 80.596,370.54 80,367.5C 79.3333,366.167 78.6667,366.167 78,367.5C 76.609,364.664 74.7757,362.331 72.5,360.5C 69.3528,358.687 67.3528,356.02 66.5,352.5C 66.6567,351.127 66.49,349.793 66,348.5C 61.9258,341.786 57.9258,335.119 54,328.5C 52.228,324.687 51.3947,320.687 51.5,316.5C 50.5,316.5 49.5,316.5 48.5,316.5C 45.738,305.866 42.738,295.199 39.5,284.5C 36.7744,268.085 35.1078,251.752 34.5,235.5C 35.325,234.614 36.325,234.281 37.5,234.5C 37.5317,224.313 38.865,214.313 41.5,204.5C 42.8333,204.5 44.1667,204.5 45.5,204.5C 47.0672,203.319 47.9005,201.653 48,199.5C 48.3333,200.167 48.6667,200.833 49,201.5C 50.7435,198.043 51.7435,194.377 52,190.5C 53.2002,188.588 54.8669,187.255 57,186.5C 58.2655,182.541 60.4322,179.041 63.5,176C 64.448,175.517 65.448,175.351 66.5,175.5 Z"
       id="path49" />
  </g>
  <g
     id="g50">
    <path
       style="opacity:1"
       fill="#c5db97"
       d="M 85.5,181.5 C 83.2626,188.202 81.2626,194.869 79.5,201.5C 78.596,202.209 78.2627,203.209 78.5,204.5C 74.5,204.5 70.5,204.5 66.5,204.5C 66.5,206.5 66.5,208.5 66.5,210.5C 63.234,210.433 61.734,212.099 62,215.5C 60.9887,216.337 59.8221,216.67 58.5,216.5C 58.5,218.5 58.5,220.5 58.5,222.5C 57.5,222.5 56.5,222.5 55.5,222.5C 55.8495,225.045 55.0162,227.045 53,228.5C 51.5218,242.136 51.1885,255.802 52,269.5C 54.22,279.124 56.5533,288.79 59,298.5C 62.4217,308.331 66.0883,317.998 70,327.5C 72.5449,330.13 74.5449,333.13 76,336.5C 76.49,337.793 76.6567,339.127 76.5,340.5C 77.5,340.5 78.5,340.5 79.5,340.5C 79.7553,343.016 80.5886,345.35 82,347.5C 85.1549,349.83 87.3216,352.83 88.5,356.5C 93.9093,362.338 99.076,368.338 104,374.5C 105.011,375.337 106.178,375.67 107.5,375.5C 107.281,376.675 107.614,377.675 108.5,378.5C 109.695,380.297 111.362,381.297 113.5,381.5C 113.5,382.5 113.5,383.5 113.5,384.5C 120.948,389.772 128.281,395.272 135.5,401C 137.765,402.118 140.099,402.951 142.5,403.5C 142.33,404.822 142.663,405.989 143.5,407C 148.001,407.917 152.001,409.917 155.5,413C 209.383,438.017 264.049,440.017 319.5,419C 328.136,414.682 336.802,410.349 345.5,406C 353.137,400.373 360.804,394.706 368.5,389C 369.337,387.989 369.67,386.822 369.5,385.5C 371.308,385.509 372.975,385.009 374.5,384C 380.858,377.062 387.358,370.229 394,363.5C 394.483,362.552 394.649,361.552 394.5,360.5C 395.5,360.5 396.5,360.5 397.5,360.5C 395.86,363.149 394.193,365.816 392.5,368.5C 392.709,369.086 393.043,369.586 393.5,370C 391.453,371.073 389.453,372.239 387.5,373.5C 386.754,374.736 386.421,376.07 386.5,377.5C 382.5,377.5 380.5,379.5 380.5,383.5C 378.692,383.491 377.025,383.991 375.5,385C 374.242,388.388 372.242,391.221 369.5,393.5C 364.206,396.468 359.54,400.135 355.5,404.5C 351.923,406.567 347.923,407.734 343.5,408C 342.315,409.353 340.981,410.52 339.5,411.5C 331.439,414.125 323.939,417.792 317,422.5C 315.455,421.179 314.289,421.512 313.5,423.5C 306.377,425.707 299.377,428.207 292.5,431C 285.731,431.628 279.064,432.795 272.5,434.5C 251.193,436.857 229.859,437.023 208.5,435C 196.165,432.364 184.165,429.198 172.5,425.5C 170.396,425.799 168.396,425.466 166.5,424.5C 154.964,418.478 143.297,412.645 131.5,407C 127.5,403.333 123.5,399.667 119.5,396C 117.044,394.289 114.377,392.956 111.5,392C 100.437,381.955 90.9372,370.788 83,358.5C 81.7365,356.393 79.9032,355.393 77.5,355.5C 77.6567,354.127 77.49,352.793 77,351.5C 71.205,341.245 65.705,330.912 60.5,320.5C 58.7999,308.784 55.1332,297.784 49.5,287.5C 45.7544,270.729 44.5878,253.729 46,236.5C 48.4756,225.578 51.6423,214.911 55.5,204.5C 56.5,204.5 57.5,204.5 58.5,204.5C 58.3398,202.801 58.5065,201.134 59,199.5C 62.1092,194.866 64.6092,189.866 66.5,184.5C 70.3395,182.917 74.3395,181.917 78.5,181.5C 80.6413,181.613 82.4747,182.28 84,183.5C 84.2784,182.584 84.7784,181.918 85.5,181.5 Z"
       id="path50" />
  </g>
  <g
     id="g51">
    <path
       style="opacity:1"
       fill="#d4d3d3"
       d="M 12.5,248.5 C 12.5572,254.851 12.8905,261.185 13.5,267.5C 15.8045,281.98 18.9712,296.313 23,310.5C 24.7067,311.138 26.54,311.138 28.5,310.5C 28.7927,306.54 29.126,302.874 29.5,299.5C 36.4395,323.377 47.1062,345.377 61.5,365.5C 61.5,366.167 61.5,366.833 61.5,367.5C 60.695,369.213 59.695,370.879 58.5,372.5C 57.5344,374.396 57.2011,376.396 57.5,378.5C 56.448,378.351 55.448,378.517 54.5,379C 55.2524,379.671 55.5858,380.504 55.5,381.5C 26.7289,343.816 11.0622,301.15 8.5,253.5C 8.33365,245.826 8.50031,238.159 9,230.5C 9.5,229.5 10,228.5 10.5,227.5C 9.41043,226.391 9.41043,225.391 10.5,224.5C 11.1667,232.657 11.8334,240.657 12.5,248.5 Z"
       id="path51" />
  </g>
  <g
     id="g52">
    <path
       style="opacity:1"
       fill="#e4e3e4"
       d="M 21.5,249.5 C 22.188,258.066 23.188,266.732 24.5,275.5C 25.9071,283.535 27.5738,291.535 29.5,299.5C 29.126,302.874 28.7927,306.54 28.5,310.5C 26.54,311.138 24.7067,311.138 23,310.5C 18.9712,296.313 15.8045,281.98 13.5,267.5C 14.1174,267.611 14.6174,267.944 15,268.5C 16.049,266.893 17.549,266.227 19.5,266.5C 20.4657,260.888 21.1324,255.221 21.5,249.5 Z"
       id="path52" />
  </g>
  <g
     id="g53">
    <path
       style="opacity:1"
       fill="#6e7377"
       d="M 464.5,228.5 C 465.321,231.641 465.821,234.975 466,238.5C 467.011,239.337 468.178,239.67 469.5,239.5C 469.5,238.5 469.5,237.5 469.5,236.5C 470.5,236.5 471.5,236.5 472.5,236.5C 472.194,233.615 472.527,230.948 473.5,228.5C 475.086,250.468 473.086,272.135 467.5,293.5C 465.293,292.13 463.626,292.797 462.5,295.5C 461.614,299.476 460.948,303.476 460.5,307.5C 459.5,307.5 458.5,307.5 457.5,307.5C 457.5,308.5 457.5,309.5 457.5,310.5C 456.167,310.5 454.833,310.5 453.5,310.5C 453.843,312.483 453.176,313.817 451.5,314.5C 458.927,294.518 462.927,273.852 463.5,252.5C 464.492,244.684 464.826,236.684 464.5,228.5 Z"
       id="path53" />
  </g>
  <g
     id="g54">
    <path
       style="opacity:1"
       fill="#e4e4e3"
       d="M 459.5,222.5 C 460.192,232.565 461.525,242.565 463.5,252.5C 462.927,273.852 458.927,294.518 451.5,314.5C 429.451,372.545 390.451,414.879 334.5,441.5C 334.134,440.305 333.301,439.639 332,439.5C 327.108,442.178 321.941,443.845 316.5,444.5C 391.384,414.575 438.217,360.242 457,281.5C 459.041,261.886 459.875,242.219 459.5,222.5 Z"
       id="path54" />
  </g>
  <g
     id="g55">
    <path
       style="opacity:1"
       fill="#f1eccb"
       d="M 113.5,66.5 C 111.839,69.8042 110.172,73.1376 108.5,76.5C 106.556,77.1892 104.556,77.6892 102.5,78C 101.62,79.3561 101.286,80.8561 101.5,82.5C 100.448,82.3505 99.448,82.5172 98.5,83C 96.2834,86.4581 93.6168,89.4581 90.5,92C 90.5978,93.618 90.5978,95.118 90.5,96.5C 83.3031,103.684 77.3031,111.684 72.5,120.5C 67.7623,125.64 63.7623,131.307 60.5,137.5C 61.8644,133.606 61.031,132.94 58,135.5C 56.1074,139.705 53.9407,143.705 51.5,147.5C 53.0548,149.819 52.3882,151.319 49.5,152C 49.8333,152.333 50.1667,152.667 50.5,153C 49.3128,154.019 48.3128,155.186 47.5,156.5C 46.3112,157.429 44.9778,157.762 43.5,157.5C 42.0665,160.883 40.7332,164.383 39.5,168C 39.8333,169 40.1667,170 40.5,171C 35.7348,185.746 32.5681,200.912 31,216.5C 28.8337,244.223 30.8337,271.556 37,298.5C 37.9147,299.328 38.5814,300.328 39,301.5C 39.4988,305.486 39.6655,309.486 39.5,313.5C 37.0736,309.188 35.2403,304.521 34,299.5C 31.4872,289.096 29.3205,278.763 27.5,268.5C 24.7858,248.155 24.9524,227.822 28,207.5C 37.679,148.762 66.179,101.762 113.5,66.5 Z"
       id="path55" />
  </g>
  <g
     id="g56">
    <path
       style="opacity:1"
       fill="#dbe4ac"
       d="M 431.5,163.5 C 433.067,164.681 433.901,166.347 434,168.5C 435.333,169.167 436.667,169.833 438,170.5C 441.281,186.174 444.615,200.508 448,213.5C 454.797,282.862 433.964,341.696 385.5,390C 384.207,390.49 382.873,390.657 381.5,390.5C 381.703,392.39 381.037,393.89 379.5,395C 374.429,398.023 369.429,401.19 364.5,404.5C 362.721,408.114 360.055,410.947 356.5,413C 354.285,414.044 351.952,414.71 349.5,415C 348.514,417.328 346.514,419.328 343.5,421C 338.158,423.588 332.658,425.755 327,427.5C 325.495,428.673 323.995,429.839 322.5,431C 317.572,432.322 312.572,433.322 307.5,434C 308.833,434.667 308.833,435.333 307.5,436C 296.784,438.453 286.118,441.12 275.5,444C 253.838,445.955 232.172,445.955 210.5,444C 202.832,442.947 195.832,440.447 189.5,436.5C 199.347,438.822 209.347,440.155 219.5,440.5C 227.215,442.051 235.048,442.718 243,442.5C 257.475,441.485 271.975,440.319 286.5,439C 297.246,434.975 308.246,431.475 319.5,428.5C 319.5,427.5 319.5,426.5 319.5,425.5C 323.596,424.548 327.596,423.382 331.5,422C 334.048,419.558 337.048,417.892 340.5,417C 339.167,416.333 339.167,415.667 340.5,415C 343.596,412.785 346.929,411.119 350.5,410C 352.373,408.296 354.04,406.463 355.5,404.5C 360.457,401.685 365.457,398.852 370.5,396C 373,393.5 375.5,391 378,388.5C 378.333,388.833 378.667,389.167 379,389.5C 381.281,383.43 385.448,379.263 391.5,377C 391.682,373.846 393.682,372.18 397.5,372C 398.833,371 398.833,370 397.5,369C 401.901,364.789 405.234,359.956 407.5,354.5C 408.822,354.67 409.989,354.337 411,353.5C 413.58,344.349 418.246,336.349 425,329.5C 425.465,324.94 427.132,320.94 430,317.5C 430.945,313.886 431.612,310.219 432,306.5C 434.428,303.982 436.095,300.982 437,297.5C 439.417,286.248 441.251,274.915 442.5,263.5C 443.5,263.5 444.5,263.5 445.5,263.5C 445.995,243.749 445.329,224.083 443.5,204.5C 442.5,204.5 441.5,204.5 440.5,204.5C 438.245,190.621 435.245,176.954 431.5,163.5 Z"
       id="path56" />
  </g>
  <g
     id="g57">
    <path
       style="opacity:1"
       fill="#cddea0"
       d="M 331.5,55.5 C 331.511,57.0174 332.177,58.1841 333.5,59C 336.595,59.7138 339.595,60.7138 342.5,62C 343.833,62.6667 343.833,63.3333 342.5,64C 346.7,67.6001 351.367,70.4334 356.5,72.5C 357.386,73.325 357.719,74.325 357.5,75.5C 359.308,75.4914 360.975,75.9914 362.5,77C 365.613,79.9602 368.78,82.7935 372,85.5C 372.725,83.842 373.892,83.342 375.5,84C 377.117,87.2843 379.45,89.9509 382.5,92C 382.167,92.3333 381.833,92.6667 381.5,93C 385.421,97.2001 389.754,100.867 394.5,104C 394.167,104.333 393.833,104.667 393.5,105C 396.072,109.2 399.239,113.367 403,117.5C 404.532,119.562 406.532,120.896 409,121.5C 410.297,126.09 412.13,130.423 414.5,134.5C 417.688,137.539 419.855,141.206 421,145.5C 426.696,150.068 429.196,156.068 428.5,163.5C 429.5,163.5 430.5,163.5 431.5,163.5C 435.245,176.954 438.245,190.621 440.5,204.5C 441.5,204.5 442.5,204.5 443.5,204.5C 445.329,224.083 445.995,243.749 445.5,263.5C 444.5,263.5 443.5,263.5 442.5,263.5C 441.251,274.915 439.417,286.248 437,297.5C 436.095,300.982 434.428,303.982 432,306.5C 431.612,310.219 430.945,313.886 430,317.5C 427.132,320.94 425.465,324.94 425,329.5C 418.246,336.349 413.58,344.349 411,353.5C 409.989,354.337 408.822,354.67 407.5,354.5C 405.234,359.956 401.901,364.789 397.5,369C 398.833,370 398.833,371 397.5,372C 393.682,372.18 391.682,373.846 391.5,377C 385.448,379.263 381.281,383.43 379,389.5C 378.667,389.167 378.333,388.833 378,388.5C 375.5,391 373,393.5 370.5,396C 365.457,398.852 360.457,401.685 355.5,404.5C 359.54,400.135 364.206,396.468 369.5,393.5C 372.242,391.221 374.242,388.388 375.5,385C 377.025,383.991 378.692,383.491 380.5,383.5C 380.5,379.5 382.5,377.5 386.5,377.5C 386.421,376.07 386.754,374.736 387.5,373.5C 389.453,372.239 391.453,371.073 393.5,370C 393.043,369.586 392.709,369.086 392.5,368.5C 394.193,365.816 395.86,363.149 397.5,360.5C 397.491,358.692 397.991,357.025 399,355.5C 404.878,347.045 410.711,338.711 416.5,330.5C 420.561,324.054 424.395,317.387 428,310.5C 428.559,306.814 429.226,303.147 430,299.5C 431.817,297.584 432.984,295.251 433.5,292.5C 434.512,286.311 436.012,280.311 438,274.5C 440,251.5 440,228.5 438,205.5C 434.837,197.703 433.504,189.703 434,181.5C 431.242,176.157 429.242,170.49 428,164.5C 426.881,161.457 425.215,158.79 423,156.5C 422.794,153.377 422.127,150.377 421,147.5C 414.118,136.913 406.618,126.747 398.5,117C 398.833,116.667 399.167,116.333 399.5,116C 396.887,113.877 394.554,111.544 392.5,109C 388.342,108.863 386.342,106.696 386.5,102.5C 382.5,102.5 380.5,100.5 380.5,96.5C 379.041,96.5674 377.708,96.2341 376.5,95.5C 376.167,95.5 375.833,95.5 375.5,95.5C 375.108,93.8211 374.608,92.1545 374,90.5C 372.197,90.9055 370.364,90.4055 368.5,89C 367.333,87.1667 366.167,85.3333 365,83.5C 358.078,77.7509 350.578,72.9175 342.5,69C 337.906,63.9717 332.239,61.1384 325.5,60.5C 325.5,59.5 325.5,58.5 325.5,57.5C 321.5,57.1667 317.5,56.8333 313.5,56.5C 313.5,55.5 313.5,54.5 313.5,53.5C 304.822,51.2483 295.988,49.915 287,49.5C 276.217,51.0237 265.383,51.6904 254.5,51.5C 254.5,52.5 254.5,53.5 254.5,54.5C 251.482,54.3354 248.482,54.502 245.5,55C 243.774,56.5298 241.774,57.5298 239.5,58C 237.393,59.2635 236.393,61.0968 236.5,63.5C 235.5,63.5 234.5,63.5 233.5,63.5C 233.687,65.5643 234.187,67.5643 235,69.5C 237.158,70.0502 237.658,71.0502 236.5,72.5C 232.629,72.185 228.962,72.5184 225.5,73.5C 220.833,74.1667 216.167,74.8333 211.5,75.5C 212.263,74.7321 213.263,74.2321 214.5,74C 213.833,68.6667 213.167,63.3333 212.5,58C 214.422,56.767 216.589,56.6004 219,57.5C 221.239,56.9089 223.406,56.2422 225.5,55.5C 225.5,54.5 225.5,53.5 225.5,52.5C 229.119,51.7564 232.785,51.423 236.5,51.5C 242.657,50.7276 248.657,49.2276 254.5,47C 275.452,45.2988 295.952,47.1321 316,52.5C 316.333,52.1667 316.667,51.8333 317,51.5C 321.759,53.3681 326.593,54.7015 331.5,55.5 Z"
       id="path57" />
  </g>
  <g
     id="g58">
    <path
       style="opacity:1"
       fill="#9a999a"
       d="M 437.5,107.5 C 479.113,170.131 489.279,237.797 468,310.5C 445.994,376.168 403.828,424.002 341.5,454C 325.699,460.903 309.366,466.07 292.5,469.5C 288.629,469.815 284.962,469.482 281.5,468.5C 286.134,467.04 290.801,465.707 295.5,464.5C 374.455,444.242 429.288,396.242 460,320.5C 463.01,311.637 465.51,302.637 467.5,293.5C 473.086,272.135 475.086,250.468 473.5,228.5C 473.382,211.034 470.549,194.034 465,177.5C 463.644,178.38 462.144,178.714 460.5,178.5C 460.5,179.5 460.5,180.5 460.5,181.5C 459.209,181.263 458.209,181.596 457.5,182.5C 454.601,174.306 451.768,165.973 449,157.5C 446.243,151.686 443.41,146.019 440.5,140.5C 437.516,134.531 434.516,128.531 431.5,122.5C 433.5,122.5 435.5,122.5 437.5,122.5C 437.5,117.5 437.5,112.5 437.5,107.5 Z"
       id="path58" />
  </g>
  <g
     id="g59">
    <path
       style="opacity:1"
       fill="#787675"
       d="M 27.5,268.5 C 29.3205,278.763 31.4872,289.096 34,299.5C 35.2403,304.521 37.0736,309.188 39.5,313.5C 39.5,313.833 39.5,314.167 39.5,314.5C 44.9119,329.988 51.9119,344.655 60.5,358.5C 60.9617,360.757 61.9617,362.757 63.5,364.5C 63.0431,365.298 62.3764,365.631 61.5,365.5C 47.1062,345.377 36.4395,323.377 29.5,299.5C 27.5738,291.535 25.9071,283.535 24.5,275.5C 25.5,275.5 26.5,275.5 27.5,275.5C 27.5,273.167 27.5,270.833 27.5,268.5 Z"
       id="path59" />
  </g>
  <g
     id="g60">
    <path
       style="opacity:1"
       fill="#bad58a"
       d="M 375.5,95.5 C 375.833,95.5 376.167,95.5 376.5,95.5C 378.024,99.2022 380.19,102.536 383,105.5C 398.883,121.597 411.55,139.93 421,160.5C 421.333,163.5 421.667,166.5 422,169.5C 441.333,216.5 441.333,263.5 422,310.5C 421.667,313.5 421.333,316.5 421,319.5C 418.425,322.726 416.925,326.393 416.5,330.5C 410.711,338.711 404.878,347.045 399,355.5C 397.991,357.025 397.491,358.692 397.5,360.5C 396.5,360.5 395.5,360.5 394.5,360.5C 394.649,361.552 394.483,362.552 394,363.5C 387.358,370.229 380.858,377.062 374.5,384C 372.975,385.009 371.308,385.509 369.5,385.5C 369.67,386.822 369.337,387.989 368.5,389C 360.804,394.706 353.137,400.373 345.5,406C 336.802,410.349 328.136,414.682 319.5,419C 264.049,440.017 209.383,438.017 155.5,413C 152.001,409.917 148.001,407.917 143.5,407C 142.663,405.989 142.33,404.822 142.5,403.5C 140.099,402.951 137.765,402.118 135.5,401C 128.281,395.272 120.948,389.772 113.5,384.5C 113.5,383.5 113.5,382.5 113.5,381.5C 111.362,381.297 109.695,380.297 108.5,378.5C 107.614,377.675 107.281,376.675 107.5,375.5C 106.178,375.67 105.011,375.337 104,374.5C 99.076,368.338 93.9093,362.338 88.5,356.5C 87.3216,352.83 85.1549,349.83 82,347.5C 80.5886,345.35 79.7553,343.016 79.5,340.5C 78.5,340.5 77.5,340.5 76.5,340.5C 76.6567,339.127 76.49,337.793 76,336.5C 74.5449,333.13 72.5449,330.13 70,327.5C 66.0883,317.998 62.4217,308.331 59,298.5C 56.5533,288.79 54.22,279.124 52,269.5C 51.1885,255.802 51.5218,242.136 53,228.5C 55.0162,227.045 55.8495,225.045 55.5,222.5C 56.5,222.5 57.5,222.5 58.5,222.5C 58.5,220.5 58.5,218.5 58.5,216.5C 59.8221,216.67 60.9887,216.337 62,215.5C 61.734,212.099 63.234,210.433 66.5,210.5C 66.5,208.5 66.5,206.5 66.5,204.5C 70.5,204.5 74.5,204.5 78.5,204.5C 78.2627,203.209 78.596,202.209 79.5,201.5C 79.0371,204.482 78.7038,207.482 78.5,210.5C 76.6119,211.275 74.6119,211.275 72.5,210.5C 72.5,212.167 72.5,213.833 72.5,215.5C 70.5,215.167 68.5,214.833 66.5,214.5C 66.719,213.325 66.3857,212.325 65.5,211.5C 56.5941,230.942 53.7608,251.276 57,272.5C 60.0004,286.868 64.0004,300.868 69,314.5C 73.6057,322.712 77.939,331.045 82,339.5C 83.0113,340.337 84.1779,340.67 85.5,340.5C 86.075,345.416 88.2417,349.416 92,352.5C 93,354.833 94,357.167 95,359.5C 95.3333,358.833 95.6667,358.167 96,357.5C 97.0635,361.982 99.7302,364.982 104,366.5C 104.219,367.938 104.719,369.271 105.5,370.5C 108.737,371.432 111.404,373.099 113.5,375.5C 116.042,378.205 118.375,381.205 120.5,384.5C 122.333,385.052 124,385.885 125.5,387C 125.167,387.333 124.833,387.667 124.5,388C 133.782,394.315 143.115,400.649 152.5,407C 155.014,408.252 157.68,408.752 160.5,408.5C 160.33,409.822 160.663,410.989 161.5,412C 165.065,413.357 168.732,414.19 172.5,414.5C 172.238,415.978 172.571,417.311 173.5,418.5C 176.443,419.244 179.443,419.744 182.5,420C 185.603,422.816 189.27,424.483 193.5,425C 206.212,426.235 218.879,427.902 231.5,430C 253.142,430.641 274.475,428.307 295.5,423C 295.167,422.667 294.833,422.333 294.5,422C 300.476,420.686 306.476,419.353 312.5,418C 313.833,417.333 313.833,416.667 312.5,416C 322.052,413.357 330.719,409.191 338.5,403.5C 340.795,402.568 343.129,401.735 345.5,401C 346.553,397.633 348.886,395.966 352.5,396C 355.167,394.667 357.167,392.667 358.5,390C 361.901,390.266 363.567,388.766 363.5,385.5C 367.251,385.918 369.418,384.251 370,380.5C 371.171,379.107 372.671,378.273 374.5,378C 375.116,375.821 376.283,373.988 378,372.5C 378.333,372.833 378.667,373.167 379,373.5C 380.377,371.246 381.877,369.08 383.5,367C 384.448,366.517 385.448,366.351 386.5,366.5C 387.713,363.447 389.88,361.113 393,359.5C 393.392,355.928 395.059,353.261 398,351.5C 401.013,345.793 404.679,340.46 409,335.5C 420.494,312.741 428.494,288.741 433,263.5C 434.862,238.678 433.029,214.178 427.5,190C 423.627,180.363 420.127,170.53 417,160.5C 416.241,158.937 415.074,157.937 413.5,157.5C 411.914,151.901 410.414,146.234 409,140.5C 405.669,135.872 402.336,131.206 399,126.5C 397.758,125.128 396.258,124.128 394.5,123.5C 393.445,120.278 391.279,118.278 388,117.5C 387.667,114.5 386,112.833 383,112.5C 381.667,110.5 380.333,108.5 379,106.5C 377.636,107.258 376.469,106.758 375.5,105C 376.833,104.333 376.833,103.667 375.5,103C 373.445,102.313 371.779,101.146 370.5,99.5C 371.376,98.7492 372.376,98.2492 373.5,98C 371.178,96.0765 368.511,94.7431 365.5,94C 366.167,93.3333 366.833,92.6667 367.5,92C 364.833,90.6667 362.167,89.3333 359.5,88C 357.294,84.0657 353.961,81.8991 349.5,81.5C 349.5,80.5 349.5,79.5 349.5,78.5C 347.436,78.313 345.436,77.813 343.5,77C 342.5,74.6667 340.833,73 338.5,72C 333.533,69.0361 328.2,67.0361 322.5,66C 323.634,64.984 323.301,64.3173 321.5,64C 311.463,63.148 301.463,61.9813 291.5,60.5C 287.563,60.9922 283.73,60.9922 280,60.5C 276.461,61.1731 272.961,62.0064 269.5,63C 270.448,63.4828 271.448,63.6495 272.5,63.5C 272.5,67.1667 272.5,70.8333 272.5,74.5C 270.5,74.5 268.5,74.5 266.5,74.5C 252.855,73.615 239.189,73.2816 225.5,73.5C 228.962,72.5184 232.629,72.185 236.5,72.5C 244.571,72.8633 252.571,72.3633 260.5,71C 257.167,70.6667 253.833,70.3333 250.5,70C 251.793,69.51 253.127,69.3433 254.5,69.5C 254.5,66.1667 254.5,62.8333 254.5,59.5C 257.475,59.2866 260.142,58.2866 262.5,56.5C 263.293,56.9312 264.127,57.2645 265,57.5C 272.243,56.008 279.576,55.3413 287,55.5C 299.755,56.1889 312.255,58.0222 324.5,61C 327.226,63.2958 330.226,65.1291 333.5,66.5C 334.086,66.2907 334.586,65.9574 335,65.5C 347.5,74.7268 359.666,84.3934 371.5,94.5C 372.736,95.2458 374.07,95.5792 375.5,95.5 Z"
       id="path60" />
  </g>
  <g
     id="g61">
    <path
       style="opacity:1"
       fill="#212019"
       d="M 373.5,275.5 C 373.5,275.833 373.5,276.167 373.5,276.5C 360.887,294.954 348.053,313.287 335,331.5C 334.536,330.906 334.369,330.239 334.5,329.5C 332.242,317.058 329.909,304.725 327.5,292.5C 327.607,290.621 327.107,290.288 326,291.5C 314.897,312.04 304.063,332.707 293.5,353.5C 292.743,354.773 292.077,354.773 291.5,353.5C 279.705,334.875 267.705,316.542 255.5,298.5C 255.631,297.624 255.298,296.957 254.5,296.5C 249.766,309.701 245.433,323.035 241.5,336.5C 238.82,344.351 236.32,352.351 234,360.5C 233.333,361.833 232.667,363.167 232,364.5C 231.617,363.944 231.117,363.611 230.5,363.5C 215.818,350.487 200.818,337.821 185.5,325.5C 185.44,324.957 185.107,324.624 184.5,324.5C 182.533,340.764 181.367,357.097 181,373.5C 180.292,372.619 179.458,371.953 178.5,371.5C 162.624,359.804 146.958,347.804 131.5,335.5C 130.528,334.249 129.861,334.582 129.5,336.5C 130.98,344.159 132.313,351.826 133.5,359.5C 133.5,360.833 133.5,362.167 133.5,363.5C 132.655,362.329 131.989,360.995 131.5,359.5C 128.037,346.181 124.704,332.848 121.5,319.5C 139.792,333.954 157.959,348.62 176,363.5C 176.464,362.906 176.631,362.239 176.5,361.5C 177.479,346.515 178.146,331.515 178.5,316.5C 179.789,315.499 181.122,315.666 182.5,317C 198.122,328.954 213.456,341.287 228.5,354C 229.816,354.528 230.483,354.028 230.5,352.5C 237.444,331.397 243.778,310.064 249.5,288.5C 250.441,285.875 251.607,285.875 253,288.5C 265.846,306.856 279.179,324.856 293,342.5C 293.399,342.272 293.565,341.938 293.5,341.5C 304.694,321.892 315.694,302.226 326.5,282.5C 326.846,280.295 327.513,280.128 328.5,282C 331.173,293.54 334.007,305.04 337,316.5C 337.69,317.738 338.19,317.738 338.5,316.5C 346.831,306.509 355.164,296.509 363.5,286.5C 366.862,282.808 370.195,279.141 373.5,275.5 Z"
       id="path61" />
  </g>
  <g
     id="g62">
    <path
       style="opacity:1"
       fill="#b5d471"
       d="M 255.5,298.5 C 255.5,298.833 255.5,299.167 255.5,299.5C 250.531,314.345 245.698,329.345 241,344.5C 240.825,341.843 240.992,339.176 241.5,336.5C 245.433,323.035 249.766,309.701 254.5,296.5C 255.298,296.957 255.631,297.624 255.5,298.5 Z"
       id="path62" />
  </g>
  <g
     id="g63">
    <path
       style="opacity:1"
       fill="#1b6a3b"
       d="M 249.5,288.5 C 243.778,310.064 237.444,331.397 230.5,352.5C 229.005,352.585 228.005,351.919 227.5,350.5C 234.047,329.064 240.714,307.731 247.5,286.5C 248.182,287.243 248.849,287.909 249.5,288.5 Z"
       id="path63" />
  </g>
  <g
     id="g64">
    <path
       style="opacity:1"
       fill="#246b39"
       d="M 363.5,286.5 C 355.164,296.509 346.831,306.509 338.5,316.5C 338.343,315.127 338.51,313.793 339,312.5C 347.033,303.636 355.2,294.969 363.5,286.5 Z"
       id="path64" />
  </g>
  <g
     id="g65">
    <path
       style="opacity:1"
       fill="#186a3a"
       d="M 327.5,292.5 C 329.909,304.725 332.242,317.058 334.5,329.5C 333.542,329.953 332.708,330.619 332,331.5C 329.326,320.798 327.16,309.965 325.5,299C 325.875,296.711 326.541,294.545 327.5,292.5 Z"
       id="path65" />
  </g>
  <g
     id="g66">
    <path
       style="opacity:1"
       fill="#1b6b3b"
       d="M 255.5,298.5 C 267.705,316.542 279.705,334.875 291.5,353.5C 290.504,353.414 289.671,353.748 289,354.5C 278.085,338.337 267.418,322.004 257,305.5C 255.872,303.655 255.372,301.655 255.5,299.5C 255.5,299.167 255.5,298.833 255.5,298.5 Z"
       id="path66" />
  </g>
  <g
     id="g67">
    <path
       style="opacity:1"
       fill="#a7ce77"
       d="M 76.5,222.5 C 76.6665,232.172 76.4998,241.839 76,251.5C 75.4569,253.631 74.6236,255.631 73.5,257.5C 72.6143,256.675 72.281,255.675 72.5,254.5C 70.5,254.5 68.5,254.5 66.5,254.5C 66.6641,251.813 66.4974,249.146 66,246.5C 63.6654,255.018 62.9987,263.684 64,272.5C 65.5794,280.677 67.5794,288.677 70,296.5C 72.7392,304.165 76.0725,311.499 80,318.5C 80.49,319.793 80.6567,321.127 80.5,322.5C 78.8008,322.66 77.1341,322.494 75.5,322C 67.6057,305.257 62.1057,287.757 59,269.5C 58.4308,255.239 60.7641,241.572 66,228.5C 66.4955,230.473 66.6621,232.473 66.5,234.5C 69.5,234.5 72.5,234.5 75.5,234.5C 75.1832,230.298 75.5166,226.298 76.5,222.5 Z"
       id="path67" />
  </g>
  <g
     id="g68">
    <path
       style="opacity:1"
       fill="#1c6c3c"
       d="M 326.5,282.5 C 315.694,302.226 304.694,321.892 293.5,341.5C 292.782,339.863 292.616,338.197 293,336.5C 303.299,317.373 313.799,298.373 324.5,279.5C 325.176,280.602 325.842,281.602 326.5,282.5 Z"
       id="path68" />
  </g>
  <g
     id="g69">
    <path
       style="opacity:1"
       fill="#206b3c"
       d="M 360.5,260.5 C 369.554,261.445 377.054,265.445 383,272.5C 385.904,275.642 387.738,279.309 388.5,283.5C 384.823,279.989 380.989,276.656 377,273.5C 375.826,274.544 374.659,275.544 373.5,276.5C 373.5,276.167 373.5,275.833 373.5,275.5C 373.511,273.983 374.177,272.816 375.5,272C 370.91,266.87 365.244,263.537 358.5,262C 359.044,261.283 359.711,260.783 360.5,260.5 Z"
       id="path69" />
  </g>
  <g
     id="g70">
    <path
       style="opacity:1"
       fill="#21201a"
       d="M 388.5,283.5 C 387.738,279.309 385.904,275.642 383,272.5C 377.054,265.445 369.554,261.445 360.5,260.5C 379.489,256.493 388.822,264.159 388.5,283.5 Z"
       id="path70" />
  </g>
  <g
     id="g71">
    <path
       style="opacity:1"
       fill="#afd281"
       d="M 78.5,210.5 C 78.4709,214.64 77.8042,218.64 76.5,222.5C 75.5166,226.298 75.1832,230.298 75.5,234.5C 72.5,234.5 69.5,234.5 66.5,234.5C 66.6621,232.473 66.4955,230.473 66,228.5C 60.7641,241.572 58.4308,255.239 59,269.5C 62.1057,287.757 67.6057,305.257 75.5,322C 77.1341,322.494 78.8008,322.66 80.5,322.5C 80.268,326.457 81.1013,330.124 83,333.5C 83.6667,334.833 84.3333,334.833 85,333.5C 86.3204,337.114 87.487,340.78 88.5,344.5C 89.325,345.386 90.325,345.719 91.5,345.5C 91.4892,350.31 93.6559,353.644 98,355.5C 99.0086,357.025 99.5086,358.692 99.5,360.5C 102.73,360.561 104.563,362.228 105,365.5C 106.333,366.167 107.667,366.833 109,367.5C 110.356,370.329 111.856,372.996 113.5,375.5C 111.404,373.099 108.737,371.432 105.5,370.5C 104.719,369.271 104.219,367.938 104,366.5C 99.7302,364.982 97.0635,361.982 96,357.5C 95.6667,358.167 95.3333,358.833 95,359.5C 94,357.167 93,354.833 92,352.5C 88.2417,349.416 86.075,345.416 85.5,340.5C 84.1779,340.67 83.0113,340.337 82,339.5C 77.939,331.045 73.6057,322.712 69,314.5C 64.0004,300.868 60.0004,286.868 57,272.5C 53.7608,251.276 56.5941,230.942 65.5,211.5C 66.3857,212.325 66.719,213.325 66.5,214.5C 68.5,214.833 70.5,215.167 72.5,215.5C 72.5,213.833 72.5,212.167 72.5,210.5C 74.6119,211.275 76.6119,211.275 78.5,210.5 Z"
       id="path71" />
  </g>
  <g
     id="g72">
    <path
       style="opacity:1"
       fill="#d4e1a7"
       d="M 93.5,163.5 C 91.1267,169.715 88.46,175.715 85.5,181.5C 84.7784,181.918 84.2784,182.584 84,183.5C 82.4747,182.28 80.6413,181.613 78.5,181.5C 74.3395,181.917 70.3395,182.917 66.5,184.5C 64.6092,189.866 62.1092,194.866 59,199.5C 58.5065,201.134 58.3398,202.801 58.5,204.5C 57.5,204.5 56.5,204.5 55.5,204.5C 51.6423,214.911 48.4756,225.578 46,236.5C 44.5878,253.729 45.7544,270.729 49.5,287.5C 55.1332,297.784 58.7999,308.784 60.5,320.5C 65.705,330.912 71.205,341.245 77,351.5C 77.49,352.793 77.6567,354.127 77.5,355.5C 79.9032,355.393 81.7365,356.393 83,358.5C 90.9372,370.788 100.437,381.955 111.5,392C 114.377,392.956 117.044,394.289 119.5,396C 123.5,399.667 127.5,403.333 131.5,407C 143.297,412.645 154.964,418.478 166.5,424.5C 168.396,425.466 170.396,425.799 172.5,425.5C 172.281,426.675 172.614,427.675 173.5,428.5C 177.391,429.551 181.058,431.051 184.5,433C 194.293,434.273 203.959,435.94 213.5,438C 215.723,438.566 217.723,439.4 219.5,440.5C 209.347,440.155 199.347,438.822 189.5,436.5C 187.801,436.66 186.134,436.494 184.5,436C 174.237,432.338 163.904,428.671 153.5,425C 144.738,420.629 136.405,415.795 128.5,410.5C 120.692,403.531 112.692,396.698 104.5,390C 92.2563,378.049 80.7563,364.883 70,350.5C 67.7578,345.017 65.2578,339.684 62.5,334.5C 58.9218,331.377 57.5885,327.377 58.5,322.5C 57.1667,322.5 55.8333,322.5 54.5,322.5C 54.6653,318.818 54.4986,315.152 54,311.5C 47.1619,296.323 43.4953,280.323 43,263.5C 42.9326,260.953 42.0993,258.786 40.5,257C 42.4657,243.444 44.799,229.944 47.5,216.5C 50.1289,206.686 53.4622,197.019 57.5,187.5C 58.5,187.5 59.5,187.5 60.5,187.5C 60.3573,185.738 60.6906,184.071 61.5,182.5C 65.3419,181.733 67.0086,179.4 66.5,175.5C 69.766,175.567 71.266,173.901 71,170.5C 75.0473,170.119 77.5473,167.953 78.5,164C 83.6713,163.701 88.6713,163.535 93.5,163.5 Z"
       id="path72" />
  </g>
  <g
     id="g73">
    <path
       style="opacity:1"
       fill="#abcf7a"
       d="M 413.5,157.5 C 415.074,157.937 416.241,158.937 417,160.5C 420.127,170.53 423.627,180.363 427.5,190C 433.029,214.178 434.862,238.678 433,263.5C 428.494,288.741 420.494,312.741 409,335.5C 404.679,340.46 401.013,345.793 398,351.5C 395.059,353.261 393.392,355.928 393,359.5C 389.88,361.113 387.713,363.447 386.5,366.5C 385.448,366.351 384.448,366.517 383.5,367C 381.877,369.08 380.377,371.246 379,373.5C 378.667,373.167 378.333,372.833 378,372.5C 376.283,373.988 375.116,375.821 374.5,378C 372.671,378.273 371.171,379.107 370,380.5C 369.418,384.251 367.251,385.918 363.5,385.5C 363.567,388.766 361.901,390.266 358.5,390C 357.167,392.667 355.167,394.667 352.5,396C 348.886,395.966 346.553,397.633 345.5,401C 343.129,401.735 340.795,402.568 338.5,403.5C 330.719,409.191 322.052,413.357 312.5,416C 313.833,416.667 313.833,417.333 312.5,418C 306.476,419.353 300.476,420.686 294.5,422C 294.833,422.333 295.167,422.667 295.5,423C 274.475,428.307 253.142,430.641 231.5,430C 218.879,427.902 206.212,426.235 193.5,425C 189.27,424.483 185.603,422.816 182.5,420C 179.443,419.744 176.443,419.244 173.5,418.5C 172.571,417.311 172.238,415.978 172.5,414.5C 168.732,414.19 165.065,413.357 161.5,412C 160.663,410.989 160.33,409.822 160.5,408.5C 157.68,408.752 155.014,408.252 152.5,407C 143.115,400.649 133.782,394.315 124.5,388C 124.833,387.667 125.167,387.333 125.5,387C 124,385.885 122.333,385.052 120.5,384.5C 118.375,381.205 116.042,378.205 113.5,375.5C 115.99,377.12 118.656,378.62 121.5,380C 122.044,383.376 124.044,385.21 127.5,385.5C 129.565,390.016 132.899,391.516 137.5,390C 142.552,394.563 148.219,398.063 154.5,400.5C 159.862,401.35 164.528,403.516 168.5,407C 178.631,410.341 188.631,413.841 198.5,417.5C 247.687,428.582 294.02,422.082 337.5,398C 343.271,392.905 349.604,388.571 356.5,385C 360.046,380.952 364.046,377.452 368.5,374.5C 370.037,369.464 373.37,366.297 378.5,365C 428.136,307.044 439.803,241.878 413.5,169.5C 409.514,161.527 405.514,153.527 401.5,145.5C 394.252,135.198 386.918,125.032 379.5,115C 373.811,114.142 370.144,110.975 368.5,105.5C 363.377,101.879 358.71,97.7118 354.5,93C 351.079,91.5252 347.746,89.8586 344.5,88C 334.244,78.0755 321.91,72.9089 307.5,72.5C 310.508,85.8587 306.508,88.8587 295.5,81.5C 297.5,81.5 299.5,81.5 301.5,81.5C 301.5,77.5 301.5,73.5 301.5,69.5C 317.399,68.8108 331.065,73.6442 342.5,84C 344.608,84.3599 346.608,85.0266 348.5,86C 348.167,86.3333 347.833,86.6667 347.5,87C 352.303,89.4628 356.47,92.6295 360,96.5C 361.073,95.7203 362.24,95.887 363.5,97C 363.133,98.7566 363.966,100.257 366,101.5C 366.333,101.167 366.667,100.833 367,100.5C 370.446,104.452 373.946,108.286 377.5,112C 379.459,112.931 381.459,113.764 383.5,114.5C 385.483,116.984 387.65,119.317 390,121.5C 391.878,125.932 394.711,129.598 398.5,132.5C 399.348,135.952 401.182,138.619 404,140.5C 407.139,146.399 410.305,152.066 413.5,157.5 Z"
       id="path73" />
  </g>
  <g
     id="g74">
    <path
       style="opacity:1"
       fill="#c0c0c0"
       d="M 61.5,367.5 C 76.6936,387.605 94.3603,405.272 114.5,420.5C 115.968,422.916 116.635,425.583 116.5,428.5C 115.5,428.5 114.5,428.5 113.5,428.5C 113.401,431.237 113.735,433.904 114.5,436.5C 91.3586,422.03 71.6919,403.696 55.5,381.5C 55.5858,380.504 55.2524,379.671 54.5,379C 55.448,378.517 56.448,378.351 57.5,378.5C 57.2011,376.396 57.5344,374.396 58.5,372.5C 59.695,370.879 60.695,369.213 61.5,367.5 Z"
       id="path74" />
  </g>
  <g
     id="g75">
    <path
       style="opacity:1"
       fill="#8d8b8a"
       d="M 60.5,358.5 C 81.0041,388.004 106.671,412.004 137.5,430.5C 135.958,431.301 134.292,431.634 132.5,431.5C 126.166,428.335 120.166,424.669 114.5,420.5C 94.3603,405.272 76.6936,387.605 61.5,367.5C 61.5,366.833 61.5,366.167 61.5,365.5C 62.3764,365.631 63.0431,365.298 63.5,364.5C 61.9617,362.757 60.9617,360.757 60.5,358.5 Z"
       id="path75" />
  </g>
  <g
     id="g76">
    <path
       style="opacity:1"
       fill="#5e666b"
       d="M 467.5,293.5 C 465.51,302.637 463.01,311.637 460,320.5C 429.288,396.242 374.455,444.242 295.5,464.5C 287.5,464.167 287.5,463.833 295.5,463.5C 294.505,458.458 296.505,456.125 301.5,456.5C 301.5,455.5 301.5,454.5 301.5,453.5C 312.795,450.354 323.795,446.354 334.5,441.5C 390.451,414.879 429.451,372.545 451.5,314.5C 453.176,313.817 453.843,312.483 453.5,310.5C 454.833,310.5 456.167,310.5 457.5,310.5C 457.5,309.5 457.5,308.5 457.5,307.5C 458.5,307.5 459.5,307.5 460.5,307.5C 460.948,303.476 461.614,299.476 462.5,295.5C 463.626,292.797 465.293,292.13 467.5,293.5 Z"
       id="path76" />
  </g>
  <g
     id="g77">
    <path
       style="opacity:1"
       fill="#f2efcb"
       d="M 272.5,24.5 C 296.881,28.3495 320.215,35.6828 342.5,46.5C 363.164,58.1526 382.164,72.1526 399.5,88.5C 412.547,102.929 423.881,118.596 433.5,135.5C 448.495,162.453 457.162,191.453 459.5,222.5C 459.875,242.219 459.041,261.886 457,281.5C 438.217,360.242 391.384,414.575 316.5,444.5C 305.02,448.233 293.354,451.399 281.5,454C 268.872,455.662 256.206,456.829 243.5,457.5C 205.859,457.055 170.526,448.055 137.5,430.5C 106.671,412.004 81.0041,388.004 60.5,358.5C 51.9119,344.655 44.9119,329.988 39.5,314.5C 41.5549,316.234 42.8882,318.567 43.5,321.5C 44.325,322.386 45.325,322.719 46.5,322.5C 46.8356,326.489 49.0023,328.822 53,329.5C 56.6084,336.199 60.1084,342.865 63.5,349.5C 64.735,350.34 65.735,351.34 66.5,352.5C 67.3528,356.02 69.3528,358.687 72.5,360.5C 74.0358,367.734 78.0358,373.401 84.5,377.5C 85.8625,379.012 86.1958,380.512 85.5,382C 90.6667,387.167 95.8333,392.333 101,397.5C 102.113,396.289 103.28,396.289 104.5,397.5C 109.301,401.224 113.635,405.391 117.5,410C 122.714,411.036 126.714,413.87 129.5,418.5C 132.145,419.192 134.645,420.192 137,421.5C 137.333,421.167 137.667,420.833 138,420.5C 138.483,421.448 138.649,422.448 138.5,423.5C 140.677,423.586 142.677,424.253 144.5,425.5C 145.711,426.274 145.711,427.107 144.5,428C 145.766,428.309 146.933,428.809 148,429.5C 149.049,428.483 150.216,428.316 151.5,429C 162.99,434.833 174.99,439.499 187.5,443C 188.91,443.368 189.91,444.201 190.5,445.5C 216.663,450.188 242.996,451.355 269.5,449C 281.038,446.631 292.705,444.464 304.5,442.5C 305.167,442.833 305.833,443.167 306.5,443.5C 308.662,441.98 310.995,440.98 313.5,440.5C 313.5,439.5 313.5,438.5 313.5,437.5C 342.378,428.071 367.378,412.571 388.5,391C 389.5,390.667 390.5,390.333 391.5,390C 412.273,368.319 428.44,343.486 440,315.5C 440.494,313.866 440.66,312.199 440.5,310.5C 442.451,310.773 443.951,310.107 445,308.5C 446.189,297.278 448.356,286.278 451.5,275.5C 454.167,251.833 454.167,228.167 451.5,204.5C 447.756,189.172 443.256,174.172 438,159.5C 428.304,136.737 415.137,116.404 398.5,98.5C 397.205,97.9017 395.872,97.4017 394.5,97C 392.333,93.5 389.5,90.6667 386,88.5C 385.598,87.1279 385.098,85.7946 384.5,84.5C 379.993,80.8237 375.659,76.9904 371.5,73C 369.444,72.6892 367.444,72.1892 365.5,71.5C 358.188,65.3519 350.188,60.5185 341.5,57C 338.611,53.9174 335.278,51.7507 331.5,50.5C 326.627,45.7506 320.627,43.0839 313.5,42.5C 313.607,40.0968 312.607,38.2635 310.5,37C 307.21,36.7468 304.21,35.7468 301.5,34C 293.864,33.2689 286.198,32.7689 278.5,32.5C 278.5,31.1667 278.5,29.8333 278.5,28.5C 266.668,28.1853 254.835,27.852 243,27.5C 227.472,28.3828 211.972,29.5494 196.5,31C 191.092,34.4927 185.092,36.4927 178.5,37C 173.084,39.7031 167.418,41.8698 161.5,43.5C 157.946,42.1765 154.612,42.6765 151.5,45C 152.167,45.3333 152.833,45.6667 153.5,46C 151.138,47.7313 148.471,48.5646 145.5,48.5C 145.67,49.8221 145.337,50.9887 144.5,52C 139.67,53.8954 134.67,55.0621 129.5,55.5C 133.967,51.7601 138.967,48.7601 144.5,46.5C 184.686,25.8014 227.353,18.4681 272.5,24.5 Z"
       id="path77" />
  </g>
  <g
     id="g78">
    <path
       style="opacity:1"
       fill="#a6cd75"
       d="M 80.5,322.5 C 81.3764,322.369 82.0431,322.702 82.5,323.5C 90.1819,339.506 100.349,353.839 113,366.5C 113.483,367.448 113.649,368.448 113.5,369.5C 117.167,369.833 119.167,371.833 119.5,375.5C 120.552,375.351 121.552,375.517 122.5,376C 125.027,378.105 127.36,380.439 129.5,383C 135.353,385.434 140.353,389.101 144.5,394C 147.899,395.177 151.233,396.344 154.5,397.5C 154.5,398.5 154.5,399.5 154.5,400.5C 148.219,398.063 142.552,394.563 137.5,390C 132.899,391.516 129.565,390.016 127.5,385.5C 124.044,385.21 122.044,383.376 121.5,380C 118.656,378.62 115.99,377.12 113.5,375.5C 111.856,372.996 110.356,370.329 109,367.5C 107.667,366.833 106.333,366.167 105,365.5C 104.563,362.228 102.73,360.561 99.5,360.5C 99.5086,358.692 99.0086,357.025 98,355.5C 93.6559,353.644 91.4892,350.31 91.5,345.5C 90.325,345.719 89.325,345.386 88.5,344.5C 87.487,340.78 86.3204,337.114 85,333.5C 84.3333,334.833 83.6667,334.833 83,333.5C 81.1013,330.124 80.268,326.457 80.5,322.5 Z"
       id="path78" />
  </g>
  <g
     id="g79">
    <path
       style="opacity:1"
       fill="#4a5633"
       d="M 133.5,359.5 C 134.355,363.567 135.355,367.733 136.5,372C 136.333,372.833 136.167,373.667 136,374.5C 134.438,370.986 133.605,367.319 133.5,363.5C 133.5,362.167 133.5,360.833 133.5,359.5 Z"
       id="path79" />
  </g>
  <g
     id="g80">
    <path
       style="opacity:1"
       fill="#1f6c3b"
       d="M 131.5,335.5 C 146.958,347.804 162.624,359.804 178.5,371.5C 177.577,372.303 176.577,372.47 175.5,372C 161.167,361 146.833,350 132.5,339C 131.663,337.989 131.33,336.822 131.5,335.5 Z"
       id="path80" />
  </g>
  <g
     id="g81">
    <path
       style="opacity:1"
       fill="#216d3a"
       d="M 185.5,325.5 C 200.818,337.821 215.818,350.487 230.5,363.5C 229.577,364.303 228.577,364.47 227.5,364C 213.667,352.167 199.833,340.333 186,328.5C 185.517,327.552 185.351,326.552 185.5,325.5 Z"
       id="path81" />
  </g>
  <g
     id="g82">
    <path
       style="opacity:1"
       fill="#1a6e3c"
       d="M 178.5,316.5 C 178.146,331.515 177.479,346.515 176.5,361.5C 175.85,361.196 175.183,360.863 174.5,360.5C 173.535,345.13 174.035,329.797 176,314.5C 176.708,315.381 177.542,316.047 178.5,316.5 Z"
       id="path82" />
  </g>
  <g
     id="g83">
    <path
       style="opacity:1"
       fill="#1e683b"
       d="M 121.5,319.5 C 124.704,332.848 128.037,346.181 131.5,359.5C 126.414,346.138 121.414,332.638 116.5,319C 117.996,318.493 119.163,318.993 120,320.5C 120.333,319.833 120.667,319.167 121,318.5C 121.399,318.728 121.565,319.062 121.5,319.5 Z"
       id="path83" />
  </g>
  <g
     id="g84">
    <path
       style="opacity:1"
       fill="#d9e5ae"
       d="M 289.5,42.5 C 298.534,43.5053 307.534,44.8387 316.5,46.5C 319.629,47.8988 322.629,49.5655 325.5,51.5C 327.396,52.4656 329.396,52.7989 331.5,52.5C 331.5,53.5 331.5,54.5 331.5,55.5C 326.593,54.7015 321.759,53.3681 317,51.5C 316.667,51.8333 316.333,52.1667 316,52.5C 295.952,47.1321 275.452,45.2988 254.5,47C 248.657,49.2276 242.657,50.7276 236.5,51.5C 237.234,50.2921 237.567,48.9587 237.5,47.5C 254.463,43.2095 271.796,41.5429 289.5,42.5 Z"
       id="path84" />
  </g>
  <g
     id="g85">
    <path
       style="opacity:1"
       fill="#b7b7b7"
       d="M 114.5,420.5 C 120.166,424.669 126.166,428.335 132.5,431.5C 140.355,436.295 148.521,440.629 157,444.5C 156.912,447.642 155.412,450.142 152.5,452C 160.517,456.06 168.851,459.227 177.5,461.5C 179.701,462.566 182.035,463.233 184.5,463.5C 184.67,464.822 184.337,465.989 183.5,467C 184.737,467.232 185.737,467.732 186.5,468.5C 160.437,462.265 136.437,451.599 114.5,436.5C 113.735,433.904 113.401,431.237 113.5,428.5C 114.5,428.5 115.5,428.5 116.5,428.5C 116.635,425.583 115.968,422.916 114.5,420.5 Z"
       id="path85" />
  </g>
  <g
     id="g86">
    <path
       style="opacity:1"
       fill="#e7eaba"
       d="M 290.5,39.5 C 300.565,41.6332 310.898,43.7999 321.5,46C 323.979,49.4062 327.312,50.9062 331.5,50.5C 335.278,51.7507 338.611,53.9174 341.5,57C 350.188,60.5185 358.188,65.3519 365.5,71.5C 367.444,72.1892 369.444,72.6892 371.5,73C 375.659,76.9904 379.993,80.8237 384.5,84.5C 385.098,85.7946 385.598,87.1279 386,88.5C 389.5,90.6667 392.333,93.5 394.5,97C 395.872,97.4017 397.205,97.9017 398.5,98.5C 415.137,116.404 428.304,136.737 438,159.5C 443.256,174.172 447.756,189.172 451.5,204.5C 454.167,228.167 454.167,251.833 451.5,275.5C 448.356,286.278 446.189,297.278 445,308.5C 443.951,310.107 442.451,310.773 440.5,310.5C 440.66,312.199 440.494,313.866 440,315.5C 428.44,343.486 412.273,368.319 391.5,390C 390.5,390.333 389.5,390.667 388.5,391C 367.378,412.571 342.378,428.071 313.5,437.5C 313.5,438.5 313.5,439.5 313.5,440.5C 310.995,440.98 308.662,441.98 306.5,443.5C 305.833,443.167 305.167,442.833 304.5,442.5C 292.705,444.464 281.038,446.631 269.5,449C 242.996,451.355 216.663,450.188 190.5,445.5C 189.91,444.201 188.91,443.368 187.5,443C 174.99,439.499 162.99,434.833 151.5,429C 150.216,428.316 149.049,428.483 148,429.5C 146.933,428.809 145.766,428.309 144.5,428C 145.711,427.107 145.711,426.274 144.5,425.5C 142.677,424.253 140.677,423.586 138.5,423.5C 138.649,422.448 138.483,421.448 138,420.5C 137.667,420.833 137.333,421.167 137,421.5C 134.645,420.192 132.145,419.192 129.5,418.5C 126.714,413.87 122.714,411.036 117.5,410C 113.635,405.391 109.301,401.224 104.5,397.5C 103.28,396.289 102.113,396.289 101,397.5C 95.8333,392.333 90.6667,387.167 85.5,382C 86.1958,380.512 85.8625,379.012 84.5,377.5C 78.0358,373.401 74.0358,367.734 72.5,360.5C 74.7757,362.331 76.609,364.664 78,367.5C 78.6667,366.167 79.3333,366.167 80,367.5C 80.596,370.54 81.7627,373.206 83.5,375.5C 85.7604,376.139 87.7604,377.306 89.5,379C 90.8932,380.171 91.7265,381.671 92,383.5C 102.531,394.835 114.698,403.835 128.5,410.5C 136.405,415.795 144.738,420.629 153.5,425C 163.904,428.671 174.237,432.338 184.5,436C 186.134,436.494 187.801,436.66 189.5,436.5C 195.832,440.447 202.832,442.947 210.5,444C 232.172,445.955 253.838,445.955 275.5,444C 286.118,441.12 296.784,438.453 307.5,436C 308.833,435.333 308.833,434.667 307.5,434C 312.572,433.322 317.572,432.322 322.5,431C 323.995,429.839 325.495,428.673 327,427.5C 332.658,425.755 338.158,423.588 343.5,421C 346.514,419.328 348.514,417.328 349.5,415C 351.952,414.71 354.285,414.044 356.5,413C 360.055,410.947 362.721,408.114 364.5,404.5C 369.429,401.19 374.429,398.023 379.5,395C 381.037,393.89 381.703,392.39 381.5,390.5C 382.873,390.657 384.207,390.49 385.5,390C 433.964,341.696 454.797,282.862 448,213.5C 444.615,200.508 441.281,186.174 438,170.5C 436.667,169.833 435.333,169.167 434,168.5C 433.901,166.347 433.067,164.681 431.5,163.5C 432.179,157.441 430.345,152.441 426,148.5C 421.295,139.145 416.628,129.812 412,120.5C 407.656,115.127 403.323,109.794 399,104.5C 397.58,102.578 395.747,101.245 393.5,100.5C 392.806,97.9124 391.64,95.579 390,93.5C 380.543,86.3782 371.376,78.8782 362.5,71C 352.153,65.8266 341.82,60.6599 331.5,55.5C 331.5,54.5 331.5,53.5 331.5,52.5C 329.396,52.7989 327.396,52.4656 325.5,51.5C 322.629,49.5655 319.629,47.8988 316.5,46.5C 307.534,44.8387 298.534,43.5053 289.5,42.5C 281.971,41.7655 274.304,40.9322 266.5,40C 274.442,38.8167 282.442,38.65 290.5,39.5 Z"
       id="path86" />
  </g>
  <g
     id="g87">
    <path
       style="opacity:1"
       fill="#cede9f"
       d="M 355.5,404.5 C 354.04,406.463 352.373,408.296 350.5,410C 346.929,411.119 343.596,412.785 340.5,415C 339.167,415.667 339.167,416.333 340.5,417C 337.048,417.892 334.048,419.558 331.5,422C 327.596,423.382 323.596,424.548 319.5,425.5C 319.5,426.5 319.5,427.5 319.5,428.5C 308.246,431.475 297.246,434.975 286.5,439C 271.975,440.319 257.475,441.485 243,442.5C 235.048,442.718 227.215,442.051 219.5,440.5C 217.723,439.4 215.723,438.566 213.5,438C 203.959,435.94 194.293,434.273 184.5,433C 181.058,431.051 177.391,429.551 173.5,428.5C 172.614,427.675 172.281,426.675 172.5,425.5C 184.165,429.198 196.165,432.364 208.5,435C 229.859,437.023 251.193,436.857 272.5,434.5C 279.064,432.795 285.731,431.628 292.5,431C 299.377,428.207 306.377,425.707 313.5,423.5C 314.289,421.512 315.455,421.179 317,422.5C 323.939,417.792 331.439,414.125 339.5,411.5C 340.981,410.52 342.315,409.353 343.5,408C 347.923,407.734 351.923,406.567 355.5,404.5 Z"
       id="path87" />
  </g>
  <g
     id="g88">
    <path
       style="opacity:1"
       fill="#a4a4a4"
       d="M 137.5,430.5 C 170.526,448.055 205.859,457.055 243.5,457.5C 243.586,458.496 243.252,459.329 242.5,460C 247.155,460.499 251.821,460.666 256.5,460.5C 243.331,461.487 229.998,461.487 216.5,460.5C 205.802,457.45 194.802,455.617 183.5,455C 181.294,457.037 179.294,459.203 177.5,461.5C 168.851,459.227 160.517,456.06 152.5,452C 155.412,450.142 156.912,447.642 157,444.5C 148.521,440.629 140.355,436.295 132.5,431.5C 134.292,431.634 135.958,431.301 137.5,430.5 Z"
       id="path88" />
  </g>
  <g
     id="g89">
    <path
       style="opacity:1"
       fill="#c4c4c4"
       d="M 334.5,441.5 C 323.795,446.354 312.795,450.354 301.5,453.5C 286.757,457.266 271.757,459.599 256.5,460.5C 251.821,460.666 247.155,460.499 242.5,460C 243.252,459.329 243.586,458.496 243.5,457.5C 256.206,456.829 268.872,455.662 281.5,454C 293.354,451.399 305.02,448.233 316.5,444.5C 321.941,443.845 327.108,442.178 332,439.5C 333.301,439.639 334.134,440.305 334.5,441.5 Z"
       id="path89" />
  </g>
  <g
     id="g90">
    <path
       style="opacity:1"
       fill="#939495"
       d="M 216.5,460.5 C 215.791,461.404 214.791,461.737 213.5,461.5C 213.5,463.833 213.5,466.167 213.5,468.5C 214.791,468.263 215.791,468.596 216.5,469.5C 205.644,468.452 194.978,466.452 184.5,463.5C 182.035,463.233 179.701,462.566 177.5,461.5C 179.294,459.203 181.294,457.037 183.5,455C 194.802,455.617 205.802,457.45 216.5,460.5 Z"
       id="path90" />
  </g>
  <g
     id="g91">
    <path
       style="opacity:1"
       fill="#797d81"
       d="M 301.5,453.5 C 301.5,454.5 301.5,455.5 301.5,456.5C 296.505,456.125 294.505,458.458 295.5,463.5C 287.5,463.833 287.5,464.167 295.5,464.5C 290.801,465.707 286.134,467.04 281.5,468.5C 268.835,469.5 256.168,470.5 243.5,471.5C 234.461,471.219 225.461,470.552 216.5,469.5C 215.791,468.596 214.791,468.263 213.5,468.5C 213.5,466.167 213.5,463.833 213.5,461.5C 214.791,461.737 215.791,461.404 216.5,460.5C 229.998,461.487 243.331,461.487 256.5,460.5C 271.757,459.599 286.757,457.266 301.5,453.5 Z"
       id="path91" />
  </g>
  <g
     id="g92">
    <path
       style="opacity:1"
       fill="#acabab"
       d="M 184.5,463.5 C 194.978,466.452 205.644,468.452 216.5,469.5C 225.461,470.552 234.461,471.219 243.5,471.5C 256.168,470.5 268.835,469.5 281.5,468.5C 284.962,469.482 288.629,469.815 292.5,469.5C 257.215,477.666 221.882,477.332 186.5,468.5C 185.737,467.732 184.737,467.232 183.5,467C 184.337,465.989 184.67,464.822 184.5,463.5 Z"
       id="path92" />
  </g>
</svg>
