<?xml version="1.0" encoding="UTF-8" standalone="no"?>
<svg
   version="1.1"
   width="490px"
   height="482px"
   style="shape-rendering:geometricPrecision; text-rendering:geometricPrecision; image-rendering:optimizeQuality; fill-rule:evenodd; clip-rule:evenodd"
   id="svg104"
   sodipodi:docname="mm.svg"
   inkscape:version="1.3.2 (091e20ef0f, 2023-11-25)"
   xmlns:inkscape="http://www.inkscape.org/namespaces/inkscape"
   xmlns:sodipodi="http://sodipodi.sourceforge.net/DTD/sodipodi-0.dtd"
   xmlns="http://www.w3.org/2000/svg"
   xmlns:svg="http://www.w3.org/2000/svg">
  <defs
     id="defs104" />
  <sodipodi:namedview
     id="namedview104"
     pagecolor="#ffffff"
     bordercolor="#999999"
     borderopacity="1"
     inkscape:showpageshadow="2"
     inkscape:pageopacity="0"
     inkscape:pagecheckerboard="0"
     inkscape:deskcolor="#d1d1d1"
     inkscape:zoom="1.6141079"
     inkscape:cx="244.71722"
     inkscape:cy="241"
     inkscape:window-width="1920"
     inkscape:window-height="1003"
     inkscape:window-x="0"
     inkscape:window-y="0"
     inkscape:window-maximized="1"
     inkscape:current-layer="svg104" />
  <g
     id="g1">
    <path
       style="opacity:1"
       fill="#fefefe"
       d="M -0.5,-0.5 C 162.833,-0.5 326.167,-0.5 489.5,-0.5C 489.5,160.167 489.5,320.833 489.5,481.5C 326.167,481.5 162.833,481.5 -0.5,481.5C -0.5,320.833 -0.5,160.167 -0.5,-0.5 Z"
       id="path1" />
  </g>
  <g
     id="g2">
    <path
       style="opacity:1"
       fill="#cecdcd"
       d="M 309.5,15.5 C 307.042,14.3769 304.875,14.3769 303,15.5C 302.195,13.0989 301.362,13.2656 300.5,16C 306.465,18.329 312.465,20.6623 318.5,23C 319.38,24.3561 319.714,25.8561 319.5,27.5C 318.167,27.5 316.833,27.5 315.5,27.5C 315.5,28.8333 315.5,30.1667 315.5,31.5C 301.534,26.449 287.2,22.7823 272.5,20.5C 263.385,19.2911 254.385,18.2911 245.5,17.5C 251.732,17.9638 257.732,17.2971 263.5,15.5C 263.48,13.857 264.147,12.5237 265.5,11.5C 264.286,9.93089 262.619,9.09755 260.5,9C 244.833,8.33333 229.167,8.33333 213.5,9C 207.954,9.36928 202.62,10.2026 197.5,11.5C 169.166,15.8389 142.833,25.5056 118.5,40.5C 117.761,40.631 117.094,40.4643 116.5,40C 117.337,38.9887 117.67,37.8221 117.5,36.5C 170.703,5.36876 227.703,-3.79791 288.5,9C 295.839,10.4123 302.839,12.579 309.5,15.5 Z"
       id="path2" />
  </g>
  <g
     id="g3">
    <path
       style="opacity:1"
       fill="#ebeaea"
       d="M 245.5,17.5 C 227.999,17.1108 210.666,18.4441 193.5,21.5C 192.697,20.5768 192.53,19.5768 193,18.5C 193.718,19.4506 194.551,19.6172 195.5,19C 196.952,16.2553 198.952,13.9219 201.5,12C 200.207,11.51 198.873,11.3433 197.5,11.5C 202.62,10.2026 207.954,9.36928 213.5,9C 229.167,8.33333 244.833,8.33333 260.5,9C 262.619,9.09755 264.286,9.93089 265.5,11.5C 264.147,12.5237 263.48,13.857 263.5,15.5C 257.732,17.2971 251.732,17.9638 245.5,17.5 Z"
       id="path3" />
  </g>
  <g
     id="g4">
    <path
       style="opacity:1"
       fill="#f8f8f8"
       d="M 197.5,11.5 C 198.873,11.3433 200.207,11.51 201.5,12C 198.952,13.9219 196.952,16.2553 195.5,19C 194.551,19.6172 193.718,19.4506 193,18.5C 192.53,19.5768 192.697,20.5768 193.5,21.5C 173.152,26.0735 153.819,33.0735 135.5,42.5C 74.2705,75.2553 35.7705,125.589 20,193.5C 16.6402,211.677 15.1402,230.01 15.5,248.5C 15.1324,254.221 14.4657,259.888 13.5,265.5C 11.549,265.227 10.049,265.893 9,267.5C 8.61742,266.944 8.11742,266.611 7.5,266.5C 6.89049,260.185 6.55715,253.851 6.5,247.5C 5.95941,157.556 43.2927,88.5558 118.5,40.5C 142.833,25.5056 169.166,15.8389 197.5,11.5 Z"
       id="path4" />
  </g>
  <g
     id="g5">
    <path
       style="opacity:1"
       fill="#7a7877"
       d="M 245.5,17.5 C 254.385,18.2911 263.385,19.2911 272.5,20.5C 272.5,21.5 272.5,22.5 272.5,23.5C 270.5,23.5 268.5,23.5 266.5,23.5C 220.361,17.5843 176.694,25.2509 135.5,46.5C 135.389,45.8826 135.056,45.3826 134.5,45C 135.678,44.0331 137.011,43.5331 138.5,43.5C 137.675,42.6143 136.675,42.281 135.5,42.5C 153.819,33.0735 173.152,26.0735 193.5,21.5C 210.666,18.4441 227.999,17.1108 245.5,17.5 Z"
       id="path5" />
  </g>
  <g
     id="g6">
    <path
       style="opacity:1"
       fill="#f2ebcb"
       d="M 266.5,23.5 C 279.928,25.6916 293.262,28.8583 306.5,33C 313.417,34.7971 319.751,37.6305 325.5,41.5C 323.143,41.6633 320.81,41.4966 318.5,41C 313.053,37.892 307.387,35.2253 301.5,33C 297.564,32.9973 293.897,32.164 290.5,30.5C 289.393,31.0219 288.226,31.3552 287,31.5C 279.571,29.081 272.071,26.9144 264.5,25C 248.002,25.7281 231.502,25.5614 215,24.5C 211.793,24.7414 208.626,25.2414 205.5,26C 205.833,26.3333 206.167,26.6667 206.5,27C 196.295,29.623 185.961,31.623 175.5,33C 166.523,36.27 157.523,39.4367 148.5,42.5C 147.313,43.5195 146.313,44.6861 145.5,46C 144.216,46.6838 143.049,46.5171 142,45.5C 140.068,47.0383 137.901,48.205 135.5,49C 135.025,50.7666 134.025,52.5999 132.5,54.5C 128.081,55.258 124.081,57.0913 120.5,60C 117.362,63.7816 113.528,66.6149 109,68.5C 108.228,68.3552 107.561,68.0219 107,67.5C 101.676,71.991 96.843,76.991 92.5,82.5C 90.8662,82.968 89.6995,83.968 89,85.5C 88.6667,85.1667 88.3333,84.8333 88,84.5C 84.5248,92.1454 79.0248,97.4788 71.5,100.5C 69.8333,104.167 68.1667,107.833 66.5,111.5C 65.5,111.5 64.5,111.5 63.5,111.5C 63.4533,114.568 62.9533,117.568 62,120.5C 58.5637,123.047 56.397,126.38 55.5,130.5C 54.5,130.5 53.5,130.5 52.5,130.5C 52.6602,132.199 52.4935,133.866 52,135.5C 48.8861,141.393 46.0528,147.393 43.5,153.5C 42.8589,154.993 41.8589,155.993 40.5,156.5C 39.5028,156.47 38.8361,156.97 38.5,158C 38.0969,159.473 37.4303,160.806 36.5,162C 37.6223,163.613 37.1223,164.78 35,165.5C 34.9037,168.876 33.4037,171.209 30.5,172.5C 44.1081,131.123 67.7748,96.6227 101.5,69C 112.347,60.7446 123.68,53.2446 135.5,46.5C 176.694,25.2509 220.361,17.5843 266.5,23.5 Z"
       id="path6" />
  </g>
  <g
     id="g7">
    <path
       style="opacity:1"
       fill="#fdf5d0"
       d="M 219.5,31.5 C 211.043,35.2695 202.377,38.7695 193.5,42C 187.322,46.0287 181.655,50.5287 176.5,55.5C 173.036,63.4349 172.036,71.6015 173.5,80C 171.913,80.8624 170.246,81.5291 168.5,82C 169.337,83.0113 169.67,84.1779 169.5,85.5C 167.072,87.0435 164.406,88.0435 161.5,88.5C 156.339,87.1613 156.672,86.328 162.5,86C 160.866,85.5065 159.199,85.3398 157.5,85.5C 156.7,72.1357 160.7,60.6357 169.5,51C 174.021,46.9777 178.688,43.1444 183.5,39.5C 185.776,38.7868 188.109,38.2868 190.5,38C 189.095,36.7308 187.429,36.2308 185.5,36.5C 196.456,33.3769 207.789,31.7103 219.5,31.5 Z"
       id="path7" />
  </g>
  <g
     id="g8">
    <path
       style="opacity:1"
       fill="#fcf2c2"
       d="M 219.5,31.5 C 227.174,31.3336 234.841,31.5003 242.5,32C 224.158,33.1133 207.491,38.78 192.5,49C 188.551,53.0744 185.217,57.5744 182.5,62.5C 181.504,68.4632 181.171,74.4632 181.5,80.5C 177.5,82.1667 173.5,83.8333 169.5,85.5C 169.67,84.1779 169.337,83.0113 168.5,82C 170.246,81.5291 171.913,80.8624 173.5,80C 172.036,71.6015 173.036,63.4349 176.5,55.5C 181.655,50.5287 187.322,46.0287 193.5,42C 202.377,38.7695 211.043,35.2695 219.5,31.5 Z"
       id="path8" />
  </g>
  <g
     id="g9">
    <path
       style="opacity:1"
       fill="#f8e48f"
       d="M 321.5,50.5 C 324.765,50.2991 327.431,51.4657 329.5,54C 334.242,53.5133 337.908,55.1799 340.5,59C 349.169,63.6656 357.502,68.8322 365.5,74.5C 367.909,78.1997 370.909,81.1997 374.5,83.5C 374.5,83.8333 374.5,84.1667 374.5,84.5C 370.223,83.7517 367.223,81.4184 365.5,77.5C 362.696,75.8619 360.029,74.0285 357.5,72C 354.204,70.4893 350.871,69.3226 347.5,68.5C 342.489,63.3228 336.489,59.6561 329.5,57.5C 328.713,56.7579 328.047,55.9246 327.5,55C 322.21,53.1788 316.877,51.6788 311.5,50.5C 304.645,46.7148 297.312,44.2148 289.5,43C 271.856,41.3707 254.522,42.8707 237.5,47.5C 234.455,50.5466 231.122,53.2133 227.5,55.5C 228.325,56.3857 229.325,56.719 230.5,56.5C 230.823,60.226 230.489,63.8927 229.5,67.5C 228.3,68.5312 226.966,69.3645 225.5,70C 229.356,70.1773 233.023,70.6773 236.5,71.5C 231.463,71.4126 226.463,71.746 221.5,72.5C 220.048,71.6981 218.382,71.1981 216.5,71C 227.146,70.1707 227.146,69.6707 216.5,69.5C 216.8,64.9014 216.467,60.4014 215.5,56C 217.158,54.3375 219.158,53.5041 221.5,53.5C 221.351,52.448 221.517,51.448 222,50.5C 224.589,48.7888 227.089,46.9555 229.5,45C 241.348,42.9059 253.181,40.7392 265,38.5C 267.999,38.4809 270.832,39.1475 273.5,40.5C 274.446,40.0133 275.446,39.6799 276.5,39.5C 282.763,40.8422 289.096,41.6756 295.5,42C 304.055,45.274 312.722,48.1073 321.5,50.5 Z"
       id="path9" />
  </g>
  <g
     id="g10">
    <path
       style="opacity:1"
       fill="#fef9e3"
       d="M 185.5,36.5 C 187.429,36.2308 189.095,36.7308 190.5,38C 188.109,38.2868 185.776,38.7868 183.5,39.5C 178.688,43.1444 174.021,46.9777 169.5,51C 160.7,60.6357 156.7,72.1357 157.5,85.5C 159.199,85.3398 160.866,85.5065 162.5,86C 156.672,86.328 156.339,87.1613 161.5,88.5C 156.236,91.8065 150.902,95.1399 145.5,98.5C 143.169,95.2976 144.169,93.1309 148.5,92C 146.901,90.2137 146.067,88.047 146,85.5C 145.103,77.2148 146.269,69.2148 149.5,61.5C 151.209,57.5173 153.876,53.684 157.5,50C 156.167,49.3333 156.167,48.6667 157.5,48C 156.552,47.5172 155.552,47.3505 154.5,47.5C 156.273,46.1077 158.273,44.941 160.5,44C 168.849,41.4888 177.182,38.9888 185.5,36.5 Z"
       id="path10" />
  </g>
  <g
     id="g11">
    <path
       style="opacity:1"
       fill="#9e9c9b"
       d="M 272.5,20.5 C 287.2,22.7823 301.534,26.449 315.5,31.5C 335.433,39.6362 354.1,50.1362 371.5,63C 370.978,63.5613 370.645,64.228 370.5,65C 371.429,66.0769 372.096,67.2436 372.5,68.5C 363.395,62.1055 354.062,55.9389 344.5,50C 338.34,46.5828 332.007,43.7495 325.5,41.5C 319.751,37.6305 313.417,34.7971 306.5,33C 293.262,28.8583 279.928,25.6916 266.5,23.5C 268.5,23.5 270.5,23.5 272.5,23.5C 272.5,22.5 272.5,21.5 272.5,20.5 Z"
       id="path11" />
  </g>
  <g
     id="g12">
    <path
       style="opacity:1"
       fill="#f7db73"
       d="M 311.5,50.5 C 316.877,51.6788 322.21,53.1788 327.5,55C 328.047,55.9246 328.713,56.7579 329.5,57.5C 336.489,59.6561 342.489,63.3228 347.5,68.5C 353.245,74.2108 359.579,79.2108 366.5,83.5C 358.694,80.0931 351.694,75.4265 345.5,69.5C 341.432,67.6443 337.432,65.4777 333.5,63C 326.57,60.8545 319.904,58.0212 313.5,54.5C 301.564,52.3405 289.564,51.1738 277.5,51C 273.779,51.6198 270.112,52.4532 266.5,53.5C 266.667,53.8333 266.833,54.1667 267,54.5C 272.494,52.7052 277.994,52.5385 283.5,54C 278.526,54.0356 273.859,55.2023 269.5,57.5C 268.617,58.548 267.95,59.7147 267.5,61C 268.08,63.4582 268.414,65.9582 268.5,68.5C 268.461,70.9522 267.794,72.9522 266.5,74.5C 258.361,73.4941 250.361,72.4941 242.5,71.5C 243.058,70.2101 244.058,69.3768 245.5,69C 243.77,65.1485 242.937,60.9818 243,56.5C 242.808,58.5767 242.308,60.5767 241.5,62.5C 240.682,59.8929 240.182,57.2263 240,54.5C 239.586,54.9574 239.086,55.2907 238.5,55.5C 237.548,53.9547 237.215,52.288 237.5,50.5C 249.84,47.9833 262.34,46.3166 275,45.5C 287.298,46.4028 299.465,48.0695 311.5,50.5 Z"
       id="path12" />
  </g>
  <g
     id="g13">
    <path
       style="opacity:1"
       fill="#fefefc"
       d="M 92.5,88.5 C 107.256,73.4253 124.256,61.4253 143.5,52.5C 144.967,51.7084 146.3,51.7084 147.5,52.5C 145.999,53.7515 144.332,54.7515 142.5,55.5C 141.394,57.2844 141.394,59.1178 142.5,61C 141.419,62.3707 140.585,63.8707 140,65.5C 139.786,70.8854 139.286,76.2187 138.5,81.5C 139.451,86.7698 139.785,92.1032 139.5,97.5C 137.633,97.955 135.8,98.6216 134,99.5C 129.264,97.5542 124.43,95.7209 119.5,94C 117.765,93.3486 116.098,93.5153 114.5,94.5C 113.41,93.273 112.076,92.4396 110.5,92C 106.389,91.6975 102.389,90.8642 98.5,89.5C 96.5191,89.4371 94.8524,90.1038 93.5,91.5C 92.6143,90.675 92.281,89.675 92.5,88.5 Z"
       id="path13" />
  </g>
  <g
     id="g14">
    <path
       style="opacity:1"
       fill="#b1b0b0"
       d="M 309.5,15.5 C 347.315,27.6654 379.982,47.9987 407.5,76.5C 405.857,76.5198 404.524,75.8532 403.5,74.5C 401.946,76.9329 401.28,79.5995 401.5,82.5C 399.304,82.5652 397.304,83.2319 395.5,84.5C 398.2,86.8649 400.533,89.5315 402.5,92.5C 402.565,92.9382 402.399,93.2716 402,93.5C 400.416,92.1387 398.582,91.472 396.5,91.5C 388.5,83.8333 380.5,76.1667 372.5,68.5C 372.096,67.2436 371.429,66.0769 370.5,65C 370.645,64.228 370.978,63.5613 371.5,63C 354.1,50.1362 335.433,39.6362 315.5,31.5C 315.5,30.1667 315.5,28.8333 315.5,27.5C 316.833,27.5 318.167,27.5 319.5,27.5C 319.714,25.8561 319.38,24.3561 318.5,23C 312.465,20.6623 306.465,18.329 300.5,16C 301.362,13.2656 302.195,13.0989 303,15.5C 304.875,14.3769 307.042,14.3769 309.5,15.5 Z"
       id="path14" />
  </g>
  <g
     id="g15">
    <path
       style="opacity:1"
       fill="#fefcf3"
       d="M 151.5,47.5 C 152.5,47.5 153.5,47.5 154.5,47.5C 155.552,47.3505 156.552,47.5172 157.5,48C 156.167,48.6667 156.167,49.3333 157.5,50C 153.876,53.684 151.209,57.5173 149.5,61.5C 146.269,69.2148 145.103,77.2148 146,85.5C 146.067,88.047 146.901,90.2137 148.5,92C 144.169,93.1309 143.169,95.2976 145.5,98.5C 142.003,101.083 138.336,103.416 134.5,105.5C 133.288,103.446 131.621,103.446 129.5,105.5C 123.86,104.287 118.527,102.287 113.5,99.5C 105.855,98.3352 98.1883,98.1685 90.5,99C 87.0622,99.8913 83.8955,101.391 81,103.5C 80.5172,102.552 80.3505,101.552 80.5,100.5C 83.6141,95.5967 87.6141,91.5967 92.5,88.5C 92.281,89.675 92.6143,90.675 93.5,91.5C 94.8524,90.1038 96.5191,89.4371 98.5,89.5C 102.389,90.8642 106.389,91.6975 110.5,92C 112.076,92.4396 113.41,93.273 114.5,94.5C 116.098,93.5153 117.765,93.3486 119.5,94C 124.43,95.7209 129.264,97.5542 134,99.5C 135.8,98.6216 137.633,97.955 139.5,97.5C 139.785,92.1032 139.451,86.7698 138.5,81.5C 139.286,76.2187 139.786,70.8854 140,65.5C 140.585,63.8707 141.419,62.3707 142.5,61C 141.394,59.1178 141.394,57.2844 142.5,55.5C 144.332,54.7515 145.999,53.7515 147.5,52.5C 146.3,51.7084 144.967,51.7084 143.5,52.5C 145.72,51.021 148.054,49.6877 150.5,48.5C 151.167,48.5 151.5,48.1667 151.5,47.5 Z"
       id="path15" />
  </g>
  <g
     id="g16">
    <path
       style="opacity:1"
       fill="#f6d04b"
       d="M 322.5,65.5 C 318.619,64.1651 314.619,62.9984 310.5,62C 305.816,61.5386 301.149,61.7053 296.5,62.5C 295.825,68.2835 296.158,74.1169 297.5,80C 296.934,80.9947 296.267,81.828 295.5,82.5C 290.675,81.3314 286.009,79.998 281.5,78.5C 286.511,78.2545 287.177,76.9212 283.5,74.5C 281.569,68.8819 282.569,64.0486 286.5,60C 284.744,59.7978 283.078,59.2978 281.5,58.5C 282.517,55.972 283.684,55.972 285,58.5C 285.5,58 286,57.5 286.5,57C 293.5,56.3333 300.5,56.3333 307.5,57C 313.02,58.9986 318.02,61.8319 322.5,65.5 Z"
       id="path16" />
  </g>
  <g
     id="g17">
    <path
       style="opacity:1"
       fill="#f7cc34"
       d="M 322.5,65.5 C 326.402,67.8204 330.402,70.1537 334.5,72.5C 334.863,73.1835 335.196,73.8501 335.5,74.5C 330.223,72.0037 324.89,69.5037 319.5,67C 314.411,65.1054 309.411,65.1054 304.5,67C 307.416,67.0488 308.416,68.2155 307.5,70.5C 308.357,71.4252 309.357,72.0919 310.5,72.5C 310.219,77.5649 310.552,82.5649 311.5,87.5C 310.277,88.6139 308.944,88.7805 307.5,88C 303.306,86.3518 299.306,84.5185 295.5,82.5C 296.267,81.828 296.934,80.9947 297.5,80C 296.158,74.1169 295.825,68.2835 296.5,62.5C 301.149,61.7053 305.816,61.5386 310.5,62C 314.619,62.9984 318.619,64.1651 322.5,65.5 Z"
       id="path17" />
  </g>
  <g
     id="g18">
    <path
       style="opacity:1"
       fill="#dedede"
       d="M 117.5,36.5 C 117.67,37.8221 117.337,38.9887 116.5,40C 117.094,40.4643 117.761,40.631 118.5,40.5C 43.2927,88.5558 5.95941,157.556 6.5,247.5C 5.83338,239.657 5.16671,231.657 4.5,223.5C 3.41043,224.391 3.41043,225.391 4.5,226.5C 4,227.5 3.5,228.5 3,229.5C 2.50031,237.159 2.33365,244.826 2.5,252.5C -0.658484,170.479 29.6748,103.646 93.5,52C 101.358,46.5736 109.358,41.4069 117.5,36.5 Z"
       id="path18" />
  </g>
  <g
     id="g19">
    <path
       style="opacity:1"
       fill="#f5cb0d"
       d="M 335.5,74.5 C 340.21,80.3687 346.21,84.5353 353.5,87C 356.795,89.4614 359.129,92.6281 360.5,96.5C 361.689,97.4287 363.022,97.762 364.5,97.5C 367.073,101.58 370.239,105.247 374,108.5C 374.483,109.448 374.649,110.448 374.5,111.5C 377.94,111.337 379.94,113.004 380.5,116.5C 386.938,119.955 391.272,125.289 393.5,132.5C 394.855,134.521 396.521,136.188 398.5,137.5C 399.367,140.908 400.533,144.242 402,147.5C 426.856,191.067 432.522,237.4 419,286.5C 418.667,286.167 418.333,285.833 418,285.5C 417.885,292.742 415.718,299.242 411.5,305C 410.296,309.428 409.463,313.928 409,318.5C 404.462,329.215 398.129,338.882 390,347.5C 389,349.833 388,352.167 387,354.5C 383.302,358.366 379.469,362.033 375.5,365.5C 373.308,368.279 371.641,371.279 370.5,374.5C 369.167,374.5 367.833,374.5 366.5,374.5C 364.646,377.71 362.312,380.71 359.5,383.5C 350.863,389.716 341.863,395.383 332.5,400.5C 331.614,401.325 331.281,402.325 331.5,403.5C 329.396,403.201 327.396,403.534 325.5,404.5C 321.994,407.755 317.994,410.255 313.5,412C 300.307,417.395 286.64,421.395 272.5,424C 246.839,427.219 221.172,427.219 195.5,424C 189.324,421.759 182.99,419.759 176.5,418C 166.49,412.84 156.157,408.34 145.5,404.5C 144.833,403.5 144.167,402.5 143.5,401.5C 130.673,393.439 118.673,384.439 107.5,374.5C 106.448,374.649 105.448,374.483 104.5,374C 84.231,354.399 68.731,331.565 58,305.5C 58.5497,299.948 56.8831,295.282 53,291.5C 52.9435,281.024 51.7768,270.691 49.5,260.5C 49.743,257.344 50.5763,254.344 52,251.5C 52.9772,250.226 53.8106,250.226 54.5,251.5C 56.5835,254.641 58.2502,258.141 59.5,262C 58.8778,263.569 58.5445,265.236 58.5,267C 59.1218,271.202 59.9552,275.368 61,279.5C 62.6995,280.406 64.5328,280.739 66.5,280.5C 66.8915,285.011 66.2248,289.345 64.5,293.5C 65.9074,296.721 66.9074,300.055 67.5,303.5C 69.1667,303.5 70.8333,303.5 72.5,303.5C 72.5,307.5 72.5,311.5 72.5,315.5C 74.5,315.5 76.5,315.5 78.5,315.5C 78.8399,318.144 78.1733,320.477 76.5,322.5C 77.9501,323.85 78.6168,325.516 78.5,327.5C 80.1667,327.5 81.8333,327.5 83.5,327.5C 83.3359,330.187 83.5026,332.854 84,335.5C 86.5051,337.196 88.0051,339.53 88.5,342.5C 89.8333,343.5 91.1667,344.5 92.5,345.5C 93.1667,345.167 93.8333,344.833 94.5,344.5C 95.4656,346.396 95.7989,348.396 95.5,350.5C 97.5,350.5 99.5,350.5 101.5,350.5C 101.422,353.252 101.255,355.918 101,358.5C 109.69,367.19 117.19,374.69 123.5,381C 125.527,381.498 127.527,381.331 129.5,380.5C 131.833,380.833 132.167,381.833 130.5,383.5C 131.722,385.978 133.722,386.978 136.5,386.5C 136.351,387.552 136.517,388.552 137,389.5C 138.955,390.453 140.622,391.787 142,393.5C 144.041,392.577 146.208,392.244 148.5,392.5C 148.5,394.5 148.5,396.5 148.5,398.5C 150.06,398.519 151.56,398.852 153,399.5C 155.256,397.915 157.756,397.248 160.5,397.5C 160.047,400.652 161.047,403.152 163.5,405C 166.355,404.231 169.355,403.731 172.5,403.5C 172.5,405.5 172.5,407.5 172.5,409.5C 175.725,409.411 178.725,410.077 181.5,411.5C 184.067,410.336 186.734,409.67 189.5,409.5C 189.286,411.144 189.62,412.644 190.5,414C 193.089,415.197 195.756,416.197 198.5,417C 205.469,416.508 212.469,416.008 219.5,415.5C 219.5,417.167 219.5,418.833 219.5,420.5C 231.167,420.5 242.833,420.5 254.5,420.5C 254.5,418.833 254.5,417.167 254.5,415.5C 261.618,415.069 268.618,415.736 275.5,417.5C 279.951,415.476 284.618,414.476 289.5,414.5C 289.931,409.156 292.431,408.156 297,411.5C 304.535,408.465 312.035,405.465 319.5,402.5C 319.5,400.833 319.5,399.167 319.5,397.5C 326.3,398.596 331.966,396.596 336.5,391.5C 337.309,389.929 337.643,388.262 337.5,386.5C 339.915,386.627 342.249,386.793 344.5,387C 346.83,383.845 349.83,381.678 353.5,380.5C 354.466,378.604 354.799,376.604 354.5,374.5C 356.5,374.5 358.5,374.5 360.5,374.5C 360.5,372.5 360.5,370.5 360.5,368.5C 362.5,368.5 364.5,368.5 366.5,368.5C 366.5,366.5 366.5,364.5 366.5,362.5C 368.5,362.5 370.5,362.5 372.5,362.5C 372.5,360.5 372.5,358.5 372.5,356.5C 378.191,356.156 381.857,353.156 383.5,347.5C 384.646,346.855 385.646,346.022 386.5,345C 384.808,343.599 384.141,341.766 384.5,339.5C 389.5,340.5 391.5,338.5 390.5,333.5C 391.833,333.5 393.167,333.5 394.5,333.5C 394.472,331.418 395.139,329.584 396.5,328C 395.577,325.959 395.244,323.792 395.5,321.5C 397.5,321.5 399.5,321.5 401.5,321.5C 401.626,319.8 402.293,318.3 403.5,317C 401.915,314.744 401.248,312.244 401.5,309.5C 403.5,309.5 405.5,309.5 407.5,309.5C 407.538,306.379 408.205,303.379 409.5,300.5C 408.162,297.933 407.662,295.266 408,292.5C 409.751,291.826 411.417,291.493 413,291.5C 413.336,288.462 414.169,285.628 415.5,283C 413.803,278.317 413.136,273.484 413.5,268.5C 415.167,268.5 416.833,268.5 418.5,268.5C 419.148,258.672 419.815,248.839 420.5,239C 419.815,229.161 419.148,219.328 418.5,209.5C 416.833,209.5 415.167,209.5 413.5,209.5C 413.578,203.73 414.078,198.064 415,192.5C 413.837,190.715 413.17,188.715 413,186.5C 411.417,186.507 409.751,186.174 408,185.5C 407.506,183.866 407.34,182.199 407.5,180.5C 408.5,180.5 409.5,180.5 410.5,180.5C 409.292,176.425 407.792,172.425 406,168.5C 405.193,172.449 404.693,172.449 404.5,168.5C 403.5,168.5 402.5,168.5 401.5,168.5C 401.248,165.756 401.915,163.256 403.5,161C 402.293,159.7 401.626,158.2 401.5,156.5C 399.5,156.5 397.5,156.5 395.5,156.5C 396.285,152.641 396.118,148.975 395,145.5C 393.644,144.62 392.144,144.286 390.5,144.5C 391.5,139.5 389.5,137.5 384.5,138.5C 384.141,136.234 384.808,134.401 386.5,133C 383.069,129.99 380.402,126.49 378.5,122.5C 376.604,121.534 374.604,121.201 372.5,121.5C 372.5,119.5 372.5,117.5 372.5,115.5C 370.5,115.5 368.5,115.5 366.5,115.5C 366.5,113.5 366.5,111.5 366.5,109.5C 364.5,109.5 362.5,109.5 360.5,109.5C 360.5,107.5 360.5,105.5 360.5,103.5C 358.5,103.5 356.5,103.5 354.5,103.5C 354.953,100.348 353.953,97.8479 351.5,96C 350.551,95.3828 349.718,95.5494 349,96.5C 346.575,91.9372 342.742,90.2706 337.5,91.5C 337.826,87.8191 336.326,85.1525 333,83.5C 328.926,80.8742 324.426,79.8742 319.5,80.5C 319.785,78.712 319.452,77.0453 318.5,75.5C 315.906,96.6681 314.406,96.3347 314,74.5C 312.887,73.695 311.721,73.0283 310.5,72.5C 309.357,72.0919 308.357,71.4252 307.5,70.5C 308.416,68.2155 307.416,67.0488 304.5,67C 309.411,65.1054 314.411,65.1054 319.5,67C 324.89,69.5037 330.223,72.0037 335.5,74.5 Z"
       id="path19" />
  </g>
  <g
     id="g20">
    <path
       style="opacity:1"
       fill="#f4c601"
       d="M 236.5,71.5 C 238.5,71.5 240.5,71.5 242.5,71.5C 250.361,72.4941 258.361,73.4941 266.5,74.5C 271.508,75.5087 276.508,76.842 281.5,78.5C 286.009,79.998 290.675,81.3314 295.5,82.5C 299.306,84.5185 303.306,86.3518 307.5,88C 308.944,88.7805 310.277,88.6139 311.5,87.5C 310.552,82.5649 310.219,77.5649 310.5,72.5C 311.721,73.0283 312.887,73.695 314,74.5C 314.406,96.3347 315.906,96.6681 318.5,75.5C 319.452,77.0453 319.785,78.712 319.5,80.5C 324.426,79.8742 328.926,80.8742 333,83.5C 336.326,85.1525 337.826,87.8191 337.5,91.5C 342.742,90.2706 346.575,91.9372 349,96.5C 349.718,95.5494 350.551,95.3828 351.5,96C 353.953,97.8479 354.953,100.348 354.5,103.5C 356.5,103.5 358.5,103.5 360.5,103.5C 360.5,105.5 360.5,107.5 360.5,109.5C 362.5,109.5 364.5,109.5 366.5,109.5C 366.5,111.5 366.5,113.5 366.5,115.5C 368.5,115.5 370.5,115.5 372.5,115.5C 372.5,117.5 372.5,119.5 372.5,121.5C 374.604,121.201 376.604,121.534 378.5,122.5C 380.402,126.49 383.069,129.99 386.5,133C 384.808,134.401 384.141,136.234 384.5,138.5C 389.5,137.5 391.5,139.5 390.5,144.5C 392.144,144.286 393.644,144.62 395,145.5C 396.118,148.975 396.285,152.641 395.5,156.5C 397.5,156.5 399.5,156.5 401.5,156.5C 401.626,158.2 402.293,159.7 403.5,161C 401.915,163.256 401.248,165.756 401.5,168.5C 402.5,168.5 403.5,168.5 404.5,168.5C 404.693,172.449 405.193,172.449 406,168.5C 407.792,172.425 409.292,176.425 410.5,180.5C 409.5,180.5 408.5,180.5 407.5,180.5C 407.34,182.199 407.506,183.866 408,185.5C 409.751,186.174 411.417,186.507 413,186.5C 413.17,188.715 413.837,190.715 415,192.5C 414.078,198.064 413.578,203.73 413.5,209.5C 415.167,209.5 416.833,209.5 418.5,209.5C 419.148,219.328 419.815,229.161 420.5,239C 419.815,248.839 419.148,258.672 418.5,268.5C 416.833,268.5 415.167,268.5 413.5,268.5C 413.136,273.484 413.803,278.317 415.5,283C 414.169,285.628 413.336,288.462 413,291.5C 411.417,291.493 409.751,291.826 408,292.5C 407.662,295.266 408.162,297.933 409.5,300.5C 408.205,303.379 407.538,306.379 407.5,309.5C 405.5,309.5 403.5,309.5 401.5,309.5C 401.248,312.244 401.915,314.744 403.5,317C 402.293,318.3 401.626,319.8 401.5,321.5C 399.5,321.5 397.5,321.5 395.5,321.5C 395.244,323.792 395.577,325.959 396.5,328C 395.139,329.584 394.472,331.418 394.5,333.5C 393.167,333.5 391.833,333.5 390.5,333.5C 391.5,338.5 389.5,340.5 384.5,339.5C 384.141,341.766 384.808,343.599 386.5,345C 385.646,346.022 384.646,346.855 383.5,347.5C 381.857,353.156 378.191,356.156 372.5,356.5C 372.5,358.5 372.5,360.5 372.5,362.5C 370.5,362.5 368.5,362.5 366.5,362.5C 366.5,364.5 366.5,366.5 366.5,368.5C 364.5,368.5 362.5,368.5 360.5,368.5C 360.5,370.5 360.5,372.5 360.5,374.5C 358.5,374.5 356.5,374.5 354.5,374.5C 354.799,376.604 354.466,378.604 353.5,380.5C 349.83,381.678 346.83,383.845 344.5,387C 342.249,386.793 339.915,386.627 337.5,386.5C 337.643,388.262 337.309,389.929 336.5,391.5C 331.966,396.596 326.3,398.596 319.5,397.5C 319.5,399.167 319.5,400.833 319.5,402.5C 312.035,405.465 304.535,408.465 297,411.5C 292.431,408.156 289.931,409.156 289.5,414.5C 284.618,414.476 279.951,415.476 275.5,417.5C 268.618,415.736 261.618,415.069 254.5,415.5C 254.5,417.167 254.5,418.833 254.5,420.5C 242.833,420.5 231.167,420.5 219.5,420.5C 219.5,418.833 219.5,417.167 219.5,415.5C 212.469,416.008 205.469,416.508 198.5,417C 195.756,416.197 193.089,415.197 190.5,414C 189.62,412.644 189.286,411.144 189.5,409.5C 186.734,409.67 184.067,410.336 181.5,411.5C 178.725,410.077 175.725,409.411 172.5,409.5C 172.5,407.5 172.5,405.5 172.5,403.5C 169.355,403.731 166.355,404.231 163.5,405C 161.047,403.152 160.047,400.652 160.5,397.5C 157.756,397.248 155.256,397.915 153,399.5C 151.56,398.852 150.06,398.519 148.5,398.5C 148.5,396.5 148.5,394.5 148.5,392.5C 146.208,392.244 144.041,392.577 142,393.5C 140.622,391.787 138.955,390.453 137,389.5C 136.517,388.552 136.351,387.552 136.5,386.5C 133.722,386.978 131.722,385.978 130.5,383.5C 132.167,381.833 131.833,380.833 129.5,380.5C 127.527,381.331 125.527,381.498 123.5,381C 117.19,374.69 109.69,367.19 101,358.5C 101.255,355.918 101.422,353.252 101.5,350.5C 99.5,350.5 97.5,350.5 95.5,350.5C 95.7989,348.396 95.4656,346.396 94.5,344.5C 93.8333,344.833 93.1667,345.167 92.5,345.5C 91.1667,344.5 89.8333,343.5 88.5,342.5C 88.0051,339.53 86.5051,337.196 84,335.5C 83.5026,332.854 83.3359,330.187 83.5,327.5C 81.8333,327.5 80.1667,327.5 78.5,327.5C 78.6168,325.516 77.9501,323.85 76.5,322.5C 78.1733,320.477 78.8399,318.144 78.5,315.5C 76.5,315.5 74.5,315.5 72.5,315.5C 72.5,311.5 72.5,307.5 72.5,303.5C 70.8333,303.5 69.1667,303.5 67.5,303.5C 66.9074,300.055 65.9074,296.721 64.5,293.5C 66.2248,289.345 66.8915,285.011 66.5,280.5C 64.5328,280.739 62.6995,280.406 61,279.5C 59.9552,275.368 59.1218,271.202 58.5,267C 58.5445,265.236 58.8778,263.569 59.5,262C 58.2502,258.141 56.5835,254.641 54.5,251.5C 58.914,251.262 62.7473,252.929 66,256.5C 67.0174,253.972 68.1841,253.972 69.5,256.5C 70.4984,246.856 70.8318,237.19 70.5,227.5C 71.4942,220.534 72.1609,213.534 72.5,206.5C 74.6812,198.107 77.0145,189.773 79.5,181.5C 80.1098,180.609 80.4431,179.609 80.5,178.5C 83.8333,171.167 87.1667,163.833 90.5,156.5C 92.0828,154.337 93.4161,152.004 94.5,149.5C 99.8022,142.524 105.136,135.524 110.5,128.5C 111.833,126.833 113.167,125.167 114.5,123.5C 116.833,121.833 118.833,119.833 120.5,117.5C 125.486,113.845 130.153,109.845 134.5,105.5C 138.336,103.416 142.003,101.083 145.5,98.5C 150.902,95.1399 156.236,91.8065 161.5,88.5C 164.406,88.0435 167.072,87.0435 169.5,85.5C 173.5,83.8333 177.5,82.1667 181.5,80.5C 184.963,79.9009 188.296,78.9009 191.5,77.5C 201.299,74.7557 211.299,73.0891 221.5,72.5C 226.463,71.746 231.463,71.4126 236.5,71.5 Z"
       id="path20" />
  </g>
  <g
     id="g21">
    <path
       style="opacity:1"
       fill="#f8ebad"
       d="M 401.5,107.5 C 397.833,106.353 395.5,103.853 394.5,100C 389.938,97.7774 386.272,94.4441 383.5,90C 380.603,87.59 377.603,85.4233 374.5,83.5C 370.909,81.1997 367.909,78.1997 365.5,74.5C 357.502,68.8322 349.169,63.6656 340.5,59C 337.908,55.1799 334.242,53.5133 329.5,54C 327.431,51.4657 324.765,50.2991 321.5,50.5C 321.649,49.448 321.483,48.448 321,47.5C 307.006,38.0015 291.673,34.6682 275,37.5C 262.514,35.1451 250.014,34.9784 237.5,37C 235.102,38.7315 232.602,39.2315 230,38.5C 228.662,39.5061 227.329,40.5061 226,41.5C 225.586,41.0426 225.086,40.7093 224.5,40.5C 222.453,42.0152 220.119,42.8485 217.5,43C 216.069,43.4652 214.903,44.2986 214,45.5C 213.667,45.1667 213.333,44.8333 213,44.5C 209.111,48.0585 204.944,51.2252 200.5,54C 199.629,57.3373 198.629,60.6706 197.5,64C 198.382,67.4408 198.716,70.9408 198.5,74.5C 195.364,73.9791 193.03,74.9791 191.5,77.5C 188.296,78.9009 184.963,79.9009 181.5,80.5C 181.171,74.4632 181.504,68.4632 182.5,62.5C 185.217,57.5744 188.551,53.0744 192.5,49C 207.491,38.78 224.158,33.1133 242.5,32C 234.841,31.5003 227.174,31.3336 219.5,31.5C 207.789,31.7103 196.456,33.3769 185.5,36.5C 177.182,38.9888 168.849,41.4888 160.5,44C 158.273,44.941 156.273,46.1077 154.5,47.5C 153.5,47.5 152.5,47.5 151.5,47.5C 150.942,46.2101 149.942,45.3768 148.5,45C 150.235,44.3486 151.902,44.5153 153.5,45.5C 155.359,43.8076 157.359,42.3076 159.5,41C 179.105,34.7659 199.105,30.0992 219.5,27C 239.493,25.6376 259.326,26.8042 279,30.5C 292.664,34.2884 306.164,38.4551 319.5,43C 325.287,46.1564 331.287,48.8231 337.5,51C 338.901,53.5306 340.567,55.8639 342.5,58C 348.435,60.805 354.435,63.305 360.5,65.5C 360.5,66.5 360.5,67.5 360.5,68.5C 362.5,68.5 364.5,68.5 366.5,68.5C 366.297,70.3904 366.963,71.8904 368.5,73C 375.232,76.2292 380.565,81.0626 384.5,87.5C 387.828,90.6579 391.328,93.6579 395,96.5C 397.393,100.054 399.56,103.72 401.5,107.5 Z"
       id="path21" />
  </g>
  <g
     id="g22">
    <path
       style="opacity:1"
       fill="#f8df84"
       d="M 311.5,50.5 C 299.465,48.0695 287.298,46.4028 275,45.5C 262.34,46.3166 249.84,47.9833 237.5,50.5C 237.215,52.288 237.548,53.9547 238.5,55.5C 239.086,55.2907 239.586,54.9574 240,54.5C 240.182,57.2263 240.682,59.8929 241.5,62.5C 242.308,60.5767 242.808,58.5767 243,56.5C 242.937,60.9818 243.77,65.1485 245.5,69C 244.058,69.3768 243.058,70.2101 242.5,71.5C 240.5,71.5 238.5,71.5 236.5,71.5C 233.023,70.6773 229.356,70.1773 225.5,70C 226.966,69.3645 228.3,68.5312 229.5,67.5C 230.489,63.8927 230.823,60.226 230.5,56.5C 229.325,56.719 228.325,56.3857 227.5,55.5C 231.122,53.2133 234.455,50.5466 237.5,47.5C 254.522,42.8707 271.856,41.3707 289.5,43C 297.312,44.2148 304.645,46.7148 311.5,50.5 Z"
       id="path22" />
  </g>
  <g
     id="g23">
    <path
       style="opacity:1"
       fill="#f9e79d"
       d="M 321.5,50.5 C 312.722,48.1073 304.055,45.274 295.5,42C 289.096,41.6756 282.763,40.8422 276.5,39.5C 275.446,39.6799 274.446,40.0133 273.5,40.5C 270.832,39.1475 267.999,38.4809 265,38.5C 253.181,40.7392 241.348,42.9059 229.5,45C 227.089,46.9555 224.589,48.7888 222,50.5C 221.517,51.448 221.351,52.448 221.5,53.5C 219.158,53.5041 217.158,54.3375 215.5,56C 216.467,60.4014 216.8,64.9014 216.5,69.5C 227.146,69.6707 227.146,70.1707 216.5,71C 218.382,71.1981 220.048,71.6981 221.5,72.5C 211.299,73.0891 201.299,74.7557 191.5,77.5C 193.03,74.9791 195.364,73.9791 198.5,74.5C 198.716,70.9408 198.382,67.4408 197.5,64C 198.629,60.6706 199.629,57.3373 200.5,54C 204.944,51.2252 209.111,48.0585 213,44.5C 213.333,44.8333 213.667,45.1667 214,45.5C 214.903,44.2986 216.069,43.4652 217.5,43C 220.119,42.8485 222.453,42.0152 224.5,40.5C 225.086,40.7093 225.586,41.0426 226,41.5C 227.329,40.5061 228.662,39.5061 230,38.5C 232.602,39.2315 235.102,38.7315 237.5,37C 250.014,34.9784 262.514,35.1451 275,37.5C 291.673,34.6682 307.006,38.0015 321,47.5C 321.483,48.448 321.649,49.448 321.5,50.5 Z"
       id="path23" />
  </g>
  <g
     id="g24">
    <path
       style="opacity:1"
       fill="#f6edc4"
       d="M 325.5,41.5 C 332.007,43.7495 338.34,46.5828 344.5,50C 354.062,55.9389 363.395,62.1055 372.5,68.5C 380.5,76.1667 388.5,83.8333 396.5,91.5C 414.638,111.456 428.972,133.79 439.5,158.5C 451.788,190.354 456.288,223.354 453,257.5C 452.722,258.416 452.222,259.082 451.5,259.5C 450.186,246.173 450.186,232.84 451.5,219.5C 449.783,214.932 448.283,210.265 447,205.5C 445.493,188.722 441.16,172.388 434,156.5C 429.423,151.346 426.423,145.346 425,138.5C 423.7,135.568 421.7,133.234 419,131.5C 415.385,125.31 412.219,118.976 409.5,112.5C 406.679,112.684 405.012,111.351 404.5,108.5C 403.675,107.614 402.675,107.281 401.5,107.5C 399.56,103.72 397.393,100.054 395,96.5C 391.328,93.6579 387.828,90.6579 384.5,87.5C 380.565,81.0626 375.232,76.2292 368.5,73C 366.963,71.8904 366.297,70.3904 366.5,68.5C 364.5,68.5 362.5,68.5 360.5,68.5C 360.5,67.5 360.5,66.5 360.5,65.5C 354.435,63.305 348.435,60.805 342.5,58C 340.567,55.8639 338.901,53.5306 337.5,51C 331.287,48.8231 325.287,46.1564 319.5,43C 306.164,38.4551 292.664,34.2884 279,30.5C 259.326,26.8042 239.493,25.6376 219.5,27C 199.105,30.0992 179.105,34.7659 159.5,41C 157.359,42.3076 155.359,43.8076 153.5,45.5C 151.902,44.5153 150.235,44.3486 148.5,45C 149.942,45.3768 150.942,46.2101 151.5,47.5C 151.5,48.1667 151.167,48.5 150.5,48.5C 149.739,47.6091 148.739,46.9424 147.5,46.5C 142.464,49.1958 137.464,51.8624 132.5,54.5C 134.025,52.5999 135.025,50.7666 135.5,49C 137.901,48.205 140.068,47.0383 142,45.5C 143.049,46.5171 144.216,46.6838 145.5,46C 146.313,44.6861 147.313,43.5195 148.5,42.5C 157.523,39.4367 166.523,36.27 175.5,33C 185.961,31.623 196.295,29.623 206.5,27C 206.167,26.6667 205.833,26.3333 205.5,26C 208.626,25.2414 211.793,24.7414 215,24.5C 231.502,25.5614 248.002,25.7281 264.5,25C 272.071,26.9144 279.571,29.081 287,31.5C 288.226,31.3552 289.393,31.0219 290.5,30.5C 293.897,32.164 297.564,32.9973 301.5,33C 307.387,35.2253 313.053,37.892 318.5,41C 320.81,41.4966 323.143,41.6633 325.5,41.5 Z"
       id="path24" />
  </g>
  <g
     id="g25">
    <path
       style="opacity:1"
       fill="#f5d44b"
       d="M 322.5,65.5 C 333.425,67.7959 342.759,72.9625 350.5,81C 353.732,82.4661 357.065,83.6327 360.5,84.5C 363.314,87.1298 365.481,90.1298 367,93.5C 368.441,94.2598 369.941,94.9264 371.5,95.5C 373.509,97.5428 375.509,99.5428 377.5,101.5C 380.894,106.211 384.227,110.877 387.5,115.5C 386.5,115.5 385.5,115.5 384.5,115.5C 384.5,114.5 384.5,113.5 384.5,112.5C 383.5,112.5 382.5,112.5 381.5,112.5C 381.5,111.5 381.5,110.5 381.5,109.5C 378.331,109.338 376.331,107.672 375.5,104.5C 370.318,101.484 366.318,97.3174 363.5,92C 358.204,88.0129 352.538,84.5129 346.5,81.5C 345.738,80.3717 345.071,79.2051 344.5,78C 341.374,77.0105 338.374,75.8438 335.5,74.5C 335.196,73.8501 334.863,73.1835 334.5,72.5C 330.402,70.1537 326.402,67.8204 322.5,65.5 Z"
       id="path25" />
  </g>
  <g
     id="g26">
    <path
       style="opacity:1"
       fill="#f5d75f"
       d="M 366.5,83.5 C 366.215,85.288 366.548,86.9547 367.5,88.5C 375.826,94.6599 382.993,101.993 389,110.5C 390.147,109.542 391.147,109.875 392,111.5C 395.333,116.833 398.667,122.167 402,127.5C 403.488,129.16 405.321,130.16 407.5,130.5C 409.688,135.255 411.188,140.255 412,145.5C 415.356,148.876 417.69,152.876 419,157.5C 419.119,163.493 420.286,169.16 422.5,174.5C 421.685,173.571 420.852,172.571 420,171.5C 415.916,160.248 411.25,149.248 406,138.5C 402.369,133.203 398.369,128.203 394,123.5C 393.424,119.434 391.257,116.767 387.5,115.5C 384.227,110.877 380.894,106.211 377.5,101.5C 375.509,99.5428 373.509,97.5428 371.5,95.5C 369.941,94.9264 368.441,94.2598 367,93.5C 365.481,90.1298 363.314,87.1298 360.5,84.5C 357.065,83.6327 353.732,82.4661 350.5,81C 342.759,72.9625 333.425,67.7959 322.5,65.5C 318.02,61.8319 313.02,58.9986 307.5,57C 300.5,56.3333 293.5,56.3333 286.5,57C 286,57.5 285.5,58 285,58.5C 283.684,55.972 282.517,55.972 281.5,58.5C 283.078,59.2978 284.744,59.7978 286.5,60C 282.569,64.0486 281.569,68.8819 283.5,74.5C 287.177,76.9212 286.511,78.2545 281.5,78.5C 276.508,76.842 271.508,75.5087 266.5,74.5C 267.794,72.9522 268.461,70.9522 268.5,68.5C 268.414,65.9582 268.08,63.4582 267.5,61C 267.95,59.7147 268.617,58.548 269.5,57.5C 273.859,55.2023 278.526,54.0356 283.5,54C 277.994,52.5385 272.494,52.7052 267,54.5C 266.833,54.1667 266.667,53.8333 266.5,53.5C 270.112,52.4532 273.779,51.6198 277.5,51C 289.564,51.1738 301.564,52.3405 313.5,54.5C 319.904,58.0212 326.57,60.8545 333.5,63C 337.432,65.4777 341.432,67.6443 345.5,69.5C 351.694,75.4265 358.694,80.0931 366.5,83.5 Z"
       id="path26" />
  </g>
  <g
     id="g27">
    <path
       style="opacity:1"
       fill="#f6d133"
       d="M 335.5,74.5 C 338.374,75.8438 341.374,77.0105 344.5,78C 345.071,79.2051 345.738,80.3717 346.5,81.5C 352.538,84.5129 358.204,88.0129 363.5,92C 366.318,97.3174 370.318,101.484 375.5,104.5C 376.331,107.672 378.331,109.338 381.5,109.5C 381.5,110.5 381.5,111.5 381.5,112.5C 382.5,112.5 383.5,112.5 384.5,112.5C 384.5,113.5 384.5,114.5 384.5,115.5C 385.5,115.5 386.5,115.5 387.5,115.5C 391.684,122.535 395.351,129.868 398.5,137.5C 396.521,136.188 394.855,134.521 393.5,132.5C 391.272,125.289 386.938,119.955 380.5,116.5C 379.94,113.004 377.94,111.337 374.5,111.5C 374.649,110.448 374.483,109.448 374,108.5C 370.239,105.247 367.073,101.58 364.5,97.5C 363.022,97.762 361.689,97.4287 360.5,96.5C 359.129,92.6281 356.795,89.4614 353.5,87C 346.21,84.5353 340.21,80.3687 335.5,74.5 Z"
       id="path27" />
  </g>
  <g
     id="g28">
    <path
       style="opacity:1"
       fill="#fef9e2"
       d="M 134.5,105.5 C 130.153,109.845 125.486,113.845 120.5,117.5C 118.064,115.983 115.898,116.316 114,118.5C 113.383,117.551 113.549,116.718 114.5,116C 112.19,115.503 109.857,115.337 107.5,115.5C 107.5,113.833 107.5,112.167 107.5,110.5C 99.3647,109.187 91.3647,109.853 83.5,112.5C 77.6111,115.655 72.1111,119.321 67,123.5C 66.6667,123.167 66.3333,122.833 66,122.5C 64.2481,125.672 62.2481,128.672 60,131.5C 59.5172,130.552 59.3505,129.552 59.5,128.5C 65.7224,118.607 72.7224,109.274 80.5,100.5C 80.3505,101.552 80.5172,102.552 81,103.5C 83.8955,101.391 87.0622,99.8913 90.5,99C 98.1883,98.1685 105.855,98.3352 113.5,99.5C 118.527,102.287 123.86,104.287 129.5,105.5C 131.621,103.446 133.288,103.446 134.5,105.5 Z"
       id="path28" />
  </g>
  <g
     id="g29">
    <path
       style="opacity:1"
       fill="#fdf6d2"
       d="M 120.5,117.5 C 118.833,119.833 116.833,121.833 114.5,123.5C 112.253,123.043 110.253,122.043 108.5,120.5C 106.253,121.374 103.92,121.708 101.5,121.5C 101.5,120.167 101.5,118.833 101.5,117.5C 92.6573,117.346 84.3239,119.179 76.5,123C 67.1642,129.669 59.1642,137.669 52.5,147C 51.5632,147.692 50.8966,147.525 50.5,146.5C 52.7386,140.116 55.7386,134.116 59.5,128.5C 59.3505,129.552 59.5172,130.552 60,131.5C 62.2481,128.672 64.2481,125.672 66,122.5C 66.3333,122.833 66.6667,123.167 67,123.5C 72.1111,119.321 77.6111,115.655 83.5,112.5C 91.3647,109.853 99.3647,109.187 107.5,110.5C 107.5,112.167 107.5,113.833 107.5,115.5C 109.857,115.337 112.19,115.503 114.5,116C 113.549,116.718 113.383,117.551 114,118.5C 115.898,116.316 118.064,115.983 120.5,117.5 Z"
       id="path29" />
  </g>
  <g
     id="g30">
    <path
       style="opacity:1"
       fill="#f4df7f"
       d="M 347.5,68.5 C 350.871,69.3226 354.204,70.4893 357.5,72C 360.029,74.0285 362.696,75.8619 365.5,77.5C 367.223,81.4184 370.223,83.7517 374.5,84.5C 374.511,86.0174 375.177,87.1841 376.5,88C 379.833,88.6667 381.833,90.6667 382.5,94C 388.051,97.0548 392.051,101.555 394.5,107.5C 403.844,119.7 412.678,132.367 421,145.5C 421.861,151.245 423.028,156.911 424.5,162.5C 423.414,162.38 422.747,161.713 422.5,160.5C 419.614,149.395 414.614,139.395 407.5,130.5C 405.321,130.16 403.488,129.16 402,127.5C 398.667,122.167 395.333,116.833 392,111.5C 391.147,109.875 390.147,109.542 389,110.5C 382.993,101.993 375.826,94.6599 367.5,88.5C 366.548,86.9547 366.215,85.288 366.5,83.5C 359.579,79.2108 353.245,74.2108 347.5,68.5 Z"
       id="path30" />
  </g>
  <g
     id="g31">
    <path
       style="opacity:1"
       fill="#a4a3a3"
       d="M 407.5,76.5 C 434.15,104.512 452.816,137.179 463.5,174.5C 462.12,173.294 460.953,173.627 460,175.5C 457.33,165.832 453.663,156.499 449,147.5C 448.586,147.043 448.086,146.709 447.5,146.5C 446.571,147.689 446.238,149.022 446.5,150.5C 444.219,150.077 442.552,150.744 441.5,152.5C 431.512,130.52 418.512,110.52 402.5,92.5C 400.533,89.5315 398.2,86.8649 395.5,84.5C 397.304,83.2319 399.304,82.5652 401.5,82.5C 401.28,79.5995 401.946,76.9329 403.5,74.5C 404.524,75.8532 405.857,76.5198 407.5,76.5 Z"
       id="path31" />
  </g>
  <g
     id="g32">
    <path
       style="opacity:1"
       fill="#fdf3c6"
       d="M 114.5,123.5 C 113.167,125.167 111.833,126.833 110.5,128.5C 108.8,128.626 107.3,129.293 106,130.5C 96.7461,126.104 87.2461,125.437 77.5,128.5C 71.9684,132.527 66.6351,136.86 61.5,141.5C 60.5344,143.396 60.2011,145.396 60.5,147.5C 56.4668,149.027 53.4668,151.861 51.5,156C 50.552,156.483 49.552,156.649 48.5,156.5C 47.9782,159.568 47.1449,162.568 46,165.5C 42.9683,170.23 40.4683,175.23 38.5,180.5C 38.1667,179.833 37.8333,179.167 37.5,178.5C 40.3173,166.913 44.6507,156.247 50.5,146.5C 50.8966,147.525 51.5632,147.692 52.5,147C 59.1642,137.669 67.1642,129.669 76.5,123C 84.3239,119.179 92.6573,117.346 101.5,117.5C 101.5,118.833 101.5,120.167 101.5,121.5C 103.92,121.708 106.253,121.374 108.5,120.5C 110.253,122.043 112.253,123.043 114.5,123.5 Z"
       id="path32" />
  </g>
  <g
     id="g33">
    <path
       style="opacity:1"
       fill="#faeaa5"
       d="M 94.5,149.5 C 93.4161,152.004 92.0828,154.337 90.5,156.5C 84.6738,154.838 78.6738,154.005 72.5,154C 71.0027,155.871 69.0027,156.871 66.5,157C 63.1667,160.667 59.8333,164.333 56.5,168C 55.2068,168.49 53.8734,168.657 52.5,168.5C 53.1128,171.969 51.7794,173.969 48.5,174.5C 48.6423,178.872 46.809,182.205 43,184.5C 40.4647,191.847 38.298,199.347 36.5,207C 35.7689,209.083 34.7689,210.916 33.5,212.5C 34.069,204.111 36.2356,196.111 40,188.5C 40.4461,185.657 40.9461,182.824 41.5,180C 45.6327,173.565 49.6327,167.065 53.5,160.5C 58.7787,154.325 64.612,148.992 71,144.5C 73.8247,147.066 76.3247,146.733 78.5,143.5C 80.0453,142.548 81.712,142.215 83.5,142.5C 83.8079,146.009 85.8079,147.676 89.5,147.5C 90.0447,151.172 90.3781,150.838 90.5,146.5C 91.675,146.281 92.675,146.614 93.5,147.5C 92.0116,149.886 92.3449,150.552 94.5,149.5 Z"
       id="path33" />
  </g>
  <g
     id="g34">
    <path
       style="opacity:1"
       fill="#c4c3c2"
       d="M 396.5,91.5 C 398.582,91.472 400.416,92.1387 402,93.5C 402.399,93.2716 402.565,92.9382 402.5,92.5C 418.512,110.52 431.512,130.52 441.5,152.5C 442.167,154.5 442.833,156.5 443.5,158.5C 442.265,158.279 441.265,157.612 440.5,156.5C 439.702,156.957 439.369,157.624 439.5,158.5C 428.972,133.79 414.638,111.456 396.5,91.5 Z"
       id="path34" />
  </g>
  <g
     id="g35">
    <path
       style="opacity:1"
       fill="#f4e28b"
       d="M 394.5,107.5 C 403.691,112.52 409.524,120.187 412,130.5C 416.105,136.395 420.439,142.062 425,147.5C 425.29,149.044 425.956,150.377 427,151.5C 427.995,159.304 429.495,166.971 431.5,174.5C 432.5,174.5 433.5,174.5 434.5,174.5C 436.718,184.71 439.551,194.71 443,204.5C 446.547,228.9 446.214,253.233 442,277.5C 440.676,279.828 439.343,282.161 438,284.5C 435.157,298.162 430.657,311.162 424.5,323.5C 423.817,323.863 423.15,324.196 422.5,324.5C 423.533,319.429 424.867,314.429 426.5,309.5C 429.813,304.224 432.147,298.558 433.5,292.5C 434.825,282.381 436.659,272.381 439,262.5C 439.667,246.833 439.667,231.167 439,215.5C 438.814,212.964 438.314,210.631 437.5,208.5C 436.213,206.363 435.379,204.03 435,201.5C 434.045,187.707 430.545,174.707 424.5,162.5C 423.028,156.911 421.861,151.245 421,145.5C 412.678,132.367 403.844,119.7 394.5,107.5 Z"
       id="path35" />
  </g>
  <g
     id="g36">
    <path
       style="opacity:1"
       fill="#696765"
       d="M 135.5,42.5 C 136.675,42.281 137.675,42.6143 138.5,43.5C 137.011,43.5331 135.678,44.0331 134.5,45C 135.056,45.3826 135.389,45.8826 135.5,46.5C 123.68,53.2446 112.347,60.7446 101.5,69C 67.7748,96.6227 44.1081,131.123 30.5,172.5C 30.5,172.833 30.5,173.167 30.5,173.5C 24.6629,189.873 21.1629,206.873 20,224.5C 19.3333,234.167 19.3333,243.833 20,253.5C 21.5892,265.883 23.4226,278.216 25.5,290.5C 24.7777,291.551 23.7777,292.218 22.5,292.5C 18.8435,277.911 16.5102,263.244 15.5,248.5C 15.1402,230.01 16.6402,211.677 20,193.5C 35.7705,125.589 74.2705,75.2553 135.5,42.5 Z"
       id="path36" />
  </g>
  <g
     id="g37">
    <path
       style="opacity:1"
       fill="#f7ecbe"
       d="M 40.5,156.5 C 37.9512,166.695 34.7845,176.695 31,186.5C 30.4219,194.05 29.0885,201.384 27,208.5C 24.8052,225.104 24.1386,241.77 25,258.5C 27.5549,268.381 29.5549,278.381 31,288.5C 32.2957,291.571 33.4623,294.571 34.5,297.5C 38.7957,302.6 41.2957,308.6 42,315.5C 44.7542,322.756 48.0876,329.756 52,336.5C 54.1251,343.412 57.7918,349.412 63,354.5C 63.533,357.505 64.6996,360.172 66.5,362.5C 65.5,362.5 64.5,362.5 63.5,362.5C 62.3434,355.688 58.5101,351.021 52,348.5C 51.3333,346.5 50.6667,344.5 50,342.5C 48.324,341.939 46.9906,340.939 46,339.5C 44.7261,329.771 41.0594,321.104 35,313.5C 35.1979,306.083 33.0313,299.583 28.5,294C 25.7191,285.294 24.7191,276.46 25.5,267.5C 25.0232,264.164 24.0232,260.998 22.5,258C 23.8333,245.333 23.8333,232.667 22.5,220C 24.0262,214.309 25.0262,208.476 25.5,202.5C 26.3669,199.016 27.5336,195.683 29,192.5C 29.769,189.901 29.6023,187.401 28.5,185C 29.6478,181.281 30.3145,177.448 30.5,173.5C 30.5,173.167 30.5,172.833 30.5,172.5C 33.4037,171.209 34.9037,168.876 35,165.5C 37.1223,164.78 37.6223,163.613 36.5,162C 37.4303,160.806 38.0969,159.473 38.5,158C 38.8361,156.97 39.5028,156.47 40.5,156.5 Z"
       id="path37" />
  </g>
  <g
     id="g38">
    <path
       style="opacity:1"
       fill="#ebeae9"
       d="M 198.5,167.5 C 202.902,167.228 207.235,167.561 211.5,168.5C 218.476,186.666 216.143,203.333 204.5,218.5C 193.528,230.384 179.862,235.384 163.5,233.5C 146.932,230.6 134.932,221.6 127.5,206.5C 133.189,198.478 140.189,191.811 148.5,186.5C 148.216,188.415 148.549,190.081 149.5,191.5C 154.056,207.779 164.39,212.945 180.5,207C 193.015,196.952 194.348,185.619 184.5,173C 183.255,172.209 181.922,171.709 180.5,171.5C 186.249,169.536 192.249,168.203 198.5,167.5 Z"
       id="path38" />
  </g>
  <g
     id="g39">
    <path
       style="opacity:1"
       fill="#f6f6f5"
       d="M 263.5,170.5 C 270.793,171.981 277.793,174.314 284.5,177.5C 283.955,179.593 283.122,181.593 282,183.5C 281.195,186.696 281.362,189.696 282.5,192.5C 282.402,194.553 283.069,196.22 284.5,197.5C 285.529,200.891 287.529,203.557 290.5,205.5C 290.414,206.496 290.748,207.329 291.5,208C 287.404,211.698 282.57,213.198 277,212.5C 273.846,212.349 270.846,211.683 268,210.5C 267.228,210.645 266.561,210.978 266,211.5C 265.138,209.913 264.471,208.246 264,206.5C 263.023,205.226 262.189,205.226 261.5,206.5C 258.304,201.039 256.971,195.039 257.5,188.5C 257.268,182.992 258.101,177.659 260,172.5C 260.71,171.027 261.876,170.36 263.5,170.5 Z"
       id="path39" />
  </g>
  <g
     id="g40">
    <path
       style="opacity:1"
       fill="#211e19"
       d="M 180.5,171.5 C 181.922,171.709 183.255,172.209 184.5,173C 194.348,185.619 193.015,196.952 180.5,207C 164.39,212.945 154.056,207.779 149.5,191.5C 167.694,197.954 176.694,191.621 176.5,172.5C 177.833,172.167 179.167,171.833 180.5,171.5 Z"
       id="path40" />
  </g>
  <g
     id="g41">
    <path
       style="opacity:1"
       fill="#fbf6e1"
       d="M 258.5,169.5 C 256.233,174.568 254.9,179.902 254.5,185.5C 253.698,184.048 253.198,182.382 253,180.5C 252.667,182.167 252.333,183.833 252,185.5C 251.502,182.518 251.335,179.518 251.5,176.5C 251.756,174.063 252.423,171.729 253.5,169.5C 255.095,168.566 256.761,168.566 258.5,169.5 Z"
       id="path41" />
  </g>
  <g
     id="g42">
    <path
       style="opacity:1"
       fill="#f6f4ec"
       d="M 165.5,177.5 C 164.273,183.268 160.939,184.935 155.5,182.5C 158.344,180.021 161.678,178.354 165.5,177.5 Z"
       id="path42" />
  </g>
  <g
     id="g43">
    <path
       style="opacity:1"
       fill="#f9ecb3"
       d="M 150.5,48.5 C 148.054,49.6877 145.72,51.021 143.5,52.5C 124.256,61.4253 107.256,73.4253 92.5,88.5C 87.6141,91.5967 83.6141,95.5967 80.5,100.5C 72.7224,109.274 65.7224,118.607 59.5,128.5C 55.7386,134.116 52.7386,140.116 50.5,146.5C 44.6507,156.247 40.3173,166.913 37.5,178.5C 37.8333,179.167 38.1667,179.833 38.5,180.5C 40.4683,175.23 42.9683,170.23 46,165.5C 47.1449,162.568 47.9782,159.568 48.5,156.5C 49.552,156.649 50.552,156.483 51.5,156C 53.4668,151.861 56.4668,149.027 60.5,147.5C 60.2011,145.396 60.5344,143.396 61.5,141.5C 66.6351,136.86 71.9684,132.527 77.5,128.5C 87.2461,125.437 96.7461,126.104 106,130.5C 107.3,129.293 108.8,128.626 110.5,128.5C 105.136,135.524 99.8022,142.524 94.5,149.5C 92.3449,150.552 92.0116,149.886 93.5,147.5C 92.675,146.614 91.675,146.281 90.5,146.5C 90.3781,150.838 90.0447,151.172 89.5,147.5C 85.8079,147.676 83.8079,146.009 83.5,142.5C 81.712,142.215 80.0453,142.548 78.5,143.5C 76.3247,146.733 73.8247,147.066 71,144.5C 64.612,148.992 58.7787,154.325 53.5,160.5C 49.6327,167.065 45.6327,173.565 41.5,180C 40.9461,182.824 40.4461,185.657 40,188.5C 36.2356,196.111 34.069,204.111 33.5,212.5C 31.2244,225.072 29.5578,237.739 28.5,250.5C 28.1532,259.914 28.8199,269.247 30.5,278.5C 33.1353,284.506 34.4686,290.839 34.5,297.5C 33.4623,294.571 32.2957,291.571 31,288.5C 29.5549,278.381 27.5549,268.381 25,258.5C 24.1386,241.77 24.8052,225.104 27,208.5C 29.0885,201.384 30.4219,194.05 31,186.5C 34.7845,176.695 37.9512,166.695 40.5,156.5C 41.8589,155.993 42.8589,154.993 43.5,153.5C 46.0528,147.393 48.8861,141.393 52,135.5C 52.4935,133.866 52.6602,132.199 52.5,130.5C 53.5,130.5 54.5,130.5 55.5,130.5C 56.397,126.38 58.5637,123.047 62,120.5C 62.9533,117.568 63.4533,114.568 63.5,111.5C 64.5,111.5 65.5,111.5 66.5,111.5C 68.1667,107.833 69.8333,104.167 71.5,100.5C 79.0248,97.4788 84.5248,92.1454 88,84.5C 88.3333,84.8333 88.6667,85.1667 89,85.5C 89.6995,83.968 90.8662,82.968 92.5,82.5C 96.843,76.991 101.676,71.991 107,67.5C 107.561,68.0219 108.228,68.3552 109,68.5C 113.528,66.6149 117.362,63.7816 120.5,60C 124.081,57.0913 128.081,55.258 132.5,54.5C 137.464,51.8624 142.464,49.1958 147.5,46.5C 148.739,46.9424 149.739,47.6091 150.5,48.5 Z"
       id="path43" />
  </g>
  <g
     id="g44">
    <path
       style="opacity:1"
       fill="#898786"
       d="M 168.5,175.5 C 168.586,176.496 168.252,177.329 167.5,178C 168.428,178.388 169.095,179.055 169.5,180C 167.121,187.348 162.121,190.015 154.5,188C 152.937,187.241 151.937,186.074 151.5,184.5C 152.605,183.4 153.938,182.733 155.5,182.5C 160.939,184.935 164.273,183.268 165.5,177.5C 166.29,176.599 167.29,175.932 168.5,175.5 Z"
       id="path44" />
  </g>
  <g
     id="g45">
    <path
       style="opacity:1"
       fill="#555250"
       d="M 176.5,172.5 C 176.694,191.621 167.694,197.954 149.5,191.5C 148.549,190.081 148.216,188.415 148.5,186.5C 149.5,185.833 150.5,185.167 151.5,184.5C 151.937,186.074 152.937,187.241 154.5,188C 162.121,190.015 167.121,187.348 169.5,180C 169.095,179.055 168.428,178.388 167.5,178C 168.252,177.329 168.586,176.496 168.5,175.5C 171.162,174.501 173.828,173.501 176.5,172.5 Z"
       id="path45" />
  </g>
  <g
     id="g46">
    <path
       style="opacity:1"
       fill="#f8e696"
       d="M 90.5,156.5 C 87.1667,163.833 83.8333,171.167 80.5,178.5C 79.5028,178.53 78.8361,178.03 78.5,177C 79.6886,175.105 80.6886,173.105 81.5,171C 80.2575,170.689 79.2575,171.189 78.5,172.5C 77.4063,171.132 77.7397,169.965 79.5,169C 76.4582,168.822 73.6249,167.988 71,166.5C 69.1444,167.736 67.3111,167.736 65.5,166.5C 64.349,169.158 62.349,170.825 59.5,171.5C 58.6143,172.325 58.281,173.325 58.5,174.5C 57.5,174.5 56.5,174.5 55.5,174.5C 55.6495,175.552 55.4828,176.552 55,177.5C 52.943,179.269 51.1097,181.269 49.5,183.5C 43,197.035 38,210.702 34.5,224.5C 31.9,243.834 31.9,263.167 34.5,282.5C 32.5917,271.806 30.5917,261.139 28.5,250.5C 29.5578,237.739 31.2244,225.072 33.5,212.5C 34.7689,210.916 35.7689,209.083 36.5,207C 38.298,199.347 40.4647,191.847 43,184.5C 46.809,182.205 48.6423,178.872 48.5,174.5C 51.7794,173.969 53.1128,171.969 52.5,168.5C 53.8734,168.657 55.2068,168.49 56.5,168C 59.8333,164.333 63.1667,160.667 66.5,157C 69.0027,156.871 71.0027,155.871 72.5,154C 78.6738,154.005 84.6738,154.838 90.5,156.5 Z"
       id="path46" />
  </g>
  <g
     id="g47">
    <path
       style="opacity:1"
       fill="#b9b7b7"
       d="M 286.5,178.5 C 290.014,179.784 293.347,181.45 296.5,183.5C 296.027,188.828 293.194,190.495 288,188.5C 286.413,187.663 285.58,186.33 285.5,184.5C 286.156,182.547 286.489,180.547 286.5,178.5 Z"
       id="path47" />
  </g>
  <g
     id="g48">
    <path
       style="opacity:1"
       fill="#221f1a"
       d="M 306.5,189.5 C 311.469,192.478 316.135,195.811 320.5,199.5C 315.388,207.384 308.054,210.55 298.5,209C 295.435,208.632 292.768,207.465 290.5,205.5C 287.529,203.557 285.529,200.891 284.5,197.5C 288.262,197.475 292.262,197.308 296.5,197C 299.729,194.259 303.062,191.759 306.5,189.5 Z"
       id="path48" />
  </g>
  <g
     id="g49">
    <path
       style="opacity:1"
       fill="#f7cd45"
       d="M 215.5,167.5 C 216.833,167.5 218.167,167.5 219.5,167.5C 219.814,170.947 220.648,174.28 222,177.5C 223.375,185.857 222.375,193.857 219,201.5C 218.667,200.833 218.333,200.167 218,199.5C 217.768,200.737 217.268,201.737 216.5,202.5C 217.849,197.804 218.516,192.971 218.5,188C 217.889,181.07 216.889,174.237 215.5,167.5 Z"
       id="path49" />
  </g>
  <g
     id="g50">
    <path
       style="opacity:1"
       fill="#797775"
       d="M 284.5,177.5 C 285.167,177.833 285.833,178.167 286.5,178.5C 286.489,180.547 286.156,182.547 285.5,184.5C 285.58,186.33 286.413,187.663 288,188.5C 293.194,190.495 296.027,188.828 296.5,183.5C 298.882,184.351 300.882,185.684 302.5,187.5C 300.335,194.419 295.668,196.919 288.5,195C 286.061,194.226 284.227,192.726 283,190.5C 282.536,191.094 282.369,191.761 282.5,192.5C 281.362,189.696 281.195,186.696 282,183.5C 283.122,181.593 283.955,179.593 284.5,177.5 Z"
       id="path50" />
  </g>
  <g
     id="g51">
    <path
       style="opacity:1"
       fill="#f6ebb5"
       d="M 401.5,107.5 C 402.675,107.281 403.675,107.614 404.5,108.5C 405.012,111.351 406.679,112.684 409.5,112.5C 412.219,118.976 415.385,125.31 419,131.5C 421.7,133.234 423.7,135.568 425,138.5C 426.423,145.346 429.423,151.346 434,156.5C 441.16,172.388 445.493,188.722 447,205.5C 448.283,210.265 449.783,214.932 451.5,219.5C 450.186,232.84 450.186,246.173 451.5,259.5C 451.5,259.833 451.5,260.167 451.5,260.5C 448.492,267.402 446.992,274.736 447,282.5C 445.989,283.337 444.822,283.67 443.5,283.5C 448.54,247.927 447.374,212.594 440,177.5C 434.355,165.179 428.689,152.845 423,140.5C 421.7,137.568 419.7,135.234 417,133.5C 415.956,131.285 415.29,128.952 415,126.5C 412.509,123.433 410.509,120.1 409,116.5C 405.571,114.241 403.071,111.241 401.5,107.5 Z"
       id="path51" />
  </g>
  <g
     id="g52">
    <path
       style="opacity:1"
       fill="#4c4846"
       d="M 302.5,187.5 C 304.153,187.66 305.486,188.326 306.5,189.5C 303.062,191.759 299.729,194.259 296.5,197C 292.262,197.308 288.262,197.475 284.5,197.5C 283.069,196.22 282.402,194.553 282.5,192.5C 282.369,191.761 282.536,191.094 283,190.5C 284.227,192.726 286.061,194.226 288.5,195C 295.668,196.919 300.335,194.419 302.5,187.5 Z"
       id="path52" />
  </g>
  <g
     id="g53">
    <path
       style="opacity:1"
       fill="#f4d782"
       d="M 198.5,167.5 C 204.037,166.238 209.703,166.238 215.5,167.5C 216.889,174.237 217.889,181.07 218.5,188C 218.516,192.971 217.849,197.804 216.5,202.5C 214.338,209.505 210.671,215.505 205.5,220.5C 204.662,220.158 204.328,219.492 204.5,218.5C 216.143,203.333 218.476,186.666 211.5,168.5C 207.235,167.561 202.902,167.228 198.5,167.5 Z"
       id="path53" />
  </g>
  <g
     id="g54">
    <path
       style="opacity:1"
       fill="#fbf1c5"
       d="M 251.5,176.5 C 251.335,179.518 251.502,182.518 252,185.5C 252.333,183.833 252.667,182.167 253,180.5C 253.198,182.382 253.698,184.048 254.5,185.5C 254.353,190.214 254.686,194.881 255.5,199.5C 254.778,199.082 254.278,198.416 254,197.5C 253.667,198.5 253.333,199.5 253,200.5C 252.764,198.881 251.931,197.881 250.5,197.5C 250.175,190.313 250.509,183.313 251.5,176.5 Z"
       id="path54" />
  </g>
  <g
     id="g55">
    <path
       style="opacity:1"
       fill="#eae9e8"
       d="M 320.5,199.5 C 327.568,204.233 333.235,210.233 337.5,217.5C 331.439,225.382 323.439,230.549 313.5,233C 305.118,233.773 296.785,233.606 288.5,232.5C 279.093,228.598 271.26,222.598 265,214.5C 263.546,211.929 262.38,209.262 261.5,206.5C 262.189,205.226 263.023,205.226 264,206.5C 264.471,208.246 265.138,209.913 266,211.5C 266.561,210.978 267.228,210.645 268,210.5C 270.846,211.683 273.846,212.349 277,212.5C 282.57,213.198 287.404,211.698 291.5,208C 290.748,207.329 290.414,206.496 290.5,205.5C 292.768,207.465 295.435,208.632 298.5,209C 308.054,210.55 315.388,207.384 320.5,199.5 Z"
       id="path55" />
  </g>
  <g
     id="g56">
    <path
       style="opacity:1"
       fill="#9c8447"
       d="M 258.5,169.5 C 260.415,169.216 262.081,169.549 263.5,170.5C 261.876,170.36 260.71,171.027 260,172.5C 258.101,177.659 257.268,182.992 257.5,188.5C 256.971,195.039 258.304,201.039 261.5,206.5C 262.38,209.262 263.546,211.929 265,214.5C 271.26,222.598 279.093,228.598 288.5,232.5C 286.741,232.954 284.741,232.954 282.5,232.5C 282.167,232.5 281.833,232.5 281.5,232.5C 277.03,229.759 272.696,226.759 268.5,223.5C 262.378,216.401 258.044,208.401 255.5,199.5C 254.686,194.881 254.353,190.214 254.5,185.5C 254.9,179.902 256.233,174.568 258.5,169.5 Z"
       id="path56" />
  </g>
  <g
     id="g57">
    <path
       style="opacity:1"
       fill="#f6e195"
       d="M 250.5,197.5 C 251.931,197.881 252.764,198.881 253,200.5C 253.333,199.5 253.667,198.5 254,197.5C 254.278,198.416 254.778,199.082 255.5,199.5C 258.044,208.401 262.378,216.401 268.5,223.5C 266.956,223.297 265.622,222.63 264.5,221.5C 264.213,222.2 263.88,222.867 263.5,223.5C 256.54,216.247 252.207,207.581 250.5,197.5 Z"
       id="path57" />
  </g>
  <g
     id="g58">
    <path
       style="opacity:1"
       fill="#7e8184"
       d="M 466.5,262.5 C 466.5,259.5 466.5,256.5 466.5,253.5C 465.5,253.5 464.5,253.5 463.5,253.5C 463.5,254.5 463.5,255.5 463.5,256.5C 462.448,256.351 461.448,256.517 460.5,257C 460.12,259.326 459.12,261.159 457.5,262.5C 459.853,235.142 457.853,208.142 451.5,181.5C 452.209,180.596 453.209,180.263 454.5,180.5C 454.5,179.5 454.5,178.5 454.5,177.5C 456.144,177.714 457.644,177.38 459,176.5C 465.547,196.778 468.713,217.611 468.5,239C 468.456,247.036 467.789,254.87 466.5,262.5 Z"
       id="path58" />
  </g>
  <g
     id="g59">
    <path
       style="opacity:1"
       fill="#f1eaca"
       d="M 30.5,173.5 C 30.3145,177.448 29.6478,181.281 28.5,185C 29.6023,187.401 29.769,189.901 29,192.5C 27.5336,195.683 26.3669,199.016 25.5,202.5C 25.0262,208.476 24.0262,214.309 22.5,220C 23.8333,232.667 23.8333,245.333 22.5,258C 24.0232,260.998 25.0232,264.164 25.5,267.5C 24.7191,276.46 25.7191,285.294 28.5,294C 33.0313,299.583 35.1979,306.083 35,313.5C 41.0594,321.104 44.7261,329.771 46,339.5C 46.9906,340.939 48.324,341.939 50,342.5C 50.6667,344.5 51.3333,346.5 52,348.5C 58.5101,351.021 62.3434,355.688 63.5,362.5C 64.5,362.5 65.5,362.5 66.5,362.5C 68.2373,364.794 69.404,367.46 70,370.5C 72.7773,371.771 74.6106,373.771 75.5,376.5C 75.238,377.978 75.5713,379.311 76.5,380.5C 78.949,382.776 80.7823,385.442 82,388.5C 85.381,389.049 87.2143,391.049 87.5,394.5C 89.9837,396.483 92.3171,398.65 94.5,401C 99.7382,401.951 103.738,404.618 106.5,409C 107.448,409.483 108.448,409.649 109.5,409.5C 109.5,410.5 109.5,411.5 109.5,412.5C 113.151,412.162 114.817,413.828 114.5,417.5C 114.167,417.5 113.833,417.5 113.5,417.5C 95.5068,404.503 79.5068,389.503 65.5,372.5C 46.826,347.818 33.4927,320.485 25.5,290.5C 23.4226,278.216 21.5892,265.883 20,253.5C 19.3333,243.833 19.3333,234.167 20,224.5C 21.1629,206.873 24.6629,189.873 30.5,173.5 Z"
       id="path59" />
  </g>
  <g
     id="g60">
    <path
       style="opacity:1"
       fill="#a38a4a"
       d="M 127.5,206.5 C 134.932,221.6 146.932,230.6 163.5,233.5C 164.952,234.302 166.618,234.802 168.5,235C 165.854,235.497 163.187,235.664 160.5,235.5C 158.801,235.66 157.134,235.494 155.5,235C 151.812,233.487 148.145,231.987 144.5,230.5C 136.316,224.822 129.983,217.488 125.5,208.5C 125.833,207.5 126.5,206.833 127.5,206.5 Z"
       id="path60" />
  </g>
  <g
     id="g61">
    <path
       style="opacity:1"
       fill="#f7db83"
       d="M 125.5,208.5 C 129.983,217.488 136.316,224.822 144.5,230.5C 143.504,230.586 142.671,230.252 142,229.5C 141.583,230.756 140.75,231.423 139.5,231.5C 132.015,227.012 126.682,220.679 123.5,212.5C 123.752,210.927 124.418,209.594 125.5,208.5 Z"
       id="path61" />
  </g>
  <g
     id="g62">
    <path
       style="opacity:1"
       fill="#d1b56d"
       d="M 204.5,218.5 C 204.328,219.492 204.662,220.158 205.5,220.5C 196.999,230.917 185.999,236.25 172.5,236.5C 168.298,236.817 164.298,236.483 160.5,235.5C 163.187,235.664 165.854,235.497 168.5,235C 166.618,234.802 164.952,234.302 163.5,233.5C 179.862,235.384 193.528,230.384 204.5,218.5 Z"
       id="path62" />
  </g>
  <g
     id="g63">
    <path
       style="opacity:1"
       fill="#f4d05d"
       d="M 144.5,230.5 C 148.145,231.987 151.812,233.487 155.5,235C 157.134,235.494 158.801,235.66 160.5,235.5C 164.298,236.483 168.298,236.817 172.5,236.5C 168.688,237.324 164.688,237.824 160.5,238C 161.5,238.333 162.5,238.667 163.5,239C 154.375,239.79 146.375,237.29 139.5,231.5C 140.75,231.423 141.583,230.756 142,229.5C 142.671,230.252 143.504,230.586 144.5,230.5 Z"
       id="path63" />
  </g>
  <g
     id="g64">
    <path
       style="opacity:1"
       fill="#f7d672"
       d="M 268.5,223.5 C 272.696,226.759 277.03,229.759 281.5,232.5C 280.45,232.905 280.45,233.571 281.5,234.5C 281.043,235.298 280.376,235.631 279.5,235.5C 272.751,233.421 267.417,229.421 263.5,223.5C 263.88,222.867 264.213,222.2 264.5,221.5C 265.622,222.63 266.956,223.297 268.5,223.5 Z"
       id="path64" />
  </g>
  <g
     id="g65">
    <path
       style="opacity:1"
       fill="#c5a864"
       d="M 337.5,217.5 C 339.085,218.002 339.585,219.002 339,220.5C 330.479,229.677 319.979,235.011 307.5,236.5C 298.689,237.287 290.356,235.954 282.5,232.5C 284.741,232.954 286.741,232.954 288.5,232.5C 296.785,233.606 305.118,233.773 313.5,233C 323.439,230.549 331.439,225.382 337.5,217.5 Z"
       id="path65" />
  </g>
  <g
     id="g66">
    <path
       style="opacity:1"
       fill="#f3cc4d"
       d="M 281.5,232.5 C 281.833,232.5 282.167,232.5 282.5,232.5C 290.356,235.954 298.689,237.287 307.5,236.5C 305.735,237.461 303.735,237.795 301.5,237.5C 301.5,238.5 301.5,239.5 301.5,240.5C 293.386,241.567 286.053,239.9 279.5,235.5C 280.376,235.631 281.043,235.298 281.5,234.5C 280.45,233.571 280.45,232.905 281.5,232.5 Z"
       id="path66" />
  </g>
  <g
     id="g67">
    <path
       style="opacity:1"
       fill="#f4db6c"
       d="M 407.5,130.5 C 414.614,139.395 419.614,149.395 422.5,160.5C 422.747,161.713 423.414,162.38 424.5,162.5C 430.545,174.707 434.045,187.707 435,201.5C 435.379,204.03 436.213,206.363 437.5,208.5C 438.419,224.491 438.585,240.491 438,256.5C 435.239,273.425 431.739,290.091 427.5,306.5C 426.325,306.281 425.325,306.614 424.5,307.5C 423.269,310.59 422.269,313.757 421.5,317C 419.732,319.553 418.066,322.053 416.5,324.5C 416.283,318.356 418.116,313.022 422,308.5C 433.713,275.572 437.547,241.572 433.5,206.5C 431.356,196.574 428.523,186.907 425,177.5C 424.302,176.309 423.469,175.309 422.5,174.5C 420.286,169.16 419.119,163.493 419,157.5C 417.69,152.876 415.356,148.876 412,145.5C 411.188,140.255 409.688,135.255 407.5,130.5 Z"
       id="path67" />
  </g>
  <g
     id="g68">
    <path
       style="opacity:1"
       fill="#f4d550"
       d="M 387.5,115.5 C 391.257,116.767 393.424,119.434 394,123.5C 398.369,128.203 402.369,133.203 406,138.5C 411.25,149.248 415.916,160.248 420,171.5C 420.852,172.571 421.685,173.571 422.5,174.5C 423.469,175.309 424.302,176.309 425,177.5C 428.523,186.907 431.356,196.574 433.5,206.5C 437.547,241.572 433.713,275.572 422,308.5C 418.116,313.022 416.283,318.356 416.5,324.5C 415.504,324.414 414.671,324.748 414,325.5C 412.69,330.124 410.356,334.124 407,337.5C 406.652,343.545 403.819,347.879 398.5,350.5C 397.968,353.865 396.134,356.198 393,357.5C 391.457,361.644 388.791,364.644 385,366.5C 383.383,370.474 381.716,374.474 380,378.5C 370.28,385.288 360.78,392.454 351.5,400C 344.695,404.239 337.695,408.239 330.5,412C 329.837,413.518 328.837,414.685 327.5,415.5C 325.801,415.34 324.134,415.506 322.5,416C 303.876,425.855 283.876,431.522 262.5,433C 246.167,433.667 229.833,433.667 213.5,433C 206.877,431.452 200.211,430.118 193.5,429C 187.423,426.442 181.09,424.608 174.5,423.5C 171.838,422.512 169.838,420.845 168.5,418.5C 170.5,418.5 172.5,418.5 174.5,418.5C 174.5,419.5 174.5,420.5 174.5,421.5C 177.187,421.336 179.854,421.503 182.5,422C 186.686,423.809 191.02,425.309 195.5,426.5C 224.135,431.602 252.801,431.769 281.5,427C 288.019,423.909 294.686,421.076 301.5,418.5C 308.046,416.561 314.712,415.227 321.5,414.5C 328.156,410.835 334.823,407.168 341.5,403.5C 345.051,400.11 348.718,396.943 352.5,394C 356.611,392.865 359.277,390.365 360.5,386.5C 361.552,386.649 362.552,386.483 363.5,386C 369.401,380.426 375.567,375.259 382,370.5C 382.333,369.167 382.667,367.833 383,366.5C 387.568,363.686 390.402,359.686 391.5,354.5C 395.353,351.809 397.853,348.142 399,343.5C 403.405,339.909 405.738,335.242 406,329.5C 407.298,328.44 408.465,327.274 409.5,326C 413.243,315.288 417.576,304.954 422.5,295C 432.874,261.229 434.207,227.062 426.5,192.5C 425.5,192.5 424.5,192.5 423.5,192.5C 424.025,187.587 422.858,183.253 420,179.5C 415.874,169.693 412.207,159.693 409,149.5C 406.277,146.443 403.944,143.11 402,139.5C 401.184,138.177 400.017,137.511 398.5,137.5C 395.351,129.868 391.684,122.535 387.5,115.5 Z"
       id="path68" />
  </g>
  <g
     id="g69">
    <path
       style="opacity:1"
       fill="#f6e38d"
       d="M 80.5,178.5 C 80.4431,179.609 80.1098,180.609 79.5,181.5C 76.8333,181.5 74.1667,181.5 71.5,181.5C 71.5,180.167 71.5,178.833 71.5,177.5C 67.774,177.177 64.1073,177.511 60.5,178.5C 55.7358,184.745 51.2358,191.078 47,197.5C 37.1498,220.867 33.1498,245.534 35,271.5C 37.7475,281.074 40.0808,290.741 42,300.5C 46.9563,309.684 50.9563,319.351 54,329.5C 62.6477,339.327 69.481,350.327 74.5,362.5C 70.6724,359.361 67.6724,355.527 65.5,351C 63.1013,350.269 60.9347,349.102 59,347.5C 50.4969,330.656 43.1635,313.323 37,295.5C 36.2629,291.13 35.4296,286.796 34.5,282.5C 31.9,263.167 31.9,243.834 34.5,224.5C 38,210.702 43,197.035 49.5,183.5C 51.1097,181.269 52.943,179.269 55,177.5C 55.4828,176.552 55.6495,175.552 55.5,174.5C 56.5,174.5 57.5,174.5 58.5,174.5C 58.281,173.325 58.6143,172.325 59.5,171.5C 62.349,170.825 64.349,169.158 65.5,166.5C 67.3111,167.736 69.1444,167.736 71,166.5C 73.6249,167.988 76.4582,168.822 79.5,169C 77.7397,169.965 77.4063,171.132 78.5,172.5C 79.2575,171.189 80.2575,170.689 81.5,171C 80.6886,173.105 79.6886,175.105 78.5,177C 78.8361,178.03 79.5028,178.53 80.5,178.5 Z"
       id="path69" />
  </g>
  <g
     id="g70">
    <path
       style="opacity:1"
       fill="#656c71"
       d="M 466.5,262.5 C 463.985,292.034 455.652,319.701 441.5,345.5C 440.883,345.389 440.383,345.056 440,344.5C 438.331,346.169 437.498,348.169 437.5,350.5C 434.615,350.806 431.948,350.473 429.5,349.5C 444.249,322.314 453.582,293.314 457.5,262.5C 459.12,261.159 460.12,259.326 460.5,257C 461.448,256.517 462.448,256.351 463.5,256.5C 463.5,255.5 463.5,254.5 463.5,253.5C 464.5,253.5 465.5,253.5 466.5,253.5C 466.5,256.5 466.5,259.5 466.5,262.5 Z"
       id="path70" />
  </g>
  <g
     id="g71">
    <path
       style="opacity:1"
       fill="#e1e0e0"
       d="M 15.5,248.5 C 16.5102,263.244 18.8435,277.911 22.5,292.5C 24.9179,302.671 27.9179,312.671 31.5,322.5C 29.8568,324.973 27.6902,326.973 25,328.5C 20.1712,319.357 16.5045,309.69 14,299.5C 11.2175,288.609 9.05086,277.609 7.5,266.5C 8.11742,266.611 8.61742,266.944 9,267.5C 10.049,265.893 11.549,265.227 13.5,265.5C 14.4657,259.888 15.1324,254.221 15.5,248.5 Z"
       id="path71" />
  </g>
  <g
     id="g72">
    <path
       style="opacity:1"
       fill="#f4dd78"
       d="M 437.5,208.5 C 438.314,210.631 438.814,212.964 439,215.5C 439.667,231.167 439.667,246.833 439,262.5C 436.659,272.381 434.825,282.381 433.5,292.5C 432.147,298.558 429.813,304.224 426.5,309.5C 424.867,314.429 423.533,319.429 422.5,324.5C 421.504,324.414 420.671,324.748 420,325.5C 417.945,330.61 415.612,335.61 413,340.5C 409.606,344.898 406.606,349.565 404,354.5C 402.846,355.743 401.512,356.743 400,357.5C 399.018,361.621 397.685,365.621 396,369.5C 393.724,372.095 391.058,374.095 388,375.5C 388.209,379.459 386.375,381.126 382.5,380.5C 385.733,374.746 389.233,369.079 393,363.5C 404.403,352.609 412.236,339.609 416.5,324.5C 418.066,322.053 419.732,319.553 421.5,317C 422.269,313.757 423.269,310.59 424.5,307.5C 425.325,306.614 426.325,306.281 427.5,306.5C 431.739,290.091 435.239,273.425 438,256.5C 438.585,240.491 438.419,224.491 437.5,208.5 Z"
       id="path72" />
  </g>
  <g
     id="g73">
    <path
       style="opacity:1"
       fill="#e2dfd5"
       d="M 338.5,319.5 C 338.296,322.518 337.963,325.518 337.5,328.5C 294.18,338.365 250.847,348.365 207.5,358.5C 250.144,346.833 293.144,336.166 336.5,326.5C 336.575,323.794 336.908,321.127 337.5,318.5C 338.206,317.443 338.539,317.776 338.5,319.5 Z"
       id="path73" />
  </g>
  <g
     id="g74">
    <path
       style="opacity:1"
       fill="#7a7876"
       d="M 25.5,290.5 C 33.4927,320.485 46.826,347.818 65.5,372.5C 66.0507,375.267 67.3841,377.6 69.5,379.5C 69.0431,380.298 68.3764,380.631 67.5,380.5C 63.1256,376.128 59.1256,371.461 55.5,366.5C 46.4513,352.402 38.4513,337.736 31.5,322.5C 27.9179,312.671 24.9179,302.671 22.5,292.5C 23.7777,292.218 24.7777,291.551 25.5,290.5 Z"
       id="path74" />
  </g>
  <g
     id="g75">
    <path
       style="opacity:1"
       fill="#a98c39"
       d="M 338.5,319.5 C 338.539,317.776 338.206,317.443 337.5,318.5C 310.824,325.841 284.157,333.174 257.5,340.5C 259.96,339.109 262.626,337.942 265.5,337C 290.075,330.03 314.575,322.863 339,315.5C 339.765,317.066 339.598,318.399 338.5,319.5 Z"
       id="path75" />
  </g>
  <g
     id="g76">
    <path
       style="opacity:1"
       fill="#999899"
       d="M 463.5,174.5 C 484.332,256.418 467.832,329.751 414,394.5C 379.671,433.248 337.171,457.914 286.5,468.5C 282.629,468.815 278.962,468.482 275.5,467.5C 275.5,467.167 275.5,466.833 275.5,466.5C 287.668,464.876 299.335,461.876 310.5,457.5C 362.607,439.894 403.44,407.894 433,361.5C 436.113,356.271 438.947,350.938 441.5,345.5C 455.652,319.701 463.985,292.034 466.5,262.5C 467.789,254.87 468.456,247.036 468.5,239C 468.713,217.611 465.547,196.778 459,176.5C 457.644,177.38 456.144,177.714 454.5,177.5C 454.5,178.5 454.5,179.5 454.5,180.5C 453.209,180.263 452.209,180.596 451.5,181.5C 448.862,173.924 446.195,166.257 443.5,158.5C 442.833,156.5 442.167,154.5 441.5,152.5C 442.552,150.744 444.219,150.077 446.5,150.5C 446.238,149.022 446.571,147.689 447.5,146.5C 448.086,146.709 448.586,147.043 449,147.5C 453.663,156.499 457.33,165.832 460,175.5C 460.953,173.627 462.12,173.294 463.5,174.5 Z"
       id="path76" />
  </g>
  <g
     id="g77">
    <path
       style="opacity:1"
       fill="#24201a"
       d="M 337.5,318.5 C 336.908,321.127 336.575,323.794 336.5,326.5C 293.144,336.166 250.144,346.833 207.5,358.5C 204.505,358.294 201.838,358.96 199.5,360.5C 194.59,361.819 189.59,362.819 184.5,363.5C 183.209,363.737 182.209,363.404 181.5,362.5C 193.098,359.193 204.765,355.859 216.5,352.5C 224.331,350.401 231.998,348.068 239.5,345.5C 245.714,344.201 251.714,342.534 257.5,340.5C 284.157,333.174 310.824,325.841 337.5,318.5 Z"
       id="path77" />
  </g>
  <g
     id="g78">
    <path
       style="opacity:1"
       fill="#cfcfcf"
       d="M 6.5,247.5 C 6.55715,253.851 6.89049,260.185 7.5,266.5C 9.05086,277.609 11.2175,288.609 14,299.5C 16.5045,309.69 20.1712,319.357 25,328.5C 27.6902,326.973 29.8568,324.973 31.5,322.5C 38.4513,337.736 46.4513,352.402 55.5,366.5C 54.695,368.213 53.695,369.879 52.5,371.5C 51.5344,373.396 51.2011,375.396 51.5,377.5C 50.448,377.351 49.448,377.517 48.5,378C 49.2524,378.671 49.5858,379.504 49.5,380.5C 20.7289,342.816 5.06219,300.15 2.5,252.5C 2.33365,244.826 2.50031,237.159 3,229.5C 3.5,228.5 4,227.5 4.5,226.5C 3.41043,225.391 3.41043,224.391 4.5,223.5C 5.16671,231.657 5.83338,239.657 6.5,247.5 Z"
       id="path78" />
  </g>
  <g
     id="g79">
    <path
       style="opacity:1"
       fill="#f6d13f"
       d="M 70.5,227.5 C 70.8318,237.19 70.4984,246.856 69.5,256.5C 68.1841,253.972 67.0174,253.972 66,256.5C 62.7473,252.929 58.914,251.262 54.5,251.5C 53.8106,250.226 52.9772,250.226 52,251.5C 50.5763,254.344 49.743,257.344 49.5,260.5C 51.7768,270.691 52.9435,281.024 53,291.5C 56.8831,295.282 58.5497,299.948 58,305.5C 68.731,331.565 84.231,354.399 104.5,374C 105.448,374.483 106.448,374.649 107.5,374.5C 107.351,375.552 107.517,376.552 108,377.5C 113.527,381.694 118.361,386.527 122.5,392C 131.028,397.847 139.694,403.514 148.5,409C 151.737,410.452 155.07,411.619 158.5,412.5C 159.425,413.357 160.092,414.357 160.5,415.5C 158.473,415.662 156.473,415.495 154.5,415C 148.592,412.086 142.592,409.253 136.5,406.5C 135.136,402.342 132.136,400.342 127.5,400.5C 127.617,398.516 126.95,396.85 125.5,395.5C 117.917,391.887 110.917,387.554 104.5,382.5C 104.657,381.127 104.49,379.793 104,378.5C 100.317,377.126 98.6508,374.459 99,370.5C 97.8289,369.107 96.3289,368.273 94.5,368C 91.681,363.516 88.181,359.682 84,356.5C 76.3057,343.765 68.639,331.098 61,318.5C 60.7403,314.576 59.7403,310.909 58,307.5C 56.6667,306.833 55.6667,305.833 55,304.5C 52.8115,292.861 49.9782,281.361 46.5,270C 44.289,258.06 45.6223,246.894 50.5,236.5C 50.3918,235.558 50.0585,234.725 49.5,234C 51.6785,233.558 52.3452,232.558 51.5,231C 52.6184,229.926 53.6184,228.76 54.5,227.5C 58.0766,229.57 62.2433,231.236 67,232.5C 68.2863,230.817 69.453,229.151 70.5,227.5 Z"
       id="path79" />
  </g>
  <g
     id="g80">
    <path
       style="opacity:1"
       fill="#907732"
       d="M 239.5,345.5 C 231.998,348.068 224.331,350.401 216.5,352.5C 223.652,348.794 231.319,346.46 239.5,345.5 Z"
       id="path80" />
  </g>
  <g
     id="g81">
    <path
       style="opacity:1"
       fill="#e4e3e1"
       d="M 443.5,158.5 C 446.195,166.257 448.862,173.924 451.5,181.5C 457.853,208.142 459.853,235.142 457.5,262.5C 453.582,293.314 444.249,322.314 429.5,349.5C 409.478,383.855 382.144,410.855 347.5,430.5C 345.738,430.643 344.071,430.309 342.5,429.5C 340.32,431.09 337.987,432.424 335.5,433.5C 336.025,434.192 336.692,434.692 337.5,435C 335.19,435.497 332.857,435.663 330.5,435.5C 339.269,430.063 348.269,424.897 357.5,420C 365.524,413.969 373.524,407.969 381.5,402C 389.241,392.324 397.741,383.157 407,374.5C 409.818,369.938 412.485,365.271 415,360.5C 416.154,359.257 417.488,358.257 419,357.5C 424.372,348.089 429.205,338.423 433.5,328.5C 438.484,322.319 441.984,315.319 444,307.5C 446.329,295.842 448.663,284.175 451,272.5C 451.499,268.514 451.666,264.514 451.5,260.5C 451.5,260.167 451.5,259.833 451.5,259.5C 452.222,259.082 452.722,258.416 453,257.5C 456.288,223.354 451.788,190.354 439.5,158.5C 439.369,157.624 439.702,156.957 440.5,156.5C 441.265,157.612 442.265,158.279 443.5,158.5 Z"
       id="path81" />
  </g>
  <g
     id="g82">
    <path
       style="opacity:1"
       fill="#f5dd78"
       d="M 79.5,181.5 C 77.0145,189.773 74.6812,198.107 72.5,206.5C 71.8485,207.091 71.1818,207.757 70.5,208.5C 67.6597,206.065 64.4931,204.398 61,203.5C 56.6577,203.179 54.8244,205.179 55.5,209.5C 54.5,209.5 53.5,209.5 52.5,209.5C 52.5,210.5 52.5,211.5 52.5,212.5C 48.6747,213.922 46.3413,216.755 45.5,221C 45.8333,221.333 46.1667,221.667 46.5,222C 44.9315,224.304 43.7648,226.804 43,229.5C 42.911,233.028 42.2444,236.362 41,239.5C 38.8677,250.914 39.2011,262.247 42,273.5C 46.3718,295.619 53.7051,316.619 64,336.5C 67.9431,339.795 70.2765,344.128 71,349.5C 75.5548,355.278 79.0548,361.612 81.5,368.5C 78.4741,367.129 76.1408,365.129 74.5,362.5C 69.481,350.327 62.6477,339.327 54,329.5C 50.9563,319.351 46.9563,309.684 42,300.5C 40.0808,290.741 37.7475,281.074 35,271.5C 33.1498,245.534 37.1498,220.867 47,197.5C 51.2358,191.078 55.7358,184.745 60.5,178.5C 64.1073,177.511 67.774,177.177 71.5,177.5C 71.5,178.833 71.5,180.167 71.5,181.5C 74.1667,181.5 76.8333,181.5 79.5,181.5 Z"
       id="path82" />
  </g>
  <g
     id="g83">
    <path
       style="opacity:1"
       fill="#ccc1aa"
       d="M 207.5,358.5 C 205.095,359.768 202.428,360.435 199.5,360.5C 201.838,358.96 204.505,358.294 207.5,358.5 Z"
       id="path83" />
  </g>
  <g
     id="g84">
    <path
       style="opacity:1"
       fill="#584d36"
       d="M 181.5,362.5 C 182.209,363.404 183.209,363.737 184.5,363.5C 169.485,367.551 154.319,371.551 139,375.5C 138.5,375.333 138,375.167 137.5,375C 152.032,370.322 166.699,366.155 181.5,362.5 Z"
       id="path84" />
  </g>
  <g
     id="g85">
    <path
       style="opacity:1"
       fill="#f7ecbc"
       d="M 75.5,376.5 C 83.6316,384.131 91.6316,391.964 99.5,400C 104.311,402.117 108.645,405.117 112.5,409C 116.795,411.316 121.129,413.483 125.5,415.5C 125.414,416.496 125.748,417.329 126.5,418C 130.602,419.618 133.935,422.118 136.5,425.5C 133.06,424.865 129.894,423.532 127,421.5C 126.127,421.735 125.293,422.069 124.5,422.5C 122.17,418.939 118.836,417.272 114.5,417.5C 114.817,413.828 113.151,412.162 109.5,412.5C 109.5,411.5 109.5,410.5 109.5,409.5C 108.448,409.649 107.448,409.483 106.5,409C 103.738,404.618 99.7382,401.951 94.5,401C 92.3171,398.65 89.9837,396.483 87.5,394.5C 87.2143,391.049 85.381,389.049 82,388.5C 80.7823,385.442 78.949,382.776 76.5,380.5C 75.5713,379.311 75.238,377.978 75.5,376.5 Z"
       id="path85" />
  </g>
  <g
     id="g86">
    <path
       style="opacity:1"
       fill="#f6e8a4"
       d="M 374.5,83.5 C 377.603,85.4233 380.603,87.59 383.5,90C 386.272,94.4441 389.938,97.7774 394.5,100C 395.5,103.853 397.833,106.353 401.5,107.5C 403.071,111.241 405.571,114.241 409,116.5C 410.509,120.1 412.509,123.433 415,126.5C 415.29,128.952 415.956,131.285 417,133.5C 419.7,135.234 421.7,137.568 423,140.5C 428.689,152.845 434.355,165.179 440,177.5C 447.374,212.594 448.54,247.927 443.5,283.5C 441.775,295.342 438.442,306.675 433.5,317.5C 432.186,318.313 431.019,319.313 430,320.5C 429.578,324.009 428.578,327.343 427,330.5C 421.994,337.513 418.327,345.18 416,353.5C 412.374,355.856 410.208,359.189 409.5,363.5C 406.242,365.136 404.408,367.803 404,371.5C 402.644,372.38 401.144,372.714 399.5,372.5C 398.273,375.582 396.773,378.582 395,381.5C 389.461,384.863 385.628,389.529 383.5,395.5C 380.51,398.272 377.177,400.605 373.5,402.5C 372.738,403.628 372.071,404.795 371.5,406C 369.109,406.287 366.776,406.787 364.5,407.5C 360.304,411.085 355.971,414.585 351.5,418C 344.446,421.234 337.78,425.067 331.5,429.5C 322.862,432.191 314.196,435.357 305.5,439C 304.244,439.417 303.577,440.25 303.5,441.5C 287.036,442.972 270.87,445.639 255,449.5C 240.575,448.675 226.075,448.175 211.5,448C 210.455,446.474 208.955,445.641 207,445.5C 198.565,443.866 190.065,442.7 181.5,442C 171.508,438.937 161.508,436.104 151.5,433.5C 151.5,432.5 151.5,431.5 151.5,430.5C 147.507,430.5 143.841,429.5 140.5,427.5C 138.847,427.34 137.514,426.674 136.5,425.5C 133.935,422.118 130.602,419.618 126.5,418C 125.748,417.329 125.414,416.496 125.5,415.5C 132.877,418.356 139.877,422.023 146.5,426.5C 149.107,427.318 151.774,427.818 154.5,428C 164.058,431.817 173.724,435.317 183.5,438.5C 186.768,439.487 190.102,439.82 193.5,439.5C 201.697,442.597 210.363,444.43 219.5,445C 232.706,445.286 245.873,445.452 259,445.5C 266.123,444.307 273.29,443.474 280.5,443C 289.8,440.542 298.966,437.708 308,434.5C 311.768,432.703 315.268,430.536 318.5,428C 325.265,427.122 330.598,423.956 334.5,418.5C 335.873,418.657 337.207,418.49 338.5,418C 341.228,416.422 343.894,414.922 346.5,413.5C 349.086,412.52 351.753,412.187 354.5,412.5C 355.516,409.162 357.849,407.162 361.5,406.5C 372.403,398.102 382.57,388.769 392,378.5C 393.558,375.321 395.391,372.321 397.5,369.5C 398.325,368.614 399.325,368.281 400.5,368.5C 404.921,362.37 408.588,355.704 411.5,348.5C 414.828,346.002 416.661,342.668 417,338.5C 418.667,335.833 420.333,333.167 422,330.5C 422.495,328.527 422.662,326.527 422.5,324.5C 423.15,324.196 423.817,323.863 424.5,323.5C 430.657,311.162 435.157,298.162 438,284.5C 439.343,282.161 440.676,279.828 442,277.5C 446.214,253.233 446.547,228.9 443,204.5C 439.551,194.71 436.718,184.71 434.5,174.5C 433.5,174.5 432.5,174.5 431.5,174.5C 429.495,166.971 427.995,159.304 427,151.5C 425.956,150.377 425.29,149.044 425,147.5C 420.439,142.062 416.105,136.395 412,130.5C 409.524,120.187 403.691,112.52 394.5,107.5C 392.051,101.555 388.051,97.0548 382.5,94C 381.833,90.6667 379.833,88.6667 376.5,88C 375.177,87.1841 374.511,86.0174 374.5,84.5C 374.5,84.1667 374.5,83.8333 374.5,83.5 Z"
       id="path86" />
  </g>
  <g
     id="g87">
    <path
       style="opacity:1"
       fill="#f6e8a6"
       d="M 28.5,250.5 C 30.5917,261.139 32.5917,271.806 34.5,282.5C 35.4296,286.796 36.2629,291.13 37,295.5C 43.1635,313.323 50.4969,330.656 59,347.5C 60.9347,349.102 63.1013,350.269 65.5,351C 67.6724,355.527 70.6724,359.361 74.5,362.5C 80.346,373.803 88.346,383.47 98.5,391.5C 100.849,396.348 104.515,399.848 109.5,402C 110.167,403.333 110.833,404.667 111.5,406C 115.97,408.069 120.303,410.402 124.5,413C 125.252,413.671 125.586,414.504 125.5,415.5C 121.129,413.483 116.795,411.316 112.5,409C 108.645,405.117 104.311,402.117 99.5,400C 91.6316,391.964 83.6316,384.131 75.5,376.5C 74.6106,373.771 72.7773,371.771 70,370.5C 69.404,367.46 68.2373,364.794 66.5,362.5C 64.6996,360.172 63.533,357.505 63,354.5C 57.7918,349.412 54.1251,343.412 52,336.5C 48.0876,329.756 44.7542,322.756 42,315.5C 41.2957,308.6 38.7957,302.6 34.5,297.5C 34.4686,290.839 33.1353,284.506 30.5,278.5C 28.8199,269.247 28.1532,259.914 28.5,250.5 Z"
       id="path87" />
  </g>
  <g
     id="g88">
    <path
       style="opacity:1"
       fill="#f5e28c"
       d="M 422.5,324.5 C 422.662,326.527 422.495,328.527 422,330.5C 420.333,333.167 418.667,335.833 417,338.5C 416.661,342.668 414.828,346.002 411.5,348.5C 408.588,355.704 404.921,362.37 400.5,368.5C 399.325,368.281 398.325,368.614 397.5,369.5C 395.391,372.321 393.558,375.321 392,378.5C 382.57,388.769 372.403,398.102 361.5,406.5C 357.849,407.162 355.516,409.162 354.5,412.5C 351.753,412.187 349.086,412.52 346.5,413.5C 343.894,414.922 341.228,416.422 338.5,418C 337.207,418.49 335.873,418.657 334.5,418.5C 335.3,416.427 336.633,414.76 338.5,413.5C 354.917,404.738 369.584,393.738 382.5,380.5C 386.375,381.126 388.209,379.459 388,375.5C 391.058,374.095 393.724,372.095 396,369.5C 397.685,365.621 399.018,361.621 400,357.5C 401.512,356.743 402.846,355.743 404,354.5C 406.606,349.565 409.606,344.898 413,340.5C 415.612,335.61 417.945,330.61 420,325.5C 420.671,324.748 421.504,324.414 422.5,324.5 Z"
       id="path88" />
  </g>
  <g
     id="g89">
    <path
       style="opacity:1"
       fill="#f5db6d"
       d="M 416.5,324.5 C 412.236,339.609 404.403,352.609 393,363.5C 389.233,369.079 385.733,374.746 382.5,380.5C 369.584,393.738 354.917,404.738 338.5,413.5C 334.469,415.736 330.136,417.403 325.5,418.5C 326.551,417.778 327.218,416.778 327.5,415.5C 328.837,414.685 329.837,413.518 330.5,412C 337.695,408.239 344.695,404.239 351.5,400C 360.78,392.454 370.28,385.288 380,378.5C 381.716,374.474 383.383,370.474 385,366.5C 388.791,364.644 391.457,361.644 393,357.5C 396.134,356.198 397.968,353.865 398.5,350.5C 403.819,347.879 406.652,343.545 407,337.5C 410.356,334.124 412.69,330.124 414,325.5C 414.671,324.748 415.504,324.414 416.5,324.5 Z"
       id="path89" />
  </g>
  <g
     id="g90">
    <path
       style="opacity:1"
       fill="#f6eec9"
       d="M 451.5,260.5 C 451.666,264.514 451.499,268.514 451,272.5C 448.663,284.175 446.329,295.842 444,307.5C 441.984,315.319 438.484,322.319 433.5,328.5C 429.205,338.423 424.372,348.089 419,357.5C 417.488,358.257 416.154,359.257 415,360.5C 412.485,365.271 409.818,369.938 407,374.5C 397.741,383.157 389.241,392.324 381.5,402C 373.524,407.969 365.524,413.969 357.5,420C 348.269,424.897 339.269,430.063 330.5,435.5C 295.66,451.367 258.993,458.034 220.5,455.5C 188.217,452.907 157.884,443.74 129.5,428C 124.084,424.97 119.084,421.47 114.5,417.5C 118.836,417.272 122.17,418.939 124.5,422.5C 125.293,422.069 126.127,421.735 127,421.5C 129.894,423.532 133.06,424.865 136.5,425.5C 137.514,426.674 138.847,427.34 140.5,427.5C 142.944,429.589 145.277,431.922 147.5,434.5C 149.375,433.164 150.708,433.664 151.5,436C 154.897,436.589 157.897,437.922 160.5,440C 175.736,443.225 190.736,447.225 205.5,452C 208.873,452.115 212.039,451.948 215,451.5C 216,452.167 217,452.833 218,453.5C 230.667,452.167 243.333,452.167 256,453.5C 257,452.833 258,452.167 259,451.5C 263.564,450.609 268.231,450.609 273,451.5C 276.361,449.886 279.861,448.386 283.5,447C 290.472,445.76 297.138,443.927 303.5,441.5C 303.577,440.25 304.244,439.417 305.5,439C 314.196,435.357 322.862,432.191 331.5,429.5C 337.78,425.067 344.446,421.234 351.5,418C 355.971,414.585 360.304,411.085 364.5,407.5C 366.776,406.787 369.109,406.287 371.5,406C 372.071,404.795 372.738,403.628 373.5,402.5C 377.177,400.605 380.51,398.272 383.5,395.5C 385.628,389.529 389.461,384.863 395,381.5C 396.773,378.582 398.273,375.582 399.5,372.5C 401.144,372.714 402.644,372.38 404,371.5C 404.408,367.803 406.242,365.136 409.5,363.5C 410.208,359.189 412.374,355.856 416,353.5C 418.327,345.18 421.994,337.513 427,330.5C 428.578,327.343 429.578,324.009 430,320.5C 431.019,319.313 432.186,318.313 433.5,317.5C 438.442,306.675 441.775,295.342 443.5,283.5C 444.822,283.67 445.989,283.337 447,282.5C 446.992,274.736 448.492,267.402 451.5,260.5 Z"
       id="path90" />
  </g>
  <g
     id="g91">
    <path
       style="opacity:1"
       fill="#c0c0c0"
       d="M 55.5,366.5 C 59.1256,371.461 63.1256,376.128 67.5,380.5C 79.5742,395.243 93.2409,408.243 108.5,419.5C 109.968,421.916 110.635,424.583 110.5,427.5C 109.5,427.5 108.5,427.5 107.5,427.5C 107.401,430.237 107.735,432.904 108.5,435.5C 85.3586,421.03 65.6919,402.696 49.5,380.5C 49.5858,379.504 49.2524,378.671 48.5,378C 49.448,377.517 50.448,377.351 51.5,377.5C 51.2011,375.396 51.5344,373.396 52.5,371.5C 53.695,369.879 54.695,368.213 55.5,366.5 Z"
       id="path91" />
  </g>
  <g
     id="g92">
    <path
       style="opacity:1"
       fill="#8c8a88"
       d="M 65.5,372.5 C 79.5068,389.503 95.5068,404.503 113.5,417.5C 113.768,419.099 113.434,420.432 112.5,421.5C 111.167,420.833 109.833,420.167 108.5,419.5C 93.2409,408.243 79.5742,395.243 67.5,380.5C 68.3764,380.631 69.0431,380.298 69.5,379.5C 67.3841,377.6 66.0507,375.267 65.5,372.5 Z"
       id="path92" />
  </g>
  <g
     id="g93">
    <path
       style="opacity:1"
       fill="#f5e391"
       d="M 74.5,362.5 C 76.1408,365.129 78.4741,367.129 81.5,368.5C 84.2457,372.51 86.9124,376.51 89.5,380.5C 90.675,380.281 91.675,380.614 92.5,381.5C 94.297,382.695 95.297,384.362 95.5,386.5C 97.433,386.729 99.0997,387.562 100.5,389C 101.337,390.011 101.67,391.178 101.5,392.5C 106.243,393.561 109.909,396.227 112.5,400.5C 113.736,401.246 115.07,401.579 116.5,401.5C 116.809,404.346 118.475,405.846 121.5,406C 123.749,407.745 125.416,409.912 126.5,412.5C 131.648,415.166 136.648,417.999 141.5,421C 150.843,422.676 159.51,426.009 167.5,431C 176.29,433.695 184.956,436.528 193.5,439.5C 190.102,439.82 186.768,439.487 183.5,438.5C 173.724,435.317 164.058,431.817 154.5,428C 151.774,427.818 149.107,427.318 146.5,426.5C 139.877,422.023 132.877,418.356 125.5,415.5C 125.586,414.504 125.252,413.671 124.5,413C 120.303,410.402 115.97,408.069 111.5,406C 110.833,404.667 110.167,403.333 109.5,402C 104.515,399.848 100.849,396.348 98.5,391.5C 88.346,383.47 80.346,373.803 74.5,362.5 Z"
       id="path93" />
  </g>
  <g
     id="g94">
    <path
       style="opacity:1"
       fill="#5c656a"
       d="M 441.5,345.5 C 438.947,350.938 436.113,356.271 433,361.5C 403.44,407.894 362.607,439.894 310.5,457.5C 308.5,457.167 306.5,456.833 304.5,456.5C 304.5,455.5 304.5,454.5 304.5,453.5C 307.475,453.693 309.975,452.693 312,450.5C 312.333,450.833 312.667,451.167 313,451.5C 313.352,449.753 313.852,448.086 314.5,446.5C 326.162,442.293 337.162,436.96 347.5,430.5C 382.144,410.855 409.478,383.855 429.5,349.5C 431.948,350.473 434.615,350.806 437.5,350.5C 437.498,348.169 438.331,346.169 440,344.5C 440.383,345.056 440.883,345.389 441.5,345.5 Z"
       id="path94" />
  </g>
  <g
     id="g95">
    <path
       style="opacity:1"
       fill="#f6d134"
       d="M 398.5,137.5 C 400.017,137.511 401.184,138.177 402,139.5C 403.944,143.11 406.277,146.443 409,149.5C 412.207,159.693 415.874,169.693 420,179.5C 422.858,183.253 424.025,187.587 423.5,192.5C 424.5,192.5 425.5,192.5 426.5,192.5C 434.207,227.062 432.874,261.229 422.5,295C 417.576,304.954 413.243,315.288 409.5,326C 408.465,327.274 407.298,328.44 406,329.5C 405.738,335.242 403.405,339.909 399,343.5C 397.853,348.142 395.353,351.809 391.5,354.5C 390.402,359.686 387.568,363.686 383,366.5C 382.667,367.833 382.333,369.167 382,370.5C 375.567,375.259 369.401,380.426 363.5,386C 362.552,386.483 361.552,386.649 360.5,386.5C 359.277,390.365 356.611,392.865 352.5,394C 348.718,396.943 345.051,400.11 341.5,403.5C 334.823,407.168 328.156,410.835 321.5,414.5C 314.712,415.227 308.046,416.561 301.5,418.5C 294.686,421.076 288.019,423.909 281.5,427C 252.801,431.769 224.135,431.602 195.5,426.5C 191.02,425.309 186.686,423.809 182.5,422C 179.854,421.503 177.187,421.336 174.5,421.5C 174.5,420.5 174.5,419.5 174.5,418.5C 172.5,418.5 170.5,418.5 168.5,418.5C 165.169,418.982 162.503,417.982 160.5,415.5C 160.092,414.357 159.425,413.357 158.5,412.5C 155.07,411.619 151.737,410.452 148.5,409C 139.694,403.514 131.028,397.847 122.5,392C 118.361,386.527 113.527,381.694 108,377.5C 107.517,376.552 107.351,375.552 107.5,374.5C 118.673,384.439 130.673,393.439 143.5,401.5C 144.167,402.5 144.833,403.5 145.5,404.5C 156.157,408.34 166.49,412.84 176.5,418C 182.99,419.759 189.324,421.759 195.5,424C 221.172,427.219 246.839,427.219 272.5,424C 286.64,421.395 300.307,417.395 313.5,412C 317.994,410.255 321.994,407.755 325.5,404.5C 327.396,403.534 329.396,403.201 331.5,403.5C 331.281,402.325 331.614,401.325 332.5,400.5C 341.863,395.383 350.863,389.716 359.5,383.5C 362.312,380.71 364.646,377.71 366.5,374.5C 367.833,374.5 369.167,374.5 370.5,374.5C 371.641,371.279 373.308,368.279 375.5,365.5C 379.469,362.033 383.302,358.366 387,354.5C 388,352.167 389,349.833 390,347.5C 398.129,338.882 404.462,329.215 409,318.5C 409.463,313.928 410.296,309.428 411.5,305C 415.718,299.242 417.885,292.742 418,285.5C 418.333,285.833 418.667,286.167 419,286.5C 432.522,237.4 426.856,191.067 402,147.5C 400.533,144.242 399.367,140.908 398.5,137.5 Z"
       id="path95" />
  </g>
  <g
     id="g96">
    <path
       style="opacity:1"
       fill="#b7b7b7"
       d="M 108.5,419.5 C 109.833,420.167 111.167,420.833 112.5,421.5C 124.357,429.933 137.024,437.1 150.5,443C 151.517,444.049 151.684,445.216 151,446.5C 149.5,448 148,449.5 146.5,451C 156.67,456.253 167.336,460.087 178.5,462.5C 178.67,463.822 178.337,464.989 177.5,466C 178.737,466.232 179.737,466.732 180.5,467.5C 154.437,461.265 130.437,450.599 108.5,435.5C 107.735,432.904 107.401,430.237 107.5,427.5C 108.5,427.5 109.5,427.5 110.5,427.5C 110.635,424.583 109.968,421.916 108.5,419.5 Z"
       id="path96" />
  </g>
  <g
     id="g97">
    <path
       style="opacity:1"
       fill="#f5d860"
       d="M 72.5,206.5 C 72.1609,213.534 71.4942,220.534 70.5,227.5C 69.453,229.151 68.2863,230.817 67,232.5C 62.2433,231.236 58.0766,229.57 54.5,227.5C 53.6184,228.76 52.6184,229.926 51.5,231C 52.3452,232.558 51.6785,233.558 49.5,234C 50.0585,234.725 50.3918,235.558 50.5,236.5C 45.6223,246.894 44.289,258.06 46.5,270C 49.9782,281.361 52.8115,292.861 55,304.5C 55.6667,305.833 56.6667,306.833 58,307.5C 59.7403,310.909 60.7403,314.576 61,318.5C 68.639,331.098 76.3057,343.765 84,356.5C 88.181,359.682 91.681,363.516 94.5,368C 96.3289,368.273 97.8289,369.107 99,370.5C 98.6508,374.459 100.317,377.126 104,378.5C 104.49,379.793 104.657,381.127 104.5,382.5C 110.917,387.554 117.917,391.887 125.5,395.5C 126.95,396.85 127.617,398.516 127.5,400.5C 132.136,400.342 135.136,402.342 136.5,406.5C 142.592,409.253 148.592,412.086 154.5,415C 156.473,415.495 158.473,415.662 160.5,415.5C 162.503,417.982 165.169,418.982 168.5,418.5C 169.838,420.845 171.838,422.512 174.5,423.5C 181.09,424.608 187.423,426.442 193.5,429C 200.211,430.118 206.877,431.452 213.5,433C 229.833,433.667 246.167,433.667 262.5,433C 283.876,431.522 303.876,425.855 322.5,416C 324.134,415.506 325.801,415.34 327.5,415.5C 327.218,416.778 326.551,417.778 325.5,418.5C 321.865,420.784 317.865,422.617 313.5,424C 304.452,426.46 295.452,429.126 286.5,432C 242.237,441.911 199.237,438.245 157.5,421C 156.5,420 155.5,419 154.5,418C 146.505,415.003 138.505,412.003 130.5,409C 127.633,404.593 123.633,401.593 118.5,400C 111.264,393.918 103.931,388.085 96.5,382.5C 92.2381,378.413 88.5714,373.913 85.5,369C 84.2068,368.51 82.8734,368.343 81.5,368.5C 79.0548,361.612 75.5548,355.278 71,349.5C 70.2765,344.128 67.9431,339.795 64,336.5C 53.7051,316.619 46.3718,295.619 42,273.5C 39.2011,262.247 38.8677,250.914 41,239.5C 42.2444,236.362 42.911,233.028 43,229.5C 43.7648,226.804 44.9315,224.304 46.5,222C 46.1667,221.667 45.8333,221.333 45.5,221C 46.3413,216.755 48.6747,213.922 52.5,212.5C 52.5,211.5 52.5,210.5 52.5,209.5C 53.5,209.5 54.5,209.5 55.5,209.5C 54.8244,205.179 56.6577,203.179 61,203.5C 64.4931,204.398 67.6597,206.065 70.5,208.5C 71.1818,207.757 71.8485,207.091 72.5,206.5 Z"
       id="path97" />
  </g>
  <g
     id="g98">
    <path
       style="opacity:1"
       fill="#f4dd75"
       d="M 81.5,368.5 C 82.8734,368.343 84.2068,368.51 85.5,369C 88.5714,373.913 92.2381,378.413 96.5,382.5C 103.931,388.085 111.264,393.918 118.5,400C 123.633,401.593 127.633,404.593 130.5,409C 138.505,412.003 146.505,415.003 154.5,418C 155.5,419 156.5,420 157.5,421C 199.237,438.245 242.237,441.911 286.5,432C 295.452,429.126 304.452,426.46 313.5,424C 317.865,422.617 321.865,420.784 325.5,418.5C 330.136,417.403 334.469,415.736 338.5,413.5C 336.633,414.76 335.3,416.427 334.5,418.5C 332.801,418.34 331.134,418.506 329.5,419C 324.88,421.305 320.546,423.971 316.5,427C 299.269,431.975 281.936,436.641 264.5,441C 240.749,443.335 217.083,442.835 193.5,439.5C 184.956,436.528 176.29,433.695 167.5,431C 159.51,426.009 150.843,422.676 141.5,421C 136.648,417.999 131.648,415.166 126.5,412.5C 125.416,409.912 123.749,407.745 121.5,406C 118.475,405.846 116.809,404.346 116.5,401.5C 115.07,401.579 113.736,401.246 112.5,400.5C 109.909,396.227 106.243,393.561 101.5,392.5C 101.67,391.178 101.337,390.011 100.5,389C 99.0997,387.562 97.433,386.729 95.5,386.5C 95.297,384.362 94.297,382.695 92.5,381.5C 91.675,380.614 90.675,380.281 89.5,380.5C 86.9124,376.51 84.2457,372.51 81.5,368.5 Z"
       id="path98" />
  </g>
  <g
     id="g99">
    <path
       style="opacity:1"
       fill="#f4e38b"
       d="M 334.5,418.5 C 330.598,423.956 325.265,427.122 318.5,428C 315.268,430.536 311.768,432.703 308,434.5C 298.966,437.708 289.8,440.542 280.5,443C 273.29,443.474 266.123,444.307 259,445.5C 245.873,445.452 232.706,445.286 219.5,445C 210.363,444.43 201.697,442.597 193.5,439.5C 217.083,442.835 240.749,443.335 264.5,441C 281.936,436.641 299.269,431.975 316.5,427C 320.546,423.971 324.88,421.305 329.5,419C 331.134,418.506 332.801,418.34 334.5,418.5 Z"
       id="path99" />
  </g>
  <g
     id="g100">
    <path
       style="opacity:1"
       fill="#a4a3a3"
       d="M 113.5,417.5 C 113.833,417.5 114.167,417.5 114.5,417.5C 119.084,421.47 124.084,424.97 129.5,428C 157.884,443.74 188.217,452.907 220.5,455.5C 230.023,458.98 240.023,460.313 250.5,459.5C 231.86,460.981 213.193,459.981 194.5,456.5C 191.008,456.153 188.675,457.653 187.5,461C 188.585,463.75 190.585,465.417 193.5,466C 208.046,468.601 222.712,470.101 237.5,470.5C 250.168,469.5 262.835,468.5 275.5,467.5C 278.962,468.482 282.629,468.815 286.5,468.5C 251.215,476.666 215.882,476.332 180.5,467.5C 179.737,466.732 178.737,466.232 177.5,466C 178.337,464.989 178.67,463.822 178.5,462.5C 167.336,460.087 156.67,456.253 146.5,451C 148,449.5 149.5,448 151,446.5C 151.684,445.216 151.517,444.049 150.5,443C 137.024,437.1 124.357,429.933 112.5,421.5C 113.434,420.432 113.768,419.099 113.5,417.5 Z"
       id="path100" />
  </g>
  <g
     id="g101">
    <path
       style="opacity:1"
       fill="#f7ecbb"
       d="M 140.5,427.5 C 143.841,429.5 147.507,430.5 151.5,430.5C 151.5,431.5 151.5,432.5 151.5,433.5C 161.508,436.104 171.508,438.937 181.5,442C 190.065,442.7 198.565,443.866 207,445.5C 208.955,445.641 210.455,446.474 211.5,448C 226.075,448.175 240.575,448.675 255,449.5C 270.87,445.639 287.036,442.972 303.5,441.5C 297.138,443.927 290.472,445.76 283.5,447C 279.861,448.386 276.361,449.886 273,451.5C 268.231,450.609 263.564,450.609 259,451.5C 258,452.167 257,452.833 256,453.5C 243.333,452.167 230.667,452.167 218,453.5C 217,452.833 216,452.167 215,451.5C 212.039,451.948 208.873,452.115 205.5,452C 190.736,447.225 175.736,443.225 160.5,440C 157.897,437.922 154.897,436.589 151.5,436C 150.708,433.664 149.375,433.164 147.5,434.5C 145.277,431.922 142.944,429.589 140.5,427.5 Z"
       id="path101" />
  </g>
  <g
     id="g102">
    <path
       style="opacity:1"
       fill="#c5c4c3"
       d="M 347.5,430.5 C 337.162,436.96 326.162,442.293 314.5,446.5C 298.907,451.99 282.907,455.99 266.5,458.5C 261.187,459.098 255.854,459.431 250.5,459.5C 240.023,460.313 230.023,458.98 220.5,455.5C 258.993,458.034 295.66,451.367 330.5,435.5C 332.857,435.663 335.19,435.497 337.5,435C 336.692,434.692 336.025,434.192 335.5,433.5C 337.987,432.424 340.32,431.09 342.5,429.5C 344.071,430.309 345.738,430.643 347.5,430.5 Z"
       id="path102" />
  </g>
  <g
     id="g103">
    <path
       style="opacity:1"
       fill="#6d7377"
       d="M 314.5,446.5 C 313.852,448.086 313.352,449.753 313,451.5C 312.667,451.167 312.333,450.833 312,450.5C 309.975,452.693 307.475,453.693 304.5,453.5C 304.5,454.5 304.5,455.5 304.5,456.5C 306.5,456.833 308.5,457.167 310.5,457.5C 299.335,461.876 287.668,464.876 275.5,466.5C 272.5,466.5 269.5,466.5 266.5,466.5C 266.5,465.167 266.5,463.833 266.5,462.5C 270.5,462.167 270.5,461.833 266.5,461.5C 266.5,460.5 266.5,459.5 266.5,458.5C 282.907,455.99 298.907,451.99 314.5,446.5 Z"
       id="path103" />
  </g>
  <g
     id="g104">
    <path
       style="opacity:1"
       fill="#7f8386"
       d="M 250.5,459.5 C 255.854,459.431 261.187,459.098 266.5,458.5C 266.5,459.5 266.5,460.5 266.5,461.5C 270.5,461.833 270.5,462.167 266.5,462.5C 266.5,463.833 266.5,465.167 266.5,466.5C 269.5,466.5 272.5,466.5 275.5,466.5C 275.5,466.833 275.5,467.167 275.5,467.5C 262.835,468.5 250.168,469.5 237.5,470.5C 222.712,470.101 208.046,468.601 193.5,466C 190.585,465.417 188.585,463.75 187.5,461C 188.675,457.653 191.008,456.153 194.5,456.5C 213.193,459.981 231.86,460.981 250.5,459.5 Z"
       id="path104" />
  </g>
</svg>
