<?xml version="1.0" encoding="utf-8"?>
<!-- Generator: Adobe Illustrator 27.9.0, SVG Export Plug-In . SVG Version: 6.00 Build 0)  -->
<svg version="1.1" xmlns="http://www.w3.org/2000/svg" xmlns:xlink="http://www.w3.org/1999/xlink" x="0px" y="0px"
	 viewBox="0 0 841.89 595.28" style="enable-background:new 0 0 841.89 595.28;" xml:space="preserve">
<style type="text/css">
	.st0{fill:url(#SVGID_1_);}
	.st1{fill:none;stroke:#000000;stroke-miterlimit:10;}
	.st2{fill:#409B92;}
	.st3{opacity:0.39;fill:#58C4C2;}
	.st4{fill:#F7B448;stroke:#000000;stroke-width:3;stroke-miterlimit:10;}
	.st5{fill:#A18272;stroke:#000000;stroke-width:3;stroke-miterlimit:10;}
	.st6{fill:#27367A;stroke:#000000;stroke-width:3;stroke-miterlimit:10;}
	.st7{fill:#131B11;}
	.st8{fill:#BE1E2D;stroke:#000000;stroke-width:5;stroke-miterlimit:10;}
	.st9{fill:#BE1E2D;}
	.st10{fill:#FDC38A;}
	.st11{stroke:#000000;stroke-miterlimit:10;}
	.st12{fill:#FCAF23;stroke:#000000;stroke-width:3;stroke-miterlimit:10;}
	.st13{fill:#851114;}
	.st14{fill:#FFFFFF;stroke:#000000;stroke-width:3;stroke-miterlimit:10;}
	.st15{stroke:#000000;stroke-width:3;stroke-miterlimit:10;}
	.st16{stroke:#000000;stroke-width:5;stroke-miterlimit:10;}
</style>
<g id="Layer_3">
	<g>
		
			<radialGradient id="SVGID_1_" cx="455.4001" cy="88.3065" r="396.5543" fx="228.0118" fy="-62.3486" gradientTransform="matrix(0.8311 -0.5561 0.5642 0.8431 27.1037 267.1245)" gradientUnits="userSpaceOnUse">
			<stop  offset="0" style="stop-color:#006B63"/>
			<stop  offset="0.0402" style="stop-color:#005C59"/>
			<stop  offset="0.1287" style="stop-color:#0F4248"/>
			<stop  offset="0.2165" style="stop-color:#112F3A"/>
			<stop  offset="0.3023" style="stop-color:#0F2031"/>
			<stop  offset="0.385" style="stop-color:#0D162B"/>
			<stop  offset="0.4615" style="stop-color:#0D1229"/>
		</radialGradient>
		<path class="st0" d="M796.71,521.79C559.47,575.85,322.24,592.23,85,570.93C-0.87,376.51-21.5,180.66,23.11-16.61
			c278.5-25,556.99-5.77,835.49,57.69C891.35,199.89,870.72,360.13,796.71,521.79z"/>
		<path class="st1" d="M796.71,521.79C559.47,575.85,322.24,592.23,85,570.93C-0.87,376.51-21.5,180.66,23.11-16.61
			c278.5-25,556.99-5.77,835.49,57.69C891.35,199.89,870.72,360.13,796.71,521.79z"/>
	</g>
	<g>
		<g>
			<path class="st2" d="M127.34,74.63c-0.46,6.12-0.91,12.2-1.37,18.26c-0.58,0.06-1.5,0.2-2.77,0.43
				c-0.78,0.19-2.06,0.54-3.81,1.06c-0.14,1.09-0.41,3.71-0.81,7.83c-0.34,3.97-0.87,9.8-1.59,17.4c-3.6,0.38-7.18,0.77-10.72,1.17
				c0.06-3.22,0.13-8.28,0.19-15.08c-0.01-2.35-0.03-4.62-0.06-6.83c-1.15,0.47-2.29,0.94-3.43,1.41c-1.04,0.5-2.07,1-3.11,1.5
				c0.12-4.53,0.23-9.04,0.35-13.51C109.06,83.26,118.12,78.71,127.34,74.63z"/>
			<path class="st2" d="M159.33,62.48c-0.36,7.58-0.71,15.14-1.07,22.68c-0.31,6.46-0.62,16.17-0.93,29.17
				c-4.03,2.44-8.1,3.72-12.19,4.02c-5.05,0.36-8.8-0.74-11.31-3.11c-2.12-2.02-3.54-5.24-4.27-9.68
				c-0.43-2.55-0.74-7.28-0.93-14.12c-0.2-6.32-0.24-12.06-0.14-17.31c4.79-2.1,9.62-4.08,14.48-5.93c-0.16,2.84-0.4,7.46-0.7,13.83
				c-0.16,3.55-0.3,8.55-0.42,15.03c-0.14,4.93,0.06,8.21,0.61,9.86c0.57,1.75,1.8,2.52,3.69,2.29c0.54-0.07,1.14-0.36,1.82-0.88
				c0.13-4.55,0.24-11.78,0.34-21.63c-0.01-4.92-0.1-11.74-0.26-20.37C151.77,64.97,155.54,63.69,159.33,62.48z"/>
			<path class="st2" d="M189.61,54.5c-0.34,8.21-0.68,16.4-1.02,24.58c-0.61-0.07-1.59-0.12-2.94-0.14
				c-0.83,0.05-2.18,0.18-4.04,0.41c-0.12,1.51-0.34,5.15-0.67,10.91c-0.26,5.57-0.68,13.74-1.25,24.48
				c-3.82,0.2-7.63,0.42-11.43,0.65c-0.03-4.89-0.11-12.58-0.24-23.01c-0.08-3.61-0.17-7.12-0.27-10.54
				c-1.23,0.31-2.45,0.63-3.68,0.95c-1.11,0.41-2.22,0.81-3.33,1.22c-0.02-7.34-0.04-14.65-0.06-21.95
				C170.23,59.07,179.88,56.55,189.61,54.5z"/>
			<path class="st2" d="M222.53,79.92c-0.05,9.77-1.54,18.11-4.5,24.92c-3.1,7.13-7.05,10.69-11.82,10.82
				c-4.91,0.14-8.85-3.18-11.78-9.75c-2.77-6.2-4.08-13.78-3.95-22.96c0.13-9.81,1.77-17.75,4.9-23.96
				c2.96-5.83,6.76-9.24,11.44-9.98c4.6-0.72,8.33,1.56,11.21,6.84C221.07,61.47,222.59,69.55,222.53,79.92z M210.99,87.94
				c0.06-7.57-1.41-11.22-4.39-10.91c-2.9,0.31-4.39,4.22-4.46,11.71c-0.03,3,0.32,5.76,1.06,8.31c0.83,2.86,1.88,4.27,3.14,4.2
				c1.23-0.07,2.33-1.63,3.29-4.7C210.52,93.76,210.97,90.88,210.99,87.94z"/>
			<path class="st2" d="M256.5,72.29c0.02,5.18-0.79,9.76-2.43,13.75c-1.45,3.49-3.27,5.99-5.46,7.52c0.47,1.26,1.62,3.92,3.45,7.97
				c0.92,1.86,2.32,4.31,4.21,7.36c-0.75,0.48-2.41,1.68-4.99,3.62c-1.8,1.44-3.5,2.85-5.09,4.23c-0.47-1.01-1.51-3.62-3.12-7.83
				c-0.74-2.13-1.82-5.72-3.25-10.75c-0.02,0-0.03,0-0.05,0c-0.08,4.91-0.17,9.83-0.26,14.74c-4.53,0.04-9.06,0.1-13.59,0.19
				c-0.15-6.05-0.36-16.03-0.62-29.92c-0.11-8.18-0.39-19.5-0.83-33.92c4.36-1.2,8.34-1.89,11.93-2.08
				C249.75,46.51,256.44,55.35,256.5,72.29z M245.64,81.43c0-2.67-0.64-4.58-1.92-5.71c-0.94-0.83-2.12-1.17-3.54-1.02
				c-0.05,4.8-0.1,9.6-0.16,14.4c1.33-0.03,2.51-0.57,3.55-1.62C244.96,86.12,245.64,84.1,245.64,81.43z"/>
			<path class="st2" d="M274.28,48.82c-0.23,11.36-0.45,22.73-0.69,34.11c-0.12,7.36-0.26,17.38-0.42,30.07
				c-4.5-0.07-9-0.12-13.52-0.14c-0.63-21.6-1.24-43.21-1.85-64.82C263.3,48.15,268.8,48.41,274.28,48.82z"/>
			<path class="st2" d="M305.93,113.91c-4.33-0.17-8.67-0.33-13.02-0.46c-0.32-1.82-0.63-3.64-0.95-5.46
				c-0.36,0.23-1.27,1.03-2.72,2.4c-0.93,1.01-1.96,2.37-3.09,4.07c-0.47-1.67-0.94-3.35-1.41-5.03c-0.28-1-0.69-2.4-1.21-4.21
				c-0.41,2.65-0.81,5.3-1.22,7.96c-2.32-0.05-4.64-0.1-6.96-0.14c0.97-6.86,2.48-18.17,4.47-33.79
				c1.21-10.45,2.21-20.33,2.98-29.65c4.73,0.5,9.45,1.11,14.16,1.84c0.49,4.3,1.82,14.36,4,29.95
				C302.14,89.54,303.8,100.44,305.93,113.91z M290.75,99.96c-0.29-1.46-0.79-3.83-1.51-7.13c-0.43-1.83-1.09-4.36-1.96-7.6
				c-0.35,1.57-0.89,4.14-1.64,7.73c-0.41,2.07-0.89,4.89-1.45,8.48c0.48,0.02,1.56-0.1,3.24-0.36
				C288.47,100.87,289.57,100.5,290.75,99.96z"/>
			<path class="st2" d="M330.97,104.02c-0.13,0.97-0.38,2.79-0.73,5.49c-0.18,1.58-0.33,3.45-0.43,5.59
				c-7.04-0.42-14.14-0.78-21.28-1.08c-0.18-6.2-0.54-16.41-1.07-30.67c-0.32-7.31-0.84-17.42-1.57-30.38
				c5.4,1.02,10.78,2.19,16.13,3.52c-0.11,15.99-0.23,32.06-0.35,48.19c1.51,0.13,3.78,0.06,6.78-0.17
				C329.04,104.46,329.89,104.3,330.97,104.02z"/>
			<path class="st2" d="M112.62,143.86c-0.63,7.03-1.27,14.01-1.91,20.93c-0.39,4.48-0.89,10.56-1.5,18.22
				c-4.25-2.09-8.45-4.28-12.62-6.56c0.21-11.72,0.43-23.23,0.65-34.53C102.3,142.59,107.43,143.24,112.62,143.86z"/>
			<path class="st2" d="M136.89,185.43c-0.18,0.79-0.52,2.28-1.02,4.45c-0.26,1.28-0.5,2.8-0.72,4.55
				c-7.07-2.76-14.06-5.76-20.96-9.02c0.12-4.23,0.24-11.23,0.38-20.9c0.03-4.96-0.01-11.82-0.12-20.43
				c5.2,0.61,10.46,1.18,15.76,1.72c-0.9,12.67-1.8,25.22-2.71,37.65c1.5,0.55,3.76,1.16,6.79,1.75
				C134.92,185.32,135.79,185.41,136.89,185.43z"/>
			<path class="st2" d="M171.04,149.16c-0.33,7.94-0.67,15.86-1,23.77c-0.29,6.77-0.57,17.02-0.83,30.77
				c-4.16,1.18-8.37,1.02-12.61-0.33c-5.23-1.67-9.14-4.57-11.75-8.36c-2.22-3.22-3.71-7.49-4.49-12.8
				c-0.46-3.05-0.81-8.47-1.05-16.19c-0.25-7.15-0.33-13.59-0.25-19.39c4.98,0.46,9.99,0.89,15.04,1.29
				c-0.15,3.02-0.37,7.93-0.65,14.73c-0.14,3.79-0.26,9.18-0.36,16.17c-0.12,5.31,0.11,8.97,0.68,11c0.6,2.15,1.88,3.52,3.83,4.06
				c0.56,0.15,1.18,0.09,1.88-0.2c0.11-4.86,0.19-12.61,0.24-23.21c-0.04-5.32-0.16-12.73-0.37-22.14
				C163.22,148.63,167.12,148.91,171.04,149.16z"/>
			<path class="st2" d="M195.53,175.45c-1.19-0.57-2.09-0.89-2.71-0.95c-0.76-0.08-1.46,0.27-2.1,1.03
				c-0.77,0.93-1.17,2.2-1.19,3.82c-0.02,1.25,0.65,3.74,1.99,7.52c1.35,3.78,2.01,7.21,1.97,10.23c-0.05,4.4-1.13,7.84-3.23,10.24
				c-2,2.32-4.45,3.14-7.34,2.49c-2.66-0.6-4.61-1.36-5.86-2.25c-0.13-1.19-0.35-3.14-0.66-5.83c-0.2-1.46-0.48-3.4-0.85-5.81
				c1.76,1.05,2.95,1.64,3.56,1.76c2.41,0.49,3.63-0.73,3.68-3.62c0.03-2.1-0.42-4.07-1.37-5.89c-1.55-2.46-3.09-4.91-4.62-7.35
				c-2.98-4.71-4.4-9.85-4.3-15.56c0.11-5.96,1.62-10.32,4.54-13.24c2.55-2.54,5.9-3.75,10.08-3.56c2.37,0.11,5.02,0.79,7.97,2.06
				C195.23,158.84,195.38,167.14,195.53,175.45z"/>
			<path class="st2" d="M227.31,151.52c-0.27,8.74-0.54,17.48-0.81,26.21c-0.64-0.2-1.65-0.45-3.06-0.77
				c-0.86-0.13-2.27-0.28-4.2-0.48c-0.11,1.62-0.3,5.54-0.58,11.75c-0.21,6.02-0.56,14.85-1.04,26.48
				c-3.98-0.44-7.95-0.95-11.91-1.54c-0.08-5.48-0.25-14.09-0.5-25.81c-0.13-4.06-0.26-8.03-0.4-11.9
				c-1.28-0.03-2.57-0.06-3.85-0.09c-1.16,0.1-2.32,0.19-3.48,0.27c-0.11-8.37-0.22-16.73-0.33-25.08
				C207.15,151,217.22,151.32,227.31,151.52z"/>
			<path class="st2" d="M261.55,175.97c0.02,5.17-0.8,9.77-2.47,13.79c-1.48,3.51-3.34,6.04-5.58,7.57
				c0.48,1.26,1.66,3.92,3.54,7.95c0.94,1.84,2.38,4.27,4.32,7.25c-0.77,0.5-2.47,1.76-5.1,3.73c-1.84,1.46-3.58,2.87-5.21,4.24
				c-0.48-1.02-1.55-3.64-3.2-7.88c-0.76-2.15-1.87-5.77-3.34-10.86c-0.02,0-0.03,0-0.05,0c-0.08,4.92-0.16,9.84-0.24,14.76
				c-4.64-0.12-9.28-0.34-13.92-0.67c-0.16-6.09-0.39-16.14-0.67-30.12c-0.12-8.23-0.42-19.63-0.89-34.18
				c4.47-0.73,8.54-1.09,12.23-1.06C254.62,150.6,261.48,159,261.55,175.97z M250.45,185.16c0-2.67-0.66-4.59-1.97-5.75
				c-0.97-0.85-2.17-1.23-3.63-1.13c-0.05,4.81-0.1,9.62-0.14,14.42c1.36,0.02,2.57-0.48,3.64-1.51
				C249.75,189.84,250.46,187.83,250.45,185.16z"/>
			<path class="st2" d="M293.22,213.91c-4.46,0.6-8.93,1.09-13.42,1.49c-0.32-1.82-0.64-3.64-0.95-5.46
				c-0.37,0.28-1.31,1.2-2.81,2.76c-0.96,1.13-2.02,2.61-3.2,4.45c-0.48-1.66-0.96-3.32-1.44-4.98c-0.29-0.99-0.7-2.38-1.23-4.17
				c-0.43,2.72-0.85,5.45-1.28,8.17c-2.38,0.13-4.77,0.23-7.16,0.3c1.03-6.97,2.6-18.48,4.71-34.47
				c1.28-10.69,2.34-20.81,3.17-30.37c4.87-0.07,9.73-0.16,14.57-0.29c0.49,4.31,1.82,14.38,4.01,30
				C289.41,189.51,291.08,200.41,293.22,213.91z M277.63,201.9c-0.29-1.45-0.8-3.81-1.52-7.09c-0.44-1.81-1.1-4.31-1.99-7.51
				c-0.36,1.64-0.93,4.31-1.71,8.04c-0.43,2.14-0.93,5.06-1.52,8.76c0.49-0.03,1.6-0.25,3.34-0.69
				C275.28,203.1,276.41,202.6,277.63,201.9z"/>
			<path class="st2" d="M326.64,178.9c0.19,9.05-1.44,16.51-4.92,22.57c-3.59,6.27-8.79,10.28-15.6,11.51
				c-4.38,0.79-7.78,0.94-10.18,0.55c-0.34-10.05-0.68-20.11-1.02-30.18c-0.3-7.75-0.81-18.44-1.52-32.11
				c3.48-0.96,7.1-1.5,10.87-1.66c6.72-0.27,11.99,2.07,15.86,6.79C324.25,161.46,326.42,168.85,326.64,178.9z M316.93,185.13
				c-0.07-3.8-0.88-6.5-2.43-8.14c-1.29-1.35-2.92-1.87-4.89-1.53c0.02,8.27,0.04,16.55,0.06,24.84c2.06-0.55,3.73-1.94,4.99-4.11
				C316.26,193.48,317.01,189.81,316.93,185.13z"/>
			<path class="st2" d="M359.81,170.78c0.26,7.61-0.92,14.43-3.57,20.77c-2.78,6.61-6.52,10.96-11.21,12.51
				c-4.84,1.6-8.86-0.29-12.02-5.87c-2.98-5.24-4.56-12.43-4.75-21.25c-0.2-9.42,1.18-17.01,4.12-22.55
				c2.77-5.22,6.47-7.85,11.07-8.16c4.53-0.31,8.25,1.77,11.22,5.93C357.83,156.62,359.54,162.7,359.81,170.78z M348.84,179.29
				c-0.19-6.36-1.74-9.27-4.67-8.75c-2.86,0.5-4.21,4.07-4.04,10.77c0.07,2.67,0.51,5.09,1.32,7.2c0.92,2.38,2,3.38,3.24,3.04
				c1.21-0.33,2.24-1.93,3.09-4.73C348.56,184.27,348.91,181.77,348.84,179.29z"/>
			<path class="st2" d="M391.6,157.85c0.17,3.07-0.43,6.02-1.82,9.01c-1.23,2.61-2.84,4.82-4.83,6.59c0.47,0.64,1.62,1.93,3.45,3.69
				c0.91,0.77,2.28,1.68,4.11,2.62c-0.68,0.64-2.17,2.14-4.49,4.56c-1.62,1.75-3.16,3.45-4.61,5.11c-0.47-0.44-1.52-1.65-3.16-3.78
				c-0.76-1.12-1.89-3.09-3.38-6.04c-0.02,0.01-0.03,0.01-0.05,0.02c0.07,3.4,0.14,6.81,0.22,10.23c-4.27,1.95-8.57,3.8-12.91,5.54
				c-0.34-4.54-0.85-12.06-1.53-22.62c-0.36-6.23-0.98-14.84-1.86-25.94c4.17-1.02,7.94-1.67,11.35-2.02
				C384.68,143.71,391.01,147.97,391.6,157.85z M381.82,166.54c-0.08-1.75-0.74-2.82-1.97-3.27c-0.91-0.32-2.03-0.28-3.36,0.14
				c0.1,3.3,0.2,6.6,0.3,9.91c1.25-0.42,2.35-1.15,3.29-2.17C381.32,169.81,381.9,168.29,381.82,166.54z"/>
		</g>
	</g>
	<path class="st3" d="M518.68,397.59L3.96,96.96c0,0-2.04-39.53,7.15-77.32s9.19-37.79,9.19-37.79s12.17-7.14,67.4-7.15
		c103.49-0.02,146.6-5.27,186.75,0l255.9,402.38L518.68,397.59z"/>
</g>
<g id="Layer_1">
	<path class="st4" d="M540.19,387.38l-10.73,13.01c-3.59-2.96-4.1-8.28-1.14-11.87S536.59,384.42,540.19,387.38z"/>
	<path class="st5" d="M593.94,430.14l-41.48-34.21c0.75-4.75-0.6-9.36-4.07-12.21l-20.97,25.43c3.46,2.86,8.24,3.31,12.76,1.67
		l41.48,34.21L593.94,430.14z"/>
	
		<rect x="545.36" y="408.11" transform="matrix(0.7715 0.6363 -0.6363 0.7715 387.3479 -256.7241)" class="st6" width="11.4" height="5.53"/>
	<ellipse class="st7" cx="677.7" cy="512.78" rx="93.3" ry="7.14"/>
	<path class="st8" d="M724.64,362.45c12.41-6.49,19.96-15.31,17.65-21.67c-2.83-7.77-19.31-8.9-36.82-2.53
		c-0.76,0.28-1.51,0.57-2.25,0.86c11.64-12.48,16.62-26.06,11.15-32.33c-6.34-7.27-24.32-1.95-40.16,11.86
		c-10.27,8.96-17.12,19.3-18.93,27.45c-27.49,7.76-59.65,34.63-71.92,85.79c-4.26,17.77-0.84,33.58,8.02,46.42
		c14.77,21.39,44.65,34.48,79.3,34.48c48.72,0,79.32-9.47,91.88-45.9C773.55,435.03,757.51,388.23,724.64,362.45z"/>
	<g>
		<line class="st9" x1="700.12" y1="340.58" x2="688.42" y2="348.96"/>
		<path d="M700.12,340.58c-3.5,3.35-7.4,6.15-11.7,8.37C691.91,345.61,695.82,342.81,700.12,340.58L700.12,340.58z"/>
	</g>
	<g>
		<path d="M717,363.35c5.49-2.28,11.12-4.8,16.18-7.92C728.86,359.72,722.97,362.35,717,363.35L717,363.35z"/>
	</g>
	<path class="st10" d="M593.25,475.18c20.1-12.41,60.47-11.49,60.47-11.49s20.5,0.95,37.26,7.91c14.51,6.03,20.87,12.15,23.74,15.33
		c15.05,16.67,10.31,16.2,10.31,16.2s-18.72,6.75-38.05,6.91c-8.9,0.07-4.12,0-13.97,0.1c-3.74,0.04-13.7,0.15-22.3-1.17
		c-6.3-0.97-11.18-2.67-17.61-4.67c-4.3-1.34-20.98-7.84-30.31-16.96C593.66,478.4,593.25,475.18,593.25,475.18z"/>
	<path class="st8" d="M566.23,394.64"/>
	<path class="st11" d="M587.3,331.08"/>
	<path class="st11" d="M630.56,393.93"/>
	<polygon class="st11" points="619.87,412.79 583.18,395.12 574.96,407.76 615.83,414.37 	"/>
	<path class="st11" d="M630.56,393.93"/>
	<path class="st12" d="M615.77,488.78c18.81,1.45,23.39-22.57,25.32-27.53c0.15-0.39,0.45-0.91,0.04-0.84l-29.54,5.29l-22.37,1.92
		C589.22,467.62,605.21,487.93,615.77,488.78"/>
	<ellipse class="st13" cx="702.03" cy="437.34" rx="17.76" ry="26.33"/>
	<ellipse class="st13" cx="742.59" cy="443.74" rx="11.86" ry="19.13"/>
	<path class="st13" d="M643.55,460.02c0,0,4.68,1.19,10.72-0.26c6.38-1.53,9.11-4.43,9.11-4.43s3.63-4.83,4.29-8.51
		c1.21-6.74,0.88-13.4,0.64-13.41c0,0-0.53-6.67-3.53-11.22s-6.1-6.89-6.1-6.89s-2.84-2.31-6.28-3.14c0,0-2.44-0.42-6.6-0.82
		l-3.75-4.99c4.38,3.09-7.65,0.96-8.55,3c-1,2.27,13.26,14.43,6.43,11.63c-1,1.25-2,2.5-3,3.76l-10.7,13.42l10.85,11.03
		L643.55,460.02z"/>
	<path class="st12" d="M640.14,460.69c0.84-0.16,2.55-1,2.1-1.74c-3.29-5.32-16.28-23.08-28.04-25.06
		c-5.37-0.91-13.15,1.09-16.78,3.11c-3.48,1.94-6.89,4.48-10.2,9.41c-2.99,4.45-3.5,5.78-5.03,9.35c-1.13,2.63-2.25,7.79-2.77,10.34
		c-0.16,0.77,0.44,1.48,1.23,1.46c5.08-0.14,21.49-0.64,28.41-1.47C616.22,465.25,634.46,461.78,640.14,460.69z"/>
	<path class="st13" d="M585.43,434.61c-0.24,2.2-1.47,7.42-1.53,11.25c-0.04,2.55,0.04,0.51,0,2.88c1.81-2.26,3.61-4.53,5.42-6.79
		l12.58-8.5v-3.34l-9-2.42c-0.06,0.06-5.43-4.62-6.58,3.9C585.49,433.35,585.76,433.04,585.43,434.61z"/>
	<polygon class="st11" points="615.83,414.37 658.85,410.03 664.06,391.42 615.29,411.42 	"/>
	<path class="st14" d="M620.97,425.01c0,6.8-17.59,8-27.44,8.35c-3.03,0.1-5.79-2.35-5.79-8.35c0-9.26,7.44-16.77,16.62-16.77
		S620.97,415.74,620.97,425.01z"/>
	<path class="st14" d="M654.87,428.21c0,1.23,0.52,6.74-2.55,6.35c-7.37-0.92-17.97-0.52-26.43,1.16
		c-7.27,1.44-13.15-3.57-13.15-7.74c0-10.82,8.48-19.82,19.84-19.82S654.87,417.39,654.87,428.21z"/>
	<circle class="st15" cx="603.31" cy="425.01" r="2.97"/>
	<circle class="st15" cx="631.13" cy="425.24" r="2.97"/>
	<g>
		<path d="M583.04,436.35c6.51-3.46,13.74-5.7,21.16-5.91c3.73-0.01,7.44,0.91,10.97,1.99c3.1,0.96,6.27,2.1,8.82,4.2
			c0.38,0.35,0.71,0.63,1.09,1.16l-1.37-0.2c2.8-2.68,6.26-4.02,9.92-4.85c7.08-1.74,14.45-0.46,21.36,1.02
			c13.46,2.93,13.86,3.24-0.32,2.32c-9.93-0.77-20.86-2.75-29.73,2.78c0,0-0.96,0.68-0.96,0.68l-0.41-0.88
			c-1.86-2.91-5.39-4.43-8.65-5.31c-7-1.8-14.12,0.08-21.12,1.15c-3.53,0.65-7.05,1.44-10.65,2.14L583.04,436.35L583.04,436.35z"/>
	</g>
	<path class="st16" d="M765.41,446.63c3.62-4.16,7.24-8.33,10.85-12.49c2.77-3.19,5.54-6.38,8.31-9.56
		c1.06,1.74,2.57,3.94,4.79,5.99c4.25,3.93,8.49,5.57,8.49,5.57c-4.54,2.36-9.07,4.72-13.61,7.08c-5.81,3.02-11.63,6.05-17.44,9.07
		C766.34,450.4,765.87,448.52,765.41,446.63z"/>
	<path class="st16" d="M764.96,458.32l30.82-6.88c0,0,1.23,1.28,1.23,10.72c0,9.19-0.85,9.14-0.85,9.14s-1.61,2.16-16.8-0.69
		s-15.18-2.85-15.18-2.85L764.96,458.32z"/>
	<path class="st16" d="M759.82,475.63c2.5,3.89,5.01,7.78,7.51,11.67c1.92,2.98,3.83,5.95,5.75,8.93c1.09-1.31,2.6-2.96,4.7-4.4
		c4-2.75,7.71-3.61,7.71-3.61c-3.48-2.5-6.96-5-10.44-7.51c-4.46-3.21-8.03-6.74-12.49-9.94
		C761.94,472.29,760.44,474.12,759.82,475.63z"/>
</g>
</svg>
